<?xml version="1.0" encoding="UTF-8"?>
<svg width="138px" height="138px" viewBox="0 0 138 138" version="1.1" xmlns="http://www.w3.org/2000/svg" xmlns:xlink="http://www.w3.org/1999/xlink">
    <title>diagram_dark</title>
    <g id="Page-1" stroke="none" stroke-width="1" fill="none" fill-rule="evenodd">
        <g id="Group-2" transform="translate(-56.000000, -42.000000)" fill="#9486C5" fill-rule="nonzero">
            <g id="diagram_dark" transform="translate(56.000000, 42.000000)">
                <path d="M109,68.5 C109,52.7994012 95.9760479,40 80,40 C64.0239521,40 51,52.7994012 51,68.5 C51,84.2005988 64.0239521,97 80,97 C95.9760479,97 109,84.2005988 109,68.5 Z M91.8083832,85.9071856 L68.0179641,85.9071856 C65.5868263,85.9071856 63.6766467,84.0299401 63.6766467,81.6407186 L65.239521,75.497006 C65.239521,73.1077844 67.1497006,71.2305389 69.5808383,71.2305389 L74.9640719,71.2305389 C71.491018,69.5239521 69.0598802,65.9401198 69.0598802,61.6736527 C69.0598802,55.7005988 73.9221557,50.9221557 80,50.9221557 C86.0778443,50.9221557 90.9401198,55.7005988 90.9401198,61.6736527 C90.9401198,65.7694611 88.508982,69.3532934 85.0359281,71.2305389 L90.4191617,71.2305389 C92.8502994,71.2305389 94.760479,73.1077844 94.760479,75.497006 L96.3233533,81.6407186 C96.1497006,84.0299401 94.239521,85.9071856 91.8083832,85.9071856 Z" id="Shape"></path>
                <path d="M107.725264,55 L116.412043,50.2620329 C120.159282,54.4923607 126.461455,55.8460655 131.571325,52.9694427 C137.53284,49.7543936 139.747117,42.3090168 136.510866,36.3865579 C133.274615,30.4640991 125.780139,28.2643287 119.818624,31.4793778 C114.708753,34.1867875 112.324147,40.2784595 113.857108,45.693279 L105,50.431246 C106.021974,51.954164 107.043948,53.477082 107.725264,55 Z" id="Path"></path>
                <path d="M128.428188,65.6188003 C122.754469,63.8008398 116.736889,66.1146077 113.814064,70.9074127 L109.859654,69.7505288 C109.687723,71.5684893 109.343862,73.2211806 109,74.873872 L112.266686,75.8654868 C111.750894,81.3193683 115.189511,86.6079807 120.691299,88.4259412 C127.224672,90.4091709 134.273837,87.1037881 136.337008,80.8235609 C138.572109,74.3780646 134.961561,67.60203 128.428188,65.6188003 Z" id="Path"></path>
                <path d="M110.022798,105.988536 L100.437594,91 C99.017564,92.1788736 97.5975339,93.1893367 96,94.0313893 L105.230196,108.683104 C98.6625565,113.90383 97.0650226,122.829587 101.502617,129.902829 C106.472722,137.818123 117.300452,140.344281 125.465625,135.628786 C133.808302,130.913292 136.470859,120.64025 131.500754,112.893367 C127.063159,105.651715 117.832963,102.957146 110.022798,105.988536 Z" id="Path"></path>
                <path d="M77.5,25.0089686 L77.5,39 C78.3333333,39 79.1666667,38.8251121 80,38.8251121 C80.8333333,38.8251121 81.6666667,38.8251121 82.5,39 L82.5,25.0089686 C87.8333333,23.7847534 92,18.7130045 92,12.5919283 C92,5.59641256 86.6666667,0 80,0 C73.3333333,0 68,5.59641256 68,12.5919283 C68,18.7130045 72.1666667,23.7847534 77.5,25.0089686 Z" id="Path"></path>
                <path d="M59.621394,89 L50.1636049,98.9471911 C45.0844219,96.0316351 38.604085,96.8891515 34.4006232,101.176734 C29.6717287,106.150329 29.8468729,114.039481 35.1012001,118.67007 C40.1803832,123.300659 48.2370183,123.129156 52.9659128,117.984057 C57.1693746,113.696474 57.3445188,107.179349 54.1919225,102.54876 L64,92.2585626 C62.4237018,91.2295428 61.0225479,90.2005231 59.621394,89 Z" id="Path"></path>
                <path d="M52,56.7810257 L33.4346412,51.0445022 C34.6379515,43.1146021 29.8247103,35.3534233 21.9172426,32.8226041 C12.9783661,29.9543423 3.52378525,34.8472594 0.773361719,43.4520446 C-1.97706181,52.0568299 2.83617937,61.5052215 11.6031544,64.2047619 C19.510622,66.7355811 28.1056956,63.023713 31.7156265,55.9374193 L50.6247882,61.842664 C50.9685912,60.1554512 51.3123941,58.4682385 52,56.7810257 Z" id="Path"></path>
            </g>
        </g>
    </g>
</svg>