<?xml version="1.0" encoding="UTF-8"?>
<svg width="146px" height="110px" viewBox="0 0 146 110" version="1.1" xmlns="http://www.w3.org/2000/svg" xmlns:xlink="http://www.w3.org/1999/xlink">
    <title>images</title>
    <g id="Page-1" stroke="none" stroke-width="1" fill="none" fill-rule="evenodd">
        <g id="Group-3" transform="translate(-80.000000, -43.000000)" fill="#739892" fill-rule="nonzero">
            <g id="images" transform="translate(80.000000, 43.000000)">
                <path d="M145.912547,22.5323611 L133.26022,101.088203 C132.931588,103.563702 130.631165,105.214035 128.166426,104.718935 L120.443578,103.398669 L120.443578,98.9427702 L124.551476,99.6029033 C127.016215,99.9329699 129.316638,98.2826371 129.64527,95.9721711 L140.818753,26.3281266 C141.147385,23.8526274 139.504226,21.5421614 137.203803,21.2120949 L37.9569801,5.20386662 C35.4922411,4.87380006 33.1918181,6.52413287 32.8631862,8.8345988 L31.2200269,19.3967288 L26.7834968,19.3967288 L29.2482357,3.71856709 C29.5768676,1.24306788 31.8772906,-0.407264933 34.3420296,0.0878349098 L142.297596,17.5813627 C144.762335,17.9114292 146.405495,20.2218952 145.912547,22.5323611 Z M118.30747,25.99806 C118.30747,23.5225608 116.335679,21.5421614 113.87094,21.5421614 L4.43653014,21.5421614 C1.97179117,21.5421614 0,23.5225608 0,25.99806 L0,105.544101 C0,108.019601 1.97179117,110 4.43653014,110 L113.87094,110 C116.335679,110 118.30747,108.019601 118.30747,105.544101 L118.30747,25.99806 Z M4.43653014,30.4539586 C4.43653014,27.9784594 6.40832132,25.99806 8.87306028,25.99806 L109.43441,25.99806 C111.899149,25.99806 113.87094,27.9784594 113.87094,30.4539586 L113.87094,101.088203 C113.87094,103.563702 111.899149,105.544101 109.43441,105.544101 L8.87306028,105.544101 C6.40832132,105.544101 4.43653014,103.563702 4.43653014,101.088203 L4.43653014,30.4539586 Z M116.007047,79.1387765 L90.2094462,53.2285514 C87.9090232,50.9180854 84.7870205,49.5978192 81.6650178,49.5978192 C78.5430151,49.5978192 75.4210124,50.9180854 73.1205894,53.2285514 L18.8963321,107.689534 L116.007047,107.689534 L116.007047,79.1387765 L116.007047,79.1387765 Z M36.8067686,83.4296418 L22.5112826,69.0717463 C19.060648,65.6060474 13.3095904,65.6060474 9.69463994,69.0717463 L2.30042304,76.498244 L2.30042304,107.689534 L12.6523267,107.689534 L36.8067686,83.4296418 Z M27.6050764,55.5390173 C33.356134,55.5390173 37.9569801,50.9180854 37.9569801,45.1419206 C37.9569801,39.3657558 33.356134,34.7448239 27.6050764,34.7448239 C21.8540188,34.7448239 17.2531728,39.3657558 17.2531728,45.1419206 C17.2531728,50.9180854 21.8540188,55.5390173 27.6050764,55.5390173 Z" id="Shape"></path>
            </g>
        </g>
    </g>
</svg>