<?xml version="1.0" encoding="UTF-8"?>
<svg width="125px" height="125px" viewBox="0 0 125 125" version="1.1" xmlns="http://www.w3.org/2000/svg" xmlns:xlink="http://www.w3.org/1999/xlink">
    <title>narrative</title>
    <g id="Page-1" stroke="none" stroke-width="1" fill="none" fill-rule="evenodd">
        <g id="Group" transform="translate(-52.000000, -43.000000)" fill="#7C92B8" fill-rule="nonzero">
            <g id="narrative" transform="translate(52.000000, 43.000000)">
                <path d="M2.61538462,0 C1.04615385,0 0,1.04166667 0,2.60416667 L0,122.395833 C0,123.958333 1.04615385,125 2.61538462,125 L99.3846154,125 C100.953846,125 102,123.958333 102,122.395833 L102,83.3333333 C102,81.7708333 100.953846,80.7291667 99.3846154,80.7291667 C97.8153846,80.7291667 96.7692308,81.7708333 96.7692308,83.3333333 C96.7692308,83.3333333 96.7692308,83.3333333 96.7692308,83.3333333 L96.7692308,119.791667 L5.23076923,119.791667 L5.23076923,5.20833333 L73.2307692,5.20833333 L73.2307692,31.25 C73.2307692,32.5520833 74.2769231,33.8541667 75.8461538,33.8541667 C75.8461538,33.8541667 75.8461538,33.8541667 75.8461538,33.8541667 L96.7692308,33.8541667 C96.7692308,33.8541667 96.7692308,33.8541667 96.7692308,33.8541667 L96.7692308,57.2916667 C96.7692308,58.8541667 97.8153846,59.8958333 99.3846154,59.8958333 C100.953846,59.8958333 102,58.8541667 102,57.2916667 C102,57.2916667 102,57.2916667 102,57.2916667 L102,31.25 C102,30.7291667 101.738462,29.9479167 101.476923,29.6875 L77.9384615,1.04166667 C77.4153846,0.520833333 76.6307692,0 75.8461538,0 L2.61538462,0 Z M78.4615385,9.89583333 L94.1538462,28.90625 L78.4615385,28.90625 L78.4615385,9.89583333 L78.4615385,9.89583333 Z" id="Shape"></path>
                <path d="M110.570997,45.0679978 C109.798014,45.0679978 109.282693,45.3293976 108.767371,45.8521972 L70.6335771,84.5393678 C70.3759163,84.8007676 70.1182556,85.0621674 70.1182556,85.584967 L63.1614147,104.405753 C62.6460932,105.712752 63.4190755,107.281151 64.7073794,107.80395 C65.2227009,108.06535 65.9956832,108.06535 66.5110048,107.80395 L85.0625804,100.746156 C85.3202411,100.484756 85.8355627,100.484756 86.0932234,100.223356 L124.227018,61.5361853 C125.257661,60.4905861 125.257661,58.9221873 124.227018,57.8765881 L112.632283,46.113597 C111.859301,45.3293976 111.343979,44.806598 110.570997,45.0679978 Z M110.570997,51.3415931 L118.558481,59.4449869 L84.289598,94.2111605 L76.3021141,86.1077666 L110.570997,51.3415931 Z M73.4678456,90.8129631 L79.3940434,96.8251585 L69.8605948,100.484756 L73.4678456,90.8129631 Z" id="Shape"></path>
                <path d="M17.5833333,43 C16.0333333,43 15,44 15,45.5 C15,47 16.0333333,48 17.5833333,48 C17.5833333,48 17.5833333,48 17.5833333,48 L74.4166667,48 C75.9666667,48 77,47 77,45.5 C77,44 75.9666667,43 74.4166667,43 C74.4166667,43 74.4166667,43 74.4166667,43 L17.5833333,43 Z" id="Path"></path>
                <path d="M18.5384615,75 C17.0153846,75 16,76 16,77.5 C16,79 17.0153846,80 18.5384615,80 C18.5384615,80 18.5384615,80 18.5384615,80 L46.4615385,80 C47.9846154,80 49,79 49,77.5 C49,76 47.9846154,75 46.4615385,75 C46.4615385,75 46.4615385,75 46.4615385,75 L18.5384615,75 Z" id="Path"></path>
                <path d="M18.5384615,91 C17.0153846,91 16,92 16,93.5 C16,95 17.0153846,96 18.5384615,96 C18.5384615,96 18.5384615,96 18.5384615,96 L46.4615385,96 C47.9846154,96 49,95 49,93.5 C49,92 47.9846154,91 46.4615385,91 C46.4615385,91 46.4615385,91 46.4615385,91 L18.5384615,91 Z" id="Path"></path>
                <path d="M17.5833333,59 C16.0333333,59 15,60 15,61.5 C15,63 16.0333333,64 17.5833333,64 C17.5833333,64 17.5833333,64 17.5833333,64 L74.4166667,64 C75.9666667,64 77,63 77,61.5 C77,60 75.9666667,59 74.4166667,59 C74.4166667,59 74.4166667,59 74.4166667,59 L17.5833333,59 Z" id="Path"></path>
            </g>
        </g>
    </g>
</svg>