<?xml version="1.0" encoding="UTF-8" standalone="no"?>
<svg
   xmlns:dc="http://purl.org/dc/elements/1.1/"
   xmlns:cc="http://creativecommons.org/ns#"
   xmlns:rdf="http://www.w3.org/1999/02/22-rdf-syntax-ns#"
   xmlns:svg="http://www.w3.org/2000/svg"
   xmlns="http://www.w3.org/2000/svg"
   xmlns:sodipodi="http://sodipodi.sourceforge.net/DTD/sodipodi-0.dtd"
   xmlns:inkscape="http://www.inkscape.org/namespaces/inkscape"
   version="1.1"
   viewBox="0 0 316.93701 160.617"
   stroke-miterlimit="10"
   id="svg2"
   inkscape:version="0.91 r13725"
   sodipodi:docname="workflow-relation.svg"
   width="316.93701"
   height="160.617"
   style="fill:none;stroke:none;stroke-linecap:square;stroke-miterlimit:10">
  <metadata
     id="metadata87">
    <rdf:RDF>
      <cc:Work
         rdf:about="">
        <dc:format>image/svg+xml</dc:format>
        <dc:type
           rdf:resource="http://purl.org/dc/dcmitype/StillImage" />
        <dc:title></dc:title>
      </cc:Work>
    </rdf:RDF>
  </metadata>
  <defs
     id="defs85" />
  <sodipodi:namedview
     pagecolor="#ffffff"
     bordercolor="#666666"
     borderopacity="1"
     objecttolerance="10"
     gridtolerance="10"
     guidetolerance="10"
     inkscape:pageopacity="0"
     inkscape:pageshadow="2"
     inkscape:window-width="1920"
     inkscape:window-height="1017"
     id="namedview83"
     showgrid="false"
     inkscape:zoom="1.0182338"
     inkscape:cx="664.60749"
     inkscape:cy="118.93987"
     inkscape:window-x="1912"
     inkscape:window-y="-8"
     inkscape:window-maximized="1"
     inkscape:current-layer="g7" />
  <clipPath
     id="p.0">
    <path
       d="M 0,0 800,0 800,600 0,600 0,0 Z"
       id="path5"
       inkscape:connector-curvature="0"
       style="clip-rule:nonzero" />
  </clipPath>
  <g
     clip-path="url(#p.0)"
     id="g7"
     transform="translate(0,-439.383)">
    <path
       d="m 0,0 800,0 0,600 -800,0 z"
       id="path9"
       inkscape:connector-curvature="0"
       style="fill:#000000;fill-opacity:0;fill-rule:evenodd" />
    <path
       d="m 80.0748,439.88322 65.85828,0 0,45.29134 -65.85828,0 z"
       id="path11"
       inkscape:connector-curvature="0"
       style="fill:#cfe2f3;fill-rule:evenodd" />
    <path
       d="m 80.0748,439.88322 65.85828,0 0,45.29134 -65.85828,0 z"
       id="path13"
       inkscape:connector-curvature="0"
       style="fill-rule:evenodd;stroke:#000000;stroke-width:1;stroke-linecap:butt;stroke-linejoin:round" />
    <path
       d="m 92.84043,469.44887 -3.53125,-13.35937 1.8125,0 2.03125,8.76562 q 0.328125,1.375 0.5625,2.71875 0.5,-2.14062 0.59375,-2.46875 l 2.546875,-9.01562 2.125,0 1.921875,6.76562 q 0.71875,2.51563 1.03125,4.71875 0.26562,-1.26562 0.67187,-2.89062 l 2.09375,-8.59375 1.78125,0 -3.67187,13.35937 -1.70313,0 -2.812495,-10.17187 q -0.359375,-1.28125 -0.421875,-1.5625 -0.203125,0.90625 -0.390625,1.5625 l -2.828125,10.17187 -1.8125,0 z m 14.74927,-6.5 q 0,-3.32812 1.78125,-5.20312 1.78125,-1.89063 4.60937,-1.89063 1.84375,0 3.32813,0.89063 1.48437,0.875 2.26562,2.46875 0.78125,1.57812 0.78125,3.57812 0,2.03125 -0.82812,3.64063 -0.8125,1.59375 -2.3125,2.42187 -1.5,0.82813 -3.25,0.82813 -1.875,0 -3.35938,-0.90625 -1.48437,-0.92188 -2.25,-2.5 -0.76562,-1.57813 -0.76562,-3.32813 z m 1.8125,0.0156 q 0,2.42188 1.29687,3.8125 1.29688,1.39063 3.26563,1.39063 2,0 3.28125,-1.40625 1.28125,-1.40625 1.28125,-3.98438 0,-1.625 -0.54688,-2.84375 -0.54687,-1.21875 -1.60937,-1.875 -1.0625,-0.67187 -2.375,-0.67187 -1.89063,0 -3.25,1.29687 -1.34375,1.28125 -1.34375,4.28125 z"
       id="path15"
       inkscape:connector-curvature="0"
       style="fill:#000000;fill-rule:nonzero" />
    <path
       d="m 193.30314,439.88322 65.85828,0 0,45.29134 -65.85828,0 z"
       id="path17"
       inkscape:connector-curvature="0"
       style="fill:#cfe2f3;fill-rule:evenodd" />
    <path
       d="m 193.30314,439.88322 65.85828,0 0,45.29134 -65.85828,0 z"
       id="path19"
       inkscape:connector-curvature="0"
       style="fill-rule:evenodd;stroke:#000000;stroke-width:1;stroke-linecap:butt;stroke-linejoin:round" />
    <path
       d="m 206.06876,469.44887 -3.53125,-13.35937 1.8125,0 2.03125,8.76562 q 0.32812,1.375 0.5625,2.71875 0.5,-2.14062 0.59375,-2.46875 l 2.54687,-9.01562 2.125,0 1.92188,6.76562 q 0.71875,2.51563 1.03125,4.71875 0.26562,-1.26562 0.67187,-2.89062 l 2.09375,-8.59375 1.78125,0 -3.67187,13.35937 -1.70313,0 -2.8125,-10.17187 q -0.35937,-1.28125 -0.42187,-1.5625 -0.20313,0.90625 -0.39063,1.5625 l -2.82812,10.17187 -1.8125,0 z m 15.28055,0 0,-13.35937 4.60937,0 q 1.54688,0 2.375,0.20312 1.14063,0.25 1.95313,0.95313 1.0625,0.89062 1.57812,2.28125 0.53125,1.39062 0.53125,3.17187 0,1.51563 -0.35937,2.70313 -0.35938,1.17187 -0.92188,1.9375 -0.54687,0.76562 -1.20312,1.21875 -0.65625,0.4375 -1.59375,0.67187 -0.9375,0.21875 -2.14063,0.21875 l -4.82812,0 z m 1.76562,-1.57812 2.85938,0 q 1.3125,0 2.0625,-0.23438 0.75,-0.25 1.20312,-0.70312 0.625,-0.625 0.96875,-1.6875 0.35938,-1.0625 0.35938,-2.57813 0,-2.09375 -0.6875,-3.21875 -0.6875,-1.125 -1.67188,-1.5 -0.70312,-0.28125 -2.28125,-0.28125 l -2.8125,0 0,10.20313 z"
       id="path21"
       inkscape:connector-curvature="0"
       style="fill:#000000;fill-rule:nonzero" />
    <path
       d="m 145.93308,462.52888 47.37005,0"
       id="path23"
       inkscape:connector-curvature="0"
       style="fill:#000000;fill-opacity:0;fill-rule:evenodd" />
    <path
       d="m 145.93308,462.52888 41.37005,0"
       id="path25"
       inkscape:connector-curvature="0"
       style="fill-rule:evenodd;stroke:#000000;stroke-width:1;stroke-linecap:butt;stroke-linejoin:round" />
    <path
       d="m 187.30314,464.18061 4.53812,-1.65173 -4.53812,-1.65173 z"
       id="path27"
       inkscape:connector-curvature="0"
       style="fill:#000000;fill-rule:evenodd;stroke:#000000;stroke-width:1;stroke-linecap:butt" />
    <path
       d="m 0.5,554.20867 65.85826,0 0,45.29133 -65.85826,0 z"
       id="path29"
       inkscape:connector-curvature="0"
       style="fill:#cfe2f3;fill-rule:evenodd" />
    <path
       d="m 0.5,554.20867 65.85826,0 0,45.29133 -65.85826,0 z"
       id="path31"
       inkscape:connector-curvature="0"
       style="fill-rule:evenodd;stroke:#000000;stroke-width:1;stroke-linecap:butt;stroke-linejoin:round" />
    <path
       d="m 13.26563,583.77433 -3.53125,-13.35936 1.8125,0 2.03125,8.76561 q 0.328125,1.375 0.5625,2.71875 0.5,-2.14063 0.59375,-2.46875 l 2.546875,-9.01561 2.125,0 1.921875,6.76561 q 0.71875,2.51562 1.03125,4.71875 0.265625,-1.26563 0.671875,-2.89063 l 2.09375,-8.59373 1.78125,0 -3.671875,13.35936 -1.703125,0 -2.8125,-10.17186 q -0.359375,-1.28125 -0.421875,-1.5625 -0.203125,0.90625 -0.390625,1.5625 l -2.828125,10.17186 -1.8125,0 z m 15.577408,0 0,-13.35936 1.765625,0 0,13.35936 -1.765625,0 z m 10.402054,0 -1.640625,0 0,-10.45311 q -0.59375,0.5625 -1.5625,1.14061 -0.953125,0.5625 -1.71875,0.84375 l 0,-1.59374 q 1.375,-0.64062 2.40625,-1.5625 1.03125,-0.92187 1.453125,-1.78125 l 1.0625,0 0,13.40624 z"
       id="path33"
       inkscape:connector-curvature="0"
       style="fill:#000000;fill-rule:nonzero" />
    <path
       d="m 117.82544,554.20867 65.85828,0 0,45.29133 -65.85828,0 z"
       id="path35"
       inkscape:connector-curvature="0"
       style="fill:#cfe2f3;fill-rule:evenodd" />
    <path
       d="m 117.82544,554.20867 65.85828,0 0,45.29133 -65.85828,0 z"
       id="path37"
       inkscape:connector-curvature="0"
       style="fill-rule:evenodd;stroke:#000000;stroke-width:1;stroke-linecap:butt;stroke-linejoin:round" />
    <path
       d="m 130.59107,583.77433 -3.53125,-13.35936 1.8125,0 2.03125,8.76561 q 0.32812,1.375 0.5625,2.71875 0.5,-2.14063 0.59375,-2.46875 l 2.54687,-9.01561 2.125,0 1.92188,6.76561 q 0.71875,2.51562 1.03125,4.71875 0.26562,-1.26563 0.67187,-2.89063 l 2.09375,-8.59373 1.78125,0 -3.67187,13.35936 -1.70313,0 -2.8125,-10.17186 q -0.35937,-1.28125 -0.42187,-1.5625 -0.20313,0.90625 -0.39063,1.5625 l -2.82812,10.17186 -1.8125,0 z m 15.57742,0 0,-13.35936 1.76563,0 0,13.35936 -1.76563,0 z m 12.83954,-1.57813 0,1.57813 -8.82812,0 q -0.0156,-0.59375 0.1875,-1.14063 0.34375,-0.90625 1.07812,-1.78125 0.75,-0.875 2.15625,-2.01562 2.17188,-1.78125 2.9375,-2.82813 0.76563,-1.04687 0.76563,-1.96873 0,-0.98438 -0.70313,-1.64063 -0.6875,-0.67187 -1.8125,-0.67187 -1.1875,0 -1.90625,0.71875 -0.70312,0.70312 -0.70312,1.95312 l -1.6875,-0.17187 q 0.17187,-1.89063 1.29687,-2.875 1.14063,-0.98438 3.03125,-0.98438 1.92188,0 3.04688,1.0625 1.125,1.0625 1.125,2.64063 0,0.79686 -0.32813,1.57811 -0.32812,0.78125 -1.09375,1.64062 -0.75,0.84375 -2.53125,2.34375 -1.46875,1.23438 -1.89062,1.6875 -0.42188,0.4375 -0.6875,0.875 l 6.54687,0 z"
       id="path39"
       inkscape:connector-curvature="0"
       style="fill:#000000;fill-rule:nonzero" />
    <path
       d="m 250.57874,554.20867 65.85828,0 0,45.29133 -65.85828,0 z"
       id="path41"
       inkscape:connector-curvature="0"
       style="fill:#cfe2f3;fill-rule:evenodd" />
    <path
       d="m 250.57874,554.20867 65.85828,0 0,45.29133 -65.85828,0 z"
       id="path43"
       inkscape:connector-curvature="0"
       style="fill-rule:evenodd;stroke:#000000;stroke-width:1;stroke-linecap:butt;stroke-linejoin:round" />
    <path
       d="m 263.34436,583.77433 -3.53125,-13.35936 1.8125,0 2.03125,8.76561 q 0.32812,1.375 0.5625,2.71875 0.5,-2.14063 0.59375,-2.46875 l 2.54687,-9.01561 2.125,0 1.92188,6.76561 q 0.71875,2.51562 1.03125,4.71875 0.26562,-1.26563 0.67187,-2.89063 l 2.09375,-8.59373 1.78125,0 -3.67187,13.35936 -1.70313,0 -2.8125,-10.17186 q -0.35937,-1.28125 -0.42187,-1.5625 -0.20313,0.90625 -0.39063,1.5625 l -2.82812,10.17186 -1.8125,0 z m 15.57739,0 0,-13.35936 1.76563,0 0,13.35936 -1.76563,0 z m 4.2302,-3.53125 1.64062,-0.21875 q 0.28125,1.40625 0.95313,2.01562 0.6875,0.60938 1.65625,0.60938 1.15625,0 1.95312,-0.79688 0.79688,-0.79687 0.79688,-1.98437 0,-1.125 -0.73438,-1.85938 -0.73437,-0.73437 -1.875,-0.73437 -0.46875,0 -1.15625,0.17187 l 0.1875,-1.4375 q 0.15625,0.0156 0.26563,0.0156 1.04687,0 1.875,-0.54688 0.84375,-0.54687 0.84375,-1.67186 0,-0.90625 -0.60938,-1.5 -0.60937,-0.59375 -1.57812,-0.59375 -0.95313,0 -1.59375,0.60938 -0.64063,0.59375 -0.8125,1.79687 l -1.64063,-0.29687 q 0.29688,-1.64063 1.35938,-2.54688 1.0625,-0.90625 2.65625,-0.90625 1.09375,0 2,0.46875 0.92187,0.46875 1.40625,1.28125 0.5,0.8125 0.5,1.71875 0,0.85936 -0.46875,1.57811 -0.46875,0.70313 -1.375,1.125 1.1875,0.28125 1.84375,1.14063 0.65625,0.85937 0.65625,2.15625 0,1.73437 -1.28125,2.95312 -1.26563,1.21875 -3.21875,1.21875 -1.76563,0 -2.92188,-1.04687 -1.15625,-1.04688 -1.32812,-2.71875 z"
       id="path45"
       inkscape:connector-curvature="0"
       style="fill:#000000;fill-rule:nonzero" />
    <path
       d="M 113.00394,485.17455 33.44487,554.21392"
       id="path47"
       inkscape:connector-curvature="0"
       style="fill:#000000;fill-opacity:0;fill-rule:evenodd" />
    <path
       d="M 113.00394,485.17455 37.97652,550.28147"
       id="path49"
       inkscape:connector-curvature="0"
       style="fill-rule:evenodd;stroke:#000000;stroke-width:1;stroke-linecap:butt;stroke-linejoin:round" />
    <path
       d="m 36.89397,549.03396 -2.344956,4.22182 4.510071,-1.7268 z"
       id="path51"
       inkscape:connector-curvature="0"
       style="fill:#000000;fill-rule:evenodd;stroke:#000000;stroke-width:1;stroke-linecap:butt" />
    <path
       d="m 113.00394,485.17455 37.76376,69.03937"
       id="path53"
       inkscape:connector-curvature="0"
       style="fill:#000000;fill-opacity:0;fill-rule:evenodd" />
    <path
       d="m 113.00394,485.17455 34.88446,63.7754"
       id="path55"
       inkscape:connector-curvature="0"
       style="fill-rule:evenodd;stroke:#000000;stroke-width:1;stroke-linecap:butt;stroke-linejoin:round" />
    <path
       d="m 146.43927,549.74259 3.62689,3.18877 -0.72867,-4.77407 z"
       id="path57"
       inkscape:connector-curvature="0"
       style="fill:#000000;fill-rule:evenodd;stroke:#000000;stroke-width:1;stroke-linecap:butt" />
    <path
       d="m 113.00394,485.17455 170.51968,69.03937"
       id="path59"
       inkscape:connector-curvature="0"
       style="fill:#000000;fill-opacity:0;fill-rule:evenodd" />
    <path
       d="m 113.00394,485.17455 164.95819,66.78767"
       id="path61"
       inkscape:connector-curvature="0"
       style="fill-rule:evenodd;stroke:#000000;stroke-width:1;stroke-linecap:butt;stroke-linejoin:round" />
    <path
       d="m 277.34229,553.49323 4.82629,0.17206 -3.58655,-3.23409 z"
       id="path63"
       inkscape:connector-curvature="0"
       style="fill:#000000;fill-rule:evenodd;stroke:#000000;stroke-width:1;stroke-linecap:butt" />
    <path
       d="M 226.23227,485.17455 33.41337,554.21392"
       id="path65"
       inkscape:connector-curvature="0"
       style="fill:#000000;fill-opacity:0;fill-rule:evenodd" />
    <path
       d="M 226.23227,485.17455 39.06221,552.19135"
       id="path67"
       inkscape:connector-curvature="0"
       style="fill-rule:evenodd;stroke:#000000;stroke-width:1;stroke-linecap:butt;stroke-linejoin:round" />
    <path
       d="m 38.50542,550.63629 -3.715698,3.08484 4.829269,0.0253 z"
       id="path69"
       inkscape:connector-curvature="0"
       style="fill:#000000;fill-rule:evenodd;stroke:#000000;stroke-width:1;stroke-linecap:butt" />
    <path
       d="M 226.23227,485.17455 150.7677,554.21392"
       id="path71"
       inkscape:connector-curvature="0"
       style="fill:#000000;fill-opacity:0;fill-rule:evenodd" />
    <path
       d="m 226.23227,485.17455 -71.03763,64.98938"
       id="path73"
       inkscape:connector-curvature="0"
       style="fill-rule:evenodd;stroke:#000000;stroke-width:1;stroke-linecap:butt;stroke-linejoin:round" />
    <path
       d="m 154.07972,548.94525 -2.23337,4.28189 4.4632,-1.84453 z"
       id="path75"
       inkscape:connector-curvature="0"
       style="fill:#000000;fill-rule:evenodd;stroke:#000000;stroke-width:1;stroke-linecap:butt" />
    <path
       d="m 226.23227,485.17455 57.29135,69.03937"
       id="path77"
       inkscape:connector-curvature="0"
       style="fill:#000000;fill-opacity:0;fill-rule:evenodd" />
    <path
       d="m 226.23227,485.17455 53.45978,64.4221"
       id="path79"
       inkscape:connector-curvature="0"
       style="fill-rule:evenodd;stroke:#000000;stroke-width:1;stroke-linecap:butt;stroke-linejoin:round" />
    <path
       d="m 278.42096,550.65145 4.1691,2.43747 -1.62693,-4.54704 z"
       id="path81"
       inkscape:connector-curvature="0"
       style="fill:#000000;fill-rule:evenodd;stroke:#000000;stroke-width:1;stroke-linecap:butt" />
  </g>
</svg>
