<?xml version="1.0" encoding="UTF-8" standalone="no"?>
<!-- Created with Inkscape (http://www.inkscape.org/) -->

<svg
   xmlns:dc="http://purl.org/dc/elements/1.1/"
   xmlns:cc="http://creativecommons.org/ns#"
   xmlns:rdf="http://www.w3.org/1999/02/22-rdf-syntax-ns#"
   xmlns:svg="http://www.w3.org/2000/svg"
   xmlns="http://www.w3.org/2000/svg"
   xmlns:sodipodi="http://sodipodi.sourceforge.net/DTD/sodipodi-0.dtd"
   xmlns:inkscape="http://www.inkscape.org/namespaces/inkscape"
   width="64px"
   height="64px"
   id="svg1307"
   sodipodi:version="0.32"
   inkscape:version="0.48.2 r9819"
   sodipodi:docname="digilib-logo.svg"
   version="1.1"
   inkscape:export-filename="/Volumes/Schlachteplatte/Users/casties/Library/Eclipse/digilib/webapp/src/main/webapp/jquery/img/fullscreen/svg/16/digilib-logo.png"
   inkscape:export-xdpi="22.996834"
   inkscape:export-ydpi="22.996834">
  <defs
     id="defs1309" />
  <sodipodi:namedview
     id="base"
     pagecolor="#ffffff"
     bordercolor="#666666"
     borderopacity="1.0"
     inkscape:pageopacity="0.0"
     inkscape:pageshadow="2"
     inkscape:zoom="8.2782051"
     inkscape:cx="20.282237"
     inkscape:cy="35.775981"
     inkscape:current-layer="layer1"
     showgrid="true"
     inkscape:document-units="px"
     inkscape:grid-bbox="true"
     showguides="true"
     inkscape:guide-bbox="true"
     inkscape:window-width="1280"
     inkscape:window-height="753"
     inkscape:window-x="-4"
     inkscape:window-y="-4">
    <sodipodi:guide
       orientation="vertical"
       position="-1.9327861"
       id="guide23493" />
  </sodipodi:namedview>
  <metadata
     id="metadata1312">
    <rdf:RDF>
      <cc:Work
         rdf:about="">
        <dc:format>image/svg+xml</dc:format>
        <dc:type
           rdf:resource="http://purl.org/dc/dcmitype/StillImage" />
        <dc:title></dc:title>
      </cc:Work>
    </rdf:RDF>
  </metadata>
  <g
     id="layer1"
     inkscape:label="Layer 1"
     inkscape:groupmode="layer">
    <rect
       style="fill:#ffffff;fill-opacity:1;fill-rule:evenodd;stroke:#000000;stroke-width:1.04922342px;stroke-linecap:butt;stroke-linejoin:miter;stroke-opacity:1"
       id="rect1319"
       width="34.523312"
       height="42.631897"
       x="-73.168289"
       y="40.459969"
       transform="matrix(-0.846554,0.532302,-2.654126e-3,0.999996,0,0)" />
    <rect
       style="fill:#0000ff;fill-opacity:0.75;fill-rule:evenodd;stroke:#000000;stroke-width:1px;stroke-linecap:butt;stroke-linejoin:miter;stroke-opacity:1"
       id="rect8613"
       width="2.4545455"
       height="0"
       x="58.545456"
       y="6" />
    <rect
       style="fill:#c5c5c5;fill-opacity:1;fill-rule:evenodd;stroke:none;stroke-width:1.0745697px;stroke-linecap:butt;stroke-linejoin:miter;stroke-opacity:1"
       id="rect9490"
       width="18.989349"
       height="30.290173"
       x="-63.894802"
       y="44.831184"
       transform="matrix(-0.85293,0.522025,1.174035e-2,0.999931,0,0)" />
    <rect
       style="fill:#000080;fill-opacity:1;stroke:#000000;stroke-opacity:1"
       id="rect16478"
       width="8.6068287"
       height="8.6778221"
       x="-37.568077"
       y="0.25004297"
       transform="matrix(-0.851875,-0.523744,0,1,0,0)" />
    <rect
       style="fill:#800000;fill-opacity:1;stroke:#000000;stroke-opacity:1"
       id="rect19107"
       width="8.6068287"
       height="8.6778221"
       x="-29.251465"
       y="34.880619"
       transform="matrix(-0.851875,-0.523744,0,1,0,0)" />
    <rect
       style="fill:#b00000;fill-opacity:1;stroke:#000000;stroke-opacity:1"
       id="rect19109"
       width="8.6068287"
       height="8.6778221"
       x="-28.961241"
       y="0.25004297"
       transform="matrix(-0.851875,-0.523744,0,1,0,0)" />
    <rect
       style="fill:#b0b000;fill-opacity:1;stroke:#000000;stroke-opacity:1"
       id="rect19111"
       width="8.6068287"
       height="8.6778221"
       x="-20.538849"
       y="0.25004297"
       transform="matrix(-0.851875,-0.523744,0,1,0,0)" />
    <rect
       style="fill:#0000b0;fill-opacity:1;stroke:#000000;stroke-opacity:1"
       id="rect19113"
       width="8.6068287"
       height="8.6778221"
       x="-29.251465"
       y="17.202801"
       transform="matrix(-0.851875,-0.523744,0,1,0,0)" />
    <rect
       style="fill:#0000f0;fill-opacity:1;stroke:#000000;stroke-opacity:1"
       id="rect19115"
       width="8.6068287"
       height="8.6778221"
       x="-37.568077"
       y="8.9278679"
       transform="matrix(-0.851875,-0.523744,0,1,0,0)" />
    <rect
       style="fill:#f00000;fill-opacity:1;stroke:#000000;stroke-opacity:1"
       id="rect19117"
       width="8.6068287"
       height="8.6778221"
       x="-20.723278"
       y="8.9278679"
       transform="matrix(-0.851875,-0.523744,0,1,0,0)" />
    <rect
       style="fill:#f0f000;fill-opacity:1;stroke:#000000;stroke-opacity:1"
       id="rect19119"
       width="8.6068287"
       height="8.6778221"
       x="-28.961241"
       y="8.9278679"
       transform="matrix(-0.851875,-0.523744,0,1,0,0)" />
    <rect
       style="fill:#f00000;fill-opacity:1;stroke:#000000;stroke-opacity:1"
       id="rect24390"
       width="8.6068287"
       height="8.6778221"
       x="-37.568077"
       y="26.132593"
       transform="matrix(-0.851875,-0.523744,0,1,0,0)" />
    <rect
       style="fill:#0000f0;fill-opacity:1;stroke:#000000;stroke-opacity:1"
       id="rect24392"
       width="8.6068287"
       height="8.6778221"
       x="-20.289255"
       y="25.880625"
       transform="matrix(-0.851875,-0.523744,0,1,0,0)" />
    <rect
       style="fill:#b0b000;fill-opacity:1;stroke:#000000;stroke-opacity:1"
       id="rect24394"
       width="8.6068287"
       height="8.6778221"
       x="-20.289255"
       y="17.202801"
       transform="matrix(-0.851875,-0.523744,0,1,0,0)" />
    <rect
       style="fill:#000080;fill-opacity:1;stroke:#000000;stroke-opacity:1"
       id="rect24396"
       width="8.6068287"
       height="8.6778221"
       x="-29.251465"
       y="25.880625"
       transform="matrix(-0.851875,-0.523744,0,1,0,0)" />
    <rect
       style="fill:#000080;fill-opacity:1;stroke:#000000;stroke-opacity:1"
       id="rect24398"
       width="8.6068287"
       height="8.6778221"
       x="-11.682427"
       y="0.20279986"
       transform="matrix(-0.851875,-0.523744,0,1,0,0)" />
    <rect
       style="fill:#800000;fill-opacity:1;stroke:#000000;stroke-opacity:1"
       id="rect24400"
       width="8.6068287"
       height="8.6778221"
       x="-12.021473"
       y="17.202801"
       transform="matrix(-0.851875,-0.523744,0,1,0,0)" />
    <rect
       style="fill:#f00000;fill-opacity:1;stroke:#000000;stroke-opacity:1"
       id="rect24404"
       width="8.6068287"
       height="8.6778221"
       x="-12.021473"
       y="34.880619"
       transform="matrix(-0.851875,-0.523744,0,1,0,0)" />
    <rect
       style="fill:#b0b000;fill-opacity:1;stroke:#000000;stroke-opacity:1"
       id="rect24406"
       width="8.6068287"
       height="8.6778221"
       x="-37.519249"
       y="17.202801"
       transform="matrix(-0.851875,-0.523744,0,1,0,0)" />
  </g>
</svg>
