<?xml version="1.0" encoding="UTF-8" standalone="no"?>
<!-- Created with Inkscape (http://www.inkscape.org/) -->
<svg
   xmlns:dc="http://purl.org/dc/elements/1.1/"
   xmlns:cc="http://web.resource.org/cc/"
   xmlns:rdf="http://www.w3.org/1999/02/22-rdf-syntax-ns#"
   xmlns:svg="http://www.w3.org/2000/svg"
   xmlns="http://www.w3.org/2000/svg"
   xmlns:sodipodi="http://inkscape.sourceforge.net/DTD/sodipodi-0.dtd"
   xmlns:inkscape="http://www.inkscape.org/namespaces/inkscape"
   width="64px"
   height="64px"
   id="svg1307"
   sodipodi:version="0.32"
   inkscape:version="0.43"
   sodipodi:docbase="C:\temp"
   sodipodi:docname="digilib-denied.svg"
   inkscape:export-filename="C:\temp\digilib-denied.png"
   inkscape:export-xdpi="90"
   inkscape:export-ydpi="90">
  <defs
     id="defs1309" />
  <sodipodi:namedview
     id="base"
     pagecolor="#ffffff"
     bordercolor="#666666"
     borderopacity="1.0"
     inkscape:pageopacity="0.0"
     inkscape:pageshadow="2"
     inkscape:zoom="8.2782051"
     inkscape:cx="34.898932"
     inkscape:cy="35.775981"
     inkscape:current-layer="layer1"
     showgrid="true"
     inkscape:document-units="px"
     inkscape:grid-bbox="true"
     showguides="true"
     inkscape:guide-bbox="true"
     inkscape:window-width="1280"
     inkscape:window-height="753"
     inkscape:window-x="-4"
     inkscape:window-y="-4">
    <sodipodi:guide
       orientation="vertical"
       position="-1.9327861"
       id="guide23493" />
  </sodipodi:namedview>
  <metadata
     id="metadata1312">
    <rdf:RDF>
      <cc:Work
         rdf:about="">
        <dc:format>image/svg+xml</dc:format>
        <dc:type
           rdf:resource="http://purl.org/dc/dcmitype/StillImage" />
      </cc:Work>
    </rdf:RDF>
  </metadata>
  <g
     id="layer1"
     inkscape:label="Layer 1"
     inkscape:groupmode="layer">
    <rect
       style="fill:#ffffff;fill-opacity:1;fill-rule:evenodd;stroke:#000000;stroke-width:1.04922342px;stroke-linecap:butt;stroke-linejoin:miter;stroke-opacity:1"
       id="rect1319"
       width="34.523312"
       height="42.631897"
       x="-73.168289"
       y="40.459969"
       transform="matrix(-0.846554,0.532302,-2.654126e-3,0.999996,0,0)" />
    <rect
       style="fill:#0000ff;fill-opacity:0.75;fill-rule:evenodd;stroke:#000000;stroke-width:1px;stroke-linecap:butt;stroke-linejoin:miter;stroke-opacity:1"
       id="rect8613"
       width="2.4545455"
       height="0"
       x="58.545456"
       y="6" />
    <rect
       style="fill:#c5c5c5;fill-opacity:1;fill-rule:evenodd;stroke:none;stroke-width:1.0745697px;stroke-linecap:butt;stroke-linejoin:miter;stroke-opacity:1"
       id="rect9490"
       width="18.989349"
       height="30.290173"
       x="-63.894802"
       y="44.831184"
       transform="matrix(-0.85293,0.522025,1.174035e-2,0.999931,0,0)" />
    <rect
       style="fill:#c5c5c5;fill-opacity:1"
       id="rect10365"
       width="10"
       height="7.5454545"
       x="-43"
       y="11.454545" />
    <rect
       style="fill:#262626;fill-opacity:1;stroke:#000000;stroke-opacity:1"
       id="rect16478"
       width="8.6068287"
       height="8.6778221"
       x="-37.568077"
       y="0.25004297"
       transform="matrix(-0.851875,-0.523744,0,1,0,0)" />
    <rect
       style="fill:#262626;fill-opacity:1;stroke:#000000;stroke-opacity:1"
       id="rect19107"
       width="8.6068287"
       height="8.6778221"
       x="-29.251465"
       y="34.880619"
       transform="matrix(-0.851875,-0.523744,0,1,0,0)" />
    <rect
       style="fill:#464646;fill-opacity:1;stroke:#000000;stroke-opacity:1"
       id="rect19109"
       width="8.6068287"
       height="8.6778221"
       x="-28.961241"
       y="0.25004297"
       transform="matrix(-0.851875,-0.523744,0,1,0,0)" />
    <rect
       style="fill:#585858;fill-opacity:1;stroke:#000000;stroke-opacity:1"
       id="rect19111"
       width="8.6068287"
       height="8.6778221"
       x="-20.538849"
       y="0.25004297"
       transform="matrix(-0.851875,-0.523744,0,1,0,0)" />
    <rect
       style="fill:#464646;fill-opacity:1;stroke:#000000;stroke-opacity:1"
       id="rect19113"
       width="8.6068287"
       height="8.6778221"
       x="-29.251465"
       y="17.202801"
       transform="matrix(-0.851875,-0.523744,0,1,0,0)" />
    <rect
       style="fill:#7d7d7d;fill-opacity:1;stroke:#000000;stroke-opacity:1"
       id="rect19115"
       width="8.6068287"
       height="8.6778221"
       x="-37.568077"
       y="8.9278679"
       transform="matrix(-0.851875,-0.523744,0,1,0,0)" />
    <rect
       style="fill:#7d7d7d;fill-opacity:1;stroke:#000000;stroke-opacity:1"
       id="rect19117"
       width="8.6068287"
       height="8.6778221"
       x="-20.723278"
       y="8.9278679"
       transform="matrix(-0.851875,-0.523744,0,1,0,0)" />
    <rect
       style="fill:#c2c2c2;fill-opacity:1;stroke:#000000;stroke-opacity:1"
       id="rect19119"
       width="8.6068287"
       height="8.6778221"
       x="-28.961241"
       y="8.9278679"
       transform="matrix(-0.851875,-0.523744,0,1,0,0)" />
    <rect
       style="fill:#7d7d7d;fill-opacity:1;stroke:#000000;stroke-opacity:1"
       id="rect24390"
       width="8.6068287"
       height="8.6778221"
       x="-37.568077"
       y="26.132593"
       transform="matrix(-0.851875,-0.523744,0,1,0,0)" />
    <rect
       style="fill:#7d7d7d;fill-opacity:1;stroke:#000000;stroke-opacity:1"
       id="rect24392"
       width="8.6068287"
       height="8.6778221"
       x="-20.289255"
       y="25.880625"
       transform="matrix(-0.851875,-0.523744,0,1,0,0)" />
    <rect
       style="fill:#585858;fill-opacity:1;stroke:#000000;stroke-opacity:1"
       id="rect24394"
       width="8.6068287"
       height="8.6778221"
       x="-20.289255"
       y="17.202801"
       transform="matrix(-0.851875,-0.523744,0,1,0,0)" />
    <rect
       style="fill:#262626;fill-opacity:1;stroke:#000000;stroke-opacity:1"
       id="rect24396"
       width="8.6068287"
       height="8.6778221"
       x="-29.251465"
       y="25.880625"
       transform="matrix(-0.851875,-0.523744,0,1,0,0)" />
    <rect
       style="fill:#262626;fill-opacity:1;stroke:#000000;stroke-opacity:1"
       id="rect24398"
       width="8.6068287"
       height="8.6778221"
       x="-11.682427"
       y="0.20279986"
       transform="matrix(-0.851875,-0.523744,0,1,0,0)" />
    <rect
       style="fill:#262626;fill-opacity:1;stroke:#000000;stroke-opacity:1"
       id="rect24400"
       width="8.6068287"
       height="8.6778221"
       x="-12.021473"
       y="17.202801"
       transform="matrix(-0.851875,-0.523744,0,1,0,0)" />
    <rect
       style="fill:#787878;fill-opacity:1;stroke:#000000;stroke-opacity:1"
       id="rect24404"
       width="8.6068287"
       height="8.6778221"
       x="-12.021473"
       y="34.880619"
       transform="matrix(-0.851875,-0.523744,0,1,0,0)" />
    <rect
       style="fill:#585858;fill-opacity:1;stroke:#000000;stroke-opacity:1"
       id="rect24406"
       width="8.6068287"
       height="8.6778221"
       x="-37.519249"
       y="17.202801"
       transform="matrix(-0.851875,-0.523744,0,1,0,0)" />
    <path
       sodipodi:type="arc"
       style="fill:#d20000;fill-opacity:1;stroke:none;stroke-opacity:1"
       id="path3136"
       sodipodi:cx="35.152546"
       sodipodi:cy="24.377884"
       sodipodi:rx="12.079913"
       sodipodi:ry="11.596717"
       d="M 47.232459 24.377884 A 12.079913 11.596717 0 1 1  23.072633,24.377884 A 12.079913 11.596717 0 1 1  47.232459 24.377884 z"
       transform="matrix(1.769606,0,0,1.869472,-29.36785,-18.58286)" />
    <rect
       style="fill:#fffdfd;fill-opacity:1;stroke:none;stroke-opacity:1"
       id="rect3140"
       width="27.137299"
       height="11.311166"
       x="18.862701"
       y="21" />
  </g>
</svg>
