<?xml version="1.0" encoding="UTF-8"?>
<svg width="29px" height="33px" viewBox="0 0 29 33" version="1.1" xmlns="http://www.w3.org/2000/svg" xmlns:xlink="http://www.w3.org/1999/xlink">
    <title>Group</title>
    <g id="Page-1" stroke="none" stroke-width="1" fill="none" fill-rule="evenodd">
        <g id="actor_no-image" fill="#000000" fill-rule="nonzero">
            <g id="Group">
                <path d="M28.9561271,28.0529248 L28.9561271,28.0529248 C28.9561271,27.9192201 28.0786687,17 14.4780635,17 C0.7019667,17 0,28.0083565 0,28.1420613 L0,31.3509749 C0,32.2423398 0.7458396,33 1.623298,33 L27.376702,33 C28.2541604,33 29,32.2423398 29,31.3509749 L28.9561271,28.0529248 Z" id="Path"></path>
                <path d="M14,16 C17.8414634,16 21,12.4198895 21,8 C21,3.5801105 17.8414634,0 14,0 C10.1585366,0 7,3.5801105 7,8 C7,12.4198895 10.1585366,16 14,16 Z" id="Path"></path>
            </g>
        </g>
    </g>
</svg>