<?xml version="1.0" encoding="UTF-8"?>
<svg width="20px" height="20px" viewBox="0 0 20 20" version="1.1" xmlns="http://www.w3.org/2000/svg" xmlns:xlink="http://www.w3.org/1999/xlink">
    <title>path-1</title>
    <g id="Page-1" stroke="none" stroke-width="1" fill="none" fill-rule="evenodd">
        <path d="M11,9 L11,1 C11,0.447 10.552,0 10,0 C9.447,0 9,0.447 9,1 L9,9 L1,9 C0.447,9 0,9.447 0,10 C0,10.553 0.447,11 1,11 L9,11 L9,19 C9,19.553 9.447,20 10,20 C10.552,20 11,19.553 11,19 L11,11 L19,11 C19.552,11 20,10.553 20,10 C20,9.447 19.552,9 19,9 L11,9 Z" id="path-1" fill="#000000" fill-rule="nonzero"></path>
    </g>
</svg>