<?xml version="1.0" encoding="UTF-8"?>
<svg width="101px" height="100px" viewBox="0 0 101 100" version="1.1" xmlns="http://www.w3.org/2000/svg" xmlns:xlink="http://www.w3.org/1999/xlink">
    <title>advanced_search</title>
    <g id="Page-1" stroke="none" stroke-width="1" fill="none" fill-rule="evenodd">
        <g id="advanced_search" fill="#000000" fill-rule="nonzero">
            <path d="M11.1,64.7 C25.9,79.5 49.9,79.5 64.7,64.7 C79.5,49.9 79.5,25.9 64.7,11.1 C49.9,-3.7 25.9,-3.7 11.1,11.1 C-3.7,25.9 -3.7,49.9 11.1,64.7 Z M15.3,15.3 C27.8,2.9 48,2.9 60.5,15.3 C73,27.8 73,48 60.5,60.5 C48,73 27.8,73 15.3,60.5 C2.9,48 2.9,27.8 15.3,15.3 Z" id="Shape"></path>
            <rect id="Rectangle" transform="translate(81.683385, 81.620845) rotate(-45.000000) translate(-81.683385, -81.620845) " x="75.6834425" y="61.6710363" width="11.9998849" height="39.8996174"></rect>
            <path d="M20.4,44.2 C20.6,44.8 20.8,45.3 21.1,45.9 L18,53.3 L22.4,57.7 L29.9,54.7 C30.5,55 31,55.2 31.6,55.4 L34.7,62.8 L41,62.8 L44.2,55.4 C44.8,55.2 45.4,55 46,54.7 L53.4,57.7 L57.8,53.3 L54.8,45.9 C55.1,45.3 55.3,44.7 55.6,44 L63,40.9 L63,34.7 L55.7,31.6 C55.5,31 55.2,30.3 54.9,29.7 L57.9,22.3 L53.5,17.9 L46,21 C45.4,20.7 44.8,20.5 44.2,20.3 L41.1,12.9 L34.9,12.9 L31.7,20.3 C31.1,20.5 30.5,20.7 30,21 L22.5,18 L18.1,22.4 L21.1,29.9 C20.8,30.5 20.6,31 20.4,31.6 L12.9,34.7 L12.9,41 C12.9,41 20.4,44.2 20.4,44.2 Z M28.6,37.9 C28.6,32.7 32.8,28.5 38,28.5 C43.2,28.5 47.4,32.7 47.4,37.9 C47.4,43.1 43.2,47.3 38,47.3 C32.8,47.3 28.6,43.1 28.6,37.9 Z" id="Shape"></path>
        </g>
    </g>
</svg>