<?xml version="1.0" encoding="UTF-8"?>
<svg width="64px" height="65px" viewBox="0 0 64 65" version="1.1" xmlns="http://www.w3.org/2000/svg" xmlns:xlink="http://www.w3.org/1999/xlink">
    <title>Shape</title>
    <g id="Page-1" stroke="none" stroke-width="1" fill="none" fill-rule="evenodd">
        <path d="M15.9,58.803125 L19.7,55.003125 L9.884375,45.184375 L6.08125,48.9875 L6.08125,53.45625 L11.428125,53.45625 L11.428125,58.803125 L15.9,58.803125 L15.9,58.803125 Z M37.746875,20.0375 C37.746875,19.425 37.440625,19.115625 36.828125,19.115625 C36.55,19.115625 36.3125,19.215625 36.11875,19.409375 L13.475,42.05 C13.28125,42.246875 13.184375,42.484375 13.184375,42.7625 C13.184375,43.375 13.490625,43.68125 14.103125,43.68125 C14.38125,43.68125 14.61875,43.584375 14.8125,43.3875 L37.453125,20.746875 C37.65,20.55 37.746875,20.315625 37.746875,20.0375 L37.746875,20.0375 Z M35.490625,12.015625 L52.86875,29.39375 L18.1125,64.15 L0.734375,64.15 L0.734375,46.771875 L35.490625,12.015625 Z M64.021875,16.025 C64.021875,17.503125 63.509375,18.75625 62.478125,19.784375 L55.54375,26.71875 L38.165625,9.340625 L45.1,2.45 C46.103125,1.390625 47.35625,0.8625 48.859375,0.8625 C50.334375,0.8625 51.603125,1.390625 52.659375,2.45 L62.478125,12.225 C63.509375,13.309375 64.021875,14.578125 64.021875,16.025 L64.021875,16.025 Z" id="Shape" fill="#000000" fill-rule="nonzero"></path>
    </g>
</svg>