<?xml version="1.0" encoding="UTF-8"?>
<svg width="21px" height="17px" viewBox="0 0 21 17" version="1.1" xmlns="http://www.w3.org/2000/svg" xmlns:xlink="http://www.w3.org/1999/xlink">
    <title>area_annotation</title>
    <g id="Page-1" stroke="none" stroke-width="1" fill="none" fill-rule="evenodd">
        <g id="area_annotation" fill="#000000" fill-rule="nonzero">
            <path d="M20.078385,2.3703269 L18.8806764,2.44444995 C18.8534716,2.0048636 18.3205852,1.6 17.620202,1.6 L17.620202,0.4 C18.9068124,0.4 20.0082347,1.23681211 20.078385,2.3703269 Z M20.0818182,5.91446469 L18.8818182,5.91446469 L18.8818182,3.41446469 L20.0818182,3.41446469 L20.0818182,5.91446469 Z M20.0818182,9.41446469 L18.8818182,9.41446469 L18.8818182,6.91446469 L20.0818182,6.91446469 L20.0818182,9.41446469 Z M18.8810048,12.883125 L18.8818182,10.4144647 L20.0818182,10.4144647 L20.0793747,12.945652 L18.8810048,12.883125 Z M16.6246057,14.9333333 L16.6246057,13.7333333 L17.621327,13.7333329 C18.0235471,13.7330802 18.3882676,13.5964936 18.6259697,13.3758189 L19.4424144,14.2552609 C18.9776907,14.6866948 18.320277,14.932894 17.6217043,14.9333333 L16.6246057,14.9333333 Z M13.1246059,14.9333333 L13.1246059,13.7333333 L15.6246059,13.7333333 L15.6246059,14.9333333 L13.1246059,14.9333333 Z M9.62460594,14.9333333 L9.62460594,13.7333333 L12.1246059,13.7333333 L12.1246059,14.9333333 L9.62460594,14.9333333 Z M6.12460594,14.9333333 L6.12460594,13.7333333 L8.62460594,13.7333333 L8.62460594,14.9333333 L6.12460594,14.9333333 Z M2.32349765,13.6709365 L3.39577983,13.1322242 C3.56863973,13.4762939 4.03689553,13.7333333 4.58888889,13.7333333 L5.12460594,13.7333333 L5.12460594,14.9333333 L4.58888889,14.9333333 C3.60455854,14.9333333 2.71140966,14.4430576 2.32349765,13.6709365 Z M2.12727273,6.45458566 L3.32727273,6.45458566 L3.32727273,8.95458566 L2.12727273,8.95458566 L2.12727273,6.45458566 Z M2.12727273,2.95458566 L3.32727273,2.95458566 L3.32727273,5.45458566 L2.12727273,5.45458566 L2.12727273,2.95458566 Z M5.04876795,0.4 L5.04876795,1.6 L4.58888889,1.6 C4.02529282,1.6 3.5503925,1.86780845 3.38647828,2.22034209 L2.29834814,1.71440455 C2.67068231,0.913617902 3.58147247,0.4 4.58888889,0.4 L5.04876795,0.4 Z M8.54876795,0.4 L8.54876795,1.6 L6.04876795,1.6 L6.04876795,0.4 L8.54876795,0.4 Z M12.048768,0.4 L12.048768,1.6 L9.54876795,1.6 L9.54876795,0.4 L12.048768,0.4 Z M15.548768,0.4 L15.548768,1.6 L13.048768,1.6 L13.048768,0.4 L15.548768,0.4 Z M17.620202,0.4 L17.620202,1.6 L16.548768,1.6 L16.548768,0.4 L17.620202,0.4 Z" id="Path"></path>
            <polygon id="Path-path" points="6.49586767 5.98333333 4.2975206 5.98333333 3.9475206 6.33333333 3.947 9.716 1 9.7166666 0.65 10.0666666 0.65 12.5555554 1 12.9055554 3.947 12.905 3.9475206 16.2888887 4.2975206 16.6388887 6.49586767 16.6388887 6.84586767 16.2888887 6.845 12.905 9.79338827 12.9055554 10.1433883 12.5555554 10.1433883 10.0666666 9.79338827 9.7166666 6.845 9.716 6.84586767 6.33333333"></polygon>
        </g>
    </g>
</svg>