<?xml version="1.0" encoding="UTF-8"?>
<svg width="64px" height="59px" viewBox="0 0 64 59" version="1.1" xmlns="http://www.w3.org/2000/svg" xmlns:xlink="http://www.w3.org/1999/xlink">
    <title>Combined Shape</title>
    <g id="Page-1" stroke="none" stroke-width="1" fill="none" fill-rule="evenodd">
        <path d="M58.7540984,0.0152439024 C60.3278689,0.0152439024 61.3770492,0.542029617 62.4262295,1.59560105 C63.4754098,2.64917247 64,3.96613676 64,5.28310105 L64,37.6804225 C64,39.2607796 63.4754098,40.314351 62.4262295,41.3679225 C61.3770492,42.4214939 60.0655738,42.9482796 58.7540984,42.9482796 L26.7540984,42.9482796 L10.4918033,59.0152439 L10.4918033,42.9482796 L5.24590164,42.9482796 C3.67213115,42.9482796 2.62295082,42.4214939 1.57377049,41.3679225 C0.524590164,40.314351 0,38.9973868 0,37.6804225 L0,5.5464939 C0,3.96613676 0.524590164,2.91256533 1.57377049,1.8589939 C2.36065574,0.542029617 3.67213115,0.0152439024 5.24590164,0.0152439024 L58.7540984,0.0152439024 Z M35,30 L29,30 L29,34 L35,34 L35,30 Z M36,8 L28,8 L29.0909091,26 L34.9090909,26 L36,8 Z" id="Combined-Shape" fill="#000000" fill-rule="nonzero"></path>
    </g>
</svg>