<?xml version="1.0" encoding="UTF-8"?>
<svg width="59px" height="45px" viewBox="0 0 59 45" version="1.1" xmlns="http://www.w3.org/2000/svg" xmlns:xlink="http://www.w3.org/1999/xlink">
    <title>belief_no-image</title>
    <g id="Page-1" stroke="none" stroke-width="1" fill="none" fill-rule="evenodd">
        <g id="belief_no-image" fill="#000000" fill-rule="nonzero">
            <g id="Group-2">
                <g id="Group" transform="translate(46.000000, 24.000000)">
                    <path d="M1.1478798,8.03431398 C0.946451229,8.23866181 0.831165513,8.52387917 0.831165513,8.80909658 C0.831165513,9.094314 0.946451229,9.37909658 1.1478798,9.58387917 C1.34930837,9.78866183 1.62273694,9.90518358 1.91159409,9.90518358 C2.19273694,9.90518358 2.47430837,9.788227 2.6748798,9.58387917 C2.87716551,9.37909658 2.99202266,9.094314 2.99202266,8.80909658 C2.99202266,8.52387917 2.87673694,8.23866181 2.6748798,8.03431398 C2.27202266,7.62474877 1.54430837,7.62474877 1.1478798,8.03431398 Z" id="Path"></path>
                    <path d="M1.23916551,4.08605312 C1.83102266,4.00866181 2.2488798,3.45909659 2.17216551,2.85866181 C2.13530837,2.56344442 2.1828798,2.36909659 2.3148798,2.28083572 C2.4918798,2.16127051 2.85616551,2.14605312 3.15273694,2.32518355 C3.41159409,2.47996616 3.52430837,2.7238792 3.4968798,3.06953137 C3.46473694,3.4738792 3.26202266,3.64561833 2.64659409,4.07170529 C2.10059409,4.44953138 1.4208798,4.91953138 1.08145123,5.80127051 C0.864165514,6.36518355 1.13845123,7.00127051 1.69430837,7.22127051 C1.82330837,7.27300964 1.95745123,7.29692268 2.08730837,7.29692268 C2.51973694,7.29692268 2.92816551,7.03214008 3.09445123,6.59953138 C3.18573694,6.36127051 3.44673694,6.17214007 3.86373694,5.88300964 C4.5288798,5.42344442 5.5338798,4.72866181 5.65130837,3.24518355 C5.74430837,2.06779225 5.2218798,1.01822703 4.25459409,0.437792247 C3.27359409,-0.15003384 2.01702266,-0.145686014 1.12602266,0.449531377 C0.283451228,1.01257486 -0.115977344,1.99257486 0.0293083703,3.13866181 C0.104736942,3.73909659 0.650308371,4.16257486 1.23916551,4.08605312 Z" id="Path"></path>
                </g>
                <g id="noun_Thinking_1276597" transform="translate(15.000000, 0.000000)">
                    <path d="M29.9111111,8.16494846 C28.9777778,8.16494846 28.2222222,8.95360823 28.2222222,9.92783505 C28.2222222,10.9020619 28.9777778,11.6907217 29.9111111,11.6907217 C30.8444445,11.6907217 31.6,10.9020619 31.6,9.92783505 C31.6,8.95360823 30.8444445,8.16494846 29.9111111,8.16494846 Z" id="Path"></path>
                    <path d="M24.0444444,8.16494846 C23.1111111,8.16494846 22.3555555,8.95360823 22.3555555,9.92783505 C22.3555555,10.9020619 23.1111111,11.6907217 24.0444444,11.6907217 C24.9777778,11.6907217 25.7333333,10.9020619 25.7333333,9.92783505 C25.7333333,8.95360823 24.9777778,8.16494846 24.0444444,8.16494846 Z" id="Path"></path>
                    <path d="M35.6444444,8.16494846 C34.7111111,8.16494846 33.9555556,8.95360823 33.9555556,9.92783505 C33.9555556,10.9020619 34.7111111,11.6907217 35.6444444,11.6907217 C36.5777778,11.6907217 37.3333333,10.9020619 37.3333333,9.92783505 C37.3333333,8.95360823 36.5777778,8.16494846 35.6444444,8.16494846 Z" id="Path"></path>
                    <path d="M29.5555556,39.6649484 L29.5555556,39.6649484 C29.5555556,39.5257732 28.6666667,28.1597938 14.8888889,28.1597938 C0.933333337,28.1597938 0.222222222,39.6185567 0.222222222,39.757732 L0.222222222,43.0979381 C0.222222222,44.0257732 0.977777778,44.814433 1.86666667,44.814433 L27.9555555,44.814433 C28.8444444,44.814433 29.6,44.0257732 29.6,43.0979381 L29.5555556,39.6649484 Z" id="Path"></path>
                    <path d="M34.2666667,0.324742268 L25.2444445,0.324742268 C20.5777778,0.324742268 16.7111111,3.94329897 16.0444445,8.62886598 C16.4888889,8.72164944 16.8888889,8.86082476 17.3333334,9 C17.8222222,4.87113402 21.2,1.67010309 25.2444445,1.67010309 L34.2666667,1.67010309 C38.6666667,1.67010309 42.2666667,5.42783506 42.2666667,10.0206186 C42.2666667,14.6134021 38.6666667,18.371134 34.2666667,18.371134 L31.4666667,18.371134 L26.2666666,22.3608248 L26.2666666,18.371134 L25.2,18.371134 C24.4444444,18.371134 23.6888889,18.2319588 23.0222223,18.0463918 C23.0222223,18.1391752 23.0222223,18.2319588 23.0222223,18.3247423 C23.0222223,18.6958763 22.9777778,19.0670103 22.9777778,19.4381443 C23.6,19.6237113 24.2666667,19.7164949 24.9777778,19.7164949 L24.9777778,25.0979381 L31.9111111,19.7164949 L34.2666667,19.7164949 C39.4222222,19.7164949 43.6,15.3556701 43.6,9.97422682 C43.6,4.68556701 39.4222222,0.324742268 34.2666667,0.324742268 Z" id="Path"></path>
                    <path d="M14.5333333,26.7216494 C18.5333333,26.7216494 21.8222222,22.9639176 21.8222222,18.3247422 C21.8222222,13.685567 18.5333333,9.92783505 14.5333333,9.92783505 C10.5333333,9.92783505 7.24444444,13.685567 7.24444444,18.3247422 C7.24444444,22.9639176 10.5333333,26.7216494 14.5333333,26.7216494 Z" id="Path"></path>
                </g>
                <g id="noun_analysis_509371" transform="translate(0.000000, 9.000000)">
                    <g id="Group" transform="translate(1.000000, 1.000000)">
                        <path d="M7.34000014,1.24555555 C3.94000006,1.24555555 1.16,4.18000006 1.16,7.76888903 C1.16,11.357778 3.94000006,14.2922225 7.34000014,14.2922225 C10.7400002,14.2922225 13.5200003,11.357778 13.5200003,7.76888903 C13.5200003,4.18000006 10.7400002,1.24555555 7.34000014,1.24555555 Z M7.34000014,1.54111112 C10.0400002,1.54111112 12.3200003,3.46222228 13.0200003,6.058889 L11.0800002,6.058889 C10.9400002,5.59444454 10.5200002,5.27777786 10.0400002,5.27777786 C9.44000018,5.27777786 8.96000015,5.78444454 8.96000015,6.41777789 C8.96000015,6.67111123 9.04000017,6.90333346 9.18000016,7.11444458 L8.66000013,7.95888904 C8.48000013,7.93777792 8.32000017,7.95888904 8.14000016,8.02222237 L7.34000014,7.32555569 C7.36000013,7.24111125 7.38000014,7.13555568 7.38000014,7.05111124 C7.38000014,6.41777789 6.90000013,5.91111121 6.30000011,5.91111121 C5.7000001,5.91111121 5.22000009,6.41777789 5.22000009,7.05111124 C5.22000009,7.22000013 5.26000009,7.38888902 5.32000009,7.53666681 L4.80000008,8.23333349 C4.68000007,8.19111126 4.56000008,8.17000016 4.42,8.17000016 C4.08000007,8.17000016 3.76000006,8.33888905 3.56000006,8.63444461 C3.28000005,8.50777794 2.78000003,8.29666683 2.32000003,8.10666682 C1.96000002,7.93777792 1.60000001,7.79000015 1.42,7.7055557 C1.46,4.28555562 4.10000006,1.54111112 7.34000014,1.54111112 Z M7.34000014,14.0388892 C4.14000007,14.0388892 1.52000001,11.3366669 1.42,8.00111126 C1.62000001,8.08555571 1.92,8.21222238 2.22000002,8.36000016 C2.64000004,8.55000016 3.12000005,8.76111125 3.42,8.88777794 C3.36000005,9.01444464 3.30000005,9.22555571 3.34000005,9.41555571 C3.38000005,10.0066669 3.86000006,10.4711113 4.42,10.4711113 C5.02000009,10.4711113 5.5000001,9.96444464 5.5000001,9.33111133 C5.5000001,9.14111125 5.4600001,8.95111125 5.36000009,8.76111125 C5.24000009,8.57111127 5.12000008,8.4444446 5.04000008,8.38111127 L5.4600001,7.79000015 C5.5400001,7.8955557 5.6600001,8.02222237 5.8400001,8.08555571 C5.98000011,8.14888904 6.14000011,8.19111126 6.30000011,8.19111126 C6.50000012,8.19111126 6.70000012,8.12777793 6.88000012,8.02222237 C7.06000013,7.93777792 7.18000013,7.74777792 7.26000014,7.60000014 L7.90000015,8.17000016 C7.78000015,8.2544446 7.62000014,8.40222238 7.56000014,8.59222239 C7.48000014,8.76111125 7.44000014,8.93000017 7.44000014,9.12000017 C7.44000014,9.75333356 7.92,10.2600002 8.52000014,10.2600002 C9.12000019,10.2600002 9.60000022,9.71111133 9.60000022,9.07777794 C9.60000022,8.84555571 9.54000016,8.61333349 9.40000017,8.42333349 C9.36000016,8.36000016 9.32000015,8.31777793 9.28000015,8.27555571 C9.28000015,8.27555571 9.26000018,8.2544446 9.26000018,8.2544446 C9.14000015,8.14888904 9.02000021,8.08555571 8.92,8.02222237 L9.36000016,7.30444458 C9.46000015,7.38888902 9.60000022,7.49444458 9.76000017,7.51555569 C9.86000015,7.53666681 9.94000017,7.55777792 10.0400002,7.55777792 C10.4800002,7.55777792 10.8800002,7.28333347 11.0400002,6.84000012 C11.1200002,6.67111123 11.1200002,6.46000011 11.1200002,6.33333344 L13.0800003,6.33333344 C13.1800003,6.7977779 13.2405483,7.28333347 13.2405483,7.79000015 C13.2600003,11.2311113 10.6000002,14.0388892 7.34000014,14.0388892 Z" id="Shape"></path>
                        <path d="M17.7,17.1 L14.7,13.9966667 C14.52,13.8066667 14.26,13.7011111 14,13.68 L13.04,12.6666667 C14.12,11.2944445 14.7,9.54222223 14.7,7.76888889 C14.7,3.50444445 11.4,0.0211111111 7.36,0.0211111111 C3.32,0.0211111111 0,3.50444445 0,7.79 C0,12.0755555 3.3,15.5377778 7.34,15.5377778 C9.04000001,15.5377778 10.7,14.9044445 12.02,13.7433333 L12.94,14.7144445 C12.92,15.0311111 13.04,15.3266667 13.24,15.5377778 L16.24,18.6411111 C16.44,18.8311111 16.68,18.9577778 16.96,18.9577778 C17.24,18.9577778 17.5,18.8522222 17.7,18.6411111 C18.1,18.2188889 18.1,17.5222222 17.7,17.1 Z M12.12,13.4477778 C12.1,13.4266667 12.06,13.4055555 12.02,13.4055555 C11.98,13.4055555 11.96,13.4266667 11.94,13.4477778 C10.66,14.6088889 9.01999996,15.2422222 7.34,15.2422222 C3.44,15.2422222 0.26,11.8855555 0.26,7.76888889 C0.26,3.65222222 3.44,0.316666667 7.34,0.316666667 C11.24,0.316666667 14.42,3.67333333 14.42,7.79 C14.42,9.54222223 13.82,11.2522222 12.74,12.6033333 C12.7,12.6666667 12.7,12.73 12.74,12.7933333 L13.74,13.8488889 L13.08,14.4822222 L12.12,13.4477778 Z" id="Shape"></path>
                    </g>
                    <path d="M8.36363636,0.89772727 C4.21216142,0.89772727 0.86363636,4.4322815 0.86363636,8.77272727 C0.86363636,13.113173 4.21216142,16.6477273 8.36363636,16.6477273 C12.5151113,16.6477273 15.8636364,13.113173 15.8636364,8.77272727 C15.8636364,4.4322815 12.5151113,0.89772727 8.36363636,0.89772727 Z M8.36363636,2.39772727 C11.6680055,2.39772727 14.3636364,5.24311535 14.3636364,8.77272727 C14.3636364,12.3023392 11.6680055,15.1477273 8.36363636,15.1477273 C5.05926718,15.1477273 2.36363636,12.3023392 2.36363636,8.77272727 C2.36363636,5.24311535 5.05926718,2.39772727 8.36363636,2.39772727 Z" id="Oval"></path>
                </g>
            </g>
        </g>
    </g>
</svg>