<?xml version="1.0" encoding="UTF-8"?>
<svg width="23px" height="28px" viewBox="0 0 23 28" version="1.1" xmlns="http://www.w3.org/2000/svg" xmlns:xlink="http://www.w3.org/1999/xlink">
    <title>citations</title>
    <g id="Page-1" stroke="none" stroke-width="1" fill="none" fill-rule="evenodd">
        <g id="citations" transform="translate(0.000000, 1.000000)" fill="#000000" fill-rule="nonzero">
            <path d="M3.9,10.5 L3.9,14.4 L0.3,14.4 L0.3,11.3 C0.3,9.6 0.5,8.4 0.9,7.7 C1.4,6.7 2.3,6 3.4,5.4 L4.2,6.7 C3.5,7.1 3,7.5 2.6,8 C2.3,8.6 2.1,9.4 2.1,10.5 L3.9,10.5 Z M9.6,10.5 L9.6,14.4 L6,14.4 L6,11.3 C6,9.6 6.2,8.4 6.6,7.7 C7.1,6.7 8,6 9.1,5.4 L9.9,6.7 C9.2,7 8.7,7.4 8.4,8 C8.1,8.6 7.9,9.4 7.9,10.5 L9.6,10.5 Z" id="Shape"></path>
            <path d="M13.3,12.9 L13.3,9 L16.9,9 L16.9,12.1 C16.9,13.8 16.7,15 16.3,15.7 C15.8,16.7 15,17.4 13.8,18 L13,16.7 C13.7,16.4 14.2,16 14.5,15.4 C14.8,14.8 15,14 15,12.9 L13.3,12.9 Z M19.1,12.9 L19.1,9 L22.7,9 L22.7,12.1 C22.7,13.8 22.5,15 22.1,15.7 C21.6,16.7 20.7,17.4 19.6,18 L18.8,16.7 C19.5,16.4 20,16 20.3,15.4 C20.6,14.8 20.8,14 20.8,12.9 L19.1,12.9 Z" id="Shape"></path>
            <polygon id="Path" points="22 -1 22 6 20 6 20 1 3 1 3 4 1 4 1 -1"></polygon>
            <polygon id="Path" points="3 17 3 25 20 25 20 19 22 19 22 27 1 27 1 17"></polygon>
        </g>
    </g>
</svg>