<?xml version="1.0" encoding="UTF-8"?>
<svg width="30px" height="33px" viewBox="0 0 30 33" version="1.1" xmlns="http://www.w3.org/2000/svg" xmlns:xlink="http://www.w3.org/1999/xlink">
    <title>class</title>
    <g id="Page-1" stroke="none" stroke-width="1" fill="none" fill-rule="evenodd">
        <g id="class" transform="translate(1.000000, 1.000000)" fill="#000000" fill-rule="nonzero">
            <path d="M26.4036369,-0.4 C26.944707,-0.4 27.4518095,-0.184519364 27.7469329,0.130216812 C27.8357438,0.189113358 27.8771894,0.238779793 27.9197369,0.304595778 C28.1795133,0.614780974 28.3426581,0.985460824 28.3793854,1.37962763 L28.3872989,1.54988635 L28.387,12.293 L28.395136,12.3310735 C28.4045087,12.4109809 28.4003495,12.4920248 28.3833405,12.570883 L28.3482749,12.6871159 L28.2944461,12.7975788 L17.8947552,30.4275243 C17.3887235,31.3144906 16.254938,31.6427045 15.3354273,31.212625 L15.1921448,31.138387 L2.25602125,23.8153308 C1.35944079,23.3037639 1.0210384,22.2066305 1.46041685,21.2957455 L1.53628796,21.1535818 L2.624,19.312 L0.178864458,16.9081091 C-0.511283014,16.2331374 -0.583930116,15.1752881 -0.0391205146,14.4087705 L0.0634319326,14.2766641 L0.178803497,14.1514295 L14.7924437,-0.143615425 C14.8858437,-0.257513079 15.0103993,-0.334354768 15.1507266,-0.373692936 L15.258689,-0.396157658 L15.3139982,-0.4 L26.4036369,-0.4 Z M24.144,16.877 L13.5323331,27.25958 C13.2042976,27.5739948 12.7937641,27.7560245 12.3711711,27.8054376 L12.335,27.808 L15.9299064,29.841787 C16.1481196,29.9610603 16.4068748,29.9170456 16.5540362,29.7523305 L16.6036936,29.6849876 L24.144,16.877 Z M3.736,20.388 L2.83408697,21.9169791 C2.71836099,22.1096512 2.76463749,22.3411744 2.94054361,22.4848855 L3.01252156,22.5344136 L9.899,26.43 L3.736,20.388 Z M26.403192,1.0836199 L15.665,1.083 L1.2371206,15.211594 C1.0721228,15.373052 1.05149807,15.6069855 1.1753421,15.7868135 L1.23726342,15.8602011 L11.7903027,26.1971636 C11.9594987,26.3629406 12.2106412,26.3836627 12.4004607,26.2593578 L12.4776398,26.1972051 L26.8891349,12.073 L26.8891349,1.54988635 C26.8891349,1.44838694 26.8648385,1.36401071 26.8165689,1.29296155 L26.7603201,1.22621415 C26.6858479,1.15363188 26.590254,1.10592092 26.4843675,1.08973983 L26.403192,1.0836199 Z M23.1103853,2.63889051 C23.683589,2.63889051 24.2537507,2.86366543 24.6473782,3.26329943 C25.5087501,4.09170441 25.5087501,5.46179957 24.6497762,6.3028793 C23.8085815,7.12551141 22.4268965,7.12551141 21.5683444,6.30026345 C20.7248462,5.45987514 20.7248462,4.09310155 21.5707231,3.26589068 C21.987455,2.85757988 22.5342087,2.63889051 23.1103853,2.63889051 Z M23.1103853,4.13425198 C22.9152846,4.13425198 22.7503945,4.19459551 22.629207,4.31328065 C22.3655109,4.57126114 22.3655109,4.98463184 22.629207,5.24261234 C22.8977966,5.50538018 23.3354333,5.50538018 23.6038729,5.24275919 C23.867324,4.98474759 23.867324,4.57114538 23.6038728,4.31313375 C23.4854832,4.19718853 23.3092193,4.13425198 23.1103853,4.13425198 Z" id="Shape"></path>
        </g>
    </g>
</svg>