<?xml version="1.0" encoding="UTF-8"?>
<svg width="20px" height="20px" viewBox="0 0 20 20" version="1.1" xmlns="http://www.w3.org/2000/svg" xmlns:xlink="http://www.w3.org/1999/xlink">
    <title>path-1</title>
    <g id="Page-1" stroke="none" stroke-width="1" fill="none" fill-rule="evenodd">
        <path d="M11.7043333,9.818 L19.247,2.27666667 C19.7683333,1.75533333 19.7683333,0.91 19.247,0.39 C18.727,-0.13 17.883,-0.13 17.3616667,0.39 L9.819,7.93266667 L2.27633333,0.39 C1.75633333,-0.13 0.911,-0.13 0.391,0.39 C-0.130333333,0.91 -0.130333333,1.75533333 0.391,2.27666667 L7.93366667,9.818 L0.391,17.3606667 C-0.130333333,17.882 -0.130333333,18.726 0.391,19.246 C0.911,19.7673333 1.75633333,19.7673333 2.27633333,19.246 L9.819,11.7033333 L17.3616667,19.246 C17.883,19.7673333 18.727,19.7673333 19.247,19.246 C19.7683333,18.726 19.7683333,17.882 19.247,17.3606667 L11.7043333,9.818 Z" id="path-1" fill="#000000" fill-rule="nonzero"></path>
    </g>
</svg>