<?xml version="1.0" encoding="UTF-8"?>
<svg width="41px" height="34px" viewBox="0 0 41 34" version="1.1" xmlns="http://www.w3.org/2000/svg" xmlns:xlink="http://www.w3.org/1999/xlink">
    <title>concept_no-image</title>
    <g id="Page-1" stroke="none" stroke-width="1" fill="none" fill-rule="evenodd">
        <g id="concept_no-image" fill="#000000" fill-rule="nonzero">
            <g id="Layer-1" transform="translate(11.000000, 14.000000)">
                <path d="M3.709375,1.853125 C3.709375,2.878125 2.878125,3.709375 1.853125,3.709375 C0.83125,3.709375 1.11022302e-15,2.878125 1.11022302e-15,1.853125 C1.11022302e-15,0.83125 0.83125,8.8817842e-16 1.853125,8.8817842e-16 C2.878125,8.8817842e-16 3.709375,0.83125 3.709375,1.853125" id="Path"></path>
                <path d="M10.7125,1.853125 C10.7125,2.878125 9.88125,3.709375 8.85625,3.709375 C7.83125,3.709375 7,2.878125 7,1.853125 C7,0.83125 7.83125,0 8.85625,0 C9.88125,0 10.7125,0.83125 10.7125,1.853125" id="Path"></path>
                <path d="M17.7125,1.853125 C17.7125,2.878125 16.88125,3.709375 15.85625,3.709375 C14.83125,3.709375 14,2.878125 14,1.853125 C14,0.83125 14.83125,0 15.85625,0 C16.88125,0 17.7125,0.83125 17.7125,1.853125" id="Path"></path>
            </g>
            <path d="M31.4866492,2.28853871 C23.1966492,-1.72146129 9.6266492,-0.571461293 3.26664915,6.60853871 C-2.89335085,13.5685387 0.18664915,22.7585387 8.0966492,26.6785387 C8.0966492,26.6785387 7.2766492,28.1985387 6.7366492,28.9685387 C5.7215115,30.393439 4.33917974,31.5165835 2.73664915,32.2185387 C2.05664915,32.5285387 2.00664915,33.2185387 2.88664915,33.2885387 C7.2366492,33.5285387 12.6966492,33.3785387 16.0566492,30.1385387 L16.0566492,30.1385387 C23.6166492,33.1385387 34.4166492,28.5085387 38.2566492,21.6385387 C42.3766492,14.1885387 38.8666492,5.85853871 31.4866492,2.28853871 Z M34.7466492,23.4885387 C30.4066492,28.4885387 23.1666492,30.0885387 16.7466492,28.9285387 C16.3046186,28.8170444 15.8703575,28.6767447 15.4466492,28.5085387 C15.2794321,28.4751603 15.1079851,28.5414012 15.0066492,28.6785387 C13.3666492,30.6785387 8.7766492,31.7585387 5.7066492,32.0585387 C7.5583829,30.3699125 9.1133461,28.3822638 10.3066492,26.1785387 C10.4014462,25.9878618 10.3257744,25.7563949 10.1366492,25.6585387 L10.1366492,25.6585387 C9.6122239,25.4331547 9.1155973,25.1479299 8.6566492,24.8085387 C4.65664915,22.1485387 1.12664915,18.9485387 2.23664915,13.5485387 C3.09956427,9.93639842 5.515606,6.89072163 8.8366492,5.22853871 C15.0512174,2.12816533 22.2377095,1.60355141 28.8366492,3.76853871 C37.2566492,6.79853871 41.1666492,16.1085387 34.7466492,23.4885387 Z" id="Shape"></path>
        </g>
    </g>
</svg>