<svg id="Layer_9" data-name="Layer 9" xmlns="http://www.w3.org/2000/svg" viewBox="0 0 32 32"><title>dates</title>
<path d="M17.55,27.45a11.05,11.05,0,0,0,4.76-2.05l0.07-.07-1.79-1.92A7.87,7.87,0,0,1,9.92,22.14a7.63,7.63,0,0,1-1.43-7.8A7.94,7.94,0,0,1,18.82,9.69a7.83,7.83,0,0,1,4.95,7.08H20.13L24.85,22l4.72-5.27H26.47c-0.1-.66-0.16-1.3-0.28-1.93A10.13,10.13,0,0,0,23.69,10,10.3,10.3,0,0,0,18,6.71a10.6,10.6,0,0,0-3.19-.16A10.53,10.53,0,0,0,5.61,15.1a10.14,10.14,0,0,0-.15,2.8,10.57,10.57,0,0,0,2.45,5.94A10.26,10.26,0,0,0,14,27.39a14.47,14.47,0,0,0,1.58.17A14,14,0,0,0,17.55,27.45Z" fill="#000000"/>
<path d="M17.09,11.9H15.38s0,3.89,0,4.51a0.5,0.5,0,0,1-.16.39L12.4,19.62l-0.16.16,1.2,1.2,0.1-.09L17,17.48a0.49,0.49,0,0,0,.13-0.31" fill="#000000"/>
</svg>