<?xml version="1.0" encoding="UTF-8"?>
<svg width="90px" height="90px" viewBox="0 0 90 90" version="1.1" xmlns="http://www.w3.org/2000/svg" xmlns:xlink="http://www.w3.org/1999/xlink">
    <title>Shape</title>
    <g id="Page-1" stroke="none" stroke-width="1" fill="none" fill-rule="evenodd">
        <g id="decimal" fill="#000000" fill-rule="nonzero">
            <path d="M81.488,61.429 C81.488,61.429 81.488,61.429 81.488,61.429 C81.488,61.429 81.488,61.429 81.488,61.429 L65.614,45.554 C65.614,45.554 65.614,45.554 65.614,45.554 C65.614,45.554 65.614,45.554 65.614,45.554 L60.323,40.263 C60.323,40.263 60.323,40.263 60.323,40.262 C60.323,40.261 60.323,40.262 60.322,40.262 L44.447,24.388 C44.447,24.388 44.447,24.387 44.446,24.387 C44.445,24.387 44.445,24.387 44.445,24.386 L39.155,19.096 C39.155,19.096 39.155,19.095 39.154,19.095 C39.153,19.095 39.153,19.095 39.153,19.094 L20.499,0.439 C19.936,-0.124 18.94,-0.124 18.378,0.439 L0.439,18.378 C-0.147,18.964 -0.147,19.913 0.439,20.499 L69.501,89.561 C69.783,89.842 70.164,90 70.562,90 C70.96,90 71.341,89.842 71.623,89.561 L89.561,71.623 C90.147,71.037 90.147,70.088 89.561,69.502 L81.488,61.429 Z M70.562,86.379 L3.621,19.438 L19.438,3.621 L25.389,9.572 L16.434,18.527 C15.848,19.113 15.848,20.062 16.434,20.648 C16.727,20.941 17.111,21.087 17.495,21.087 C17.879,21.087 18.263,20.941 18.556,20.648 L27.511,11.693 L30.682,14.864 L25.24,20.306 C24.654,20.892 24.654,21.841 25.24,22.427 C25.532,22.72 25.917,22.866 26.301,22.866 C26.685,22.866 27.069,22.72 27.362,22.427 L32.804,16.985 L35.974,20.155 L30.532,25.597 C29.946,26.183 29.946,27.132 30.532,27.718 C30.825,28.011 31.209,28.157 31.593,28.157 C31.977,28.157 32.361,28.011 32.654,27.718 L38.096,22.276 L41.267,25.447 L35.825,30.889 C35.239,31.475 35.239,32.424 35.825,33.01 C36.118,33.303 36.502,33.449 36.886,33.449 C37.27,33.449 37.654,33.303 37.947,33.01 L43.389,27.568 L46.56,30.739 L41.118,36.181 C40.532,36.767 40.532,37.716 41.118,38.302 C41.411,38.595 41.795,38.741 42.179,38.741 C42.563,38.741 42.947,38.595 43.24,38.302 L48.682,32.86 L51.853,36.031 L42.898,44.986 C42.312,45.572 42.312,46.521 42.898,47.107 C43.191,47.4 43.575,47.546 43.959,47.546 C44.343,47.546 44.727,47.4 45.02,47.107 L53.975,38.152 L57.145,41.322 L51.703,46.764 C51.117,47.35 51.117,48.299 51.703,48.885 C51.996,49.178 52.38,49.324 52.764,49.324 C53.148,49.324 53.532,49.178 53.825,48.885 L59.267,43.443 L62.438,46.614 L56.996,52.056 C56.41,52.642 56.41,53.591 56.996,54.177 C57.289,54.47 57.673,54.616 58.057,54.616 C58.441,54.616 58.825,54.47 59.118,54.177 L64.56,48.735 L67.731,51.906 L62.289,57.349 C61.703,57.935 61.703,58.884 62.289,59.47 C62.582,59.763 62.966,59.909 63.35,59.909 C63.734,59.909 64.118,59.763 64.411,59.47 L69.853,54.027 L73.024,57.198 L67.581,62.64 C66.995,63.226 66.995,64.175 67.581,64.761 C67.873,65.054 68.258,65.2 68.642,65.2 C69.026,65.2 69.41,65.054 69.703,64.761 L75.146,59.319 L78.316,62.489 L69.361,71.444 C68.775,72.03 68.775,72.979 69.361,73.565 C69.654,73.858 70.038,74.004 70.422,74.004 C70.806,74.004 71.19,73.858 71.483,73.565 L80.438,64.61 L86.389,70.561 L70.562,86.379 Z" id="Shape"></path>
        </g>
    </g>
</svg>