<?xml version="1.0" encoding="UTF-8"?>
<svg width="46px" height="46px" viewBox="0 0 46 46" version="1.1" xmlns="http://www.w3.org/2000/svg" xmlns:xlink="http://www.w3.org/1999/xlink">
    <title>Path</title>
    <g id="Page-1" stroke="none" stroke-width="1" fill="none" fill-rule="evenodd">
        <g id="noun_erase_1890852" fill="#000000" fill-rule="nonzero">
            <g id="Group">
                <path d="M44.2,1.8 C42.2,-0.2 39,-0.2 37,1.8 L23,15.8 L9,1.8 C7,-0.2 3.8,-0.2 1.8,1.8 C-0.2,3.8 -0.2,7 1.8,9 L15.8,23 L1.8,37 C-0.2,39 -0.2,42.2 1.8,44.2 C2.8,45.2 4.1,45.7 5.4,45.7 C6.7,45.7 8,45.2 9,44.2 L23,30.2 L37,44.2 C38,45.2 39.3,45.7 40.6,45.7 C41.9,45.7 43.2,45.2 44.2,44.2 C46.2,42.2 46.2,39 44.2,37 L30.2,23 L44.2,9 C46.2,7 46.2,3.8 44.2,1.8 Z" id="Path"></path>
            </g>
        </g>
    </g>
</svg>