<?xml version="1.0" encoding="UTF-8"?>
<svg width="96px" height="96px" viewBox="0 0 96 96" version="1.1" xmlns="http://www.w3.org/2000/svg" xmlns:xlink="http://www.w3.org/1999/xlink">
    <title>Group</title>
    <g id="Page-1" stroke="none" stroke-width="1" fill="none" fill-rule="evenodd">
        <g id="delete" fill="#000000" fill-rule="nonzero">
            <g id="Group">
                <path d="M66.3,37 C67.3,36 67.3,34.5 66.3,33.5 L62.4,29.6 C61.4,28.6 59.9,28.6 58.9,29.6 L50.4,38.1 C49,39.5 46.9,39.5 45.5,38.1 L37,29.7 C36,28.7 34.5,28.7 33.5,29.7 L29.6,33.6 C28.6,34.6 28.6,36.1 29.6,37.1 L38.1,45.6 C39.5,47 39.5,49.1 38.1,50.5 L29.7,59 C28.7,60 28.7,61.5 29.7,62.5 L33.6,66.4 C34.6,67.4 36.1,67.4 37.1,66.4 L45.6,57.9 C47,56.5 49.1,56.5 50.5,57.9 L59,66.4 C60,67.4 61.5,67.4 62.5,66.4 L66.4,62.5 C67.4,61.5 67.4,60 66.4,59 L57.9,50.5 C56.5,49.1 56.5,47 57.9,45.6 L66.3,37 Z" id="Path"></path>
                <path d="M48,0.5 C21.8,0.5 0.5,21.8 0.5,48 C0.5,74.2 21.8,95.5 48,95.5 C74.2,95.5 95.5,74.2 95.5,48 C95.5,21.8 74.2,0.5 48,0.5 Z M48,85.1 C27.5,85.1 10.9,68.5 10.9,48 C10.9,27.5 27.5,10.9 48,10.9 C68.5,10.9 85.1,27.5 85.1,48 C85.1,68.5 68.5,85.1 48,85.1 Z" id="Shape"></path>
            </g>
        </g>
    </g>
</svg>