<?xml version="1.0" encoding="UTF-8"?>
<svg width="90px" height="90px" viewBox="0 0 90 90" version="1.1" xmlns="http://www.w3.org/2000/svg" xmlns:xlink="http://www.w3.org/1999/xlink">
    <title>Shape</title>
    <g id="Page-1" stroke="none" stroke-width="1" fill="none" fill-rule="evenodd">
        <g id="noun_Delete_89612" fill="#000000" fill-rule="nonzero">
            <path d="M0,45 C0,69.9 20.1,90 45,90 C69.9,90 90,69.9 90,45 C90,20.1 69.9,0 45,0 C20.1,0 0,20.1 0,45 Z M63.4935746,63.5668151 C61.586387,65.4777283 58.5522249,65.4777283 56.6450373,63.5668151 L45.4619827,52.3619154 L34.278928,63.5668151 C32.3717404,65.4777283 29.3375783,65.4777283 27.4303907,63.5668151 C25.5232031,61.655902 25.5232031,58.5289532 27.4303907,56.7048998 L38.6134453,45.5 L27.4303907,34.2951002 C25.5232031,32.3841871 25.5232031,29.2572383 27.4303907,27.4331849 C29.3375783,25.5222717 32.4584308,25.5222717 34.278928,27.4331849 L45.4619827,38.6380846 L56.6450373,27.4331849 C58.5522249,25.5222717 61.6730774,25.5222717 63.4935746,27.4331849 C65.4007622,29.344098 65.4007622,32.3841871 63.4935746,34.2951002 L52.3972103,45.5 L63.580265,56.7048998 C65.4874526,58.6158129 65.4874526,61.655902 63.4935746,63.5668151 Z" id="Shape"></path>
        </g>
    </g>
</svg>