<?xml version="1.0" encoding="UTF-8"?>
<svg width="82px" height="82px" viewBox="0 0 82 82" version="1.1" xmlns="http://www.w3.org/2000/svg" xmlns:xlink="http://www.w3.org/1999/xlink">
    <title>diagram</title>
    <g id="Page-1" stroke="none" stroke-width="1" fill="none" fill-rule="evenodd">
        <g id="diagram" fill="#000000" fill-rule="nonzero">
            <path d="M64.4,40.6 C64.4,31.4 56.9,23.9 47.7,23.9 C38.5,23.9 31,31.4 31,40.6 C31,49.8 38.5,57.3 47.7,57.3 C56.9,57.3 64.4,49.8 64.4,40.6 Z M54.5,50.8 L40.8,50.8 C39.4,50.8 38.3,49.7 38.3,48.3 L39.2,44.7 C39.2,43.3 40.3,42.2 41.7,42.2 L44.8,42.2 C42.8,41.2 41.4,39.1 41.4,36.6 C41.4,33.1 44.2,30.3 47.7,30.3 C51.2,30.3 54,33.1 54,36.6 C54,39 52.6,41.1 50.6,42.2 L53.7,42.2 C55.1,42.2 56.2,43.3 56.2,44.7 L57.1,48.3 C57,49.7 55.9,50.8 54.5,50.8 Z" id="Shape"></path>
            <path d="M63.6,33.1 L68.7,30.3 C70.9,32.8 74.6,33.6 77.6,31.9 C81.1,30 82.4,25.6 80.5,22.1 C78.6,18.6 74.2,17.3 70.7,19.2 C67.7,20.8 66.3,24.4 67.2,27.6 L62,30.4 C62.6,31.3 63.2,32.2 63.6,33.1 Z" id="Path"></path>
            <path d="M75.9,39.7 C72.6,38.6 69.1,40 67.4,42.9 L65.1,42.2 C65,43.3 64.8,44.3 64.6,45.3 L66.5,45.9 C66.2,49.2 68.2,52.4 71.4,53.5 C75.2,54.7 79.3,52.7 80.5,48.9 C81.8,45 79.7,40.9 75.9,39.7 Z" id="Path"></path>
            <path d="M64.6,62.8 L59.2,53.9 C58.4,54.6 57.6,55.2 56.7,55.7 L61.9,64.4 C58.2,67.5 57.3,72.8 59.8,77 C62.6,81.7 68.7,83.2 73.3,80.4 C78,77.6 79.5,71.5 76.7,66.9 C74.2,62.6 69,61 64.6,62.8 Z" id="Path"></path>
            <path d="M46.1,15 L46.1,23 C46.6,23 47.1,22.9 47.6,22.9 C48.1,22.9 48.6,22.9 49.1,23 L49.1,15 C52.3,14.3 54.8,11.4 54.8,7.9 C54.8,3.9 51.6,0.7 47.6,0.7 C43.6,0.7 40.4,3.9 40.4,7.9 C40.4,11.4 42.9,14.3 46.1,15 Z" id="Path"></path>
            <path d="M35.6,53.5 L30.2,59.3 C27.3,57.6 23.6,58.1 21.2,60.6 C18.5,63.5 18.6,68.1 21.6,70.8 C24.5,73.5 29.1,73.4 31.8,70.4 C34.2,67.9 34.3,64.1 32.5,61.4 L38.1,55.4 C37.2,54.8 36.4,54.2 35.6,53.5 Z" id="Path"></path>
            <path d="M31,34.9 L20.2,31.5 C20.9,26.8 18.1,22.2 13.5,20.7 C8.3,19 2.8,21.9 1.2,27 C-0.4,32.1 2.4,37.7 7.5,39.3 C12.1,40.8 17.1,38.6 19.2,34.4 L30.2,37.9 C30.4,36.9 30.6,35.9 31,34.9 Z" id="Path"></path>
        </g>
    </g>
</svg>