<?xml version="1.0" encoding="UTF-8"?>
<svg width="76px" height="58px" viewBox="0 0 76 58" version="1.1" xmlns="http://www.w3.org/2000/svg" xmlns:xlink="http://www.w3.org/1999/xlink">
    <title>Group</title>
    <g id="Page-1" stroke="none" stroke-width="1" fill="none" fill-rule="evenodd">
        <g id="noun_tutorial_2366973" fill="#000000" fill-rule="nonzero">
            <g id="Group">
                <g>
                    <path d="M10.8007044,31.8538302 C11.4949881,32.1933551 12.3281286,31.9217352 12.6752704,31.2426854 L15.1052633,26.5572416 L16.9104009,27.4400063 C17.1881144,27.5758163 17.5352563,27.5758163 17.8129697,27.4400063 C18.0906832,27.3041964 18.22954,27.0325764 18.2989683,26.6930515 L18.993252,18.0691187 C19.0626804,17.4579738 18.5766818,17.1863539 18.4378251,17.1184489 C18.0906832,16.914734 17.674113,16.9826389 17.3269712,17.2542589 L10.5924193,22.8903725 C10.3841342,23.0940874 10.2452775,23.3657074 10.2452775,23.7052323 C10.2452775,24.0447572 10.4535626,24.2484721 10.7312761,24.3842821 L12.5364137,25.2670469 L10.1064208,29.9524907 C9.82870728,30.6315405 10.1064208,31.5143053 10.8007044,31.8538302 Z" id="Path" transform="translate(14.500000, 24.500000) scale(-1, 1) translate(-14.500000, -24.500000) "></path>
                    <path d="M58.3663505,0 L4.66564871,0 C2.10411608,0 0,1.95777224 0,4.34114713 L0.0319992413,18.5 C0.672382398,18.6702411 1.89161608,18.7446384 2.53199924,19 C3.53199924,19 4.53199924,19.5 6.03199924,19.5 L5.94641502,12.6829593 L56.9026176,12.6829593 L56.9026176,43.4114713 C56.9026176,43.5817124 56.8111343,43.7519534 56.5366844,43.7519534 L32.5680577,43.7519534 L32.5680577,49.3699086 L58.3663505,49.3699086 C60.9278832,49.3699086 63.0319992,47.4121363 63.0319992,45.0287614 L63.0319992,4.34114713 C63.0319992,1.95777224 60.9278832,0 58.3663505,0 Z M7.68459788,8.2566916 C6.58679818,8.2566916 5.6719651,7.40548628 5.6719651,6.3840399 C5.6719651,5.36259352 6.58679818,4.5113882 7.68459788,4.5113882 C8.78239757,4.5113882 9.69723065,5.36259352 9.69723065,6.3840399 C9.69723065,7.40548628 8.78239757,8.2566916 7.68459788,8.2566916 Z M13.8139795,8.2566916 C12.7161798,8.2566916 11.8013467,7.40548628 11.8013467,6.3840399 C11.8013467,5.36259352 12.7161798,4.5113882 13.8139795,4.5113882 C14.9117792,4.5113882 15.8266123,5.36259352 15.8266123,6.3840399 C15.8266123,7.40548628 14.9117792,8.2566916 13.8139795,8.2566916 Z M19.9433612,8.2566916 C18.8455615,8.2566916 17.9307284,7.40548628 17.9307284,6.3840399 C17.9307284,5.36259352 18.8455615,4.5113882 19.9433612,4.5113882 C21.0411608,4.5113882 21.9559939,5.36259352 21.9559939,6.3840399 C21.8645106,7.40548628 21.0411608,8.2566916 19.9433612,8.2566916 Z" id="Shape" transform="translate(31.516000, 24.684954) scale(-1, 1) translate(-31.516000, -24.684954) "></path>
                    <path d="M73.9498862,22.5750623 C73.309503,22.5750623 72.6691199,22.5750623 72.0287367,22.6601829 L71.9372534,22.6601829 L71.9372534,20.3619285 C71.9372534,19.5958437 71.2968703,19 70.4735205,19 C63.3378225,19 56.2936077,20.276808 49.7068096,22.8304239 C43.1200114,20.276808 36.0757967,19 28.9400986,19 C28.1167489,19 27.4763657,19.5958437 27.4763657,20.3619285 L27.4763657,22.6601829 L27.3848824,22.6601829 C26.7444992,22.6601829 26.1041161,22.5750623 25.4637329,22.5750623 C24.6403832,22.5750623 24,23.1709061 24,23.9369909 L24,51.4309227 C24,52.1970075 24.6403832,52.7928512 25.4637329,52.7928512 C33.6972307,52.7928512 41.6562785,54.3250208 49.1579097,57.3042394 C49.3408763,57.3893599 49.5238429,57.3893599 49.7068096,57.3893599 C49.8897762,57.3893599 50.0727428,57.3893599 50.2557094,57.3042394 C57.7573407,54.3250208 65.8078718,52.7928512 73.9498862,52.7928512 C74.773236,52.7928512 75.4136191,52.1970075 75.4136191,51.4309227 L75.4136191,23.9369909 C75.4136191,23.1709061 74.773236,22.5750623 73.9498862,22.5750623 Z M48.2430766,51.1755611 C42.4796282,49.1326683 36.4417299,48.0261014 30.4038316,47.8558603 L30.4038316,21.723857 C36.5332132,21.8940981 42.4796282,23.0857855 48.2430766,25.2137988 L48.2430766,51.1755611 Z M69.0097876,47.8558603 C62.9718892,48.0261014 56.9339909,49.1326683 51.1705425,51.1755611 L51.1705425,25.2137988 C56.9339909,23.000665 62.9718892,21.8089776 69.0097876,21.723857 L69.0097876,47.8558603 Z" id="Shape"></path>
                    <path d="M34.3376138,28.5334996 C37.4480463,28.8739817 40.5584788,29.4698254 43.5774279,30.2359102 C43.6689112,30.2359102 43.8518778,30.3210308 44.0348445,30.3210308 C44.6752276,30.3210308 45.2241275,29.8954281 45.4070941,29.3847049 C45.5900607,28.7037406 45.2241275,27.9376559 44.4007777,27.6822943 C41.1988619,26.8310889 37.9054628,26.1501247 34.6120637,25.8096426 C33.788714,25.724522 33.0568475,26.3203658 33.0568475,27.00133 C33.0568475,27.3418121 33.1483308,27.6822943 33.3312974,28.0227764 C33.6057473,28.278138 33.9716806,28.4483791 34.3376138,28.5334996 Z" id="Path"></path>
                    <path d="M34.3376138,33.725852 C37.4480463,34.0663342 40.5584788,34.6621779 43.5774279,35.4282627 C43.6689112,35.4282627 43.8518778,35.5133832 44.0348445,35.5133832 C44.6752276,35.5133832 45.2241275,35.0877805 45.4070941,34.5770574 C45.5900607,33.8960931 45.2241275,33.1300083 44.4007777,32.8746467 C41.1988619,32.0234414 37.9054628,31.3424771 34.6120637,31.001995 C33.788714,30.9168745 33.0568475,31.4275977 32.9653642,32.1936825 C32.9653642,32.5341646 33.0568475,32.8746467 33.2398141,33.2151288 C33.6057473,33.555611 33.9716806,33.725852 34.3376138,33.725852 Z" id="Path"></path>
                    <path d="M34.3376138,38.9182045 C37.4480463,39.2586866 40.5584788,39.8545303 43.5774279,40.6206151 C43.6689112,40.6206151 43.8518778,40.7057357 44.0348445,40.7057357 C44.6752276,40.7057357 45.2241275,40.280133 45.4070941,39.7694098 C45.5900607,39.0884456 45.2241275,38.3223608 44.4007777,38.0669992 C41.1988619,37.2157938 37.9054628,36.5348296 34.6120637,36.1943475 C33.788714,36.1092269 33.0568475,36.7050707 33.0568475,37.3860349 C33.0568475,37.726517 33.1483308,38.0669992 33.3312974,38.4074813 C33.6057473,38.7479634 33.9716806,38.9182045 34.3376138,38.9182045 Z" id="Path"></path>
                    <path d="M34.3376138,44.1956775 C37.4480463,44.5361596 40.5584788,45.1320033 43.5774279,45.8980881 C43.6689112,45.8980881 43.8518778,45.9832086 44.0348445,45.9832086 C44.6752276,45.9832086 45.2241275,45.557606 45.4070941,45.0468828 C45.5900607,44.3659185 45.2241275,43.5998337 44.4007777,43.3444722 C41.1988619,42.4932668 37.9054628,41.8123026 34.6120637,41.4718204 C33.788714,41.3866999 33.0568475,41.8974231 32.9653642,42.6635079 C32.9653642,43.00399 33.0568475,43.3444722 33.2398141,43.6849543 C33.6057473,43.9403159 33.9716806,44.1105569 34.3376138,44.1956775 Z" id="Path"></path>
                    <path d="M55.2872914,30.3210308 C55.470258,30.3210308 55.5617413,30.3210308 55.7447079,30.2359102 C58.7636571,29.3847049 61.8740895,28.7888612 64.984522,28.5334996 C65.3504552,28.5334996 65.7163885,28.278138 65.9908384,28.0227764 C66.2652883,27.7674148 66.3567716,27.4269327 66.2652883,27.00133 C66.173805,26.2352452 65.5334219,25.724522 64.6185888,25.8096426 C61.3251897,26.1501247 58.0317906,26.7459684 54.8298748,27.6822943 C54.4639416,27.7674148 54.1894917,28.0227764 54.006525,28.3632585 C53.8235584,28.7037406 53.8235584,29.0442228 53.9150417,29.3847049 C54.0980083,29.8954281 54.6469082,30.3210308 55.2872914,30.3210308 Z" id="Path"></path>
                    <path d="M64.7100721,31.0871155 L64.7100721,31.0871155 C61.416673,31.4275977 58.1232739,32.0234414 54.9213581,32.9597672 C54.1894917,33.2151288 53.7320751,33.8960931 53.9150417,34.6621779 C54.0980083,35.2580216 54.6469082,35.5985037 55.2872914,35.5985037 C55.470258,35.5985037 55.5617413,35.5985037 55.7447079,35.5133832 C58.7636571,34.6621779 61.8740895,34.0663342 64.984522,33.8109726 C65.3504552,33.8109726 65.7163885,33.555611 65.9908384,33.3002494 C66.2652883,33.0448878 66.3567716,32.7044057 66.2652883,32.278803 C66.173805,31.5127182 65.4419385,31.001995 64.7100721,31.0871155 Z" id="Path"></path>
                    <path d="M55.2872914,40.7908562 C55.470258,40.7908562 55.5617413,40.7908562 55.7447079,40.7057357 C58.7636571,39.8545303 61.8740895,39.2586866 64.984522,39.003325 C65.3504552,39.003325 65.7163885,38.833084 65.9908384,38.4926018 C66.2652883,38.2372402 66.3567716,37.8967581 66.2652883,37.4711554 C66.173805,36.7050707 65.5334219,36.1943475 64.7100721,36.279468 L64.7100721,36.279468 C61.416673,36.6199501 58.1232739,37.2157938 54.9213581,38.1521197 C54.5554249,38.2372402 54.280975,38.4926018 54.0980083,38.833084 C53.9150417,39.1735661 53.9150417,39.5140482 54.006525,39.8545303 C54.0980083,40.3652535 54.6469082,40.7908562 55.2872914,40.7908562 Z" id="Path"></path>
                    <path d="M64.7100721,41.4718204 L64.7100721,41.4718204 C61.416673,41.8123026 58.1232739,42.4081463 54.9213581,43.3444722 C54.1894917,43.5998337 53.7320751,44.280798 53.9150417,45.0468828 C54.0980083,45.6427265 54.6469082,45.9832086 55.2872914,45.9832086 C55.470258,45.9832086 55.5617413,45.9832086 55.7447079,45.8980881 C58.7636571,45.0468828 61.8740895,44.4510391 64.984522,44.1956775 C65.3504552,44.1956775 65.7163885,43.9403159 65.9908384,43.6849543 C66.2652883,43.4295927 66.3567716,43.0891106 66.2652883,42.6635079 C66.173805,41.8974231 65.4419385,41.3866999 64.7100721,41.4718204 Z" id="Path"></path>
                </g>
            </g>
        </g>
    </g>
</svg>