<?xml version="1.0" encoding="UTF-8"?>
<svg width="6px" height="18px" viewBox="0 0 6 18" version="1.1" xmlns="http://www.w3.org/2000/svg" xmlns:xlink="http://www.w3.org/1999/xlink">
    <title>noun_drag_3039280</title>
    <g id="Page-1" stroke="none" stroke-width="1" fill="none" fill-rule="evenodd">
        <g id="noun_drag_3039280" fill="#000000" fill-rule="nonzero">
            <g id="Group" transform="translate(4.000000, 0.000000)">
                <path d="M0.5,0 C0.223333333,0 0,0.224 0,0.5 L0,1.5 C0,1.776 0.223333333,2 0.5,2 L1.5,2 C1.776,2 2,1.776 2,1.5 L2,0.5 C2,0.224 1.776,0 1.5,0 L0.5,0 Z M1.5,4 L0.5,4 C0.223333333,4 0,4.224 0,4.5 L0,5.5 C0,5.776 0.223333333,6 0.5,6 L1.5,6 C1.776,6 2,5.776 2,5.5 L2,4.5 C2,4.224 1.776,4 1.5,4 M1.5,8 L0.5,8 C0.223333333,8 0,8.22333333 0,8.5 L0,9.5 C0,9.776 0.223333333,10 0.5,10 L1.5,10 C1.776,10 2,9.776 2,9.5 L2,8.5 C2,8.22333333 1.776,8 1.5,8 M1.5,12 L0.5,12 C0.223333333,12 0,12.2233333 0,12.5 L0,13.5 C0,13.776 0.223333333,14 0.5,14 L1.5,14 C1.776,14 2,13.776 2,13.5 L2,12.5 C2,12.2233333 1.776,12 1.5,12 M0.5,16 C0.223333333,16 0,16.224 0,16.5 L0,17.5 C0,17.776 0.223333333,18 0.5,18 L1.5,18 C1.776,18 2,17.776 2,17.5 L2,16.5 C2,16.224 1.776,16 1.5,16 L0.5,16 Z" id="Shape"></path>
            </g>
            <g id="Group">
                <path d="M0.5,0 C0.223333333,0 0,0.224 0,0.5 L0,1.5 C0,1.776 0.223333333,2 0.5,2 L1.5,2 C1.776,2 2,1.776 2,1.5 L2,0.5 C2,0.224 1.776,0 1.5,0 L0.5,0 Z M1.5,4 L0.5,4 C0.223333333,4 0,4.224 0,4.5 L0,5.5 C0,5.776 0.223333333,6 0.5,6 L1.5,6 C1.776,6 2,5.776 2,5.5 L2,4.5 C2,4.224 1.776,4 1.5,4 M1.5,8 L0.5,8 C0.223333333,8 0,8.22333333 0,8.5 L0,9.5 C0,9.776 0.223333333,10 0.5,10 L1.5,10 C1.776,10 2,9.776 2,9.5 L2,8.5 C2,8.22333333 1.776,8 1.5,8 M1.5,12 L0.5,12 C0.223333333,12 0,12.2233333 0,12.5 L0,13.5 C0,13.776 0.223333333,14 0.5,14 L1.5,14 C1.776,14 2,13.776 2,13.5 L2,12.5 C2,12.2233333 1.776,12 1.5,12 M0.5,16 C0.223333333,16 0,16.224 0,16.5 L0,17.5 C0,17.776 0.223333333,18 0.5,18 L1.5,18 C1.776,18 2,17.776 2,17.5 L2,16.5 C2,16.224 1.776,16 1.5,16 L0.5,16 Z" id="Shape"></path>
            </g>
        </g>
    </g>
</svg>