<?xml version="1.0" encoding="UTF-8"?>
<svg width="53px" height="51px" viewBox="0 0 53 51" version="1.1" xmlns="http://www.w3.org/2000/svg" xmlns:xlink="http://www.w3.org/1999/xlink">
    <title>drag</title>
    <g id="Page-1" stroke="none" stroke-width="1" fill="none" fill-rule="evenodd">
        <g id="drag" fill="#000000" fill-rule="nonzero">
            <g id="arrow" transform="translate(13.000000, 12.000000)">
                <path d="M39.9463472,12.3858435 C39.7823332,11.7199453 39.2820389,11.1890529 38.6282369,10.9871175 L18.5,4.5 L2,0 L7,24.5 L11.0632594,37.6688568 C11.273665,38.2982132 11.7880762,38.7776279 12.4294725,38.9421236 C12.5804542,38.9803588 12.7355594,39 12.8912828,39 C13.3895026,38.9976861 13.8679762,38.8044233 14.2286544,38.4598153 L22.3105668,30.6752847 L29.5650064,37.9485904 C30.3175055,38.7009709 31.5353533,38.7009709 32.2878524,37.9485904 L38.4454491,31.7749222 C38.8086336,31.4120574 39.0128844,30.9192191 39.0131319,30.4051561 C39.0146191,29.8935792 38.809901,29.4030979 38.4454491,29.045053 L31.3834497,21.9550105 L39.407578,14.2282984 C39.9015975,13.7541563 40.1068142,13.0523668 39.9463472,12.3858435 Z" id="Path"></path>
                <path d="M2.50757968,0.0771155502 C1.81170512,-0.12016058 1.05870715,0.0676839757 0.552660775,0.564793992 C0.0466143946,1.06190401 -0.128908021,1.78618292 0.0969728368,2.44515305 L7,24 L15,3.64775906 L2.50757968,0.0771155502 Z" id="Path"></path>
            </g>
            <g id="Group">
                <path d="M19.2916667,4 L25.7083333,4 C26.96875,4 28,3.1 28,2 C28,0.9 26.96875,0 25.7083333,0 L19.2916667,0 C18.03125,0 17,0.9 17,2 C17,3.1 18.03125,4 19.2916667,4 Z" id="Path"></path>
                <path d="M-0.708333333,24 L5.70833333,24 C6.96875,24 8,23.1 8,22 C8,20.9 6.96875,20 5.70833333,20 L-0.708333333,20 C-1.96875,20 -3,20.9 -3,22 C-3,23.1 -1.96875,24 -0.708333333,24 Z" id="Path" transform="translate(2.500000, 22.000000) rotate(90.000000) translate(-2.500000, -22.000000) "></path>
                <g id="Group-2">
                    <path d="M3.29166667,4 L9.70833333,4 C10.96875,4 12,3.1 12,2 C12,0.9 10.96875,0 9.70833333,0 L3.29166667,0 C2.03125,0 1,0.9 1,2 C1,3.1 2.03125,4 3.29166667,4 Z" id="Path"></path>
                    <path d="M-0.708333333,8 L5.70833333,8 C6.96875,8 8,7.1 8,6 C8,4.9 6.96875,4 5.70833333,4 L-0.708333333,4 C-1.96875,4 -3,4.9 -3,6 C-3,7.1 -1.96875,8 -0.708333333,8 Z" id="Path" transform="translate(2.500000, 6.000000) rotate(90.000000) translate(-2.500000, -6.000000) "></path>
                </g>
                <g id="Group-2" transform="translate(39.000000, 6.000000) scale(-1, 1) translate(-39.000000, -6.000000) translate(33.000000, 0.000000)">
                    <path d="M3.29166667,4 L9.70833333,4 C10.96875,4 12,3.1 12,2 C12,0.9 10.96875,0 9.70833333,0 L3.29166667,0 C2.03125,0 1,0.9 1,2 C1,3.1 2.03125,4 3.29166667,4 Z" id="Path"></path>
                    <path d="M-0.708333333,8 L5.70833333,8 C6.96875,8 8,7.1 8,6 C8,4.9 6.96875,4 5.70833333,4 L-0.708333333,4 C-1.96875,4 -3,4.9 -3,6 C-3,7.1 -1.96875,8 -0.708333333,8 Z" id="Path" transform="translate(2.500000, 6.000000) rotate(90.000000) translate(-2.500000, -6.000000) "></path>
                </g>
                <g id="Group-2" transform="translate(6.000000, 38.000000) scale(1, -1) translate(-6.000000, -38.000000) translate(0.000000, 32.000000)">
                    <path d="M3.29166667,4 L9.70833333,4 C10.96875,4 12,3.1 12,2 C12,0.9 10.96875,0 9.70833333,0 L3.29166667,0 C2.03125,0 1,0.9 1,2 C1,3.1 2.03125,4 3.29166667,4 Z" id="Path"></path>
                    <path d="M-0.708333333,8 L5.70833333,8 C6.96875,8 8,7.1 8,6 C8,4.9 6.96875,4 5.70833333,4 L-0.708333333,4 C-1.96875,4 -3,4.9 -3,6 C-3,7.1 -1.96875,8 -0.708333333,8 Z" id="Path" transform="translate(2.500000, 6.000000) rotate(90.000000) translate(-2.500000, -6.000000) "></path>
                </g>
            </g>
        </g>
    </g>
</svg>