<?xml version="1.0" encoding="UTF-8"?>
<svg width="31px" height="42px" viewBox="0 0 31 42" version="1.1" xmlns="http://www.w3.org/2000/svg" xmlns:xlink="http://www.w3.org/1999/xlink">
    <title>drag</title>
    <g id="Page-1" stroke="none" stroke-width="1" fill="none" fill-rule="evenodd">
        <g id="drag" fill="#000000" fill-rule="nonzero">
            <g id="Group" transform="translate(0.000000, 6.000000)">
                <g id="Path">
                    <path d="M31,17.94 C31,16.32 29.6997257,14.94 28.0448312,14.94 C26.9809705,14.94 26.0944198,15.48 25.5624894,16.32 L25.5624894,16.26 C25.5624894,14.64 24.2622152,13.26 22.6073207,13.26 C21.5434599,13.26 20.6569093,13.8 20.1249789,14.64 L20.1249789,14.58 C20.1249789,12.96 18.8247046,11.58 17.1698101,11.58 C16.1059493,11.58 15.2193987,12.12 14.6874683,12.96 L14.6874683,3 C14.6874683,2.22 14.3919515,1.44 13.8009177,0.9 C13.2689873,0.36 12.5006434,0 11.7322996,0 C11.7322996,0 11.7322996,0 11.7322996,0 C10.1365084,0 8.77713077,1.32 8.77713077,3 L8.77713077,21.48 C8.77713077,21.66 8.65892402,21.78 8.54071727,21.84 C8.42251052,21.9 8.24520039,21.9 8.12699364,21.72 L5.11272148,18.72 C4.1079641,17.7 2.51217295,17.52 1.33010544,18.36 C0.620864935,18.84 0.14803793,19.62 0.0298311788,20.46 C-0.0883755725,21.3 0.14803793,22.14 0.679968311,22.8 L8.12699364,31.92 C10.2547152,34.5 13.3280907,36 16.6378797,36 L21.247943,36 C23.8484916,36 26.27173,34.98 28.1039346,33.12 C29.9361392,31.26 30.9408966,28.8 30.9408966,26.16 L31,17.94 Z"></path>
                </g>
            </g>
            <g id="Group">
                <path d="M1.33333333,23 L4.66666667,23 C5.4,23 6,22.4 6,21.6666667 L6,18.3333333 C6,17.6 5.4,17 4.66666667,17 C3.93333333,17 3.33333333,17.6 3.33333333,18.3333333 L3.33333333,20.3333333 L1.33333333,20.3333333 C0.6,20.3333333 0,20.9333333 0,21.6666667 C0,22.4 0.6,23 1.33333333,23 Z" id="Path" transform="translate(3.000000, 20.000000) scale(-1, 1) translate(-3.000000, -20.000000) "></path>
                <path d="M1.33333333,6 C2.06666667,6 2.66666667,5.4 2.66666667,4.66666667 L2.66666667,2.66666667 L4.66666667,2.66666667 C5.4,2.66666667 6,2.06666667 6,1.33333333 C6,0.6 5.4,0 4.66666667,0 L1.33333333,0 C0.6,0 0,0.6 0,1.33333333 L0,4.66666667 C0,5.4 0.6,6 1.33333333,6 Z" id="Path"></path>
                <path d="M9.45833333,3 L13.5416667,3 C14.34375,3 15,2.325 15,1.5 C15,0.675 14.34375,0 13.5416667,0 L9.45833333,0 C8.65625,0 8,0.675 8,1.5 C8,2.325 8.65625,3 9.45833333,3 Z" id="Path"></path>
                <path d="M18.3333333,2.66666667 L20.3333333,2.66666667 L20.3333333,4.66666667 C20.3333333,5.4 20.9333333,6 21.6666667,6 C22.4,6 23,5.4 23,4.66666667 L23,1.33333333 C23,0.6 22.4,0 21.6666667,0 L18.3333333,0 C17.6,0 17,0.6 17,1.33333333 C17,2.06666667 17.6,2.66666667 18.3333333,2.66666667 Z" id="Path"></path>
                <path d="M21.5,8 C20.675,8 20,8.65625 20,9.45833333 L20,13.5416667 C20,14.34375 20.675,15 21.5,15 C22.325,15 23,14.34375 23,13.5416667 L23,9.45833333 C23,8.65625 22.325,8 21.5,8 Z" id="Path"></path>
                <path d="M1.5,8 C0.675,8 0,8.65625 0,9.45833333 L0,13.5416667 C0,14.34375 0.675,15 1.5,15 C2.325,15 3,14.34375 3,13.5416667 L3,9.45833333 C3,8.65625 2.325,8 1.5,8 Z" id="Path"></path>
            </g>
        </g>
    </g>
</svg>