<?xml version="1.0" encoding="UTF-8"?>
<svg width="47px" height="47px" viewBox="0 0 47 47" version="1.1" xmlns="http://www.w3.org/2000/svg" xmlns:xlink="http://www.w3.org/1999/xlink">
    <title>drop_resource_hand</title>
    <g id="Page-1" stroke="none" stroke-width="1" fill="none" fill-rule="evenodd">
        <g id="drop_resource_hand" fill="#000000" fill-rule="nonzero">
            <path d="M27.0265344,39 L18.5803303,39 C14.3289542,39 10.8692491,35.5721093 10.8692491,31.3598275 L10.8692491,28.3156432 L8.13609931,25.6076265 C6.62130021,24.106757 6.62130021,21.6635996 8.13609931,20.1627302 C8.71186001,19.5905662 9.43841521,19.2204423 10.2283726,19.0897104 C9.21393711,17.5939344 9.37329941,15.5429725 10.7064597,14.2203738 C11.9128155,13.0251112 13.7206356,12.7840214 15.1703188,13.488615 C15.2731332,12.6685699 15.6432651,11.8773876 16.2755738,11.2491956 C17.7441063,9.79246938 20.1088379,9.75002398 21.6322048,11.1184638 C21.776145,10.3697268 22.1428497,9.67871568 22.7014747,9.12692538 C24.2162738,7.62435818 26.6821061,7.62435818 28.1969052,9.12692538 L36.7202202,17.5718628 C38.83477,19.6669679 40,22.4530841 40,25.4174711 C40,28.381858 38.83477,31.1679743 36.7202202,33.2630793 L33.6906221,36.2648182 C31.9102191,38.0288492 29.543774,39 27.0265344,39 Z M12.7957587,30.6015787 L12.7957587,31.96821 C12.7957587,35.2943113 15.4338027,38 18.6767484,38 L26.958862,38 C28.9785619,38 30.8772814,37.1934635 32.3055218,35.7286002 L35.2762617,32.6816846 C37.0321571,30.8807644 38,28.4835588 38,25.93642 C38,23.3892813 37.0321571,20.9920756 35.2762617,19.1911554 L26.9185353,10.6191202 C26.1136798,9.79362658 24.712324,9.79362658 23.9057883,10.6191202 C23.0757286,11.4704642 23.0757286,12.8577759 23.9057883,13.70912 L24.3107364,14.1244518 C24.4754041,14.293342 24.5560577,14.5139331 24.5560577,14.7345243 C24.5560577,14.9551155 24.4737239,15.1757067 24.3107364,15.3445968 C23.9830813,15.6806536 23.4504317,15.6806536 23.1227765,15.3445968 L20.6174749,12.7750542 C19.7874153,11.9237102 18.4347876,11.9237102 17.604728,12.7750542 C17.2031404,13.1869393 16.9813431,13.7366939 16.9813431,14.3191925 C16.9813431,14.9016911 17.2031404,15.4514456 17.604728,15.8633307 L20.1100295,18.4328733 C20.2746973,18.6017634 20.3553508,18.8223546 20.3553508,19.0429457 C20.3553508,19.2635369 20.2746973,19.4841281 20.1100295,19.6530182 C19.7823744,19.9890751 19.2497248,19.9890751 18.9220696,19.6530182 L15.156556,15.7892259 C14.3264963,14.9378818 12.9738687,14.9378818 12.143809,15.7892259 C11.3137493,16.6405699 11.3137493,18.0278816 12.143809,18.8792257 L15.9093227,22.7412947 C16.0739904,22.9101848 16.154644,23.130776 16.154644,23.3513672 C16.154644,23.5719583 16.0723101,23.7925495 15.9093227,23.9614396 C15.5816675,24.2974965 15.0490179,24.2974965 14.7213628,23.9614396 L12.6361319,21.8227392 C11.8312764,20.9972457 10.4299206,20.9972457 9.62338491,21.8227392 C9.22179731,22.2346243 9.00000001,22.7843789 9.00000001,23.3668775 C9.00000001,23.949376 9.22179731,24.4991306 9.62338491,24.9110157 L15.9093227,31.3581375 C16.0739904,31.5270277 16.154644,31.7476188 16.154644,31.96821 C16.154644,32.1888012 16.0723101,32.4093924 15.9093227,32.5782825 C15.5816675,32.9143393 15.0490179,32.9143393 14.7213628,32.5782825 L12.7957587,30.6015787 Z" id="Shape" transform="translate(23.500000, 23.500000) rotate(47.000000) translate(-23.500000, -23.500000) "></path>
        </g>
    </g>
</svg>