<?xml version="1.0" encoding="UTF-8"?>
<svg width="61px" height="58px" viewBox="0 0 61 58" version="1.1" xmlns="http://www.w3.org/2000/svg" xmlns:xlink="http://www.w3.org/1999/xlink">
    <title>drop_resource</title>
    <g id="Page-1" stroke="none" stroke-width="1" fill="none" fill-rule="evenodd">
        <g id="drop_resource" transform="translate(0.000000, 1.000000)" fill="#000000" fill-rule="nonzero">
            <path d="M60.5,-0.5 L35.5,-0.5 L35.5,12.5 L60.5,12.5 L60.5,-0.5 Z M59.5,0.5 L59.5,11.5 L36.5,11.5 L36.5,0.5 L59.5,0.5 Z" id="Rectangle"></path>
            <g id="Group-2" transform="translate(0.000000, 12.000000)">
                <path d="M4.27064132,13.0714286 L3.49126344,13.0714286 C3.27265745,13.0714286 3.0952381,13.2794286 3.0952381,13.5357143 C3.0952381,13.792 3.27265745,14 3.49126344,14 L4.27064132,14 C4.49003936,14 4.66666667,13.792 4.66666667,13.5357143 C4.66666667,13.2794286 4.48924731,13.0714286 4.27064132,13.0714286 Z" id="Path"></path>
                <path d="M4.27064132,1 L3.49126344,1 C3.27265745,1 3.0952381,1.208 3.0952381,1.46428571 C3.0952381,1.72057143 3.27265745,1.92857143 3.49126344,1.92857143 L4.27064132,1.92857143 C4.49003936,1.92857143 4.66666667,1.72057143 4.66666667,1.46428571 C4.66666667,1.208 4.48924731,1 4.27064132,1 Z" id="Path"></path>
                <path d="M10.9598415,12.8323209 C10.8174467,12.9561947 10.6547097,13.0272542 10.4879044,13.0397376 C10.3000788,13.0541415 10.157006,13.2807634 10.167177,13.5448356 C10.17667,13.8012257 10.3258455,14 10.5055342,14 C10.5116369,14 10.5177395,14 10.5238421,13.9990397 C10.8025291,13.977914 11.0757915,13.8578812 11.3137943,13.6514247 C11.473819,13.5121867 11.5239962,13.2164259 11.426354,12.9907642 C11.3280338,12.7641423 11.1171539,12.6950034 10.9598415,12.8323209 Z" id="Path"></path>
                <path d="M2.05508025,12.8323209 C1.91268543,12.9561947 1.7499485,13.0272542 1.58314314,13.0397376 C1.3953176,13.0541415 1.25224471,13.2807634 1.26241577,13.5448356 C1.27190876,13.8012257 1.42108428,14 1.60077298,14 C1.60687561,14 1.61297825,14 1.61908088,13.9990397 C1.89776788,13.977914 2.17103031,13.8578812 2.40903308,13.6514247 C2.56905773,13.5121867 2.61923495,13.2164259 2.52159279,12.9907642 C2.42327256,12.7641423 2.21239262,12.6950034 2.05508025,12.8323209 Z" id="Path" transform="translate(1.916667, 13.380952) scale(-1, 1) translate(-1.916667, -13.380952) "></path>
                <path d="M11.6071428,2.54761905 C11.3902857,2.54761905 11.2142857,2.75729647 11.2142857,3.015649 L11.2142857,3.93673195 C11.2142857,4.19508449 11.3902857,4.4047619 11.6071428,4.4047619 C11.824,4.4047619 12,4.19602055 12,3.93673195 L12,3.015649 C12,2.75729647 11.824,2.54761905 11.6071428,2.54761905 Z" id="Path"></path>
                <path d="M11.6071428,10.2857143 C11.3902857,10.2857143 11.2142857,10.4953917 11.2142857,10.7537442 L11.2142857,11.6748272 C11.2142857,11.9331797 11.3902857,12.1428571 11.6071428,12.1428571 C11.824,12.1428571 12,11.9341158 12,11.6748272 L12,10.7537442 C12,10.4953917 11.824,10.2857143 11.6071428,10.2857143 Z" id="Path"></path>
                <path d="M10.4432431,1.85610776 C10.6109042,1.90028318 10.768785,1.99642969 10.9001196,2.13501925 C10.9664854,2.20431403 11.046823,2.23809524 11.126462,2.23809524 C11.2256615,2.23809524 11.3234638,2.18612415 11.3933226,2.08651291 C11.5176712,1.90374792 11.5002065,1.63089973 11.3535031,1.47585265 C11.1334479,1.24458133 10.8693817,1.08260478 10.589248,1.00897907 C10.4055194,0.961338912 10.2148049,1.10772413 10.1742868,1.3424602 C10.1344673,1.57633009 10.2546244,1.80586905 10.4432431,1.85610776 Z" id="Path"></path>
                <path d="M6.62778418,13.0714286 L5.8484063,13.0714286 C5.62980031,13.0714286 5.45238095,13.2794286 5.45238095,13.5357143 C5.45238095,13.792 5.62980031,14 5.8484063,14 L6.62778418,14 C6.84718222,14 7.02380952,13.792 7.02380952,13.5357143 C7.02380952,13.2794286 6.84639017,13.0714286 6.62778418,13.0714286 Z" id="Path"></path>
                <path d="M6.62778418,1 L5.8484063,1 C5.62980031,1 5.45238095,1.208 5.45238095,1.46428571 C5.45238095,1.72057143 5.62980031,1.92857143 5.8484063,1.92857143 L6.62778418,1.92857143 C6.84718222,1.92857143 7.02380952,1.72057143 7.02380952,1.46428571 C7.02380952,1.208 6.84639017,1 6.62778418,1 Z" id="Path"></path>
                <path d="M11.6071428,7.80952381 C11.3902857,7.80952381 11.2142857,8.0190956 11.2142857,8.27731798 L11.2142857,9.1988725 C11.2142857,9.45709488 11.3902857,9.66666667 11.6071428,9.66666667 C11.824,9.66666667 12,9.45709488 12,9.19793691 L12,8.27731798 C12,8.0190956 11.824,7.80952381 11.6071428,7.80952381 Z" id="Path"></path>
                <path d="M8.98492704,13.0714286 L8.20554916,13.0714286 C7.98694316,13.0714286 7.80952381,13.2794286 7.80952381,13.5357143 C7.80952381,13.792 7.98694316,14 8.20554916,14 L8.98492704,14 C9.20353303,14 9.38095238,13.792 9.38095238,13.5357143 C9.38095238,13.2794286 9.20353303,13.0714286 8.98492704,13.0714286 Z" id="Path"></path>
                <path d="M11.6071428,5.02380952 C11.3902857,5.02380952 11.2142857,5.23348694 11.2142857,5.49183948 L11.2142857,6.41292243 C11.2142857,6.67127496 11.3902857,6.88095238 11.6071428,6.88095238 C11.824,6.88095238 12,6.67127496 12,6.41292243 L12,5.49183948 C12,5.23348694 11.824,5.02380952 11.6071428,5.02380952 Z" id="Path"></path>
                <path d="M1.39285686,2.54761905 C1.17599971,2.54761905 0.999999714,2.75729647 0.999999714,3.015649 L0.999999714,3.93673195 C0.999999714,4.19508449 1.17599971,4.4047619 1.39285686,4.4047619 C1.609714,4.4047619 1.785714,4.19602055 1.785714,3.93673195 L1.785714,3.015649 C1.785714,2.75729647 1.609714,2.54761905 1.39285686,2.54761905 Z" id="Path" transform="translate(1.392857, 3.476190) scale(-1, 1) translate(-1.392857, -3.476190) "></path>
                <path d="M1.39285686,10.2857143 C1.17599971,10.2857143 0.999999714,10.4953917 0.999999714,10.7537442 L0.999999714,11.6748272 C0.999999714,11.9331797 1.17599971,12.1428571 1.39285686,12.1428571 C1.609714,12.1428571 1.785714,11.9341158 1.785714,11.6748272 L1.785714,10.7537442 C1.785714,10.4953917 1.609714,10.2857143 1.39285686,10.2857143 Z" id="Path" transform="translate(1.392857, 11.214286) scale(-1, 1) translate(-1.392857, -11.214286) "></path>
                <path d="M1.8003851,1.85610776 C1.96804618,1.90028318 2.12592703,1.99642969 2.25726155,2.13501925 C2.32362739,2.20431403 2.40396499,2.23809524 2.48360401,2.23809524 C2.58280348,2.23809524 2.68060578,2.18612415 2.75046456,2.08651291 C2.8748132,1.90374792 2.8573485,1.63089973 2.71064506,1.47585265 C2.49058989,1.24458133 2.22652368,1.08260478 1.94638996,1.00897907 C1.76266136,0.961338912 1.57194688,1.10772413 1.53142878,1.3424602 C1.49160928,1.57633009 1.61176638,1.80586905 1.8003851,1.85610776 Z" id="Path" transform="translate(2.178571, 1.619048) scale(-1, 1) translate(-2.178571, -1.619048) "></path>
                <path d="M1.39285686,7.80952381 C1.17599971,7.80952381 0.999999714,8.0190956 0.999999714,8.27731798 L0.999999714,9.1988725 C0.999999714,9.45709488 1.17599971,9.66666667 1.39285686,9.66666667 C1.609714,9.66666667 1.785714,9.45709488 1.785714,9.19793691 L1.785714,8.27731798 C1.785714,8.0190956 1.609714,7.80952381 1.39285686,7.80952381 Z" id="Path" transform="translate(1.392857, 8.738095) scale(-1, 1) translate(-1.392857, -8.738095) "></path>
                <path d="M1.39285686,5.02380952 C1.17599971,5.02380952 0.999999714,5.23348694 0.999999714,5.49183948 L0.999999714,6.41292243 C0.999999714,6.67127496 1.17599971,6.88095238 1.39285686,6.88095238 C1.609714,6.88095238 1.785714,6.67127496 1.785714,6.41292243 L1.785714,5.49183948 C1.785714,5.23348694 1.609714,5.02380952 1.39285686,5.02380952 Z" id="Path" transform="translate(1.392857, 5.952381) scale(-1, 1) translate(-1.392857, -5.952381) "></path>
                <path d="M8.98492704,1 L8.20554916,1 C7.98694316,1 7.80952381,1.208 7.80952381,1.46428571 C7.80952381,1.72057143 7.98694316,1.92857143 8.20554916,1.92857143 L8.98492704,1.92857143 C9.20353303,1.92857143 9.38095238,1.72057143 9.38095238,1.46428571 C9.38095238,1.208 9.20353303,1 8.98492704,1 Z" id="Path"></path>
            </g>
            <path d="M36.0265344,49 L27.5803303,49 C23.3289542,49 19.8692491,45.5721093 19.8692491,41.3598275 L19.8692491,38.3156432 L17.1360993,35.6076265 C15.6213002,34.106757 15.6213002,31.6635996 17.1360993,30.1627302 C17.71186,29.5905662 18.4384152,29.2204423 19.2283726,29.0897104 C18.2139371,27.5939344 18.3732994,25.5429725 19.7064597,24.2203738 C20.9128155,23.0251112 22.7206356,22.7840214 24.1703188,23.488615 C24.2731332,22.6685699 24.6432651,21.8773876 25.2755738,21.2491956 C26.7441063,19.7924694 29.1088379,19.750024 30.6322048,21.1184638 C30.776145,20.3697268 31.1428497,19.6787157 31.7014747,19.1269254 C33.2162738,17.6243582 35.6821061,17.6243582 37.1969052,19.1269254 L45.7202202,27.5718628 C47.83477,29.6669679 49,32.4530841 49,35.4174711 C49,38.381858 47.83477,41.1679743 45.7202202,43.2630793 L42.6906221,46.2648182 C40.9102191,48.0288492 38.543774,49 36.0265344,49 Z M21.7957587,40.6015787 L21.7957587,41.96821 C21.7957587,45.2943113 24.4338027,48 27.6767484,48 L35.958862,48 C37.9785619,48 39.8772814,47.1934635 41.3055218,45.7286002 L44.2762617,42.6816846 C46.0321571,40.8807644 47,38.4835588 47,35.93642 C47,33.3892813 46.0321571,30.9920756 44.2762617,29.1911554 L35.9185353,20.6191202 C35.1136798,19.7936266 33.712324,19.7936266 32.9057883,20.6191202 C32.0757286,21.4704642 32.0757286,22.8577759 32.9057883,23.70912 L33.3107364,24.1244518 C33.4754041,24.293342 33.5560577,24.5139331 33.5560577,24.7345243 C33.5560577,24.9551155 33.4737239,25.1757067 33.3107364,25.3445968 C32.9830813,25.6806536 32.4504317,25.6806536 32.1227765,25.3445968 L29.6174749,22.7750542 C28.7874153,21.9237102 27.4347876,21.9237102 26.604728,22.7750542 C26.2031404,23.1869393 25.9813431,23.7366939 25.9813431,24.3191925 C25.9813431,24.9016911 26.2031404,25.4514456 26.604728,25.8633307 L29.1100295,28.4328733 C29.2746973,28.6017634 29.3553508,28.8223546 29.3553508,29.0429457 C29.3553508,29.2635369 29.2746973,29.4841281 29.1100295,29.6530182 C28.7823744,29.9890751 28.2497248,29.9890751 27.9220696,29.6530182 L24.156556,25.7892259 C23.3264963,24.9378818 21.9738687,24.9378818 21.143809,25.7892259 C20.3137493,26.6405699 20.3137493,28.0278816 21.143809,28.8792257 L24.9093227,32.7412947 C25.0739904,32.9101848 25.154644,33.130776 25.154644,33.3513672 C25.154644,33.5719583 25.0723101,33.7925495 24.9093227,33.9614396 C24.5816675,34.2974965 24.0490179,34.2974965 23.7213628,33.9614396 L21.6361319,31.8227392 C20.8312764,30.9972457 19.4299206,30.9972457 18.6233849,31.8227392 C18.2217973,32.2346243 18,32.7843789 18,33.3668775 C18,33.949376 18.2217973,34.4991306 18.6233849,34.9110157 L24.9093227,41.3581375 C25.0739904,41.5270277 25.154644,41.7476188 25.154644,41.96821 C25.154644,42.1888012 25.0723101,42.4093924 24.9093227,42.5782825 C24.5816675,42.9143393 24.0490179,42.9143393 23.7213628,42.5782825 L21.7957587,40.6015787 Z" id="Shape" transform="translate(32.500000, 33.500000) rotate(47.000000) translate(-32.500000, -33.500000) "></path>
            <path d="M10.8411389,9.81007846 C10.8411389,9.81007846 10.8411389,9.81007846 10.9006714,9.75054598 C10.9602039,9.69101351 11.0197364,9.63148103 11.1388013,9.57194856 C11.3173988,9.45288361 11.6150611,9.2147537 12.0317885,9.03615627 C12.8057107,8.61942894 13.8772952,8.02410419 15.2465422,7.4883119 C15.9609319,7.250182 16.6753216,6.95251962 17.5087762,6.7739222 C18.3422309,6.53579229 19.1756856,6.35719486 20.0686727,6.23812991 C20.9616598,6.11906496 21.9141795,6.00000001 22.8666991,6.00000001 C23.8192187,6.00000001 24.7717383,6.00000001 25.7242579,6.11906496 C26.6767775,6.23812991 27.6292971,6.41672734 28.5222843,6.59532477 C28.9985441,6.71438972 29.4152714,6.83345467 29.8319987,6.95251962 C30.2487261,7.07158457 30.6654534,7.250182 31.0821807,7.42877943 C31.9156354,7.78597428 32.6895576,8.08363666 33.4039473,8.50036399 C33.7611421,8.67896142 34.118337,8.85755885 34.4159994,9.03615627 C34.7136617,9.2147537 35.0708566,9.39335113 35.368519,9.57194856 C35.9638437,9.92914341 36.499636,10.2863383 36.9163633,10.6435331 C37.3926232,11.000728 37.749818,11.2388579 38.0474804,11.5365202 C38.6428051,12.0723125 39,12.3104424 39,12.3104424 C39,12.3104424 38.6428051,12.0723125 37.9284154,11.6555852 C37.5712206,11.4174553 37.1544933,11.1793254 36.6782334,10.9411955 C36.2019736,10.6435331 35.6066489,10.4054032 35.0113241,10.1077408 C34.7136617,9.92914341 34.3564669,9.81007846 34.0588045,9.69101351 C33.7016097,9.57194856 33.4039473,9.39335113 32.9872199,9.27428618 C32.2728302,8.9766238 31.4989081,8.7384939 30.6654534,8.55989647 C30.2487261,8.44083152 29.8319987,8.38129904 29.4152714,8.26223409 C28.9985441,8.20270161 28.5818167,8.08363666 28.1055569,8.08363666 C27.2125698,7.96457171 26.3791151,7.90503923 25.486128,7.96457171 C24.5931409,7.96457171 23.7596862,8.02410419 22.8666991,8.14316914 C22.0332444,8.26223409 21.1997897,8.44083152 20.4258676,8.67896142 C19.6519454,8.91709132 18.9375557,9.15522123 18.223166,9.45288361 C17.5683087,9.75054598 16.9134515,10.0482084 16.3776592,10.3458707 C15.2465422,10.9411955 14.353555,11.5365202 13.8177627,12.0127801 C13.5201004,12.25091 13.3415029,12.4295074 13.1629055,12.5485723 C13.103373,12.6081048 13.0438406,12.6676373 13.0438406,12.6676373 C12.9843081,12.7271698 12.9843081,12.7271698 12.9843081,12.7271698 C12.2699184,13.382027 11.1388013,13.382027 10.4839441,12.6676373 C9.82908684,11.9532476 9.82908684,10.8221305 10.5434766,10.1672733 C10.722074,9.92914341 10.7816065,9.86961094 10.8411389,9.81007846 Z" id="Path" transform="translate(24.500000, 9.605557) scale(-1, 1) rotate(24.000000) translate(-24.500000, -9.605557) "></path>
        </g>
    </g>
</svg>