<?xml version="1.0" encoding="UTF-8"?>
<svg width="61px" height="28px" viewBox="0 0 61 28" version="1.1" xmlns="http://www.w3.org/2000/svg" xmlns:xlink="http://www.w3.org/1999/xlink">
    <title>drop_resource_top</title>
    <g id="Page-1" stroke="none" stroke-width="1" fill="none" fill-rule="evenodd">
        <g id="drop_resource_top" fill="#000000" fill-rule="nonzero">
            <path d="M60.5,0.5 L35.5,0.5 L35.5,13.5 L60.5,13.5 L60.5,0.5 Z M59.5,1.5 L59.5,12.5 L36.5,12.5 L36.5,1.5 L59.5,1.5 Z" id="Rectangle"></path>
            <path d="M10.8411389,10.8100785 C10.8411389,10.8100785 10.8411389,10.8100785 10.9006714,10.750546 C10.9602039,10.6910135 11.0197364,10.631481 11.1388013,10.5719486 C11.3173988,10.4528836 11.6150611,10.2147537 12.0317885,10.0361563 C12.8057107,9.61942894 13.8772952,9.02410419 15.2465422,8.4883119 C15.9609319,8.250182 16.6753216,7.95251962 17.5087762,7.7739222 C18.3422309,7.53579229 19.1756856,7.35719486 20.0686727,7.23812991 C20.9616598,7.11906496 21.9141795,7.00000001 22.8666991,7.00000001 C23.8192187,7.00000001 24.7717383,7.00000001 25.7242579,7.11906496 C26.6767775,7.23812991 27.6292971,7.41672734 28.5222843,7.59532477 C28.9985441,7.71438972 29.4152714,7.83345467 29.8319987,7.95251962 C30.2487261,8.07158457 30.6654534,8.250182 31.0821807,8.42877943 C31.9156354,8.78597428 32.6895576,9.08363666 33.4039473,9.50036399 C33.7611421,9.67896142 34.118337,9.85755885 34.4159994,10.0361563 C34.7136617,10.2147537 35.0708566,10.3933511 35.368519,10.5719486 C35.9638437,10.9291434 36.499636,11.2863383 36.9163633,11.6435331 C37.3926232,12.000728 37.749818,12.2388579 38.0474804,12.5365202 C38.6428051,13.0723125 39,13.3104424 39,13.3104424 C39,13.3104424 38.6428051,13.0723125 37.9284154,12.6555852 C37.5712206,12.4174553 37.1544933,12.1793254 36.6782334,11.9411955 C36.2019736,11.6435331 35.6066489,11.4054032 35.0113241,11.1077408 C34.7136617,10.9291434 34.3564669,10.8100785 34.0588045,10.6910135 C33.7016097,10.5719486 33.4039473,10.3933511 32.9872199,10.2742862 C32.2728302,9.9766238 31.4989081,9.7384939 30.6654534,9.55989647 C30.2487261,9.44083152 29.8319987,9.38129904 29.4152714,9.26223409 C28.9985441,9.20270161 28.5818167,9.08363666 28.1055569,9.08363666 C27.2125698,8.96457171 26.3791151,8.90503923 25.486128,8.96457171 C24.5931409,8.96457171 23.7596862,9.02410419 22.8666991,9.14316914 C22.0332444,9.26223409 21.1997897,9.44083152 20.4258676,9.67896142 C19.6519454,9.91709132 18.9375557,10.1552212 18.223166,10.4528836 C17.5683087,10.750546 16.9134515,11.0482084 16.3776592,11.3458707 C15.2465422,11.9411955 14.353555,12.5365202 13.8177627,13.0127801 C13.5201004,13.25091 13.3415029,13.4295074 13.1629055,13.5485723 C13.103373,13.6081048 13.0438406,13.6676373 13.0438406,13.6676373 C12.9843081,13.7271698 12.9843081,13.7271698 12.9843081,13.7271698 C12.2699184,14.382027 11.1388013,14.382027 10.4839441,13.6676373 C9.82908684,12.9532476 9.82908684,11.8221305 10.5434766,11.1672733 C10.722074,10.9291434 10.7816065,10.8696109 10.8411389,10.8100785 Z" id="Path" transform="translate(24.500000, 10.605557) scale(-1, 1) rotate(24.000000) translate(-24.500000, -10.605557) "></path>
            <g id="Group-2" transform="translate(0.000000, 13.000000)">
                <path d="M4.27064132,13.0714286 L3.49126344,13.0714286 C3.27265745,13.0714286 3.0952381,13.2794286 3.0952381,13.5357143 C3.0952381,13.792 3.27265745,14 3.49126344,14 L4.27064132,14 C4.49003936,14 4.66666667,13.792 4.66666667,13.5357143 C4.66666667,13.2794286 4.48924731,13.0714286 4.27064132,13.0714286 Z" id="Path"></path>
                <path d="M4.27064132,1 L3.49126344,1 C3.27265745,1 3.0952381,1.208 3.0952381,1.46428571 C3.0952381,1.72057143 3.27265745,1.92857143 3.49126344,1.92857143 L4.27064132,1.92857143 C4.49003936,1.92857143 4.66666667,1.72057143 4.66666667,1.46428571 C4.66666667,1.208 4.48924731,1 4.27064132,1 Z" id="Path"></path>
                <path d="M10.9598415,12.8323209 C10.8174467,12.9561947 10.6547097,13.0272542 10.4879044,13.0397376 C10.3000788,13.0541415 10.157006,13.2807634 10.167177,13.5448356 C10.17667,13.8012257 10.3258455,14 10.5055342,14 C10.5116369,14 10.5177395,14 10.5238421,13.9990397 C10.8025291,13.977914 11.0757915,13.8578812 11.3137943,13.6514247 C11.473819,13.5121867 11.5239962,13.2164259 11.426354,12.9907642 C11.3280338,12.7641423 11.1171539,12.6950034 10.9598415,12.8323209 Z" id="Path"></path>
                <path d="M2.05508025,12.8323209 C1.91268543,12.9561947 1.7499485,13.0272542 1.58314314,13.0397376 C1.3953176,13.0541415 1.25224471,13.2807634 1.26241577,13.5448356 C1.27190876,13.8012257 1.42108428,14 1.60077298,14 C1.60687561,14 1.61297825,14 1.61908088,13.9990397 C1.89776788,13.977914 2.17103031,13.8578812 2.40903308,13.6514247 C2.56905773,13.5121867 2.61923495,13.2164259 2.52159279,12.9907642 C2.42327256,12.7641423 2.21239262,12.6950034 2.05508025,12.8323209 Z" id="Path" transform="translate(1.916667, 13.380952) scale(-1, 1) translate(-1.916667, -13.380952) "></path>
                <path d="M11.6071428,2.54761905 C11.3902857,2.54761905 11.2142857,2.75729647 11.2142857,3.015649 L11.2142857,3.93673195 C11.2142857,4.19508449 11.3902857,4.4047619 11.6071428,4.4047619 C11.824,4.4047619 12,4.19602055 12,3.93673195 L12,3.015649 C12,2.75729647 11.824,2.54761905 11.6071428,2.54761905 Z" id="Path"></path>
                <path d="M11.6071428,10.2857143 C11.3902857,10.2857143 11.2142857,10.4953917 11.2142857,10.7537442 L11.2142857,11.6748272 C11.2142857,11.9331797 11.3902857,12.1428571 11.6071428,12.1428571 C11.824,12.1428571 12,11.9341158 12,11.6748272 L12,10.7537442 C12,10.4953917 11.824,10.2857143 11.6071428,10.2857143 Z" id="Path"></path>
                <path d="M10.4432431,1.85610776 C10.6109042,1.90028318 10.768785,1.99642969 10.9001196,2.13501925 C10.9664854,2.20431403 11.046823,2.23809524 11.126462,2.23809524 C11.2256615,2.23809524 11.3234638,2.18612415 11.3933226,2.08651291 C11.5176712,1.90374792 11.5002065,1.63089973 11.3535031,1.47585265 C11.1334479,1.24458133 10.8693817,1.08260478 10.589248,1.00897907 C10.4055194,0.961338912 10.2148049,1.10772413 10.1742868,1.3424602 C10.1344673,1.57633009 10.2546244,1.80586905 10.4432431,1.85610776 Z" id="Path"></path>
                <path d="M6.62778418,13.0714286 L5.8484063,13.0714286 C5.62980031,13.0714286 5.45238095,13.2794286 5.45238095,13.5357143 C5.45238095,13.792 5.62980031,14 5.8484063,14 L6.62778418,14 C6.84718222,14 7.02380952,13.792 7.02380952,13.5357143 C7.02380952,13.2794286 6.84639017,13.0714286 6.62778418,13.0714286 Z" id="Path"></path>
                <path d="M6.62778418,1 L5.8484063,1 C5.62980031,1 5.45238095,1.208 5.45238095,1.46428571 C5.45238095,1.72057143 5.62980031,1.92857143 5.8484063,1.92857143 L6.62778418,1.92857143 C6.84718222,1.92857143 7.02380952,1.72057143 7.02380952,1.46428571 C7.02380952,1.208 6.84639017,1 6.62778418,1 Z" id="Path"></path>
                <path d="M11.6071428,7.80952381 C11.3902857,7.80952381 11.2142857,8.0190956 11.2142857,8.27731798 L11.2142857,9.1988725 C11.2142857,9.45709488 11.3902857,9.66666667 11.6071428,9.66666667 C11.824,9.66666667 12,9.45709488 12,9.19793691 L12,8.27731798 C12,8.0190956 11.824,7.80952381 11.6071428,7.80952381 Z" id="Path"></path>
                <path d="M8.98492704,13.0714286 L8.20554916,13.0714286 C7.98694316,13.0714286 7.80952381,13.2794286 7.80952381,13.5357143 C7.80952381,13.792 7.98694316,14 8.20554916,14 L8.98492704,14 C9.20353303,14 9.38095238,13.792 9.38095238,13.5357143 C9.38095238,13.2794286 9.20353303,13.0714286 8.98492704,13.0714286 Z" id="Path"></path>
                <path d="M11.6071428,5.02380952 C11.3902857,5.02380952 11.2142857,5.23348694 11.2142857,5.49183948 L11.2142857,6.41292243 C11.2142857,6.67127496 11.3902857,6.88095238 11.6071428,6.88095238 C11.824,6.88095238 12,6.67127496 12,6.41292243 L12,5.49183948 C12,5.23348694 11.824,5.02380952 11.6071428,5.02380952 Z" id="Path"></path>
                <path d="M1.39285686,2.54761905 C1.17599971,2.54761905 0.999999714,2.75729647 0.999999714,3.015649 L0.999999714,3.93673195 C0.999999714,4.19508449 1.17599971,4.4047619 1.39285686,4.4047619 C1.609714,4.4047619 1.785714,4.19602055 1.785714,3.93673195 L1.785714,3.015649 C1.785714,2.75729647 1.609714,2.54761905 1.39285686,2.54761905 Z" id="Path" transform="translate(1.392857, 3.476190) scale(-1, 1) translate(-1.392857, -3.476190) "></path>
                <path d="M1.39285686,10.2857143 C1.17599971,10.2857143 0.999999714,10.4953917 0.999999714,10.7537442 L0.999999714,11.6748272 C0.999999714,11.9331797 1.17599971,12.1428571 1.39285686,12.1428571 C1.609714,12.1428571 1.785714,11.9341158 1.785714,11.6748272 L1.785714,10.7537442 C1.785714,10.4953917 1.609714,10.2857143 1.39285686,10.2857143 Z" id="Path" transform="translate(1.392857, 11.214286) scale(-1, 1) translate(-1.392857, -11.214286) "></path>
                <path d="M1.8003851,1.85610776 C1.96804618,1.90028318 2.12592703,1.99642969 2.25726155,2.13501925 C2.32362739,2.20431403 2.40396499,2.23809524 2.48360401,2.23809524 C2.58280348,2.23809524 2.68060578,2.18612415 2.75046456,2.08651291 C2.8748132,1.90374792 2.8573485,1.63089973 2.71064506,1.47585265 C2.49058989,1.24458133 2.22652368,1.08260478 1.94638996,1.00897907 C1.76266136,0.961338912 1.57194688,1.10772413 1.53142878,1.3424602 C1.49160928,1.57633009 1.61176638,1.80586905 1.8003851,1.85610776 Z" id="Path" transform="translate(2.178571, 1.619048) scale(-1, 1) translate(-2.178571, -1.619048) "></path>
                <path d="M1.39285686,7.80952381 C1.17599971,7.80952381 0.999999714,8.0190956 0.999999714,8.27731798 L0.999999714,9.1988725 C0.999999714,9.45709488 1.17599971,9.66666667 1.39285686,9.66666667 C1.609714,9.66666667 1.785714,9.45709488 1.785714,9.19793691 L1.785714,8.27731798 C1.785714,8.0190956 1.609714,7.80952381 1.39285686,7.80952381 Z" id="Path" transform="translate(1.392857, 8.738095) scale(-1, 1) translate(-1.392857, -8.738095) "></path>
                <path d="M1.39285686,5.02380952 C1.17599971,5.02380952 0.999999714,5.23348694 0.999999714,5.49183948 L0.999999714,6.41292243 C0.999999714,6.67127496 1.17599971,6.88095238 1.39285686,6.88095238 C1.609714,6.88095238 1.785714,6.67127496 1.785714,6.41292243 L1.785714,5.49183948 C1.785714,5.23348694 1.609714,5.02380952 1.39285686,5.02380952 Z" id="Path" transform="translate(1.392857, 5.952381) scale(-1, 1) translate(-1.392857, -5.952381) "></path>
                <path d="M8.98492704,1 L8.20554916,1 C7.98694316,1 7.80952381,1.208 7.80952381,1.46428571 C7.80952381,1.72057143 7.98694316,1.92857143 8.20554916,1.92857143 L8.98492704,1.92857143 C9.20353303,1.92857143 9.38095238,1.72057143 9.38095238,1.46428571 C9.38095238,1.208 9.20353303,1 8.98492704,1 Z" id="Path"></path>
            </g>
        </g>
    </g>
</svg>