<?xml version="1.0" encoding="UTF-8"?>
<svg width="20px" height="20px" viewBox="0 0 20 20" version="1.1" xmlns="http://www.w3.org/2000/svg" xmlns:xlink="http://www.w3.org/1999/xlink">
    <title>path-1</title>
    <g id="Page-1" stroke="none" stroke-width="1" fill="none" fill-rule="evenodd">
        <path d="M17.4474999,0.944469903 C16.8450271,0.339849139 16.0266399,0 15.1731316,0 C14.3196234,0 13.5012362,0.339849139 12.8987634,0.944469903 L0.927559366,12.9247399 C0.761769256,13.096529 0.658167873,13.3188203 0.633229361,13.5562663 L0.00710916697,18.8064985 C-0.0281493455,19.1110275 0.06884668,19.4160593 0.273513083,19.6442822 C0.478179485,19.872505 0.770869798,20.0020111 1.0774001,20.0000231 L1.20315928,20.0000231 L6.44490911,19.36845 C6.68368285,19.3405719 6.90611971,19.2331143 7.07638076,19.0633906 L19.055612,7.09382447 C19.6601803,6.49129945 20,5.67284128 20,4.81925903 C20,3.96567678 19.6601803,3.14721861 19.055612,2.54469359 L17.4474999,0.944469903 Z M5.61880433,17.7145574 L1.81818182,18.1818182 L2.38468804,14.3069512 L11.2061503,5.45454545 L14.5454545,8.77521244 L5.61880433,17.7145574 Z M17.8344844,5.61769463 L16.1794517,7.27272727 L12.7272727,3.82054827 L14.3823054,2.16551562 C14.6044389,1.94313484 14.905865,1.81818182 15.2201842,1.81818182 C15.5345033,1.81818182 15.8359294,1.94313484 16.0580629,2.16551562 L17.8344844,3.94193707 C18.0568652,4.16407058 18.1818182,4.46549673 18.1818182,4.77981585 C18.1818182,5.09413497 18.0568652,5.39556111 17.8344844,5.61769463 Z" id="path-1" fill="#000000" fill-rule="nonzero"></path>
    </g>
</svg>