<?xml version="1.0" encoding="UTF-8"?>
<svg width="36px" height="36px" viewBox="0 0 36 36" version="1.1" xmlns="http://www.w3.org/2000/svg" xmlns:xlink="http://www.w3.org/1999/xlink">
    <title>entity</title>
    <g id="Page-1" stroke="none" stroke-width="1" fill="none" fill-rule="evenodd">
        <g id="entity" fill="#000000" fill-rule="nonzero">
            <path d="M36,18.0048653 C36,18.0048653 35.9818443,18.4171876 35.948326,19.1897689 C35.9348256,19.3826818 35.9418086,19.5997669 35.9087559,19.8349812 C35.8743066,20.0701955 35.837064,20.3272578 35.7965628,20.6052383 C35.7514063,20.8822891 35.7225434,21.183977 35.6555068,21.4986807 C35.5800908,21.8119899 35.5000194,22.1448228 35.4152927,22.4962497 C35.047523,23.8894063 34.4623502,25.5758835 33.3883695,27.307916 C32.325096,29.0362297 30.8326027,30.8486814 28.7889204,32.3887307 C26.7447725,33.9078617 24.1582806,35.1545905 21.1844668,35.7161297 C20.8153005,35.7988731 20.4354269,35.8170022 20.0550879,35.8699952 L19.4801567,35.9369336 L19.1905963,35.969938 L18.8568103,35.9764459 C18.1161501,35.9806296 17.4257672,36.0452438 16.5603445,35.9406525 C16.1492804,35.8988159 15.7140086,35.883011 15.3099275,35.8118889 C14.9067774,35.7361183 14.5017651,35.6598828 14.0944253,35.5836474 C13.6805679,35.5222871 13.2876595,35.3819023 12.8817163,35.2689436 L12.2741979,35.0871871 C12.0688986,35.0314051 11.8691857,34.9593533 11.6745936,34.8738208 C10.0675796,34.2913633 8.54761997,33.4086124 7.11192148,32.3617694 C6.7669628,32.0828591 6.42293517,31.7983707 6.08076968,31.508304 C5.7269659,31.2298587 5.43740544,30.8835451 5.11199907,30.570236 L4.63622609,30.085397 C4.48027311,29.92084 4.34526904,29.7381538 4.19862668,29.5642997 C3.913256,29.2100838 3.61950576,28.8586569 3.35415293,28.4858469 C2.291345,26.9894935 1.46642356,25.3090593 0.8733367,23.5375145 C0.29235365,21.755743 0.05679482,19.8768178 0,18.0048653 L0.01862125,17.5781326 L0.03631144,17.269472 L0.07169182,16.6516858 L0.08938201,16.3430251 C0.09357179,16.2435472 0.10008923,16.138491 0.12243473,16.007868 L0.23183458,15.2696856 L0.34775187,14.5328977 L0.40827094,14.1656659 L0.49532529,13.8244658 C0.61077705,13.3703069 0.74159134,12.9207966 0.86681926,12.4712863 C1.46269931,10.7002063 2.28110331,9.0160534 3.34577336,7.51970001 C3.6097296,7.14596031 3.90766963,6.79685767 4.18791946,6.43892287 C4.33456182,6.26506883 4.47003142,6.08191778 4.6259844,5.91736074 L5.10222291,5.43205694 C5.42809481,5.11828293 5.71765527,4.7719694 6.07192458,4.49352402 C6.41641774,4.20764103 6.75997983,3.9222229 7.10214532,3.63773446 C8.54017147,2.5918211 10.0592001,1.70535142 11.6680762,1.12335874 C13.2713659,0.54740912 14.9049152,0.15414569 16.5193777,0.06071076 C17.3200916,-0.04062662 18.1194088,0.01422573 18.8977771,0.01980393 L19.24646,0.02956579 L19.5169337,0.06257017 L20.0555534,0.12857892 C20.4205299,0.18110701 20.7538503,0.19598223 21.1379136,0.27872559 C21.5173216,0.36100411 21.894402,0.44281778 22.2686891,0.52370175 C22.4530395,0.56786253 22.6425108,0.59900751 22.8184816,0.6543247 L23.3408077,0.82585449 C23.6853008,0.94020769 24.0270008,1.05316633 24.3659076,1.16566013 C24.6959693,1.30232614 25.0171859,1.45154311 25.3370059,1.59192793 C25.9878186,1.84573624 26.573457,2.21017894 27.1586298,2.53139055 C27.4565698,2.68293178 27.7228537,2.88328229 27.9923963,3.06829274 C28.2614734,3.25283835 28.5277573,3.4350597 28.791248,3.6158865 C30.8349304,5.15733037 32.3269581,6.97117656 33.3893005,8.70041999 C34.4632812,10.4329174 35.0470575,12.1198594 35.4152927,13.513016 C35.4995539,13.8644429 35.5796252,14.1972758 35.6550413,14.5105849 C35.7220778,14.8252886 35.7509408,15.1265117 35.7960973,15.4035625 C35.8365985,15.6810782 35.873841,15.9381405 35.9082903,16.1733548 C35.9413431,16.4090339 35.9343601,16.6265839 35.9478605,16.8190319 C35.9818443,17.592543 36,18.0048653 36,18.0048653 Z M36,17.9922779 C36,17.9922779 35.9757654,17.572191 35.9306224,16.7846466 C35.9139908,16.5883532 35.9182675,16.3669304 35.8812028,16.1274904 C35.8427125,15.8880503 35.8013711,15.627274 35.7562281,15.3451615 C35.7063333,15.0639972 35.6730701,14.7577036 35.6003662,14.4390824 C35.5134066,14.123306 35.42122,13.7880899 35.3238063,13.4334342 C34.8956612,12.0356732 34.2394254,10.3477394 33.0333961,8.70058152 C31.8587294,7.04820809 30.2055474,5.40010191 28.0795526,4.15501365 C27.0032499,3.55996956 25.8480659,3.01091692 24.5873899,2.6567353 C24.2723397,2.56949378 23.9582399,2.4741919 23.638913,2.3921659 C23.3134087,2.33432098 22.9855284,2.27647605 22.6552722,2.21768285 L22.161551,2.12901891 C21.9966604,2.10151887 21.8336707,2.10151887 21.6702057,2.08634643 C21.3456517,2.06169121 21.0187218,2.03656186 20.689416,2.01143251 C20.3653372,1.98298419 19.9714057,2.01664804 19.6116877,2.0161739 L19.0576175,2.02755323 L18.7791569,2.03324289 C18.7135808,2.03229461 18.8290517,2.03466531 18.8052923,2.03656186 L18.7729794,2.04082911 L18.7083538,2.04936361 L18.5791024,2.0664326 C17.8900786,2.16552759 17.1934518,2.20914835 16.5129814,2.40212281 C15.1339834,2.67001119 13.8120081,3.23660695 12.5423035,3.87147869 C12.2334308,4.0478583 11.9231325,4.22518618 11.6114086,4.40298819 C11.3030111,4.58268677 11.0231248,4.81406646 10.7242311,5.01035989 L10.2818303,5.31570522 L9.8693664,5.66467132 C9.5989839,5.90268895 9.3119699,6.11984448 9.0534672,6.371138 C7.99854795,7.35876895 7.1118456,8.51282258 6.32778404,9.7256694 L5.79984925,10.674421 C5.60787296,10.982137 5.50380661,11.3353704 5.3427176,11.6582588 L5.11652771,12.1513631 C5.04619977,12.3177858 4.99868089,12.4936912 4.93785672,12.663907 C4.82761291,13.0086059 4.69218409,13.3452444 4.59762151,13.6942105 C4.51588904,14.0474438 4.43985882,14.4011513 4.34862257,14.7515398 L4.28209613,15.0142127 L4.24883292,15.2621872 L4.17660421,15.757188 L4.09724768,16.2512406 C4.07966569,16.3247321 4.07443862,16.4276202 4.07111229,16.5366721 L4.05733182,16.8519743 L4.02977087,17.4825788 L4.01599039,17.7978811 L4.00886256,17.9552951 L4.00411067,18.0340021 L4.00173473,18.0733557 C4.00220991,18.0330539 3.99698284,18.2193904 4.0026851,17.9927521 C4.0240686,19.4483579 4.2198464,20.891162 4.59144406,22.2927161 C4.68600664,22.6421563 4.82191064,22.9787948 4.93215445,23.3234937 C4.99297862,23.4937095 5.04097269,23.6696149 5.11130064,23.8360376 L5.33654014,24.329616 C5.49240208,24.6553493 5.60074513,25.0071602 5.79177104,25.3153504 L6.32018102,26.2645761 C7.0990155,27.4831126 7.99332088,28.6319507 9.0444386,29.6247972 C9.3034165,29.8760907 9.5904305,30.0932462 9.8612882,30.3312639 L10.2742272,30.68023 L10.7171032,30.9855753 C11.0155218,31.1832912 11.295408,31.415145 11.604756,31.5948436 C11.9164798,31.7726456 12.2272533,31.9499735 12.5366013,32.1263531 C12.8392965,32.3231206 13.1809573,32.4274311 13.499809,32.5872159 C13.8253134,32.7294575 14.1417891,32.9029923 14.4820243,32.9997166 C14.818458,33.1149323 15.1534661,33.2291997 15.4870487,33.342993 C15.8211064,33.4539415 16.1432845,33.5042002 16.4725903,33.5909676 C17.0870095,33.7810972 17.8948305,33.8346749 18.6223446,33.9323474 L18.7610997,33.9494164 L18.8304773,33.9579509 L18.8651661,33.9622182 C18.8898759,33.9645889 18.7739298,33.9603216 18.8385555,33.9622182 L19.0975334,33.9679078 L19.6145388,33.9807096 C19.9581004,33.9807096 20.3049882,34.0176924 20.6437978,33.9892441 C23.3732825,33.8749766 25.9587849,33.0755788 28.0838293,31.8352319 C30.2098241,30.5891953 31.8625309,28.9391926 33.0357721,27.2858709 C34.2413261,25.6382389 34.8966115,23.9493568 35.3247567,22.55207 C35.4221704,22.1974142 35.514357,21.8621981 35.6008414,21.5464217 C35.6735453,21.2273264 35.7068085,20.9215069 35.7562281,20.6403427 C35.8013711,20.3582301 35.8431877,20.0969797 35.8812028,19.8580138 C35.9182675,19.6185737 35.9139908,19.3966768 35.9306224,19.2003834 C35.9757654,18.4123648 36,17.9922779 36,17.9922779 Z" id="Shape"></path>
        </g>
    </g>
</svg>