<?xml version="1.0" encoding="UTF-8" standalone="no"?>
<!DOCTYPE svg PUBLIC "-//W3C//DTD SVG 1.1//EN" "http://www.w3.org/Graphics/SVG/1.1/DTD/svg11.dtd">
<svg width="100%" height="100%" viewBox="0 0 32 32" version="1.1" xmlns="http://www.w3.org/2000/svg" xmlns:xlink="http://www.w3.org/1999/xlink" xml:space="preserve" style="fill-rule:evenodd;clip-rule:evenodd;stroke-linejoin:round;stroke-miterlimit:1.41421;">
    <g id="Layer-5">
    <path d="M9.216,5.428l0,2.074c0,0.55 0.45,1 1,1l1.166,0c0.551,0 1.001,-0.45 1,-1l0,-2.074l8.052,0l0,2.074c0,0.55 0.45,1 1,1l1.166,0c0.55,0 1,-0.45 1,-1l0,-2.074l2.146,0c1.1,0 2,0.901 2,2l0,19.146c0,1.1 -0.9,2 -2,2l-19.146,0c-1.1,0 -2,-0.9 -2,-2l0,-19.146c0,-1.099 0.9,-1.999 2,-1.999l2.616,0ZM24.061,26c0.561,0 0.939,0.022 0.939,-0.667l0,-13.333l-18,0l0,13.333c0,0.689 0.352,0.667 0.914,0.667l16.147,0Z" style="fill:#000000;"/></g>
    <g id="Layer-51">
    <path d="M23.059,7.116c0,0.459 -0.284,0.835 -0.632,0.835l-0.736,0c-0.348,0 -0.632,-0.376 -0.632,-0.835l0,-3.342c0,-0.459 0.284,-0.835 0.632,-0.835l0.736,0c0.348,0 0.632,0.376 0.632,0.835l0,3.342Z" style="fill:#000000;fill-rule:nonzero;"/>
    <path d="M11.852,7.114c0,0.458 -0.284,0.833 -0.631,0.833l-0.737,0c-0.347,0 -0.632,-0.375 -0.632,-0.833l0,-3.334c0,-0.458 0.285,-0.833 0.632,-0.833l0.737,0c0.347,0 0.631,0.375 0.631,0.833l0,3.334Z" style="fill:#000000;fill-rule:nonzero;"/></g>
    <g id="Layer-7"><rect x="9" y="15" width="3" height="3" style="fill:#000000;fill-rule:nonzero;"/>
    <rect x="14" y="15" width="3" height="3" style="fill:#000000;fill-rule:nonzero;"/>
    <rect x="19" y="15" width="3" height="3" style="fill:#000000;fill-rule:nonzero;"/>
    <rect x="9" y="20" width="3" height="3" style="fill:#000000;fill-rule:nonzero;"/>
    <rect x="14" y="20" width="3" height="3" style="fill:#000000;fill-rule:nonzero;"/></g>
</svg>