<?xml version="1.0" encoding="UTF-8"?>
<svg width="19px" height="15px" viewBox="0 0 19 15" version="1.1" xmlns="http://www.w3.org/2000/svg" xmlns:xlink="http://www.w3.org/1999/xlink">
    <title>expand_media</title>
    <g id="Page-1" stroke="none" stroke-width="1" fill="none" fill-rule="evenodd">
        <g id="expand_media" transform="translate(1.000000, 1.000000)" fill="#000000" fill-rule="nonzero">
            <path d="M16.2,-0.5 L0.8,-0.5 C0.0820298252,-0.5 -0.5,0.0820298252 -0.5,0.8 L-0.5,12.2 C-0.5,12.9179702 0.0820298252,13.5 0.8,13.5 L16.2,13.5 C16.9179702,13.5 17.5,12.9179702 17.5,12.2 L17.5,0.8 C17.5,0.0820298252 16.9179702,-0.5 16.2,-0.5 Z M0.8,0.5 L16.2,0.5 C16.3656854,0.5 16.5,0.634314575 16.5,0.8 L16.5,12.2 C16.5,12.3656854 16.3656854,12.5 16.2,12.5 L0.8,12.5 C0.634314575,12.5 0.5,12.3656854 0.5,12.2 L0.5,0.8 C0.5,0.634314575 0.634314575,0.5 0.8,0.5 Z" id="Rectangle"></path>
            <polygon id="Path" transform="translate(13.136364, 3.058824) scale(-1, 1) translate(-13.136364, -3.058824) " points="12.2777785 4.58823529 11.5909098 4.58823529 11.5909098 1.52941176 14.6818189 1.52941176 14.6818189 2.20915033 12.2777785 2.20915033"></polygon>
            <polygon id="Path" transform="translate(4.636364, 9.941176) scale(-1, 1) translate(-4.636364, -9.941176) " points="6.18181891 11.4705882 3.09090982 11.4705882 3.09090982 10.7908497 5.49495022 10.7908497 5.49495022 8.41176471 6.18181891 8.41176471"></polygon>
            <polygon id="Rectangle" transform="translate(5.011100, 9.558824) scale(-1, 1) rotate(45.000000) translate(-5.011100, -9.558824) " points="3.10598169 9.24099593 6.92313449 9.20186991 6.91621794 9.87665109 3.09906515 9.91577711"></polygon>
            <polygon id="Rectangle" transform="translate(12.603706, 3.500153) scale(-1, 1) rotate(45.000000) translate(-12.603706, -3.500153) " points="10.6985883 3.18232539 14.515741 3.14319937 14.5088245 3.81798055 10.6916717 3.85710657"></polygon>
        </g>
    </g>
</svg>