<?xml version="1.0" encoding="UTF-8"?>
<svg width="20px" height="18px" viewBox="0 0 20 18" version="1.1" xmlns="http://www.w3.org/2000/svg" xmlns:xlink="http://www.w3.org/1999/xlink">
    <title>path-1</title>
    <g id="Page-1" stroke="none" stroke-width="1" fill="none" fill-rule="evenodd">
        <path d="M2,2.38709677 L2,15.0322581 C2,15.2460457 2.17330914,15.4193548 2.38709677,15.4193548 L17.6129032,15.4193548 C17.8266909,15.4193548 18,15.2460457 18,15.0322581 L18,3.6774194 C18,3.4636317 17.8266909,3.2903226 17.6129032,3.2903226 L8.3581807,3.2903226 C8.1166978,3.2903226 7.8828574,3.2056607 7.6973452,3.0510671 L6.5437295,2.0897208 C6.4741625,2.03174821 6.3864723,2 6.2959162,2 L2.38709677,2 C2.17330914,2 2,2.17330914 2,2.38709677 Z M1.11111111,0 L6.264389,0 C6.5243184,0 6.7760216,0.09112914 6.975705,0.25753192 L8.1788142,1.26012294 C8.2786559,1.34332433 8.4045075,1.38888889 8.5344722,1.38888889 L18.8888889,1.38888889 C19.5025386,1.38888889 20,1.88635028 20,2.5 L20,16.1111111 C20,16.7247608 19.5025386,17.2222222 18.8888889,17.2222222 L1.11111111,17.2222222 C0.49746139,17.2222222 0,16.7247608 0,16.1111111 L0,1.11111111 C0,0.49746139 0.49746139,0 1.11111111,0 Z" id="path-1" fill="#000000" fill-rule="nonzero"></path>
    </g>
</svg>