<?xml version="1.0" encoding="UTF-8"?>
<svg width="30px" height="27px" viewBox="0 0 30 27" version="1.1" xmlns="http://www.w3.org/2000/svg" xmlns:xlink="http://www.w3.org/1999/xlink">
    <title>Shape</title>
    <g id="Page-1" stroke="none" stroke-width="1" fill="none" fill-rule="evenodd">
        <path d="M0,0 L19,0 L19,4 L0,4 L0,0 Z M0,7 L19,7 L19,11 L0,11 L0,7 Z M25.8109345,9.01942795 C26.0353488,8.94474229 26.1849582,9.09411361 26.4093725,9.31817058 L26.4093725,9.31817058 L29.7755858,12.6790252 C30.0748047,12.9777678 30.0748047,13.4258817 29.7755858,13.7246244 L29.7755858,13.7246244 L18.7044842,24.7781017 C18.6296795,24.8527873 18.48007,24.8527873 18.4052653,24.927473 L18.4052653,24.927473 L13.019324,26.9439858 C12.8697145,27.0186714 12.6453003,27.0186714 12.4956908,26.9439858 C12.1216671,26.7946144 11.8972529,26.3465005 12.0468623,25.9730722 L12.0468623,25.9730722 L14.0665903,20.5957049 C14.0665903,20.4463336 14.1413951,20.3716479 14.2161998,20.2969622 L14.2161998,20.2969622 L25.2873014,9.24348492 C25.4369108,9.09411361 25.5865203,9.01942795 25.8109345,9.01942795 Z M15.1351351,22 L14,25 L17,23.8648649 L15.1351351,22 Z M25.7317073,11 L16,20.7317073 L18.2682927,23 L28,13.2682927 L25.7317073,11 Z M12,15 L12,19 L0,19 L0,15 L12,15 Z" id="Shape" fill="#000000" fill-rule="nonzero"></path>
    </g>
</svg>