<?xml version="1.0" encoding="UTF-8"?>
<svg width="200px" height="200px" viewBox="0 0 200 200" version="1.1" xmlns="http://www.w3.org/2000/svg" xmlns:xlink="http://www.w3.org/1999/xlink">
    <title>Combined Shape</title>
    <g id="Page-1" stroke="none" stroke-width="1" fill="none" fill-rule="evenodd">
        <path d="M100,0 C155.228475,0 200,44.771525 200,100 C200,155.228475 155.228475,200 100,200 C44.771525,200 0,155.228475 0,100 C0,44.771525 44.771525,0 100,0 Z M94.589496,57.8249337 L84.0855173,57.8249337 L84.0855173,160 L94.589496,160 L94.589496,57.8249337 Z M115.915756,57.8249337 L105.411777,57.8249337 L105.411777,160 L115.915756,160 L115.915756,57.8249337 Z M73.5815385,40 L63.0775597,40 L63.0775597,117.665783 L73.5815385,117.665783 L73.5815385,40 Z M136.922441,57.8236605 L126.419735,57.8236605 L126.419735,117.665783 L136.922441,117.665783 L136.922441,57.8236605 Z" id="Combined-Shape" fill="#000000" fill-rule="nonzero"></path>
    </g>
</svg>