<?xml version="1.0" encoding="UTF-8"?>
<svg width="284px" height="284px" viewBox="0 0 284 284" version="1.1" xmlns="http://www.w3.org/2000/svg" xmlns:xlink="http://www.w3.org/1999/xlink">
    <title>Combined Shape</title>
    <g id="Page-1" stroke="none" stroke-width="1" fill="none" fill-rule="evenodd">
        <path d="M232.309,0.697 C260.475522,0.697 283.309,23.5304778 283.309,51.697 L283.309,232.309 C283.309,260.475522 260.475522,283.309 232.309,283.309 L51.697,283.309 C23.5304778,283.309 0.697,260.475522 0.697,232.309 L0.697,51.697 C0.697,23.5304778 23.5304778,0.697 51.697,0.697 L232.309,0.697 Z M137.173,79.568 L120.413,79.568 L120.413,234.351 L137.173,234.351 L137.173,79.568 Z M174.311,79.568 L157.551,79.568 L157.551,234.351 L174.311,234.351 L174.311,79.568 Z M211.439,79.568 L194.679,79.568 L194.679,154.495 L211.439,154.495 L211.439,79.568 Z M100.035,42.104 L83.275,42.104 L83.275,154.494 L100.035,154.494 L100.035,42.104 Z" id="Combined-Shape" fill="#000000" fill-rule="nonzero"></path>
    </g>
</svg>