<?xml version="1.0" encoding="UTF-8"?>
<svg width="88px" height="72px" viewBox="0 0 88 72" version="1.1" xmlns="http://www.w3.org/2000/svg" xmlns:xlink="http://www.w3.org/1999/xlink">
    <title>Combined Shape</title>
    <g id="Page-1" stroke="none" stroke-width="1" fill="none" fill-rule="evenodd">
        <g id="image_annotation" fill="#000000" fill-rule="nonzero">
            <path d="M81.084095,54 L81.7477148,54.5912409 L81.7460696,60.3054433 L87.3363802,60.3065693 L88,60.8978102 L88,65.1021897 L87.3363802,65.6934306 L81.7460696,65.6924924 L81.7477148,71.4087591 L81.084095,72 L76.9159049,72 L76.2522852,71.4087591 L76.2512981,65.6924924 L70.6636198,65.6934306 L70,65.1021897 L70,60.8978102 L70.6636198,60.3065693 L76.2512981,60.3054433 L76.2522852,54.5912409 L76.9159049,54 L81.084095,54 Z M44.0976,61.5 C44.9260271,61.5 45.5976,62.1715729 45.5976,63 C45.5976,63.7796961 45.0027119,64.4204487 44.24206,64.4931334 L44.0976,64.5 L40,64.5 C39.1715729,64.5 38.5,63.8284271 38.5,63 C38.5,62.2203039 39.0948881,61.5795513 39.85554,61.5068666 L40,61.5 L44.0976,61.5 Z M53.3172002,61.5 C54.1456273,61.5 54.8172002,62.1715729 54.8172002,63 C54.8172002,63.7796961 54.2223121,64.4204487 53.4616602,64.4931334 L53.3172002,64.5 L49.2196002,64.5 C48.3911731,64.5 47.7196002,63.8284271 47.7196002,63 C47.7196002,62.2203039 48.3144883,61.5795513 49.0751402,61.5068666 L49.2196002,61.5 L53.3172002,61.5 Z M62.5368004,61.5 C63.3652275,61.5 64.0368004,62.1715729 64.0368004,63 C64.0368004,63.7796961 63.4419123,64.4204487 62.6812604,64.4931334 L62.5368004,64.5 L58.4392004,64.5 C57.6107733,64.5 56.9392004,63.8284271 56.9392004,63 C56.9392004,62.2203039 57.5340885,61.5795513 58.2947404,61.5068666 L58.4392004,61.5 L62.5368004,61.5 Z M68.3162932,61.5 C68.7815972,61.5 69.1588006,62.1715729 69.1588006,63 C69.1588006,63.7766504 68.8272742,64.4154407 68.4024347,64.4922557 L68.3162932,64.5 L67.001308,64.5 C66.536004,64.5 66.1588006,63.8284271 66.1588006,63 C66.1588006,62.2233496 66.490327,61.5845593 66.9151665,61.5077443 L67.001308,61.5 L68.3162932,61.5 Z M33,56.9399986 C33.7796961,56.9399986 34.4204487,57.5348867 34.4931334,58.2955386 L34.5,58.4399986 L34.5,61.5 L35,61.5 C35.7796961,61.5 36.4204487,62.0948881 36.4931334,62.85554 L36.5,63 C36.5,63.7796961 35.9051119,64.4204487 35.14446,64.4931334 L35,64.5 L33,64.5 C32.2203039,64.5 31.5795513,63.9051119 31.5068666,63.14446 L31.5,63 L31.5,58.4399986 C31.5,57.6115715 32.1715729,56.9399986 33,56.9399986 Z M70.25,0 C71.9830314,0 73.3992459,1.35645476 73.4948552,3.06557609 L73.5,3.25 L73.500703,12.5856015 C74.0829319,12.7917181 74.5,13.3471533 74.5,14 C74.5,14.6528467 74.0829319,15.2082819 73.500703,15.4143985 L73.5,50.25 C73.5,51.9830314 72.1435452,53.3992459 70.4344239,53.4948552 L70.25,53.5 L34.4774741,53.5004203 C34.3541883,54.2047143 33.7396054,54.7399988 33,54.7399988 C32.2603946,54.7399988 31.6458117,54.2047143 31.5225259,53.5004203 L34.4774741,53.5004203 C34.4922799,53.4158392 34.5,53.3288206 34.5,53.2399988 L34.5,53.2399988 L34.5,49.079999 L34.4931334,48.935539 C34.4204487,48.174887 33.7796961,47.579999 33,47.579999 C32.1715729,47.579999 31.5,48.2515718 31.5,49.079999 L31.5,49.079999 L31.5,53.2399988 L31.5068666,53.3844588 C31.5106039,53.4235703 31.5158431,53.4622436 31.5225259,53.5004203 L3.25,53.5 C1.51696854,53.5 0.100754073,52.1435452 0.00514478917,50.4344239 L0,50.25 L0,3.25 C0,1.51696854 1.35645476,0.100754073 3.06557609,0.00514478917 L3.25,0 L70.25,0 Z M79,45.4024 C79.7796961,45.4024 80.4204487,45.9972881 80.4931334,46.75794 L80.5,46.9024 L80.5,51 C80.5,51.8284271 79.8284271,52.5 79,52.5 C78.2203039,52.5 77.5795513,51.9051119 77.5068666,51.14446 L77.5,51 L77.5,46.9024 C77.5,46.0739729 78.1715729,45.4024 79,45.4024 Z M70.25,2.5 L3.25,2.5 C2.87030424,2.5 2.55650904,2.78215388 2.50684662,3.14822944 L2.5,3.25 L2.5,30.901 L5.70530355,27.5765766 C7.94604429,25.5328662 11.4740792,25.4760965 13.6900643,27.4062674 L13.8767321,27.5765766 L22.9910178,36.2852853 L7.29910603,51 L11.51,51 L31.5,31.742 L31.5,30.3599997 C31.5,29.5315725 32.1715729,28.8599997 33,28.8599997 C33.4081222,28.8599997 33.7781757,29.0229912 34.0486176,29.2874313 L31.5,31.742 L31.5,34.5199995 L31.5068666,34.6644595 C31.5795513,35.4251114 32.2203039,36.0199995 33,36.0199995 C33.8284271,36.0199995 34.5,35.3484266 34.5,34.5199995 L34.5,34.5199995 L34.5,30.3599997 L34.4931334,30.2155397 C34.4584946,29.8530415 34.2948409,29.5281902 34.0486176,29.2874313 L45.3109137,18.4375 C46.6798691,17.1187201 48.5120049,16.3353847 50.3685186,16.2565814 L50.678088,16.25 C52.535956,16.25 54.393824,16.9639259 55.8128896,18.2226902 L56.0452623,18.4375 L71,32.844 L71,15.5 L73,15.5 L73.14446,15.4931334 C73.2682111,15.4813083 73.3875747,15.4544473 73.500703,15.4143985 L73.500703,12.5856015 C73.3441149,12.5301673 73.1755804,12.5 73,12.5 L73,12.5 L71,12.5 L71,15.5 L68.8400002,15.5 C68.011573,15.5 67.3400002,14.8284271 67.3400002,14 C67.3400002,13.2203039 67.9348882,12.5795513 68.6955402,12.5068666 L68.8400002,12.5 L71,12.5 L71,3.25 C71,2.87030424 70.7178461,2.55650904 70.3517706,2.50684662 L70.25,2.5 Z M33,38.2199993 C32.1715729,38.2199993 31.5,38.8915722 31.5,39.7199993 L31.5,39.7199993 L31.5,43.8799992 L31.5068666,44.0244592 C31.5795513,44.7851111 32.2203039,45.3799992 33,45.3799992 C33.8284271,45.3799992 34.5,44.7084263 34.5,43.8799992 L34.5,43.8799992 L34.5,39.7199993 L34.4931334,39.5755393 C34.4204487,38.8148874 33.7796961,38.2199993 33,38.2199993 Z M79,36.1827998 C79.7796961,36.1827998 80.4204487,36.7776879 80.4931334,37.5383398 L80.5,37.6827998 L80.5,41.7803998 C80.5,42.6088269 79.8284271,43.2803998 79,43.2803998 C78.2203039,43.2803998 77.5795513,42.6855117 77.5068666,41.9248598 L77.5,41.7803998 L77.5,37.6827998 C77.5,36.8543727 78.1715729,36.1827998 79,36.1827998 Z M79,26.9631996 C79.7796961,26.9631996 80.4204487,27.5580877 80.4931334,28.3187396 L80.5,28.4631996 L80.5,32.5607996 C80.5,33.3892267 79.8284271,34.0607996 79,34.0607996 C78.2203039,34.0607996 77.5795513,33.4659115 77.5068666,32.7052596 L77.5,32.5607996 L77.5,28.4631996 C77.5,27.6347725 78.1715729,26.9631996 79,26.9631996 Z M33,19.5 C33.7796961,19.5 34.4204487,20.0948881 34.4931334,20.85554 L34.5,21 L34.5,25.1599998 C34.5,25.988427 33.8284271,26.6599998 33,26.6599998 C32.2203039,26.6599998 31.5795513,26.0651118 31.5068666,25.3044598 L31.5,25.1599998 L31.5,21 C31.5,20.1715729 32.1715729,19.5 33,19.5 Z M79,19.5 C79.7796961,19.5 80.4204487,20.0948881 80.4931334,20.85554 L80.5,21 L80.5,23.3411994 C80.5,24.1696265 79.8284271,24.8411994 79,24.8411994 C78.2203039,24.8411994 77.5795513,24.2463113 77.5068666,23.4856594 L77.5,23.3411994 L77.5,21 C77.5,20.1715729 78.1715729,19.5 79,19.5 Z M16.75,7.25 C20.3611111,7.25 23.25,10.1388889 23.25,13.75 C23.25,17.3611111 20.3611111,20.25 16.75,20.25 C13.1388889,20.25 10.25,17.3611111 10.25,13.75 C10.25,10.1388889 13.1388889,7.25 16.75,7.25 Z M79,12.5 C79.7796961,12.5 80.4204487,13.0948881 80.4931334,13.85554 L80.5,14 L80.5,16 C80.5,16.8284271 79.8284271,17.5 79,17.5 C78.2203039,17.5 77.5795513,16.9051119 77.5068666,16.14446 L77.5,16 L77.5,15.5 L77,15.5 C76.2203039,15.5 75.5795513,14.9051119 75.5068666,14.14446 L75.5,14 C75.5,13.2203039 76.0948881,12.5795513 76.85554,12.5068666 L77,12.5 L79,12.5 Z M35,12.5 C35.8284271,12.5 36.5,13.1715729 36.5,14 C36.5,14.7796961 35.9051119,15.4204487 35.14446,15.4931334 L35,15.5 L34.5,15.5 L34.5,16 C34.5,16.7796961 33.9051119,17.4204487 33.14446,17.4931334 L33,17.5 C32.2203039,17.5 31.5795513,16.9051119 31.5068666,16.14446 L31.5,16 L31.5,14 C31.5,13.2203039 32.0948881,12.5795513 32.85554,12.5068666 L33,12.5 L35,12.5 Z M63.6400003,12.5 C64.4684275,12.5 65.1400003,13.1715729 65.1400003,14 C65.1400003,14.7796961 64.5451123,15.4204487 63.7844603,15.4931334 L63.6400003,15.5 L59.4800005,15.5 C58.6515734,15.5 57.9800005,14.8284271 57.9800005,14 C57.9800005,13.2203039 58.5748886,12.5795513 59.3355405,12.5068666 L59.4800005,12.5 L63.6400003,12.5 Z M54.2800007,12.5 C55.1084278,12.5 55.7800007,13.1715729 55.7800007,14 C55.7800007,14.7796961 55.1851126,15.4204487 54.4244607,15.4931334 L54.2800007,15.5 L50.1200008,15.5 C49.2915737,15.5 48.6200008,14.8284271 48.6200008,14 C48.6200008,13.2203039 49.2148889,12.5795513 49.9755408,12.5068666 L50.1200008,12.5 L54.2800007,12.5 Z M44.920001,12.5 C45.7484282,12.5 46.420001,13.1715729 46.420001,14 C46.420001,14.7796961 45.825113,15.4204487 45.064461,15.4931334 L44.920001,15.5 L40.7600012,15.5 C39.9315741,15.5 39.2600012,14.8284271 39.2600012,14 C39.2600012,13.2203039 39.8548893,12.5795513 40.6155412,12.5068666 L40.7600012,12.5 L44.920001,12.5 Z" id="Combined-Shape"></path>
        </g>
    </g>
</svg>