<?xml version="1.0" encoding="UTF-8"?>
<svg width="60px" height="41px" viewBox="0 0 60 41" version="1.1" xmlns="http://www.w3.org/2000/svg" xmlns:xlink="http://www.w3.org/1999/xlink">
    <title>Group 2</title>
    <g id="Page-1" stroke="none" stroke-width="1" fill="none" fill-rule="evenodd">
        <g id="Group-2">
            <path d="M52.9375,0 C54.0833333,0 55,0.917910448 55,2.06529851 L55,2.06529851 L55,18 L52.937,18 L52.9375,4.13059701 C52.9375,3.03309539 52.0988106,2.1455506 51.0231004,2.07044747 L50.875,2.06529851 L4.125,2.06529851 C2.97916667,2.06529851 2.0625,2.98320896 2.0625,4.13059701 L2.0625,4.13059701 L2.02,25.977 L4.55974904,23.2047575 C6.18428608,21.651959 8.73677836,21.600199 10.3541773,23.0494776 L10.5180824,23.2047575 L17.0528046,29.1749067 L8.004,38.994 L10.007,38.992 L33.9930556,11.8041045 C34.9995915,10.6811098 36.3444589,10.0110878 37.7092281,9.93614748 L37.9652778,9.92910448 C39.4166667,9.92910448 40.8680556,10.6109227 41.9375,11.8041045 L41.9375,11.8041045 L47.491,18 L30.1625,18 L30.0351704,18.0067512 C29.4500741,18.0692289 29,18.5578358 29,19.1585821 L29,19.1585821 L29,38.965 L10.007,38.992 L10,39 L29,39 L29,39.8414179 L29.0067741,39.9683184 C29.069463,40.5514428 29.5597222,41 30.1625,41 L30.1625,41 L2.0625,41 C0.916666667,41 0,40.0820896 0,38.9347015 L0,38.9347015 L0,2.06529851 C0,0.917910448 0.916666667,0 2.0625,0 L2.0625,0 Z M2.02,25.977 L2,26 L2,36 L2,36 L2.001,36.125 L2.02,25.977 Z M12.8333333,6.11940299 C15.5069444,6.11940299 17.6458333,8.26119403 17.6458333,10.9384328 C17.6458333,13.6156716 15.5069444,15.7574627 12.8333333,15.7574627 C10.1597222,15.7574627 8.02083333,13.6156716 8.02083333,10.9384328 C8.02083333,8.26119403 10.1597222,6.11940299 12.8333333,6.11940299 Z" id="Combined-Shape" fill="#000000" fill-rule="nonzero"></path>
            <path d="M60,19.1585821 C60,18.5149254 59.4833333,18 58.8375,18 L30.1625,18 C29.5166667,18 29,18.5149254 29,19.1585821 L29,39.8414179 C29,40.4850746 29.5166667,41 30.1625,41 L58.8375,41 C59.4833333,41 60,40.4850746 60,39.8414179 L60,19.1585821 Z" id="Path" fill-opacity="0" fill="#FFFFFF"></path>
            <path d="M58.875,19 C59.5,19 60,19.4925373 60,20.108209 L60,20.108209 L60,39.891791 C60,40.5074627 59.5,41 58.875,41 L58.875,41 L31.125,41 C30.5,41 30,40.5074627 30,39.891791 L30,39.891791 L30,20.108209 C30,19.4925373 30.5,19 31.125,19 L31.125,19 Z M57.9054054,21 L33.0945946,21 C32.4864865,21 32,21.473029 32,22.0643154 L32,22.0643154 L32,38.9356846 C32,39.526971 32.4864865,40 33.0945946,40 L33.0945946,40 L57.9054054,40 C58.5135135,40 59,39.526971 59,38.9356846 L59,38.9356846 L59,22.0643154 C59,21.473029 58.5135135,21 57.9054054,21 L57.9054054,21 Z" id="Combined-Shape" fill="#000000"></path>
            <polygon id="Path" fill="#000000" fill-rule="nonzero" points="42 26 50 30 42 34"></polygon>
        </g>
    </g>
</svg>