<?xml version="1.0" encoding="UTF-8"?>
<svg width="96px" height="82px" viewBox="0 0 96 82" version="1.1" xmlns="http://www.w3.org/2000/svg" xmlns:xlink="http://www.w3.org/1999/xlink">
    <title>image_upload</title>
    <g id="Page-1" stroke="none" stroke-width="1" fill="none" fill-rule="evenodd">
        <g id="image_upload" fill="#000000" fill-rule="nonzero">
            <path d="M65.45,14 C66.8666667,14 68,15.141791 68,16.5690299 L68,16.5690299 L68.0007629,24.0614369 C66.9870763,24.1239237 65.9861582,24.2336034 65.0001787,24.388306 L65,18.5767635 C65,17.1452282 63.8648649,16 62.4459459,16 L62.4459459,16 L4.55405405,16 C3.13513514,16 2,17.1452282 2,18.5767635 L2,18.5767635 L2,43.5 L5.28571429,40.5135135 C7.31932773,38.554849 10.5192783,38.4972412 12.5344203,40.3406902 L12.7142857,40.5135135 L21,48.8738739 L7.5,62 L11.011,62 L10,63 L38.7681965,63.0011314 C38.9187931,63.6758863 39.0906973,64.3426041 39.2831663,65.0005417 L2.55,65 C1.13333333,65 0,63.858209 0,62.4309701 L0,62.4309701 L0,16.5690299 C0,15.141791 1.13333333,14 2.55,14 L2.55,14 L65.45,14 Z M46.1962775,30 C47.4915591,30 48.7868408,30.3882231 49.9056809,31.094841 C42.6440669,36.9605864 38,45.9379532 38,56 C38,58.0510667 38.3080455,61.168815 38.6768172,63.1125771 L9.82962632,63.1125771 L41.2690355,32.0625 C42.5219026,30.8229167 44.1973637,30.0850694 45.8963023,30.0069123 L46.1962775,30 Z M15,21 C18.3333333,21 21,23.6666667 21,27 C21,30.3333333 18.3333333,33 15,33 C11.6666667,33 9,30.3333333 9,27 C9,23.6666667 11.6666667,21 15,21 Z M20.3747195,0.0502839138 L82.8571268,10.0650155 C84.2836658,10.2539727 85.2346918,11.5766731 84.949384,12.8993735 L82.7150558,26.6257131 C81.9195793,26.2809097 81.1073475,25.967473 80.2799207,25.6869632 L82.0012034,15.0723813 C82.1914086,13.6552023 81.2403826,12.3325019 79.9089463,12.1435447 L22.4669767,2.9791205 C21.0404377,2.7901633 19.7090013,3.7349493 19.5187961,5.05764969 L18.5677702,11.1042801 L16,11.1042801 L17.426539,2.12881311 C17.6167442,0.711634111 18.9481806,-0.233151885 20.3747195,0.0502839138 Z" id="Combined-Shape"></path>
            <path d="M70.5,31 C56.4167389,31 45,42.4167389 45,56.5 C45,70.5832611 56.4167389,82 70.5,82 C84.5832611,82 96,70.5832611 96,56.5 C96,42.4167389 84.5832611,31 70.5,31 Z M70.5,35 C82.3741221,35 92,44.6258779 92,56.5 C92,68.3741221 82.3741221,78 70.5,78 C58.6258779,78 49,68.3741221 49,56.5 C49,44.6258779 58.6258779,35 70.5,35 Z" id="Oval"></path>
            <path d="M81.440678,55.3495652 C80.6949153,56.1008696 79.5762712,56.1008696 78.8305085,55.3495652 L72.8644068,49.3391304 L72.8644068,68.1217391 C72.8644068,69.0608696 72.1186441,70 71,70 C69.8813559,70 69.1355932,69.0608696 69.1355932,68.1217391 L69.1355932,49.3391304 L63.1694915,55.3495652 C62.7966102,55.7252174 62.2372881,55.9130435 61.8644068,55.9130435 C61.3050847,55.9130435 60.9322034,55.7252174 60.559322,55.3495652 C59.8135593,54.5982609 59.8135593,53.4713043 60.559322,52.72 L69.6949153,43.5165217 C69.8813559,43.3286957 70.0677966,43.1408696 70.2542373,43.1408696 C70.6271186,42.9530435 71.1864407,42.9530435 71.7457627,43.1408696 C71.9322034,43.1408696 72.1186441,43.3286957 72.3050847,43.5165217 L81.440678,52.72 C82.1864407,53.4713043 82.1864407,54.5982609 81.440678,55.3495652 Z" id="Path"></path>
        </g>
    </g>
</svg>