<?xml version="1.0" encoding="UTF-8"?>
<svg width="74px" height="54px" viewBox="0 0 74 54" version="1.1" xmlns="http://www.w3.org/2000/svg" xmlns:xlink="http://www.w3.org/1999/xlink">
    <title>Combined-Shape</title>
    <g id="Page-1" stroke="none" stroke-width="1" fill="none" fill-rule="evenodd">
        <path d="M70.25,0 C72.0449254,0 73.5,1.45507456 73.5,3.25 L73.5,3.25 L73.5,50.25 C73.5,52.0449254 72.0449254,53.5 70.25,53.5 L70.25,53.5 L3.25,53.5 C1.45507456,53.5 0,52.0449254 0,50.25 L0,50.25 L0,3.25 C0,1.45507456 1.45507456,0 3.25,0 L3.25,0 L70.25,0 Z M70.25,2.5 L3.25,2.5 C2.83578644,2.5 2.5,2.83578644 2.5,3.25 L2.5,3.25 L2.5,30.901 L5.70530355,27.5765766 C7.94604429,25.5328662 11.4740792,25.4760965 13.6900643,27.4062674 L13.8767321,27.5765766 L22.9910178,36.2852853 L7.29910603,51 L11.51,51 L45.3109137,18.4375 C46.6798691,17.1187201 48.5120049,16.3353847 50.3685186,16.2565814 L50.678088,16.25 C52.6391709,16.25 54.6002538,17.0454545 56.0452623,18.4375 L56.0452623,18.4375 L71,32.844 L71,3.25 C71,2.87030424 70.7178461,2.55650904 70.3517706,2.50684662 L70.25,2.5 Z M16.75,7.25 C20.3611111,7.25 23.25,10.1388889 23.25,13.75 C23.25,17.3611111 20.3611111,20.25 16.75,20.25 C13.1388889,20.25 10.25,17.3611111 10.25,13.75 C10.25,10.1388889 13.1388889,7.25 16.75,7.25 Z" id="Combined-Shape" fill="#000000" fill-rule="nonzero"></path>
    </g>
</svg>