<?xml version="1.0" encoding="UTF-8"?>
<svg width="92px" height="69px" viewBox="0 0 92 69" version="1.1" xmlns="http://www.w3.org/2000/svg" xmlns:xlink="http://www.w3.org/1999/xlink">
    <title>images</title>
    <g id="Page-1" stroke="none" stroke-width="1" fill="none" fill-rule="evenodd">
        <g id="images" fill="#000000" fill-rule="nonzero">
            <path d="M91.944249,13.7593317 L83.878446,61.729266 C83.6689446,63.2409236 82.202435,64.2486953 80.6311747,63.9463638 L75.7078923,63.1401464 L75.7078923,60.4191628 L78.3266595,60.8222715 C79.8979199,61.0238258 81.3644295,60.0160541 81.5739309,58.6051737 L88.6969777,16.0772067 C88.9064791,14.5655491 87.8589722,13.1546687 86.3924625,12.9531143 L23.1230468,3.17772854 C21.5517865,2.97617419 20.0852768,3.98394592 19.8757755,5.39482634 L18.8282686,11.8445654 L16,11.8445654 L17.5712603,2.27073398 C17.7807617,0.759076385 19.2472713,-0.248695344 20.8185317,0.0536361747 L89.6397339,10.7360165 C91.2109942,10.9375709 92.2585011,12.3484513 91.944249,13.7593317 Z" id="Shape-path"></path>
            <path d="M70.25,15 C72.0449254,15 73.5,16.4550746 73.5,18.25 L73.5,18.25 L73.5,65.25 C73.5,67.0449254 72.0449254,68.5 70.25,68.5 L70.25,68.5 L3.25,68.5 C1.45507456,68.5 0,67.0449254 0,65.25 L0,65.25 L0,18.25 C0,16.4550746 1.45507456,15 3.25,15 L3.25,15 Z M70.25,17.5 L3.25,17.5 C2.83578644,17.5 2.5,17.8357864 2.5,18.25 L2.5,18.25 L2.5,45.901 L5.70530355,42.5765766 C7.94604429,40.5328662 11.4740792,40.4760965 13.6900643,42.4062674 L13.8767321,42.5765766 L22.9910178,51.2852853 L7.29910603,66 L11.51,66 L45.3109137,33.4375 C46.6798691,32.1187201 48.5120049,31.3353847 50.3685186,31.2565814 L50.678088,31.25 C52.6391709,31.25 54.6002538,32.0454545 56.0452623,33.4375 L56.0452623,33.4375 L71,47.844 L71,18.25 C71,17.8703042 70.7178461,17.556509 70.3517706,17.5068466 L70.25,17.5 Z M16.75,22.25 C20.3611111,22.25 23.25,25.1388889 23.25,28.75 C23.25,32.3611111 20.3611111,35.25 16.75,35.25 C13.1388889,35.25 10.25,32.3611111 10.25,28.75 C10.25,25.1388889 13.1388889,22.25 16.75,22.25 Z" id="Combined-Shape"></path>
        </g>
    </g>
</svg>