<?xml version="1.0" encoding="UTF-8"?>
<svg width="73px" height="67px" viewBox="0 0 73 67" version="1.1" xmlns="http://www.w3.org/2000/svg" xmlns:xlink="http://www.w3.org/1999/xlink">
    <title>individual_inf_no-image</title>
    <g id="Page-1" stroke="none" stroke-width="1" fill="none" fill-rule="evenodd">
        <g id="individual_inf_no-image" fill="#000000" fill-rule="nonzero">
            <g id="Group-2" transform="translate(0.000000, 4.000000)">
                <g id="noun_Influencer_1571638">
                    <path d="M44.7520249,45.0283071 L46.2596285,46.5302119 C52.0185445,41.6886685 53.4207293,33.8233497 49.6468419,27.5302119 L47.6889151,28.5525928 C50.9771044,34.0070724 49.7596436,40.8369279 44.7520249,45.0283071 Z" id="Path" transform="translate(48.252025, 37.030212) rotate(-3.000000) translate(-48.252025, -37.030212) "></path>
                    <path d="M33,22.9122049 L33,21 C27.1585495,21.0039614 21.9326802,24.6946813 19.8873937,30.260652 C17.8421072,35.8266227 19.4067823,42.0993479 23.8134331,46 L25.0475715,44.5533755 C21.2547581,41.1717967 19.9149169,35.7555405 21.6826045,30.9506261 C23.450292,26.1457116 27.9565805,22.9549554 33,22.9371467 L33,22.9122049 Z" id="Path"></path>
                    <path d="M61.8443626,35.0130434 C61.8443626,34.8654016 61.8443626,34.7177597 61.8443626,34.5793455 C61.8443626,34.4409313 61.8443626,34.5147522 61.8443626,34.4870694 C61.7783475,31.2204783 61.0064888,28.0053719 59.5803293,25.0564474 L57.6343834,25.9792088 C57.9876746,26.6902607 58.3000211,27.4204019 58.5699343,28.1661534 C59.2856047,30.2200733 59.6737993,32.3710929 59.720662,34.542435 L59.720662,34.6254836 C59.720662,34.7546702 59.720662,34.8930844 59.720662,35.022271 C59.7274694,40.9054971 57.2332015,46.5220483 52.8443626,50.5062081 L54.228978,52.0564474 C59.059108,47.6705283 61.8043668,41.488604 61.797585,35.0130434 L61.8443626,35.0130434 Z" id="Path" transform="translate(57.344363, 38.556447) rotate(-3.000000) translate(-57.344363, -38.556447) "></path>
                    <path d="M12.0290328,43.3247735 C9.0521438,36.7364094 9.57370643,29.0572311 13.4129163,22.9492952 C17.2521261,16.8413593 23.880405,13.1455998 31,13.1431851 L31,10.999993 C21.4320559,10.9947212 12.8614626,17.027634 9.48232123,26.1464788 C6.10317989,35.2653236 8.62223442,45.5629035 15.8067616,51.999993 L17.1971121,50.3879547 C15.008114,48.4280105 13.247443,46.0217127 12.0290328,43.3247735 L12.0290328,43.3247735 Z" id="Path"></path>
                    <path d="M6.65906682,17.4457073 C12.2131232,8.05737189 21.713022,2.49146997 32.5,2.5 L33,0 C21.4137105,0.00353952222 10.6774486,6.17396576 4.7118532,16.2579792 C-1.25374217,26.3419926 -1.57522196,38.8631486 3.86481093,49.2490053 C6.33386574,53.9318986 9.85563512,57.9578069 14.1443033,61 L15.4591221,59.0886936 C11.4662226,56.2594374 8.18671925,52.5141348 5.88684285,48.1568302 C0.811848407,38.4930116 1.10501044,26.8340427 6.65906682,17.4457073 Z" id="Path"></path>
                    <path d="M70.9897732,41.1077966 C71.6057065,38.5632729 71.9418623,35.9541958 71.9917772,33.3307317 C71.9917772,33.1569813 71.9917772,32.983231 71.9917772,32.8094807 C71.9917772,32.6357303 71.9917772,32.4237549 71.9917772,32.1735544 C71.9917772,32.1005793 71.9917772,32.0380292 71.9917772,31.965054 C71.9917772,31.8920789 71.9917772,31.6731535 71.9917772,31.5272032 C71.9917772,31.3812529 71.9917772,31.3708279 71.9917772,31.2978527 C71.9917772,31.2248776 71.9917772,30.9851021 71.9917772,30.8183018 C71.9917772,30.6515015 71.9917772,30.5993764 71.9917772,30.4951262 C71.9917772,30.390876 71.9917772,30.2240757 71.9917772,30.0885504 L71.9917772,29.7653748 L71.9917772,29.4734742 L71.9917772,29.1294486 L71.9917772,28.8792481 C71.9917772,28.6568477 71.9650571,28.4309722 71.9116169,28.2016218 L71.9116169,27.9931214 L71.8615167,27.6178207 L71.8615167,27.3884702 L71.8013964,27.0131695 L71.8013964,26.7942441 C71.7679963,26.5787937 71.7312562,26.3668183 71.691176,26.1583179 L71.691176,25.8976924 L71.6210357,25.5640917 L71.5609155,25.2721912 L71.4907752,24.9594406 L71.4106149,24.6154149 C71.1768139,23.628513 70.9029329,22.6520361 70.5889716,21.6859843 L68.4738262,22.6830467 C68.7410273,23.5100983 68.9089449,24.1184889 69.1160257,24.9594406 L69.1160257,25.1158159 L69.2062061,25.5223916 L69.2563063,25.7725921 L69.3264465,26.0853427 L69.3765467,26.3563932 L69.436667,26.6899939 L69.5168273,27.1486948 L69.5168273,27.4301703 L69.5168273,27.7429209 L69.5168273,27.9931214 L69.5168273,28.316297 L69.5168273,28.5664975 C69.5168273,28.7471978 69.5368674,28.9313732 69.5769475,29.1190236 L69.5769475,29.3900741 L69.5769475,29.6923997 L69.5769475,29.9843002 L69.5769475,30.2657758 C69.5769475,30.401301 69.5769475,30.5368263 69.5769475,30.6723515 C69.5769475,30.8078768 69.5769475,30.8600019 69.5769475,30.9538271 C69.5769475,31.0476523 69.5769475,31.2561527 69.5769475,31.4021029 L69.5769475,31.6106033 C69.5769475,31.7496036 69.5769475,31.8851289 69.5769475,32.0171791 C69.5769475,32.0797293 69.5769475,32.1422794 69.5769475,32.2048295 C69.5769475,32.2673796 69.5769475,32.6009803 69.5769475,32.7990556 C69.5936609,37.9407663 68.4108512,43.0098997 66.1300538,47.571309 C63.9445226,51.9739095 60.8184373,55.7969439 56.9917772,58.7469305 L58.3545027,60.6859843 C62.4923282,57.5244231 65.8760856,53.4153677 68.2442822,48.6763612 C69.4423511,46.2746231 70.3638843,43.7342093 70.9897732,41.1077966 Z" id="Path" transform="translate(64.491777, 41.185984) rotate(-3.000000) translate(-64.491777, -41.185984) "></path>
                </g>
                <g id="actor_no-image" transform="translate(21.000000, 30.000000)">
                    <g id="Group" transform="translate(-0.000000, 0.000000)">
                        <path d="M28.9561271,28.0529248 L28.9561271,28.0529248 C28.9561271,27.9192201 28.0786687,17 14.4780635,17 C0.7019667,17 0,28.0083565 0,28.1420613 L0,31.3509749 C0,32.2423398 0.7458396,33 1.623298,33 L27.376702,33 C28.2541604,33 29,32.2423398 29,31.3509749 L28.9561271,28.0529248 Z" id="Path"></path>
                        <path d="M14,16 C17.8414634,16 21,12.4198895 21,8 C21,3.5801105 17.8414634,0 14,0 C10.1585366,0 7,3.5801105 7,8 C7,12.4198895 10.1585366,16 14,16 Z" id="Path"></path>
                    </g>
                </g>
            </g>
            <path d="M58.9403341,0 C66.1050119,0 72,5.82201241 72,12.9875661 C72,20.1531199 66.1957041,25.8855629 58.9403341,25.8855629 L58.9403341,25.8855629 L50.052506,25.8855629 L39.5,31 L42,25 C36.7398568,23.298181 34,18.6304397 34,12.8979967 C34,5.73244299 39.8042959,0 47.0596659,0 L47.0596659,0 L58.9403341,0 Z M46,11 C44.8888889,11 44,12.1111111 44,13.5 C44,14.8888889 44.8888889,16 46,16 C47.1111111,16 48,14.8888889 48,13.5 C48,12.1111111 47.1111111,11 46,11 Z M54,11 C52.8888889,11 52,12.1111111 52,13.5 C52,14.8888889 52.8888889,16 54,16 C55.1111111,16 56,14.8888889 56,13.5 C56,12.1111111 55.1111111,11 54,11 Z M62,11 C60.8888889,11 60,12.1111111 60,13.5 C60,14.8888889 60.8888889,16 62,16 C63,16 63.8888889,14.8888889 64,13.5 C64,12.1111111 63.1111111,11 62,11 Z" id="Combined-Shape"></path>
        </g>
    </g>
</svg>