<?xml version="1.0" encoding="UTF-8"?>
<svg width="54px" height="53px" viewBox="0 0 54 53" version="1.1" xmlns="http://www.w3.org/2000/svg" xmlns:xlink="http://www.w3.org/1999/xlink">
    <title>influence_no-image</title>
    <g id="Page-1" stroke="none" stroke-width="1" fill="none" fill-rule="evenodd">
        <g id="influence_no-image" fill="#000000" fill-rule="nonzero">
            <g id="Group-2">
                <path d="M44.2965746,10.36376 C40.8786546,6.94496 36.6044946,4.53552 31.9343346,3.39504 L31.5163346,5.10488 C35.8732146,6.1688 39.8613746,8.41808 43.0513746,11.60808 C50.6000146,19.16112 53.0543346,30.3864 49.4243346,40.38936 L47.3017746,39.54016 L48.4827346,44.82016 L53.2056946,41.90208 L51.0584946,41.0432 C54.9516146,30.38552 52.3432946,18.414 44.2965746,10.36376 Z" id="Path"></path>
                <path d="M25.0078546,11.37136 C20.3068946,11.37136 15.8884146,13.20264 12.5646546,16.52728 C6.35537456,22.7392 6.35537456,32.846 12.5646546,39.0588 C15.2882546,41.78328 18.9094546,43.28368 22.7612146,43.28368 C26.6129746,43.28368 30.2341746,41.78328 32.9577746,39.0588 L31.7134546,37.81448 C29.3216146,40.20632 26.1430546,41.52368 22.7612146,41.52368 C19.3793746,41.52368 16.2008146,40.20632 13.8089746,37.81448 C8.28609456,32.28896 8.28609456,23.298 13.8089746,17.77248 C16.8000946,14.7796 20.7768146,13.13224 25.0078546,13.13224 C29.2380146,13.13224 33.2138546,14.78048 36.2058546,17.77248 C43.1050546,24.67432 43.1050546,35.90576 36.2058546,42.8076 C31.6448146,47.37128 25.2674546,49.38648 18.9543346,48.3208 L19.5263346,46.24048 L14.2463346,48.06208 L17.7865746,52.56944 L18.4861746,50.02536 C19.7516146,50.24976 21.0188146,50.36416 22.2772146,50.36416 C27.9144946,50.36416 33.3555346,48.1492 37.4510546,44.05104 C45.0366546,36.4628 45.0366546,24.11552 37.4510546,16.52728 C34.1272946,13.20264 29.7079346,11.37136 25.0078546,11.37136 Z" id="Path"></path>
                <path d="M6.03681456,40.2072 C-0.412705444,31.37992 0.523614556,19.35208 8.26409456,11.60808 C10.5864146,9.28576 13.2818546,7.49408 16.2800146,6.26032 L17.1353746,8.8 L20.2857746,4.21872 L15.0057746,2.4772 L15.7176946,4.59008 C12.4616946,5.9136 9.53569456,7.84784 7.01977456,10.36376 C-1.33846544,18.72552 -2.34958544,31.71344 4.61473456,41.2456 L6.03681456,40.2072 Z" id="Path"></path>
                <circle id="Oval" cx="26.4457746" cy="3.52" r="3.52"></circle>
                <circle id="Oval" cx="25.1257746" cy="27.72" r="6.6"></circle>
                <circle id="Oval" cx="44.9257746" cy="49.28" r="3.52"></circle>
                <circle id="Oval" cx="8.84577456" cy="44.88" r="3.52"></circle>
            </g>
        </g>
    </g>
</svg>