<svg id="Layer_1" data-name="Layer 1" xmlns="http://www.w3.org/2000/svg" viewBox="0 0 32 32"><defs>
    <style>.cls-1{fill:#000000;}</style>
    </defs><title>keywords</title>
    <path class="cls-1" d="M18.88,11.75l3.51,3.51a0.31,0.31,0,0,1,0,.42L21.11,17a0.31,0.31,0,0,1-.42,0l-3.51-3.51a5.61,5.61,0,0,1-7.05-.75,5.45,5.45,0,0,1-1.66-4,5.45,5.45,0,0,1,1.66-4,5.45,5.45,0,0,1,4-1.66,5.45,5.45,0,0,1,4,1.66,5.45,5.45,0,0,1,1.66,4A5.46,5.46,0,0,1,18.88,11.75ZM11.39,6A3.72,3.72,0,0,0,10.26,8.7a3.87,3.87,0,0,0,3.87,3.86A3.85,3.85,0,0,0,18,8.7a3.85,3.85,0,0,0-3.86-3.86A3.73,3.73,0,0,0,11.39,6Z" fill="#000000"/>
    <path d="M7.18,24.77V21.52H6.35V20.67l0.84-.28,0.45-1.5H8.52v1.57h1.59v1H8.52v3.25a0.68,0.68,0,0,0,.74.77,1.48,1.48,0,0,0,.87-0.25l0.36,1a2.85,2.85,0,0,1-1.58.34A1.6,1.6,0,0,1,7.18,24.77Z" fill="#000000"/>
    <path d="M16,26.07a3.22,3.22,0,0,1-2.12.64c-1.87,0-2.84-1-2.84-3.19s1.16-3.16,2.77-3.16a2.23,2.23,0,0,1,2.38,2.45,8.13,8.13,0,0,1-.07,1.08H12.37A1.5,1.5,0,0,0,14,25.61a2,2,0,0,0,1.38-.52ZM12.39,23H14.9V22.66a1.07,1.07,0,0,0-1.14-1.24A1.38,1.38,0,0,0,12.39,23Z" fill="#000000"/>
    <path d="M19.52,24.47h0L18.39,26.6H16.81l2-3.17-1.85-3h1.53l1.12,2h0l0.94-2h1.58l-1.8,3,1.9,3.16H20.71Z" fill="#000000"/>
    <path d="M23.31,24.77V21.52H22.47V20.67l0.84-.28,0.45-1.5h0.88v1.57h1.59v1H24.64v3.25a0.68,0.68,0,0,0,.74.77,1.48,1.48,0,0,0,.87-0.25l0.36,1a2.85,2.85,0,0,1-1.58.34A1.6,1.6,0,0,1,23.31,24.77Z" fill="#000000"/>
</svg>