<?xml version="1.0" encoding="UTF-8"?>
<svg width="115px" height="72px" viewBox="0 0 115 72" version="1.1" xmlns="http://www.w3.org/2000/svg" xmlns:xlink="http://www.w3.org/1999/xlink">
    <title>mail_2</title>
    <g id="Page-1" stroke="none" stroke-width="1" fill="none" fill-rule="evenodd">
        <g id="mail_2" fill="#000000" fill-rule="nonzero">
            <path d="M91,9.38485145 C90.998747,4.29010363 87.2540115,0.152746412 82.6307074,0.143796087 L8.36733031,3.94265038e-16 C3.7461814,-0.00891716979 0,4.11716577 0,9.21258069 L0,16.705046 L45.5,39 L91,16.705046 C91,7.2296906 91,9.38485145 91,9.38485145 L91,9.38485145 Z M0,55.5402703 C0,64.7600134 0,63.0389318 0,63.0389318 C0,67.9985704 3.74261972,72.0105636 8.36610242,72 L82.6323467,71.8296 C87.2536745,71.8189989 91,67.7953042 91,62.8293994 L91,23 L45.5002048,44.6935135 L0,23 L0,55.5402703 L0,55.5402703 Z" id="Combined-Shape"></path>
            <path d="M113,8 L97,8 C95.894,8 95,7.104 95,6 C95,4.896 95.894,4 97,4 L113,4 C114.106,4 115,4.896 115,6 C115,7.104 114.106,8 113,8 Z" id="Path"></path>
            <path d="M107,16 L97,16 C95.894,16 95,15.104 95,14 C95,12.896 95.894,12 97,12 L107,12 C108.106,12 109,12.896 109,14 C109,15.104 108.106,16 107,16 Z" id="Path"></path>
            <path d="M101,24 L97,24 C95.894,24 95,23.104 95,22 C95,20.896 95.894,20 97,20 L101,20 C102.106,20 103,20.896 103,22 C103,23.104 102.106,24 101,24 Z" id="Path"></path>
        </g>
    </g>
</svg>