<?xml version="1.0" encoding="UTF-8"?>
<svg width="63px" height="40px" viewBox="0 0 63 40" version="1.1" xmlns="http://www.w3.org/2000/svg" xmlns:xlink="http://www.w3.org/1999/xlink">
    <title>email</title>
    <g id="Page-1" stroke="none" stroke-width="1" fill="none" fill-rule="evenodd">
        <g id="email" fill="#000000" fill-rule="nonzero">
            <path d="M47.085,0.104 C47.069,0.101 47.055,0.1 47.039,0.097 C46.701,0.037 46.355,0 46,0 L6,0 C5.645,0 5.299,0.037 4.961,0.096 C4.945,0.099 4.93,0.1 4.915,0.103 C2.123,0.616 0,3.063 0,6 L0,34 C0,37.309 2.691,40 6,40 L46,40 C49.309,40 52,37.309 52,34 L52,6 C52,3.062 49.877,0.616 47.085,0.104 Z M49.216,3.644 C49.703,4.306 50,5.116 50,6 L50,30.586 L35.111,15.697 L49.216,3.644 Z M46,2 C46.309,2 46.594,2.038 46.859,2.098 C46.928,2.113 46.993,2.142 47.061,2.161 C47.263,2.219 47.464,2.28 47.638,2.361 L27.948,19.193 C26.908,20.234 25.151,20.289 23.994,19.14 L4.361,2.361 C4.534,2.28 4.735,2.219 4.936,2.161 C5.005,2.142 5.07,2.113 5.141,2.098 C5.406,2.038 5.691,2 6,2 L46,2 Z M2.784,3.644 L16.89,15.696 L2,30.586 L2,6 C2,5.117 2.297,4.307 2.784,3.644 Z M46,38 L6,38 C3.794,38 2,36.206 2,34 L2,33.345 C2.071,33.303 2.146,33.269 2.207,33.207 L18.415,16.999 L22.638,20.607 C23.536,21.506 24.73,22 26,22 C27.271,22 28.465,21.506 29.305,20.66 L33.587,17 L50,33.414 L50,34 C50,36.206 48.206,38 46,38 Z" id="Shape"></path>
            <path d="M62,3 L54,3 C53.447,3 53,2.552 53,2 C53,1.448 53.447,1 54,1 L62,1 C62.553,1 63,1.448 63,2 C63,2.552 62.553,3 62,3 Z" id="Path"></path>
            <path d="M59,7 L54,7 C53.447,7 53,6.552 53,6 C53,5.448 53.447,5 54,5 L59,5 C59.553,5 60,5.448 60,6 C60,6.552 59.553,7 59,7 Z" id="Path"></path>
            <path d="M56,11 L54,11 C53.447,11 53,10.552 53,10 C53,9.448 53.447,9 54,9 L56,9 C56.553,9 57,9.448 57,10 C57,10.552 56.553,11 56,11 Z" id="Path"></path>
        </g>
    </g>
</svg>