<?xml version="1.0" encoding="UTF-8"?>
<svg width="120px" height="88px" viewBox="0 0 120 88" version="1.1" xmlns="http://www.w3.org/2000/svg" xmlns:xlink="http://www.w3.org/1999/xlink">
    <title>mail-list (1)</title>
    <g id="Page-1" stroke="none" stroke-width="1" fill="none" fill-rule="evenodd">
        <g id="mail-list-(1)" fill="#000000" fill-rule="nonzero">
            <path d="M119.917625,11.4702232 C119.915975,5.38486388 114.984664,0.443048061 108.896397,0.432357455 L11.101559,0.260619262 C5.01612999,0.24995097 0.0829150303,5.17830036 0.0829150303,11.2644565 L0.0829150303,20.2137402 L60.0002697,46.8436758 L119.917625,20.2137402 C119.917625,8.89601764 119.917625,11.4702232 119.917625,11.4702232 L119.917625,11.4702232 Z M0.0823750549,67.5948236 C0.0823750549,78.9125461 0.0823750549,76.7998273 0.0823750549,76.7998273 C0.0823750549,82.8880461 5.01092197,87.81298 11.0994517,87.799987 L108.898506,87.5908376 C114.984198,87.5778242 119.917625,82.6385261 119.917625,76.5426152 L119.917625,27.6499202 L60.0002697,54.2798558 L0.0823750549,27.6499202 L0.0823750549,67.5948236 L0.0823750549,67.5948236 Z" id="Combined-Shape"></path>
        </g>
    </g>
</svg>