<?xml version="1.0" encoding="UTF-8"?>
<svg width="90px" height="76px" viewBox="0 0 90 76" version="1.1" xmlns="http://www.w3.org/2000/svg" xmlns:xlink="http://www.w3.org/1999/xlink">
    <title>Combined Shape</title>
    <g id="Page-1" stroke="none" stroke-width="1" fill="none" fill-rule="evenodd">
        <path d="M31.8966769,23 C33.026182,23.000925 33.3030929,23.1443007 34.0928356,23.8112292 C34.5164,24.1682811 35.1695089,24.1340559 35.8608754,24.1007557 C36.1423407,24.0868806 36.3427368,24.0693055 36.5467764,24.0517305 C37.0723606,24.0054802 37.6188954,23.960155 38.1699845,24.0202803 C39.0335094,24.1146308 39.3149748,24.4430075 39.6183015,24.8971848 C39.7321629,25.0673857 39.8396481,25.2292616 40.0336679,25.4040875 C40.1438857,25.503063 40.4426581,25.5752134 40.6831333,25.6334887 C41.0994106,25.7333892 41.531173,25.8379147 41.7771137,26.1736915 C42.2817474,26.86282 41.8071731,27.4631482 41.5512126,27.7850498 L41.4806186,27.8753534 L41.4806186,27.8753534 L41.4154899,27.9635758 L41.3152918,28.1078765 C41.0584205,28.4760284 40.8889947,28.7193047 40.8234106,29.162382 C40.7933512,29.360333 40.7824205,29.548109 40.7714898,29.7312599 C40.7478066,30.1077369 40.7232125,30.4962389 40.5692719,30.9115661 C40.4444798,31.2491928 40.2950937,31.5072691 40.150262,31.7570204 C40.0464204,31.9355464 39.9434897,32.1122223 39.8551332,32.3203484 C39.6929946,32.7051504 39.64745,33.0585022 39.6037273,33.400754 C39.505351,34.173133 39.4024203,34.9714121 37.9887172,35.3996893 C37.8876083,35.4302145 37.7773904,35.4718397 37.6671726,35.5134649 C37.4941033,35.5791403 37.3201231,35.6429656 37.1716478,35.6790408 C37.0987765,35.6956909 36.9840042,35.711416 36.851925,35.727141 C36.7307765,35.7419411 36.4793705,35.7715413 36.4074101,35.8020664 C36.2935487,35.8806918 36.2243209,36.0323926 36.123212,36.2728939 C36.0075288,36.5476203 35.8626971,36.8880221 35.5211129,37.1294483 C35.2833703,37.2977992 35.0711327,37.3005742 34.9445188,37.3014992 C34.868004,37.3782746 34.8361228,37.5910257 34.8169941,37.7177514 C34.7860238,37.9286525 34.7541426,38.1469536 34.6794495,38.3227045 C34.2544681,39.3326042 33.6710508,39.553726 32.8110248,39.5408914 L32.6563601,39.5363108 L32.2400829,39.5187357 L32.2154888,39.0960085 C32.1927165,38.7186066 31.9813898,38.3828298 31.7345383,37.9934028 C31.4157263,37.4883502 31.0550134,36.9157722 31.0459045,36.1239681 C31.0340629,35.0685376 31.2453897,34.1453828 31.4494293,33.2527532 C31.527766,32.9114264 31.6070135,32.5663996 31.6753303,32.2093478 C31.7655086,31.7283453 31.7691521,30.8412657 31.6516472,30.6488647 C31.6061026,30.5878144 31.6061026,30.5878144 31.3911323,30.6053895 C31.218063,30.6183395 30.9812312,30.6386896 30.7106966,30.5619142 C29.685944,30.2733127 29.6139836,29.3871581 29.6331123,28.6934045 C29.5447558,28.8173552 29.4454687,28.972756 29.3334291,29.158682 C29.2259439,29.3372079 29.1266568,29.5 29.0373894,29.6165593 C28.7632112,29.9745362 28.5236468,30.1854373 28.2503794,30.3362131 C28.7805181,30.8708658 29.0610726,31.6534199 29.158538,31.9743966 C29.2113697,32.1436724 29.216835,32.3194234 29.2213895,32.4738992 C29.2241221,32.5571496 29.2277657,32.6829502 29.2432508,32.7227254 C29.2414291,32.7153254 29.2897063,32.7504756 29.3215875,32.7736007 C29.409033,32.837981 29.5227123,32.9218975 29.6164539,33.0495037 L29.6823004,33.1537777 L29.8590133,33.4719793 C30.0320826,33.7800059 30.2115282,34.0982076 30.321746,34.3821841 C30.7207164,35.4089394 30.3654688,36.3820444 30.0530331,37.2404489 C29.8398846,37.8250519 29.6385776,38.3772798 29.6613499,38.9119326 C29.6823004,39.4151352 29.878142,39.964588 30.1832906,40.3799152 C30.2916866,40.528841 30.4046371,40.6620416 30.5139441,40.7915423 C30.9056273,41.2568197 31.310063,41.7387472 31.351964,42.5749516 C31.4348551,44.1557848 30.5139441,44.2371852 29.6230925,44.3148856 C29.091132,44.3611358 28.9217063,44.4758364 28.6129141,44.6830375 C28.4225379,44.8116132 28.2057458,44.9568389 27.8832903,45.1122397 C27.5581021,45.2694905 27.2447556,45.2648655 26.9951714,45.2630155 C26.8348545,45.2611655 26.6982209,45.2593155 26.5998446,45.2981657 C26.4340624,45.363841 26.3047159,45.4979667 26.1398446,45.6672426 C26.0323594,45.7791682 25.918498,45.8957188 25.7864188,46.0067194 C25.667092,46.1066199 25.5477653,46.2028204 25.4311712,46.2980959 C24.8964781,46.7291481 24.4355671,47.1028501 24.1568344,47.7281533 C24.0202007,48.0334049 23.892676,48.2803812 23.7660621,48.5236574 C23.6367156,48.7715587 23.5091908,49.016685 23.3762007,49.3247116 C23.3251908,49.4412622 23.2960423,49.592963 23.2659828,49.7529888 C23.2003987,50.0896906 23.1193294,50.5087177 22.7604382,50.748294 C22.5144976,50.9129448 22.2029728,50.94902 21.8149332,50.8639196 C21.1818638,50.7242439 20.9413885,50.2830166 20.7655865,49.9611149 C20.5815865,49.6225631 20.4968736,49.4690123 20.0186557,49.4680873 C19.3209131,49.4680873 19.1104972,49.6715884 18.6996853,50.4199173 C18.45921,50.8574445 18.3981803,51.2163464 18.5411902,51.3578721 C18.7261011,51.5410231 19.3455071,51.5798733 20.0277647,51.1719462 C20.1621717,51.0025675 20.3174506,50.7981072 20.6503394,50.7424191 L20.7838043,50.7288689 L21.1445173,50.7131438 L21.3030123,51.2579716 C21.3995668,51.5724733 21.4414678,51.7426741 21.3376262,52.1598513 C21.3130321,52.2551268 21.2793292,52.3420772 21.2410717,52.4216277 C21.5699034,52.4410528 21.9324381,52.5465033 22.2148144,52.9599805 C22.5746164,53.4872332 22.4161214,54.021886 22.3004382,54.412238 C22.2995273,54.415938 22.2986164,54.419638 22.2977055,54.423338 C22.7668145,54.3474877 23.1985769,54.1513866 23.6485571,53.9460356 C24.4947751,53.5621586 25.4530326,53.1246313 26.7209931,53.5473585 C27.4642803,53.7952598 28.1966369,54.1116114 28.7832508,54.4390631 C29.225033,54.6823394 30.0047559,55.3640679 30.2834886,55.8071452 C30.4091916,56.0087963 30.4583797,56.2298724 30.5011916,56.4250484 C30.5257856,56.542524 30.5613104,56.7025499 30.6013896,56.7497251 C30.7535084,56.924551 31.2080431,56.9661762 31.6088353,57.0013264 C31.9003205,57.0290766 32.2027363,57.0559017 32.4760037,57.1336021 C32.9642414,57.2714278 34.3524395,57.7422553 34.8953307,58.260258 C35.2469347,58.5951097 35.4063407,58.9225614 35.3844793,59.2574131 C35.3507763,59.7541407 34.9463406,60.0492172 34.5892713,60.3072936 C34.4216673,60.4303192 34.2476871,60.5551949 34.1429346,60.6809955 C33.8751326,61.0010472 33.8842415,61.4376494 33.8960831,61.9436271 C33.905192,62.3404541 33.9143009,62.7520813 33.7922415,63.1627834 C33.5463008,63.9925127 32.966974,64.3662146 32.5015086,64.6649912 C32.0934294,64.9286176 31.7709739,65.1367436 31.6434491,65.600171 C31.3546966,66.6574515 30.6305381,68.2595598 29.5711717,68.5074611 C29.5301816,69.1438644 29.1075281,69.4333909 28.7531914,69.6766672 C28.6174686,69.7691677 28.4671716,69.8709182 28.3168745,70.0059689 C28.1729537,70.1354696 28.0763992,70.20947 28.0080824,70.2612702 C27.9739239,70.2973454 27.9551368,70.3438269 27.9321226,70.4147632 L27.9069735,70.4943714 L27.8696269,70.611847 C27.7566764,70.9624239 27.6874487,71.2695255 27.6564784,71.5525769 C27.5535477,72.4812817 27.6255081,73.1287851 27.868716,73.4802869 C27.9352111,73.5755624 28.1401616,73.7281882 28.3059438,73.8502888 C28.6794092,74.1268653 29.0647162,74.4136168 29.1357657,74.836344 C29.1876865,75.1434456 29.0619835,75.4348221 28.7932706,75.6373981 C28.4662607,75.8834494 27.9097061,76 27.3877655,76 C27.0015476,76 26.6344585,75.9361747 26.3930723,75.814074 C26.0715277,75.6531232 25.8656663,75.3487966 25.6834881,75.0786952 C25.5696267,74.9084943 25.4621415,74.7503185 25.3501019,74.656893 C25.2362405,74.5625425 25.1469732,74.4977922 25.0722801,74.4450669 C24.7616662,74.2212158 24.6086365,74.069515 24.4528741,73.5635374 C24.202379,72.7523081 24.2406364,71.7949282 24.2770721,70.8708484 C24.2934681,70.4379461 24.3116859,70.017069 24.2934681,69.638742 C24.2388146,68.4649109 24.2588542,67.3160549 24.3535869,66.2226993 C24.3690721,66.0460234 24.3973097,65.8314222 24.4291909,65.593696 C24.5148147,64.9415676 24.6450721,63.9555125 24.4720028,63.5226103 C24.3472107,63.2118086 23.926379,62.9361572 23.5538245,62.6919559 C23.3361215,62.5495052 23.1311709,62.4126045 22.9754086,62.2757038 C22.0098639,61.4283994 21.4861015,60.573695 21.3740618,59.6662652 C21.2629331,58.7643856 21.1809529,57.6442048 21.5407549,56.9708013 C21.69925,56.6729497 21.9205965,56.5119989 22.0827352,56.3963733 C22.2396687,56.2829941 22.2661032,56.2572827 22.2733212,56.1905044 L22.2758441,56.153097 L22.2758441,56.143847 C22.1993293,56.1290469 22.1155273,56.1059218 22.0244381,56.0679966 C21.774854,55.965321 21.5553292,55.9005707 21.3540222,55.8422954 C20.862141,55.6979947 20.3984974,55.5610939 19.8729131,55.0292162 C19.7945765,54.9496658 19.7189725,54.8682654 19.6442795,54.7868649 C19.3646359,54.4834634 19.1442002,54.2429621 18.7643586,54.1273365 C18.5530318,54.0616612 18.300715,54.0699862 18.0347347,54.0755362 C17.5765565,54.0875613 17.0518831,54.1005114 16.5709326,53.7517846 C16.1920018,53.4770581 15.54618,52.7379793 15.3503384,52.4993281 C15.2437642,52.3709837 15.1628087,52.2389971 15.0986335,52.1064901 L15.0397245,51.9739253 L14.4631304,51.5585982 C13.53272,50.8894893 13.034286,49.7817112 12.6133832,48.7588753 L12.5174668,48.5245824 L12.4646351,48.3941568 C12.3252687,48.051905 12.1467341,47.7956787 11.9581796,47.5237272 C11.5874469,46.9890745 11.2039617,46.4359216 11.2048726,45.360141 C11.2057835,44.0595843 11.3834072,42.8293279 11.7495855,41.6009215 C11.8807538,41.1615442 11.8634469,40.7721172 11.7022192,40.5066408 C11.5858854,40.3155613 11.3912521,40.1822473 11.1229083,40.110194 L10.9826151,40.0792886 L10.6801992,40.0256383 L10.6118824,39.7222368 C10.5135061,39.2884095 10.5645161,38.7306316 10.6182586,38.1395536 C10.6893081,37.3505245 10.7794864,36.3690944 10.4032883,36.1285931 C10.2192883,36.0101925 9.5843971,36.0249926 9.2783377,36.0323926 C9.1644763,36.0351676 9.0560802,36.0370176 8.97136736,36.0360926 C8.50043661,36.0481177 8.35924847,36.1692933 8.04863458,36.4162696 C7.85461475,36.5716704 7.61049591,36.7649964 7.26708993,36.9314973 C6.16764427,37.463375 5.17750554,37.9138524 3.91409945,38.3837548 C2.94604478,38.7434789 2.30775103,38.8300429 1.99921819,38.6434468 L1.93815137,38.5992809 L0,37.8948898 L0,37.4087998 C0.93184169,37.3403494 1.7370695,37.2820741 2.68075278,37.0082727 C3.50237664,36.7686964 4.66011934,36.1646683 5.3569511,35.5153149 C5.33053526,35.4995899 5.30320852,35.4847898 5.2749709,35.4681397 C4.99897086,35.3108889 4.62095102,35.0972128 4.52075299,34.3840341 C4.44150546,33.8299562 4.59544607,33.0890273 5.11192137,32.6552001 C5.37243625,32.0733721 5.94174325,31.9614465 6.37806013,31.9170463 C6.08019871,31.5951446 5.95905018,31.1215421 6.07017891,30.6895649 C6.21045615,30.1502871 6.47552549,29.937536 6.94281267,29.9523361 C7.03481268,29.9569611 7.08217902,29.9588111 7.15869388,29.9208859 C7.24431765,29.8783357 7.26800083,29.8579856 7.26982261,29.8561356 C7.30625826,29.7062848 7.34087212,29.5943592 7.4046345,29.4482085 C7.58924179,29.0264063 7.64286066,28.9254551 7.87065094,28.7354193 L7.96483259,28.6591794 L8.07231775,28.5740789 C8.59334751,28.1532017 9.1398822,27.9672758 9.6681991,27.7878248 C9.9095853,27.7054994 10.1573477,27.622249 10.4096645,27.5112484 C10.4661398,27.4871983 10.5371893,27.4437231 10.6164368,27.3983978 C10.9543775,27.2022968 11.3752092,26.9590205 11.7896647,27.0727961 C12.1731499,27.1782467 12.3699024,27.4631482 12.5129123,27.6721992 C12.5648331,27.7471246 12.615843,27.826675 12.6841599,27.8932754 C12.9710906,28.1754019 13.4074075,28.3308027 13.8692293,28.4945285 C14.2618234,28.6332792 14.6680809,28.77758 15.0096651,29.0162312 C15.2328334,29.171632 15.3539819,29.3843831 15.4514473,29.554584 C15.4979028,29.6350594 15.5598434,29.745135 15.596279,29.7664101 C15.680081,29.8172854 15.8540612,29.8024853 16.0380612,29.7876852 C16.2366355,29.7710351 16.4607147,29.75161 16.6920811,29.8043353 C17.030629,29.8783357 17.3147764,30.0371282 17.5671903,30.2164763 L17.7150119,30.326038 L17.6794872,30.0864618 C17.5592495,29.2881826 17.9217842,28.5435538 18.6022199,28.1892769 C19.2762794,27.8396251 20.0687548,27.9709758 20.6234875,28.5222787 C20.7756063,28.6739794 20.8639628,28.8377053 20.9350123,28.970906 C21.0133489,29.1161317 21.0488737,29.174407 21.1089925,29.2058572 C21.1836856,29.2410074 21.4350915,29.2798576 22.2722006,29.1253818 C22.436161,29.0948566 22.5773491,29.0754315 22.7139828,29.0560064 C22.8417352,29.0379688 22.9500174,29.0214922 23.0430564,29.0046253 L23.1311709,28.9875561 L23.1020224,28.9875561 C22.76226,28.9949561 22.4070124,29.0005061 22.0581411,28.8987556 C21.3266955,28.6850795 20.4959627,27.7767248 20.3128736,26.9913957 C20.2390914,26.6759691 20.2901013,26.3790425 20.4595271,26.1329913 C20.8203008,25.6078969 21.6203183,25.4440888 22.4569622,25.3314629 L22.8442402,25.2819868 C23.2092799,25.2366616 23.6161636,25.186379 23.8305646,25.1162664 L23.9099829,25.0849608 L24.687884,24.7020088 L24.6250325,25.1608112 C24.6332305,25.1543362 24.6405177,25.1460111 24.6487157,25.1395361 C25.466696,24.4291324 26.0879238,25.0331605 26.3857852,25.3236121 C26.4522802,25.3883624 26.5096664,25.4429377 26.5597654,25.4873379 C26.7346565,24.4726076 27.2884783,24.0489554 28.3733498,23.5485278 C29.4755281,23.0388502 30.7161619,23.00185 31.8966769,23 Z M89.3309603,69.2039264 C89.6344496,69.4300812 89.784721,69.8198556 89.778828,70.3638264 C89.7778458,70.4906102 89.7326662,70.5994043 89.6727541,70.6927789 C89.7454343,70.7476043 89.8151681,70.8238459 89.8475796,70.9334967 C89.8731159,71.0311544 89.8966879,71.1048261 89.9173134,71.1690746 C90.0803529,71.6856327 90.0381198,71.937487 89.4615884,72.502874 C88.9761802,72.9765046 88.2129524,73.5706157 87.5630254,73.9867887 L87.3253776,74.1339299 L86.7645608,73.4169163 C86.8804564,73.3475279 87.0042093,73.2695731 87.132873,73.184765 C87.1004616,73.1984714 87.0690323,73.2121777 87.037603,73.2275974 C86.4465176,73.4970518 86.1297895,73.6751777 86.0328125,73.8874794 L86.0102574,73.9523207 L86.8745634,74.0439819 C86.8043385,74.5490977 86.3691138,74.9212584 85.7977248,74.9841929 L85.6635529,74.9931468 L85.3335451,75 L85.1980062,74.737866 C84.5026328,73.40321 85.8020382,72.8112669 86.5769671,72.4583283 C86.8794742,72.3195515 87.1937673,72.1764915 87.3469852,72.0334314 C87.641635,71.760161 87.7202083,71.1622214 87.7948529,70.5839847 C87.8447796,70.20706 87.8947064,69.8194272 88.0105656,69.48008 L88.0885205,69.2827379 L88.1926301,69.0548698 L88.4686187,69.015464 C88.8978252,68.9546421 89.1708673,69.0848524 89.3309603,69.2039264 Z M23.7857177,54.4958273 C23.4113069,54.6727287 23.0074782,54.8617978 22.5590767,54.9797321 C23.011044,55.1332338 22.9878662,55.6283703 22.9744944,55.9110381 C22.9477508,56.4782456 22.6205871,56.7216019 22.4048551,56.8825915 C22.2755943,56.9789981 22.1998207,57.0389012 22.1463334,57.1409237 C21.9742828,57.4741347 21.9537793,58.2004598 22.0857145,59.2983713 C22.1659454,59.9760251 22.5786887,60.6433831 23.3480137,61.3416286 C23.4728173,61.4558189 23.6386278,61.5643933 23.8124613,61.6832635 C24.2653201,61.9893309 24.8278277,62.3712132 25.0578229,62.9618203 C25.3190189,63.6347942 25.1835179,64.6924584 25.073869,65.5423336 C25.0453425,65.7660343 25.0194903,65.9691432 25.0052271,66.1357487 C24.9160816,67.1990288 24.8973611,68.319404 24.9490655,69.4650508 C24.967786,69.8740766 24.9508484,70.3270939 24.9330193,70.7950868 C24.9000355,71.649642 24.8661602,72.5332128 25.064063,73.1977628 C25.1416196,73.4598389 25.1416196,73.4598389 25.3306079,73.6002368 C25.4161875,73.6638838 25.5204876,73.7415706 25.6506399,73.852953 C25.8610231,74.0335983 26.0152447,74.2694667 26.1516372,74.4781916 C26.2675262,74.6560289 26.39857,74.8553939 26.5028701,74.9096811 C26.7934842,75.0613108 27.5619177,75.0051517 27.8427258,74.8656898 C27.7491231,74.7730272 27.5628092,74.6307573 27.44068,74.5371587 C27.2035531,74.3537055 26.9584032,74.1665083 26.8077475,73.9428076 C26.427988,73.3774721 26.3112075,72.5500605 26.4404683,71.3407666 C26.4697081,71.0599708 26.5274743,70.7647983 26.6155928,70.4456645 L26.6874012,70.2016717 L26.7230593,70.0865455 C26.8442971,69.6868795 26.8826296,69.585793 27.1375855,69.38362 C27.1928557,69.3396287 27.2695207,69.2778536 27.3845183,69.1711512 C27.5645921,69.0026737 27.7419915,68.8763156 27.9042361,68.7611893 C28.2760468,68.4969293 28.3594659,68.4379427 28.2986891,68.096869 L28.2786469,67.9964888 L28.111945,67.2308523 L28.8349143,67.4330253 C29.4000963,67.6024387 30.0900819,66.2209234 30.3682156,65.1698112 C30.5866218,64.3480155 31.1455636,63.9754931 31.5948566,63.6769136 C32.0075999,63.4026697 32.3338721,63.185521 32.4782877,62.6828965 C32.5567356,62.4114606 32.5487126,62.0876095 32.5415809,61.7450386 C32.5282091,61.1291598 32.5121629,60.4309143 32.9980055,59.8309473 C33.171839,59.6156705 33.397377,59.4462571 33.5970627,59.2955633 C33.737021,59.1916689 33.9687991,59.0175755 34,58.9333368 C33.9955427,58.9333368 33.9696906,58.850034 33.8038801,58.6862365 C33.4918711,58.3792331 32.4274748,57.9486795 31.8123714,57.7689702 C31.6242745,57.714683 31.3826905,57.6912834 31.1268431,57.6678838 C30.5661184,57.6164045 29.9305116,57.5565014 29.5418375,57.0931884 C29.3501749,56.8629358 29.289556,56.5755881 29.240526,56.3453356 C29.2137824,56.2180415 29.1852558,56.0860675 29.1478148,56.0252284 C28.9641752,55.720097 28.3214367,55.1397857 28.0076448,54.9600764 C27.4799039,54.6549449 26.8175535,54.3601094 26.1418312,54.1270489 C25.2343308,53.8153655 24.5630658,54.1307928 23.7857177,54.4958273 Z M29.0878739,73.297 L29.3514904,73.5279985 L29.366384,73.478073 C29.4406657,73.4981923 29.5631189,73.5329818 29.6687122,73.5409456 L29.7662768,73.5384307 L29.875,74.2858227 C29.8213831,74.2932742 29.7677662,74.297 29.7148939,74.297 C29.5680059,74.297 29.4253068,74.2705935 29.2927655,74.2378997 L29.1638312,74.2038554 L28.9590444,74.1472235 L28.9017041,73.9415604 C28.8048958,73.5928271 28.9955337,73.39238 29.0878739,73.297 Z M76.1785586,52.0064738 L76.2619117,52.0157647 L76.6547515,52.0649299 L76.6995409,52.4601062 C76.7154037,52.7588076 76.7032733,52.9972121 76.6911429,53.1975832 C76.6650157,53.6734646 76.6640826,53.7031492 77.153966,54.0009229 C77.312595,54.0964703 78.3427498,54.9118693 78.2662347,55.6845968 C78.2475724,55.8803297 78.1411977,56.236545 77.648515,56.4165079 C77.2629401,56.5655274 76.9948325,56.2682269 76.5931661,55.690234 L76.4979888,55.5519437 L76.5325139,58.0816289 C76.6687482,57.9749499 76.8469724,57.8766196 77.1007787,57.862705 C77.1670296,57.8580667 77.2267487,57.8608497 77.2846016,57.8682708 C77.3038859,57.8150859 77.3244144,57.7540675 77.3467399,57.6849409 L77.3816452,57.5751353 L77.5178794,57.1428532 L77.9573748,57.2625193 C77.9454776,57.2576492 77.973471,57.2559098 77.9968717,57.2553445 L78.017094,57.2550981 L78.4864489,57.2356176 L78.5097767,57.7012949 C78.5184858,57.8657971 78.5176563,58.0335976 78.5147533,58.2019478 L78.509,58.446 L78.5166541,58.3290007 C78.519488,58.287669 78.5229785,58.2471619 78.5274713,58.2084069 L78.5443018,58.0983265 L78.6161514,57.7291242 L78.9940614,57.7189201 L79.3486437,57.7132383 L79.3486437,57.7132383 L79.7060253,57.7124266 L79.9374369,57.7124266 L79.9393031,58.1873804 C80.1352565,58.2179926 80.3358754,58.2374731 80.5430261,58.2569537 C81.078632,58.310757 81.6338332,58.3645604 82.1974324,58.6159519 C82.647192,58.8144677 82.9896438,59.0807016 83.3199652,59.3358037 C83.4757948,59.4563974 83.6232264,59.5714252 83.7753235,59.6743937 C84.0723639,59.7571086 84.3830122,59.8649473 84.6764887,60.0451507 L84.8502677,60.1623345 L86,60.9953588 L84.4602272,60.9953588 C84.1190817,60.9166946 83.8286975,60.7940971 83.5723532,60.6522641 L83.3862161,60.5426685 L83.2322528,60.5027798 C82.8440785,60.4044496 82.4167135,60.2949876 82.0220075,60.0482343 C81.9697532,60.102656 81.9187431,60.1566655 81.8725714,60.2075142 L81.8073919,60.2810729 L81.6664921,60.4443383 L81.9604221,60.577919 C82.831948,60.9721677 83.2145237,61.8033367 83.5513768,62.5380308 C83.6213602,62.6901644 83.6894773,62.8395151 83.7613269,62.9814446 C83.9022267,63.2588102 84.1037787,63.5176229 84.3165281,63.7912779 C84.7560235,64.3562131 85.2561711,64.9962874 85.1983182,65.8896086 C85.1404653,66.8079762 84.6795083,67.3923919 84.2726718,67.9109449 C84.0079348,68.2480773 83.7555378,68.5695343 83.6083238,68.9752095 L83.5439119,69.1855278 L83.5065875,69.3320956 C83.3143666,70.104823 83.1034834,70.9554726 82.2431548,71.2495357 C82.2282251,71.3293131 82.1825026,71.5547306 82.1535762,71.6966602 C82.0639975,72.1354358 81.9622883,72.6335806 81.5526525,72.8784786 C81.448144,72.9406308 81.2960469,73 81.0963611,73 C81.0297992,73 80.9578459,72.9929912 80.8805013,72.9773243 L80.760441,72.9471243 L80.5355612,72.8803339 L80.4534474,72.6614099 C80.3125476,72.2838588 80.2602934,71.8840442 80.2089723,71.4972167 C80.1361896,70.9434132 80.0662063,70.420222 79.745216,70.1103889 C79.5526218,69.9233759 79.3170299,69.7666412 79.0632834,69.6102626 L78.6759494,69.374705 C78.284059,69.1337502 77.8751278,68.8564792 77.5608025,68.4517614 C77.4982841,68.5185518 77.421769,68.5825592 77.320993,68.6382178 C76.8926949,68.8729118 76.5390457,68.9313533 76.197527,68.9888673 C76.0640921,69.0111307 75.9250585,69.0343218 75.7710952,69.0695723 C75.5415498,69.122448 75.3353322,69.1883107 75.1356464,69.2504629 C74.706182,69.3843915 74.260286,69.521161 73.7085675,69.5290243 L73.4653772,69.5241179 L73.0445441,69.5 L73.0212163,69.0816317 C72.9447012,67.7448967 73.0874672,66.5 73.2526279,65.2356196 C73.2759557,65.0621502 73.270357,64.9137271 73.2666245,64.7857122 C73.2563603,64.3775489 73.2414305,63.8200348 74.1138896,63.5306099 C74.3546323,63.4508325 74.5897763,63.4693854 74.7978601,63.4851553 C74.8949037,63.4925765 75.0712617,63.5064911 75.1132517,63.4833 C75.1767033,63.4257861 75.2644157,63.1586246 75.3176031,62.9981422 C75.395238,62.7628917 75.4812335,62.5027061 75.6224095,62.2807543 L75.7393694,62.1224463 L75.8130852,62.039886 C76.1536708,61.6456373 76.2936375,61.5463793 76.8908287,61.4740231 C77.1175747,61.4434109 77.3247254,61.4916483 77.5113476,61.531537 C77.6009263,61.5510176 77.7334281,61.5834851 77.7866155,61.5723534 C77.8985888,61.5352476 77.9312477,61.5064907 77.9331139,61.505563 C77.9228497,61.5037077 77.9163179,61.3784758 77.9116524,61.2875667 C77.9053539,61.1762494 77.8990554,61.0529307 77.901811,60.9133058 L77.9079199,60.768086 L77.9303146,60.3664162 L78.3343518,60.3265275 C78.9143737,60.2716109 79.523658,60.2184755 80.1301953,60.2184161 L80.584083,60.2291248 L80.9974513,60.2486054 L80.9806553,60.0064903 L80.9696912,59.757186 L80.9696912,59.757186 L80.9657255,59.5009243 L80.1417883,59.470312 L79.5604599,59.4505996 L79.5604599,59.4505996 L78.973533,59.4239298 L78.5844256,59.402594 L78.5303051,59.0204047 L78.5159585,58.8582989 L78.5159585,58.8582989 L78.51,58.697 L78.5107098,58.8144677 L78.4883151,59.2309799 L78.0693482,59.2569539 C77.7875486,59.2764344 77.5822641,59.1669724 77.4366987,59.0510169 C77.2183507,59.144709 76.9542802,59.1790318 76.624892,59.1920188 C76.5101193,59.2439669 76.3757512,59.280145 76.2161892,59.280145 L76.1163463,59.2756228 L76.1163463,59.2756228 L76.0109047,59.2606645 L75.644192,59.1975847 L75.6208642,58.8283824 C75.6119064,58.6940595 75.6340025,58.5787348 75.64941,58.5142302 L75.655,58.489 L75.5635268,58.5998353 C75.236031,58.9413017 74.7655168,58.9753799 74.2916187,58.9818526 L74.1494874,58.9832461 L73.7644831,58.991623 C73.6548083,58.9958115 73.5394212,59 73.4251766,59 C73.0196082,59 72.6083276,58.9497382 72.3067219,58.6596859 C72.0690931,58.4293194 71.9685578,58.1068063 72.0085434,57.6994764 C72.1010815,56.7434555 73.0230356,56.504712 73.6331018,56.347644 C73.8945587,56.2803291 74.1644092,56.2107063 74.3167509,56.1130585 L74.3825465,56.0617801 L74.8281004,56.4397906 L74.9663364,56 C76.1556228,56.3120419 76.025384,57.2157068 75.9602646,57.6513089 C75.9154254,57.9543753 75.8375446,58.1881569 75.7345653,58.3685687 L76.289905,58.1428535 L76.3430924,58.2467496 C76.3458917,58.243039 76.3496241,58.2393284 76.3533566,58.2356179 L76.3898645,58.2010631 L76.3898645,58.2010631 L76.4298717,58.1651169 L75.6096669,54.6029639 C75.4641015,54.5346893 75.2886767,54.4978803 75.0757482,54.4887375 L74.9089004,54.4870084 L73.8871435,54.4981401 L74.5412545,53.7170639 C74.7314925,53.4906028 75.0146043,53.3479485 75.3112007,53.3158234 L75.4389075,53.3089005 L75.4519711,53.3089005 L75.4519711,53.1938726 L75.4530209,52.8200321 L75.4530209,52.8200321 L75.4659678,52.4489745 L75.4892956,52.0714234 L75.8653394,52.0139094 C75.9906096,51.9951247 76.0912106,51.9982555 76.1785586,52.0064738 Z M79.9635049,61 C79.5654206,61.0019382 79.1564796,61.0310105 78.7565858,61.0678354 C78.7565858,61.074619 78.7565858,61.0804334 78.7574906,61.0862479 C78.7764901,61.5058585 78.8036322,62.0805215 78.0038448,62.3673685 C77.7405663,62.4584618 77.4863353,62.4022553 77.2610558,62.3499251 C77.1533921,62.3247291 77.0330621,62.2937186 76.9643021,62.3043785 C76.7149339,62.3366003 76.6837629,62.340628 76.5622826,62.4885013 L76.503791,62.561184 L76.4332215,62.6493701 C76.345462,62.7588759 76.2685594,63.0069597 76.2016089,63.2279094 C76.0966594,63.5699938 75.9899004,63.9237072 75.7483357,64.1562858 C75.4289636,64.4683288 75.039022,64.4353801 74.7540298,64.4101841 C74.6391283,64.3995243 74.5088461,64.3888644 74.4527525,64.4101841 C74.2953282,64.4663906 74.258234,64.50903 74.258234,64.50903 C74.2528056,64.5342261 74.2555198,64.6660206 74.258234,64.7638975 C74.2627577,64.9422077 74.2663767,65.1466831 74.2374251,65.3879834 C74.1008098,66.5072681 73.9822893,67.6081403 74.0021935,68.7487446 C74.3034709,68.7128887 74.5767014,68.6198573 74.8797883,68.5190732 C75.0942109,68.4473615 75.3158715,68.3717734 75.5601504,68.3107215 C75.7293362,68.2690512 75.8840462,68.2390098 76.0315183,68.2138138 C76.3346052,68.1595454 76.5526468,68.1207823 76.830401,67.9560391 C76.9489215,67.7660999 77.1289642,67.4685931 77.5677616,67.4685931 L77.6405929,67.4710158 L77.6405929,67.4710158 L77.7188526,67.4792529 L77.9622269,67.5122016 L78.0707953,67.7486565 C78.3033127,68.2516078 78.7638237,68.5520218 79.2514769,68.8689102 C79.5979912,69.0947053 79.9553622,69.3272839 80.2638775,69.6490177 C80.8031007,70.2101136 80.8980981,70.988283 80.9822386,71.675359 C80.9967144,71.7848648 81.0093807,71.8953396 81.0247612,72 C81.039237,71.9331336 81.0509986,71.8682054 81.0609507,71.8168443 C81.0718076,71.7596688 81.0826644,71.7024932 81.094426,71.6433794 L81.0400287,71.6387763 L81.0400287,71.6387763 L80.9849528,71.6327196 L81.0817597,70.6568584 C81.2925634,70.6801163 81.4617492,70.6849617 81.5992692,70.6597657 L81.6462024,70.632147 L81.6462024,70.632147 L81.6951713,70.6074355 L81.7060281,70.6336006 C82.0526119,70.5226784 82.173322,70.1830311 82.3385664,69.4850835 L82.3809618,69.303057 L82.4171513,69.1470355 C82.5890513,68.4124747 82.9627077,67.9017708 83.2920319,67.4501806 C83.6503077,66.9588583 83.958823,66.5353713 83.9977267,65.8793058 C84.0302972,65.3182098 83.7082109,64.870496 83.3318403,64.3520395 C83.1074656,64.0409656 82.8749482,63.7202009 82.6994292,63.3441987 C82.6252408,63.1872082 82.5537666,63.0195577 82.4813876,62.848031 C82.3076781,62.4410184 82.1403018,62.0466038 81.9159271,61.7432825 C81.8073586,62.1677385 81.6065071,62.6280504 81.2337555,62.8519073 C81.0717253,62.9488151 80.7511793,63.0713514 80.3353334,62.8714928 L80.2077838,62.8015153 L79.9951707,62.6687517 L79.9797901,62.4061316 C79.9589812,62.073738 79.9607907,61.736499 79.9626001,61.3982909 C79.9635049,61.2655273 79.9644096,61.1327636 79.9635049,61 Z M88.5264539,71 C88.4624539,71.3569207 88.3714539,71.7045101 88.1824539,72 C88.3074539,71.9043546 88.4214539,71.811042 88.5224539,71.7247278 C88.7794539,71.5007776 88.8134539,71.433126 88.8174539,71.4175739 C88.8194539,71.3958009 88.7884539,71.3141524 88.7664539,71.248056 C88.7544539,71.2153966 88.7424539,71.1804044 88.7294539,71.1430793 C88.6624539,71.1026439 88.5894539,71.0559876 88.5264539,71 Z M64.8914285,3.55271368e-15 C75.5314285,3.55271368e-15 84,8.44700461 84,19.2764977 L84,19.2764977 L84,20.1428572 C83.7828572,20.5760368 83.7828572,20.7926267 83.7828572,21.2258065 C83.5427039,22.8227507 82.9484147,24.625748 82.0108691,26.6347986 C82.1459138,26.6469896 82.2826331,26.6582222 82.4201428,26.6694549 C82.754757,26.6963822 83.093993,26.7242379 83.4350776,26.7623075 C83.8214554,26.8068767 84.3640481,26.9155143 84.6163952,27.35285 C84.7467284,27.5794103 84.7735345,27.8440402 84.6977379,28.142097 C84.9362199,28.5125788 85.1451227,29.1133351 84.8678181,29.5311717 C84.6404283,29.8756549 84.2494288,29.9257953 83.9194363,29.91651 C83.9148146,30.23778 83.9462425,30.4439127 84.0839704,30.6556166 C84.1289554,30.7243275 84.1879083,30.7814834 84.2534343,30.8361633 L84.4238328,30.9715385 C84.5875527,31.1041092 84.7763075,31.2845769 84.8086598,31.5794999 C84.8465581,31.9258401 84.6367309,32.2303966 84.4490881,32.4569569 C84.2984193,32.6398765 84.1089278,32.6974451 83.9841408,32.7355146 C83.875992,32.768013 83.8750676,32.7707986 83.8556563,32.8023685 C83.8288502,32.8580801 83.8159093,33.0567846 83.8085145,33.1765644 C83.7983467,33.3362709 83.7854058,33.4904062 83.756751,33.6111146 C83.65877,34.0345224 83.3629784,35.0159743 82.7658492,35.0169028 C82.7621518,35.0169028 82.7584544,35.0159743 82.754757,35.0159743 C82.6946744,35.0141172 82.6281213,34.9983323 82.5643412,34.9732621 C82.5698873,35.0326877 82.5624925,35.0930419 82.5800551,35.151539 C82.6244239,35.3084599 82.7233292,35.4672379 82.8268562,35.6362296 C83.0237425,35.956571 83.2705436,36.3558371 83.2326453,36.9018104 C83.2049148,37.302005 83.0274399,37.7040568 82.855511,38.0921806 C82.7566057,38.3131698 82.6595491,38.5285878 82.6087099,38.7235782 C82.4887757,39.1852877 82.3527231,39.6057359 82.2075715,40.0295789 L82.0596468,40.4562075 L81.1343738,43.1721458 L80.9800076,40.8276179 C80.9642936,40.5945579 80.983705,40.3215713 81.004965,40.0402279 C81.0326954,39.685531 81.063199,39.2834793 80.9883267,39.0494908 C80.943958,38.912069 80.8478257,38.841501 80.6527881,38.7077933 C80.4679184,38.5805852 80.2359069,38.4218073 80.0732215,38.142321 C79.7520874,37.587372 79.8154245,36.8170824 79.909377,36.0503038 L79.9354936,35.8414338 L79.8467561,35.8395767 C79.2163503,35.8265774 78.83367,36.0939928 78.37242,36.438476 C78.1265432,36.6213956 77.8483143,36.8293854 77.5100027,36.9993056 C77.4110974,37.0485175 77.2816885,37.0958723 77.1402632,37.1450842 C76.9979135,37.1952246 76.704895,37.2973624 76.6355688,37.3772156 C76.6429636,37.3818583 76.6549801,37.4236419 76.6965758,37.4942099 C76.765902,37.5443503 77.3380738,37.8442642 77.5432792,37.9241174 C77.6449576,37.9631155 77.7956264,37.9826145 77.9416735,38.0021136 C78.2309946,38.0401831 78.5582141,38.0828953 78.7976204,38.304813 C79.056438,38.5415871 79.1544189,38.8897843 79.2413077,39.1961979 C79.2736599,39.3094781 79.3023147,39.4209012 79.3439104,39.5137538 C79.4021444,39.6437474 79.4686975,39.7830263 79.5370993,39.9278763 C79.7805496,40.4397262 80.0516004,41.010581 80.1434251,41.5384263 L80.1712025,41.761715 L80.204479,42.2519766 L79.7783543,42.263119 C79.8855788,42.3247731 80.0182413,42.3739478 80.1413201,42.3745123 L80.2312851,42.3652568 L80.3292661,42.7830935 L80.9929485,43.1080775 C80.8552205,43.394992 80.6426203,43.589054 80.4706915,43.7450463 C80.3043087,43.8982531 80.1989329,43.9985339 80.1712025,44.1164567 C80.1166659,44.3467311 80.2590156,44.7051421 80.3958192,45.0533393 C80.5917811,45.5473151 80.8117761,46.1072162 80.6296794,46.6569035 C80.3699374,47.4405794 79.6831464,47.5018621 79.2736599,47.5390032 C79.1082015,47.5538596 78.9362727,47.568716 78.8503082,47.6179279 C78.6894716,47.7079949 78.5600628,47.8992712 78.4103183,48.1211889 C78.2593413,48.3432613 78.0923167,48.5904814 77.8514725,48.7886959 L77.6976454,48.9011507 L77.0487527,49.3171303 L76.9785022,48.5483108 C76.9479987,48.2112559 76.9600152,47.9475545 77.00993,47.7209942 C76.9997622,47.7321365 76.9932918,47.7460644 76.9812752,47.7562782 C76.8465257,47.8858592 76.6204825,48.0227766 76.2745809,47.9948674 L76.1391936,47.9763389 L75.8443264,47.9187702 C76.0578509,48.8129407 76.2159145,49.8036778 75.4810573,50.7823441 C75.0900578,51.3041757 74.5964557,51.5279504 74.1601631,51.726655 C73.9780664,51.8092938 73.7922723,51.8928611 73.6120243,52.0024272 C73.5611851,52.2011317 73.412365,52.621754 72.8485123,52.621754 C72.7477583,52.6198969 72.6497774,52.6087546 72.5684347,52.5855414 L72.6021734,52.660636 L72.6021734,52.660636 L72.6414582,52.7406053 L72.7366661,52.9253819 C72.9982568,53.4249289 73.2681666,53.9430463 72.9714507,54.7443642 C72.8337227,55.114846 72.5933921,55.6199641 72.1044116,55.7267446 C71.6976982,55.8177401 71.3695544,55.5902513 71.0885524,55.3339781 C71.0922498,55.436116 71.103342,55.52804 71.1255264,55.5958224 C71.1597273,55.7016744 71.2530865,55.8019552 71.3621597,55.9180209 C71.518259,56.0845752 71.7238977,56.3051582 71.8050689,56.630155 L71.8317288,56.7759789 L72.0267663,58.3999707 L71.0044367,57.1278902 C70.9184723,57.0220382 70.6189833,56.8957587 70.3786527,56.7945494 C70.3213431,56.7713362 70.2621847,56.7434805 70.2048751,56.7193388 C70.2751256,56.8233337 70.33983,56.9356853 70.4054588,57.0508225 C70.5505815,57.302453 70.6994017,57.5633688 70.9212453,57.7462884 C71.0062854,57.8159279 71.1144342,57.8837103 71.2272047,57.9561353 C71.6465328,58.2270464 72.3336085,58.6673926 72.2249549,59.4188374 L72.1949978,59.5634136 L72.023069,60.2003824 L71.1024177,59.57827 C70.3129661,59.0603267 69.4243999,58.4787285 69.0338445,57.3728963 L68.9625505,57.1446036 L69.4376657,57.012753 L69.8554713,56.5577753 C69.555058,56.4008544 69.274056,56.2040069 69.1030515,55.902236 C68.9089383,55.5623955 68.9643992,55.167772 69.0124653,54.8186462 C69.0364984,54.6533686 69.0651532,54.4472359 69.0411201,54.3590259 C68.9986001,54.2048906 68.9708696,54.1640355 68.9699453,54.1621784 C68.8229739,54.1027528 68.6584398,54.0256851 68.4532344,53.8381229 C68.1371071,53.5474943 68.0372775,53.2178676 67.9577835,52.9532377 C67.8708947,52.6681803 67.8237529,52.5372581 67.6120771,52.4072645 C67.2959499,52.2132026 66.9308321,52.1407775 66.7441137,52.2345587 C66.7125703,52.2483705 66.6251183,52.2920402 66.5851709,52.4831334 L66.5712605,52.5743991 L66.5398326,52.8687418 L66.262528,52.9680941 C65.7467415,53.1537993 65.6617014,53.3060775 65.6506092,53.3348619 C65.6090135,53.4369997 65.7393467,53.7044152 65.8437981,53.9189046 C66.097994,54.4388792 66.5231944,55.3089079 65.6903562,56.1510809 C65.4185977,56.4268531 65.1375957,56.5540612 64.8778537,56.5354906 C64.4655942,56.5122775 64.2187931,56.1993643 63.9803112,55.8975934 C63.8749354,55.7648141 63.7603162,55.6171785 63.6170421,55.4816137 C63.3434349,55.2262691 63.1206669,54.952354 62.906218,54.6886526 C62.7315161,54.4732346 62.5586629,54.2587451 62.3553062,54.057255 C61.840444,53.5474943 61.7674205,53.4602128 61.4956619,52.8056021 C61.4174004,52.6168018 61.3239385,52.4329537 61.2256837,52.2513065 L61.0760076,51.9801426 L60.9604641,51.7730813 C60.7081169,51.3118029 60.68531,51.279655 60.194143,51.2863371 L60.072165,51.2883908 L59.732929,51.2930334 C59.5933524,51.2930334 59.5406645,51.2893193 59.451927,51.2828196 C59.6016715,51.5808764 59.6025959,52.0033557 59.3484,52.6561094 C59.1505894,53.1658701 58.7928664,53.8938344 57.9785153,54.3376698 C57.3897052,54.6589398 56.7971977,54.8232889 56.2268745,54.8427879 L56.3857469,54.9463186 L56.3857469,54.9463186 L56.53838,55.0414925 L56.3313259,55.3989749 L56.676108,55.4964702 C56.6095549,55.7341728 56.5892192,56.0062309 56.5670348,56.2940739 C56.5365313,56.6896259 56.5051035,57.1000344 56.3516616,57.498372 C56.0678866,58.2356216 55.5225208,58.4055418 55.1241266,58.5290358 C54.8625359,58.6116746 54.6564061,58.6748143 54.4900234,58.8744474 C54.229357,59.1892177 54.3023806,59.7658323 54.3791015,60.3758738 C54.4844773,61.2087615 54.6148104,62.2449964 53.7791992,62.8810367 C53.6044973,63.0147444 53.402065,63.0518855 53.2236657,63.0853124 C53.142323,63.1010973 52.9916542,63.1280246 52.962075,63.1586659 C52.9269498,63.2088063 52.9398907,63.3638702 52.9519072,63.4994349 C52.9676211,63.6786404 52.9851837,63.8829161 52.9371176,64.0992627 C52.7855244,64.8021568 52.2503265,65.7260401 51.8242018,66.2376578 C51.7410104,66.3370101 51.6476512,66.4707178 51.5450485,66.6155679 C51.2002665,67.1039725 50.8074183,67.6583025 50.3175135,67.8607211 C50.0688637,67.964716 49.7712234,68 49.4578692,68 C49.0853567,68 48.6878868,67.9498596 48.3181473,67.9034333 C48.1060093,67.8762739 47.9037502,67.8501591 47.7285284,67.8384075 L47.5629544,67.8319368 L47.5648031,67.2841065 L47.0970827,67.2841065 L47.1007801,66.977693 C47.1118723,66.4493617 47.1192671,66.0333821 46.8502816,65.6907561 C46.7615441,65.5774759 46.6765041,65.5050509 46.5997831,65.4372685 C46.4435682,65.3007752 46.2688663,65.1447828 46.1145001,64.8327981 C45.9673746,64.5325748 45.9139678,64.2574989 45.8777855,63.9914505 L45.8575311,63.8327757 L45.8353468,63.6674981 C45.6957701,62.6349773 45.8270276,61.762163 46.0128217,60.7296422 C46.1662636,59.8679701 46.1006348,59.1966459 45.8353468,58.9357301 C45.7891293,58.8893038 45.7179545,58.8651621 45.5950161,58.8261641 C45.3814916,58.7555961 45.0570452,58.6488156 44.8388989,58.2801908 C44.6706674,57.9969904 44.6549535,57.7100759 44.6420126,57.4798015 C44.6262987,57.1966011 44.6133578,57.0777498 44.4451264,56.9431135 C44.1308478,56.6896259 43.5540543,56.7249099 42.9975964,56.7592654 C42.7323083,56.7750503 42.4762637,56.7899067 42.235933,56.7806215 C41.1544451,56.7341952 40.2532051,56.5679891 39.3732252,55.9059501 C38.8213891,55.4918275 38.2177894,54.969996 38.0532553,54.0182569 C37.9613487,53.4850178 38.0045855,52.8944753 38.0618897,52.3483721 L38.0911536,52.0794948 L38.1290519,51.7238694 C38.1392197,51.6235886 38.1447658,51.5028802 38.1503119,51.3719581 C38.174345,50.8278419 38.2048485,50.1509465 38.5440845,49.7340384 C38.8629847,49.3422005 39.1643224,49.3208444 39.4222157,49.3338437 C39.5220453,49.3394149 39.5507002,49.3403434 39.6209507,49.3013453 C39.7577543,49.217778 40.4205123,48.6216644 40.5314341,48.4963134 C40.6599186,48.3496063 40.7828569,48.1156177 40.8919301,47.8454167 C40.687649,47.8129183 40.5037036,47.7618494 40.3752192,47.6736394 C39.7972124,47.2766946 39.8366416,46.3280748 39.8956196,45.5798554 L39.9074987,45.4331064 L39.9463214,44.7840668 L40.2938765,44.7069991 C40.5499211,44.6503591 40.8641996,44.6420023 41.1951164,44.6345741 C41.5445202,44.6262174 42.0233329,44.6150751 42.2054295,44.5194369 C42.2692096,44.48601 42.3061835,44.4497975 42.3172757,44.4321555 C42.3052592,44.4405122 42.2396304,44.4210132 42.1952617,44.4061567 C41.9956024,44.3411599 41.6591395,44.2315939 41.4761184,43.8731829 C41.3134331,43.55377 41.3559531,43.3012109 41.4197332,43.1461471 C41.5842672,42.7440954 42.0224085,42.6001739 42.4078619,42.4729658 C42.556682,42.4237539 42.8062562,42.3411151 42.8644901,42.2835465 L42.8916429,42.2431557 L42.8916429,42.2431557 L42.9181024,42.1971936 L42.6916369,42.1860513 C42.2405548,42.1637667 41.869891,41.9799186 41.6258629,41.6800047 C41.469648,41.9130647 41.2718374,42.1182689 40.968651,42.1080551 C40.8364692,42.1015554 40.5905924,42.0384157 40.427907,41.7004323 C40.2532051,41.3373786 40.287406,40.9511119 40.5203419,40.6419127 C40.6922708,40.4134954 40.9575588,40.2500748 41.2459556,40.1785783 C41.2571711,39.6863358 41.3175044,39.0808543 41.9192074,38.7154394 L42.0566094,38.6409394 L42.4614741,39.4886836 C42.3397682,39.5474902 42.2713407,39.6146793 42.2321201,39.7364624 L42.2119,39.8164532 L42.5650012,39.8498801 C42.5400438,39.9938016 42.5178594,40.1210097 42.5039942,40.2370754 L42.7096617,40.2421823 L42.7096617,40.2421823 L42.9125563,40.2528604 L43.2869175,40.2797876 L43.3423784,40.6521265 C43.3941419,41.0003237 43.3285132,41.3819479 43.1889365,41.7487156 C43.2462461,41.6651483 43.3118749,41.5825095 43.4006124,41.5063703 C43.7093448,41.2417405 44.0883278,41.1498164 44.4284881,41.0727487 C44.4294124,41.0356077 44.4294124,40.9984667 44.4303368,40.9613256 C44.4386559,40.6084858 44.4469751,40.2463607 44.505209,39.8665936 C44.2574836,39.8526657 44.0319425,39.7644557 43.842451,39.6038208 C43.4449811,39.2667659 43.3026314,38.6771519 43.4717872,38.0671104 C43.6335482,37.4839961 44.001439,37.2769348 44.2695001,37.1255851 C44.4173959,37.0438748 44.5338638,36.9779495 44.6262987,36.853527 C44.7187336,36.7309616 44.7372205,36.5378282 44.7566319,36.3159105 C44.7677241,36.2035589 44.7778919,36.0912073 44.7963789,35.9816412 C44.9553668,35.0484727 45.6366118,34.1218038 46.6219675,33.5034056 C47.6295075,32.8692224 48.7562886,32.6668037 49.7055947,32.94629 C50.0411332,33.0447138 50.6659929,33.2629174 51.0070776,33.4597648 C51.2677439,33.6092575 51.4396728,33.7875345 51.5912659,33.9453839 C51.7687409,34.1283035 51.8842845,34.2499404 52.116296,34.3158657 C52.3216568,34.3743655 52.4342743,34.3843699 52.6416163,34.3427048 C48.2726629,27.8788499 46,22.8888183 46,18.843318 C46,8.44700461 54.4685715,3.55271368e-15 64.8914285,3.55271368e-15 Z M81.5371417,27.6086377 L81.389222,27.8999829 C79.7643739,31.0552426 77.3650794,34.6784434 74.2285715,38.7695852 L74.2285715,38.7695852 L73.7942857,39.202765 C73.5771428,39.202765 73.5771428,39.4193548 73.36,39.6359447 C70.5371428,43.1013825 68.3657143,45.483871 68.1485715,45.7004609 C67.4971428,46.3502304 66.1942857,47 64.8914285,47 L64.8914285,47 L64.6472488,46.9924913 C63.4274108,46.9179327 62.2314286,46.2960829 61.4171428,45.483871 C61.4171428,45.483871 60.1142857,43.9677419 58.16,41.8018433 C56.8571428,40.0691244 55.12,37.9032258 53.6,35.7373271 C53.4774205,35.5619001 53.3562799,35.3875169 53.2365814,35.2141679 C53.1799554,35.2344162 53.1199178,35.2522804 53.0559355,35.2680456 C52.654232,35.3670775 52.3667745,35.3948434 51.9134761,35.2643435 C51.4408296,35.1292158 51.1828549,34.8608116 50.9746325,34.6451627 C50.8511732,34.5165138 50.7442979,34.40545 50.5996478,34.3230777 C50.371156,34.1907266 49.8542852,33.9991415 49.5041767,33.8964075 C48.8223865,33.6964926 47.9563286,33.8649394 47.1870112,34.3471415 C46.4278285,34.8237903 45.9063511,35.5086839 45.7939478,36.1787689 C45.7792064,36.2657688 45.7709144,36.3536944 45.7635437,36.4425454 C45.7349822,36.7433432 45.6999713,37.1191091 45.4502887,37.4532261 C45.2402236,37.7345878 44.998833,37.8706409 44.8044306,37.9798537 C44.5888375,38.1010984 44.5086811,38.1455239 44.4515581,38.3519175 C44.3741657,38.6314281 44.4358953,38.8405982 44.5261865,38.9164919 C44.6358257,39.0099706 44.8486548,38.9248216 44.933418,38.8850238 C44.9509234,38.876694 44.9564514,38.8729919 45.001597,38.8109812 C45.1757299,38.5731196 45.4171205,38.3639494 45.9514967,38.4333643 C46.2325048,38.46946 46.4204578,38.6305025 46.5448385,38.7369387 C46.5881414,38.7748855 46.655399,38.8313429 46.6756685,38.8341195 C46.8074198,38.7702578 47.0009009,38.2075345 47.1040907,37.9058112 C47.335577,37.2324868 47.5945954,36.4761899 48.2387099,36.3438644 L48.3727734,36.3259284 L48.8500266,36.2944603 L48.8693747,36.7748113 C48.8831948,37.1246623 48.8785881,37.4680346 48.8730601,37.8123324 C48.8684534,38.1436728 48.8629254,38.4750132 48.8776668,38.8146834 C48.9040312,39.4716685 48.8118538,39.6870271 48.4605509,39.9812477 L48.3672454,40.056747 L48.1912698,40.1992789 C48.107428,40.2705448 48.0272716,40.3695767 47.9415872,40.4704597 C47.6767331,40.783166 47.2433356,41.2942076 46.6091842,41.1735863 L46.4702101,41.1377681 L46.2389542,41.0628 L46.1670898,40.8304916 C46.1330003,40.7185022 46.0814053,40.6129916 46.0316531,40.5065554 C45.9662381,40.3686512 45.8934524,40.2140874 45.8418574,40.0391619 C45.8169813,40.0456406 45.7911838,40.0511938 45.7635437,40.0576725 C45.6815446,40.0771087 45.5921748,40.0974704 45.4954343,40.11413 C45.4567381,40.4056725 45.4502887,40.6990661 45.4438393,41.0054171 L45.4372748,41.2450141 L45.4372748,41.2450141 L45.4272552,41.4894702 L45.4115925,41.8245127 L45.0900455,41.9179914 C44.9804062,41.9494595 44.8652389,41.9762999 44.7473076,42.0022148 C44.4939396,42.0595978 44.2304369,42.1188318 44.0876295,42.241002 C44.0314279,42.2891296 43.9825969,42.3826084 43.9263953,42.4908956 C43.8536096,42.6306509 43.7633185,42.8046508 43.612219,42.9592146 C43.3966259,43.1804167 43.0842922,43.2831508 42.7820933,43.3821827 C42.6936448,43.4117997 42.5683428,43.4525231 42.4725236,43.492321 C42.5047705,43.5071295 42.53886,43.5173103 42.5665001,43.5265656 C42.7691945,43.5922784 43.0750788,43.6922358 43.2344703,44.0272783 C43.4758609,44.5363208 43.2704025,45.0731292 42.7222063,45.3618951 C42.3463003,45.5590334 41.8165309,45.5710653 41.3033455,45.5830972 C41.1734368,45.5867994 41.0416854,45.589576 40.9219115,45.5960547 C40.8942713,45.9533099 40.841755,46.7520439 40.9956185,46.9047566 C41.2508292,47.0343311 42.5029278,46.8964268 42.8097334,46.7316822 C42.9947381,46.6324652 43.1514394,46.4757912 43.3171033,46.2896186 L43.4436141,46.144895 L43.5891855,45.9782993 C43.669342,45.8875972 43.7144875,45.7830121 43.7716105,45.6506611 C43.8342615,45.5062781 43.9042832,45.3415334 44.0323492,45.1777143 C44.2295156,44.9241186 44.4386594,44.7899165 44.7021621,44.8084271 C44.8578682,44.8139803 44.9840916,44.8685867 45.0918881,44.9481824 L45.0948825,44.879346 L45.0948825,44.879346 L45.0992588,44.8112037 L45.2254822,43.0702785 L45.9855862,44.6409059 C46.2168421,45.1212569 46.6977806,45.7774589 47.0165636,45.9505333 C47.224786,46.0643738 47.4588059,46.0958418 47.728758,46.1337886 C47.9673846,46.1661823 48.2133819,46.2004269 48.4685926,46.2948312 C48.7661848,46.405895 49.0149462,46.5845226 49.2333033,46.7427885 C49.3973015,46.8612566 49.551165,46.9723204 49.7031858,47.0398842 C49.8800827,47.1176289 50.1012039,47.1092991 50.3628639,47.1046715 C50.496458,47.1009693 50.6318947,47.0972672 50.7664101,47.1037459 C50.8438025,47.1074481 52.6256705,47.2055544 52.7528152,48.022799 C52.8090168,48.3920862 52.5611769,48.6845542 52.0148233,48.8900223 C51.193911,49.1991499 50.3978748,49.0158946 49.6294787,48.8381925 C49.246202,48.7493414 48.8785881,48.665118 48.5165022,48.6401287 L48.5167325,48.6710183 L48.5167325,48.6710183 L48.5183449,48.7039904 L48.5625691,49.2667137 L48.0033168,49.2065541 C47.398919,49.1417669 46.3237173,48.9529584 45.9330699,48.4254053 C45.8123746,48.2634373 45.756173,48.0866607 45.7312968,47.9126607 C45.5193891,47.9052565 45.3084026,47.8978522 45.1011015,47.8839692 C44.8237787,47.8645331 44.5151304,47.8460224 44.2608411,47.8460224 C43.5565292,47.8460224 42.6927917,48.0090988 42.0637035,48.2533478 L41.8395643,48.3485862 L41.8082388,48.2810224 C41.6912289,48.560533 41.5419721,48.8650329 41.3199296,49.1177031 C41.1844929,49.2704158 40.4160968,49.9830753 40.1553581,50.1237561 C39.8994893,50.2617926 39.6855884,50.2726723 39.5397645,50.2694666 L39.4726465,50.2672135 L39,50.0265753 L39.3620859,50.3227455 C39.2192785,50.497671 39.1944024,51.0650219 39.1787396,51.4037666 C39.17444,51.503107 39.1701404,51.5975112 39.1644759,51.6834143 L39.1547848,51.8054474 L39.1160886,52.1710324 C39.0552803,52.7235749 38.9861799,53.3510854 39.0700217,53.8388407 C39.1667622,54.3932342 39.4800172,54.721798 40.0254494,55.130883 C40.7164531,55.6491808 41.4046927,55.7750531 42.3601204,55.814851 C42.5655788,55.8268829 42.792228,55.8092978 43.0234839,55.7954148 C43.7209369,55.7509893 44.5096024,55.7056383 45.1038655,56.1804361 C45.6050735,56.5802658 45.6327136,57.0707976 45.6511404,57.3965848 C45.6603538,57.5733614 45.6686458,57.6862763 45.7165554,57.7667975 C45.7497236,57.8241805 45.7828918,57.8417656 45.957946,57.8991486 C46.1265509,57.9537549 46.3568855,58.028723 46.5623439,58.2314145 C47.2017526,58.8617016 47.1547643,60.0056589 47.0036649,60.8543715 C46.8472421,61.7256055 46.7381375,62.423525 46.8005914,63.1951417 L46.832296,63.488435 L46.8544081,63.6633605 C46.8884976,63.9317647 46.9161378,64.144637 47.023013,64.3612114 C47.093956,64.5074454 47.162135,64.567605 47.2865157,64.6768178 C47.4007616,64.7767752 47.5196143,64.8859879 47.6513656,65.0525837 C48.1083494,65.6356687 48.1129561,66.2826154 48.1028213,66.8619983 C48.2308874,66.8758813 48.3617174,66.8906898 48.4989968,66.9092004 C49.0370583,66.9776898 49.7050285,67.0628387 50.0192048,66.9304876 C50.2596741,66.8305302 50.6079399,66.3390728 50.8391958,66.0123601 C50.9571271,65.8448389 51.0667663,65.6912006 51.1625855,65.5773602 C51.5633676,65.0951581 51.9742844,64.3195625 52.0756316,63.8475413 C52.0912944,63.7697966 52.082081,63.6531796 52.0710249,63.5300839 C52.0489128,63.2672329 52.0175873,62.907201 52.2405512,62.5795628 C52.4773351,62.2306373 52.8541624,62.1602969 53.1038451,62.1140203 C53.1628107,62.1019884 53.2540232,62.0862543 53.280742,62.0732969 C53.6372999,61.7993395 53.602289,61.2782651 53.4972565,60.4536163 C53.4042013,59.7085632 53.2982474,58.8644782 53.8188035,58.2378932 C54.16062,57.8269571 54.5650874,57.7001592 54.8893985,57.6002018 C55.2524057,57.4863614 55.4044265,57.4280529 55.5205151,57.1272551 C55.623705,56.8588509 55.6485811,56.5358403 55.6743786,56.1933935 C55.6900414,55.9971808 55.7112321,55.7963404 55.7416363,55.5955 C55.6964907,55.5649574 55.6541092,55.5390425 55.6071209,55.5085 C55.3230416,55.3210798 55.0063316,55.1118068 54.7321696,54.9926231 L54.5733795,54.9328192 L54.7152656,54.4672767 C54.3264608,54.2682874 53.9625322,53.9934045 53.6409852,53.6268939 C53.4364481,53.3918088 53.2982474,53.1280323 53.1646534,52.87166 C53.0697555,52.6930323 52.9776217,52.5107026 52.8550837,52.3459579 C52.7693993,52.2302664 52.6652881,52.1090218 52.5584128,51.9831495 C52.1374929,51.4881222 51.6212427,50.880572 51.6632422,50.1286344 L51.6831416,49.9525327 L52.6035584,50.1117242 C52.534458,50.5115539 52.9076,50.950256 53.2678432,51.3741496 C53.3894599,51.5157559 53.5055485,51.6527346 53.6032104,51.7850857 C53.7552312,51.9896282 53.8750051,52.2136069 53.9920151,52.43666 C54.1044183,52.6523089 54.2112936,52.8568515 54.3430449,53.0077131 C55.1989681,53.9860002 56.3451128,54.1600002 57.5658859,53.4908407 C57.9906228,53.2594578 58.2725523,52.903128 58.5084149,52.2978303 C58.7433561,51.6943835 58.7433561,51.6943835 58.2817657,51.4750325 C58.0726219,51.3769261 57.8128046,51.2538304 57.5410098,51.0566922 C57.2600016,50.8549262 57.1586544,50.6226177 57.084026,50.4523199 C57.0425658,50.3588412 57.0204537,50.3088625 56.9799148,50.266288 C56.9651734,50.2496284 56.950432,50.2338944 56.9338479,50.2172348 C56.6244318,50.025187 56.3687605,49.797789 56.1604357,49.5302203 L56.0410712,49.3648201 L56.7809058,48.7974691 C56.8638262,48.8955755 57.0029483,49.0140435 57.1485197,49.143618 C57.269215,49.2500541 57.394517,49.3601924 57.5087629,49.4703307 C57.5778633,49.5110541 57.650649,49.5490009 57.7271201,49.5850966 C57.9463986,49.6887562 58.1380369,49.7924157 58.3186192,49.8905221 C58.7579823,50.129425 59.0682574,50.2974669 59.5376882,50.3357445 L59.7494574,50.3440327 L59.7595922,50.3440327 L60.0820605,50.3403306 C60.8581525,50.3272642 61.2376035,50.3535506 61.7135504,51.149144 L61.8040416,51.3075113 L61.9146022,51.5092772 C62.0832071,51.810075 62.249048,52.1127239 62.379878,52.4274047 C62.5899431,52.9318195 62.5899431,52.9318195 63.0008599,53.338128 C63.2560706,53.5926492 63.4523156,53.8323619 63.6476393,54.0720747 C63.8503337,54.3219683 64.0428934,54.5579789 64.2686213,54.7699256 C64.4473609,54.9383724 64.5938537,55.1225532 64.7246837,55.2882234 C64.7947054,55.3752234 64.8868392,55.4918404 64.9458048,55.5492234 C64.9614676,55.5307128 64.9937144,55.5038723 65.0370173,55.4603723 C65.3686991,55.1262554 65.2986774,54.8920958 65.0139839,54.3099363 C64.8177388,53.90733 64.594775,53.4528939 64.793784,52.9623621 C64.9264567,52.6337983 65.2194423,52.3765005 65.7040662,52.1654792 C65.8081774,51.8054474 66.0256132,51.5305644 66.3351828,51.3769261 C66.8161214,51.1372134 67.4933049,51.2186602 68.0995455,51.5888729 C68.6237869,51.9091069 68.7555383,52.3422558 68.8513574,52.6606387 C68.9186151,52.8818408 68.9628394,53.0132663 69.0835347,53.1234046 C69.1811965,53.2141067 69.2438475,53.2427982 69.3230826,53.2788939 C69.6225175,53.4177237 69.8003358,53.5806173 69.9376152,54.0878087 C70.0131649,54.3645427 69.972626,54.6496065 69.9330085,54.927266 C69.9118177,55.0818298 69.8758855,55.3409787 69.909975,55.4113192 C69.9578846,55.4964681 70.0537038,55.5732872 70.1753204,55.6454787 C70.1303591,55.3730021 70.1431841,55.0720933 70.1652078,54.7849267 L70.1826911,54.5727874 L70.2444208,53.6389258 L70.8589534,53.9138087 C71.103108,54.0230215 71.3104091,54.2312661 71.5112608,54.4330321 C71.6264281,54.547798 71.8125384,54.7347554 71.9111216,54.7828831 C71.9148069,54.7523405 71.9894353,54.6523831 72.0815691,54.4024895 C72.2150608,54.0413265 72.1476325,53.8425085 71.9679349,53.491421 L71.8954588,53.352011 L71.795033,53.1557982 C71.4504525,52.4709047 71.3868801,51.956309 71.6006306,51.5860963 C71.6972687,51.4182665 71.8885431,51.217529 72.260516,51.1574418 L72.4086442,51.1418411 L72.9955366,51.110373 L72.9596044,51.315841 C73.0029073,51.2723411 73.0535809,51.2325432 73.1134679,51.1964475 C73.3253757,51.0659475 73.5428115,50.96599 73.756562,50.8688092 C74.1536587,50.6883305 74.465071,50.5457986 74.7119897,50.2172348 C75.2133205,49.5512221 75.0934483,48.8876282 74.8932102,48.0699347 L74.8492691,47.892299 L74.7912248,47.6507352 C74.7718767,47.5729905 74.7433152,47.4730331 74.7092257,47.3573416 C74.4871431,46.5889089 74.0812945,45.188763 74.9632009,44.7339408 L75.091581,44.6779272 L75.5107899,44.5252144 L75.6821588,44.9380016 C75.7448098,45.0907143 75.8885386,45.2628632 76.0276606,45.4285334 C76.1363785,45.5590334 76.2469391,45.69231 76.3363089,45.8339163 C76.3105114,45.6108632 76.28195,45.4081717 76.2626019,45.2730441 C76.1916588,44.7704803 76.1520413,44.4752357 76.1842881,44.2614379 C76.2966914,43.5339699 76.7048442,43.3442359 77.0024364,43.2054061 C77.1581426,43.1332146 77.2806806,43.0758317 77.4013759,42.9342253 C77.6125159,42.6839461 77.9436538,41.8433897 77.9796355,41.426293 L77.9818189,41.3238 L77.9293026,40.5287682 L78.6461038,40.8693639 C78.7861472,40.9360022 78.9068425,41.0267043 79.0054257,41.1368426 C78.9040785,40.8813958 78.7769338,40.6157682 78.6590025,40.3658746 C78.5871381,40.2140874 78.5171164,40.0678534 78.4572294,39.9318002 C78.3991851,39.8031513 78.3531182,39.647662 78.308894,39.4884705 C78.2646698,39.3302046 78.1964907,39.0932684 78.1329184,39.0349599 C78.0914582,39.0108961 77.9090332,38.9877578 77.7883379,38.9710982 C77.5985422,38.9461089 77.3811064,38.9174174 77.1774907,38.8378217 C77.1655133,38.833194 76.0847836,38.3843111 75.8673478,38.0131728 C75.6747881,37.6892367 75.6287212,37.3791836 75.7309897,37.0959709 C75.9042013,36.6165454 76.4256787,36.4342156 76.8043487,36.3018646 C76.9029319,36.2666944 76.9950657,36.2370774 77.0641661,36.2019072 C77.3276688,36.0695561 77.54879,35.9038859 77.7828099,35.7289604 C78.15544,35.4500668 78.5651966,35.144847 79.142791,35.0128603 L79.3675116,34.9718754 L79.3675116,34.7358648 L79.3693543,34.3676189 L79.3693543,34.3676189 L79.382253,34.0028437 L79.4191065,33.3808863 L80.0041563,33.5900565 C80.2289628,33.6700224 80.4596658,33.8092224 80.6495647,33.9754331 L80.7836084,34.1046522 L80.8840342,34.2138649 L80.9043037,34.36195 C80.9715614,34.8534074 80.8978543,35.4309392 80.8250686,35.9899604 C80.7430695,36.6387582 80.649093,37.376407 80.8416527,37.7077474 C80.896933,37.8030771 81.0047295,37.8761941 81.1401663,37.9696728 C81.3060071,38.0835133 81.5151509,38.2278962 81.6745424,38.4639068 C81.7436428,38.2288217 81.850518,37.9854069 81.9546292,37.7503218 C82.0928299,37.4374921 82.2356374,37.113556 82.2522214,36.8793964 C82.2688055,36.648939 82.1600876,36.4619816 81.9850334,36.1759923 C81.85881,35.9714497 81.7160026,35.7400668 81.6358462,35.4596307 C81.5022522,34.9903861 81.5787232,34.5859287 81.6469023,34.2286734 L81.6783429,34.0581442 L81.6783429,34.0581442 L81.7049466,33.8834501 L82.428197,33.9750777 L82.6576103,33.8695671 C82.6603743,33.8630884 82.6631383,33.8566096 82.664981,33.8510564 C82.6361124,33.8313117 82.6051964,33.8165032 82.5760548,33.8080021 L82.5341509,33.8001522 L82.6806437,33.8094075 C82.7322386,33.6733543 82.7773842,33.5345246 82.798575,33.4465991 C82.8160804,33.3688544 82.8188444,33.2716736 82.8252938,33.1698651 C82.8409566,32.9060885 82.8603047,32.6080673 83.0077188,32.3655779 C83.2150199,32.0268333 83.5052414,31.9389078 83.6609475,31.8917057 C83.7208345,31.8352482 83.7586094,31.7917482 83.7834855,31.7593546 C83.7641374,31.7445461 83.7447893,31.7288121 83.7272839,31.7158546 C83.5900045,31.6094185 83.4029729,31.4622589 83.250952,31.230876 C82.9267331,30.7369196 82.9166998,30.2527092 82.9394283,29.7458584 L82.9478318,29.5760252 L82.9727079,29.0577274 L83.3900741,29.032738 C83.4858933,29.0244082 83.5992179,29.0290359 83.7162278,29.0345891 C83.7963843,29.0373657 83.9143155,29.0419933 84,29.0364402 C83.9742026,28.9305593 83.9088981,28.7843993 83.8507875,28.6984212 L83.809283,28.6467913 L83.5761844,28.420036 L83.692273,28.1090573 C83.7371115,28.0066318 83.7487818,27.9432843 83.7513069,27.9105136 L83.7512387,27.8832276 C83.75216,27.882302 83.7337333,27.8165893 83.2804349,27.765685 C82.9515171,27.7286638 82.6225994,27.7018233 82.297367,27.6749829 C82.0406567,27.6543091 81.7868116,27.6336353 81.5371417,27.6086377 Z M56.8943772,60 C57.5725696,60.0735751 57.9845087,60.6321244 57.9995796,61.4953368 C58.0230233,62.8031088 57.0618321,64.8290155 56.1349692,64.9803109 C56.0529163,64.9937824 55.9750498,65 55.9038814,65 C55.4718478,65 55.24997,64.7689119 55.1361007,64.557513 C54.7434189,63.8217617 55.2558309,62.6259067 55.966677,61.1378238 C56.090489,60.8803109 56.2386605,60.5696405 56.2922787,60.424492 L56.3091223,60.373057 L56.8533508,60.573057 L56.8943772,60 Z M56.862314,61 C56.8098712,61.1620454 56.7414398,61.360821 56.6525428,61.6146921 C56.4625976,62.1548434 55.9695076,63.5624775 56.0014849,64 C56.0174735,63.9913576 56.0616022,63.9956788 56.1377082,63.9773136 C56.4178294,63.9168167 57.0119678,62.4519265 56.9998164,61.453727 C56.9959791,61.1760893 56.9492923,61.0561757 56.862314,61 Z M81.3585,61 C81.3675,61.2058148 81.3705,61.4116297 81.3685,61.6189748 C81.3675,61.7459832 81.3665,61.8729916 81.3685,62 C81.4739286,61.8681823 81.5881735,61.6020174 81.6262201,61.3099145 L81.6385,61.1622035 L81.6415,61.0673298 L81.3845,61.2976282 L81.3585,61 Z M72.9765353,59.297 C73.2058086,59.3357597 73.5145087,59.4697575 73.9067298,59.6380853 C74.0573951,59.7023156 74.1957779,59.7599014 74.3243347,59.8119502 C74.95611,59.6967786 75.6719926,59.6577318 76.159132,59.6776987 L76.3304759,59.6879192 L76.875,59.7300011 L76.6989509,60.4276755 C76.5335466,61.0777309 76.1274053,61.297 75.6270983,61.297 C75.2070368,61.297 74.7206499,61.1430687 74.2563715,60.959237 C74.0856448,60.9957819 73.9301177,61.0373101 73.7994626,61.0842889 L73.6774565,61.1331019 L73.5644575,60.6668782 C73.3235841,60.5644419 73.100907,60.470465 72.9537634,60.4285266 L72.875,60.4099568 L72.9765353,59.297 Z M83.885051,58.297 C84.3194758,58.2979095 84.9348179,58.3506608 85.4127969,58.5971364 C85.6674212,58.7271955 85.8639733,58.922739 86.0337229,59.0955448 C86.0616422,59.1228299 86.0951454,59.1573911 86.1297654,59.1901332 C86.3438137,59.2841154 86.5167584,59.3698867 86.624041,59.4284992 L86.6803346,59.460256 L86.875,59.9213747 L86.3922071,60.295181 C86.3687549,60.2960905 86.3430691,60.297 86.3196169,60.297 C85.9354468,60.297 85.643969,60.1196467 85.4127969,59.9213747 C84.9591388,59.7386654 84.4640083,59.5947616 84.1783962,59.5899509 L84.0816031,59.5948627 L83.9967283,59.2210564 L83.9397728,59.2198058 L83.9397728,59.2198058 L83.8828174,59.2192374 L83.8839342,58.7308336 L83.875,58.6899059 L83.8794671,58.6889964 L83.8839342,58.6880869 L83.885051,58.297 Z M74.9569671,57.081 C74.6320656,57.213 74.2679052,57.289 73.9362349,57.359 C73.1930228,57.513 73.0265108,57.585 73.0048507,57.764 C72.9913131,57.879 73.0102657,57.919 73.0116195,57.919 C73.0554474,57.9155 73.3501008,57.9066406 73.5745335,57.899791 L73.6654837,57.897 L74.0323516,57.889 C74.4303559,57.887 74.7606724,57.885 74.8432516,57.852 C74.840544,57.852 74.9095856,57.784 74.9637359,57.493 C75.0043485,57.27 75.0111173,57.136 74.9826884,57.096 C74.9826884,57.096 74.9759197,57.09 74.9569671,57.081 Z M31.8341337,24.0006035 C30.7186228,23.9941081 29.6304083,24.0330801 28.6977829,24.4654831 C27.649603,24.9516067 27.4270281,25.1928873 27.375557,26.0358876 L27.3684506,26.1821043 L27.3548024,26.5616168 L26.9872115,26.6265701 C26.3739535,26.7351348 25.9654181,26.3342805 25.6942743,26.069828 C25.3776366,25.7608362 25.3776366,25.7617641 25.1965708,25.9195077 C25.0209643,26.0735396 24.9600024,26.2414902 24.8899418,26.435422 C24.8517269,26.5418216 24.8074462,26.6461592 24.7530557,26.743211 L24.6633821,26.8826714 L25.374907,27.0431987 L25.4986505,27.9117163 C25.4577059,27.9154279 25.4185812,27.9172837 25.3812761,27.9172837 C25.0619088,27.9172837 24.8753838,27.7836656 24.7716576,27.6639661 C24.6615623,27.5377712 24.5560164,27.3085791 24.6133388,26.9476246 C24.4173358,27.1687749 24.1043566,27.2994804 23.5398402,27.216809 L23.3795437,27.1888795 L22.7944919,27.0710358 L23.0547171,26.5235728 C23.0983912,26.4326383 23.1538938,26.3379921 23.2148557,26.2424181 C23.1156789,26.2554087 23.0119528,26.2674715 22.9064069,26.28139 C22.3240847,26.3537665 21.3486951,26.4753218 21.1685392,26.7397743 C21.1603502,26.751837 21.1457922,26.7722509 21.1630799,26.8474111 C21.2695357,27.309507 21.8454887,27.9506882 22.262213,28.0722436 C22.478764,28.1344131 22.7517276,28.1307015 23.0356096,28.126062 C23.3517924,28.1206492 23.6755575,28.1152364 23.987949,28.1962776 L24.1738675,28.2559684 L24.5014237,28.3821633 L24.4668484,28.7384782 C24.3622123,29.8408274 23.4523339,29.9688781 22.7890326,30.0625963 C22.6652891,30.0792986 22.5360864,30.0978567 22.4068837,30.1210542 C21.7654194,30.2398259 21.0657229,30.3428232 20.6362603,30.1154868 C20.3196226,29.9475363 20.1795013,29.6867955 20.077595,29.4947195 C20.0275516,29.4019291 19.9847874,29.3212015 19.9311045,29.2673831 C19.6071878,28.9435448 19.2259488,28.9676703 18.977552,29.0975768 C18.8001257,29.1894392 18.6272488,29.3685246 18.5617375,29.6283375 C18.61815,29.6227701 18.6763822,29.6162748 18.7364342,29.6088516 C18.8892938,29.5900616 19.0569958,29.5697057 19.2357015,29.5689227 L19.4179331,29.575447 L20.0139035,29.6246259 L19.8164599,30.199926 C19.7382103,30.4254066 19.6918065,30.6759405 19.6426731,30.9283302 C19.6038516,31.1256643 19.5646258,31.3279473 19.5123246,31.5285806 L19.4224825,31.8274686 L19.3023786,32.1754324 L18.9420667,32.1392441 C18.2387307,32.0687235 17.7619544,31.6808598 17.3425005,31.3384635 C17.0349616,31.0870017 16.7692771,30.8698723 16.455369,30.8012074 C16.3561923,30.7789377 16.2178908,30.7900726 16.0714004,30.8030632 C15.7829689,30.8281166 15.4217472,30.8587374 15.0823625,30.6536708 C14.839425,30.5061342 14.7129519,30.2825094 14.6110455,30.1034241 C14.5546331,30.0041384 14.4973107,29.9029969 14.4454477,29.8668087 C14.2061496,29.6988582 13.874044,29.5810145 13.5237408,29.4557475 C13.0132991,29.2738784 12.4355263,29.0678839 12.003334,28.6419762 C11.8923289,28.5324836 11.8031608,28.4062888 11.7176322,28.2819497 C11.6166357,28.1362689 11.5638628,28.0657482 11.5101799,28.0509018 C11.4337502,28.0546134 11.1644262,28.2105012 11.0352234,28.2856613 C10.9233084,28.3515425 10.8204921,28.4090725 10.7395129,28.4452607 C10.4610902,28.567744 10.1899464,28.6614622 9.9242619,28.7514688 C9.50155839,28.8962218 9.12832254,29.0232499 8.78278097,29.2576009 L8.61221724,29.384299 L8.49757257,29.4761614 C8.35108214,29.5921493 8.35108214,29.5921493 8.23461771,29.8612413 C8.16910646,30.0106337 8.14544963,30.0895055 8.12634218,30.1535309 C8.04445312,30.4235507 7.95437516,30.6314011 7.5358311,30.8429631 C7.28925405,30.9663742 7.07634251,30.9793649 6.94077063,30.9737975 C6.93713111,30.9858602 6.9334916,30.9979229 6.92985208,31.0118415 C6.89800634,31.1361806 6.93895087,31.2846451 7.02993871,31.3727959 C7.08635117,31.4275422 7.30927138,31.5036303 7.41663703,31.5407464 C7.68778079,31.6344647 8.05901118,31.7625153 8.04627288,32.1707928 C8.0326247,32.6078353 7.58314478,32.7321744 7.22101317,32.832388 C7.02447944,32.8871343 6.80519874,32.908476 6.58773781,32.9261062 C6.02249335,32.9732152 5.91543997,33.0147896 5.87726731,33.2902109 L5.86893387,33.3640766 L5.59869999,33.3380953 L5.68604831,33.4550111 C5.47222689,33.6201779 5.3539427,33.994123 5.40307613,34.3448705 C5.43947127,34.6000439 5.48314543,34.6250973 5.69423722,34.7457248 C5.85333595,34.8355988 6.06190237,34.9547871 6.26034605,35.1880181 L6.35844845,35.3145295 L6.56408097,35.6049633 L6.34116076,35.8842622 C6.01269466,36.2971792 5.53045911,36.6915382 5,37.0320787 C5.62417658,36.7639146 6.21286791,36.4873994 6.83704449,36.183975 C7.0890808,36.0614918 7.26286758,35.9223063 7.44757289,35.7756975 C7.76106736,35.5251636 8.1452466,35.2401208 8.75460535,35.1994284 L8.94432286,35.19483 L9.2236555,35.1901905 C9.7650332,35.1790556 10.4401629,35.1623534 10.8596169,35.4305175 C11.7139927,35.9798363 11.6011678,37.2278663 11.5010812,38.3302156 C11.4683255,38.6930258 11.43466,39.0632592 11.4446687,39.3499814 C11.8832301,39.4947343 12.2271641,39.7591868 12.4491745,40.1257086 C12.7512541,40.6239927 12.8031172,41.2865158 12.594755,41.9889386 C12.2571901,43.1311877 12.0915922,44.2762205 12.0906824,45.4889902 C12.0897725,46.269357 12.348178,46.643302 12.6757342,47.1174607 L12.6995047,47.1519091 L12.6995047,47.1519091 L12.7239577,47.1870534 L12.4318868,45.9640768 L13.6820597,47.6064658 L13.9313664,47.6639958 L13.9968776,48.0249502 C14.0032468,48.1344428 14.0223542,48.2420796 14.0505604,48.3469327 C14.1315396,48.4629206 14.2270768,48.5696295 14.3326227,48.6884011 C14.5619121,48.9472862 14.8230472,49.2395757 14.9713574,49.6923926 C14.9995636,49.7768318 15.0241303,49.8659105 15.0459674,49.9596288 C15.1651615,50.1229398 15.280716,50.2853229 15.3826224,50.4523455 C15.5709672,50.7604094 15.6519464,51.0684733 15.7238268,51.3412769 C15.7984368,51.6279991 15.8575789,51.8544075 16.0168077,52.0474114 C16.2952304,52.387024 16.8284192,52.9706753 17.0658975,53.1432653 C17.2851781,53.3010089 17.5526824,53.3028647 17.9712265,53.2926578 C18.0549353,53.289874 18.1404638,53.2880182 18.228722,53.2880182 C18.4707497,53.2880182 18.7291552,53.3047205 18.9875606,53.3845202 C19.6035483,53.5728846 19.9602206,53.9607482 20.2750386,54.3031446 C20.3423696,54.3773768 20.4097006,54.4506812 20.4806711,54.5221298 C20.7427161,54.788438 20.9683659,54.9053539 21.2422393,55 C21.2422393,54.7457545 21.3122999,54.510067 21.3741717,54.2975771 C21.4769879,53.9477576 21.5097436,53.790014 21.4132964,53.6471169 C21.3223086,53.5134988 21.259527,53.4986523 20.8737386,53.511643 L20.6698121,53.5170944 L20.6698121,53.5170944 L20.4542846,53.5134988 L19.9820577,53.4884454 L20.0184529,53.0077914 C20.0411998,52.7117902 20.1722223,52.4974446 20.2768583,52.3229987 C20.3077942,52.2747477 20.3350905,52.2283526 20.3578375,52.185669 C19.426122,52.7052949 18.3870409,52.7071507 17.8556719,52.1782458 C17.5808886,51.9045143 17.2160274,51.2716842 17.8529423,50.1071654 C18.2978728,49.2933941 18.7364342,48.6698431 19.980238,48.6698431 C20.997482,48.6726268 21.3168493,49.2599896 21.5279411,49.6487811 C21.6789809,49.9280801 21.7490416,50.0422122 21.9646828,50.0904632 C22.1475683,50.1312909 22.2103499,50.1062375 22.2103499,50.1062375 C22.2467451,50.0644819 22.2885995,49.8454967 22.3140761,49.7137344 C22.3513811,49.5207305 22.3932355,49.3008174 22.4833134,49.0892554 C22.6261643,48.7561381 22.7626461,48.4916856 22.9018575,48.2225936 C23.0201417,47.9934015 23.1402456,47.7623535 23.2676286,47.4756314 C23.6000982,46.7248647 24.1146071,46.2597068 24.6327274,45.8339328 L24.8053231,45.693129 L25.1456176,45.4129022 C25.2529833,45.3228955 25.3430612,45.2273215 25.4304096,45.1373148 C25.6324026,44.9276087 25.8626018,44.6900654 26.2110852,44.5508799 C26.4767697,44.4450989 26.7278962,44.4488105 26.9526361,44.4506663 C27.1437106,44.4543779 27.2992998,44.4543779 27.4312322,44.3912805 C27.7041957,44.2585903 27.8870813,44.1342513 28.0481297,44.0256866 L28.0541626,44.0216333 C28.0206023,43.964872 27.9899348,43.899182 27.963866,43.8257554 C27.8491642,43.5021438 27.845276,43.0852281 27.9534974,42.7639786 C28.0519984,42.4700249 28.2288393,42.3011181 28.4280387,42.2970743 L28.5036772,42.3033636 L28.875,42.3706843 L28.7907557,43.0344424 C28.761365,43.2649377 28.753395,43.4675471 28.7668457,43.6461032 C28.95879,43.5794861 29.1897715,43.5301555 29.4866475,43.5042049 C30.3910666,43.4244052 30.4083543,43.4225494 30.372869,42.744252 C30.3464826,42.2227703 30.0980858,41.9267691 29.7550616,41.5166358 C29.6340478,41.3718829 29.5084846,41.2215625 29.3874707,41.0554678 C28.9762057,40.4922305 28.7132508,39.747124 28.6841347,39.0614034 C28.6703045,38.7303275 28.7158712,38.4123165 28.7900882,38.1016693 L28.8506425,37.8699755 L28.2601314,38.4675453 C28.2253286,38.432053 28.1674944,38.392907 28.0954576,38.3528477 L28.0190136,38.3125854 L27.8315787,38.4090873 C27.7788057,38.3033064 27.6950969,38.2068044 27.5904609,38.1223652 C27.5031126,38.086177 27.4194038,38.0537003 27.3475234,38.0267911 C27.1746465,37.9590542 27.0154177,37.8978126 26.8989533,37.8421384 C26.7451839,37.7697619 26.5804959,37.7382132 26.4003399,37.7261504 C26.1419345,37.73079 26.0436676,37.9154427 25.8807994,38.6763235 C25.8353055,38.8878855 25.7898115,39.0966638 25.7297596,39.2850281 C25.6542397,39.5225714 25.3585292,40.3242799 24.7698379,40.6202811 C24.5632955,40.7251342 24.3704012,40.7650341 24.1902453,40.7650341 C23.8581397,40.7650341 23.571528,40.6295602 23.3231312,40.5135722 L23.193701,40.4541864 L23.193701,40.4541864 L23.0574467,40.3948006 L22.9409823,40.3474775 C22.4105232,40.1340598 22.0793274,39.9623976 21.9619531,39.1402752 C21.9419358,38.998306 21.7736083,37.7428527 21.9937989,37.1898223 C22.4305405,36.1013916 23.8808867,36.4307973 24.8408084,36.6488546 C25.0857173,36.7037556 25.3375767,36.7605897 25.5047669,36.7790833 L25.5941877,36.7852564 L25.8962673,36.7824727 C26.0718738,36.7787611 26.2511199,36.7750495 26.4321857,36.7861843 C26.9526361,36.7917517 27.5577053,36.962486 28.0262926,37.2872521 C28.3556686,37.4236539 28.6704866,37.5813975 28.877029,37.778113 C28.9534587,37.5201559 29.0408071,37.2668383 29.130885,37.0172323 C29.4238659,36.2118121 29.6749923,35.5168125 29.4065782,34.8208849 C29.3381553,34.6434698 29.2161588,34.414389 29.0932306,34.1930284 L29.0016823,34.0293833 L28.8160671,33.6925544 C28.8087881,33.6851312 28.7578349,33.648015 28.7241694,33.6229616 C28.6086148,33.5385224 28.450296,33.4206787 28.3538489,33.2137563 C28.2574018,33.0096175 28.2501227,32.7887765 28.2437536,32.5929889 C28.2410239,32.5020543 28.2373844,32.389778 28.2228264,32.3415271 C28.0249581,31.6893966 27.624183,30.9338027 27.1181499,30.8284111 L27.0081387,30.8160539 L23.9127324,30.7622355 L26.8889446,29.8937179 C27.7023759,29.6571025 27.8852615,29.6032842 28.2537622,29.1198465 C28.3022891,29.056749 28.3528379,28.9763307 28.4070262,28.8868396 L28.5605663,28.6314134 C28.8932031,28.0808633 29.3363646,27.4154935 30.0012452,27.4498749 L30.1372105,27.4663226 L30.4911532,27.5340596 L30.5129903,27.9005814 C30.5257286,28.1167829 30.5166298,28.3450472 30.5066212,28.5723835 C30.4711359,29.3926501 30.5157199,29.6301933 30.8987788,29.738758 C31.0125136,29.7712347 31.1280681,29.7619556 31.2609104,29.7517487 C31.5493418,29.7285511 31.9833538,29.6942187 32.333657,30.1748726 C32.7986049,30.8123423 32.5229117,32.4584429 32.5201821,32.4751452 C32.4501214,32.8453786 32.3682324,33.2026214 32.2881631,33.5561526 C32.0879898,34.435805 31.8987351,35.2681344 31.9087438,36.21274 C31.9151129,36.7370054 32.176248,37.1517782 32.4519412,37.5906766 C32.6684922,37.9349287 32.8905026,38.2884599 33.0033275,38.7069443 C33.4218716,38.6781793 33.575641,38.5195078 33.7694451,38.057412 C33.7976513,37.9924587 33.8240378,37.8133734 33.8431453,37.682539 C33.8886392,37.3716914 33.9323133,37.0794018 34.0915421,36.8669119 C34.3890723,36.4697693 34.7020705,36.4651297 34.870398,36.4632739 C35.0505539,36.3751231 35.1160651,36.2303702 35.2116024,36.001178 C35.3326162,35.7116722 35.483656,35.3516457 35.8603457,35.1001838 C36.0486905,34.973989 36.3189244,34.9331612 36.6801461,34.8904777 C36.7684043,34.8802707 36.8466538,34.8719196 36.8939675,34.8607848 C37.0086122,34.8329477 37.1441841,34.7800572 37.2806658,34.7280946 C37.4107785,34.6789157 37.5399812,34.6306647 37.6591753,34.5944765 C38.4980831,34.340231 38.5344783,34.0562925 38.6218266,33.3714998 C38.6682304,33.0021943 38.7264626,32.54381 38.9375544,32.0408864 C39.0412805,31.7940641 39.1622944,31.5815742 39.285128,31.3690843 C39.4161504,31.1426759 39.538984,30.9292581 39.636341,30.6657335 C39.740977,30.3808672 39.7591746,30.0904334 39.7801018,29.7545324 C39.79375,29.5448262 39.8064883,29.3295527 39.8401538,29.1031442 C39.9275021,28.5109357 40.1492878,28.1401409 40.3975136,27.7776552 L40.4916267,27.6416964 L40.5880738,27.501583 C40.6399369,27.4254949 40.6999889,27.3484789 40.7618606,27.270535 C41.0439229,26.9132922 41.0211759,26.8817435 40.9647635,26.8056554 C40.901072,26.7379185 40.5862541,26.6618304 40.3988191,26.6163631 C40.0412369,26.5300681 39.6354311,26.4317104 39.3515491,26.1746811 C39.0713065,25.9204356 38.9129877,25.6828923 38.7856047,25.4908163 C38.5836117,25.1873919 38.5080918,25.0732598 38.0021994,25.0175856 C37.5399812,24.9665509 37.0404579,25.0092345 36.5573125,25.0509901 C36.3425812,25.0686203 36.1323993,25.0871783 35.9276767,25.0973853 C35.0441847,25.1419246 34.1397656,25.1873919 33.4400691,24.5953895 C32.8040641,24.0581335 32.737643,24.0015314 31.8341337,24.0006035 Z M56.4704549,44.3013542 L56.6318101,44.315413 L57.097993,44.372761 L57.1113125,44.7578116 C57.1135324,44.8169801 57.1068727,44.9089189 57.096883,45.0136017 C57.0902233,45.0955274 57.0757938,45.2557375 57.0813436,45.3349323 C57.0924432,45.3149061 57.1457213,45.3458558 57.1845698,45.365882 C57.3366343,45.4459871 57.5264373,45.5470288 57.6307735,45.7245344 C58.0303589,46.3927405 57.9392425,46.9769409 57.3601681,47.4651346 L57.2378479,47.5614897 L56.2388845,48.297 L56.3021521,47.1973756 C56.3210215,46.844185 56.2377745,46.7759136 55.9269859,46.5228544 C55.8544686,46.4633824 55.7770181,46.4002693 55.6969366,46.3297391 L55.5751288,46.2179089 L55.4663528,46.1214186 C55.2166119,45.9002194 54.8370058,45.5661447 54.8780743,45.1119125 C54.9096465,44.7728818 55.1438068,44.5949604 55.304591,44.4931184 L55.3609066,44.4583278 L56.1645172,44.4983803 L56.1445379,44.3017588 C56.2540539,44.2956902 56.3625833,44.2952856 56.4704549,44.3013542 Z M78.9412967,43 L78.9111475,43.0027929 L78.9111475,43.0027929 L78.8802719,43.0048572 L78.6720126,43.0320575 C78.4957187,43.5333204 78.2506508,44.0112687 78.0569213,44.2405285 C77.7915118,44.553332 77.5096353,44.6844764 77.304282,44.7806489 C77.0630887,44.8923645 77.0388725,44.9040218 77.0020639,45.1468817 C76.9885029,45.2498543 77.0446844,45.6355158 77.0853676,45.9182048 C77.2035427,46.7497571 77.2820031,47.4647367 77.1744832,48 C77.3275296,47.8125121 77.5290083,47.6425102 77.7876372,47.4569652 C78.156692,47.1927336 78.156692,47.1927336 78.2351525,46.8702157 C78.2642119,46.7526715 78.2990832,46.6098698 78.3513902,46.429182 C78.4366312,46.1319215 78.5703046,45.8812901 78.687511,45.6588304 C78.8308708,45.3877987 78.9558264,45.1527103 78.992635,44.8661356 C79.0149139,44.6689334 78.9829485,44.4639596 78.9461399,44.2259569 C78.9081689,43.9850399 78.8677182,43.7173888 78.8843014,43.4239984 L78.9083626,43.1991451 L78.9412967,43 Z M44.6776125,46 L44.6496054,46.051444 L44.6496054,46.051444 L44.5767199,46.1974232 C44.5279971,46.2925567 44.4679753,46.3975676 44.3803919,46.5039647 L44.2830189,46.6105094 L44.1487663,46.7452868 C44.1015965,46.7926193 44.0480769,46.8383474 44,46.8864822 C44.0861756,46.8832732 44.1768868,46.872844 44.2603411,46.872844 C44.5687591,46.8832732 44.8554064,46.8896911 45.1493106,46.9073406 C45.3289187,46.9180372 45.50893,46.9287338 45.6931073,46.9349141 L45.9729681,46.9402327 L45.972061,47.1423987 L46.6224601,47.1423987 C46.6224601,47.2065784 46.6188316,47.2723626 46.6161103,47.3397513 C46.6097605,47.4640995 46.5997823,47.6510229 46.6415094,47.7007621 C46.7104499,47.7825913 47.0642235,47.9125552 47.5994194,48 C47.6217949,47.9422383 47.6490082,47.8859028 47.6813283,47.8307557 L47.733672,47.7488969 L47.863389,47.5659848 L48.1064949,47.55716 C48.4167271,47.5467308 48.7106313,47.5716005 49,47.6141195 C48.8657475,47.5435219 48.7423803,47.4649017 48.6208273,47.3878861 C48.4357765,47.2707581 48.2607039,47.1600481 48.0847242,47.1022864 C47.928701,47.0517449 47.7445573,47.029282 47.5504354,47.0060168 C47.2402032,46.9683113 46.8900581,46.9257922 46.5371916,46.7573205 C46.3929608,46.6887284 46.2492403,46.5899017 46.1113876,46.4737013 L45.9756894,46.3521861 L45.9575472,46.6738869 L45.4241655,46.5679904 C45.1011203,46.5041115 44.8961414,46.2793071 44.7435978,46.0859814 L44.6812409,46.0056157 L44.6776125,46 Z M75.298,46 C75.335,46.2992029 75.411,46.7198038 75.552,47.3157572 C75.5835,47.4463519 75.611625,47.5652207 75.6338437,47.6656384 L75.654,47.7596567 L75.699,47.987 L75.697,47.9534028 C75.6905,47.8792152 75.685,47.801962 75.679875,47.7222563 L75.665,47.4763948 C75.641,47.0876763 75.615,46.6486818 75.524,46.3862661 C75.488,46.289393 75.397,46.147149 75.298,46 Z M79.5911159,46 C79.5021159,46.1301001 79.4211159,46.256351 79.3721159,46.3895304 C79.3241159,46.5204003 79.2901159,46.6243264 79.2631159,46.7090069 C79.2271159,46.8237105 79.1931159,46.9183988 79.1531159,47 C79.1781159,46.9984604 79.2031159,46.9969207 79.2281159,46.9953811 C79.7081159,46.9622787 79.7661159,46.9299461 79.8251159,46.7944573 C79.9061159,46.6081601 79.7461159,46.2994611 79.5911159,46 Z M51.0660313,44.3179138 L51.2251118,44.3460628 L51.1866876,44.4852302 C51.450731,44.5189416 51.7098482,44.5690764 51.9729064,44.6200757 C52.3409907,44.6913017 52.6863753,44.7636342 53.051433,44.7813093 L53.3295771,44.7834461 L53.7305683,44.7748022 L53.825151,45.1153734 C53.8744128,45.2918538 53.8935702,45.5865882 53.8529748,45.8244966 L53.8212101,45.9590219 L53.7394355,46.2192045 L53.4369679,46.2719326 C53.3384442,46.2892205 53.2389353,46.297 53.1394264,46.297 C52.6320296,46.297 52.108869,46.0964606 51.600487,45.9019719 C51.2297565,45.7604583 50.8481684,45.6144992 50.5314163,45.5729629 L50.3787937,45.5614007 L49.9748467,45.5562143 L49.897013,45.208728 C49.8112974,44.8283946 49.9955366,44.605381 50.1127798,44.50684 C50.2677306,44.3756093 50.5578461,44.2450929 51.0660313,44.3179138 Z M47.9879987,39 C47.8005673,39.7137809 47.5547059,40.5073195 47,40.5386169 C47.0242826,40.6496719 47.0660183,40.767794 47.1138247,40.9030793 C47.1252072,40.9353862 47.1373485,40.9676931 47.148731,41 C47.2139905,40.9343766 47.2951855,40.8142352 47.4067337,40.639576 C47.4735109,40.5352515 47.5396136,40.4336194 47.605941,40.3442519 L47.7057133,40.2205957 L47.8696209,40.0449268 C47.9197038,39.9924281 47.981928,39.9268046 47.9963458,39.903584 C47.995587,39.8944977 48.0054518,39.8137304 47.995587,39.5371025 C47.9902752,39.3563857 47.9879987,39.177688 47.9879987,39 Z M23.4480943,38 C23.2413761,38 23.0817776,38.038422 23.036178,38.1484144 C22.9799385,38.2862817 22.9905785,38.8633652 23.0589778,39.3342232 C23.0927553,39.5672666 23.0965084,39.5931603 23.3072297,39.6785797 L23.3964147,39.7139231 L23.4990138,39.7538519 C23.589453,39.7900138 23.6745722,39.8284358 23.7551314,39.8653511 C24.0667286,40.0069851 24.1548878,40.0333532 24.3008064,39.9610294 C24.4383652,39.8939792 24.6146835,39.6197515 24.7127226,39.323676 C24.7405891,39.236787 24.7637266,39.143871 24.7855131,39.0484996 L24.851552,38.7516071 C24.887996,38.5938932 24.9333106,38.4228305 25,38.260667 C24.8586413,38.2365591 24.7028427,38.2019039 24.5341243,38.1664954 C24.236967,38.1001986 23.7809712,38 23.4480943,38 Z M85.849,37.3345 C85.855,37.3525 85.861,37.3647222 85.8652222,37.3717593 L85.87,37.3785 L85.373,38.2595 C85.1746667,38.1503333 85.0235556,37.9800556 84.9295046,37.7625556 L84.88,37.6265 L85.849,37.3345 Z M84.349026,36.297 C84.5708654,36.4344823 84.7354559,36.6330679 84.8322824,36.8759222 L84.875,37.0009604 L83.9770408,37.297 C83.9659091,37.2560759 83.9490053,37.2257129 83.9224816,37.1997503 L83.875,37.1633366 L84.349026,36.297 Z M26.4719198,33.297 L26.6885381,34.2357553 C26.7016735,34.291545 26.7407339,34.3636533 26.7874422,34.4420378 L26.8360228,34.5221426 L26.9263573,34.6746345 C27.070155,34.6810813 27.2131333,34.6971157 27.3460061,34.7216357 L27.5365756,34.764642 L28.875,35.128391 L27.5310449,35.4802383 C27.2740811,35.5475293 26.2843185,36.0540605 26.003067,36.2538695 L25.9483488,36.297 L25.7123731,36.1497151 C25.6515356,36.1159933 25.5833239,36.07599 25.5123811,36.0303664 L25.4044987,35.9577984 L25.2100031,35.8365487 C25.214612,35.8320855 25.2201427,35.8268785 25.2256734,35.8209276 C24.9814017,35.6156214 24.7952021,35.3612202 24.9095028,35.112026 C24.9915413,34.9334989 25.1722101,34.829358 25.4487441,34.7996035 C25.5158036,34.6272132 25.5999736,34.4481282 25.7129205,34.2742734 L25.8358917,34.1026038 L26.4719198,33.297 Z M24.2415294,31.297 L25.6251942,31.8707762 C25.4067879,32.1288931 25.5394455,33.1096677 25.8101709,33.4214703 L25.875,33.4809161 L24.823869,34.297 C23.8165351,33.7641329 23.5926831,31.9515455 24.2415294,31.297 Z M22.9039902,30.297 L22.9039902,30.3077565 L22.9049595,30.6982191 L22.9049595,30.8886099 C23.2801085,31.0327476 23.5951562,31.3328551 23.7609197,31.7265446 C23.9383157,32.1503525 23.9072956,32.5924464 23.6785226,32.9086888 C23.5631667,33.0689613 23.3179143,33.297 22.8671538,33.297 C22.7889574,33.297 22.7042985,33.290307 22.6128898,33.2750088 L22.4706785,33.2453686 L22.5404737,32.8947053 C22.3960365,32.8280147 22.289405,32.7333571 22.2157323,32.6473048 C21.8134407,32.1772438 21.8599708,31.4210588 21.9016541,30.7530774 C21.9081166,30.6447949 21.9150099,30.5403369 21.9188874,30.4432093 L21.922011,30.3034539 L22.9039902,30.297 Z M18,31.1885 C18.032567,31.2145 18.0641762,31.2415 18.0957854,31.2675 C18.3630268,31.4915 18.6063218,31.6935 18.8812261,31.8115 C18.9099617,31.6825 18.9348659,31.5505 18.9597701,31.4205 C18.9722222,31.3505 18.9856322,31.2805 19,31.2115 C18.8084291,31.2347 18.5990804,31.25534 18.3753869,31.24014 L18.2049808,31.2215 L18,31.1885 Z M32.4491516,26.297 L32.875,27.3025617 C32.6881102,27.4149088 32.535623,27.5305929 32.391504,27.6396029 C32.0691732,27.8818473 31.737292,28.1320019 31.205176,28.2564749 L30.995874,28.297 L30.875,27.1802036 C31.3278126,27.1090133 31.5639819,26.9310378 31.8903417,26.6852091 C32.0567759,26.5606263 32.2343677,26.4271446 32.4491516,26.297 Z M66,11 C62.28125,11 59,14.0625 59,18 C59,21.9375 62.0625,25 66,25 C69.9375,25 73,21.9375 73,18 C73,14.0625 69.9375,11 66,11 Z" id="Combined-Shape" fill="#000000" fill-rule="nonzero"></path>
    </g>
</svg>