<?xml version="1.0" encoding="UTF-8"?>
<svg width="90px" height="76px" viewBox="0 0 90 76" version="1.1" xmlns="http://www.w3.org/2000/svg" xmlns:xlink="http://www.w3.org/1999/xlink">
    <title>map_location</title>
    <g id="Page-1" stroke="none" stroke-width="1" fill="none" fill-rule="evenodd">
        <g id="map_location" fill-rule="nonzero">
            <g id="Group" transform="translate(0.000000, 23.000000)" fill="#717171">
                <path d="M39.6037273,10.400754 C39.64745,10.0585022 39.6929946,9.7051504 39.8551332,9.3203484 C39.9434897,9.1122223 40.0464204,8.9355464 40.150262,8.7570204 C40.2950937,8.5072691 40.4444798,8.2491928 40.5692719,7.9115661 C40.7232125,7.4962389 40.7478066,7.1077369 40.7714898,6.7312599 C40.7824205,6.548109 40.7933512,6.360333 40.8234106,6.162382 C40.8889947,5.7193047 41.0584205,5.4760284 41.3152918,5.1078765 L41.4154899,4.9635758 C41.4555691,4.9053005 41.5038463,4.8461001 41.5512126,4.7850498 C41.8071731,4.4631482 42.2817474,3.86282 41.7771137,3.1736915 C41.531173,2.8379147 41.0994106,2.7333892 40.6831333,2.6334887 C40.4426581,2.5752134 40.1438857,2.503063 40.0336679,2.4040875 C39.8396481,2.2292616 39.7321629,2.0673857 39.6183015,1.8971848 C39.3149748,1.4430075 39.0335094,1.1146308 38.1699845,1.0202803 C37.6188954,0.960155 37.0723606,1.0054802 36.5467764,1.0517305 C36.3427368,1.0693055 36.1423407,1.0868806 35.8608754,1.1007557 C35.1695089,1.1340559 34.5164,1.1682811 34.0928356,0.8112292 C33.3030929,0.1443007 33.026182,0.000925 31.8966769,0 C30.7161619,0.00185 29.4755281,0.0388502 28.3733498,0.5485278 C27.2884783,1.0489554 26.7346565,1.4726076 26.5597654,2.4873379 C26.5096664,2.4429377 26.4522802,2.3883624 26.3857852,2.3236121 C26.0879238,2.0331605 25.466696,1.4291324 24.6487157,2.1395361 C24.6405177,2.1460111 24.6332305,2.1543362 24.6250325,2.1608112 L24.687884,1.7020088 L23.9099829,2.0849608 C23.73327,2.1719113 23.2614284,2.2301866 22.8442402,2.2819868 C21.8768738,2.4022375 20.8758044,2.5271131 20.4595271,3.1329913 C20.2901013,3.3790425 20.2390914,3.6759691 20.3128736,3.9913957 C20.4959627,4.7767248 21.3266955,5.6850795 22.0581411,5.8987556 C22.4070124,6.0005061 22.76226,5.9949561 23.1020224,5.9875561 C23.1120422,5.9875561 23.1211511,5.9875561 23.1311709,5.9875561 C23.0200422,6.0106812 22.8843194,6.0319563 22.7139828,6.0560064 C22.5773491,6.0754315 22.436161,6.0948566 22.2722006,6.1253818 C21.4350915,6.2798576 21.1836856,6.2410074 21.1089925,6.2058572 C21.0488737,6.174407 21.0133489,6.1161317 20.9350123,5.970906 C20.8639628,5.8377053 20.7756063,5.6739794 20.6234875,5.5222787 C20.0687548,4.9709758 19.2762794,4.8396251 18.6022199,5.1892769 C17.9217842,5.5435538 17.5592495,6.2881826 17.6794872,7.0864618 L17.7150119,7.326038 C17.4262594,7.1040369 17.0983386,6.8931358 16.6920811,6.8043353 C16.4607147,6.75161 16.2366355,6.7710351 16.0380612,6.7876852 C15.8540612,6.8024853 15.680081,6.8172854 15.596279,6.7664101 C15.5598434,6.745135 15.4979028,6.6350594 15.4514473,6.554584 C15.3539819,6.3843831 15.2328334,6.171632 15.0096651,6.0162312 C14.6680809,5.77758 14.2618234,5.6332792 13.8692293,5.4945285 C13.4074075,5.3308027 12.9710906,5.1754019 12.6841599,4.8932754 C12.615843,4.826675 12.5648331,4.7471246 12.5129123,4.6721992 C12.3699024,4.4631482 12.1731499,4.1782467 11.7896647,4.0727961 C11.3752092,3.9590205 10.9543775,4.2022968 10.6164368,4.3983978 C10.5371893,4.4437231 10.4661398,4.4871983 10.4096645,4.5112484 C10.1573477,4.622249 9.9095853,4.7054994 9.6681991,4.7878248 C9.1398822,4.9672758 8.59334751,5.1532017 8.07231775,5.5740789 L7.96483259,5.6591794 C7.65421869,5.9052306 7.6123177,5.973681 7.4046345,6.4482085 C7.34087212,6.5943592 7.30625826,6.7062848 7.26982261,6.8561356 C7.26800083,6.8579856 7.24431765,6.8783357 7.15869388,6.9208859 C7.08217902,6.9588111 7.03481268,6.9569611 6.94281267,6.9523361 C6.47552549,6.937536 6.21045615,7.1502871 6.07017891,7.6895649 C5.95905018,8.1215421 6.08019871,8.5951446 6.37806013,8.9170463 C5.94174325,8.9614465 5.37243625,9.0733721 5.11192137,9.6552001 C4.59544607,10.0890273 4.44150546,10.8299562 4.52075299,11.3840341 C4.62095102,12.0972128 4.99897086,12.3108889 5.2749709,12.4681397 C5.30320852,12.4847898 5.33053526,12.4995899 5.3569511,12.5153149 C4.66011934,13.1646683 3.50237664,13.7686964 2.68075278,14.0082727 C1.7370695,14.2820741 0.93184169,14.3403494 0,14.4087998 L0,14.8948898 L1.93815137,15.5992809 C2.21824866,15.8410155 2.87689802,15.7691735 3.91409945,15.3837548 C5.17750554,14.9138524 6.16764427,14.463375 7.26708993,13.9314973 C7.61049591,13.7649964 7.85461475,13.5716704 8.04863458,13.4162696 C8.35924847,13.1692933 8.50043661,13.0481177 8.97136736,13.0360926 C9.0560802,13.0370176 9.1644763,13.0351676 9.2783377,13.0323926 C9.5843971,13.0249926 10.2192883,13.0101925 10.4032883,13.1285931 C10.7794864,13.3690944 10.6893081,14.3505245 10.6182586,15.1395536 C10.5645161,15.7306316 10.5135061,16.2884095 10.6118824,16.7222368 L10.6801992,17.0256383 L10.9826151,17.0792886 C11.3241993,17.1394139 11.5664964,17.2837147 11.7022192,17.5066408 C11.8634469,17.7721172 11.8807538,18.1615442 11.7495855,18.6009215 C11.3834072,19.8293279 11.2057835,21.0595843 11.2048726,22.360141 C11.2039617,23.4359216 11.5874469,23.9890745 11.9581796,24.5237272 C12.1467341,24.7956787 12.3252687,25.051905 12.4646351,25.3941568 L12.5174668,25.5245824 C12.9601599,26.6086881 13.46115,27.8380194 14.4631304,28.5585982 L15.0397245,28.9739253 C15.1116849,29.1506013 15.2082394,29.3282022 15.3503384,29.4993281 C15.54618,29.7379793 16.1920018,30.4770581 16.5709326,30.7517846 C17.0518831,31.1005114 17.5765565,31.0875613 18.0347347,31.0755362 C18.300715,31.0699862 18.5530318,31.0616612 18.7643586,31.1273365 C19.1442002,31.2429621 19.3646359,31.4834634 19.6442795,31.7868649 C19.7189725,31.8682654 19.7945765,31.9496658 19.8729131,32.0292162 C20.3984974,32.5610939 20.862141,32.6979947 21.3540222,32.8422954 C21.5553292,32.9005707 21.774854,32.965321 22.0244381,33.0679966 C22.1155273,33.1059218 22.1993293,33.1290469 22.2758441,33.143847 C22.2758441,33.146622 22.2758441,33.150322 22.2758441,33.153097 C22.2712897,33.2511475 22.2658243,33.2640976 22.0827352,33.3963733 C21.9205965,33.5119989 21.69925,33.6729497 21.5407549,33.9708013 C21.1809529,34.6442048 21.2629331,35.7643856 21.3740618,36.6662652 C21.4861015,37.573695 22.0098639,38.4283994 22.9754086,39.2757038 C23.1311709,39.4126045 23.3361215,39.5495052 23.5538245,39.6919559 C23.926379,39.9361572 24.3472107,40.2118086 24.4720028,40.5226103 C24.6450721,40.9555125 24.5148147,41.9415676 24.4291909,42.593696 C24.3973097,42.8314222 24.3690721,43.0460234 24.3535869,43.2226993 C24.2588542,44.3160549 24.2388146,45.4649109 24.2934681,46.638742 C24.3116859,47.017069 24.2934681,47.4379461 24.2770721,47.8708484 C24.2406364,48.7949282 24.202379,49.7523081 24.4528741,50.5635374 C24.6086365,51.069515 24.7616662,51.2212158 25.0722801,51.4450669 C25.1469732,51.4977922 25.2362405,51.5625425 25.3501019,51.656893 C25.4621415,51.7503185 25.5696267,51.9084943 25.6834881,52.0786952 C25.8656663,52.3487966 26.0715277,52.6531232 26.3930723,52.814074 C26.6344585,52.9361747 27.0015476,53 27.3877655,53 C27.9097061,53 28.4662607,52.8834494 28.7932706,52.6373981 C29.0619835,52.4348221 29.1876865,52.1434456 29.1357657,51.836344 C29.0647162,51.4136168 28.6794092,51.1268653 28.3059438,50.8502888 C28.1401616,50.7281882 27.9352111,50.5755624 27.868716,50.4802869 C27.6255081,50.1287851 27.5535477,49.4812817 27.6564784,48.5525769 C27.6874487,48.2695255 27.7566764,47.9624239 27.8696269,47.611847 L27.9069735,47.4943714 C27.94432,47.3759708 27.9625378,47.3093705 28.0080824,47.2612702 C28.0763992,47.20947 28.1729537,47.1354696 28.3168745,47.0059689 C28.4671716,46.8709182 28.6174686,46.7691677 28.7531914,46.6766672 C29.1075281,46.4333909 29.5301816,46.1438644 29.5711717,45.5074611 C30.6305381,45.2595598 31.3546966,43.6574515 31.6434491,42.600171 C31.7709739,42.1367436 32.0934294,41.9286176 32.5015086,41.6649912 C32.966974,41.3662146 33.5463008,40.9925127 33.7922415,40.1627834 C33.9143009,39.7520813 33.905192,39.3404541 33.8960831,38.9436271 C33.8842415,38.4376494 33.8751326,38.0010472 34.1429346,37.6809955 C34.2476871,37.5551949 34.4216673,37.4303192 34.5892713,37.3072936 C34.9463406,37.0492172 35.3507763,36.7541407 35.3844793,36.2574131 C35.4063407,35.9225614 35.2469347,35.5951097 34.8953307,35.260258 C34.3524395,34.7422553 32.9642414,34.2714278 32.4760037,34.1336021 C32.2027363,34.0559017 31.9003205,34.0290766 31.6088353,34.0013264 C31.2080431,33.9661762 30.7535084,33.924551 30.6013896,33.7497251 C30.5613104,33.7025499 30.5257856,33.542524 30.5011916,33.4250484 C30.4583797,33.2298724 30.4091916,33.0087963 30.2834886,32.8071452 C30.0047559,32.3640679 29.225033,31.6823394 28.7832508,31.4390631 C28.1966369,31.1116114 27.4642803,30.7952598 26.7209931,30.5473585 C25.4530326,30.1246313 24.4947751,30.5621586 23.6485571,30.9460356 C23.1985769,31.1513866 22.7668145,31.3474877 22.2977055,31.423338 C22.2986164,31.419638 22.2995273,31.415938 22.3004382,31.412238 C22.4161214,31.021886 22.5746164,30.4872332 22.2148144,29.9599805 C21.9324381,29.5465033 21.5699034,29.4410528 21.2410717,29.4216277 C21.2793292,29.3420772 21.3130321,29.2551268 21.3376262,29.1598513 C21.4414678,28.7426741 21.3995668,28.5724733 21.3030123,28.2579716 L21.1445173,27.7131438 L20.7838043,27.7288689 C20.3565964,27.746444 20.1789726,27.9813952 20.0277647,28.1719462 C19.3455071,28.5798733 18.7261011,28.5410231 18.5411902,28.3578721 C18.3981803,28.2163464 18.45921,27.8574445 18.6996853,27.4199173 C19.1104972,26.6715884 19.3209131,26.4680873 20.0186557,26.4680873 C20.4968736,26.4690123 20.5815865,26.6225631 20.7655865,26.9611149 C20.9413885,27.2830166 21.1818638,27.7242439 21.8149332,27.8639196 C22.2029728,27.94902 22.5144976,27.9129448 22.7604382,27.748294 C23.1193294,27.5087177 23.2003987,27.0896906 23.2659828,26.7529888 C23.2960423,26.592963 23.3251908,26.4412622 23.3762007,26.3247116 C23.5091908,26.016685 23.6367156,25.7715587 23.7660621,25.5236574 C23.892676,25.2803812 24.0202007,25.0334049 24.1568344,24.7281533 C24.4355671,24.1028501 24.8964781,23.7291481 25.4311712,23.2980959 C25.5477653,23.2028204 25.667092,23.1066199 25.7864188,23.0067194 C25.918498,22.8957188 26.0323594,22.7791682 26.1398446,22.6672426 C26.3047159,22.4979667 26.4340624,22.363841 26.5998446,22.2981657 C26.6982209,22.2593155 26.8348545,22.2611655 26.9951714,22.2630155 C27.2447556,22.2648655 27.5581021,22.2694905 27.8832903,22.1122397 C28.2057458,21.9568389 28.4225379,21.8116132 28.6129141,21.6830375 C28.9217063,21.4758364 29.091132,21.3611358 29.6230925,21.3148856 C30.5139441,21.2371852 31.4348551,21.1557848 31.351964,19.5749516 C31.310063,18.7387472 30.9056273,18.2568197 30.5139441,17.7915423 C30.4046371,17.6620416 30.2916866,17.528841 30.1832906,17.3799152 C29.878142,16.964588 29.6823004,16.4151352 29.6613499,15.9119326 C29.6385776,15.3772798 29.8398846,14.8250519 30.0530331,14.2404489 C30.3654688,13.3820444 30.7207164,12.4089394 30.321746,11.3821841 C30.2115282,11.0982076 30.0320826,10.7800059 29.8590133,10.4719793 L29.6823004,10.1537777 C29.5811915,9.9650767 29.4308944,9.8540761 29.3215875,9.7736007 C29.2897063,9.7504756 29.2414291,9.7153254 29.2432508,9.7227254 C29.2277657,9.6829502 29.2241221,9.5571496 29.2213895,9.4738992 C29.216835,9.3194234 29.2113697,9.1436724 29.158538,8.9743966 C29.0610726,8.6534199 28.7805181,7.8708658 28.2503794,7.3362131 C28.5236468,7.1854373 28.7632112,6.9745362 29.0373894,6.6165593 C29.1266568,6.5 29.2259439,6.3372079 29.3334291,6.158682 C29.4454687,5.972756 29.5447558,5.8173552 29.6331123,5.6934045 C29.6139836,6.3871581 29.685944,7.2733127 30.7106966,7.5619142 C30.9812312,7.6386896 31.218063,7.6183395 31.3911323,7.6053895 C31.6061026,7.5878144 31.6061026,7.5878144 31.6516472,7.6488647 C31.7691521,7.8412657 31.7655086,8.7283453 31.6753303,9.2093478 C31.6070135,9.5663996 31.527766,9.9114264 31.4494293,10.2527532 C31.2453897,11.1453828 31.0340629,12.0685376 31.0459045,13.1239681 C31.0550134,13.9157722 31.4157263,14.4883502 31.7345383,14.9934028 C31.9813898,15.3828298 32.1927165,15.7186066 32.2154888,16.0960085 L32.2400829,16.5187357 L32.6563601,16.5363108 C33.6018652,16.577011 34.2294692,16.3920101 34.6794495,15.3227045 C34.7541426,15.1469536 34.7860238,14.9286525 34.8169941,14.7177514 C34.8361228,14.5910257 34.868004,14.3782746 34.9445188,14.3014992 C35.0711327,14.3005742 35.2833703,14.2977992 35.5211129,14.1294483 C35.8626971,13.8880221 36.0075288,13.5476203 36.123212,13.2728939 C36.2243209,13.0323926 36.2935487,12.8806918 36.4074101,12.8020664 C36.4793705,12.7715413 36.7307765,12.7419411 36.851925,12.727141 C36.9840042,12.711416 37.0987765,12.6956909 37.1716478,12.6790408 C37.3201231,12.6429656 37.4941033,12.5791403 37.6671726,12.5134649 C37.7773904,12.4718397 37.8876083,12.4302145 37.9887172,12.3996893 C39.4024203,11.9714121 39.505351,11.173133 39.6037273,10.400754 Z M22.1463334,34.1409237 C22.1998207,34.0389012 22.2755943,33.9789981 22.4048551,33.8825915 C22.6205871,33.7216019 22.9477508,33.4782456 22.9744944,32.9110381 C22.9878662,32.6283703 23.011044,32.1332338 22.5590767,31.9797321 C23.0074782,31.8617978 23.4113069,31.6727287 23.7857177,31.4958273 C24.5630658,31.1307928 25.2343308,30.8153655 26.1418312,31.1270489 C26.8175535,31.3601094 27.4799039,31.6549449 28.0076448,31.9600764 C28.3214367,32.1397857 28.9641752,32.720097 29.1478148,33.0252284 C29.1852558,33.0860675 29.2137824,33.2180415 29.240526,33.3453356 C29.289556,33.5755881 29.3501749,33.8629358 29.5418375,34.0931884 C29.9305116,34.5565014 30.5661184,34.6164045 31.1268431,34.6678838 C31.3826905,34.6912834 31.6242745,34.714683 31.8123714,34.7689702 C32.4274748,34.9486795 33.4918711,35.3792331 33.8038801,35.6862365 C33.9696906,35.850034 33.9955427,35.9333368 34,35.9333368 C33.9687991,36.0175755 33.737021,36.1916689 33.5970627,36.2955633 C33.397377,36.4462571 33.171839,36.6156705 32.9980055,36.8309473 C32.5121629,37.4309143 32.5282091,38.1291598 32.5415809,38.7450386 C32.5487126,39.0876095 32.5567356,39.4114606 32.4782877,39.6828965 C32.3338721,40.185521 32.0075999,40.4026697 31.5948566,40.6769136 C31.1455636,40.9754931 30.5866218,41.3480155 30.3682156,42.1698112 C30.0900819,43.2209234 29.4000963,44.6024387 28.8349143,44.4330253 L28.111945,44.2308523 L28.2786469,44.9964888 C28.3722496,45.4289143 28.3098478,45.4729057 27.9042361,45.7611893 C27.7419915,45.8763156 27.5645921,46.0026737 27.3845183,46.1711512 C27.2695207,46.2778536 27.1928557,46.3396287 27.1375855,46.38362 C26.8826296,46.585793 26.8442971,46.6868795 26.7230593,47.0865455 L26.6874012,47.2016717 C26.5581403,47.6163135 26.477018,47.9897719 26.4404683,48.3407666 C26.3112075,49.5500605 26.427988,50.3774721 26.8077475,50.9428076 C26.9584032,51.1665083 27.2035531,51.3537055 27.44068,51.5371587 C27.5628092,51.6307573 27.7491231,51.7730272 27.8427258,51.8656898 C27.5619177,52.0051517 26.7934842,52.0613108 26.5028701,51.9096811 C26.39857,51.8553939 26.2675262,51.6560289 26.1516372,51.4781916 C26.0152447,51.2694667 25.8610231,51.0335983 25.6506399,50.852953 C25.5204876,50.7415706 25.4161875,50.6638838 25.3306079,50.6002368 C25.1416196,50.4598389 25.1416196,50.4598389 25.064063,50.1977628 C24.8661602,49.5332128 24.9000355,48.649642 24.9330193,47.7950868 C24.9508484,47.3270939 24.967786,46.8740766 24.9490655,46.4650508 C24.8973611,45.319404 24.9160816,44.1990288 25.0052271,43.1357487 C25.0194903,42.9691432 25.0453425,42.7660343 25.073869,42.5423336 C25.1835179,41.6924584 25.3190189,40.6347942 25.0578229,39.9618203 C24.8278277,39.3712132 24.2653201,38.9893309 23.8124613,38.6832635 C23.6386278,38.5643933 23.4728173,38.4558189 23.3480137,38.3416286 C22.5786887,37.6433831 22.1659454,36.9760251 22.0857145,36.2983713 C21.9537793,35.2004598 21.9742828,34.4741347 22.1463334,34.1409237 Z M18.2049808,8.2215 C18.493295,8.2655 18.7605364,8.2405 19,8.2115 C18.9856322,8.2805 18.9722222,8.3505 18.9597701,8.4205 C18.9348659,8.5505 18.9099617,8.6825 18.8812261,8.8115 C18.6063218,8.6935 18.3630268,8.4915 18.0957854,8.2675 C18.0641762,8.2415 18.032567,8.2145 18,8.1885 L18.2049808,8.2215 Z M38.6218266,10.3714998 C38.5344783,11.0562925 38.4980831,11.340231 37.6591753,11.5944765 C37.5399812,11.6306647 37.4107785,11.6789157 37.2806658,11.7280946 C37.1441841,11.7800572 37.0086122,11.8329477 36.8939675,11.8607848 C36.8466538,11.8719196 36.7684043,11.8802707 36.6801461,11.8904777 C36.3189244,11.9331612 36.0486905,11.973989 35.8603457,12.1001838 C35.483656,12.3516457 35.3326162,12.7116722 35.2116024,13.001178 C35.1160651,13.2303702 35.0505539,13.3751231 34.870398,13.4632739 C34.7020705,13.4651297 34.3890723,13.4697693 34.0915421,13.8669119 C33.9323133,14.0794018 33.8886392,14.3716914 33.8431453,14.682539 C33.8240378,14.8133734 33.7976513,14.9924587 33.7694451,15.057412 C33.575641,15.5195078 33.4218716,15.6781793 33.0033275,15.7069443 C32.8905026,15.2884599 32.6684922,14.9349287 32.4519412,14.5906766 C32.176248,14.1517782 31.9151129,13.7370054 31.9087438,13.21274 C31.8987351,12.2681344 32.0879898,11.435805 32.2881631,10.5561526 C32.3682324,10.2026214 32.4501214,9.8453786 32.5201821,9.4751452 C32.5229117,9.4584429 32.7986049,7.8123423 32.333657,7.1748726 C31.9833538,6.6942187 31.5493418,6.7285511 31.2609104,6.7517487 C31.1280681,6.7619556 31.0125136,6.7712347 30.8987788,6.738758 C30.5157199,6.6301933 30.4711359,6.3926501 30.5066212,5.5723835 C30.5166298,5.3450472 30.5257286,5.1167829 30.5129903,4.9005814 L30.4911532,4.5340596 L30.1372105,4.4663226 C29.3465262,4.3169302 28.8524622,5.1436921 28.4912405,5.7468293 C28.4038922,5.8915822 28.3265525,6.0252003 28.2537622,6.1198465 C27.8852615,6.6032842 27.7023759,6.6571025 26.8889446,6.8937179 L23.9127324,7.7622355 L27.0081387,7.8160539 C27.5658942,7.8253329 28.0108247,8.6428158 28.2228264,9.3415271 C28.2373844,9.389778 28.2410239,9.5020543 28.2437536,9.5929889 C28.2501227,9.7887765 28.2574018,10.0096175 28.3538489,10.2137563 C28.450296,10.4206787 28.6086148,10.5385224 28.7241694,10.6229616 C28.7578349,10.648015 28.8087881,10.6851312 28.8160671,10.6925544 L29.0016823,11.0293833 C29.1518122,11.2966195 29.3210496,11.599116 29.4065782,11.8208849 C29.6749923,12.5168125 29.4238659,13.2118121 29.130885,14.0172323 C29.0408071,14.2668383 28.9534587,14.5201559 28.877029,14.778113 C28.6704866,14.5813975 28.3556686,14.4236539 28.0262926,14.2872521 C27.5577053,13.962486 26.9526361,13.7917517 26.4321857,13.7861843 C26.2511199,13.7750495 26.0718738,13.7787611 25.8962673,13.7824727 L25.5941877,13.7852564 C25.4385985,13.7834006 25.1346991,13.7147358 24.8408084,13.6488546 C23.8808867,13.4307973 22.4305405,13.1013916 21.9937989,14.1898223 C21.7736083,14.7428527 21.9419358,15.998306 21.9619531,16.1402752 C22.0793274,16.9623976 22.4105232,17.1340598 22.9409823,17.3474775 L23.0574467,17.3948006 C23.1511642,17.4337725 23.2385125,17.4746003 23.3231312,17.5135722 C23.571528,17.6295602 23.8581397,17.7650341 24.1902453,17.7650341 C24.3704012,17.7650341 24.5632955,17.7251342 24.7698379,17.6202811 C25.3585292,17.3242799 25.6542397,16.5225714 25.7297596,16.2850281 C25.7898115,16.0966638 25.8353055,15.8878855 25.8807994,15.6763235 C26.0436676,14.9154427 26.1419345,14.73079 26.4003399,14.7261504 C26.5804959,14.7382132 26.7451839,14.7697619 26.8989533,14.8421384 C27.0154177,14.8978126 27.1746465,14.9590542 27.3475234,15.0267911 C27.4194038,15.0537003 27.5031126,15.086177 27.5904609,15.1223652 C27.6950969,15.2068044 27.7788057,15.3033064 27.8315787,15.4090873 L28.0190136,15.3125854 C28.1263793,15.3664038 28.2137276,15.4202222 28.2601314,15.4675453 L28.8506425,14.8699755 C28.7423669,15.2541275 28.666847,15.6475585 28.6841347,16.0614034 C28.7132508,16.747124 28.9762057,17.4922305 29.3874707,18.0554678 C29.5084846,18.2215625 29.6340478,18.3718829 29.7550616,18.5166358 C30.0980858,18.9267691 30.3464826,19.2227703 30.372869,19.744252 C30.4083543,20.4225494 30.3910666,20.4244052 29.4866475,20.5042049 C28.7223496,20.5710139 28.3947934,20.7927828 28.0481297,21.0256866 C27.8870813,21.1342513 27.7041957,21.2585903 27.4312322,21.3912805 C27.2992998,21.4543779 27.1437106,21.4543779 26.9526361,21.4506663 C26.7278962,21.4488105 26.4767697,21.4450989 26.2110852,21.5508799 C25.8626018,21.6900654 25.6324026,21.9276087 25.4304096,22.1373148 C25.3430612,22.2273215 25.2529833,22.3228955 25.1456176,22.4129022 L24.8053231,22.693129 C24.2311898,23.1598644 23.6370393,23.6414462 23.2676286,24.4756314 C23.1402456,24.7623535 23.0201417,24.9934015 22.9018575,25.2225936 C22.7626461,25.4916856 22.6261643,25.7561381 22.4833134,26.0892554 C22.3932355,26.3008174 22.3513811,26.5207305 22.3140761,26.7137344 C22.2885995,26.8454967 22.2467451,27.0644819 22.2103499,27.1062375 C22.2103499,27.1062375 22.1475683,27.1312909 21.9646828,27.0904632 C21.7490416,27.0422122 21.6789809,26.9280801 21.5279411,26.6487811 C21.3168493,26.2599896 20.997482,25.6726268 19.980238,25.6698431 C18.7364342,25.6698431 18.2978728,26.2933941 17.8529423,27.1071654 C17.2160274,28.2716842 17.5808886,28.9045143 17.8556719,29.1782458 C18.3870409,29.7071507 19.426122,29.7052949 20.3578375,29.185669 C20.3350905,29.2283526 20.3077942,29.2747477 20.2768583,29.3229987 C20.1722223,29.4974446 20.0411998,29.7117902 20.0184529,30.0077914 L19.9820577,30.4884454 L20.4542846,30.5134988 C20.6016849,30.5199941 20.7418062,30.5172104 20.8737386,30.511643 C21.259527,30.4986523 21.3223086,30.5134988 21.4132964,30.6471169 C21.5097436,30.790014 21.4769879,30.9477576 21.3741717,31.2975771 C21.3122999,31.510067 21.2422393,31.7457545 21.2422393,32 C20.9683659,31.9053539 20.7427161,31.788438 20.4806711,31.5221298 C20.4097006,31.4506812 20.3423696,31.3773768 20.2750386,31.3031446 C19.9602206,30.9607482 19.6035483,30.5728846 18.9875606,30.3845202 C18.7291552,30.3047205 18.4707497,30.2880182 18.228722,30.2880182 C18.1404638,30.2880182 18.0549353,30.289874 17.9712265,30.2926578 C17.5526824,30.3028647 17.2851781,30.3010089 17.0658975,30.1432653 C16.8284192,29.9706753 16.2952304,29.387024 16.0168077,29.0474114 C15.8575789,28.8544075 15.7984368,28.6279991 15.7238268,28.3412769 C15.6519464,28.0684733 15.5709672,27.7604094 15.3826224,27.4523455 C15.280716,27.2853229 15.1651615,27.1229398 15.0459674,26.9596288 C15.0241303,26.8659105 14.9995636,26.7768318 14.9713574,26.6923926 C14.8230472,26.2395757 14.5619121,25.9472862 14.3326227,25.6884011 C14.2270768,25.5696295 14.1315396,25.4629206 14.0505604,25.3469327 C14.0223542,25.2420796 14.0032468,25.1344428 13.9968776,25.0249502 L13.9313664,24.6639958 L13.6820597,24.6064658 L12.4318868,22.9640768 L12.7239577,24.1870534 C12.7075799,24.1638559 12.6912021,24.1397304 12.6757342,24.1174607 C12.348178,23.643302 12.0897725,23.269357 12.0906824,22.4889902 C12.0915922,21.2762205 12.2571901,20.1311877 12.594755,18.9889386 C12.8031172,18.2865158 12.7512541,17.6239927 12.4491745,17.1257086 C12.2271641,16.7591868 11.8832301,16.4947343 11.4446687,16.3499814 C11.43466,16.0632592 11.4683255,15.6930258 11.5010812,15.3302156 C11.6011678,14.2278663 11.7139927,12.9798363 10.8596169,12.4305175 C10.4401629,12.1623534 9.7650332,12.1790556 9.2236555,12.1901905 L8.94432286,12.19483 C8.22278929,12.1827672 7.79241681,12.5001102 7.44757289,12.7756975 C7.26286758,12.9223063 7.0890808,13.0614918 6.83704449,13.183975 C6.21286791,13.4873994 5.62417658,13.7639146 5,14.0320787 C5.53045911,13.6915382 6.01269466,13.2971792 6.34116076,12.8842622 L6.56408097,12.6049633 L6.35844845,12.3145295 C6.13279861,11.9953308 5.87985241,11.8505778 5.69423722,11.7457248 C5.48314543,11.6250973 5.43947127,11.6000439 5.40307613,11.3448705 C5.3539427,10.994123 5.47222689,10.6201779 5.68604831,10.4550111 L5.59869999,10.3380953 L5.86893387,10.3640766 C5.90077962,10.0216802 5.97538964,9.9771409 6.58773781,9.9261062 C6.80519874,9.908476 7.02447944,9.8871343 7.22101317,9.832388 C7.58314478,9.7321744 8.0326247,9.6078353 8.04627288,9.1707928 C8.05901118,8.7625153 7.68778079,8.6344647 7.41663703,8.5407464 C7.30927138,8.5036303 7.08635117,8.4275422 7.02993871,8.3727959 C6.93895087,8.2846451 6.89800634,8.1361806 6.92985208,8.0118415 C6.9334916,7.9979229 6.93713111,7.9858602 6.94077063,7.9737975 C7.07634251,7.9793649 7.28925405,7.9663742 7.5358311,7.8429631 C7.95437516,7.6314011 8.04445312,7.4235507 8.12634218,7.1535309 C8.14544963,7.0895055 8.16910646,7.0106337 8.23461771,6.8612413 C8.35108214,6.5921493 8.35108214,6.5921493 8.49757257,6.4761614 L8.61221724,6.384299 C9.0052847,6.0651002 9.4311078,5.9203473 9.9242619,5.7514688 C10.1899464,5.6614622 10.4610902,5.567744 10.7395129,5.4452607 C10.8204921,5.4090725 10.9233084,5.3515425 11.0352234,5.2856613 C11.1644262,5.2105012 11.4337502,5.0546134 11.5101799,5.0509018 C11.5638628,5.0657482 11.6166357,5.1362689 11.7176322,5.2819497 C11.8031608,5.4062888 11.8923289,5.5324836 12.003334,5.6419762 C12.4355263,6.0678839 13.0132991,6.2738784 13.5237408,6.4557475 C13.874044,6.5810145 14.2061496,6.6988582 14.4454477,6.8668087 C14.4973107,6.9029969 14.5546331,7.0041384 14.6110455,7.1034241 C14.7129519,7.2825094 14.839425,7.5061342 15.0823625,7.6536708 C15.4217472,7.8587374 15.7829689,7.8281166 16.0714004,7.8030632 C16.2178908,7.7900726 16.3561923,7.7789377 16.455369,7.8012074 C16.7692771,7.8698723 17.0349616,8.0870017 17.3425005,8.3384635 C17.7619544,8.6808598 18.2387307,9.0687235 18.9420667,9.1392441 L19.3023786,9.1754324 L19.4224825,8.8274686 C19.5252988,8.5314674 19.5844409,8.2243314 19.6426731,7.9283302 C19.6918065,7.6759405 19.7382103,7.4254066 19.8164599,7.199926 L20.0139035,6.6246259 L19.4179331,6.575447 C19.1704462,6.5559611 18.940247,6.5837982 18.7364342,6.6088516 C18.6763822,6.6162748 18.61815,6.6227701 18.5617375,6.6283375 C18.6272488,6.3685246 18.8001257,6.1894392 18.977552,6.0975768 C19.2259488,5.9676703 19.6071878,5.9435448 19.9311045,6.2673831 C19.9847874,6.3212015 20.0275516,6.4019291 20.077595,6.4947195 C20.1795013,6.6867955 20.3196226,6.9475363 20.6362603,7.1154868 C21.0657229,7.3428232 21.7654194,7.2398259 22.4068837,7.1210542 C22.5360864,7.0978567 22.6652891,7.0792986 22.7890326,7.0625963 C23.4523339,6.9688781 24.3622123,6.8408274 24.4668484,5.7384782 L24.5014237,5.3821633 L24.1738675,5.2559684 C23.8053668,5.1130713 23.4150289,5.1195666 23.0356096,5.126062 C22.7517276,5.1307015 22.478764,5.1344131 22.262213,5.0722436 C21.8454887,4.9506882 21.2695357,4.309507 21.1630799,3.8474111 C21.1457922,3.7722509 21.1603502,3.751837 21.1685392,3.7397743 C21.3486951,3.4753218 22.3240847,3.3537665 22.9064069,3.28139 C23.0119528,3.2674715 23.1156789,3.2554087 23.2148557,3.2424181 C23.1538938,3.3379921 23.0983912,3.4326383 23.0547171,3.5235728 L22.7944919,4.0710358 L23.3795437,4.1888795 C24.0464845,4.3224976 24.3995173,4.1888795 24.6133388,3.9476246 C24.5560164,4.3085791 24.6615623,4.5377712 24.7716576,4.6639661 C24.8753838,4.7836656 25.0619088,4.9172837 25.3812761,4.9172837 C25.4185812,4.9172837 25.4577059,4.9154279 25.4986505,4.9117163 L25.374907,4.0431987 L24.6633821,3.8826714 C24.761649,3.7499812 24.8326195,3.5950214 24.8899418,3.435422 C24.9600024,3.2414902 25.0209643,3.0735396 25.1965708,2.9195077 C25.3776366,2.7617641 25.3776366,2.7608362 25.6942743,3.069828 C25.9654181,3.3342805 26.3739535,3.7351348 26.9872115,3.6265701 L27.3548024,3.5616168 L27.3684506,3.1821043 C27.4048457,2.2189406 27.5913708,1.9786136 28.6977829,1.4654831 C29.6304083,1.0330801 30.7186228,0.9941081 31.8341337,1.0006035 C32.737643,1.0015314 32.8040641,1.0581335 33.4400691,1.5953895 C34.1397656,2.1873919 35.0441847,2.1419246 35.9276767,2.0973853 C36.1323993,2.0871783 36.3425812,2.0686203 36.5573125,2.0509901 C37.0404579,2.0092345 37.5399812,1.9665509 38.0021994,2.0175856 C38.5080918,2.0732598 38.5836117,2.1873919 38.7856047,2.4908163 C38.9129877,2.6828923 39.0713065,2.9204356 39.3515491,3.1746811 C39.6354311,3.4317104 40.0412369,3.5300681 40.3988191,3.6163631 C40.5862541,3.6618304 40.901072,3.7379185 40.9647635,3.8056554 C41.0211759,3.8817435 41.0439229,3.9132922 40.7618606,4.270535 C40.6999889,4.3484789 40.6399369,4.4254949 40.5880738,4.501583 L40.4916267,4.6416964 C40.2068348,5.0509018 39.9384206,5.4369096 39.8401538,6.1031442 C39.8064883,6.3295527 39.79375,6.5448262 39.7801018,6.7545324 C39.7591746,7.0904334 39.740977,7.3808672 39.636341,7.6657335 C39.538984,7.9292581 39.4161504,8.1426759 39.285128,8.3690843 C39.1622944,8.5815742 39.0412805,8.7940641 38.9375544,9.0408864 C38.7264626,9.54381 38.6682304,10.0021943 38.6218266,10.3714998 Z M25,15.260667 C24.9110808,15.476885 24.8601613,15.7089238 24.8176017,15.9040474 C24.785682,16.0494483 24.7545223,16.1933425 24.7127226,16.323676 C24.6146835,16.6197515 24.4383652,16.8939792 24.3008064,16.9610294 C24.1548878,17.0333532 24.0667286,17.0069851 23.7551314,16.8653511 C23.6745722,16.8284358 23.589453,16.7900138 23.4990138,16.7538519 L23.3964147,16.7139231 C23.0969775,16.596397 23.0969775,16.596397 23.0589778,16.3342232 C22.9905785,15.8633652 22.9799385,15.2862817 23.036178,15.1484144 C23.0817776,15.038422 23.2413761,15 23.4480943,15 C23.7809712,15 24.236967,15.1001986 24.5341243,15.1664954 C24.7028427,15.2019039 24.8586413,15.2365591 25,15.260667 Z" id="Shape"></path>
                <path d="M56.8943772,37 L56.8533508,37.573057 L56.3091223,37.373057 C56.2814923,37.4797927 56.1081764,37.8435233 55.966677,38.1378238 C55.2558309,39.6259067 54.7434189,40.8217617 55.1361007,41.557513 C55.24997,41.7689119 55.4718478,42 55.9038814,42 C55.9750498,42 56.0529163,41.9937824 56.1349692,41.9803109 C57.0618321,41.8290155 58.0230233,39.8031088 57.9995796,38.4953368 C57.9845087,37.6321244 57.5725696,37.0735751 56.8943772,37 Z M56.1377082,40.9773136 C56.0616022,40.9956788 56.0174735,40.9913576 56.0014849,41 C55.9695076,40.5624775 56.4625976,39.1548434 56.6525428,38.6146921 C56.7414398,38.360821 56.8098712,38.1620454 56.862314,38 C56.9492923,38.0561757 56.9959791,38.1760893 56.9998164,38.453727 C57.0119678,39.4519265 56.4178294,40.9168167 56.1377082,40.9773136 Z" id="Shape"></path>
                <path d="M83.7613269,39.9814446 C83.6894773,39.8395151 83.6213602,39.6901644 83.5513768,39.5380308 C83.2145237,38.8033367 82.831948,37.9721677 81.9604221,37.577919 L81.6664921,37.4443383 L81.8073919,37.2810729 C81.8680441,37.210572 81.9436261,37.1298669 82.0220075,37.0482343 C82.4167135,37.2949876 82.8440785,37.4044496 83.2322528,37.5027798 C83.284507,37.5157668 83.334895,37.5287539 83.3862161,37.5426685 C83.686678,37.7300526 84.0337953,37.8970285 84.4602272,37.9953588 L86,37.9953588 L84.8502677,37.1623345 C84.5078159,36.9090877 84.131772,36.7736516 83.7753235,36.6743937 C83.6232264,36.5714252 83.4757948,36.4563974 83.3199652,36.3358037 C82.9896438,36.0807016 82.647192,35.8144677 82.1974324,35.6159519 C81.6338332,35.3645604 81.078632,35.310757 80.5430261,35.2569537 C80.3358754,35.2374731 80.1352565,35.2179926 79.9393031,35.1873804 L79.9374369,34.7124266 L79.7060253,34.7124266 C79.468082,34.7124266 79.2282724,34.7124266 78.9940614,34.7189201 L78.6161514,34.7291242 L78.5443018,35.0983265 C78.5237734,35.201295 78.5153754,35.3283823 78.5097767,35.4545418 C78.5144423,35.2022227 78.5228403,34.9480482 78.5097767,34.7012949 L78.4864489,34.2356176 L78.017094,34.2550981 C77.9965655,34.2550981 77.9415119,34.2560258 77.9573748,34.2625193 L77.5178794,34.1428532 L77.3816452,34.5751353 C77.3452538,34.6910908 77.3135281,34.7884934 77.2846016,34.8682708 C77.2267487,34.8608497 77.1670296,34.8580667 77.1007787,34.862705 C76.8469724,34.8766196 76.6687482,34.9749499 76.5325139,35.0816289 L76.4979888,32.5519437 C76.9542802,33.2198474 77.2332805,33.5769904 77.648515,33.4165079 C78.1411977,33.236545 78.2475724,32.8803297 78.2662347,32.6845968 C78.3427498,31.9118693 77.312595,31.0964703 77.153966,31.0009229 C76.6640826,30.7031492 76.6650157,30.6734646 76.6911429,30.1975832 C76.7032733,29.9972121 76.7154037,29.7588076 76.6995409,29.4601062 L76.6547515,29.0649299 L76.2619117,29.0157647 C76.155537,29.0027777 76.0323663,28.9888631 75.8653394,29.0139094 L75.4892956,29.0714234 L75.4659678,29.4489745 C75.451038,29.6938725 75.451038,29.945264 75.4519711,30.1938726 L75.4519711,30.3089005 C75.4473055,30.3089005 75.44264,30.3089005 75.4389075,30.3089005 C75.0973888,30.3089005 74.7586694,30.4582512 74.5412545,30.7170639 L73.8871435,31.4981401 L74.9089004,31.4870084 C75.199098,31.4814425 75.4277102,31.5176206 75.6096669,31.6029639 L76.4298717,35.1651169 C76.4037446,35.188308 76.3748181,35.214282 76.3533566,35.2356179 C76.3496241,35.2393284 76.3458917,35.243039 76.3430924,35.2467496 L76.289905,35.1428535 L75.6871151,35.3877515 L75.9138612,35.5389574 L75.8317474,35.5194769 L75.6591218,35.4758777 C75.6469914,35.5222599 75.6096669,35.6604788 75.6208642,35.8283824 L75.644192,36.1975847 L76.0109047,36.2606645 C76.0836874,36.2745792 76.1508714,36.280145 76.2161892,36.280145 C76.3757512,36.280145 76.5101193,36.2439669 76.624892,36.1920188 C76.9542802,36.1790318 77.2183507,36.144709 77.4366987,36.0510169 C77.5822641,36.1669724 77.7875486,36.2764344 78.0693482,36.2569539 L78.4883151,36.2309799 L78.5107098,35.8144677 C78.512576,35.7727237 78.5088436,35.7309798 78.5107098,35.6892358 C78.5135091,35.8024083 78.5153754,35.9165086 78.5303051,36.0204047 L78.5844256,36.402594 L78.973533,36.4239298 C79.3673059,36.4452657 79.7554802,36.4582527 80.1417883,36.470312 C80.416123,36.4805161 80.6895246,36.4897926 80.9657255,36.5009243 C80.9675917,36.6743937 80.969458,36.8422973 80.9806553,37.0064903 L80.9974513,37.2486054 L80.584083,37.2291248 C79.8301291,37.1920191 79.0593792,37.2578818 78.3343518,37.3265275 L77.9303146,37.3664162 L77.9079199,37.768086 C77.8948564,37.9693848 77.9032544,38.1391436 77.9116524,38.2875667 C77.9163179,38.3784758 77.9228497,38.5037077 77.9331139,38.505563 C77.9312477,38.5064907 77.8985888,38.5352476 77.7866155,38.5723534 C77.7334281,38.5834851 77.6009263,38.5510176 77.5113476,38.531537 C77.3247254,38.4916483 77.1175747,38.4434109 76.8908287,38.4740231 C76.2936375,38.5463793 76.1536708,38.6456373 75.8130852,39.039886 L75.7393694,39.1224463 C75.5247538,39.3710549 75.4146467,39.7040791 75.3176031,39.9981422 C75.2644157,40.1586246 75.1767033,40.4257861 75.1132517,40.4833 C75.0712617,40.5064911 74.8949037,40.4925765 74.7978601,40.4851553 C74.5897763,40.4693854 74.3546323,40.4508325 74.1138896,40.5306099 C73.2414305,40.8200348 73.2563603,41.3775489 73.2666245,41.7857122 C73.270357,41.9137271 73.2759557,42.0621502 73.2526279,42.2356196 C73.0874672,43.5 72.9447012,44.7448967 73.0212163,46.0816317 L73.0445441,46.5 L73.4653772,46.5241179 C74.1325518,46.560296 74.6448299,46.4035242 75.1356464,46.2504629 C75.3353322,46.1883107 75.5415498,46.122448 75.7710952,46.0695723 C75.9250585,46.0343218 76.0640921,46.0111307 76.197527,45.9888673 C76.5390457,45.9313533 76.8926949,45.8729118 77.320993,45.6382178 C77.421769,45.5825592 77.4982841,45.5185518 77.5608025,45.4517614 C77.9275153,45.9239322 78.4229973,46.2226336 78.8699576,46.492578 C79.1965466,46.6901662 79.5044733,46.8766226 79.745216,47.1103889 C80.0662063,47.420222 80.1361896,47.9434132 80.2089723,48.4972167 C80.2602934,48.8840442 80.3125476,49.2838588 80.4534474,49.6614099 L80.5355612,49.8803339 L80.760441,49.9471243 C80.8845448,49.9842301 80.9965182,50 81.0963611,50 C81.2960469,50 81.448144,49.9406308 81.5526525,49.8784786 C81.9622883,49.6335806 82.0639975,49.1354358 82.1535762,48.6966602 C82.1825026,48.5547306 82.2282251,48.3293131 82.2431548,48.2495357 C83.1034834,47.9554726 83.3143666,47.104823 83.5065875,46.3320956 L83.5439119,46.1855278 C83.6717482,45.6762512 83.963812,45.304266 84.2726718,44.9109449 C84.6795083,44.3923919 85.1404653,43.8079762 85.1983182,42.8896086 C85.2561711,41.9962874 84.7560235,41.3562131 84.3165281,40.7912779 C84.1037787,40.5176229 83.9022267,40.2588102 83.7613269,39.9814446 Z M81.3845,38.2976282 L81.6415,38.0673298 L81.6385,38.1622035 C81.6265,38.5095639 81.4915,38.8462127 81.3685,39 C81.3665,38.8729916 81.3675,38.7459832 81.3685,38.6189748 C81.3705,38.4116297 81.3675,38.2058148 81.3585,38 L81.3845,38.2976282 Z M83.2920319,44.4501806 C82.9627077,44.9017708 82.5890513,45.4124747 82.4171513,46.1470355 L82.3809618,46.303057 C82.1918718,47.1248348 82.0814939,47.5134349 81.7060281,47.6336006 L81.6951713,47.6074355 C81.661696,47.6229407 81.6300302,47.6403841 81.5992692,47.6597657 C81.4617492,47.6849617 81.2925634,47.6801163 81.0817597,47.6568584 L80.9849528,48.6327196 C81.022047,48.637565 81.0582365,48.6404722 81.094426,48.6433794 C81.0826644,48.7024932 81.0718076,48.7596688 81.0609507,48.8168443 C81.0509986,48.8682054 81.039237,48.9331336 81.0247612,49 C81.0093807,48.8953396 80.9967144,48.7848648 80.9822386,48.675359 C80.8980981,47.988283 80.8031007,47.2101136 80.2638775,46.6490177 C79.9553622,46.3272839 79.5979912,46.0947053 79.2514769,45.8689102 C78.7638237,45.5520218 78.3033127,45.2516078 78.0707953,44.7486565 L77.9622269,44.5122016 L77.7188526,44.4792529 C77.6645684,44.4715003 77.6148079,44.4685931 77.5677616,44.4685931 C77.1289642,44.4685931 76.9489215,44.7660999 76.830401,44.9560391 C76.5526468,45.1207823 76.3346052,45.1595454 76.0315183,45.2138138 C75.8840462,45.2390098 75.7293362,45.2690512 75.5601504,45.3107215 C75.3158715,45.3717734 75.0942109,45.4473615 74.8797883,45.5190732 C74.5767014,45.6198573 74.3034709,45.7128887 74.0021935,45.7487446 C73.9822893,44.6081403 74.1008098,43.5072681 74.2374251,42.3879834 C74.2663767,42.1466831 74.2627577,41.9422077 74.258234,41.7638975 C74.2555198,41.6660206 74.2528056,41.5342261 74.258234,41.50903 C74.258234,41.50903 74.2953282,41.4663906 74.4527525,41.4101841 C74.5088461,41.3888644 74.6391283,41.3995243 74.7540298,41.4101841 C75.039022,41.4353801 75.4289636,41.4683288 75.7483357,41.1562858 C75.9899004,40.9237072 76.0966594,40.5699938 76.2016089,40.2279094 C76.2685594,40.0069597 76.345462,39.7588759 76.4332215,39.6493701 L76.503791,39.561184 C76.6793099,39.3412034 76.6793099,39.3412034 76.9643021,39.3043785 C77.0330621,39.2937186 77.1533921,39.3247291 77.2610558,39.3499251 C77.4863353,39.4022553 77.7405663,39.4584618 78.0038448,39.3673685 C78.8036322,39.0805215 78.7764901,38.5058585 78.7574906,38.0862479 C78.7565858,38.0804334 78.7565858,38.074619 78.7565858,38.0678354 C79.1564796,38.0310105 79.5654206,38.0019382 79.9635049,38 C79.9644096,38.1327636 79.9635049,38.2655273 79.9626001,38.3982909 C79.9607907,38.736499 79.9589812,39.073738 79.9797901,39.4061316 L79.9951707,39.6687517 L80.2077838,39.8015153 C80.6854849,40.0961149 81.0555223,39.9585059 81.2337555,39.8519073 C81.6065071,39.6280504 81.8073586,39.1677385 81.9159271,38.7432825 C82.1403018,39.0466038 82.3076781,39.4410184 82.4813876,39.848031 C82.5537666,40.0195577 82.6252408,40.1872082 82.6994292,40.3441987 C82.8749482,40.7202009 83.1074656,41.0409656 83.3318403,41.3520395 C83.7082109,41.870496 84.0302972,42.3182098 83.9977267,42.8793058 C83.958823,43.5353713 83.6503077,43.9588583 83.2920319,44.4501806 Z" id="Shape"></path>
                <path d="M89.9173134,48.1690746 C89.8966879,48.1048261 89.8731159,48.0311544 89.8475796,47.9334967 C89.8151681,47.8238459 89.7454343,47.7476043 89.6727541,47.6927789 C89.7326662,47.5994043 89.7778458,47.4906102 89.778828,47.3638264 C89.784721,46.8198556 89.6344496,46.4300812 89.3309603,46.2039264 C89.1708673,46.0848524 88.8978252,45.9546421 88.4686187,46.015464 L88.1926301,46.0548698 L88.0885205,46.2827379 C87.9146771,46.6639458 87.854765,47.1316751 87.7948529,47.5839847 C87.7202083,48.1622214 87.641635,48.760161 87.3469852,49.0334314 C87.1937673,49.1764915 86.8794742,49.3195515 86.5769671,49.4583283 C85.8020382,49.8112669 84.5026328,50.40321 85.1980062,51.737866 L85.3335451,52 L85.6635529,51.9931468 C86.2999964,51.9777272 86.7989366,51.5879528 86.8745634,51.0439819 L86.0102574,50.9523207 C86.0691874,50.7098896 86.3874091,50.5239972 87.037603,50.2275974 C87.0690323,50.2121777 87.1004616,50.1984714 87.132873,50.184765 C87.0042093,50.2695731 86.8804564,50.3475279 86.7645608,50.4169163 L87.3253776,51.1339299 C88.0178045,50.721026 88.9155042,50.0357084 89.4615884,49.502874 C90.0381198,48.937487 90.0803529,48.6856327 89.9173134,48.1690746 Z M88.5224539,48.7247278 C88.4214539,48.811042 88.3074539,48.9043546 88.1824539,49 C88.3714539,48.7045101 88.4624539,48.3569207 88.5264539,48 C88.5894539,48.0559876 88.6624539,48.1026439 88.7294539,48.1430793 C88.7424539,48.1804044 88.7544539,48.2153966 88.7664539,48.248056 C88.7884539,48.3141524 88.8194539,48.3958009 88.8174539,48.4175739 C88.8134539,48.433126 88.7794539,48.5007776 88.5224539,48.7247278 Z" id="Shape"></path>
                <path d="M85.373,15.2595 L85.87,14.3785 C85.867,14.3755 85.858,14.3615 85.849,14.3345 L84.88,14.6265 C84.965,14.9095 85.135,15.1285 85.373,15.2595 Z" id="Path"></path>
                <path d="M84.349026,13.297 L83.875,14.1633366 C83.9306586,14.1979901 83.9603432,14.2356139 83.9770408,14.297 L84.875,14.0009604 C84.7887291,13.7009604 84.6078386,13.457396 84.349026,13.297 Z" id="Path"></path>
                <path d="M71.2272047,34.9561353 C71.1144342,34.8837103 71.0062854,34.8159279 70.9212453,34.7462884 C70.6994017,34.5633688 70.5505815,34.302453 70.4054588,34.0508225 C70.33983,33.9356853 70.2751256,33.8233337 70.2048751,33.7193388 C70.2621847,33.7434805 70.3213431,33.7713362 70.3786527,33.7945494 C70.6189833,33.8957587 70.9184723,34.0220382 71.0044367,34.1278902 L72.0267663,35.3999707 L71.8317288,33.7759789 C71.7836626,33.3692845 71.5405589,33.1083687 71.3621597,32.9180209 C71.2530865,32.8019552 71.1597273,32.7016744 71.1255264,32.5958224 C71.103342,32.52804 71.0922498,32.436116 71.0885524,32.3339781 C71.3695544,32.5902513 71.6976982,32.8177401 72.1044116,32.7267446 C72.5933921,32.6199641 72.8337227,32.114846 72.9714507,31.7443642 C73.2681666,30.9430463 72.9982568,30.4249289 72.7366661,29.9253819 L72.6414582,29.7406053 C72.6137278,29.6848937 72.5887703,29.6347533 72.5684347,29.5855414 C72.6497774,29.6087546 72.7477583,29.6198969 72.8485123,29.621754 C73.412365,29.621754 73.5611851,29.2011317 73.6120243,29.0024272 C73.7922723,28.8928611 73.9780664,28.8092938 74.1601631,28.726655 C74.5964557,28.5279504 75.0900578,28.3041757 75.4810573,27.7823441 C76.2159145,26.8036778 76.0578509,25.8129407 75.8443264,24.9187702 L76.1391936,24.9763389 C76.5625453,25.0571206 76.829682,24.9020568 76.9812752,24.7562782 C76.9932918,24.7460644 76.9997622,24.7321365 77.00993,24.7209942 C76.9600152,24.9475545 76.9479987,25.2112559 76.9785022,25.5483108 L77.0487527,26.3171303 L77.6976454,25.9011507 C78.0248649,25.6903753 78.2291459,25.3876758 78.4103183,25.1211889 C78.5600628,24.8992712 78.6894716,24.7079949 78.8503082,24.6179279 C78.9362727,24.568716 79.1082015,24.5538596 79.2736599,24.5390032 C79.6831464,24.5018621 80.3699374,24.4405794 80.6296794,23.6569035 C80.8117761,23.1072162 80.5917811,22.5473151 80.3958192,22.0533393 C80.2590156,21.7051421 80.1166659,21.3467311 80.1712025,21.1164567 C80.1989329,20.9985339 80.3043087,20.8982531 80.4706915,20.7450463 C80.6426203,20.589054 80.8552205,20.394992 80.9929485,20.1080775 L80.3292661,19.7830935 L80.2312851,19.3652568 C80.0861624,19.3977552 79.9123849,19.3401866 79.7783543,19.263119 L80.204479,19.2519766 L80.1712025,18.761715 C80.1296068,18.1748866 79.8153282,17.5128476 79.5370993,16.9278763 C79.4686975,16.7830263 79.4021444,16.6437474 79.3439104,16.5137538 C79.3023147,16.4209012 79.2736599,16.3094781 79.2413077,16.1961979 C79.1544189,15.8897843 79.056438,15.5415871 78.7976204,15.304813 C78.5582141,15.0828953 78.2309946,15.0401831 77.9416735,15.0021136 C77.7956264,14.9826145 77.6449576,14.9631155 77.5432792,14.9241174 C77.3380738,14.8442642 76.765902,14.5443503 76.6965758,14.4942099 C76.6549801,14.4236419 76.6429636,14.3818583 76.6355688,14.3772156 C76.704895,14.2973624 76.9979135,14.1952246 77.1402632,14.1450842 C77.2816885,14.0958723 77.4110974,14.0485175 77.5100027,13.9993056 C77.8483143,13.8293854 78.1265432,13.6213956 78.37242,13.438476 C78.83367,13.0939928 79.2163503,12.8265774 79.8467561,12.8395767 L79.9354936,12.8414338 C79.8301178,13.6752501 79.7228934,14.5369221 80.0732215,15.142321 C80.2359069,15.4218073 80.4679184,15.5805852 80.6527881,15.7077933 C80.8478257,15.841501 80.943958,15.912069 80.9883267,16.0494908 C81.063199,16.2834793 81.0326954,16.685531 81.004965,17.0402279 C80.983705,17.3215713 80.9642936,17.5945579 80.9800076,17.8276179 L81.1343738,20.1721458 L82.0596468,17.4562075 C82.2602305,16.88145 82.4487976,16.3391909 82.6087099,15.7235782 C82.6595491,15.5285878 82.7566057,15.3131698 82.855511,15.0921806 C83.0274399,14.7040568 83.2049148,14.302005 83.2326453,13.9018104 C83.2705436,13.3558371 83.0237425,12.956571 82.8268562,12.6362296 C82.7233292,12.4672379 82.6244239,12.3084599 82.5800551,12.151539 C82.5624925,12.0930419 82.5698873,12.0326877 82.5643412,11.9732621 C82.6281213,11.9983323 82.6946744,12.0141172 82.754757,12.0159743 C82.7584544,12.0159743 82.7621518,12.0169028 82.7658492,12.0169028 C83.3629784,12.0159743 83.65877,11.0345224 83.756751,10.6111146 C83.7854058,10.4904062 83.7983467,10.3362709 83.8085145,10.1765644 C83.8159093,10.0567846 83.8288502,9.8580801 83.8556563,9.8023685 C83.8750676,9.7707986 83.875992,9.768013 83.9841408,9.7355146 C84.1089278,9.6974451 84.2984193,9.6398765 84.4490881,9.4569569 C84.6367309,9.2303966 84.8465581,8.9258401 84.8086598,8.5794999 C84.7716858,8.242445 84.5304308,8.0548828 84.3557289,7.9174609 C84.2503532,7.8357506 84.1514479,7.758683 84.0839704,7.6556166 C83.9462425,7.4439127 83.9148146,7.23778 83.9194363,6.91651 C84.2494288,6.9257953 84.6404283,6.8756549 84.8678181,6.5311717 C85.1451227,6.1133351 84.9362199,5.5125788 84.6977379,5.142097 C84.7735345,4.8440402 84.7467284,4.5794103 84.6163952,4.35285 C84.3640481,3.9155143 83.8214554,3.8068767 83.4350776,3.7623075 C83.093993,3.7242379 82.754757,3.6963822 82.4201428,3.6694549 C81.9995642,3.6350994 81.5863803,3.600744 81.1861373,3.5468895 C79.9586023,3.3788263 78.7255212,3.7140241 77.9093213,4.0260089 C77.8270543,4.0575787 77.7272246,4.1012195 77.6163028,4.1504313 C77.4212652,4.2386413 76.9008569,4.4726298 76.7622046,4.4224894 L76.5597722,4.0157951 L76.1493614,4.2015002 C75.5383669,4.4763439 75.1815684,4.4596304 74.6611601,4.3203516 C74.2082292,4.1996432 73.8477332,4.1067906 73.271864,4.1327893 C73.17111,4.137432 73.0435499,4.1513598 72.8993515,4.1662163 C72.6396095,4.1950006 72.0276907,4.2599974 71.8788706,4.17643 C71.864081,4.1597166 71.8446697,4.0705781 71.8345018,4.0232233 C71.7956792,3.8393751 71.7060174,3.4243241 71.2429187,3.297116 C71.2937579,3.2061205 71.4019066,3.1810503 71.6061877,3.1318384 C71.9426506,3.0519852 72.505579,2.919206 72.6654913,2.2274542 L72.810614,1.5997707 L72.1718891,1.6517681 C71.8289557,1.6796239 71.5738355,1.896899 71.3861927,2.0547484 C71.3270344,2.1058173 71.2373726,2.1810279 71.2632543,2.1893846 C71.2309021,2.1800994 71.1449377,2.1169596 71.0885524,2.0751759 C70.9378836,1.9646813 70.7299052,1.8124031 70.4572223,1.7901185 C69.9349653,1.7464778 68.5965084,2.1364586 68.1121497,2.6276488 C67.8829113,2.8597803 67.8514834,3.0863406 67.8634999,3.2367618 L67.8829113,3.4670363 L68.171308,3.6545985 C68.2350881,3.6973107 68.2979438,3.7381658 68.3321447,3.7576649 L68.428277,3.8143049 L68.5401232,3.8208046 C68.7416312,3.8328755 68.9422148,3.8403037 69.1409498,3.8468034 C69.4293466,3.8570171 69.7057268,3.8663024 69.9747123,3.8904441 C69.9987454,4.1077191 70.0357193,4.3092093 70.0708446,4.5060567 C70.1142889,4.7428309 70.1558846,4.9703197 70.1734473,5.2163791 C69.8212704,5.1718098 69.4922023,5.0260313 69.0605315,4.81897 C68.2951708,4.4522022 67.747032,4.442917 66.9881417,4.4698442 L66.4483221,4.4902718 L66.5453787,5.0251027 C66.5509248,5.0548156 66.54353,5.1318832 66.5352109,5.1959515 C65.978753,5.1569534 65.4555717,4.711261 64.8649128,4.2089285 C63.9673703,3.4438231 62.8489084,2.4920841 61.4013784,3.279474 L61.2192817,3.3778978 L61.1952486,3.475393 L60.9641615,2.8644229 L61.638936,2.5245825 C61.2904565,1.8272595 60.6655968,1.8709002 60.2912356,1.898756 C60.1276259,1.9089698 59.9751084,1.9201121 59.8558674,1.8885422 C59.6441916,1.8328307 59.4685653,1.6972659 59.2652086,1.5412735 C58.8889987,1.2515734 58.4185052,0.8922339 57.6355819,1.0305843 L57.2695398,1.0955811 L57.2482798,1.46792 C57.2177763,2.0111076 57.1530719,3.1429807 58.1162432,3.6109578 C58.4129591,3.7558078 58.9121074,3.8152335 59.4380618,3.8152335 C60.0915763,3.8152335 60.77467,3.7214524 61.1684425,3.5858876 C61.1259225,3.7576649 61.1000407,3.9331563 61.074159,4.1086477 C60.8412231,4.084506 60.6313959,4.1123618 60.4576184,4.2358557 C60.1719946,4.4382744 60.1553564,4.7641869 60.1405668,5.0009611 C60.1313233,5.1755239 60.1211555,5.3556579 60.0416615,5.5274352 C59.9640162,5.6648571 59.5351184,6.1077639 59.2522677,6.3566089 C59.2522677,6.2916121 59.2522677,6.2321864 59.2531921,6.1941168 L59.271679,4.838469 L58.4212783,5.8923459 C58.1467467,6.2321864 58.0903614,6.8041584 58.1754015,7.1932107 C58.2012833,7.3129906 58.242879,7.4216281 58.2955668,7.5172663 C58.2650633,7.5172663 58.2336355,7.5172663 58.2022076,7.5172663 L58.1772502,7.5172663 L58.1772502,7.4559835 C58.1079241,7.4559835 58.0339762,7.4513409 57.9563309,7.4466983 C57.5560879,7.4244137 56.8822377,7.3872726 56.5494722,7.9889574 C56.4015764,8.2573014 56.3960303,8.5989989 56.3904842,8.9295542 C56.3877112,9.121759 56.3840138,9.3594617 56.3433425,9.4699562 L56.3026711,9.5804508 C56.294352,9.603664 56.2860328,9.6250201 56.2804867,9.6435906 C56.2167067,9.6649467 56.1344397,9.6946595 56.0262909,9.7383002 C55.9301586,9.7772983 55.8441942,9.8181534 55.7637758,9.8571515 C55.6611731,9.9063634 55.5872252,9.9416474 55.515126,9.962075 C55.3783224,9.4096021 55.5345374,8.5154316 55.6445349,7.8933192 L55.7157097,7.4699114 C55.7573054,7.1950678 55.9199908,6.9127959 56.0900709,6.6147391 C56.3609051,6.1430479 56.6677888,5.608217 56.5864462,4.9406069 L56.5439261,4.5914811 L56.1982197,4.5339125 C55.0575735,4.3407791 54.5584252,5.3138743 54.2321301,5.9582713 C54.1452413,6.12912 54.0620499,6.2962547 53.9696151,6.4383192 L53.8392819,6.6342381 C53.5018946,7.1412133 53.1201386,7.7159708 53.0341742,8.3455114 C52.9204793,9.1728279 53.2171953,9.9574323 53.8818019,10.6203998 C53.8771802,10.6222569 53.8725585,10.6241139 53.8688611,10.6268995 C53.6423956,10.7429653 53.4797103,10.876673 53.3355119,10.9945958 C53.1524908,11.1440884 53.0193846,11.2517974 52.7836757,11.3102946 C52.476792,11.3864337 52.3640214,11.3864337 52.116296,11.3158657 C51.8842845,11.2499404 51.7687409,11.1283035 51.5912659,10.9453839 C51.4396728,10.7875345 51.2677439,10.6092575 51.0070776,10.4597648 C50.6659929,10.2629174 50.0411332,10.0447138 49.7055947,9.94629 C48.7562886,9.6668037 47.6295075,9.8692224 46.6219675,10.5034056 C45.6366118,11.1218038 44.9553668,12.0484727 44.7963789,12.9816412 C44.7778919,13.0912073 44.7677241,13.2035589 44.7566319,13.3159105 C44.7372205,13.5378282 44.7187336,13.7309616 44.6262987,13.853527 C44.5338638,13.9779495 44.4173959,14.0438748 44.2695001,14.1255851 C44.001439,14.2769348 43.6335482,14.4839961 43.4717872,15.0671104 C43.3026314,15.6771519 43.4449811,16.2667659 43.842451,16.6038208 C44.0319425,16.7644557 44.2574836,16.8526657 44.505209,16.8665936 C44.4469751,17.2463607 44.4386559,17.6084858 44.4303368,17.9613256 C44.4294124,17.9984667 44.4294124,18.0356077 44.4284881,18.0727487 C44.0883278,18.1498164 43.7093448,18.2417405 43.4006124,18.5063703 C43.3118749,18.5825095 43.2462461,18.6651483 43.1889365,18.7487156 C43.3285132,18.3819479 43.3941419,18.0003237 43.3423784,17.6521265 L43.2869175,17.2797876 L42.9125563,17.2528604 C42.7785257,17.2435751 42.6417221,17.2389325 42.5039942,17.2370754 C42.5178594,17.1210097 42.5400438,16.9938016 42.5650012,16.8498801 L42.2119,16.8164532 C42.2461009,16.6418903 42.315427,16.5592515 42.4614741,16.4886836 L42.0566094,15.6409394 C41.326374,15.9937792 41.2579722,16.6511756 41.2459556,17.1785783 C40.9575588,17.2500748 40.6922708,17.4134954 40.5203419,17.6419127 C40.287406,17.9511119 40.2532051,18.3373786 40.427907,18.7004323 C40.5905924,19.0384157 40.8364692,19.1015554 40.968651,19.1080551 C41.2718374,19.1182689 41.469648,18.9130647 41.6258629,18.6800047 C41.869891,18.9799186 42.2405548,19.1637667 42.6916369,19.1860513 L42.9181024,19.1971936 C42.9005397,19.2241209 42.8829771,19.2640475 42.8644901,19.2835465 C42.8062562,19.3411151 42.556682,19.4237539 42.4078619,19.4729658 C42.0224085,19.6001739 41.5842672,19.7440954 41.4197332,20.1461471 C41.3559531,20.3012109 41.3134331,20.55377 41.4761184,20.8731829 C41.6591395,21.2315939 41.9956024,21.3411599 42.1952617,21.4061567 C42.2396304,21.4210132 42.3052592,21.4405122 42.3172757,21.4321555 C42.3061835,21.4497975 42.2692096,21.48601 42.2054295,21.5194369 C42.0233329,21.6150751 41.5445202,21.6262174 41.1951164,21.6345741 C40.8641996,21.6420023 40.5499211,21.6503591 40.2938765,21.7069991 L39.9463214,21.7840668 L39.9074987,22.4331064 C39.844643,23.1991403 39.7586786,24.2502316 40.3752192,24.6736394 C40.5037036,24.7618494 40.687649,24.8129183 40.8919301,24.8454167 C40.7828569,25.1156177 40.6599186,25.3496063 40.5314341,25.4963134 C40.4205123,25.6216644 39.7577543,26.217778 39.6209507,26.3013453 C39.5507002,26.3403434 39.5220453,26.3394149 39.4222157,26.3338437 C39.1643224,26.3208444 38.8629847,26.3422005 38.5440845,26.7340384 C38.2048485,27.1509465 38.174345,27.8278419 38.1503119,28.3719581 C38.1447658,28.5028802 38.1392197,28.6235886 38.1290519,28.7238694 L38.0911536,29.0794948 C38.0227518,29.696036 37.9460309,30.3961446 38.0532553,31.0182569 C38.2177894,31.969996 38.8213891,32.4918275 39.3732252,32.9059501 C40.2532051,33.5679891 41.1544451,33.7341952 42.235933,33.7806215 C42.4762637,33.7899067 42.7323083,33.7750503 42.9975964,33.7592654 C43.5540543,33.7249099 44.1308478,33.6896259 44.4451264,33.9431135 C44.6133578,34.0777498 44.6262987,34.1966011 44.6420126,34.4798015 C44.6549535,34.7100759 44.6706674,34.9969904 44.8388989,35.2801908 C45.0570452,35.6488156 45.3814916,35.7555961 45.5950161,35.8261641 C45.7179545,35.8651621 45.7891293,35.8893038 45.8353468,35.9357301 C46.1006348,36.1966459 46.1662636,36.8679701 46.0128217,37.7296422 C45.8270276,38.762163 45.6957701,39.6349773 45.8353468,40.6674981 L45.8575311,40.8327757 C45.8963538,41.1484745 45.9379495,41.4725301 46.1145001,41.8327981 C46.2688663,42.1447828 46.4435682,42.3007752 46.5997831,42.4372685 C46.6765041,42.5050509 46.7615441,42.5774759 46.8502816,42.6907561 C47.1192671,43.0333821 47.1118723,43.4493617 47.1007801,43.977693 L47.0970827,44.2841065 L47.5648031,44.2841065 L47.5629544,44.8319368 C47.7700085,44.8328653 48.0352966,44.8672208 48.3181473,44.9034333 C48.6878868,44.9498596 49.0853567,45 49.4578692,45 C49.7712234,45 50.0688637,44.964716 50.3175135,44.8607211 C50.8074183,44.6583025 51.2002665,44.1039725 51.5450485,43.6155679 C51.6476512,43.4707178 51.7410104,43.3370101 51.8242018,43.2376578 C52.2503265,42.7260401 52.7855244,41.8021568 52.9371176,41.0992627 C52.9851837,40.8829161 52.9676211,40.6786404 52.9519072,40.4994349 C52.9398907,40.3638702 52.9269498,40.2088063 52.962075,40.1586659 C52.9916542,40.1280246 53.142323,40.1010973 53.2236657,40.0853124 C53.402065,40.0518855 53.6044973,40.0147444 53.7791992,39.8810367 C54.6148104,39.2449964 54.4844773,38.2087615 54.3791015,37.3758738 C54.3023806,36.7658323 54.229357,36.1892177 54.4900234,35.8744474 C54.6564061,35.6748143 54.8625359,35.6116746 55.1241266,35.5290358 C55.5225208,35.4055418 56.0678866,35.2356216 56.3516616,34.498372 C56.5051035,34.1000344 56.5365313,33.6896259 56.5670348,33.2940739 C56.5892192,33.0062309 56.6095549,32.7341728 56.676108,32.4964702 L56.3313259,32.3989749 L56.53838,32.0414925 C56.4413234,31.9839239 56.3322503,31.9114988 56.2268745,31.8427879 C56.7971977,31.8232889 57.3897052,31.6589398 57.9785153,31.3376698 C58.7928664,30.8938344 59.1505894,30.1658701 59.3484,29.6561094 C59.6025959,29.0033557 59.6016715,28.5808764 59.451927,28.2828196 C59.5406645,28.2893193 59.5933524,28.2930334 59.732929,28.2930334 L60.072165,28.2883908 C60.6831595,28.2772484 60.6887056,28.2763199 60.9604641,28.7730813 L61.0760076,28.9801426 C61.2266765,29.2503436 61.3782697,29.5224017 61.4956619,29.8056021 C61.7674205,30.4602128 61.840444,30.5474943 62.3553062,31.057255 C62.5586629,31.2587451 62.7315161,31.4732346 62.906218,31.6886526 C63.1206669,31.952354 63.3434349,32.2262691 63.6170421,32.4816137 C63.7603162,32.6171785 63.8749354,32.7648141 63.9803112,32.8975934 C64.2187931,33.1993643 64.4655942,33.5122775 64.8778537,33.5354906 C65.1375957,33.5540612 65.4185977,33.4268531 65.6903562,33.1510809 C66.5231944,32.3089079 66.097994,31.4388792 65.8437981,30.9189046 C65.7393467,30.7044152 65.6090135,30.4369997 65.6506092,30.3348619 C65.6617014,30.3060775 65.7467415,30.1537993 66.262528,29.9680941 L66.5398326,29.8687418 L66.5712605,29.5743991 C66.598991,29.3051266 66.7080641,29.2503436 66.7441137,29.2345587 C66.9308321,29.1407775 67.2959499,29.2132026 67.6120771,29.4072645 C67.8237529,29.5372581 67.8708947,29.6681803 67.9577835,29.9532377 C68.0372775,30.2178676 68.1371071,30.5474943 68.4532344,30.8381229 C68.6584398,31.0256851 68.8229739,31.1027528 68.9699453,31.1621784 C68.9708696,31.1640355 68.9986001,31.2048906 69.0411201,31.3590259 C69.0651532,31.4472359 69.0364984,31.6533686 69.0124653,31.8186462 C68.9643992,32.167772 68.9089383,32.5623955 69.1030515,32.902236 C69.274056,33.2040069 69.555058,33.4008544 69.8554713,33.5577753 L69.4376657,34.012753 L68.9625505,34.1446036 C69.3054839,35.4008992 70.260336,36.0257971 71.1024177,36.57827 L72.023069,37.2003824 L72.1949978,36.5634136 C72.4205389,35.7230977 71.6727408,35.2439783 71.2272047,34.9561353 Z M58.3792415,2.8676479 C58.1087824,2.7376479 58.0149701,2.4436479 58,2.0126479 C58.1766467,2.0656479 58.3383234,2.1826479 58.5628743,2.3556479 C58.8303393,2.5596479 59.1327345,2.7926479 59.5568862,2.9036479 C59.7095808,2.9446479 59.8592814,2.9586479 60,2.9596479 C59.3532934,3.0146479 58.6297405,2.9896479 58.3792415,2.8676479 Z M75.654,24.7596567 C75.63,24.6431637 75.594,24.4898835 75.552,24.3157572 C75.411,23.7198038 75.335,23.2992029 75.298,23 C75.397,23.147149 75.488,23.289393 75.524,23.3862661 C75.615,23.6486818 75.641,24.0876763 75.665,24.4763948 C75.675,24.6443899 75.684,24.8050276 75.697,24.9534028 L75.702,25 L75.654,24.7596567 Z M78.687511,22.6588304 C78.5703046,22.8812901 78.4366312,23.1319215 78.3513902,23.429182 C78.2990832,23.6098698 78.2642119,23.7526715 78.2351525,23.8702157 C78.156692,24.1927336 78.156692,24.1927336 77.7876372,24.4569652 C77.5290083,24.6425102 77.3275296,24.8125121 77.1744832,25 C77.2820031,24.4647367 77.2035427,23.7497571 77.0853676,22.9182048 C77.0446844,22.6355158 76.9885029,22.2498543 77.0020639,22.1468817 C77.0388725,21.9040218 77.0630887,21.8923645 77.304282,21.7806489 C77.5096353,21.6844764 77.7915118,21.553332 78.0569213,21.2405285 C78.2506508,21.0112687 78.4957187,20.5333204 78.6720126,20.0320575 L78.8802719,20.0048572 C78.9006135,20.0029143 78.9219237,20.0029143 78.9412967,20 L78.9083626,20.1991451 C78.8473378,20.5818924 78.8986762,20.9248106 78.9461399,21.2259569 C78.9829485,21.4639596 79.0149139,21.6689334 78.992635,21.8661356 C78.9558264,22.1527103 78.8308708,22.3877987 78.687511,22.6588304 Z M79.8251159,23.7944573 C79.7661159,23.9299461 79.7081159,23.9622787 79.2281159,23.9953811 C79.2031159,23.9969207 79.1781159,23.9984604 79.1531159,24 C79.1931159,23.9183988 79.2271159,23.8237105 79.2631159,23.7090069 C79.2901159,23.6243264 79.3241159,23.5204003 79.3721159,23.3895304 C79.4211159,23.256351 79.5021159,23.1301001 79.5911159,23 C79.7461159,23.2994611 79.9061159,23.6081601 79.8251159,23.7944573 Z M69,3.570488 C69.3597263,3.442488 69.7243402,3.339488 69.9061584,3.361488 C69.9257087,3.367488 69.9608993,3.391488 70,3.418488 C69.9599218,3.484488 69.9266862,3.558488 69.8973607,3.641488 C69.5982405,3.602488 69.2971652,3.583488 69,3.570488 Z M54.0186617,8.6200466 C54.0895872,8.2411528 54.4670939,7.8232676 54.8308731,7.4180971 L54.9978912,7.2333121 C55.1351664,7.0798898 55.259858,6.8993431 55.3868376,6.7145582 C55.630501,6.3602458 55.8123906,6.1305361 56,6 C55.9119151,6.1585082 55.7849356,6.3212545 55.6488043,6.4967154 C55.4051409,6.8103412 55.1283027,7.1655012 55.0436496,7.5749099 L54.9601406,7.9436321 C54.8137137,8.5590167 54.6283922,9.3422335 54.7679553,10 C54.178816,9.5812672 53.9260009,9.1193049 54.0186617,8.6200466 Z M45.972061,24.143201 L45.9729681,23.9402327 C45.6890421,23.9394304 45.4187228,23.9233855 45.1493106,23.9073406 C44.8554064,23.8896911 44.5687591,23.8832732 44.2603411,23.872844 C44.1768868,23.872844 44.0861756,23.8832732 44,23.8864822 C44.0480769,23.8383474 44.1015965,23.7926193 44.1487663,23.7452868 L44.2830189,23.6105094 C44.462627,23.433213 44.5506168,23.2519053 44.6222787,23.1058965 C44.641328,23.0681909 44.657656,23.0336943 44.6776125,23 C44.6785196,23.0016045 44.6803338,23.003209 44.6812409,23.0056157 C44.8399855,23.211793 45.054971,23.494986 45.4241655,23.5679904 L45.9575472,23.6738869 L45.9756894,23.3521861 C46.1534833,23.5206578 46.3448839,23.6658644 46.5371916,23.7573205 C46.8900581,23.9257922 47.2402032,23.9683113 47.5504354,24.0060168 C47.7445573,24.029282 47.928701,24.0517449 48.0847242,24.1022864 C48.2607039,24.1600481 48.4357765,24.2707581 48.6208273,24.3878861 C48.7423803,24.4649017 48.8657475,24.5435219 49,24.6141195 C48.7106313,24.5716005 48.4167271,24.5467308 48.1064949,24.55716 L47.863389,24.5659848 L47.733672,24.7488969 C47.6774311,24.8299238 47.6329826,24.9133574 47.5994194,25 C47.0642235,24.9125552 46.7104499,24.7825913 46.6415094,24.7007621 C46.5997823,24.6510229 46.6097605,24.4640995 46.6161103,24.3397513 C46.6188316,24.2723626 46.6224601,24.2065784 46.6224601,24.1423987 L45.972061,24.1423987 L45.972061,24.143201 Z M69.3230826,30.2788939 C69.2438475,30.2427982 69.1811965,30.2141067 69.0835347,30.1234046 C68.9628394,30.0132663 68.9186151,29.8818408 68.8513574,29.6606387 C68.7555383,29.3422558 68.6237869,28.9091069 68.0995455,28.5888729 C67.4933049,28.2186602 66.8161214,28.1372134 66.3351828,28.3769261 C66.0256132,28.5305644 65.8081774,28.8054474 65.7040662,29.1654792 C65.2194423,29.3765005 64.9264567,29.6337983 64.793784,29.9623621 C64.594775,30.4528939 64.8177388,30.90733 65.0139839,31.3099363 C65.2986774,31.8920958 65.3686991,32.1262554 65.0370173,32.4603723 C64.9937144,32.5038723 64.9614676,32.5307128 64.9458048,32.5492234 C64.8868392,32.4918404 64.7947054,32.3752234 64.7246837,32.2882234 C64.5938537,32.1225532 64.4473609,31.9383724 64.2686213,31.7699256 C64.0428934,31.5579789 63.8503337,31.3219683 63.6476393,31.0720747 C63.4523156,30.8323619 63.2560706,30.5926492 63.0008599,30.338128 C62.5899431,29.9318195 62.5899431,29.9318195 62.379878,29.4274047 C62.249048,29.1127239 62.0832071,28.810075 61.9146022,28.5092772 L61.8040416,28.3075113 C61.2834855,27.3569901 60.9066582,27.3264476 60.0820605,27.3403306 L59.7595922,27.3440327 C59.7559068,27.3440327 59.7531428,27.3440327 59.7494574,27.3440327 C59.154273,27.3440327 58.8207485,27.163554 58.3186192,26.8905221 C58.1380369,26.7924157 57.9463986,26.6887562 57.7271201,26.5850966 C57.650649,26.5490009 57.5778633,26.5110541 57.5087629,26.4703307 C57.394517,26.3601924 57.269215,26.2500541 57.1485197,26.143618 C57.0029483,26.0140435 56.8638262,25.8955755 56.7809058,25.7974691 L56.0410712,26.3648201 C56.2686417,26.7054158 56.5625486,26.9867774 56.9338479,27.2172348 C56.950432,27.2338944 56.9651734,27.2496284 56.9799148,27.266288 C57.0204537,27.3088625 57.0425658,27.3588412 57.084026,27.4523199 C57.1586544,27.6226177 57.2600016,27.8549262 57.5410098,28.0566922 C57.8128046,28.2538304 58.0726219,28.3769261 58.2817657,28.4750325 C58.7433561,28.6943835 58.7433561,28.6943835 58.5084149,29.2978303 C58.2725523,29.903128 57.9906228,30.2594578 57.5658859,30.4908407 C56.3451128,31.1600002 55.1989681,30.9860002 54.3430449,30.0077131 C54.2112936,29.8568515 54.1044183,29.6523089 53.9920151,29.43666 C53.8750051,29.2136069 53.7552312,28.9896282 53.6032104,28.7850857 C53.5055485,28.6527346 53.3894599,28.5157559 53.2678432,28.3741496 C52.9076,27.950256 52.534458,27.5115539 52.6035584,27.1117242 L51.6831416,26.9525327 C51.5412555,27.7864369 52.1051145,28.4500432 52.5584128,28.9831495 C52.6652881,29.1090218 52.7693993,29.2302664 52.8550837,29.3459579 C52.9776217,29.5107026 53.0697555,29.6930323 53.1646534,29.87166 C53.2982474,30.1280323 53.4364481,30.3918088 53.6409852,30.6268939 C53.9625322,30.9934045 54.3264608,31.2682874 54.7152656,31.4672767 L54.5733795,31.9328192 C54.8783424,32.0272235 55.2662258,32.2835958 55.6071209,32.5085 C55.6541092,32.5390425 55.6964907,32.5649574 55.7416363,32.5955 C55.7112321,32.7963404 55.6900414,32.9971808 55.6743786,33.1933935 C55.6485811,33.5358403 55.623705,33.8588509 55.5205151,34.1272551 C55.4044265,34.4280529 55.2524057,34.4863614 54.8893985,34.6002018 C54.5650874,34.7001592 54.16062,34.8269571 53.8188035,35.2378932 C53.2982474,35.8644782 53.4042013,36.7085632 53.4972565,37.4536163 C53.602289,38.2782651 53.6372999,38.7993395 53.280742,39.0732969 C53.2540232,39.0862543 53.1628107,39.1019884 53.1038451,39.1140203 C52.8541624,39.1602969 52.4773351,39.2306373 52.2405512,39.5795628 C52.0175873,39.907201 52.0489128,40.2672329 52.0710249,40.5300839 C52.082081,40.6531796 52.0912944,40.7697966 52.0756316,40.8475413 C51.9742844,41.3195625 51.5633676,42.0951581 51.1625855,42.5773602 C51.0667663,42.6912006 50.9571271,42.8448389 50.8391958,43.0123601 C50.6079399,43.3390728 50.2596741,43.8305302 50.0192048,43.9304876 C49.7050285,44.0628387 49.0370583,43.9776898 48.4989968,43.9092004 C48.3617174,43.8906898 48.2308874,43.8758813 48.1028213,43.8619983 C48.1129561,43.2826154 48.1083494,42.6356687 47.6513656,42.0525837 C47.5196143,41.8859879 47.4007616,41.7767752 47.2865157,41.6768178 C47.162135,41.567605 47.093956,41.5074454 47.023013,41.3612114 C46.9161378,41.144637 46.8884976,40.9317647 46.8544081,40.6633605 L46.832296,40.488435 C46.7116007,39.5952968 46.8276893,38.8345097 47.0036649,37.8543715 C47.1547643,37.0056589 47.2017526,35.8617016 46.5623439,35.2314145 C46.3568855,35.028723 46.1265509,34.9537549 45.957946,34.8991486 C45.7828918,34.8417656 45.7497236,34.8241805 45.7165554,34.7667975 C45.6686458,34.6862763 45.6603538,34.5733614 45.6511404,34.3965848 C45.6327136,34.0707976 45.6050735,33.5802658 45.1038655,33.1804361 C44.5096024,32.7056383 43.7209369,32.7509893 43.0234839,32.7954148 C42.792228,32.8092978 42.5655788,32.8268829 42.3601204,32.814851 C41.4046927,32.7750531 40.7164531,32.6491808 40.0254494,32.130883 C39.4800172,31.721798 39.1667622,31.3932342 39.0700217,30.8388407 C38.9861799,30.3510854 39.0552803,29.7235749 39.1160886,29.1710324 L39.1547848,28.8054474 C39.1658409,28.6906814 39.1722902,28.5527772 39.1787396,28.4037666 C39.1944024,28.0650219 39.2192785,27.497671 39.3620859,27.3227455 L39,27.0265753 L39.4726465,27.2672135 C39.6154539,27.2727667 39.8568445,27.2847987 40.1553581,27.1237561 C40.4160968,26.9830753 41.1844929,26.2704158 41.3199296,26.1177031 C41.5419721,25.8650329 41.6912289,25.560533 41.8082388,25.2810224 L41.8395643,25.3485862 C42.4743663,25.052416 43.4684902,24.8460224 44.2608411,24.8460224 C44.5151304,24.8460224 44.8237787,24.8645331 45.1011015,24.8839692 C45.3084026,24.8978522 45.5193891,24.9052565 45.7312968,24.9126607 C45.756173,25.0866607 45.8123746,25.2634373 45.9330699,25.4254053 C46.3237173,25.9529584 47.398919,26.1417669 48.0033168,26.2065541 L48.5625691,26.2667137 L48.5183449,25.7039904 C48.5165022,25.6817776 48.5165022,25.6595649 48.5165022,25.6401287 C48.8785881,25.665118 49.246202,25.7493414 49.6294787,25.8381925 C50.3978748,26.0158946 51.193911,26.1991499 52.0148233,25.8900223 C52.5611769,25.6845542 52.8090168,25.3920862 52.7528152,25.022799 C52.6256705,24.2055544 50.8438025,24.1074481 50.7664101,24.1037459 C50.6318947,24.0972672 50.496458,24.1009693 50.3628639,24.1046715 C50.1012039,24.1092991 49.8800827,24.1176289 49.7031858,24.0398842 C49.551165,23.9723204 49.3973015,23.8612566 49.2333033,23.7427885 C49.0149462,23.5845226 48.7661848,23.405895 48.4685926,23.2948312 C48.2133819,23.2004269 47.9673846,23.1661823 47.728758,23.1337886 C47.4588059,23.0958418 47.224786,23.0643738 47.0165636,22.9505333 C46.6977806,22.7774589 46.2168421,22.1212569 45.9855862,21.6409059 L45.2254822,20.0702785 L45.0992588,21.8112037 C45.0955735,21.8565548 45.0937308,21.9019058 45.0918881,21.9481824 C44.9840916,21.8685867 44.8578682,21.8139803 44.7021621,21.8084271 C44.4386594,21.7899165 44.2295156,21.9241186 44.0323492,22.1777143 C43.9042832,22.3415334 43.8342615,22.5062781 43.7716105,22.6506611 C43.7144875,22.7830121 43.669342,22.8875972 43.5891855,22.9782993 L43.4436141,23.144895 C43.228021,23.3938631 43.0409893,23.6076609 42.8097334,23.7316822 C42.5029278,23.8964268 41.2508292,24.0343311 40.9956185,23.9047566 C40.841755,23.7520439 40.8942713,22.9533099 40.9219115,22.5960547 C41.0416854,22.589576 41.1734368,22.5867994 41.3033455,22.5830972 C41.8165309,22.5710653 42.3463003,22.5590334 42.7222063,22.3618951 C43.2704025,22.0731292 43.4758609,21.5363208 43.2344703,21.0272783 C43.0750788,20.6922358 42.7691945,20.5922784 42.5665001,20.5265656 C42.53886,20.5173103 42.5047705,20.5071295 42.4725236,20.492321 C42.5683428,20.4525231 42.6936448,20.4117997 42.7820933,20.3821827 C43.0842922,20.2831508 43.3966259,20.1804167 43.612219,19.9592146 C43.7633185,19.8046508 43.8536096,19.6306509 43.9263953,19.4908956 C43.9825969,19.3826084 44.0314279,19.2891296 44.0876295,19.241002 C44.2304369,19.1188318 44.4939396,19.0595978 44.7473076,19.0022148 C44.8652389,18.9762999 44.9804062,18.9494595 45.0900455,18.9179914 L45.4115925,18.8245127 L45.4272552,18.4894702 C45.4355473,18.3247255 45.440154,18.163683 45.4438393,18.0054171 C45.4502887,17.6990661 45.4567381,17.4056725 45.4954343,17.11413 C45.5921748,17.0974704 45.6815446,17.0771087 45.7635437,17.0576725 C45.7911838,17.0511938 45.8169813,17.0456406 45.8418574,17.0391619 C45.8934524,17.2140874 45.9662381,17.3686512 46.0316531,17.5065554 C46.0814053,17.6129916 46.1330003,17.7185022 46.1670898,17.8304916 L46.2389542,18.0628 L46.4702101,18.1377681 C47.1805618,18.3682255 47.657815,17.8055022 47.9415872,17.4704597 C48.0272716,17.3695767 48.107428,17.2705448 48.1912698,17.1992789 L48.3672454,17.056747 C48.7956677,16.7198534 48.9062282,16.5264173 48.8776668,15.8146834 C48.8629254,15.4750132 48.8684534,15.1436728 48.8730601,14.8123324 C48.8785881,14.4680346 48.8831948,14.1246623 48.8693747,13.7748113 L48.8500266,13.2944603 L48.3727734,13.3259284 C47.6292535,13.3749816 47.3510094,14.1875985 47.1040907,14.9058112 C47.0009009,15.2075345 46.8074198,15.7702578 46.6756685,15.8341195 C46.655399,15.8313429 46.5881414,15.7748855 46.5448385,15.7369387 C46.4204578,15.6305025 46.2325048,15.46946 45.9514967,15.4333643 C45.4171205,15.3639494 45.1757299,15.5731196 45.001597,15.8109812 C44.9564514,15.8729919 44.9509234,15.876694 44.933418,15.8850238 C44.8486548,15.9248216 44.6358257,16.0099706 44.5261865,15.9164919 C44.4358953,15.8405982 44.3741657,15.6314281 44.4515581,15.3519175 C44.5086811,15.1455239 44.5888375,15.1010984 44.8044306,14.9798537 C44.998833,14.8706409 45.2402236,14.7345878 45.4502887,14.4532261 C45.6999713,14.1191091 45.7349822,13.7433432 45.7635437,13.4425454 C45.7709144,13.3536944 45.7792064,13.2657688 45.7939478,13.1787689 C45.9063511,12.5086839 46.4278285,11.8237903 47.1870112,11.3471415 C47.9563286,10.8649394 48.8223865,10.6964926 49.5041767,10.8964075 C49.8542852,10.9991415 50.371156,11.1907266 50.5996478,11.3230777 C50.7442979,11.40545 50.8511732,11.5165138 50.9746325,11.6451627 C51.1828549,11.8608116 51.4408296,12.1292158 51.9134761,12.2643435 C52.3667745,12.3948434 52.654232,12.3670775 53.0559355,12.2680456 C53.4954138,12.1597584 53.7487818,11.9524393 53.9717456,11.769184 C54.0961263,11.668301 54.2030015,11.581301 54.3402809,11.5100351 C54.4093813,11.4739393 54.5098071,11.4674606 54.6351091,11.4582053 C54.7898939,11.4470989 54.983375,11.4341415 55.17962,11.3508436 L56.0180378,11.0000671 L55.8586462,10.9019607 C55.9857909,10.8603118 56.0963515,10.8075565 56.2023054,10.7575777 C56.2677204,10.7261097 56.3368208,10.6927905 56.4151345,10.6603969 C56.511875,10.6215246 56.5837394,10.5974607 56.637177,10.5789501 C57.0038696,10.4558544 57.0877114,10.3096204 57.2157774,9.9560672 L57.2535523,9.8524077 C57.3502928,9.5932588 57.3548995,9.2933865 57.3595062,9.0027695 C57.3631915,8.8426525 57.3677982,8.5751738 57.4018877,8.5029823 C57.448876,8.4178334 57.7308055,8.4354185 57.9381065,8.4455994 C57.952848,8.4465249 57.9657467,8.4465249 57.9814094,8.4465249 L57.9823308,8.5177908 L58.2366201,8.5150142 C58.4807747,8.5122377 58.7295361,8.5140887 58.963556,8.4826206 L59.3081364,8.4372696 L59.3634167,8.0929718 C59.3818435,7.9809824 59.4150117,7.7162803 59.3707874,7.4784187 C59.7678842,7.3664293 60.7703002,6.2992912 60.9103436,6.0040465 C61.0706564,5.6625253 61.0900045,5.3432169 61.1019819,5.129419 C61.1627902,5.1414509 61.2447893,5.1618126 61.3516646,5.1932807 L61.8344458,5.3339615 L61.938557,4.8397276 C61.9708038,4.6842382 61.9929159,4.5259723 62.0159494,4.3667808 C62.0288481,4.2742277 62.0408255,4.1816745 62.0564883,4.0900468 C62.8036935,3.7966533 63.4007207,4.2520149 64.2741493,4.9952169 C65.0600508,5.6634508 65.9482208,6.4223869 67.0952868,6.149355 L67.5163384,6.0493976 L67.4490807,5.6208764 C67.444474,5.5931104 67.4509234,5.5292487 67.4573728,5.4709402 C67.9088285,5.4737168 68.2266901,5.5292487 68.6578764,5.7365679 C69.21805,6.0058976 69.8491667,6.309472 70.6885058,6.2233976 L71.0856026,6.1826742 L71.1067933,5.7828444 C71.1298268,5.3515466 71.0874452,4.997068 71.0312436,4.6648021 C71.0865239,4.7749403 71.1666803,4.8878552 71.291061,4.9859616 C71.6964498,5.3080466 72.4095655,5.232153 72.9835592,5.1710679 C73.1060972,5.1581105 73.2157365,5.1460786 73.3014209,5.1414509 C73.7353712,5.1201637 73.9721551,5.1840254 74.4014987,5.2978658 C74.9810204,5.4533551 75.5006552,5.4996317 76.1824454,5.2589935 C76.7057655,5.6421636 77.5303632,5.2710254 77.9661562,5.0766637 C78.0573687,5.0359403 78.1393678,4.998919 78.2066254,4.9730041 C78.9197412,4.7018233 79.9811228,4.4056532 81.0185496,4.5481851 C81.4322305,4.6046425 81.8606527,4.6398127 82.297367,4.6749829 C82.6225994,4.7018233 82.9515171,4.7286638 83.2804349,4.765685 C83.7337333,4.8165893 83.75216,4.882302 83.7512387,4.8832276 C83.75216,4.8897063 83.7595307,4.955419 83.692273,5.1090573 L83.5761844,5.420036 L83.809283,5.6467913 C83.8737767,5.7088019 83.9677532,5.9040891 84,6.0364402 C83.9143155,6.0419933 83.7963843,6.0373657 83.7162278,6.0345891 C83.5992179,6.0290359 83.4858933,6.0244082 83.3900741,6.032738 L82.9727079,6.0577274 L82.9478318,6.5760252 C82.918349,7.1452272 82.8907088,7.6820356 83.250952,8.230876 C83.4029729,8.4622589 83.5900045,8.6094185 83.7272839,8.7158546 C83.7447893,8.7288121 83.7641374,8.7445461 83.7834855,8.7593546 C83.7586094,8.7917482 83.7208345,8.8352482 83.6609475,8.8917057 C83.5052414,8.9389078 83.2150199,9.0268333 83.0077188,9.3655779 C82.8603047,9.6080673 82.8409566,9.9060885 82.8252938,10.1698651 C82.8188444,10.2716736 82.8160804,10.3688544 82.798575,10.4465991 C82.7773842,10.5345246 82.7322386,10.6733543 82.6806437,10.8094075 L82.5341509,10.8001522 C82.5737685,10.8029288 82.6216781,10.8214394 82.664981,10.8510564 C82.6631383,10.8566096 82.6603743,10.8630884 82.6576103,10.8695671 L82.428197,10.9750777 L81.7049466,10.8834501 C81.6902052,11.0019181 81.668093,11.1157585 81.6469023,11.2286734 C81.5787232,11.5859287 81.5022522,11.9903861 81.6358462,12.4596307 C81.7160026,12.7400668 81.85881,12.9714497 81.9850334,13.1759923 C82.1600876,13.4619816 82.2688055,13.648939 82.2522214,13.8793964 C82.2356374,14.113556 82.0928299,14.4374921 81.9546292,14.7503218 C81.850518,14.9854069 81.7436428,15.2288217 81.6745424,15.4639068 C81.5151509,15.2278962 81.3060071,15.0835133 81.1401663,14.9696728 C81.0047295,14.8761941 80.896933,14.8030771 80.8416527,14.7077474 C80.649093,14.376407 80.7430695,13.6387582 80.8250686,12.9899604 C80.8978543,12.4309392 80.9715614,11.8534074 80.9043037,11.36195 L80.8840342,11.2138649 L80.7836084,11.1046522 C80.5753859,10.8825245 80.2851644,10.6900139 80.0041563,10.5900565 L79.4191065,10.3808863 L79.382253,11.0028437 C79.3675116,11.2444075 79.3675116,11.4896734 79.3675116,11.7358648 C79.3675116,11.814535 79.3675116,11.8932052 79.3675116,11.9718754 C78.6682159,12.0681307 78.2020188,12.4152051 77.7828099,12.7289604 C77.54879,12.9038859 77.3276688,13.0695561 77.0641661,13.2019072 C76.9950657,13.2370774 76.9029319,13.2666944 76.8043487,13.3018646 C76.4256787,13.4342156 75.9042013,13.6165454 75.7309897,14.0959709 C75.6287212,14.3791836 75.6747881,14.6892367 75.8673478,15.0131728 C76.0847836,15.3843111 77.1655133,15.833194 77.1774907,15.8378217 C77.3811064,15.9174174 77.5985422,15.9461089 77.7883379,15.9710982 C77.9090332,15.9877578 78.0914582,16.0108961 78.1329184,16.0349599 C78.1964907,16.0932684 78.2646698,16.3302046 78.308894,16.4884705 C78.3531182,16.647662 78.3991851,16.8031513 78.4572294,16.9318002 C78.5171164,17.0678534 78.5871381,17.2140874 78.6590025,17.3658746 C78.7769338,17.6157682 78.9040785,17.8813958 79.0054257,18.1368426 C78.9068425,18.0267043 78.7861472,17.9360022 78.6461038,17.8693639 L77.9293026,17.5287682 L77.9818189,18.3238 C78.0048524,18.6856829 77.6317104,19.6611934 77.4013759,19.9342253 C77.2806806,20.0758317 77.1581426,20.1332146 77.0024364,20.2054061 C76.7048442,20.3442359 76.2966914,20.5339699 76.1842881,21.2614379 C76.1520413,21.4752357 76.1916588,21.7704803 76.2626019,22.2730441 C76.28195,22.4081717 76.3105114,22.6108632 76.3363089,22.8339163 C76.2469391,22.69231 76.1363785,22.5590334 76.0276606,22.4285334 C75.8885386,22.2628632 75.7448098,22.0907143 75.6821588,21.9380016 L75.5107899,21.5252144 L75.091581,21.6779272 C74.0440195,22.0601718 74.4770484,23.5539801 74.7092257,24.3573416 C74.7433152,24.4730331 74.7718767,24.5729905 74.7912248,24.6507352 L74.8492691,24.892299 C75.0731543,25.7928414 75.2491298,26.5036498 74.7119897,27.2172348 C74.465071,27.5457986 74.1536587,27.6883305 73.756562,27.8688092 C73.5428115,27.96599 73.3253757,28.0659475 73.1134679,28.1964475 C73.0535809,28.2325432 73.0029073,28.2723411 72.9596044,28.315841 L72.9955366,28.110373 L72.4086442,28.1418411 C71.9378404,28.1668304 71.7093485,28.3972878 71.6006306,28.5860963 C71.3868801,28.956309 71.4504525,29.4709047 71.795033,30.1557982 L71.8954588,30.352011 C72.1276361,30.7953407 72.2317473,30.9961811 72.0815691,31.4024895 C71.9894353,31.6523831 71.9148069,31.7523405 71.9111216,31.7828831 C71.8125384,31.7347554 71.6264281,31.547798 71.5112608,31.4330321 C71.3104091,31.2312661 71.103108,31.0230215 70.8589534,30.9138087 L70.2444208,30.6389258 L70.1826911,31.5727874 C70.1532083,31.9198618 70.1191188,32.304883 70.1753204,32.6454787 C70.0537038,32.5732872 69.9578846,32.4964681 69.909975,32.4113192 C69.8758855,32.3409787 69.9118177,32.0818298 69.9330085,31.927266 C69.972626,31.6496065 70.0131649,31.3645427 69.9376152,31.0878087 C69.8003358,30.5806173 69.6225175,30.4177237 69.3230826,30.2788939 Z M50.0295,25.4599544 C50.0335,25.4599544 50.0375,25.4599544 50.0415,25.4599544 C50.1625,25.4569544 50.2825,25.4529544 50.4025,25.4589544 C50.5785,25.4679544 50.7805,25.4969544 50.9705,25.5349544 C50.6755,25.5629544 50.3615,25.5239544 50.0295,25.4599544 Z M47,17.5386169 C47.5547059,17.5073195 47.8005673,16.7137809 47.9879987,16 C47.9879987,16.177688 47.9902752,16.3563857 47.995587,16.5371025 C48.0054518,16.8137304 47.995587,16.8944977 47.9963458,16.903584 C47.981928,16.9268046 47.9197038,16.9924281 47.8696209,17.0449268 L47.7057133,17.2205957 C47.6055476,17.3326603 47.5068995,17.4830893 47.4067337,17.639576 C47.2951855,17.8142352 47.2139905,17.9343766 47.148731,18 C47.1373485,17.9676931 47.1252072,17.9353862 47.1138247,17.9030793 C47.0660183,17.767794 47.0242826,17.6496719 47,17.5386169 Z" id="Shape"></path>
                <path d="M73.6774565,38.1331019 C73.8281218,38.0655493 74.0287359,38.0079635 74.2563715,37.959237 C74.7206499,38.1430687 75.2070368,38.297 75.6270983,38.297 C76.1274053,38.297 76.5335466,38.0777309 76.6989509,37.4276755 L76.875,36.7300011 L76.3304759,36.6879192 C75.8522774,36.6491595 75.0350819,36.6823821 74.3243347,36.8119502 C74.1957779,36.7599014 74.0573951,36.7023156 73.9067298,36.6380853 C73.5145087,36.4697575 73.2058086,36.3357597 72.9765353,36.297 L72.875,37.4099568 C73.012564,37.4332126 73.2754094,37.5439546 73.5644575,37.6668782 L73.6774565,38.1331019 Z" id="Path"></path>
                <path d="M73.7644831,35.991623 L74.1494874,35.9832461 C74.9423451,35.9769634 75.7649063,35.9717277 75.9602646,34.6513089 C76.025384,34.2157068 76.1556228,33.3120419 74.9663364,33 L74.8281004,33.4397906 L74.3825465,33.0617801 C74.2545925,33.1874346 73.9381349,33.2691099 73.6331018,33.347644 C73.0230356,33.504712 72.1010815,33.7434555 72.0085434,34.6994764 C71.9685578,35.1068063 72.0690931,35.4293194 72.3067219,35.6596859 C72.6083276,35.9497382 73.0196082,36 73.4251766,36 C73.5394212,36 73.6548083,35.9958115 73.7644831,35.991623 Z M73.0048507,34.764 C73.0265108,34.585 73.1930228,34.513 73.9362349,34.359 C74.2679052,34.289 74.6320656,34.213 74.9569671,34.081 C74.9759197,34.09 74.9826884,34.096 74.9826884,34.096 C75.0111173,34.136 75.0043485,34.27 74.9637359,34.493 C74.9095856,34.784 74.840544,34.852 74.8432516,34.852 C74.7606724,34.885 74.4303559,34.887 74.0323516,34.889 L73.6654837,34.897 C73.4394064,34.904 73.0617085,34.915 73.0116195,34.919 C73.0102657,34.919 72.9913131,34.879 73.0048507,34.764 Z" id="Shape"></path>
                <path d="M85.4127969,35.5971364 C84.9348179,35.3506608 84.3194758,35.2979095 83.885051,35.297 L83.8839342,35.6880869 C83.8805839,35.6889964 83.8783503,35.6889964 83.875,35.6899059 L83.8839342,35.7308336 L83.8828174,36.2192374 C83.9207877,36.2192374 83.958758,36.2201469 83.9967283,36.2210564 L84.0816031,36.5948627 C84.3395777,36.559392 84.9024315,36.7158267 85.4127969,36.9213747 C85.643969,37.1196467 85.9354468,37.297 86.3196169,37.297 C86.3430691,37.297 86.3687549,37.2960905 86.3922071,37.295181 L86.875,36.9213747 L86.6803346,36.460256 C86.5842921,36.4038668 86.3866233,36.3029118 86.1297654,36.1901332 C86.0951454,36.1573911 86.0616422,36.1228299 86.0337229,36.0955448 C85.8639733,35.922739 85.6674212,35.7271955 85.4127969,35.5971364 Z" id="Path"></path>
                <path d="M53.7305683,21.7748022 L53.3295771,21.7834461 C52.8576488,21.7998696 52.4330118,21.7091082 51.9729064,21.6200757 C51.7098482,21.5690764 51.450731,21.5189416 51.1866876,21.4852302 L51.2251118,21.3460628 C50.6172209,21.2189968 50.2832257,21.3624862 50.1127798,21.50684 C49.9955366,21.605381 49.8112974,21.8283946 49.897013,22.208728 L49.9748467,22.5562143 L50.3787937,22.5614007 C50.7206707,22.5657227 51.1679681,22.7368727 51.600487,22.9019719 C52.108869,23.0964606 52.6320296,23.297 53.1394264,23.297 C53.2389353,23.297 53.3384442,23.2892205 53.4369679,23.2719326 L53.7394355,23.2192045 L53.8212101,22.9590219 C53.900029,22.7092121 53.8842652,22.3271499 53.825151,22.1153734 L53.7305683,21.7748022 Z" id="Path"></path>
                <path d="M57.1845698,22.365882 C57.1457213,22.3458558 57.0924432,22.3149061 57.0813436,22.3349323 C57.0757938,22.2557375 57.0902233,22.0955274 57.096883,22.0136017 C57.1068727,21.9089189 57.1135324,21.8169801 57.1113125,21.7578116 L57.097993,21.372761 L56.6318101,21.315413 C56.470866,21.2962971 56.3088119,21.2926559 56.1445379,21.3017588 L56.1645172,21.4983803 L55.3609066,21.4583278 C55.2055123,21.5529974 54.913593,21.730503 54.8780743,22.1119125 C54.8370058,22.5661447 55.2166119,22.9002194 55.4663528,23.1214186 L55.5751288,23.2179089 C55.6983343,23.3362459 55.8182099,23.4336464 55.9269859,23.5228544 C56.2377745,23.7759136 56.3210215,23.844185 56.3021521,24.1973756 L56.2388845,25.297 L57.2378479,24.5614897 C57.9249127,24.0544609 58.0569979,23.4372876 57.6307735,22.7245344 C57.5264373,22.5470288 57.3366343,22.4459871 57.1845698,22.365882 Z" id="Path"></path>
                <path d="M29.366384,50.478073 L29.3514904,50.5279985 L29.0878739,50.297 C28.9955337,50.39238 28.8048958,50.5928271 28.9017041,50.9415604 L28.9590444,51.1472235 L29.1638312,51.2038554 C29.3306394,51.2500551 29.5190433,51.297 29.7148939,51.297 C29.7677662,51.297 29.8213831,51.2932742 29.875,51.2858227 L29.7662768,50.5384307 C29.6501068,50.5578048 29.4654263,50.5048987 29.366384,50.478073 Z" id="Path"></path>
                <path d="M24.9095028,12.112026 C24.7952021,12.3612202 24.9814017,12.6156214 25.2256734,12.8209276 C25.2201427,12.8268785 25.214612,12.8320855 25.2100031,12.8365487 L25.4044987,12.9577984 C25.5132687,13.0344163 25.6211169,13.0991324 25.7123731,13.1497151 L25.9483488,13.297 C26.1142692,13.1415326 27.2526674,12.5531369 27.5310449,12.4802383 L28.875,12.128391 L27.5365756,11.764642 C27.3559067,11.715547 27.1420538,11.6843047 26.9263573,11.6746345 C26.8977821,11.623308 26.8664416,11.5727253 26.8360228,11.5221426 C26.7696547,11.4135386 26.7060519,11.3101416 26.6885381,11.2357553 L26.4719198,10.297 L25.8358917,11.1026038 C25.6579881,11.3279943 25.5381567,11.5697498 25.4487441,11.7996035 C25.1722101,11.829358 24.9915413,11.9334989 24.9095028,12.112026 Z" id="Path"></path>
                <path d="M25.875,10.4809161 C25.5619317,10.2648322 25.3899874,9.1487483 25.6251942,8.8707762 L24.2415294,8.297 C23.5926831,8.9515455 23.8165351,10.7641329 24.823869,11.297 L25.875,10.4809161 Z" id="Path"></path>
                <path d="M22.9049595,7.8886099 C22.9049595,7.8251463 22.9049595,7.7616827 22.9049595,7.6982191 L22.9039902,7.3077565 C22.9039902,7.3066809 22.9039902,7.3056052 22.9039902,7.3034539 L22.9039902,7.297 L21.922011,7.3034539 C21.922011,7.4368351 21.9113478,7.5906536 21.9016541,7.7530774 C21.8599708,8.4210588 21.8134407,9.1772438 22.2157323,9.6473048 C22.289405,9.7333571 22.3960365,9.8280147 22.5404737,9.8947053 L22.4706785,10.2453686 C22.6180239,10.2819408 22.7498592,10.297 22.8671538,10.297 C23.3179143,10.297 23.5631667,10.0689613 23.6785226,9.9086888 C23.9072956,9.5924464 23.9383157,9.1503525 23.7609197,8.7265446 C23.5951562,8.3328551 23.2801085,8.0327476 22.9049595,7.8886099 Z" id="Path"></path>
                <path d="M31.8903417,3.6852091 C31.5639819,3.9310378 31.3278126,4.1090133 30.875,4.1802036 L30.995874,5.297 C31.6541725,5.1946641 32.0288819,4.9121279 32.391504,4.6396029 C32.535623,4.5305929 32.6881102,4.4149088 32.875,4.3025617 L32.4491516,3.297 C32.2343677,3.4271446 32.0567759,3.5606263 31.8903417,3.6852091 Z" id="Path"></path>
                <path d="M28.1582758,21.1576344 C28.1660522,21.204877 28.1744766,21.2509385 28.1841971,21.297 L28.2658492,21.24149 C28.3468533,21.2863704 28.4362818,21.3005432 28.5315426,21.2804651 L28.5166379,21.0690546 L28.7985321,20.8753601 C28.7505777,20.6462336 28.7479856,20.3698646 28.7907557,20.0344424 L28.875,19.3706843 L28.5036772,19.3033636 C28.2742736,19.2608453 28.064311,19.4332807 27.9534974,19.7639786 C27.845276,20.0852281 27.8491642,20.5021438 27.963866,20.8257554 C28.0137645,20.966302 28.0805119,21.0785031 28.1582758,21.1576344 Z" id="Path"></path>
            </g>
            <path d="M64.8914285,3.55271368e-15 C54.4685715,3.55271368e-15 46,8.44700461 46,18.843318 C46,23.1751152 48.6057143,28.5898618 53.6,35.7373271 C55.12,37.9032258 56.8571428,40.0691244 58.16,41.8018433 C60.1142857,43.9677419 61.4171428,45.483871 61.4171428,45.483871 C62.2857143,46.3502304 63.5885715,47 64.8914285,47 L64.8914285,47 C66.1942857,47 67.4971428,46.3502304 68.1485715,45.7004609 C68.3657143,45.483871 70.5371428,43.1013825 73.36,39.6359447 C73.5771428,39.4193548 73.5771428,39.202765 73.7942857,39.202765 L74.2285715,38.7695852 C79.8742857,31.4055299 83.1314285,25.5576037 83.7828572,21.2258065 C83.7828572,20.7926267 83.7828572,20.5760368 84,20.1428572 C84,19.9262673 84,19.7096774 84,19.2764977 C84,8.44700461 75.5314285,3.55271368e-15 64.8914285,3.55271368e-15 Z M66,25 C62.0625,25 59,21.9375 59,18 C59,14.0625 62.28125,11 66,11 C69.9375,11 73,14.0625 73,18 C73,21.9375 69.9375,25 66,25 Z" id="Shape" fill="#000000"></path>
        </g>
    </g>
</svg>