<?xml version="1.0" encoding="UTF-8"?>
<svg width="46px" height="32px" viewBox="0 0 46 32" version="1.1" xmlns="http://www.w3.org/2000/svg" xmlns:xlink="http://www.w3.org/1999/xlink">
    <title>material_no-image</title>
    <g id="Page-1" stroke="none" stroke-width="1" fill="none" fill-rule="evenodd">
        <g id="material_no-image" fill="#000000" fill-rule="nonzero">
            <path d="M37.1242976,14.1904457 C36.9772937,14.1904457 36.8285399,14.1517043 36.6920363,14.0696094 L31.4418995,10.9149504 C31.0227636,10.6631312 30.8757598,10.0995357 31.114641,9.65677652 C31.3543973,9.21401737 31.8899112,9.05905167 32.3081721,9.31179335 L37.5583089,12.4664523 C37.9774448,12.7182716 38.1244486,13.2818671 37.8855674,13.7246262 C37.7245632,14.0234886 37.4288055,14.1904457 37.1242976,14.1904457 Z M45.49,22.634 L42,20.619 L42,10.869 C42,10.51 41.808,10.178 41.495,10 L33,5.157 L33,1 C33,0.448 32.553,0 32,0 C31.447,0 31,0.448 31,1 L31,5.157 L23,9.718 L15,5.157 L15,1 C15,0.448 14.552,0 14,0 C13.448,0 13,0.448 13,1 L13,5.157 L4.505,10 C4.193,10.178 4,10.51 4,10.869 L4,20.617 L0.509,22.633 C0.03,22.909 -0.133,23.521 0.143,23.999 C0.329,24.32 0.664,24.499 1.01,24.499 C1.179,24.499 1.352,24.456 1.509,24.365 L5.059,22.315 L13,26.843 L13,31 C13,31.553 13.448,32 14,32 C14.552,32 15,31.553 15,31 L15,26.843 L23,22.282 L31,26.843 L31,31 C31,31.553 31.447,32 32,32 C32.553,32 33,31.553 33,31 L33,26.843 L40.94,22.317 L44.49,24.367 C44.647,24.458 44.819,24.501 44.989,24.501 C45.335,24.501 45.671,24.322 45.856,24.001 C46.133,23.521 45.969,22.91 45.49,22.634 Z M13.856,6.971 C13.905,6.979 13.949,7 14,7 C14.051,7 14.095,6.979 14.144,6.971 L22,11.45 L22,20.55 L14.143,25.029 C14.094,25.021 14.051,25 14,25 C13.949,25 13.906,25.021 13.857,25.029 L6.275,20.707 C6.254,20.637 6.243,20.565 6.205,20.499 C6.151,20.405 6.076,20.335 5.999,20.267 L5.999,11.45 L13.856,6.971 Z M32.144,7 L40,11.479 L40,20.295 C39.924,20.363 39.848,20.435 39.794,20.528 C39.756,20.593 39.746,20.666 39.725,20.735 L32.143,25.057 C32.095,25.05 32.051,25.029 32,25.029 C31.949,25.029 31.905,25.05 31.857,25.058 L24,20.579 L24,11.479 L31.856,7 C31.905,7.008 31.949,7.029 32,7.029 C32.051,7.029 32.095,7.008 32.144,7 Z M19,12 C19.552,12 20,12.448 20,13 L20,18 C20,18.553 19.552,19 19,19 C18.448,19 18,18.553 18,18 L18,13 C18,12.448 18.448,12 19,12 Z" id="Shape"></path>
        </g>
    </g>
</svg>