<?xml version="1.0" encoding="UTF-8"?>
<svg width="81px" height="70px" viewBox="0 0 81 70" version="1.1" xmlns="http://www.w3.org/2000/svg" xmlns:xlink="http://www.w3.org/1999/xlink">
    <title>media</title>
    <g id="Page-1" stroke="none" stroke-width="1" fill="none" fill-rule="evenodd">
        <g id="media" transform="translate(2.000000, 0.000000)" fill="#717171" fill-rule="nonzero">
            <path d="M60.4459459,17.75 L2.55405405,17.75 C0.42999779,17.75 -1.25,19.5186284 -1.25,21.6887967 L-1.25,64.3112033 C-1.25,66.4813716 0.42999779,68.25 2.55405405,68.25 L60.4459459,68.25 C62.5700022,68.25 64.25,66.4813717 64.25,64.3112033 L64.25,21.6887967 C64.25,19.5186283 62.5700022,17.75 60.4459459,17.75 Z M2.55405405,20.25 L60.4459459,20.25 C61.1597276,20.25 61.75,20.8714131 61.75,21.6887967 L61.75,64.3112033 C61.75,65.1285869 61.1597276,65.75 60.4459459,65.75 L2.55405405,65.75 C1.84027245,65.75 1.25,65.1285869 1.25,64.3112033 L1.25,21.6887967 C1.25,20.8714131 1.84027245,20.25 2.55405405,20.25 Z" id="Path"></path>
            <polygon id="Path" points="22 34 41 43.5 22 53"></polygon>
            <path d="M74.5071205,18.4943528 L67.3964784,62.716636 C67.2117864,64.1101954 66.0448286,65.3115426 64.6596386,65.0328307 L59.2273527,64.1724411 L60.1934903,61.5088846 L62.5021403,61.8805004 C63.8873303,62.0663083 65.1801743,61.1372688 65.3648664,59.8366134 L71.6443945,20.6311438 C71.8290865,19.2375845 70.9056264,17.9369291 69.6127824,17.7511212 L13.8357975,8.73943735 C12.4506075,8.55362944 11.1577635,9.482669 10.9730715,10.7833244 L10.3306187,14.9168891 L7.86139786,14.525803 L8.9414594,7.90330175 C9.1261514,6.5097424 10.4189954,5.58070284 11.8041855,5.85941471 L72.4755085,15.7072341 C73.8606985,15.893042 74.7841585,17.1936974 74.5071205,18.4943528 Z" id="Path" transform="translate(41.208834, 35.441655) rotate(-9.000000) translate(-41.208834, -35.441655) "></path>
        </g>
    </g>
</svg>