<?xml version="1.0" encoding="UTF-8"?>
<svg width="448px" height="448px" viewBox="0 0 448 448" version="1.1" xmlns="http://www.w3.org/2000/svg" xmlns:xlink="http://www.w3.org/1999/xlink">
    <title>Shape</title>
    <g id="Page-1" stroke="none" stroke-width="1" fill="none" fill-rule="evenodd">
        <g id="minus" fill="#717171" fill-rule="nonzero">
            <path d="M108,252 C101.4,252 96,246.6 96,240 L96,208 C96,201.4 101.4,196 108,196 L340,196 C346.6,196 352,201.4 352,208 L352,240 C352,246.6 346.6,252 340,252 L108,252 Z M448,48 L448,400 C448,426.5 426.5,448 400,448 L48,448 C21.5,448 0,426.5 0,400 L0,48 C0,21.5 21.5,0 48,0 L400,0 C426.5,0 448,21.5 448,48 Z M400,394 L400,54 C400,50.7 397.3,48 394,48 L54,48 C50.7,48 48,50.7 48,54 L48,394 C48,397.3 50.7,400 54,400 L394,400 C397.3,400 400,397.3 400,394 Z" id="Shape"></path>
        </g>
    </g>
</svg>