<?xml version="1.0" encoding="UTF-8"?>
<svg width="49px" height="49px" viewBox="0 0 49 49" version="1.1" xmlns="http://www.w3.org/2000/svg" xmlns:xlink="http://www.w3.org/1999/xlink">
    <title>narrative</title>
    <g id="Page-1" stroke="none" stroke-width="1" fill="none" fill-rule="evenodd">
        <g id="narrative" fill="#717171" fill-rule="nonzero">
            <path d="M1.3,0.4378 C0.7,0.4378 0.3,0.8378 0.3,1.4378 L0.3,47.4378 C0.3,48.0378 0.7,48.4378 1.3,48.4378 L38.3,48.4378 C38.9,48.4378 39.3,48.0378 39.3,47.4378 L39.3,32.4378 C39.3,31.8378 38.9,31.4378 38.3,31.4378 C37.7,31.4378 37.3,31.8378 37.3,32.4378 C37.3,32.4378 37.3,32.4378 37.3,32.4378 L37.3,46.4378 L2.3,46.4378 L2.3,2.4378 L28.3,2.4378 L28.3,12.4378 C28.3,12.9378 28.7,13.4378 29.3,13.4378 C29.3,13.4378 29.3,13.4378 29.3,13.4378 L37.3,13.4378 C37.3,13.4378 37.3,13.4378 37.3,13.4378 L37.3,22.4378 C37.3,23.0378 37.7,23.4378 38.3,23.4378 C38.9,23.4378 39.3,23.0378 39.3,22.4378 C39.3,22.4378 39.3,22.4378 39.3,22.4378 L39.3,12.4378 C39.3,12.2378 39.2,11.9378 39.1,11.8378 L30.1,0.8378 C29.9,0.6378 29.6,0.4378 29.3,0.4378 L1.3,0.4378 Z M30.3,4.2378 L36.3,11.5378 L30.3,11.5378 L30.3,4.2378 L30.3,4.2378 Z" id="Shape"></path>
            <path d="M42.8,17.4378 C42.5,17.4378 42.3,17.5378 42.1,17.7378 L27.3,32.5378 C27.2,32.6378 27.1,32.7378 27.1,32.9378 L24.4,40.1378 C24.2,40.6378 24.5,41.2378 25,41.4378 C25.2,41.5378 25.5,41.5378 25.7,41.4378 L32.9,38.7378 C33,38.6378 33.2,38.6378 33.3,38.5378 L48.1,23.7378 C48.5,23.3378 48.5,22.7378 48.1,22.3378 L43.6,17.8378 C43.3,17.5378 43.1,17.3378 42.8,17.4378 Z M42.8,19.8378 L45.9,22.9378 L32.6,36.2378 L29.5,33.1378 L42.8,19.8378 Z M28.4,34.9378 L30.7,37.2378 L27,38.6378 L28.4,34.9378 Z" id="Shape"></path>
            <path d="M7.3,17.3378 C6.7,17.3378 6.3,17.7378 6.3,18.3378 C6.3,18.9378 6.7,19.3378 7.3,19.3378 C7.3,19.3378 7.3,19.3378 7.3,19.3378 L29.3,19.3378 C29.9,19.3378 30.3,18.9378 30.3,18.3378 C30.3,17.7378 29.9,17.3378 29.3,17.3378 C29.3,17.3378 29.3,17.3378 29.3,17.3378 L7.3,17.3378 Z" id="Path"></path>
            <path d="M7.3,29.3378 C6.7,29.3378 6.3,29.7378 6.3,30.3378 C6.3,30.9378 6.7,31.3378 7.3,31.3378 C7.3,31.3378 7.3,31.3378 7.3,31.3378 L18.3,31.3378 C18.9,31.3378 19.3,30.9378 19.3,30.3378 C19.3,29.7378 18.9,29.3378 18.3,29.3378 C18.3,29.3378 18.3,29.3378 18.3,29.3378 L7.3,29.3378 Z" id="Path"></path>
            <path d="M7.3,35.3378 C6.7,35.3378 6.3,35.7378 6.3,36.3378 C6.3,36.9378 6.7,37.3378 7.3,37.3378 C7.3,37.3378 7.3,37.3378 7.3,37.3378 L18.3,37.3378 C18.9,37.3378 19.3,36.9378 19.3,36.3378 C19.3,35.7378 18.9,35.3378 18.3,35.3378 C18.3,35.3378 18.3,35.3378 18.3,35.3378 L7.3,35.3378 Z" id="Path"></path>
            <path d="M7.3,23.3378 C6.7,23.3378 6.3,23.7378 6.3,24.3378 C6.3,24.9378 6.7,25.3378 7.3,25.3378 C7.3,25.3378 7.3,25.3378 7.3,25.3378 L29.3,25.3378 C29.9,25.3378 30.3,24.9378 30.3,24.3378 C30.3,23.7378 29.9,23.3378 29.3,23.3378 C29.3,23.3378 29.3,23.3378 29.3,23.3378 L7.3,23.3378 Z" id="Path"></path>
        </g>
    </g>
</svg>