<?xml version="1.0" encoding="UTF-8"?>
<svg width="42px" height="46px" viewBox="0 0 42 46" version="1.1" xmlns="http://www.w3.org/2000/svg" xmlns:xlink="http://www.w3.org/1999/xlink">
    <title>Shape</title>
    <g id="Page-1" stroke="none" stroke-width="1" fill="none" fill-rule="evenodd">
        <g id="noun_notification_3323917" transform="translate(0.000000, -1.000000)" fill="#717171" fill-rule="nonzero">
            <path d="M39.5,33.267 C36.366,31.149 36.3,28.442 36.461,23.839 C36.706852,20.9612841 36.4620358,18.0627137 35.737,15.267 C33.69,8.614 28.8,4.455 22.5,3.886 L22.5,2.486 C22.5,1.65757288 21.8284271,0.986 21,0.986 C20.1715729,0.986 19.5,1.65757288 19.5,2.486 L19.5,3.886 C13.2,4.455 8.31,8.614 6.267,15.267 C5.54196421,18.0627137 5.29714795,20.9612841 5.543,23.839 C5.701,28.439 5.643,31.149 2.504,33.267 C0.676730103,34.4255306 -0.153921328,36.6602325 0.473,38.731 C0.931401995,40.4626367 2.4707195,41.6890518 4.261,41.749 L15.2,41.749 C15.813,45.595 18.494,47.016 21,47.016 C23.506,47.016 26.187,45.595 26.8,41.749 L37.739,41.749 C39.5292805,41.6890518 41.068598,40.4626367 41.527,38.731 C42.1546892,36.6611434 41.3257657,34.4266895 39.5,33.267 L39.5,33.267 Z M21,44.016 C19.6422876,44.0722897 18.4615446,43.0935898 18.265,41.749 L23.735,41.749 C23.5384554,43.0935898 22.3577124,44.0722897 21,44.016 Z M38.659,37.853 C38.527,38.284 38.183,38.753 37.739,38.753 L4.261,38.753 C3.817,38.753 3.473,38.288 3.341,37.853 C3.09979348,37.0421513 3.44909345,36.172009 4.184,35.753 C8.846,32.6 8.69,28.1 8.541,23.736 C8.31289533,21.1909712 8.51334355,18.6257071 9.134,16.147 C10.956,10.215 15.281,6.812 21,6.812 C26.719,6.812 31.044,10.212 32.866,16.147 C33.4866564,18.6257071 33.6871047,21.1909712 33.459,23.736 C33.31,28.095 33.159,32.603 37.816,35.753 C38.5514963,36.1714945 38.9009884,37.0421152 38.659,37.853 L38.659,37.853 Z" id="Shape"></path>
        </g>
    </g>
</svg>