<?xml version="1.0" encoding="UTF-8"?>
<svg width="80px" height="80px" viewBox="0 0 80 80" version="1.1" xmlns="http://www.w3.org/2000/svg" xmlns:xlink="http://www.w3.org/1999/xlink">
    <title>Pages</title>
    <g id="Page-1" stroke="none" stroke-width="1" fill="none" fill-rule="evenodd">
        <g id="pages">
            <rect id="Pages" x="0" y="0" width="80" height="80"></rect>
            <path d="M69.14375,19.053125 C69.896875,19.80625 70.540625,20.828125 71.08125,22.11875 C71.61875,23.4125 71.8875,24.596875 71.8875,25.671875 L71.8875,72.171875 C71.8875,73.246875 71.509375,74.1625 70.75625,74.915625 C70.003125,75.66875 69.0875,76.04375 68.0125,76.04375 L13.7625,76.04375 C12.6875,76.04375 11.771875,75.66875 11.01875,74.915625 C10.265625,74.1625 9.8875,73.246875 9.8875,72.171875 L9.8875,7.5875 C9.8875,6.5125 10.265625,5.596875 11.01875,4.84375 C11.771875,4.090625 12.6875,3.7125 13.7625,3.7125 L49.928125,3.7125 C51.00625,3.7125 52.190625,3.984375 53.48125,4.521875 C54.771875,5.059375 55.796875,5.70625 56.55,6.459375 L69.14375,19.053125 L69.14375,19.053125 Z M51.221875,9.203125 L51.221875,24.38125 L66.396875,24.38125 C66.128125,23.6 65.83125,23.046875 65.509375,22.725 L52.875,10.090625 C52.553125,9.76875 52,9.471875 51.221875,9.203125 L51.221875,9.203125 Z M66.721875,70.878125 L66.721875,29.546875 L49.928125,29.546875 C48.853125,29.546875 47.9375,29.16875 47.184375,28.415625 C46.43125,27.6625 46.053125,26.746875 46.053125,25.671875 L46.053125,8.88125 L15.05625,8.88125 L15.05625,70.878125 L66.721875,70.878125 L66.721875,70.878125 Z M25.3875,36.00625 C25.3875,35.628125 25.509375,35.31875 25.753125,35.075 C25.99375,34.834375 26.303125,34.7125 26.68125,34.7125 L55.096875,34.7125 C55.471875,34.7125 55.78125,34.834375 56.025,35.075 C56.265625,35.31875 56.3875,35.628125 56.3875,36.00625 L56.3875,38.5875 C56.3875,38.965625 56.265625,39.275 56.025,39.515625 C55.78125,39.759375 55.471875,39.878125 55.096875,39.878125 L26.68125,39.878125 C26.303125,39.878125 25.99375,39.759375 25.753125,39.515625 C25.509375,39.275 25.3875,38.965625 25.3875,38.5875 L25.3875,36.00625 L25.3875,36.00625 Z M55.096875,45.046875 C55.471875,45.046875 55.78125,45.16875 56.025,45.409375 C56.265625,45.653125 56.3875,45.9625 56.3875,46.3375 L56.3875,48.921875 C56.3875,49.296875 56.265625,49.60625 56.025,49.85 C55.78125,50.090625 55.471875,50.2125 55.096875,50.2125 L26.68125,50.2125 C26.303125,50.2125 25.99375,50.090625 25.753125,49.85 C25.509375,49.60625 25.3875,49.296875 25.3875,48.921875 L25.3875,46.3375 C25.3875,45.9625 25.509375,45.653125 25.753125,45.409375 C25.99375,45.16875 26.303125,45.046875 26.68125,45.046875 L55.096875,45.046875 Z M55.096875,55.378125 C55.471875,55.378125 55.78125,55.5 56.025,55.74375 C56.265625,55.984375 56.3875,56.29375 56.3875,56.671875 L56.3875,59.253125 C56.3875,59.63125 56.265625,59.940625 56.025,60.18125 C55.78125,60.425 55.471875,60.546875 55.096875,60.546875 L26.68125,60.546875 C26.303125,60.546875 25.99375,60.425 25.753125,60.18125 C25.509375,59.940625 25.3875,59.63125 25.3875,59.253125 L25.3875,56.671875 C25.3875,56.29375 25.509375,55.984375 25.753125,55.74375 C25.99375,55.5 26.303125,55.378125 26.68125,55.378125 L55.096875,55.378125 Z" id="Shape" fill="#000000"></path>
        </g>
    </g>
</svg>