<?xml version="1.0" encoding="UTF-8"?>
<svg width="50px" height="51px" viewBox="0 0 50 51" version="1.1" xmlns="http://www.w3.org/2000/svg" xmlns:xlink="http://www.w3.org/1999/xlink">
    <title>placeholder_woodblock</title>
    <g id="Page-1" stroke="none" stroke-width="1" fill="none" fill-rule="evenodd">
        <g id="placeholder_woodblock" fill="#000000" fill-rule="nonzero">
            <path d="M0.212734338,17.4592219 C-0.0793615866,17.7585846 0.014006319,18.6391662 0.0148629053,19.1214728 L0.0645449102,37.9393091 C0.0662580827,38.8601558 0.632461621,39.8632836 1.41024197,40.3272083 L17.3376075,49.8262854 C17.6237073,49.9969746 18.4340379,50.2543216 18.7321299,50.25 C19.1724153,50.1965498 19.7540374,49.982094 20.0469899,49.7991501 L47.75413,33.1118662 C48.5062128,32.6278089 49.0535714,31.6185539 49.0535714,30.710837 L49.0535714,12.087324 C49.0535714,11.5428689 49.0407226,11.1673525 48.8976727,10.6859212 C48.7631887,10.2377525 48.1464465,9.96114829 47.7001651,9.69942474 L31.7239742,0.328145781 C30.9718914,-0.111269691 29.7769536,-0.109519031 29.0257274,0.334273088 L1.36055997,16.7291969 L0.212734338,17.4592219 Z M30.0108016,2.07180239 C30.1358632,1.99739937 30.6198345,1.99739937 30.7448961,2.07092706 L46.1000619,11.0798196 L19.0542064,27.109731 C18.9274316,27.1850093 18.4426038,27.1850093 18.3183988,27.1123569 L2.96237633,18.1025891 L30.0108016,2.07180239 Z M2.39959914,38.5914296 C2.23085164,38.4907667 2.02955386,38.1353829 2.02955386,37.9340571 L1.98244161,19.8444951 L17.3393206,28.8542629 C17.5072115,28.9522998 17.7042264,29.3024317 17.7042264,29.4993808 L17.7042264,47.7184916 L2.39959914,38.5914296 Z M20.0504412,29.0237069 L47.2176724,12.5625 L47.2176724,30.0630021 C47.2176724,30.7624327 46.8522901,31.4110481 46.2541017,31.7735033 L20.0504412,47.6508621 L20.0504412,29.0237069 Z" id="Shape"></path>
            <path d="M29.0732759,3.46551724 L29.0732759,5.46551724 C29.0732759,6.15587318 29.63292,6.71551724 30.3232759,6.71551724 C31.0136318,6.71551724 31.5732759,6.15587318 31.5732759,5.46551724 L31.5732759,3.46551724 C31.5732759,2.7751613 31.0136318,2.21551724 30.3232759,2.21551724 C29.63292,2.21551724 29.0732759,2.7751613 29.0732759,3.46551724 Z M29.0732759,9.46551724 L29.0732759,11.4655172 C29.0732759,12.1558732 29.63292,12.7155172 30.3232759,12.7155172 C31.0136318,12.7155172 31.5732759,12.1558732 31.5732759,11.4655172 L31.5732759,9.46551724 C31.5732759,8.7751613 31.0136318,8.21551724 30.3232759,8.21551724 C29.63292,8.21551724 29.0732759,8.7751613 29.0732759,9.46551724 Z M29.0732759,15.4655172 L29.0732759,17.4655172 C29.0732759,18.1558732 29.63292,18.7155172 30.3232759,18.7155172 C31.0136318,18.7155172 31.5732759,18.1558732 31.5732759,17.4655172 L31.5732759,15.4655172 C31.5732759,14.7751613 31.0136318,14.2155172 30.3232759,14.2155172 C29.63292,14.2155172 29.0732759,14.7751613 29.0732759,15.4655172 Z M29.0732759,21.4655172 L29.0732759,21.6594828 C29.0732759,22.3498387 29.63292,22.9094828 30.3232759,22.9094828 C31.0136318,22.9094828 31.5732759,22.3498387 31.5732759,21.6594828 L31.5732759,21.4655172 C31.5732759,20.7751613 31.0136318,20.2155172 30.3232759,20.2155172 C29.63292,20.2155172 29.0732759,20.7751613 29.0732759,21.4655172 Z" id="Path-11"></path>
            <path d="M45.8086959,28.7962591 L44.0585725,27.8282363 C43.4544685,27.4940962 42.6938713,27.7129452 42.3597312,28.3170492 C42.025591,28.9211532 42.24444,29.6817504 42.8485441,30.0158906 L44.5986675,30.9839133 C45.2027715,31.3180535 45.9633687,31.0992045 46.2975088,30.4951004 C46.631649,29.8909964 46.4128,29.1303992 45.8086959,28.7962591 Z M40.5583257,25.8921908 L38.8082023,24.924168 C38.2040983,24.5900279 37.4435011,24.8088769 37.109361,25.4129809 C36.7752208,26.0170849 36.9940698,26.7776821 37.5981739,27.1118223 L39.3482973,28.079845 C39.9524013,28.4139852 40.7129985,28.1951362 41.0471386,27.5910321 C41.3812788,26.9869281 41.1624298,26.2263309 40.5583257,25.8921908 Z M35.3079555,22.9881225 L33.5578321,22.0200997 C32.9537281,21.6859596 32.1931309,21.9048086 31.8589908,22.5089126 C31.5248506,23.1130166 31.7436996,23.8736138 32.3478037,24.2077539 L34.0979271,25.1757767 C34.7020311,25.5099168 35.4626283,25.2910679 35.7967684,24.6869638 C36.1309086,24.0828598 35.9120596,23.3222626 35.3079555,22.9881225 Z" id="Path-11"></path>
            <path d="M2.36867027,39.1968479 L4.09052332,38.1793892 C4.68486905,37.8281849 4.88197413,37.0616651 4.53076982,36.4673194 C4.17956552,35.8729737 3.41304576,35.6758686 2.81870002,36.0270729 L1.09684697,37.0445315 C0.502501233,37.3957359 0.305396159,38.1622556 0.656600465,38.7566013 C1.00780477,39.3509471 1.77432453,39.5480522 2.36867027,39.1968479 Z M7.53422941,36.1444719 L9.25608246,35.1270133 C9.8504282,34.775809 10.0475333,34.0092893 9.69632898,33.4149435 C9.34512468,32.8205978 8.57860492,32.6234927 7.98425918,32.974697 L6.26240611,33.9921556 C5.66806038,34.3433599 5.4709553,35.1098797 5.82215961,35.7042254 C6.17336391,36.2985712 6.93988368,36.4956762 7.53422941,36.1444719 Z M12.6997886,33.0920961 L14.4216416,32.0746375 C15.0159874,31.7234332 15.2130925,30.9569134 14.8618882,30.3625677 C14.5106839,29.7682219 13.7441641,29.5711168 13.1498184,29.9223211 L11.4279653,30.9397798 C10.8336196,31.2909841 10.6365145,32.0575038 10.9877188,32.6518496 C11.3389231,33.2461953 12.1054428,33.4433004 12.6997886,33.0920961 Z M17.8653477,30.0397202 L19.0223212,29.3560541 C19.616667,29.0048498 19.8137721,28.23833 19.4625678,27.6439843 C19.1113635,27.0496385 18.3448437,26.8525334 17.750498,27.2037377 L16.5935245,27.8874039 C15.9991787,28.2386082 15.8020736,29.0051279 16.1532779,29.5994737 C16.5044822,30.1938194 17.271002,30.3909245 17.8653477,30.0397202 Z" id="Path-12"></path>
        </g>
    </g>
</svg>