<?xml version="1.0" encoding="UTF-8"?>
<svg width="67px" height="67px" viewBox="0 0 67 67" version="1.1" xmlns="http://www.w3.org/2000/svg" xmlns:xlink="http://www.w3.org/1999/xlink">
    <!-- Generator: Sketch 53.1 (72631) - https://sketchapp.com -->
    <title>Icons/ObjectPlaceholder/Design</title>
    <desc>Created with Sketch.</desc>
    <g id="Icons/ObjectPlaceholder/Design" stroke="none" stroke-width="1" fill="none" fill-rule="evenodd">
        <g id="noun_Pyramid_1130237" transform="translate(10.000000, 5.000000)" fill="#000000" fill-rule="nonzero">
            <g id="Group">
                <g id="Shape">
                    <g>
                        <path d="M2.2125075,43.3518566 L22.8165014,54.9976336 L43.4204953,43.3518566 L22.8165014,3.0394052 L2.2125075,43.3518566 Z M22.8165014,57.0406356 C22.6548866,57.0406356 22.4932717,56.9997566 22.348769,56.9179984 L0.483228446,44.5592147 C0.0392629054,44.3082363 -0.128056014,43.752091 0.103908851,43.2986187 L21.9694494,0.518213311 C22.2945805,-0.117788716 23.3384224,-0.117788716 23.6626028,0.518213311 L45.5281433,43.2986187 C45.7610589,43.752091 45.5937399,44.3082363 45.1497744,44.5592147 L23.2842339,56.9179984 C23.1397311,56.9997566 22.9781163,57.0406356 22.8165014,57.0406356 L22.8165014,57.0406356 Z"></path>
                        <path d="M21.8657307,55.1391892 L21.8657307,3.01547225 C21.8657307,2.49069927 22.2906827,2.06479657 22.8164064,2.06479657 C23.34213,2.06479657 23.767082,2.49069927 23.767082,3.01547225 L23.767082,55.1391892 C23.767082,55.6639622 23.34213,56.0898649 22.8164064,56.0898649 C22.2906827,56.0898649 21.8657307,55.6639622 21.8657307,55.1391892 Z"></path>
                        <path d="M17.1030357,39.0250464 C16.6932945,39.0250464 16.3415445,38.7683639 16.1998938,38.3880936 C16.1713735,38.2930261 16.15236,38.1884518 16.15236,38.0838774 C16.1419026,37.6845936 16.3995357,37.3138301 16.7893127,37.1807355 L19.6508465,36.1825261 C20.1347404,36.0114045 20.6956391,36.2775936 20.8572539,36.7624382 C21.038833,37.2567896 20.7716931,37.7986747 20.2782924,37.9697964 L17.415808,38.9775126 C17.3121843,39.0060328 17.2066593,39.0250464 17.1030357,39.0250464 M9.02229243,41.8580599 C8.62205797,41.8580599 8.26080122,41.6013774 8.1286573,41.2211072 C8.09063027,41.1165328 8.07161676,41.0214653 8.07161676,40.9168909 C8.07161676,40.5081004 8.32829919,40.1373369 8.70856946,40.0042423 L12.3011728,38.7493504 C12.7869681,38.5782288 13.3478668,38.8539247 13.5094816,39.3292626 C13.6891593,39.8236139 13.4239208,40.3750058 12.9286188,40.5461274 L9.33506473,41.8010193 C9.23999716,41.8390464 9.12591608,41.8580599 9.02229243,41.8580599 M0.951055946,44.6815666 C0.54131473,44.6815666 0.190515405,44.4248842 0.0564701351,44.0446139 C-0.0290906757,43.806945 -0.0195839189,43.5502626 0.0944971622,43.3221004 C0.208578243,43.0844315 0.399664054,42.9133099 0.637332973,42.8372558 L4.22042959,41.5728572 C4.70622486,41.4112423 5.26712351,41.6774315 5.43729446,42.1622761 C5.52285527,42.399945 5.50479243,42.6566274 5.39926743,42.8847896 C5.28518635,43.1129518 5.09505122,43.2840734 4.84787554,43.3696342 L1.26477892,44.6245261 C1.15925392,44.6625531 1.05467959,44.6815666 0.951055946,44.6815666"></path>
                        <path d="M28.529682,39.0250464 C28.4251076,39.0250464 28.3205333,39.0155396 28.215959,38.9775126 L25.3544252,37.9697964 C25.1167563,37.8937423 24.9266211,37.7226207 24.8125401,37.4944585 C24.698459,37.2567896 24.6889522,37.0001072 24.774513,36.7624382 C24.9361279,36.2775936 25.4970266,36.0114045 25.9818711,36.1825261 L28.8434049,37.1807355 C29.2236752,37.3138301 29.4803576,37.6750869 29.4803576,38.0838774 C29.4803576,38.1884518 29.4613441,38.2930261 29.4233171,38.3880936 C29.2902225,38.7683639 28.9289657,39.0250464 28.529682,39.0250464 M36.6009184,41.8580599 C36.4963441,41.8580599 36.3927205,41.8390464 36.2871955,41.8010193 L32.7031482,40.5461274 C32.2087968,40.3750058 31.9426076,39.8236139 32.123236,39.3292626 C32.2943576,38.8539247 32.8457495,38.5782288 33.3305941,38.7493504 L36.9241482,40.0042423 C37.3044184,40.1468436 37.5611009,40.5081004 37.5515941,40.9168909 C37.5515941,41.0119585 37.5325806,41.1165328 37.5040603,41.2211072 C37.3709657,41.6013774 37.009709,41.8580599 36.6009184,41.8580599 M44.6816617,44.6815666 C44.5770874,44.6815666 44.4630063,44.6625531 44.3679387,44.6245261 L40.7743847,43.3696342 C40.2800333,43.1985126 40.0233509,42.6566274 40.1954232,42.1622761 C40.3655941,41.6774315 40.916986,41.4112423 41.4018306,41.5728572 L44.9953847,42.8372558 C45.489736,43.0083774 45.7559252,43.5502626 45.5752968,44.0446139 C45.4422022,44.4248842 45.0809455,44.6815666 44.6816617,44.6815666"></path>
                    </g>
                </g>
            </g>
        </g>
    </g>
</svg>