<?xml version="1.0" encoding="UTF-8"?>
<svg width="68px" height="63px" viewBox="0 0 68 63" version="1.1" xmlns="http://www.w3.org/2000/svg" xmlns:xlink="http://www.w3.org/1999/xlink">
    <title>placeholder_painting</title>
    <g id="Page-1" stroke="none" stroke-width="1" fill="none" fill-rule="evenodd">
        <g id="placeholder_painting" transform="translate(1.000000, 0.000000)">
            <g id="Group" transform="translate(0.500000, 8.867647)" fill="#000000" fill-rule="nonzero">
                <path d="M36.2807537,-0.543739517 L-0.496962084,20.5183884 C-1.16985585,20.9037461 -1.16712259,21.8751509 -0.492070917,22.2567158 L26.1929781,37.3401221 C26.5025498,37.5151038 26.881758,37.5125238 27.18892,37.3333459 L64.5479886,15.5405559 C65.2262711,15.1448911 65.2047761,14.1576531 64.509915,13.7918856 L37.2435132,-0.560858645 C36.9407916,-0.720208099 36.5776189,-0.713750412 36.2807537,-0.543739517 Z M36.797,1.464 L61.982,14.721 L26.676,35.316 L2.021,21.379 L36.797,1.464 Z" id="Path-6"></path>
                <path d="M64.0441176,13.676777 C64.5569534,13.676777 64.9796248,14.0628172 65.0373899,14.5601559 L65.0441176,14.676777 L65.0441176,22.2375408 C65.0441176,22.5435303 64.904255,22.8300694 64.6689315,23.0183342 L64.5623634,23.0927725 L27.8650105,45.3303134 C27.5903528,45.4967481 27.2552296,45.5198269 26.9635526,45.398764 L26.8415111,45.3380526 L-0.505253637,29.3270232 C-0.777642032,29.1675448 -0.956695098,28.8902992 -0.993121849,28.5812631 L-1,28.4640523 L-1,21.3861607 C-1,20.833876 -0.55228475,20.3861607 -2.13162821e-14,20.3861607 C0.512835839,20.3861607 0.935507161,20.7722009 0.993272269,21.2695396 L1,21.3861607 L0.999,27.89 L27.337,43.311 L63.044,21.673 L63.0441176,14.676777 C63.0441176,14.1639412 63.4301578,13.7412698 63.9274965,13.6835047 L64.0441176,13.676777 Z" id="Path-13"></path>
                <path d="M3.46381173,27.8911591 L5.18660916,26.8753004 C5.66234653,26.5947787 5.82060014,25.9817096 5.54007849,25.5059723 C5.25955684,25.0302349 4.64648777,24.8719813 4.1707504,25.1525029 L2.44795297,26.1683617 C1.9722156,26.4488833 1.81396199,27.0619524 2.09448364,27.5376898 C2.37500529,28.0134272 2.98807436,28.1716808 3.46381173,27.8911591 Z M8.63220402,24.8435828 L10.3550014,23.8277241 C10.8307388,23.5472024 10.9889924,22.9341334 10.7084708,22.458396 C10.4279491,21.9826586 9.81488006,21.824405 9.33914268,22.1049266 L7.61634525,23.1207854 C7.14060788,23.4013071 6.98235427,24.0143761 7.26287592,24.4901135 C7.54339757,24.9658509 8.15646664,25.1241045 8.63220402,24.8435828 Z M13.8005963,21.7960066 L15.5233937,20.7801478 C15.9991311,20.4996261 16.1573847,19.8865571 15.8768631,19.4108197 C15.5963414,18.9350823 14.9832723,18.7768287 14.507535,19.0573504 L12.7847375,20.0732091 C12.3090002,20.3537308 12.1507466,20.9667998 12.4312682,21.4425372 C12.7117899,21.9182746 13.3248589,22.0765282 13.8005963,21.7960066 Z M18.9689886,18.7484303 L20.691786,17.7325715 C21.1675234,17.4520499 21.325777,16.8389808 21.0452553,16.3632434 C20.7647337,15.887506 20.1516646,15.7292524 19.6759273,16.0097741 L17.9531298,17.0256328 C17.4773925,17.3061545 17.3191388,17.9192236 17.5996605,18.3949609 C17.8801821,18.8706983 18.4932512,19.0289519 18.9689886,18.7484303 Z M24.1373809,15.700854 L25.8601783,14.6849952 C26.3359157,14.4044736 26.4941693,13.7914045 26.2136476,13.3156671 C25.933126,12.8399298 25.3200569,12.6816762 24.8443195,12.9621978 L23.1215221,13.9780566 C22.6457847,14.2585782 22.4875311,14.8716473 22.7680528,15.3473847 C23.0485744,15.823122 23.6616435,15.9813756 24.1373809,15.700854 Z M29.3057732,12.6532777 L31.0285706,11.6374189 C31.504308,11.3568973 31.6625616,10.7438282 31.3820399,10.2680909 C31.1015183,9.79235348 30.4884492,9.63409987 30.0127118,9.91462152 L28.2899144,10.9304803 C27.814177,11.2110019 27.6559234,11.824071 27.9364451,12.2998084 C28.2169667,12.7755457 28.8300358,12.9337994 29.3057732,12.6532777 Z M34.4741654,9.60570143 L36.1969629,8.58984267 C36.6727002,8.30932102 36.8309539,7.69625195 36.5504322,7.22051457 C36.2699106,6.7447772 35.6568415,6.58652359 35.1811041,6.86704524 L33.4583067,7.882904 C32.9825693,8.16342565 32.8243157,8.77649472 33.1048373,9.25223209 C33.385359,9.72796947 33.9984281,9.88622308 34.4741654,9.60570143 Z" id="Path-15"></path>
                <path d="M62.0667701,19.7852812 L60.3141167,18.8218467 C59.8301348,18.5558016 59.2221178,18.7324742 58.9560727,19.2164561 C58.6900276,19.700438 58.8667003,20.308455 59.3506821,20.5745001 L61.1033355,21.5379346 C61.5873174,21.8039797 62.1953344,21.627307 62.4613795,21.1433252 C62.7274246,20.6593433 62.5507519,20.0513263 62.0667701,19.7852812 Z M56.8088099,16.8949776 L55.0561565,15.9315431 C54.5721746,15.665498 53.9641576,15.8421707 53.6981125,16.3261525 C53.4320674,16.8101344 53.6087401,17.4181514 54.092722,17.6841965 L55.8453754,18.647631 C56.3293572,18.9136761 56.9373742,18.7370034 57.2034193,18.2530216 C57.4694644,17.7690397 57.2927918,17.1610227 56.8088099,16.8949776 Z M51.5508497,14.004674 L49.7981963,13.0412395 C49.3142145,12.7751944 48.7061975,12.9518671 48.4401524,13.4358489 C48.1741073,13.9198308 48.3507799,14.5278478 48.8347618,14.7938929 L50.5874152,15.7573274 C51.0713971,16.0233725 51.6794141,15.8466999 51.9454591,15.362718 C52.2115042,14.8787361 52.0348316,14.2707191 51.5508497,14.004674 Z M46.2928895,11.1143704 L44.5402362,10.1509359 C44.0562543,9.88489082 43.4482373,10.0615635 43.1821922,10.5455453 C42.9161471,11.0295272 43.0928198,11.6375442 43.5768016,11.9035893 L45.329455,12.8670238 C45.8134369,13.1330689 46.4214539,12.9563963 46.687499,12.4724144 C46.9535441,11.9884325 46.7768714,11.3804155 46.2928895,11.1143704 Z M41.0349294,8.22406686 L39.282276,7.26063233 C38.7982941,6.99458723 38.1902771,7.17125989 37.924232,7.65524176 C37.6581869,8.13922363 37.8348596,8.74724063 38.3188415,9.01328572 L40.0714948,9.97672025 C40.5554767,10.2427654 41.1634937,10.0660927 41.4295388,9.58211082 C41.6955839,9.09812895 41.5189112,8.49011196 41.0349294,8.22406686 Z" id="Path-7"></path>
                <polygon id="Path-14" points="28.0090818 36.469567 28.0090818 44.4750817 26.0090818 44.4750817 26.0090818 36.469567"></polygon>
                <path d="M37.9006332,6.06913807 L37.9006332,4.06913807 C37.9006332,3.51685332 37.4529179,3.06913807 36.9006332,3.06913807 C36.3483485,3.06913807 35.9006332,3.51685332 35.9006332,4.06913807 L35.9006332,6.06913807 C35.9006332,6.62142282 36.3483485,7.06913807 36.9006332,7.06913807 C37.4529179,7.06913807 37.9006332,6.62142282 37.9006332,6.06913807 Z" id="Path-16"></path>
            </g>
            <rect id="Rectangle" x="1.48529412" y="0" width="62.0735294" height="62.0735294"></rect>
        </g>
    </g>
</svg>