<?xml version="1.0" encoding="UTF-8"?>
<svg width="57px" height="60px" viewBox="0 0 57 60" version="1.1" xmlns="http://www.w3.org/2000/svg" xmlns:xlink="http://www.w3.org/1999/xlink">
    <title>placeholder_letter</title>
    <g id="Page-1" stroke="none" stroke-width="1" fill="none" fill-rule="evenodd">
        <g id="placeholder_letter" transform="translate(1.000000, 2.000000)" fill="#000000" fill-rule="nonzero">
            <path d="M-0.683908046,7.00165901 L-0.683908046,36.608444 L35.7829856,57.9108867 L-0.683908046,7.00165901 Z M1.316,13.227 L28.7,51.457 L1.316,35.461 L1.316,13.227 Z" id="Path-8"></path>
            <polygon id="Path-17" points="-0.0793290251 9.1964425 24.1684876 -1.2424202 55.1933493 43.6550843 33.0907007 55.5642504 32.1420231 53.8035656 52.277 42.954 23.454 1.242 0.711512933 11.0334425"></polygon>
            <path d="M22.8114935,0 L22.8114935,2 L24.8114935,2 L24.8114935,0 L22.8114935,0 Z M22.8114935,6 L22.8114935,8 L24.8114935,8 L24.8114935,6 L22.8114935,6 Z M22.8114935,12 L22.8114935,14 L24.8114935,14 L24.8114935,12 L22.8114935,12 Z M22.8114935,18 L22.8114935,20 L24.8114935,20 L24.8114935,18 L22.8114935,18 Z M22.8114935,24 L22.8114935,25.9195402 L23.8114935,25.9195402 L23.4160725,25.0010402 L23.3421702,25.0328557 L24.1330122,26.8698557 L24.8114935,26.5777645 L24.8114935,24 L22.8114935,24 Z M19.6681702,26.6145396 L17.8311702,27.4053816 L18.6220122,29.2423816 L20.4590122,28.4515396 L19.6681702,26.6145396 Z M14.1571702,28.9870655 L12.3201702,29.7779075 L13.1110122,31.6149075 L14.9480122,30.8240655 L14.1571702,28.9870655 Z M8.64617022,31.3595914 L6.80917022,32.1504334 L7.60001219,33.9874334 L9.43701218,33.1965914 L8.64617022,31.3595914 Z M3.13517023,33.7321173 L1.29817023,34.5229593 L2.0890122,36.3599593 L3.9260122,35.5691173 L3.13517023,33.7321173 Z" id="Path-18"></path>
            <path d="M53.6138342,42.4446522 L51.8939433,41.4238804 L50.8731714,43.1437713 L52.5930624,44.1645432 L53.6138342,42.4446522 Z M48.4541614,39.3823367 L46.7342705,38.3615648 L45.7134986,40.0814558 L47.4333896,41.1022276 L48.4541614,39.3823367 Z M43.2944886,36.3200211 L41.5745977,35.2992493 L40.5538258,37.0191402 L42.2737168,38.0399121 L43.2944886,36.3200211 Z M38.1348158,33.2577056 L36.4149249,32.2369338 L35.394153,33.9568247 L37.1140439,34.9775965 L38.1348158,33.2577056 Z M32.975143,30.1953901 L31.255252,29.1746182 L30.2344802,30.8945091 L31.9543711,31.915281 L32.975143,30.1953901 Z M27.8154702,27.1330745 L26.0955792,26.1123027 L25.0748074,27.8321936 L26.7946983,28.8529654 L27.8154702,27.1330745 Z" id="Path-19"></path>
        </g>
    </g>
</svg>