<?xml version="1.0" encoding="UTF-8"?>
<svg width="67px" height="67px" viewBox="0 0 67 67" version="1.1" xmlns="http://www.w3.org/2000/svg" xmlns:xlink="http://www.w3.org/1999/xlink">
    <!-- Generator: Sketch 53.1 (72631) - https://sketchapp.com -->
    <title>Icons/ObjectPlaceholder/Impression</title>
    <desc>Created with Sketch.</desc>
    <g id="Icons/ObjectPlaceholder/Impression" stroke="none" stroke-width="1" fill="none" fill-rule="evenodd">
        <g id="noun_frustum_401930" transform="translate(5.000000, 8.000000)" fill="#000000">
            <path d="M12.4059875,27.7227366 L11.052769,28.3249316 C10.569043,28.5399435 10.3379069,29.1396423 10.5364572,29.6641849 C10.6865,30.0611506 11.0398831,30.3012595 11.4126288,30.3012595 C11.5321098,30.3012595 11.6539521,30.2764323 11.7715441,30.2242816 L13.1246951,29.6223564 C13.6084212,29.4070747 13.8395572,28.8073758 13.6412093,28.2828333 C13.4427265,27.7585606 12.8901184,27.508197 12.4059875,27.7227366 Z" id="Path"></path>
            <path d="M6.99318083,30.1305723 L5.63996229,30.7322951 C5.15623625,30.9475768 4.92489781,31.5470058 5.12317826,32.0715484 C5.27342344,32.4687165 5.62680656,32.7088254 5.99961969,32.7088254 C6.11910069,32.7088254 6.24094299,32.6839982 6.35833257,32.6318475 L7.71148365,32.0301247 C8.19520969,31.8149105 8.42654813,31.215414 8.22826767,30.6909389 C8.02971736,30.1659241 7.47555757,29.9165725 6.99318083,30.1305723 Z" id="Path"></path>
            <path d="M17.8189292,25.3153731 L16.4657106,25.9170959 C15.9819846,26.1323776 15.7508485,26.7320764 15.9491965,27.256619 C16.0994416,27.6535847 16.4528248,27.8936936 16.8255704,27.8936936 C16.9450514,27.8936936 17.0668937,27.8688664 17.1844857,27.8165133 L18.5376368,27.214858 C19.0213628,26.9995762 19.2524989,26.3998774 19.0539485,25.8753349 C18.8557356,25.3506574 18.3033973,25.0993492 17.8189292,25.3153731 Z" id="Path"></path>
            <path d="M22.238647,25.4860602 C22.358128,25.4860602 22.4799028,25.461233 22.5975623,25.4090823 L23.9507808,24.8068873 C24.4345068,24.5918754 24.6656429,23.9921766 24.467295,23.467634 C24.2687447,22.9436312 23.7164064,22.6927278 23.2319383,22.9074698 L21.8787872,23.5094625 C21.3950611,23.7247442 21.1639251,24.3244431 21.3624754,24.8489856 C21.5124507,25.2459513 21.8658339,25.4860602 22.238647,25.4860602 Z" id="Path"></path>
            <path d="M38.1248983,27.2402924 L39.4789939,27.8402611 C39.5961811,27.8921419 39.7172813,27.9166992 39.8367623,27.9166992 C40.2097778,27.9166992 40.5633633,27.6758482 40.7134061,27.2781404 C40.9110119,26.7533955 40.6789988,26.1541689 40.1950029,25.9396967 L38.8409073,25.339728 C38.3585306,25.1259306 37.8047756,25.3767665 37.6064951,25.9018487 C37.4089568,26.4265936 37.6409699,27.0257528 38.1248983,27.2402924 Z" id="Path"></path>
            <path d="M43.5409434,29.6398974 L44.895039,30.2398661 C45.0121587,30.2916794 45.1332589,30.3163042 45.2528073,30.3163042 C45.6258228,30.3163042 45.9794084,30.0754532 46.1294511,29.6777454 C46.3270569,29.152933 46.0950439,28.5537739 45.611048,28.3392343 L44.2569524,27.7392656 C43.7743732,27.525738 43.2206182,27.7763715 43.0225402,28.3013862 C42.8250018,28.8261312 43.0570149,29.4253578 43.5409434,29.6398974 Z" id="Path"></path>
            <path d="M48.9569884,32.0395024 L50.311084,32.6394711 C50.4282037,32.6913519 50.5493039,32.7159092 50.6688524,32.7159092 C51.0418679,32.7159092 51.3955209,32.4750582 51.5454962,32.0773504 C51.743102,31.552538 51.5110889,30.9533789 51.027093,30.7388393 L49.6729974,30.1388706 C49.1900135,29.925343 48.6366633,30.1759765 48.4385852,30.7009913 C48.2409794,31.2257362 48.4729925,31.8249628 48.9569884,32.0395024 Z" id="Path"></path>
            <path d="M34.7790253,23.5400917 L33.4251322,22.940123 C32.9418784,22.7263256 32.388798,22.9771615 32.1905176,23.5019739 C31.9929118,24.0270561 32.2247225,24.6262152 32.7087184,24.8407548 L34.0626116,25.4407235 C34.1800011,25.4926043 34.3011013,25.5171617 34.4205823,25.5171617 C34.7935978,25.5171617 35.1471834,25.2763107 35.2972261,24.8788052 C35.4948319,24.3537905 35.2630213,23.7545639 34.7790253,23.5400917 Z" id="Path"></path>
            <path d="M56.3138071,33.5862788 C56.3079376,33.5534232 56.3040246,33.5206351 56.2951192,33.4881168 C56.285809,33.4543842 56.2713714,33.4218659 56.258688,33.3888079 C56.2482983,33.3616869 56.2414843,33.3338237 56.2288008,33.3073099 C56.2269118,33.3033294 56.2240783,33.3002935 56.2221892,33.296313 C56.2200978,33.2920627 56.2192208,33.2874751 56.2170619,33.2832922 L42.9818379,7.33052583 C42.9680075,7.30340479 42.9497919,7.28100632 42.93414,7.25584177 C42.9230757,7.23816587 42.9129559,7.22082729 42.9008796,7.20389351 C42.8476495,7.12873719 42.7876729,7.06221642 42.7199377,7.00729969 C42.7095481,6.99886653 42.698079,6.99272719 42.687352,6.98476628 C42.6186723,6.93376253 42.5450677,6.89308097 42.4674152,6.86332878 C42.4587796,6.86002299 42.452303,6.85320899 42.4435999,6.85017306 L28.6257872,0.128209877 C28.4418769,0.0640503974 28.243529,0.0627685571 28.0582018,0.123959564 L14.6659464,6.85017306 C14.660954,6.85185969 14.6571084,6.85570521 14.6521835,6.85752677 C14.5712926,6.88592965 14.4952592,6.92796052 14.4236111,6.97916667 C14.4100506,6.9888142 14.3960178,6.99711243 14.382997,7.00743462 C14.314992,7.06160924 14.253801,7.12617351 14.2001661,7.20052024 C14.1886295,7.21644205 14.1794543,7.2332409 14.1688622,7.24990483 C14.1499719,7.27938715 14.1289228,7.30650819 14.1126636,7.33862167 L0.452084826,33.286733 C0.450330729,33.2901737 0.449588611,33.2938843 0.447901979,33.297325 C0.446417743,33.3003609 0.444258854,33.3027222 0.442774618,33.3057582 C0.430023681,33.3323395 0.423142222,33.3603376 0.412685104,33.3875261 C0.399731771,33.4214611 0.384687014,33.4547215 0.375241875,33.4893312 C0.366538854,33.5211748 0.36303066,33.5534232 0.357296111,33.5855367 C0.351224236,33.6194042 0.343195868,33.6530019 0.340362326,33.6870044 C0.337663715,33.7195902 0.339822604,33.751906 0.340025,33.7844243 C0.340159931,33.8181569 0.338405833,33.8518896 0.341576701,33.8852849 C0.344612639,33.9169936 0.352303681,33.9475553 0.358038229,33.9787243 C0.364177569,34.0121196 0.368427882,34.0457848 0.37760316,34.0783031 C0.385901389,34.1079878 0.398584861,34.1358509 0.409379306,34.1645911 C0.42145559,34.1967721 0.431777778,34.2295602 0.446822535,34.2603918 C0.460045729,34.2874454 0.47731684,34.3119353 0.492766389,34.337707 C0.510577222,34.3674592 0.526836354,34.3980885 0.547548194,34.4258167 C0.565696354,34.4500367 0.587690035,34.4710184 0.607929618,34.4935518 C0.630935278,34.5191886 0.652389236,34.5458374 0.678093507,34.5690455 C0.700964236,34.5896224 0.727680486,34.6060839 0.752642639,34.6245694 C0.777739722,34.6430549 0.80034059,34.664239 0.827596562,34.6803632 C0.830430104,34.6819824 0.833466042,34.6824546 0.836232118,34.6840063 C0.839402986,34.6858279 0.841899201,34.6885265 0.845137535,34.6903481 L27.8452814,49.9389851 C27.8543892,49.9441124 27.8644416,49.9457316 27.8736843,49.9505891 C27.9196956,49.9746742 27.9679333,49.9934295 28.0177227,50.0092839 C28.0363431,50.0152208 28.0542889,50.0232492 28.0731791,50.0279043 C28.1407793,50.0445682 28.2104035,50.0550928 28.2826588,50.0550928 C28.3547117,50.0550928 28.4242684,50.0446357 28.4917337,50.0281067 C28.5104216,50.0235191 28.5280975,50.0154907 28.546583,50.0096212 C28.5964398,49.9939018 28.6446775,49.9752139 28.6907563,49.9511288 C28.6997966,49.9464063 28.7096466,49.9448545 28.718552,49.9398621 L55.824414,34.6911576 C55.8285968,34.6887964 55.8318351,34.6853556 55.836018,34.6829269 C55.8394587,34.6809704 55.8431693,34.6804307 55.84661,34.6784067 C55.8722468,34.6630246 55.8934984,34.6428525 55.9173136,34.6253115 C55.9430179,34.6064213 55.9702064,34.5891501 55.9937518,34.567966 C56.0186465,34.5454326 56.0395607,34.5195934 56.0619592,34.4949011 C56.0830084,34.4716256 56.1054743,34.4496994 56.1242297,34.4246023 C56.1441319,34.3978186 56.1599188,34.3684038 56.1771224,34.3397985 C56.1932466,34.3129473 56.21099,34.287243 56.2246855,34.2590425 C56.239123,34.2292903 56.2492428,34.1977166 56.2609818,34.1666151 C56.2722485,34.136728 56.2849994,34.1077179 56.293635,34.0768188 C56.3024055,34.04538 56.3067232,34.0128617 56.3126602,33.9806133 C56.3186646,33.9482975 56.3262882,33.9166563 56.3293916,33.8838007 C56.3324275,33.8512824 56.3308758,33.8184943 56.3310782,33.7857061 C56.3312806,33.7523783 56.3331696,33.7192528 56.3303361,33.6857901 C56.3274351,33.6523948 56.319744,33.6194717 56.3138071,33.5862788 Z M27.3359186,21.0824666 L27.2917963,21.102099 C26.8080702,21.3171108 26.5769342,21.9168097 26.7754845,22.4413522 C26.8819447,22.72248 27.0910871,22.9214351 27.3359186,23.0156841 L27.3359186,47.336512 L2.57717361,33.3536585 L15.3541667,9.13598765 L27.2917963,14.4236111 L27.3359186,21.0824666 Z M29.2291967,47.3396828 L29.2291967,23.0814628 C29.5130231,23.0056318 29.7620374,22.7949377 29.8811811,22.4789304 C30.0787869,21.9541855 29.8467064,21.3549589 29.3627779,21.1404193 L29.2291967,21.0812522 L29.2291967,14.4236111 L41.6594042,9.13598765 L54.0896118,33.3542657 L29.2291967,47.3396828 Z M17.1545394,7.90972222 L28.3819444,2.32638889 L40.4791667,7.90972222 L28.3819444,12.5625 L17.1545394,7.90972222 Z" id="Shape" fill-rule="nonzero"></path>
        </g>
    </g>
</svg>