<?xml version="1.0" encoding="UTF-8"?>
<svg width="66px" height="52px" viewBox="0 0 66 52" version="1.1" xmlns="http://www.w3.org/2000/svg" xmlns:xlink="http://www.w3.org/1999/xlink">
    <title>placeholder_book</title>
    <g id="Page-1" stroke="none" stroke-width="1" fill="none" fill-rule="evenodd">
        <g id="placeholder_book" transform="translate(1.000000, 1.000000)" fill="#000000" fill-rule="nonzero">
            <polygon id="Path-20" points="63.2977 24.5059663 64.2872056 26.2440337 22.3037904 50.1457681 -0.481546977 37.6264203 0.481546977 35.8735797 22.286 47.854"></polygon>
            <path d="M40.1092355,13.994216 C51.4095668,7.91904413 59.7444353,11.5778402 64.5875857,24.6374851 L64.7332785,25.0361091 L62.8516271,25.7138909 C58.4271087,13.4305849 51.3427784,10.2256546 41.0562721,15.755784 C30.6686252,21.3402876 24.7586888,32.0554086 23.3440746,48.0260683 L23.2918831,48.6429162 L21.2983603,48.4820838 C22.6648826,31.5440014 28.9290751,20.0047828 40.1092355,13.994216 Z" id="Path-21"></path>
            <path d="M17.8141139,1.85359104 C23.9163316,-1.42702272 29.1967353,-1.89877691 33.5595355,0.537011682 L33.842764,0.699990699 L32.8229956,2.42047674 C29.0837129,0.204124782 24.4304889,0.567265527 18.7611505,3.61515896 C8.37350355,9.19966258 2.46356714,19.9147836 1.04895294,35.8854433 L0.996761371,36.5022912 L-0.996761371,36.3414588 C0.369760956,19.4033764 6.63395344,7.86415787 17.8141139,1.85359104 Z" id="Path-21"></path>
            <path d="M34.4372856,3.39774302 C34.8538797,3.64466717 35.3081394,4.01157151 35.7946506,4.4999763 L37.2116084,3.08851227 C36.6134322,2.48800784 36.0303855,2.01708266 35.457054,1.67725698 L34.4372856,3.39774302 Z M38.1635331,7.48516761 C38.5052754,7.99223283 38.8554699,8.54097857 39.2139805,9.13131356 L40.9234361,8.09316073 C40.5490187,7.47663299 40.1819283,6.90141172 39.8220289,6.36740567 L38.1635331,7.48516761 Z M41.1564496,12.5828586 C41.4529924,13.1456512 41.7542055,13.7325909 42.0600707,14.3436593 L43.8485373,13.448457 C43.5365517,12.825161 43.2289953,12.2258609 42.9258502,11.6505382 L41.1564496,12.5828586 Z" id="Path-21"></path>
            <path d="M0.493795964,37.6195778 L2.23295156,36.6319859 L1.24535963,34.8928303 L-0.493795964,35.8804222 L0.493795964,37.6195778 Z M5.71126275,34.656802 L7.45041835,33.6692101 L6.46282642,31.9300545 L4.72367082,32.9176464 L5.71126275,34.656802 Z M10.9287295,31.6940262 L12.6678851,30.7064343 L11.6802932,28.9672787 L9.94113761,29.9548706 L10.9287295,31.6940262 Z M16.1461963,28.7312505 L17.8853519,27.7436585 L16.89776,26.0045029 L15.1586044,26.9920949 L16.1461963,28.7312505 Z M21.3636631,25.7684747 L23.1028187,24.7808827 L22.1152268,23.0417271 L20.3760712,24.0293191 L21.3636631,25.7684747 Z M26.5811299,22.8056989 L28.3202855,21.818107 L27.3326936,20.0789514 L25.593538,21.0665433 L26.5811299,22.8056989 Z M31.7985967,19.8429231 L33.5377523,18.8553312 L32.5501604,17.1161756 L30.8110048,18.1037675 L31.7985967,19.8429231 Z M37.0160635,16.8801473 L38.7552191,15.8925554 L37.7676271,14.1533998 L36.0284715,15.1409917 L37.0160635,16.8801473 Z" id="Path-22"></path>
            <path d="M31.8472093,-0.137686715 C31.9928099,-0.147871974 32.1066308,-0.130854802 32.2302334,-0.0988121783 C32.343839,-0.0693611617 32.4663747,-0.0241491597 32.618711,0.0404163502 L32.8556881,0.145546432 C33.0307599,0.225996149 33.2402755,0.327273515 33.4858525,0.449988477 L34.2681859,0.849764177 C34.9123632,1.18460579 35.7150724,1.61288507 36.6771375,2.1349984 L38.6732995,3.2269644 C40.7179017,4.35275692 43.2587588,5.77059267 46.2961343,7.48061244 L53.6541734,11.6429222 L52.6665814,13.3820778 L47.4136315,10.4068096 C43.7984948,8.36527131 40.7966065,6.68457085 38.408328,5.36490137 L36.0504428,4.07071016 C34.8439061,3.41393303 33.8756569,2.89729097 33.1471998,2.52150764 L32.7736496,2.33050872 C32.4097789,2.14634154 32.1265959,2.00935561 31.9295602,1.92160949 L31.7283456,1.83719108 C31.7965728,1.85487824 31.8688622,1.8656861 31.9867751,1.85743769 C32.4016025,1.82841909 32.8255118,1.5406786 32.888274,1.01214071 L32.8962264,0.875 L30.8962264,0.875 C30.8962264,0.240845663 31.3701252,-0.104313049 31.8472093,-0.137686715 Z" id="Path-23"></path>
            <path d="M42.4666417,14.8778247 L44.2222911,15.8357887 L45.1802551,14.0801393 L43.4246057,13.1221753 L42.4666417,14.8778247 Z M47.73359,17.7517168 L49.4892394,18.7096808 L50.4472034,16.9540314 L48.691554,15.9960674 L47.73359,17.7517168 Z M53.0005383,20.6256089 L54.7561877,21.5835729 L55.7141517,19.8279235 L53.9585023,18.8699594 L53.0005383,20.6256089 Z M58.2674866,23.4995009 L60.023136,24.457465 L60.9811,22.7018155 L59.2254506,21.7438515 L58.2674866,23.4995009 Z" id="Path-24"></path>
        </g>
    </g>
</svg>