<?xml version="1.0" encoding="UTF-8"?>
<svg width="27px" height="27px" viewBox="0 0 27 27" version="1.1" xmlns="http://www.w3.org/2000/svg" xmlns:xlink="http://www.w3.org/1999/xlink">
    <title>researchspace</title>
    <g id="Page-1" stroke="none" stroke-width="1" fill="none" fill-rule="evenodd">
        <g id="researchspace" transform="translate(1.000000, 1.000000)" fill="#000000" fill-rule="nonzero">
            <path d="M16,6 C12.1342152,6 9,9.13421524 9,13 C9,16.8657847 12.1342153,20 16,20 C19.8657848,20 23,16.8657848 23,13 C23,9.13421521 19.8657848,6 16,6 Z M16,8 C18.7612153,8 21,10.2387847 21,13 C21,15.7612153 18.7612153,18 16,18 C13.2387847,18 11,15.7612153 11,13 C11,10.2387847 13.2387847,8 16,8 Z" id="Path"></path>
            <path d="M12.5,-1 C5.04386911,-1 -1,5.04386911 -1,12.5 C-1,19.9554895 5.04418929,26 12.5,26 C19.9558107,26 26,19.9554895 26,12.5 C26,5.04386912 19.9561309,-1 12.5,-1 Z M12.5,1 C18.8515614,1 24,6.14843862 24,12.5 C24,18.8509438 18.8512174,24 12.5,24 C6.14878258,24 1,18.8509438 1,12.5 C1,6.14843861 6.14843861,1 12.5,1 Z" id="Path"></path>
        </g>
    </g>
</svg>