<?xml version="1.0" encoding="UTF-8"?>
<svg width="94px" height="94px" viewBox="0 0 94 94" version="1.1" xmlns="http://www.w3.org/2000/svg" xmlns:xlink="http://www.w3.org/1999/xlink">
    <title>restart</title>
    <g id="Page-1" stroke="none" stroke-width="1" fill="none" fill-rule="evenodd">
        <g id="restart" fill="#000000" fill-rule="nonzero">
            <path d="M46.974,0.474 C21.3325729,0.474 0.474,21.3325729 0.474,46.974 C0.474,72.6154271 21.3325729,93.474 46.974,93.474 C49.1834271,93.474 50.974,91.6834271 50.974,89.474 C50.974,87.2645729 49.1834271,85.474 46.974,85.474 C25.7464271,85.474 8.474,68.2015729 8.474,46.974 C8.474,25.7464271 25.7464271,8.474 46.974,8.474 C68.2015729,8.474 85.474,25.7464271 85.474,46.974 L85.469836,47.5474174 C85.3616269,54.9937074 83.1466235,62.1167726 79.0809151,68.2276233 L78.887,68.513 L77.6558898,63.9167753 C77.0854492,61.7852127 74.8909602,60.521824 72.7594726,61.0871246 C70.6227267,61.6593768 69.3557488,63.8538221 69.9270634,65.9870498 L73.1621047,78.0612041 C73.6276279,79.7928237 75.2357724,81.026 77.028,81.026 L89.526,81.026 C91.7354271,81.026 93.526,79.2354271 93.526,77.026 L93.5211055,76.826335 C93.4170958,74.7096975 91.6684748,73.026 89.526,73.026 L85.49,73.025 L85.5082569,72.9998102 C90.702411,65.3462732 93.474,56.3532448 93.474,46.974 C93.474,21.3325729 72.6154271,0.474 46.974,0.474 Z" id="Path-path"></path>
            <path d="M34.7252404,29.3501241 C28.9509229,33.2874924 25.5,39.7395436 25.5,46.6114974 C25.5,58.2215841 35.1513032,67.6503569 47,67.6503569 C58.8486968,67.6503569 68.5,58.2215841 68.5,46.6114974 C68.5,39.7398394 65.049333,33.2877187 59.2761616,29.3503982 C57.5330023,28.1623865 55.1617271,28.5242455 53.8610964,30.1497942 L53.7304373,30.3224505 C52.4495429,32.1155396 52.8994965,34.5909341 54.7255289,35.8348038 C58.3436875,38.302797 60.5,42.3323681 60.5,46.6114974 C60.5,53.8554333 54.4503032,59.7656421 47,59.7656421 C39.5496968,59.7656421 33.5,53.8554333 33.5,46.6114974 C33.5,42.3321692 35.6564711,38.3027578 39.2761113,35.8343675 C41.1015035,34.5909341 41.5514571,32.1155396 40.2705627,30.3224505 C39.003556,28.5510441 36.5281066,28.1214205 34.7252404,29.3501241 Z" id="Path-path"></path>
            <path d="M47,18 C44.7905729,18 43,19.7905729 43,22 L43,39.5 C43,41.7094271 44.7905729,43.5 47,43.5 C49.2094271,43.5 51,41.7094271 51,39.5 L51,22 C51,19.7905729 49.2094271,18 47,18 Z" id="Path-path"></path>
        </g>
    </g>
</svg>