<?xml version="1.0" encoding="UTF-8"?>
<svg width="20px" height="20px" viewBox="0 0 20 20" version="1.1" xmlns="http://www.w3.org/2000/svg" xmlns:xlink="http://www.w3.org/1999/xlink">
    <title>path-1</title>
    <g id="Page-1" stroke="none" stroke-width="1" fill="none" fill-rule="evenodd">
        <path d="M2,-1.77635684e-15 L15.8382395,-1.77635684e-15 C16.3686725,-1.77635684e-15 16.8773803,0.210713681 17.2524531,0.585786438 L19.4142136,2.7475469 C19.7892863,3.12261965 20,3.63132748 20,4.16176046 L20,18 C20,19.1045695 19.1045695,20 18,20 L2,20 C0.8954305,20 0,19.1045695 0,18 L0,2 C0,0.8954305 0.8954305,-1.77635684e-15 2,-1.77635684e-15 Z M4.76190476,1.9047619 L1.9047619,1.9047619 L1.9047619,17.0952381 C1.9047619,17.6475228 2.35247715,18.0952381 2.9047619,18.0952381 L17.0952381,18.0952381 C17.6475228,18.0952381 18.0952381,17.6475228 18.0952381,17.0952381 L18.0952381,4.53652509 C18.0952381,4.2713086 17.9898813,4.01695468 17.8023449,3.8294183 L15.8776885,1.9047619 L15.2380952,1.9047619 L15.2380952,7.14285714 L4.76190476,7.14285714 L4.76190476,1.9047619 Z M6.66666667,5.23809524 L13.3333333,5.23809524 L13.3333333,1.9047619 L6.66666667,1.9047619 L6.66666667,5.23809524 Z" id="path-1" fill="#000000" fill-rule="nonzero"></path>
    </g>
</svg>