<?xml version="1.0" encoding="UTF-8"?>
<svg width="20px" height="20px" viewBox="0 0 20 20" version="1.1" xmlns="http://www.w3.org/2000/svg" xmlns:xlink="http://www.w3.org/1999/xlink">
    <title>path-1</title>
    <g id="Page-1" stroke="none" stroke-width="1" fill="none" fill-rule="evenodd">
        <path d="M7.4622771,12.5925926 C8.3950664,12.5925926 9.2546829,12.3593988 10.0411523,11.8930041 C10.8276217,11.4266095 11.4494719,10.8001868 11.9067215,10.0137174 C12.3639712,9.227248 12.5925926,8.3676316 12.5925926,7.4348422 C12.5925926,6.5020529 12.3639712,5.6424365 11.9067215,4.8559671 C11.4494719,4.0694977 10.8276217,3.44764746 10.0411523,2.99039781 C9.2546829,2.53314815 8.3950664,2.30452675 7.4622771,2.30452675 C6.5294878,2.30452675 5.6698713,2.53314815 4.8834019,2.99039781 C4.0969325,3.44764746 3.47050988,4.0694977 3.00411523,4.8559671 C2.53772058,5.6424365 2.30452675,6.5020529 2.30452675,7.4348422 C2.30452675,8.3676316 2.53772058,9.227248 3.00411523,10.0137174 C3.47050988,10.8001868 4.0969325,11.4266095 4.8834019,11.8930041 C5.6698713,12.3593988 6.5294878,12.5925926 7.4622771,12.5925926 Z M14.3209877,12.5925926 L20,18.2716049 L18.2716049,20 L12.5925926,14.2935528 L12.5925926,13.388203 L12.2633745,13.0864198 C11.623225,13.6534093 10.8870641,14.08779 10.0548697,14.3895748 C9.2226753,14.6913595 8.3584864,14.8422497 7.4622771,14.8422497 C6.1088181,14.8422497 4.8605453,14.5130348 3.71742112,13.8545953 C2.57429698,13.1961558 1.67352867,12.3091048 1.01508916,11.1934156 C0.33835967,10.0411465 0,8.7883012 0,7.4348422 C0,6.0813833 0.33378724,4.8331104 1.00137174,3.68998628 C1.66895624,2.54686214 2.57429698,1.64609383 3.71742112,0.98765432 C4.8605453,0.32921481 6.1088181,0 7.4622771,0 C8.8157361,0 10.0685813,0.33835967 11.2208505,1.01508916 C12.3365396,1.67352867 13.2190182,2.56972455 13.8683128,3.7037037 C14.5176073,4.8376829 14.8422497,6.0813833 14.8422497,7.4348422 C14.8422497,8.3493416 14.6913595,9.2226753 14.3895748,10.0548697 C14.08779,10.8870641 13.6534093,11.623225 13.0864198,12.2633745 L13.388203,12.5925926 L14.3209877,12.5925926 Z" id="path-1" fill="#000000" fill-rule="nonzero"></path>
    </g>
</svg>