<?xml version="1.0" encoding="UTF-8"?>
<svg width="323px" height="325px" viewBox="0 0 323 325" version="1.1" xmlns="http://www.w3.org/2000/svg" xmlns:xlink="http://www.w3.org/1999/xlink">
    <title>semantic_search</title>
    <g id="Page-1" stroke="none" stroke-width="1" fill="none" fill-rule="evenodd">
        <g id="semantic_search" fill="#000000" fill-rule="nonzero">
            <path d="M10,282.5 L6.3,282.5 C2.9,282.5 0.1,279.7 0.1,276.3 L0.1,43 C0.1,39.6 2.9,36.8 6.3,36.8 L10,36.8 C13.4,36.8 16.2,39.6 16.2,43 L16.2,276.3 C16.2,279.7 13.4,282.5 10,282.5 Z" id="Path"></path>
            <path d="M236.2,266.5 L248.8,282.5 L2.5,282.5 C1.2,282.5 0.2,281.5 0.2,280.2 L0.2,268.8 C0.2,267.5 1.2,266.5 2.5,266.5 L236.2,266.5 L236.2,266.5 Z" id="Path"></path>
            <path d="M322.2,274.5 C322.2,278.7 318.9,282.2 314.8,282.5 L302.3,266.5 L314.2,266.5 C318.6,266.5 322.2,270 322.2,274.5 Z" id="Path"></path>
            <circle id="Oval" cx="149.3" cy="167.8" r="16"></circle>
            <circle id="Oval" cx="72.3" cy="126.3" r="16"></circle>
            <circle id="Oval" cx="216.8" cy="101.8" r="16"></circle>
            <path d="M26.3,152.1 C26.6,153.3 26.9,154.4 27.3,155.6 L4.7,169.1 L2.9,166.1 L26.3,152.1 Z" id="Path"></path>
            <path d="M54,135.6 C54.2,136.8 54.4,138.1 54.7,139.3 L30.2,153.9 C29.8,152.7 29.5,151.6 29.2,150.4 L54,135.6 Z" id="Path"></path>
            <path d="M62.1,134.9 L57.8,137.5 C57.5,136.3 57.3,135 57.1,133.8 L60.3,131.9 L62.1,134.9 Z" id="Path"></path>
            <path d="M234.1,111.3 C234.2,112.7 234.3,114.1 234.4,115.5 L218.6,107 L220.3,103.9 L234.1,111.3 Z" id="Path"></path>
            <path d="M237.6,113.2 L264.9,127.8 L264.9,127.8 C264.8,129.1 264.7,130.3 264.6,131.6 L237.8,117.3 C237.8,116 237.7,114.6 237.6,113.2 Z" id="Path"></path>
            <path d="M279.2,135.4 L277.5,138.5 L267.8,133.3 C268,132 268.1,130.8 268.2,129.5 L279.2,135.4 Z" id="Path"></path>
            <rect id="Rectangle" transform="translate(114.970420, 148.852315) rotate(-60.725579) translate(-114.970420, -148.852315) " x="113.220395" y="103.95168" width="3.50004951" height="89.8012702"></rect>
            <rect id="Rectangle" transform="translate(184.613675, 134.158380) rotate(-43.480521) translate(-184.613675, -134.158380) " x="139.714192" y="132.4084" width="89.7989659" height="3.4999597"></rect>
            <path d="M145.3,0.1 C79.2,0.1 25.4,53.9 25.4,120 C25.4,130.5 26.7,140.6 29.3,150.3 C29.6,151.5 29.9,152.6 30.3,153.8 C44.9,203.5 91,239.9 145.3,239.9 C207.5,239.9 258.7,192.3 264.6,131.7 C264.7,130.4 264.8,129.2 264.9,127.9 L264.9,127.9 C265.1,125.3 265.2,122.7 265.2,120.1 C265.1,53.9 211.4,0.1 145.3,0.1 Z M237.8,117.3 C237.8,118.2 237.8,119.1 237.8,119.9 C237.8,171 196.3,212.5 145.2,212.5 C100.8,212.5 63.5,181 54.6,139.2 C54.3,138 54.1,136.8 53.9,135.5 C53,130.4 52.6,125.2 52.6,119.9 C52.6,68.9 94.1,27.3 145.2,27.3 C194,27.3 234.1,65.2 237.5,113.1 C237.7,114.6 237.8,116 237.8,117.3 Z" id="Shape"></path>
            <rect id="Rectangle" transform="translate(231.721150, 218.485250) rotate(-38.128263) translate(-231.721150, -218.485250) " x="222.771498" y="188.486415" width="17.8993048" height="59.9976696"></rect>
            <path d="M314.1,314.2 L304.9,321.5 C299.7,325.6 292.1,324.7 288.1,319.5 L229.9,245.4 C225.8,240.2 226.7,232.6 231.9,228.6 L241.1,221.3 C246.3,217.2 253.9,218.1 257.9,223.3 L316.1,297.4 C320.2,302.5 319.3,310.1 314.1,314.2 Z" id="Path"></path>
        </g>
    </g>
</svg>