<?xml version="1.0" encoding="UTF-8"?>
<svg width="28px" height="22px" viewBox="0 0 28 22" version="1.1" xmlns="http://www.w3.org/2000/svg" xmlns:xlink="http://www.w3.org/1999/xlink">
    <title>folder</title>
    <g id="Page-1" stroke="none" stroke-width="1" fill="none" fill-rule="evenodd">
        <g id="folder" fill="#000000" fill-rule="nonzero">
            <path d="M3.54131186,3.91780822 L25.1840064,3.91780822 L25.1884327,3.19090411 C25.1884327,2.48057534 24.4775736,1.80821918 23.6005817,1.80821918 L11.1748588,1.80821918 L11.130301,1.59575342 C11.130301,0.68531507 10.3742939,0 9.44330157,0 L1.57014586,0 C0.638563361,0 0.000295084731,0.730821915 0.000295084731,1.64126027 L0.000295084731,19.1806849 C0.000295084731,19.2584384 0,18.0821918 0,17.7808219 L3.54131186,4.03232877 L3.54131186,3.91780822 Z M25.2214822,4.82191781 L4.87893095,4.82191781 L0.484824214,20.9355616 C0.992665036,21.5946575 1.77434449,22 2.66225445,22 L22.4099149,22 C23.9437653,22 25.1884327,20.737863 25.1884327,19.1770685 L28,7.62616438 C28,6.06386302 26.7553326,4.82191781 25.2214822,4.82191781 Z" id="Shape"></path>
        </g>
    </g>
</svg>