<?xml version="1.0" encoding="UTF-8"?>
<svg width="512px" height="512px" viewBox="0 0 512 512" version="1.1" xmlns="http://www.w3.org/2000/svg" xmlns:xlink="http://www.w3.org/1999/xlink">
    <title>sidebar_right</title>
    <g id="Page-1" stroke="none" stroke-width="1" fill="none" fill-rule="evenodd">
        <g id="sidebar_right" fill="#000000" fill-rule="nonzero">
            <path d="M465.45524,0 L46.5458512,0 C20.8865603,0 0,20.8745603 0,46.5458512 L0,465.45524 C0,491.12544 20.8865603,512.001091 46.5458512,512.001091 L465.45524,512.001091 C491.114531,512.001091 512.001091,491.126531 512.001091,465.45524 L512.001091,46.5458512 C512.001091,20.8745603 491.114531,0 465.45524,0 Z M325.818777,488.72762 L46.5458512,488.72762 C33.7047512,488.72762 23.2734711,478.28434 23.2734711,465.45524 L23.2734711,116.364083 L325.818777,116.364083 L325.818777,488.72762 L325.818777,488.72762 Z M488.72762,465.45524 C488.72762,478.28434 478.295249,488.72762 465.45524,488.72762 L349.091157,488.72762 L349.091157,116.364083 L488.72762,116.364083 L488.72762,465.45524 Z M488.72762,93.0906116 L23.2723802,93.0906116 L23.2723802,46.5458512 C23.2723802,33.7167512 33.7047512,23.2734711 46.5447603,23.2734711 L465.454149,23.2734711 C478.295249,23.2734711 488.72762,33.7167512 488.72762,46.5458512 L488.72762,93.0906116 L488.72762,93.0906116 Z" id="Shape"></path>
            <circle id="Oval" cx="58.1814959" cy="58.1814959" r="11.6367355"></circle>
            <circle id="Oval" cx="104.727347" cy="58.1814959" r="11.6367355"></circle>
            <circle id="Oval" cx="151.273198" cy="58.1814959" r="11.6367355"></circle>
            <path d="M384.000273,209.454694 L453.818504,209.454694 C460.250509,209.454694 465.45524,204.249963 465.45524,197.817959 C465.45524,191.385954 460.250509,186.181223 453.818504,186.181223 L384.000273,186.181223 C377.568268,186.181223 372.363537,191.385954 372.363537,197.817959 C372.363537,204.249963 377.568268,209.454694 384.000273,209.454694 Z" id="Path"></path>
            <path d="M384.000273,279.272926 L453.818504,279.272926 C460.250509,279.272926 465.45524,274.068195 465.45524,267.63619 C465.45524,261.204186 460.250509,255.999455 453.818504,255.999455 L384.000273,255.999455 C377.568268,255.999455 372.363537,261.204186 372.363537,267.63619 C372.363537,274.068195 377.568268,279.272926 384.000273,279.272926 Z" id="Path"></path>
            <path d="M384.000273,349.091157 L453.818504,349.091157 C460.250509,349.091157 465.45524,343.886426 465.45524,337.454421 C465.45524,331.022417 460.250509,325.817686 453.818504,325.817686 L384.000273,325.817686 C377.568268,325.817686 372.363537,331.022417 372.363537,337.454421 C372.363537,343.886426 377.568268,349.091157 384.000273,349.091157 Z" id="Path"></path>
            <path d="M384.000273,418.909388 L430.546124,418.909388 C436.978129,418.909388 442.18286,413.704657 442.18286,407.272653 C442.18286,400.840648 436.978129,395.635917 430.546124,395.635917 L384.000273,395.635917 C377.568268,395.635917 372.363537,400.840648 372.363537,407.272653 C372.363537,413.704657 377.568268,418.909388 384.000273,418.909388 Z" id="Path"></path>
        </g>
    </g>
</svg>