<?xml version="1.0" encoding="UTF-8"?>
<svg width="512px" height="512px" viewBox="0 0 512 512" version="1.1" xmlns="http://www.w3.org/2000/svg" xmlns:xlink="http://www.w3.org/1999/xlink">
    <title>sidebar_left</title>
    <g id="Page-1" stroke="none" stroke-width="1" fill="none" fill-rule="evenodd">
        <g id="sidebar_left" fill="#000000" fill-rule="nonzero">
            <path d="M465.45524,0 L46.5458512,0 C20.8745603,0 0,20.8745603 0,46.5458512 L0,465.45524 C0,491.12544 20.8745603,512.001091 46.5458512,512.001091 L465.45524,512.001091 C491.12544,512.001091 512.001091,491.126531 512.001091,465.45524 L512.001091,46.5458512 C512.001091,20.8745603 491.12544,0 465.45524,0 Z M162.909934,488.72762 L46.5458512,488.72762 C33.7167512,488.72762 23.2734711,478.28434 23.2734711,465.45524 L23.2734711,116.364083 L162.909934,116.364083 L162.909934,488.72762 L162.909934,488.72762 Z M488.72762,465.45524 C488.72762,478.28434 478.28434,488.72762 465.45524,488.72762 L186.182314,488.72762 L186.182314,116.364083 L488.72762,116.364083 L488.72762,465.45524 Z M488.72762,93.0906116 L23.2723802,93.0906116 L23.2723802,46.5458512 C23.2723802,33.7167512 33.7156603,23.2734711 46.5447603,23.2734711 L465.454149,23.2734711 C478.283249,23.2734711 488.72762,33.7167512 488.72762,46.5458512 L488.72762,93.0906116 L488.72762,93.0906116 Z" id="Shape"></path>
            <circle id="Oval" cx="58.1814959" cy="58.1814959" r="11.6367355"></circle>
            <circle id="Oval" cx="104.727347" cy="58.1814959" r="11.6367355"></circle>
            <circle id="Oval" cx="151.273198" cy="58.1814959" r="11.6367355"></circle>
            <path d="M58.1814959,209.454694 L127.999727,209.454694 C134.431732,209.454694 139.636463,204.249963 139.636463,197.817959 C139.636463,191.385954 134.431732,186.181223 127.999727,186.181223 L58.1814959,186.181223 C51.7494913,186.181223 46.5447603,191.385954 46.5447603,197.817959 C46.5458512,204.249963 51.7494913,209.454694 58.1814959,209.454694 Z" id="Path"></path>
            <path d="M58.1814959,279.272926 L127.999727,279.272926 C134.431732,279.272926 139.636463,274.068195 139.636463,267.63619 C139.636463,261.204186 134.431732,255.999455 127.999727,255.999455 L58.1814959,255.999455 C51.7494913,255.999455 46.5447603,261.204186 46.5447603,267.63619 C46.5458512,274.068195 51.7494913,279.272926 58.1814959,279.272926 Z" id="Path"></path>
            <path d="M58.1814959,349.091157 L127.999727,349.091157 C134.431732,349.091157 139.636463,343.886426 139.636463,337.454421 C139.636463,331.022417 134.431732,325.817686 127.999727,325.817686 L58.1814959,325.817686 C51.7494913,325.817686 46.5447603,331.022417 46.5447603,337.454421 C46.5458512,343.886426 51.7494913,349.091157 58.1814959,349.091157 Z" id="Path"></path>
            <path d="M58.1814959,418.909388 L104.727347,418.909388 C111.159352,418.909388 116.364083,413.704657 116.364083,407.272653 C116.364083,400.840648 111.159352,395.637008 104.727347,395.637008 L58.1814959,395.637008 C51.7494913,395.637008 46.5447603,400.841739 46.5447603,407.273744 C46.5447603,413.705748 51.7494913,418.909388 58.1814959,418.909388 Z" id="Path"></path>
        </g>
    </g>
</svg>