<?xml version="1.0" encoding="UTF-8"?>
<svg width="33px" height="37px" viewBox="0 0 33 37" version="1.1" xmlns="http://www.w3.org/2000/svg" xmlns:xlink="http://www.w3.org/1999/xlink">
    <title>Combined Shape</title>
    <g id="Page-1" stroke="none" stroke-width="1" fill="none" fill-rule="evenodd">
        <path d="M25.7643619,0.518348286 C27.1491619,1.29707429 27.9896969,2.36016029 28.3983649,3.84976929 L28.434,4 L32.5,4 L32.5,37 L0,37 L0,4 L18.113428,4.00042427 C18.4417957,2.47710256 19.4112238,1.19290659 20.8392159,0.469288286 C22.1133029,-0.176339714 24.5725699,-0.151844714 25.7643619,0.518348286 Z M23.6699219,28.9038086 C22.5454102,28.9038086 22.5454102,28.9038086 21.8891602,29.5856934 C21.2329102,30.2675781 21.2329102,30.2675781 21.2329102,31.4946289 C21.2329102,32.7250977 21.2329102,32.7250977 21.8874512,33.4052734 C22.5419922,34.0854492 22.5419922,34.0854492 23.6972656,34.0854492 C24.2954102,34.0854492 24.2954102,34.0854492 24.7875977,33.8701172 C25.4130859,34.2905273 25.4130859,34.2905273 25.4609375,34.3144531 C25.6796875,34.434082 25.6796875,34.434082 25.9086914,34.5024414 L26.28125,33.7880859 C25.84375,33.6308594 25.84375,33.6308594 25.4711914,33.3642578 C25.7719727,33.012207 25.7719727,33.012207 25.9086914,32.6362305 C26.0898438,32.144043 26.0898438,32.144043 26.0898438,31.4946289 C26.0898438,30.2675781 26.0898438,30.2675781 25.4370117,29.5856934 C24.7841797,28.9038086 24.7841797,28.9038086 23.6699219,28.9038086 Z M4.26269531,28.9038086 C3.68505859,28.9038086 3.68505859,28.9038086 3.27661133,29.078125 C2.86816406,29.2524414 2.86816406,29.2524414 2.65112305,29.5856934 C2.43408203,29.9189453 2.43408203,29.9189453 2.43408203,30.3017578 C2.43408203,30.8964844 2.43408203,30.8964844 2.89550781,31.3100586 C3.22363281,31.6040039 3.22363281,31.6040039 4.03710938,31.8056641 C4.66943359,31.9628906 4.66943359,31.9628906 4.84716797,32.0244141 C5.10693359,32.1166992 5.10693359,32.1166992 5.21118164,32.2414551 C5.31542969,32.3662109 5.31542969,32.3662109 5.31542969,32.5439453 C5.31542969,32.8208008 5.31542969,32.8208008 5.06762695,33.0275879 C4.81982422,33.234375 4.81982422,33.234375 4.33105469,33.234375 C3.86962891,33.234375 3.86962891,33.234375 3.59790039,33.0019531 C3.37145996,32.8082682 3.37145996,32.8082682 3.27200656,32.4318169 L3.23730469,32.2739258 L2.25292969,32.3696289 C2.35205078,33.2104492 2.35205078,33.2104492 2.86132812,33.6496582 C3.37060547,34.0888672 3.37060547,34.0888672 4.32080078,34.0888672 C4.97363281,34.0888672 4.97363281,34.0888672 5.41113281,33.9060059 C5.84863281,33.7231445 5.84863281,33.7231445 6.08789062,33.347168 C6.32714844,32.9711914 6.32714844,32.9711914 6.32714844,32.5405273 C6.32714844,32.0654297 6.32714844,32.0654297 6.12719727,31.7424316 C5.92724609,31.4194336 5.92724609,31.4194336 5.57348633,31.2331543 C5.21972656,31.046875 5.21972656,31.046875 4.48144531,30.8725586 C3.74316406,30.6982422 3.74316406,30.6982422 3.55175781,30.5375977 C3.40136719,30.4111328 3.40136719,30.4111328 3.40136719,30.2333984 C3.40136719,30.0385742 3.40136719,30.0385742 3.56201172,29.9223633 C3.81152344,29.7412109 3.81152344,29.7412109 4.25244141,29.7412109 C4.6796875,29.7412109 4.6796875,29.7412109 4.89331055,29.9104004 C5.06420898,30.045752 5.06420898,30.045752 5.13995117,30.3200098 L5.171875,30.4658203 L6.18359375,30.4213867 C6.15966797,29.730957 6.15966797,29.730957 5.68286133,29.3173828 C5.20605469,28.9038086 5.20605469,28.9038086 4.26269531,28.9038086 Z M8.80175781,28.9892578 L7.17822266,28.9892578 L7.17822266,34 L8.18994141,34 L8.18994141,32.1098633 L8.84960938,32.1098633 C9.53662109,32.1098633 9.53662109,32.1098633 9.89892578,32.0380859 C10.1655273,31.9799805 10.1655273,31.9799805 10.423584,31.8005371 C10.6816406,31.6210937 10.6816406,31.6210937 10.8491211,31.3066406 C11.0166016,30.9921875 11.0166016,30.9921875 11.0166016,30.5307617 C11.0166016,29.9326172 11.0166016,29.9326172 10.7260742,29.5549316 C10.4355469,29.1772461 10.4355469,29.1772461 10.0048828,29.0644531 C9.75575087,28.9976128 9.75575087,28.9976128 8.99890287,28.9901861 L8.80175781,28.9892578 Z M13.8398438,28.9892578 L12.7700195,28.9892578 L10.8183594,34 L11.8916016,34 L12.3051758,32.8618164 L14.3081055,32.8618164 L14.7456055,34 L15.8461914,34 L13.8398438,28.9892578 Z M18.515625,28.9892578 L16.3862305,28.9892578 L16.3862305,34 L17.3979492,34 L17.3979492,31.9082031 L17.6030273,31.9082031 C17.9516602,31.9082031 17.9516602,31.9082031 18.1123047,31.9645996 C18.2729492,32.0209961 18.2729492,32.0209961 18.4165039,32.1730957 C18.5421143,32.3061829 18.5421143,32.3061829 18.8561401,32.7703056 L18.949707,32.909668 L19.6811523,34 L20.8911133,34 L20.2792969,33.0224609 C19.9169922,32.4379883 19.9169922,32.4379883 19.7033691,32.2089844 C19.4897461,31.9799805 19.4897461,31.9799805 19.1616211,31.7885742 C19.8212891,31.6928711 19.8212891,31.6928711 20.152832,31.3254395 C20.484375,30.9580078 20.484375,30.9580078 20.484375,30.394043 C20.484375,29.949707 20.484375,29.949707 20.265625,29.6044922 C20.046875,29.2592773 20.046875,29.2592773 19.6828613,29.1242676 C19.3643494,29.006134 19.3643494,29.006134 18.709568,28.9913673 L18.515625,28.9892578 Z M27.921875,29.0302734 L26.9101562,29.0302734 L26.9101562,34 L30.4375,34 L30.4375,33.1557617 L27.921875,33.1557617 L27.921875,29.0302734 Z M23.6630859,29.7685547 C24.2817383,29.7685547 24.2817383,29.7685547 24.6645508,30.1975098 C25.0473633,30.6264648 25.0473633,30.6264648 25.0473633,31.4946289 C25.0473633,31.9150391 25.0473633,31.9150391 24.9499512,32.2397461 C24.8525391,32.5644531 24.8525391,32.5644531 24.6577148,32.793457 C24.294043,32.5200195 24.294043,32.5200195 23.9019336,32.355957 L23.7041016,32.2807617 L23.4204102,32.8583984 C23.7382812,32.9711914 23.7382812,32.9711914 24.0458984,33.1728516 C23.8510742,33.2446289 23.8510742,33.2446289 23.6323242,33.2446289 C23.0444336,33.2446289 23.0444336,33.2446289 22.6599121,32.8088379 C22.2753906,32.3730469 22.2753906,32.3730469 22.2753906,31.4946289 C22.2753906,30.6298828 22.2753906,30.6298828 22.6599121,30.1992187 C23.0444336,29.7685547 23.0444336,29.7685547 23.6630859,29.7685547 Z M13.2929688,30.1582031 L13.9833984,32.0175781 L12.6162109,32.0175781 L13.2929688,30.1582031 Z M8.67871094,29.8369141 C9.22558594,29.8369141 9.22558594,29.8369141 9.40673828,29.8710937 C9.65283203,29.9155273 9.65283203,29.9155273 9.81347656,30.0932617 C9.97412109,30.2709961 9.97412109,30.2709961 9.97412109,30.5444336 C9.97412109,30.7666016 9.97412109,30.7666016 9.85961914,30.934082 C9.74511719,31.1015625 9.74511719,31.1015625 9.54345703,31.1801758 C9.34179688,31.2587891 9.34179688,31.2587891 8.74365234,31.2587891 L8.18994141,31.2587891 L8.18994141,29.8369141 L8.67871094,29.8369141 Z M18.1875,29.8369141 C18.8027344,29.8369141 18.8027344,29.8369141 18.9257812,29.8540039 C19.171875,29.8950195 19.171875,29.8950195 19.3068848,30.0505371 C19.4418945,30.2060547 19.4418945,30.2060547 19.4418945,30.4589844 C19.4418945,30.6845703 19.4418945,30.6845703 19.3393555,30.8349609 C19.2368164,30.9853516 19.2368164,30.9853516 19.0556641,31.046875 C18.8745117,31.1083984 18.8745117,31.1083984 18.1464844,31.1083984 L17.3979492,31.1083984 L17.3979492,29.8369141 L18.1875,29.8369141 Z M18.0298477,4.50069723 L0.5,4.5 L0.5,26 L19.2476219,26.0013432 C18.9297321,25.6545682 18.6581688,25.2691346 18.4543489,24.8618393 C17.9991869,23.9522803 17.8813009,23.3959503 17.9083779,22.2852743 L17.9315479,21.3348783 L17.6088909,20.9117823 C16.5376219,19.5070413 14.7090839,18.4191443 12.7391589,18.0145133 L11.9451079,17.8514113 L11.3612079,18.2431673 C10.2621609,18.9805463 9.24382089,19.2682823 8.00584089,19.1912373 C5.84690289,19.0568773 4.14475389,17.8140553 3.31464589,15.7659663 C3.08274489,15.1938053 3.04291389,14.9798863 3.01023689,14.1310603 C2.96318689,12.9088853 3.06713689,12.3924743 3.55729589,11.4133303 C4.21183889,10.1058183 5.56497289,8.96875529 6.81334989,8.67721029 C8.61185989,8.25718829 9.93830389,8.47146129 11.3389579,9.40827529 L11.9719499,9.83164629 L12.7535369,9.66333929 C14.7662619,9.22991829 16.5530809,8.15483429 17.7251649,6.67203629 L18.0399989,6.27374129 L17.9981489,5.47359329 C17.9808428,5.14273492 17.9919081,4.81755726 18.0298477,4.50069723 Z M32,4.5 L28.5198261,4.49907493 C28.6145942,5.32467087 28.5311127,6.29068219 28.2853539,6.95779229 C27.8062669,8.25827129 26.8287849,9.36399829 25.6379389,9.95254629 C24.9050669,10.3147503 24.8975509,10.3256133 24.5500299,11.5248383 C24.0958669,13.0920583 24.0958669,14.4885533 24.5500299,16.1645623 C24.8489549,17.2677003 24.9337039,17.4059573 25.4535799,17.6385963 C26.6787779,18.1868623 27.7955929,19.4065583 28.2915569,20.7380073 C28.5731559,21.4939803 28.6443569,22.9896543 28.4366559,23.7860063 C28.2202136,24.6158762 27.8345986,25.308318 27.1986478,26.0001328 L32,26 L32,4.5 Z M22.3756159,18.0714573 C20.4460959,18.5681123 19.0886639,20.0225963 18.8482399,21.8510313 C18.7499599,22.5984863 18.8218999,22.8474213 18.9616719,22.2435483 C19.0233019,21.9772633 19.1849929,21.5389973 19.3209719,21.2696253 C19.4569479,21.0002193 19.6448299,20.6851943 19.7384839,20.5695373 C19.8964889,20.3744093 19.9296349,20.3668003 20.1983309,20.4639613 C20.5564319,20.5934523 20.7060189,20.5951993 20.9741709,20.4730613 C21.2992759,20.3249333 21.4089929,19.9703423 21.2763289,19.4965163 C21.1708109,19.1196423 21.1746459,19.0970583 21.3711989,18.9379013 C21.7118649,18.6620473 22.5262879,18.2844213 23.0397239,18.1642523 L23.5238789,18.0509373 L23.2222829,17.9910473 C23.0307069,17.9530073 22.7218489,17.9823473 22.3756159,18.0714573 Z M19.7494129,9.19403429 L19.1266039,9.29086429 C18.1128009,9.44847629 16.9899019,9.85368929 16.1614369,10.3608833 C15.3085989,10.8829973 14.3132299,11.7453883 13.9011449,12.3192073 L13.6263209,12.7018933 L13.6189209,13.8466283 L13.6115209,14.9913633 L14.0472109,15.5195703 C15.1809269,16.8940273 16.8614679,17.9029963 18.6555269,18.2863243 C19.6421339,18.4971283 19.6998899,18.4921753 20.1668289,18.1567133 C20.3929109,17.9942983 20.7962229,17.7614523 21.0630949,17.6392743 C21.6233239,17.3827923 21.7314489,17.1953253 22.1081519,15.8273373 C22.2973299,15.1403383 22.3299729,14.8500893 22.3319129,13.8376703 C22.3339129,12.8021223 22.3049229,12.5466223 22.1025889,11.8157503 C21.7383419,10.4999953 21.6106729,10.2660953 21.1486499,10.0680493 C20.9319369,9.97515929 20.5284519,9.74049929 20.2520189,9.54659229 L19.7494129,9.19403429 Z M7.22444689,9.48333529 C5.20032389,10.0442483 3.97421189,11.4965993 3.79857189,13.5413393 C3.74591189,14.1543453 3.81480189,14.0791293 4.05916589,13.2568113 C4.21207889,12.7422203 4.78711089,11.7633373 4.93648289,11.7633373 C4.98339289,11.7633373 5.18996189,11.8083173 5.39551789,11.8632973 C5.71778289,11.9494873 5.80009389,11.9430473 5.99317789,11.8165373 C6.32924789,11.5963363 6.41681789,11.2865363 6.25758089,10.8811573 C6.13134189,10.5597833 6.13358589,10.5373163 6.31078089,10.3487043 C6.57074089,10.0719883 7.39553689,9.67673329 7.96886389,9.55412429 C8.23525589,9.49715429 8.48940789,9.41847229 8.53364589,9.37927529 C8.68786889,9.24262429 7.85386689,9.30891529 7.22444689,9.48333529 Z M19.1334063,4.5008932 L18.8098848,4.50026583 C18.7641646,4.7532158 18.7402059,5.00918977 18.7402059,5.26455129 C18.7402059,5.76981429 18.8664059,5.72944229 18.9388359,5.20101129 C18.9640569,5.0170277 19.0368825,4.76472649 19.1334063,4.5008932 Z M21.2005059,1.19265929 C20.1308093,1.71813866 19.2889558,2.79437494 18.929523,4.00003348 L19.3392857,4.00006869 C19.4725273,3.70880565 19.6168693,3.44926537 19.7369549,3.30542229 L19.9700219,3.02624629 L20.2775149,3.17287929 C20.6367059,3.34416529 20.9422459,3.29504929 21.1931999,3.02568129 C21.3880019,2.81658629 21.4205879,2.36758029 21.2596599,2.10989629 C21.1854699,1.99110129 21.1800999,1.90075229 21.2414299,1.80351429 C21.4147459,1.52875129 22.3969209,1.01867929 23.0462109,0.866239286 C23.6548009,0.723354286 23.6727089,0.712834286 23.3478989,0.689013286 C22.8332779,0.651273286 21.8177229,0.889457286 21.2005059,1.19265929 Z" id="Combined-Shape" fill="#000000"></path>
    </g>
</svg>