<?xml version="1.0" encoding="UTF-8"?>
<svg width="78px" height="58px" viewBox="0 0 78 58" version="1.1" xmlns="http://www.w3.org/2000/svg" xmlns:xlink="http://www.w3.org/1999/xlink">
    <title>Group</title>
    <g id="Page-1" stroke="none" stroke-width="1" fill="none" fill-rule="evenodd">
        <g id="terminal" fill="#000000" fill-rule="nonzero">
            <g id="Group">
                <g id="Shape">
                    <path d="M70.0010215,0 C74.4187354,0 78,3.5843895 78,8.003757 L78,49.996243 C78,54.4165959 74.4201164,58 70.0010215,58 L7.9989785,58 C3.5812646,58 0,54.4156105 0,49.996243 L0,8.003757 C0,3.5834041 3.5798836,0 7.9989785,0 L70.0010215,0 Z M9.0227399,8.2358976 C8.6134814,8.6451561 8.6165806,9.3015334 9.0233333,9.7082861 L14.9155158,15.6004686 L9.0243492,21.4916351 C8.6242413,21.8917431 8.6173309,22.5575986 9.0237559,22.9640236 C9.4330144,23.3732822 10.0893917,23.370183 10.4961444,22.9634303 L16.8517121,16.6078625 C17.1199187,16.3396559 17.2114421,15.9520357 17.1202164,15.6031935 C17.2157291,15.2541889 17.1249992,14.8663618 16.8506961,14.5920587 L10.4951284,8.2364909 C10.0950205,7.836383 9.4291649,7.8294726 9.0227399,8.2358976 Z M29.1593595,21.4236609 L19.5130687,21.4236609 C19.0299975,21.4236609 18.6376849,21.8161714 18.6376849,22.3003577 C18.6376849,22.7879196 19.0296076,23.1770545 19.5130687,23.1770545 L19.5130687,23.1770545 L29.1593595,23.1770545 C29.6424307,23.1770545 30.0347432,22.784544 30.0347432,22.3003577 C30.0347432,21.8127958 29.6428206,21.4236609 29.1593595,21.4236609 L29.1593595,21.4236609 Z"></path>
                </g>
            </g>
        </g>
    </g>
</svg>