<?xml version="1.0" encoding="UTF-8"?>
<svg width="31px" height="32px" viewBox="0 0 31 32" version="1.1" xmlns="http://www.w3.org/2000/svg" xmlns:xlink="http://www.w3.org/1999/xlink">
    <title>thing</title>
    <g id="Page-1" stroke="none" stroke-width="1" fill="none" fill-rule="evenodd">
        <g id="thing" fill="#000000" fill-rule="nonzero">
            <path d="M29.0837747,4.74022851 L16.4900313,0.173652338 C15.8502734,-0.0578841127 15.1497185,-0.0578841127 14.5099606,0.173652338 L1.91621714,4.74022851 C0.76769296,5.15950282 0.00256156,6.25161723 -2.62195599e-10,7.47534217 L-2.62195599e-10,23.7953661 C-0.00172988,24.9671106 0.70057418,26.0249707 1.78046142,26.4772137 L14.3742049,31.7746197 C15.094713,32.0751268 15.9052837,32.0751268 16.6257918,31.7746197 L29.2200197,26.4772137 C30.299667,26.0247583 31.0017354,24.9669711 31,23.7953661 L31,7.47534702 C30.9974446,6.25161658 30.2323063,5.1594986 29.0837747,4.74022851 Z M15.1707807,2.05685295 C15.3855176,1.98104902 15.6206154,1.98104902 15.8353524,2.05685295 L28.0000032,6.3643036 L15.438688,11 L3.0000032,6.36647005 L15.1707807,2.05685295 Z M2.6127999,24.888707 C2.2410355,24.736265 1.99924662,24.3791105 2.00000143,23.983527 L2.00000143,8 L15.0000014,12.8640531 L15.0000014,30 L2.6127999,24.888707 Z M28.3876965,24.8894017 L16.0000032,30 L16.0000032,12.8186353 L29.0000032,8 L29.0000032,23.98435 C29.0007568,24.3797341 28.7592144,24.7367623 28.3877015,24.8894017 L28.3876965,24.8894017 Z" id="Shape"></path>
        </g>
    </g>
</svg>