<?xml version="1.0" encoding="UTF-8"?>
<svg width="53px" height="57px" viewBox="0 0 53 57" version="1.1" xmlns="http://www.w3.org/2000/svg" xmlns:xlink="http://www.w3.org/1999/xlink">
    <title>Group</title>
    <g id="Page-1" stroke="none" stroke-width="1" fill="none" fill-rule="evenodd">
        <g id="noun_tutorial_2366975" fill="#000000" fill-rule="nonzero">
            <g id="Group">
                <g>
                    <path d="M20.7,23.5 C20.8,24.9 20.7,26.8 20,28.9 C19.5,30.6 21.4,32.1 22.9,31.1 C26.2,28.9 28.9,25.6 30.4,23.5 L41.4,23.5 C45.1,23.5 48.1,20.5 48.1,16.8 L48.1,7.2 C48.1,3.5 45.1,0.5 41.4,0.5 L20.7,0.5 C17,0.5 14,3.5 14,7.2 L14,16.7 C14,20.5 17,23.5 20.7,23.5 Z M39,9.6 C40.3,9.6 41.4,10.7 41.4,12 C41.4,13.3 40.3,14.4 39,14.4 C37.7,14.4 36.6,13.3 36.6,12 C36.6,10.7 37.7,9.6 39,9.6 Z M31,9.6 C32.3,9.6 33.4,10.7 33.4,12 C33.4,13.3 32.3,14.4 31,14.4 C29.7,14.4 28.6,13.3 28.6,12 C28.6,10.7 29.7,9.6 31,9.6 Z M23,9.6 C24.3,9.6 25.4,10.7 25.4,12 C25.4,13.3 24.3,14.4 23,14.4 C21.7,14.4 20.6,13.3 20.6,12 C20.6,10.7 21.7,9.6 23,9.6 Z" id="Shape"></path>
                    <path d="M21.2,39.1 L16.3,41.6 C16.3,41.6 11,38 10.5,37.7 C10,37.3 9.3,37 8.9,36.8 C7.2,36.3 2.6,35.8 1.4,38.8 C0.1,41.9 0.3,50 0.3,55.8 C0.3,56.3 0.6,56.7 1.1,56.7 C2.3,56.7 10.1,56.7 10.6,56.7 C11.2,56.7 11.4,56.4 11.5,55.9 C11.5,55.6 12.1,49.1 12,46.2 C12,45.9 12,45.6 12,45.2 L14.5,46.9 C14.9,47.2 15.5,47.4 16,47.4 C16.4,47.4 16.8,47.3 17.2,47.1 L23.5,43.9 C24.8,43.2 25.3,41.6 24.7,40.3 C24.1,39 22.5,38.5 21.2,39.1 Z" id="Path"></path>
                    <circle id="Oval" cx="6.9" cy="29.3" r="5.8"></circle>
                    <path d="M50.2,51 L33.3,51 C32,51 30.9,52.1 30.9,53.4 C30.9,54.7 32,55.8 33.3,55.8 L50.2,55.8 C51.5,55.8 52.6,54.7 52.6,53.4 C52.5,52.1 51.5,51 50.2,51 Z" id="Path"></path>
                    <path d="M50.2,40.8 L33.3,40.8 C32,40.8 30.9,41.9 30.9,43.2 C30.9,44.5 32,45.6 33.3,45.6 L50.2,45.6 C51.5,45.6 52.6,44.5 52.6,43.2 C52.6,41.9 51.5,40.8 50.2,40.8 Z" id="Path"></path>
                    <path d="M30.9,32.9 C30.9,34.2 32,35.3 33.3,35.3 L50.2,35.3 C51.5,35.3 52.6,34.2 52.6,32.9 C52.6,31.6 51.5,30.5 50.2,30.5 L33.3,30.5 C32,30.5 30.9,31.6 30.9,32.9 Z" id="Path"></path>
                </g>
            </g>
        </g>
    </g>
</svg>