<?xml version="1.0" encoding="UTF-8"?>
<svg width="61px" height="57px" viewBox="0 0 61 57" version="1.1" xmlns="http://www.w3.org/2000/svg" xmlns:xlink="http://www.w3.org/1999/xlink">
    <title>upload</title>
    <g id="Page-1" stroke="none" stroke-width="1" fill="none" fill-rule="evenodd">
        <g id="upload" fill="#000000" fill-rule="nonzero">
            <path d="M45.4,44.5 L36.3,44.5 C35.7,44.5 35.3,44.1 35.3,43.5 C35.3,42.9 35.7,42.5 36.3,42.5 L45.4,42.5 C52.4,42.3 57.9,36.5 57.7,29.6 C57.5,23.5 53,18.3 46.9,17.4 L46,17.3 L46,16.3 C46,8.7 39.9,2.6 32.3,2.6 L32.3,2.6 L31.2,2.6 C25.7,2.6 20.7,5.9 18.6,11 L18.2,11.9 L17.3,11.5 C13.4,10 9,11.9 7.5,15.8 C7.2,16.7 7,17.6 7,18.5 L7,21.7 L6.6,22 C3.8,24 2,27.3 2,30.9 L2,31.9 C2,37.7 6.8,42.5 12.6,42.5 L23.5,42.5 C24.1,42.5 24.5,42.9 24.5,43.5 C24.5,44.1 24.1,44.5 23.5,44.5 L12.6,44.5 C5.7,44.5 0,38.8 0,31.8 L0,30.8 C0,26.8 1.9,23.1 5.1,20.7 L5.1,18.6 C5.1,13.3 9.4,9.1 14.7,9.1 C15.5,9.1 16.4,9.2 17.2,9.4 C19.8,4 25.3,0.6 31.3,0.6 L32.4,0.6 C40.7,0.6 47.6,7.2 48,15.5 C55.9,16.9 61.3,24.5 59.9,32.4 C58.6,39.4 52.5,44.6 45.4,44.5 L45.4,44.5 Z" id="Path"></path>
            <path d="M30,56.2 C29.4,56.2 29,55.8 29,55.2 L29,22.5 C29,21.9 29.4,21.5 30,21.5 C30.6,21.5 31,21.9 31,22.5 L31,55.2 C31,55.8 30.6,56.2 30,56.2 Z" id="Path"></path>
            <path d="M39.5,32.8 C39.2,32.8 39,32.7 38.8,32.5 L30,23.9 L21.2,32.5 C20.8,32.9 20.2,32.9 19.8,32.5 C19.4,32.1 19.4,31.5 19.8,31.1 L30,21.1 L40.2,31 C40.6,31.4 40.6,32 40.2,32.4 C40,32.7 39.8,32.8 39.5,32.8 L39.5,32.8 Z" id="Path"></path>
        </g>
    </g>
</svg>