<?xml version="1.0" encoding="UTF-8"?>
<svg width="90px" height="90px" viewBox="0 0 90 90" version="1.1" xmlns="http://www.w3.org/2000/svg" xmlns:xlink="http://www.w3.org/1999/xlink">
    <title>Shape</title>
    <g id="Page-1" stroke="none" stroke-width="1" fill="none" fill-rule="evenodd">
        <g id="user" fill="#000000" fill-rule="nonzero">
            <path d="M45,0 C20.188,0 0,20.188 0,45 C0,69.812 20.188,90 45,90 C69.812,90 90,69.812 90,45 C90,20.188 69.813,0 45,0 Z M45.5009045,17 C54.0477941,17 61,24.1391271 61,32.9135303 C61,41.687005 54.0477941,51 45.5009045,51 C36.9540149,51 30.0018091,41.687005 30,32.9135303 C30,24.1391271 36.9540149,17 45.5009045,17 Z M45.4995383,85 C33.4027515,85 22.6781651,79.2185608 16,70.3072925 C16.5660557,60.5142796 23.9884964,52.5348551 33.6197549,51 C36.6891991,53.3063816 40.5186171,54.6800086 44.6666145,54.6800086 L46.3324621,54.6800086 C50.4804595,54.6800086 54.3098775,53.3063816 57.3802451,51 C67.0115036,52.535766 74.4339443,60.5142796 75,70.3072925 C68.3218349,79.2185608 57.5963251,85 45.4995383,85 Z" id="Shape"></path>
        </g>
    </g>
</svg>