<?xml version="1.0" encoding="UTF-8"?>
<svg width="512px" height="352px" viewBox="0 0 512 352" version="1.1" xmlns="http://www.w3.org/2000/svg" xmlns:xlink="http://www.w3.org/1999/xlink">
    <title>youtube</title>
    <g id="Page-1" stroke="none" stroke-width="1" fill="none" fill-rule="evenodd">
        <g id="youtube" fill="#000000" fill-rule="nonzero">
            <path d="M490.24,33.92 C476.352,9.216 461.28,4.672 430.592,2.944 C399.936,0.864 322.848,0 256.064,0 C189.152,0 112.032,0.864 81.408,2.912 C50.784,4.672 35.68,9.184 21.664,33.92 C7.36,58.592 0,101.088 0,175.904 C0,175.968 0,176 0,176 C0,176.064 0,176.096 0,176.096 L0,176.16 C0,250.656 7.36,293.472 21.664,317.888 C35.68,342.592 50.752,347.072 81.376,349.152 C112.032,350.944 189.152,352 256.064,352 C322.848,352 399.936,350.944 430.624,349.184 C461.312,347.104 476.384,342.624 490.272,317.92 C504.704,293.504 512,250.688 512,176.192 C512,176.192 512,176.096 512,176.032 C512,176.032 512,175.968 512,175.936 C512,101.088 504.704,58.592 490.24,33.92 Z M192,272 L192,80 L352,176 L192,272 Z" id="Shape"></path>
        </g>
    </g>
</svg>