<svg xmlns="http://www.w3.org/2000/svg" xmlns:xlink="http://www.w3.org/1999/xlink" viewBox="0 0 84 84" version="1.1" x="0px" y="0px"><title>chat16</title><desc>Created with Sketch.</desc><g stroke="none" stroke-width="1" fill="none" fill-rule="evenodd"><g fill="#000000"><path d="M53.0081365,60 C63.4951326,60 72,51.4921575 72,41 C72,30.5054151 63.4979426,22 53.0081365,22 L30.9918635,22 C20.5048674,22 12,30.5078425 12,41 C12,49.6900336 17.8690868,57.1526088 26.045498,59.3492554 C26,60.9210205 26,66.9941413 26,66.9941413 C26,69.7840067 28.6477533,71.0574638 30.8100343,69.2767618 L42.0719765,60.0022212 L53.0081365,60 L53.0081365,60 Z M40.6396121,56 L40.0857284,56.4561395 L30,64.7355957 L30,57.7373912 L30,56.0614245 L28.3498778,55.7682327 C21.2493105,54.506612 16,48.3015804 16,41 C16,32.7166684 22.7143196,26 30.9918635,26 L53.0081365,26 C61.2884499,26 68,32.7142006 68,41 C68,49.2833316 61.2856804,56 53.0081365,56 L41.3571429,56 L40.6396121,56 L40.6396121,56 Z M30,45 C32.209139,45 34,43.209139 34,41 C34,38.790861 32.209139,37 30,37 C27.790861,37 26,38.790861 26,41 C26,43.209139 27.790861,45 30,45 L30,45 Z M42,45 C44.209139,45 46,43.209139 46,41 C46,38.790861 44.209139,37 42,37 C39.790861,37 38,38.790861 38,41 C38,43.209139 39.790861,45 42,45 L42,45 Z M54,45 C56.209139,45 58,43.209139 58,41 C58,38.790861 56.209139,37 54,37 C51.790861,37 50,38.790861 50,41 C50,43.209139 51.790861,45 54,45 L54,45 Z"></path></g></g></svg>