<svg xmlns="http://www.w3.org/2000/svg" xmlns:xlink="http://www.w3.org/1999/xlink" version="1.1" x="0px" y="0px" viewBox="0 0 100 100" enable-background="new 0 0 100 100" xml:space="preserve"><path d="M49.617,90.373L36.183,74.627h-7.089c-13.785,0-25-11.215-25-25v-15c0-13.785,11.215-25,25-25h41.813  c13.784,0,25,11.215,25,25v15c0,13.785-11.216,25-25,25h-7.343L49.617,90.373z M29.094,19.627c-8.271,0-15,6.729-15,15v15  c0,8.271,6.729,15,15,15h11.702l8.962,10.506l9.305-10.506h11.845c8.271,0,15-6.729,15-15v-15c0-8.271-6.729-15-15-15H29.094z   M71.5,51.002c-4.928,0-8.938-4.01-8.938-8.938s4.01-8.938,8.938-8.938s8.938,4.01,8.938,8.938S76.428,51.002,71.5,51.002z   M50.385,51.002c-4.928,0-8.938-4.01-8.938-8.938s4.01-8.938,8.938-8.938s8.938,4.01,8.938,8.938S55.313,51.002,50.385,51.002z   M29.271,51.002c-4.928,0-8.938-4.01-8.938-8.938s4.01-8.938,8.938-8.938s8.938,4.01,8.938,8.938S34.198,51.002,29.271,51.002z"></path></svg>