<?xml version="1.0" encoding="UTF-8" standalone="no"?><!DOCTYPE svg PUBLIC "-//W3C//DTD SVG 1.1//EN" "http://www.w3.org/Graphics/SVG/1.1/DTD/svg11.dtd"><svg width="100%" height="100%" viewBox="0 0 32 32" version="1.1" xmlns="http://www.w3.org/2000/svg" xmlns:xlink="http://www.w3.org/1999/xlink" xml:space="preserve" style="fill-rule:evenodd;clip-rule:evenodd;stroke-linejoin:round;stroke-miterlimit:1.41421;"><rect id="Page-16a" x="0" y="0" width="32" height="32" style="fill:none;"/><g id="Layer-9"><path d="M16.561,16.006c0.726,-0.097 1.583,-0.496 2.149,-0.927c0.008,-0.007 0.015,-0.015 0.03,-0.032c-0.267,-0.287 -0.534,-0.573 -0.807,-0.865c-0.857,0.608 -1.801,0.821 -2.826,0.614c-0.799,-0.162 -1.459,-0.571 -1.99,-1.188c-0.844,-0.98 -1.119,-2.312 -0.647,-3.517c0.762,-1.94 2.834,-2.82 4.664,-2.101c1.423,0.56 2.231,1.951 2.231,3.195l-1.642,0l2.132,2.38l2.131,-2.377l-1.401,0c-0.043,-0.299 -0.07,-0.588 -0.128,-0.872c-0.17,-0.838 -0.55,-1.572 -1.126,-2.205c-0.693,-0.76 -1.539,-1.252 -2.547,-1.462c-0.477,-0.099 -0.957,-0.119 -1.44,-0.073c-0.782,0.076 -1.538,0.361 -2.184,0.806c-1.064,0.734 -1.729,1.751 -1.984,3.049c-0.083,0.421 -0.1,0.84 -0.065,1.265c0.08,0.983 0.467,1.925 1.104,2.68c0.721,0.855 1.639,1.392 2.749,1.603c0.166,0.032 0.597,0.075 0.714,0.075c0.295,0.001 0.562,-0.006 0.883,-0.048" style="fill:#b3b3b3;fill-rule:nonzero;"/><path d="M16.356,8.989l-0.775,0c0,0 0.004,1.754 0.005,2.035c0,0.073 -0.019,0.124 -0.072,0.177c-0.427,0.422 -0.85,0.848 -1.275,1.273c-0.026,0.026 -0.051,0.053 -0.07,0.074c0.181,0.181 0.36,0.359 0.543,0.541c0.007,-0.006 0.028,-0.022 0.046,-0.04c0.513,-0.514 1.026,-1.026 1.537,-1.542c0.034,-0.034 0.061,-0.091 0.061,-0.138" style="fill:#b3b3b3;fill-rule:nonzero;"/></g><text x="11.691px" y="26.032px" style="font-family:'Lato-Regular', 'Lato', sans-serif;font-size:4px;fill:#b3b3b3;">Time</text></svg>