<?xml version="1.0" encoding="UTF-8" standalone="no"?><!DOCTYPE svg PUBLIC "-//W3C//DTD SVG 1.1//EN" "http://www.w3.org/Graphics/SVG/1.1/DTD/svg11.dtd"><svg width="100%" height="100%" viewBox="0 0 32 32" version="1.1" xmlns="http://www.w3.org/2000/svg" xmlns:xlink="http://www.w3.org/1999/xlink" xml:space="preserve" style="fill-rule:evenodd;clip-rule:evenodd;stroke-linejoin:round;stroke-miterlimit:1.41421;"><rect id="Page-14a" x="0" y="0" width="32" height="32" style="fill:none;"/><g><g id="Layer-5"><path d="M13.419,7.413l0,0.769c0,0.204 0.167,0.371 0.371,0.371l0.433,0c0.204,0 0.371,-0.167 0.371,-0.371l0,-0.769l2.987,0l0,0.769c0,0.204 0.167,0.371 0.371,0.371l0.432,0c0.204,0 0.371,-0.167 0.371,-0.371l0,-0.769l0.797,0c0.408,0 0.742,0.334 0.742,0.742l0,7.103c0,0.408 -0.334,0.742 -0.742,0.742l-7.104,0c-0.408,0 -0.742,-0.334 -0.742,-0.742l0,-7.103c0,-0.408 0.334,-0.742 0.742,-0.742l0.971,0Zm5.507,7.632c0.208,0 0.349,0.008 0.349,-0.248l0,-4.946l-6.678,0l0,4.946c0,0.256 0.13,0.248 0.339,0.248l5.99,0Z" style="fill:#b3b3b3;"/><path d="M13.419,7.413l0,0.769c0,0.204 0.167,0.371 0.371,0.371l0.433,0c0.204,0 0.371,-0.167 0.371,-0.371l0,-0.769l2.987,0l0,0.769c0,0.204 0.167,0.371 0.371,0.371l0.432,0c0.204,0 0.371,-0.167 0.371,-0.371l0,-0.769l0.797,0c0.408,0 0.742,0.334 0.742,0.742l0,7.103c0,0.408 -0.334,0.742 -0.742,0.742l-7.104,0c-0.408,0 -0.742,-0.334 -0.742,-0.742l0,-7.103c0,-0.408 0.334,-0.742 0.742,-0.742l0.971,0Zm5.507,7.632c0.208,0 0.349,0.008 0.349,-0.248l0,-4.946l-6.678,0l0,4.946c0,0.256 0.13,0.248 0.339,0.248l5.99,0Z" style="fill:#b3b3b3;"/></g><g id="Layer-51"><path d="M18.555,8.039c0,0.17 -0.106,0.31 -0.235,0.31l-0.273,0c-0.129,0 -0.234,-0.14 -0.234,-0.31l0,-1.24c0,-0.17 0.105,-0.31 0.234,-0.31l0.273,0c0.129,0 0.235,0.14 0.235,0.31l0,1.24Z" style="fill:#b3b3b3;fill-rule:nonzero;"/><path d="M18.555,8.039c0,0.17 -0.106,0.31 -0.235,0.31l-0.273,0c-0.129,0 -0.234,-0.14 -0.234,-0.31l0,-1.24c0,-0.17 0.105,-0.31 0.234,-0.31l0.273,0c0.129,0 0.235,0.14 0.235,0.31l0,1.24Z" style="fill:#b3b3b3;fill-rule:nonzero;"/><path d="M14.397,8.038c0,0.17 -0.105,0.309 -0.234,0.309l-0.274,0c-0.129,0 -0.234,-0.139 -0.234,-0.309l0,-1.236c0,-0.17 0.105,-0.31 0.234,-0.31l0.274,0c0.129,0 0.234,0.14 0.234,0.31l0,1.236Z" style="fill:#b3b3b3;fill-rule:nonzero;"/><path d="M14.397,8.038c0,0.17 -0.105,0.309 -0.234,0.309l-0.274,0c-0.129,0 -0.234,-0.139 -0.234,-0.309l0,-1.236c0,-0.17 0.105,-0.31 0.234,-0.31l0.274,0c0.129,0 0.234,0.14 0.234,0.31l0,1.236Z" style="fill:#b3b3b3;fill-rule:nonzero;"/></g><g id="Layer-7"><rect x="13.339" y="10.964" width="1.113" height="1.113" style="fill:#b3b3b3;fill-rule:nonzero;"/><rect x="13.339" y="10.964" width="1.113" height="1.113" style="fill:#b3b3b3;fill-rule:nonzero;"/><rect x="15.194" y="10.964" width="1.113" height="1.113" style="fill:#b3b3b3;fill-rule:nonzero;"/><rect x="15.194" y="10.964" width="1.113" height="1.113" style="fill:#b3b3b3;fill-rule:nonzero;"/><rect x="17.049" y="10.964" width="1.113" height="1.113" style="fill:#b3b3b3;fill-rule:nonzero;"/><rect x="17.049" y="10.964" width="1.113" height="1.113" style="fill:#b3b3b3;fill-rule:nonzero;"/><rect x="13.339" y="12.819" width="1.113" height="1.113" style="fill:#b3b3b3;fill-rule:nonzero;"/><rect x="13.339" y="12.819" width="1.113" height="1.113" style="fill:#b3b3b3;fill-rule:nonzero;"/><rect x="15.194" y="12.819" width="1.113" height="1.113" style="fill:#b3b3b3;fill-rule:nonzero;"/><rect x="15.194" y="12.819" width="1.113" height="1.113" style="fill:#b3b3b3;fill-rule:nonzero;"/></g></g><text x="10.849px" y="25.99px" style="font-family:'Lato-Regular', 'Lato', sans-serif;font-size:4px;fill:#b3b3b3;">Ev<tspan x="15.075px " y="25.99px ">e</tspan>nt</text></svg>