<?xml version="1.0" encoding="UTF-8" standalone="no"?><!DOCTYPE svg PUBLIC "-//W3C//DTD SVG 1.1//EN" "http://www.w3.org/Graphics/SVG/1.1/DTD/svg11.dtd"><svg width="100%" height="100%" viewBox="0 0 32 32" version="1.1" xmlns="http://www.w3.org/2000/svg" xmlns:xlink="http://www.w3.org/1999/xlink" xml:space="preserve" style="fill-rule:evenodd;clip-rule:evenodd;stroke-linejoin:round;stroke-miterlimit:1.41421;"><rect id="Page-3a" x="0" y="0" width="32" height="32" style="fill:none;"/><g id="Layer-1"><path d="M17.786,9.589c0,0.988 -0.798,1.786 -1.786,1.786c-0.988,0 -1.786,-0.798 -1.786,-1.786c0,-0.988 0.798,-1.786 1.786,-1.786c0.988,0 1.786,0.798 1.786,1.786m-5.016,0.076c0,1.786 2.356,4.56 3.23,6.27c0.874,-1.672 3.23,-4.484 3.23,-6.27c0,-1.786 -1.444,-3.23 -3.23,-3.23c-1.786,0 -3.23,1.444 -3.23,3.23" style="fill:#b3b3b3;fill-rule:nonzero;"/></g><text x="11.24px" y="25.925px" style="font-family:'Lato-Regular', 'Lato', sans-serif;font-size:4px;fill:#b3b3b3;">Place</text></svg>