<?xml version="1.0" encoding="UTF-8"?>
<svg width="64px" height="65px" viewBox="0 0 64 65" version="1.1" xmlns="http://www.w3.org/2000/svg" xmlns:xlink="http://www.w3.org/1999/xlink">
    <!-- Generator: Sketch 57.1 (83088) - https://sketch.com -->
    <title>annotations</title>
    <desc>Created with Sketch.</desc>
    <g id="Page-1" stroke="none" stroke-width="1" fill="none" fill-rule="evenodd">
        <g id="annotations" transform="translate(-18.000000, -19.000000)">
            <rect id="Annotations-2" x="0" y="0" width="100" height="100"></rect>
            <g id="Layer-7" transform="translate(18.625000, 19.750000)" fill="#696969">
                <path d="M15.275,58.053125 L19.075,54.253125 L9.259375,44.434375 L5.45625,48.2375 L5.45625,52.70625 L10.803125,52.70625 L10.803125,58.053125 L15.275,58.053125 L15.275,58.053125 Z M37.121875,19.2875 C37.121875,18.675 36.815625,18.365625 36.203125,18.365625 C35.925,18.365625 35.6875,18.465625 35.49375,18.659375 L12.85,41.3 C12.65625,41.496875 12.559375,41.734375 12.559375,42.0125 C12.559375,42.625 12.865625,42.93125 13.478125,42.93125 C13.75625,42.93125 13.99375,42.834375 14.1875,42.6375 L36.828125,19.996875 C37.025,19.8 37.121875,19.565625 37.121875,19.2875 L37.121875,19.2875 Z M34.865625,11.265625 L52.24375,28.64375 L17.4875,63.4 L0.109375,63.4 L0.109375,46.021875 L34.865625,11.265625 Z M63.396875,15.275 C63.396875,16.753125 62.884375,18.00625 61.853125,19.034375 L54.91875,25.96875 L37.540625,8.590625 L44.475,1.7 C45.478125,0.640625 46.73125,0.1125 48.234375,0.1125 C49.709375,0.1125 50.978125,0.640625 52.034375,1.7 L61.853125,11.475 C62.884375,12.559375 63.396875,13.828125 63.396875,15.275 L63.396875,15.275 Z" id="Shape"></path>
            </g>
        </g>
    </g>
</svg>