<?xml version="1.0" encoding="UTF-8"?>
<svg width="44px" height="56px" viewBox="0 0 44 56" version="1.1" xmlns="http://www.w3.org/2000/svg" xmlns:xlink="http://www.w3.org/1999/xlink">
    <!-- Generator: Sketch 57.1 (83088) - https://sketch.com -->
    <title>concept_no-image</title>
    <desc>Created with Sketch.</desc>
    <g id="Page-1" stroke="none" stroke-width="1" fill="none" fill-rule="evenodd">
        <g id="concept_no-image" transform="translate(-28.000000, -23.000000)">
            <rect id="Page-19a" x="0" y="0" width="100" height="100"></rect>
            <g id="Layer-1" transform="translate(36.375000, 23.875000)">
                <path d="M26.5375,10.8625 C26.5375,13.63125 25.1125,16.14375 22.8,17.965625 C22.025,18.578125 24.159375,25.875 24.159375,25.875 C24.159375,25.875 17.403125,20.6 15.8375,20.809375 C15.11875,20.909375 14.378125,20.959375 13.625,20.959375 C6.49375,20.959375 0.7125,16.440625 0.7125,10.8625 C0.7125,5.2875 6.49375,0.76875 13.625,0.76875 C20.75625,0.76875 26.5375,5.2875 26.5375,10.8625" id="Path"></path>
                <path d="M26.5375,10.8625 C26.5375,13.63125 25.1125,16.14375 22.8,17.965625 C22.025,18.578125 24.159375,25.875 24.159375,25.875 C24.159375,25.875 17.403125,20.6 15.8375,20.809375 C15.11875,20.909375 14.378125,20.959375 13.625,20.959375 C6.49375,20.959375 0.7125,16.440625 0.7125,10.8625 C0.7125,5.2875 6.49375,0.76875 13.625,0.76875 C20.75625,0.76875 26.5375,5.2875 26.5375,10.8625 L26.5375,10.8625 Z" id="Path" stroke="#d82880" stroke-width="3.125"></path>
                <path d="M10.13125,11.221875 C10.13125,12.246875 9.3,13.078125 8.275,13.078125 C7.253125,13.078125 6.421875,12.246875 6.421875,11.221875 C6.421875,10.2 7.253125,9.36875 8.275,9.36875 C9.3,9.36875 10.13125,10.2 10.13125,11.221875" id="Path" fill="#d82880" fill-rule="nonzero"></path>
                <path d="M15.575,11.409375 C15.575,12.434375 14.74375,13.265625 13.71875,13.265625 C12.69375,13.265625 11.8625,12.434375 11.8625,11.409375 C11.8625,10.3875 12.69375,9.55625 13.71875,9.55625 C14.74375,9.55625 15.575,10.3875 15.575,11.409375" id="Path" fill="#d82880" fill-rule="nonzero"></path>
                <path d="M21.01875,11.409375 C21.01875,12.434375 20.1875,13.265625 19.1625,13.265625 C18.1375,13.265625 17.30625,12.434375 17.30625,11.409375 C17.30625,10.3875 18.1375,9.55625 19.1625,9.55625 C20.1875,9.55625 21.01875,10.3875 21.01875,11.409375" id="Path" fill="#d82880" fill-rule="nonzero"></path>
            </g>
            <g id="Concep" transform="translate(28.000000, 61.875000)" fill="#d82880" font-family="MaratSans-Medium, Marat Sans" font-size="15" font-weight="400">
                <text>
                    <tspan x="0" y="13.125">Concep</tspan>
                </text>
            </g>
        </g>
    </g>
</svg>