<?xml version="1.0" encoding="UTF-8"?>
<svg width="35px" height="57px" viewBox="0 0 35 57" version="1.1" xmlns="http://www.w3.org/2000/svg" xmlns:xlink="http://www.w3.org/1999/xlink">
    <!-- Generator: Sketch 57.1 (83088) - https://sketch.com -->
    <title>date_no-image</title>
    <desc>Created with Sketch.</desc>
    <g id="Page-1" stroke="none" stroke-width="1" fill="none" fill-rule="evenodd">
        <g id="date_no-image" transform="translate(-32.000000, -19.000000)">
            <rect id="Page-16a" x="0" y="0" width="100" height="100"></rect>
            <g id="Layer-9" transform="translate(32.375000, 18.750000)" fill="#d82880" fill-rule="nonzero">
                <path d="M17.378125,30.26875 C19.646875,29.965625 22.325,28.71875 24.09375,27.371875 C24.11875,27.35 24.140625,27.325 24.1875,27.271875 C23.353125,26.375 22.51875,25.48125 21.665625,24.56875 C18.9875,26.46875 16.0375,27.134375 12.834375,26.4875 C10.3375,25.98125 8.275,24.703125 6.615625,22.775 C3.978125,19.7125 3.11875,15.55 4.59375,11.784375 C6.975,5.721875 13.45,2.971875 19.16875,5.21875 C23.615625,6.96875 26.140625,11.315625 26.140625,15.203125 L21.009375,15.203125 L27.671875,22.640625 L34.33125,15.2125 L29.953125,15.2125 C29.81875,14.278125 29.734375,13.375 29.553125,12.4875 C29.021875,9.86875 27.834375,7.575 26.034375,5.596875 C23.86875,3.221875 21.225,1.684375 18.075,1.028125 C16.584375,0.71875 15.084375,0.65625 13.575,0.8 C11.13125,1.0375 8.76875,1.928125 6.75,3.31875 C3.425,5.6125 1.346875,8.790625 0.55,12.846875 C0.290625,14.1625 0.2375,15.471875 0.346875,16.8 C0.596875,19.871875 1.80625,22.815625 3.796875,25.175 C6.05,27.846875 8.91875,29.525 12.3875,30.184375 C12.90625,30.284375 14.253125,30.4192573 14.61875,30.4192573 C15.540625,30.421875 16.375,30.4 17.378125,30.26875" id="Path"></path>
                <path d="M16.7375,8.340625 L14.315625,8.340625 C14.315625,8.340625 14.328125,13.821875 14.33125,14.7 C14.33125,14.928125 14.271875,15.0875 14.10625,15.253125 C12.771875,16.571875 11.45,17.903125 10.121875,19.23125 C10.040625,19.3125 9.9625,19.396875 9.903125,19.4625 C10.46875,20.028125 11.028125,20.584375 11.6,21.153125 C11.621875,21.134375 11.6875,21.084375 11.74375,21.028125 C13.346875,19.421875 14.95,17.821875 16.546875,16.209375 C16.653125,16.103125 16.7375,15.925 16.7375,15.778125" id="Path"></path>
            </g>
            <g id="Time" transform="translate(35.000000, 61.750000)" fill="#d82880" font-family="MaratSans-Medium, Marat Sans" font-size="15" font-weight="400">
                <text>
                    <tspan x="0" y="13">Time</tspan>
                </text>
            </g>
        </g>
    </g>
</svg>