<?xml version="1.0" encoding="utf-8"?>
<!-- Generator: Adobe Illustrator 19.2.0, SVG Export Plug-In . SVG Version: 6.00 Build 0)  -->
<svg version="1.1" id="Livello_1" xmlns="http://www.w3.org/2000/svg" xmlns:xlink="http://www.w3.org/1999/xlink" x="0px" y="0px"
	 viewBox="0 0 89.6 86.2" style="enable-background:new 0 0 89.6 86.2;" xml:space="preserve">
<style type="text/css">
	.st0{fill:#696969;}
</style>
<g>
	<path class="st0" d="M67.4,42.6c0-9.2-7.5-16.7-16.7-16.7s-16.7,7.5-16.7,16.7c0,9.2,7.5,16.7,16.7,16.7S67.4,51.8,67.4,42.6z
		 M57.5,52.8H43.8c-1.4,0-2.5-1.1-2.5-2.5l0.9-3.6c0-1.4,1.1-2.5,2.5-2.5h3.1c-2-1-3.4-3.1-3.4-5.6c0-3.5,2.8-6.3,6.3-6.3
		c3.5,0,6.3,2.8,6.3,6.3c0,2.4-1.4,4.5-3.4,5.6h3.1c1.4,0,2.5,1.1,2.5,2.5l0.9,3.6C60,51.7,58.9,52.8,57.5,52.8z"/>
	<path class="st0" d="M66.6,35.1l5.1-2.8c2.2,2.5,5.9,3.3,8.9,1.6c3.5-1.9,4.8-6.3,2.9-9.8c-1.9-3.5-6.3-4.8-9.8-2.9
		c-3,1.6-4.4,5.2-3.5,8.4L65,32.4C65.6,33.3,66.2,34.2,66.6,35.1z"/>
	<path class="st0" d="M78.9,41.7c-3.3-1.1-6.8,0.3-8.5,3.2l-2.3-0.7c-0.1,1.1-0.3,2.1-0.5,3.1l1.9,0.6c-0.3,3.3,1.7,6.5,4.9,7.6
		c3.8,1.2,7.9-0.8,9.1-4.6C84.8,47,82.7,42.9,78.9,41.7z"/>
	<path class="st0" d="M67.6,64.8l-5.4-8.9c-0.8,0.7-1.6,1.3-2.5,1.8l5.2,8.7c-3.7,3.1-4.6,8.4-2.1,12.6c2.8,4.7,8.9,6.2,13.5,3.4
		c4.7-2.8,6.2-8.9,3.4-13.5C77.2,64.6,72,63,67.6,64.8z"/>
	<path class="st0" d="M49.1,17v8c0.5,0,1-0.1,1.5-0.1s1,0,1.5,0.1v-8c3.2-0.7,5.7-3.6,5.7-7.1c0-4-3.2-7.2-7.2-7.2s-7.2,3.2-7.2,7.2
		C43.4,13.4,45.9,16.3,49.1,17z"/>
	<path class="st0" d="M38.6,55.5l-5.4,5.8c-2.9-1.7-6.6-1.2-9,1.3c-2.7,2.9-2.6,7.5,0.4,10.2c2.9,2.7,7.5,2.6,10.2-0.4
		c2.4-2.5,2.5-6.3,0.7-9l5.6-6C40.2,56.8,39.4,56.2,38.6,55.5z"/>
	<path class="st0" d="M34,36.9l-10.8-3.4c0.7-4.7-2.1-9.3-6.7-10.8C11.3,21,5.8,23.9,4.2,29s1.2,10.7,6.3,12.3
		c4.6,1.5,9.6-0.7,11.7-4.9l11,3.5C33.4,38.9,33.6,37.9,34,36.9z"/>
</g>
</svg>
