<?xml version="1.0" encoding="UTF-8"?>
<svg width="33px" height="58px" viewBox="0 0 33 58" version="1.1" xmlns="http://www.w3.org/2000/svg" xmlns:xlink="http://www.w3.org/1999/xlink">
    <!-- Generator: Sketch 57.1 (83088) - https://sketch.com -->
    <title>event_no-image</title>
    <desc>Created with Sketch.</desc>
    <g id="Page-1" stroke="none" stroke-width="1" fill="none" fill-rule="evenodd">
        <g id="event_no-image" transform="translate(-34.000000, -18.000000)">
            <rect id="Page-14a" x="0" y="0" width="100" height="100"></rect>
            <g id="Group" transform="translate(36.375000, 17.750000)" fill-rule="nonzero">
                <g id="Layer-5" transform="translate(0.000000, 3.125000)">
                    <path d="M5.559375,0.290625 L5.559375,2.69375 C5.559375,3.33125 6.08125,3.853125 6.71875,3.853125 L8.071875,3.853125 C8.709375,3.853125 9.23125,3.33125 9.23125,2.69375 L9.23125,0.290625 L18.565625,0.290625 L18.565625,2.69375 C18.565625,3.33125 19.0875,3.853125 19.725,3.853125 L21.075,3.853125 C21.7125,3.853125 22.234375,3.33125 22.234375,2.69375 L22.234375,0.290625 L24.725,0.290625 C26,0.290625 27.04375,1.334375 27.04375,2.609375 L27.04375,24.80625 C27.04375,26.08125 26,27.125 24.725,27.125 L2.525,27.125 C1.25,27.125 0.20625,26.08125 0.20625,24.80625 L0.20625,2.609375 C0.20625,1.334375 1.25,0.290625 2.525,0.290625 L5.559375,0.290625 Z M22.76875,24.1407971 C23.41875,24.1407971 23.859375,24.165625 23.859375,23.365625 L23.859375,7.909375 L2.990625,7.909375 L2.990625,23.365625 C2.990625,24.165625 3.396875,24.1407971 4.05,24.1407971 L22.76875,24.1407971 Z" id="Shape" fill="#B3B3B3"></path>
                    <path d="M5.559375,0.290625 L5.559375,2.69375 C5.559375,3.33125 6.08125,3.853125 6.71875,3.853125 L8.071875,3.853125 C8.709375,3.853125 9.23125,3.33125 9.23125,2.69375 L9.23125,0.290625 L18.565625,0.290625 L18.565625,2.69375 C18.565625,3.33125 19.0875,3.853125 19.725,3.853125 L21.075,3.853125 C21.7125,3.853125 22.234375,3.33125 22.234375,2.69375 L22.234375,0.290625 L24.725,0.290625 C26,0.290625 27.04375,1.334375 27.04375,2.609375 L27.04375,24.80625 C27.04375,26.08125 26,27.125 24.725,27.125 L2.525,27.125 C1.25,27.125 0.20625,26.08125 0.20625,24.80625 L0.20625,2.609375 C0.20625,1.334375 1.25,0.290625 2.525,0.290625 L5.559375,0.290625 Z M22.76875,24.1407971 C23.41875,24.1407971 23.859375,24.165625 23.859375,23.365625 L23.859375,7.909375 L2.990625,7.909375 L2.990625,23.365625 C2.990625,24.165625 3.396875,24.1407971 4.05,24.1407971 L22.76875,24.1407971 Z" id="Shape" fill="#d82880"></path>
                </g>
                <g id="Layer-51" transform="translate(6.250000, 0.000000)">
                    <path d="M15.359375,5.371875 C15.359375,5.903125 15.028125,6.340625 14.625,6.340625 L13.771875,6.340625 C13.36875,6.340625 13.040625,5.903125 13.040625,5.371875 L13.040625,1.496875 C13.040625,0.965625 13.36875,0.528125 13.771875,0.528125 L14.625,0.528125 C15.028125,0.528125 15.359375,0.965625 15.359375,1.496875 L15.359375,5.371875 Z" id="Path" fill="#B3B3B3"></path>
                    <path d="M15.359375,5.371875 C15.359375,5.903125 15.028125,6.340625 14.625,6.340625 L13.771875,6.340625 C13.36875,6.340625 13.040625,5.903125 13.040625,5.371875 L13.040625,1.496875 C13.040625,0.965625 13.36875,0.528125 13.771875,0.528125 L14.625,0.528125 C15.028125,0.528125 15.359375,0.965625 15.359375,1.496875 L15.359375,5.371875 Z" id="Path" fill="#d82880"></path>
                    <path d="M2.365625,5.36875 C2.365625,5.9 2.0375,6.334375 1.634375,6.334375 L0.778125,6.334375 C0.375,6.334375 0.046875,5.9 0.046875,5.36875 L0.046875,1.50625 C0.046875,0.975 0.375,0.5375 0.778125,0.5375 L1.634375,0.5375 C2.0375,0.5375 2.365625,0.975 2.365625,1.50625 L2.365625,5.36875 Z" id="Path" fill="#B3B3B3"></path>
                    <path d="M2.365625,5.36875 C2.365625,5.9 2.0375,6.334375 1.634375,6.334375 L0.778125,6.334375 C0.375,6.334375 0.046875,5.9 0.046875,5.36875 L0.046875,1.50625 C0.046875,0.975 0.375,0.5375 0.778125,0.5375 L1.634375,0.5375 C2.0375,0.5375 2.365625,0.975 2.365625,1.50625 L2.365625,5.36875 Z" id="Path" fill="#d82880"></path>
                </g>
                <g id="Layer-7" transform="translate(5.250000, 14.500000)">
                    <rect id="Rectangle" fill="#B3B3B3" x="0.059375" y="0.0125" width="3.478125" height="3.478125"></rect>
                    <rect id="Rectangle" fill="#d82880" x="0.059375" y="0.0125" width="3.478125" height="3.478125"></rect>
                    <rect id="Rectangle" fill="#B3B3B3" x="5.85625" y="0.0125" width="3.478125" height="3.478125"></rect>
                    <rect id="Rectangle" fill="#d82880" x="5.85625" y="0.0125" width="3.478125" height="3.478125"></rect>
                    <rect id="Rectangle" fill="#B3B3B3" x="11.653125" y="0.0125" width="3.478125" height="3.478125"></rect>
                    <rect id="Rectangle" fill="#d82880" x="11.653125" y="0.0125" width="3.478125" height="3.478125"></rect>
                    <rect id="Rectangle" fill="#B3B3B3" x="0.059375" y="5.809375" width="3.478125" height="3.478125"></rect>
                    <rect id="Rectangle" fill="#d82880" x="0.059375" y="5.809375" width="3.478125" height="3.478125"></rect>
                    <rect id="Rectangle" fill="#B3B3B3" x="5.85625" y="5.809375" width="3.478125" height="3.478125"></rect>
                    <rect id="Rectangle" fill="#d82880" x="5.85625" y="5.809375" width="3.478125" height="3.478125"></rect>
                </g>
            </g>
            <g id="Event" transform="translate(33.000000, 61.750000)" fill="#d82880" font-family="MaratSans-Medium, Marat Sans" font-size="15" font-weight="400">
                <text>
                    <tspan x="0" y="13">Event</tspan>
                </text>
            </g>
        </g>
    </g>
</svg>