<?xml version="1.0" encoding="utf-8"?>
<!-- Generator: Adobe Illustrator 19.2.0, SVG Export Plug-In . SVG Version: 6.00 Build 0)  -->
<svg version="1.1" id="Livello_1" xmlns="http://www.w3.org/2000/svg" xmlns:xlink="http://www.w3.org/1999/xlink" x="0px" y="0px"
	 viewBox="0 0 83.5 69.6" style="enable-background:new 0 0 83.5 69.6;" xml:space="preserve">
<style type="text/css">
	.st0{fill:#696969;}
</style>
<g>
	<path class="st0" d="M71.3,53.3c-0.4,0.4-1,0.4-1.4,0l-3.2-3.2v10c0,0.5-0.4,1-1,1s-1-0.5-1-1v-10l-3.2,3.2
		c-0.2,0.2-0.5,0.3-0.7,0.3c-0.3,0-0.5-0.1-0.7-0.3c-0.4-0.4-0.4-1,0-1.4L65,47c0.1-0.1,0.2-0.2,0.3-0.2c0.2-0.1,0.5-0.1,0.8,0
		c0.1,0,0.2,0.1,0.3,0.2l4.9,4.9C71.7,52.3,71.7,52.9,71.3,53.3z"/>
	<path class="st0" d="M22.1,23.8c-3.5,0-6.4-2.8-6.4-6.4c0-3.5,2.8-6.3,6.4-6.3c3.5,0,6.3,2.8,6.3,6.3C28.4,21,25.6,23.8,22.1,23.8z
		 M22.1,13.1c-2.4,0-4.4,2-4.4,4.3s2,4.4,4.4,4.4s4.3-2,4.3-4.4S24.5,13.1,22.1,13.1z"/>
	<path class="st0" d="M66.7,40.2V6.8c0-1.6-1.3-3-3-3H7.3c-1.7,0-3,1.4-3,3v45.1c0,1.6,1.3,3,3,3H52c0.5,7.1,6.5,12.8,13.7,12.8
		c7.6,0,13.8-6.2,13.8-13.8C79.4,46.7,73.8,40.7,66.7,40.2z M6.3,6.8c0-0.5,0.4-1,1-1h56.4c0.6,0,1,0.5,1,1v29.3L50.1,23.3
		c-0.4-0.3-1-0.3-1.3,0L31.2,39.7l-8.1-8c-0.3-0.3-0.9-0.4-1.3-0.1L6.3,42.9V6.8z M7.3,52.9c-0.6,0-1-0.5-1-1v-6.6l16-11.6l8.2,8.1
		c0.4,0.4,1,0.4,1.4,0l17.6-16.4l15.2,13.3v1.5c-6.8,0.5-12.2,5.9-12.7,12.7H7.3z M65.7,65.7c-6.5,0-11.7-5.3-11.7-11.8
		s5.3-11.8,11.7-11.8c6.5,0,11.8,5.3,11.8,11.8C77.4,60.4,72.2,65.7,65.7,65.7z"/>
</g>
</svg>
