<?xml version="1.0" encoding="utf-8"?>
<!-- Generator: Adobe Illustrator 19.2.0, SVG Export Plug-In . SVG Version: 6.00 Build 0)  -->
<svg version="1.1" id="Livello_1" xmlns="http://www.w3.org/2000/svg" xmlns:xlink="http://www.w3.org/1999/xlink" x="0px" y="0px"
	 viewBox="0 0 100 74.7" style="enable-background:new 0 0 100 74.7;" xml:space="preserve">
<style type="text/css">
	.st0{fill:#696969;}
</style>
<path class="st0" d="M94.4,16.4L86.7,64c-0.2,1.5-1.6,2.5-3.1,2.2l-4.7-0.8v-2.7l2.5,0.4c1.5,0.2,2.9-0.8,3.1-2.2l6.8-42.2
	c0.2-1.5-0.8-2.9-2.2-3.1L28.7,5.9c-1.5-0.2-2.9,0.8-3.1,2.2l-1,6.4h-2.7L23.4,5c0.2-1.5,1.6-2.5,3.1-2.2l65.7,10.6
	C93.7,13.6,94.7,15,94.4,16.4z M77.6,18.5c0-1.5-1.2-2.7-2.7-2.7H8.3c-1.5,0-2.7,1.2-2.7,2.7v48.2c0,1.5,1.2,2.7,2.7,2.7h66.6
	c1.5,0,2.7-1.2,2.7-2.7V18.5z M8.3,21.2c0-1.5,1.2-2.7,2.7-2.7h61.2c1.5,0,2.7,1.2,2.7,2.7V64c0,1.5-1.2,2.7-2.7,2.7H11
	c-1.5,0-2.7-1.2-2.7-2.7V21.2z M76.2,50.7L60.5,35c-1.4-1.4-3.3-2.2-5.2-2.2s-3.8,0.8-5.2,2.2l-33,33h59.1V50.7z M28,53.3l-8.7-8.7
	c-2.1-2.1-5.6-2.1-7.8,0L7,49.1V68h6.3L28,53.3z M22.4,36.4c3.5,0,6.3-2.8,6.3-6.3s-2.8-6.3-6.3-6.3s-6.3,2.8-6.3,6.3
	S18.9,36.4,22.4,36.4z"/>
</svg>
