<?xml version="1.0" encoding="UTF-8"?>
<svg width="30px" height="57px" viewBox="0 0 30 57" version="1.1" xmlns="http://www.w3.org/2000/svg" xmlns:xlink="http://www.w3.org/1999/xlink">
    <!-- Generator: Sketch 57.1 (83088) - https://sketch.com -->
    <title>place_no-image</title>
    <desc>Created with Sketch.</desc>
    <g id="Page-1" stroke="none" stroke-width="1" fill="none" fill-rule="evenodd">
        <g id="place_no-image" transform="translate(-35.000000, -19.000000)">
            <rect id="Page-3a" x="0" y="0" width="100" height="100"></rect>
            <g id="Layer-1" transform="translate(39.500000, 18.750000)" fill="#d82880" fill-rule="nonzero">
                <path d="M16.08125,10.215625 C16.08125,13.303125 13.5875,15.796875 10.5,15.796875 C7.4125,15.796875 4.91875,13.303125 4.91875,10.215625 C4.91875,7.128125 7.4125,4.634375 10.5,4.634375 C13.5875,4.634375 16.08125,7.128125 16.08125,10.215625 M0.40625,10.453125 C0.40625,16.034375 7.76875,24.703125 10.5,30.046875 C13.23125,24.821875 20.59375,16.034375 20.59375,10.453125 C20.59375,4.871875 16.08125,0.359375 10.5,0.359375 C4.91875,0.359375 0.40625,4.871875 0.40625,10.453125" id="Shape"></path>
            </g>
            <g id="Place" transform="translate(34.000000, 61.750000)" fill="#d82880" font-family="MaratSans-Medium, Marat Sans" font-size="15" font-weight="400">
                <text>
                    <tspan x="0" y="13">Place</tspan>
                </text>
            </g>
        </g>
    </g>
</svg>