<?xml version="1.0" encoding="utf-8"?>
<!-- Generator: Adobe Illustrator 19.2.0, SVG Export Plug-In . SVG Version: 6.00 Build 0)  -->
<svg version="1.1" id="Livello_1" xmlns="http://www.w3.org/2000/svg" xmlns:xlink="http://www.w3.org/1999/xlink" x="0px" y="0px"
	 viewBox="0 0 347.6 346.6" style="enable-background:new 0 0 347.6 346.6;" xml:space="preserve">
<style type="text/css">
	.st0{fill:#696969;}
</style>
<path class="st0" d="M28,291.5h-3.7c-3.4,0-6.2-2.8-6.2-6.2V52c0-3.4,2.8-6.2,6.2-6.2H28c3.4,0,6.2,2.8,6.2,6.2v233.3
	C34.2,288.7,31.4,291.5,28,291.5z"/>
<path class="st0" d="M254.2,275.5l12.6,16H20.5c-1.3,0-2.3-1-2.3-2.3v-11.4c0-1.3,1-2.3,2.3-2.3L254.2,275.5L254.2,275.5z"/>
<path class="st0" d="M340.2,283.5c0,4.2-3.3,7.7-7.4,8l-12.5-16h11.9C336.6,275.5,340.2,279,340.2,283.5z"/>
<circle class="st0" cx="167.3" cy="176.8" r="16"/>
<circle class="st0" cx="90.3" cy="135.3" r="16"/>
<circle class="st0" cx="234.8" cy="110.8" r="16"/>
<path class="st0" d="M44.3,161.1c0.3,1.2,0.6,2.3,1,3.5l-22.6,13.5l-1.8-3L44.3,161.1z"/>
<path class="st0" d="M72,144.6c0.2,1.2,0.4,2.5,0.7,3.7l-24.5,14.6c-0.4-1.2-0.7-2.3-1-3.5L72,144.6z"/>
<path class="st0" d="M80.1,143.9l-4.3,2.6c-0.3-1.2-0.5-2.5-0.7-3.7l3.2-1.9L80.1,143.9z"/>
<path class="st0" d="M252.1,120.3c0.1,1.4,0.2,2.8,0.3,4.2l-15.8-8.5l1.7-3.1L252.1,120.3z"/>
<path class="st0" d="M255.6,122.2l27.3,14.6l0,0c-0.1,1.3-0.2,2.5-0.3,3.8l-26.8-14.3C255.8,125,255.7,123.6,255.6,122.2z"/>
<path class="st0" d="M297.2,144.4l-1.7,3.1l-9.7-5.2c0.2-1.3,0.3-2.5,0.4-3.8L297.2,144.4z"/>
<rect x="131.2" y="113" transform="matrix(0.489 -0.8723 0.8723 0.489 -69.7783 196.6115)" class="st0" width="3.5" height="89.8"/>
<rect x="157.7" y="141.4" transform="matrix(0.7256 -0.6881 0.6881 0.7256 -42.8944 178.6978)" class="st0" width="89.8" height="3.5"/>
<g>
	<path class="st0" d="M163.3,9.1C97.2,9.1,43.4,62.9,43.4,129c0,10.5,1.3,20.6,3.9,30.3c0.3,1.2,0.6,2.3,1,3.5
		c14.6,49.7,60.7,86.1,115,86.1c62.2,0,113.4-47.6,119.3-108.2c0.1-1.3,0.2-2.5,0.3-3.8l0,0c0.2-2.6,0.3-5.2,0.3-7.8
		C283.1,62.9,229.4,9.1,163.3,9.1z M255.8,126.3c0,0.9,0,1.8,0,2.6c0,51.1-41.5,92.6-92.6,92.6c-44.4,0-81.7-31.5-90.6-73.3
		c-0.3-1.2-0.5-2.4-0.7-3.7c-0.9-5.1-1.3-10.3-1.3-15.6c0-51,41.5-92.6,92.6-92.6c48.8,0,88.9,37.9,92.3,85.8
		C255.7,123.6,255.8,125,255.8,126.3z"/>
</g>
<rect x="240.8" y="197.5" transform="matrix(0.7866 -0.6174 0.6174 0.7866 -87.1907 202.7294)" class="st0" width="17.9" height="60"/>
<path class="st0" d="M332.1,323.2l-9.2,7.3c-5.2,4.1-12.8,3.2-16.8-2l-58.2-74.1c-4.1-5.2-3.2-12.8,2-16.8l9.2-7.3
	c5.2-4.1,12.8-3.2,16.8,2l58.2,74.1C338.2,311.5,337.3,319.1,332.1,323.2z"/>
</svg>
