<svg height="481pt" viewBox="0 0 481 481.59901" width="481pt" xmlns="http://www.w3.org/2000/svg">
<style type="text/css">
	.st0{fill:#696969;}
</style>
<path class="st0" d="m472.300781 48c4.417969 0 8-3.582031 8-8v-32c0-4.417969-3.582031-8-8-8h-464c-4.417969 0-8 3.582031-8 8v32c0 4.417969 3.582031 8 8 8h8v256h-8c-4.417969 0-8 3.582031-8 8v32c0 4.417969 3.582031 8 8 8h165.496094l-40.273437 107.511719c-1.550782 4.136719.546874 8.746093 4.679687 10.296875l30 11.28125c4.136719 1.550781 8.753906-.542969 10.304687-4.683594l37.792969-101.015625v96.609375c0 4.417969 3.582031 8 8 8h32c4.417969 0 8-3.582031 8-8v-96.609375l37.789063 101.015625c1.554687 4.140625 6.167968 6.234375 10.304687 4.683594l30-11.28125c4.136719-1.550782 6.230469-6.160156 4.679688-10.296875l-40.269531-107.511719h165.496093c4.417969 0 8-3.582031 8-8v-32c0-4.417969-3.582031-8-8-8h-8v-256zm-456-32h448v16h-448zm150.03125 447.289062-15.015625-5.648437 39.566406-105.640625h17.089844zm81.96875.710938h-16v-112h16zm80.984375-6.398438-15.019531 5.644532-41.636719-111.246094h17.085938zm135.015625-121.601562h-448v-16h448zm-16-32h-416v-256h416zm0 0"/>
<path class="st0" d="m200.300781 272h80c4.417969 0 8-3.582031 8-8v-64c0-4.417969-3.582031-8-8-8h-32v-64h88v24c0 4.417969 3.582031 8 8 8h80c4.417969 0 8-3.582031 8-8v-64c0-4.417969-3.582031-8-8-8h-80c-4.417969 0-8 3.582031-8 8v24h-96c-4.417969 0-8 3.582031-8 8v72h-32c-4.417969 0-8 3.582031-8 8v64c0 4.417969 3.582031 8 8 8zm152-176h64v48h-64zm-144 112h64v48h-64zm0 0"/>
<path class="st0" d="m424.300781 192h-80c-4.417969 0-8 3.582031-8 8v64c0 4.417969 3.582031 8 8 8h80c4.417969 0 8-3.582031 8-8v-64c0-4.417969-3.582031-8-8-8zm-8 64h-64v-48h64zm0 0"/>
<path class="st0" d="m72.300781 160h72c4.417969 0 8-3.582031 8-8v-64c0-4.417969-3.582031-8-8-8h-72c-4.417969 0-8 3.582031-8 8v64c0 4.417969 3.582031 8 8 8zm8-64h56v48h-56zm0 0"/>
<path class="st0" d="m304.300781 224h16v16h-16zm0 0"/>
<path class="st0" d="m96.300781 176h16v16h-16zm0 0"/>
<path class="st0" d="m96.300781 216h16v16h-16zm0 0"/>
<path class="st0" d="m128.300781 216h16v16h-16zm0 0"/>
<path class="st0" d="m160.300781 216h16v16h-16zm0 0"/>
<path class="st0" d="m200.300781 112h16v16h-16zm0 0"/>
<path class="st0" d="m168.300781 112h16v16h-16zm0 0"/>
</svg>