<?xml version="1.0" encoding="utf-8"?>
<!-- Generator: Adobe Illustrator 19.2.0, SVG Export Plug-In . SVG Version: 6.00 Build 0)  -->
<svg version="1.1" id="Livello_1" xmlns="http://www.w3.org/2000/svg" xmlns:xlink="http://www.w3.org/1999/xlink" x="0px" y="0px"
	 viewBox="0 0 64 59" style="enable-background:new 0 0 64 59;" xml:space="preserve">
<style type="text/css">
	.st0{fill:#696969;}
</style>
<title>upload</title>
<g>
	<path class="st0" d="M47.4,45.5h-9.1c-0.6,0-1-0.4-1-1s0.4-1,1-1h9.1c7-0.2,12.5-6,12.3-12.9c-0.2-6.1-4.7-11.3-10.8-12.2l-0.9-0.1
		v-1c0-7.6-6.1-13.7-13.7-13.7h0h-1.1c-5.5,0-10.5,3.3-12.6,8.4l-0.4,0.9l-0.9-0.4c-3.9-1.5-8.3,0.4-9.8,4.3
		c-0.3,0.9-0.5,1.8-0.5,2.7v3.2l-0.4,0.3C5.8,25,4,28.3,4,31.9v1c0,5.8,4.8,10.6,10.6,10.6h10.9c0.6,0,1,0.4,1,1s-0.4,1-1,1H14.6
		C7.7,45.5,2,39.8,2,32.8v-1c0-4,1.9-7.7,5.1-10.1v-2.1c0-5.3,4.3-9.5,9.6-9.5c0.8,0,1.7,0.1,2.5,0.3c2.6-5.4,8.1-8.8,14.1-8.8h1.1
		c8.3,0,15.2,6.6,15.6,14.9c7.9,1.4,13.3,9,11.9,16.9C60.6,40.4,54.5,45.6,47.4,45.5L47.4,45.5z"/>
	<path class="st0" d="M32,57.2c-0.6,0-1-0.4-1-1V23.5c0-0.6,0.4-1,1-1s1,0.4,1,1v32.7C33,56.8,32.6,57.2,32,57.2z"/>
	<path class="st0" d="M41.5,33.8c-0.3,0-0.5-0.1-0.7-0.3L32,24.9l-8.8,8.6c-0.4,0.4-1,0.4-1.4,0c-0.4-0.4-0.4-1,0-1.4L32,22.1
		l10.2,9.9c0.4,0.4,0.4,1,0,1.4C42,33.7,41.8,33.8,41.5,33.8L41.5,33.8z"/>
</g>
</svg>
