<?xml version="1.0" encoding="utf-8"?>
<!-- Generator: Adobe Illustrator 19.2.0, SVG Export Plug-In . SVG Version: 6.00 Build 0)  -->
<svg version="1.1" id="Livello_1" transform="matrix(1,0,0,1,100,0)" xmlns:svg="http://www.w3.org/2000/svg"
	 xmlns="http://www.w3.org/2000/svg" xmlns:xlink="http://www.w3.org/1999/xlink" x="0px" y="0px" viewBox="0 0 100 103.4"
	 style="enable-background:new 0 0 100 103.4;" xml:space="preserve">
<style type="text/css">
	.st0{fill:#FFFFFF;}
</style>
<title>Advanced Search</title>
<script  type="text/javascript">var metadata = {
	&quot;Designer&quot;: &quot;Anas Ramadan&quot;,
	&quot;Organization&quot;: &quot;RichStyle.org&quot;,
	&quot;Year&quot;: &quot;2017&quot;,
	&quot;Country&quot;: &quot;Syria&quot;,
	&quot;License&quot;: &quot;CC-BY-3.0&quot;,
	&quot;URL&quot;: &quot;&quot;
	}
	</script>
<path class="st0" d="M11.1,64.7c14.8,14.8,38.8,14.8,53.6,0s14.8-38.8,0-53.6c-14.8-14.8-38.8-14.8-53.6,0S-3.7,49.9,11.1,64.7z
	 M15.3,15.3C27.8,2.9,48,2.9,60.5,15.3C73,27.8,73,48,60.5,60.5C48,73,27.8,73,15.3,60.5C2.9,48,2.9,27.8,15.3,15.3z"/>
<rect x="75.7" y="61.7" transform="matrix(0.7071 -0.7071 0.7071 0.7071 -33.8214 81.6562)" class="st0" width="12" height="39.9"/>
<path class="st0" d="M20.4,44.2c0.2,0.6,0.4,1.1,0.7,1.7L18,53.3l4.4,4.4l7.5-3c0.6,0.3,1.1,0.5,1.7,0.7l3.1,7.4H41l3.2-7.4
	c0.6-0.2,1.2-0.4,1.8-0.7l7.4,3l4.4-4.4l-3-7.4c0.3-0.6,0.5-1.2,0.8-1.9l7.4-3.1v-6.2l-7.3-3.1c-0.2-0.6-0.5-1.3-0.8-1.9l3-7.4
	l-4.4-4.4L46,21c-0.6-0.3-1.2-0.5-1.8-0.7l-3.1-7.4h-6.2l-3.2,7.4c-0.6,0.2-1.2,0.4-1.7,0.7L22.5,18l-4.4,4.4l3,7.5
	c-0.3,0.6-0.5,1.1-0.7,1.7l-7.5,3.1V41C12.9,41,20.4,44.2,20.4,44.2z M28.6,37.9c0-5.2,4.2-9.4,9.4-9.4s9.4,4.2,9.4,9.4
	s-4.2,9.4-9.4,9.4S28.6,43.1,28.6,37.9z"/>
</svg>
