<?xml version="1.0" encoding="UTF-8"?>
<svg width="67px" height="70px" viewBox="0 0 67 70" version="1.1" xmlns="http://www.w3.org/2000/svg" xmlns:xlink="http://www.w3.org/1999/xlink">
    <!-- Generator: Sketch 62 (91390) - https://sketch.com -->
    <title>annotations_no-image</title>
    <desc>Created with Sketch.</desc>
    <g id="Page-1" stroke="none" stroke-width="1" fill="none" fill-rule="evenodd">
        <g id="annotations_no-image" transform="translate(0.000000, -1.000000)" fill="#9289B7">
            <g id="annotations" transform="translate(11.000000, 0.000000)" fill-rule="nonzero">
                <g id="Layer-7" transform="translate(0.625000, 0.750000)">
                    <path d="M11.1583794,41.4481533 L13.8603348,38.7461979 L6.8810241,31.7646652 L4.17684673,34.4688426 L4.17684673,37.6463065 L7.97869346,37.6463065 L7.97869346,41.4481533 L11.1583794,41.4481533 L11.1583794,41.4481533 Z M26.6924008,13.884209 C26.6924008,13.4486964 26.4746445,13.2287182 26.0391319,13.2287182 C25.8413737,13.2287182 25.6725015,13.2998222 25.5347373,13.4375864 L9.43410527,29.5359964 C9.2963411,29.6759826 9.22745902,29.8448548 9.22745902,30.0426131 C9.22745902,30.4781256 9.44521529,30.6958819 9.88072783,30.6958819 C10.0784861,30.6958819 10.2473583,30.6269998 10.3851225,30.4870136 L26.4835325,14.3886036 C26.6235187,14.2486174 26.6924008,14.0819672 26.6924008,13.884209 L26.6924008,13.884209 Z M25.0881148,8.18032787 L37.4446721,20.5368852 L12.7315574,45.25 L0.375,45.25 L0.375,32.8934426 L25.0881148,8.18032787 Z M45.375,11.0311574 C45.375,12.0821647 45.0105915,12.9731878 44.2773306,13.7042267 L39.3467065,18.6348509 L26.9901491,6.2782935 L31.9207733,1.3787774 C32.6340361,0.625518467 33.5250593,0.25 34.5938426,0.25 C35.6426279,0.25 36.544761,0.625518467 37.2957979,1.3787774 L44.2773306,8.32920205 C45.0105915,9.10023701 45.375,10.0023701 45.375,11.0311574 L45.375,11.0311574 Z" id="Shape"></path>
                </g>
            </g>
            <g id="Annotation" transform="translate(0.000000, 56.000000)" font-family="SourceSansPro-Semibold, Source Sans Pro" font-size="14" font-weight="500">
                <g id="Group">
                    <text id="Annotation">
                        <tspan x="0" y="14">Annotation</tspan>
                    </text>
                </g>
            </g>
        </g>
    </g>
</svg>