<?xml version="1.0" encoding="UTF-8"?>
<svg width="21px" height="17px" viewBox="0 0 21 17" version="1.1" xmlns="http://www.w3.org/2000/svg" xmlns:xlink="http://www.w3.org/1999/xlink">
    <title>annotation</title>
    <g id="Page-1" stroke="none" stroke-width="1" fill="none" fill-rule="evenodd">
        <g id="Group" transform="translate(-67.000000, -8.000000)">
            <g id="annotation" transform="translate(68.000000, 9.000000)">
                <path d="M18.4818182,11.8518519 C18.4818182,12.6700741 17.6483726,13.3333333 16.620202,13.3333333 L3.58888889,13.3333333 C2.56071828,13.3333333 1.72727273,12.6700741 1.72727273,11.8518519 L1.72727273,1.48148148 C1.72727273,0.663259259 2.56071828,0 3.58888889,0 L16.620202,0 C17.6483726,0 18.4818182,0.663259259 18.4818182,1.48148148 L18.4818182,11.8518519 Z" id="Path" stroke="#747272" stroke-width="1.2" fill-opacity="0" fill="#FFFFFF" stroke-dasharray="2.5,1"></path>
                <polygon id="Path" stroke="#5F5F5F" stroke-width="0.7" fill="#5F5F5F" stroke-linecap="round" stroke-linejoin="bevel" points="8.79338827 9.0666666 5.49586767 9.0666666 5.49586767 5.33333333 3.2975206 5.33333333 3.2975206 9.0666666 9.20475817e-15 9.0666666 9.20475817e-15 11.5555554 3.2975206 11.5555554 3.2975206 15.2888887 5.49586767 15.2888887 5.49586767 11.5555554 8.79338827 11.5555554"></polygon>
            </g>
        </g>
    </g>
</svg>