<?xml version="1.0" encoding="utf-8"?>
<!-- Generator: Adobe Illustrator 19.2.0, SVG Export Plug-In . SVG Version: 6.00 Build 0)  -->
<svg version="1.1" id="Layer_1" xmlns="http://www.w3.org/2000/svg" xmlns:xlink="http://www.w3.org/1999/xlink" x="0px" y="0px"
	 viewBox="0 0 32 32" style="enable-background:new 0 0 32 32;" xml:space="preserve">
<style type="text/css">
	.st0{fill:#231F20;}
	.st1{stroke:#000000;}
	.st2{fill:none;stroke:#333333;stroke-miterlimit:10;}
	.st3{fill:#FFFFFF;stroke:#E6E6E6;stroke-miterlimit:10;}
	.st4{fill:#FFFFFF;stroke:#FFFFFF;stroke-miterlimit:10;}
	.st5{fill:#FFFFFF;}
</style>
<symbol  id="Actors_new_2" viewBox="-5.5 -13 11 26">
	<path id="Layer_x25_2012_2_" d="M-5.5,0.2c-0.1-1,0.3-3.7,1-4.3c3-0.3-1-8.6,4.5-8.9c6.1,0,1.9,8.6,4.5,8.9c0.9,0.1,1,3.3,1,4.3
		c0,3-0.7,5.5-5.5,5.5C-5,5.7-5.3,3.2-5.5,0.2z M-3.1,9.9c0-1.7,1.4-3.1,3.1-3.1s3.1,1.4,3.1,3.1S1.7,13,0,13S-3.1,11.6-3.1,9.9z"/>
</symbol>
<symbol  id="Concept_icon" viewBox="-10.1 -11 20.2 22">
	<path class="st0" d="M10.1,11V-7.3L8.3-9.2V9.2H-5.5l-1.8-1.8H6.4V-11h-16.5V7.8l3.2,3.2H10.1z"/>
</symbol>
<symbol  id="FC_Place" viewBox="-8.5 -12.5 17 25">
	<path d="M-8.5,4c0-4.7,6.2-12,8.5-16.5C2.3-8.1,8.5-0.7,8.5,4S4.7,12.5,0,12.5S-8.5,8.7-8.5,4z M4.7,4.2c0-2.6-2.1-4.7-4.7-4.7
		s-4.7,2.1-4.7,4.7S-2.6,8.9,0,8.9S4.7,6.8,4.7,4.2z"/>
</symbol>
<symbol  id="FC_Thing" viewBox="-8 -8 16 16">
	<g id="Layer_x25_201_1_">
		<path id="Ellipse_1_" class="st1" d="M-7.5,0c0,4.1,3.4,7.5,7.5,7.5S7.5,4.1,7.5,0S4.1-7.5,0-7.5S-7.5-4.1-7.5,0z"/>
	</g>
</symbol>
<symbol  id="FC_Time" viewBox="-12 -12.1 24 24.1">
	<path d="M-10.2,4.6c0,1.4,0.6,2.1,1.8,2.2V5.6c0-0.7,0.2-1.2,1.1-1.2c0.7,0,1.1,0.2,1.1,1.2v1.2h2.4V5.6c0-1,0.4-1.2,1.1-1.2
		s1.1,0.2,1.1,1.2v1.2h2.5V5.6c0-0.8,0.4-1.2,1.1-1.2s1.1,0.4,1.1,1.2v1.2h2.8V5.6C5.9,5,6.2,4.4,7,4.4c0.7,0,1.1,0.3,1.1,1.2v1.2
		C9.3,6.7,9.9,6,9.9,4.6V-5c0-1.5-0.7-2.2-2.1-2.2H-8.1c-1.4,0-2.1,0.7-2.1,2.2L-10.2,4.6z M-12,5.7V-8.6c0-2.1,1.4-3.5,3.3-3.5H8.7
		c1.9,0,3.3,1.4,3.3,3.5V5.7c0,2.1-1.4,3.5-3.3,3.5H8.4v1.6c0,1-0.4,1.2-1.1,1.2c-0.8,0-1.1-0.4-1.1-1.2V9.2H3.4v1.6
		c0,1-0.4,1.2-1.1,1.2c-0.8,0-1.1-0.4-1.1-1.2V9.2h-2.5v1.6c0,1-0.4,1.2-1.1,1.2c-0.8,0-1.1-0.4-1.1-1.2V9.2h-2.4v1.6
		c0,1-0.4,1.2-1.1,1.2s-1.1-0.4-1.1-1.2V9.2h-0.3C-10.6,9.2-12,7.8-12,5.7z"/>
	<line class="st2" x1="-7.4" y1="0.6" x2="7.6" y2="0.6"/>
	<line class="st2" x1="-7.4" y1="-2.4" x2="7.6" y2="-2.4"/>
</symbol>
<use xlink:href="#Actors_new_2"  width="11" height="26" x="-5.5" y="-13" transform="matrix(0.9233 0 0 -0.9233 16.0461 -36.0001)" style="overflow:visible;"/>
<use xlink:href="#FC_Thing"  width="16" height="16" x="-8" y="-8" transform="matrix(1 0 0 -1 67.9996 -36)" style="overflow:visible;"/>
<use xlink:href="#FC_Place"  width="17" height="25" x="-8.5" y="-12.5" transform="matrix(0.92 0 0 -0.92 120.2085 -35.7783)" style="overflow:visible;"/>
<use xlink:href="#FC_Time"  width="24" height="24.1" x="-12" y="-12.1" transform="matrix(0.9544 0 0 -0.9544 172.0008 -35.8977)" style="overflow:visible;"/>
<g>
	<path class="st0" d="M233.2-31h0.4c0.3,0,0.5,0.1,0.6,0.3s0.3,0.5,0.3,0.7s-0.1,0.6-0.3,0.8c-0.2,0.3-0.4,0.5-0.6,0.5
		c-0.3,0.1-0.7,0.3-1.3,0.5c-0.6,0.2-1.7,0.5-3.4,0.7c-1.7,0.3-3.4,0.5-5,0.5s-3.3-0.1-4.9-0.4c-1.7-0.3-2.8-0.5-3.6-0.8l-1.2-0.4
		c-0.3-0.1-0.5-0.3-0.6-0.6c-0.2-0.3-0.3-0.5-0.3-0.8s0.1-0.6,0.3-0.7c0.2-0.2,0.4-0.3,0.6-0.3h0.4l2.4-3.5l1.3-6.6
		c0.2-1,0.7-1.9,1.6-2.8c0.8-0.8,1.7-1.4,2.9-1.7l-0.3-0.6c-0.1-0.3-0.1-0.5,0.1-0.6c0.1-0.2,0.3-0.3,0.5-0.3h1.9
		c0.3,0,0.5,0.1,0.6,0.2c0.1,0.2,0.2,0.4,0.1,0.5l-0.4,0.7c1.1,0.3,2.1,0.8,2.9,1.6c0.8,0.8,1.3,1.8,1.6,2.8l1.3,6.6L233.2-31z"/>
	<path class="st0" d="M224-27.1c-0.7,0-1.4,0-2.1-0.1c0.2,0.6,0.5,1.2,0.8,1.6c0.4,0.4,0.8,0.6,1.3,0.6s0.9-0.2,1.3-0.6
		c0.4-0.4,0.6-0.9,0.8-1.6C225.4-27.1,224.7-27.1,224-27.1z"/>
</g>
<use xlink:href="#Concept_icon"  width="20.2" height="22" id="XMLID_1_" x="-10.1" y="-11" transform="matrix(1 0 0 -1 276 -35.9998)" style="overflow:visible;"/>
<path class="st0" d="M332.9-40.2l3.5,3.5c0.1,0.1,0.1,0.1,0.1,0.2c0,0.1,0,0.1-0.1,0.2l-1.3,1.3C335-35,335-35,334.9-35
	c-0.1,0-0.1,0-0.2-0.1l-3.5-3.5c-0.9,0.6-1.9,0.9-3.1,0.9c-1.6,0-2.9-0.6-4-1.7c-1.1-1.1-1.7-2.4-1.7-4c0-1.6,0.6-2.9,1.7-4
	c1.1-1.1,2.4-1.7,4-1.7c1.6,0,2.9,0.6,4,1.7c1.1,1.1,1.7,2.4,1.7,4C333.8-42.2,333.5-41.2,332.9-40.2z M325.4-46
	c-0.8,0.8-1.1,1.7-1.1,2.7c0,1.1,0.4,2,1.1,2.7c0.8,0.8,1.7,1.1,2.7,1.1c1.1,0,2-0.4,2.7-1.1c0.8-0.8,1.1-1.7,1.1-2.7
	c0-1.1-0.4-2-1.1-2.7c-0.8-0.8-1.7-1.1-2.7-1.1C327.1-47.2,326.1-46.8,325.4-46z"/>
<text transform="matrix(1 0 0 1 320.2156 -25.3975)" style="font-family:'KohinoorBangla-Semibold'; font-size:11px;">text</text>
<g id="Clipboard">
	<g>
		<g>
			<polygon class="st0" points="391,-46 388,-46 388,-42 399,-42 399,-46 396,-46 396,-48 391,-48 			"/>
			<polygon class="st0" points="387,-44 387,-40 400,-40 400,-44 404,-44 404,-23 383,-23 383,-44 			"/>
		</g>
		<path class="st3" d="M388.5-35.5h10.1H388.5z"/>
		<path class="st4" d="M388.5-31.5h10.1H388.5z"/>
		<path class="st3" d="M388.5-27.5h10.1H388.5z"/>
	</g>
	<g>
		<g>
			<polygon class="st0" points="382,6 379,6 379,10 390,10 390,6 387,6 387,4 382,4 			"/>
			<polygon class="st0" points="378,8 378,12 391,12 391,8 395,8 395,29 374,29 374,8 			"/>
		</g>
		<path class="st3" d="M379.5,16.5h10.1H379.5z"/>
		<path class="st4" d="M379.5,20.5h10.1H379.5z"/>
		<path class="st3" d="M379.5,24.5h10.1H379.5z"/>
	</g>
	<g>
		<g>
			<polygon class="st0" points="452,-47 449,-47 449,-43 460,-43 460,-47 457,-47 457,-49 452,-49 			"/>
			<polygon class="st0" points="448,-45 448,-41 461,-41 461,-45 465,-45 465,-24 444,-24 444,-45 			"/>
		</g>
		<path class="st3" d="M450-36.5h10.1H450z"/>
		<path class="st4" d="M450-32.5h10.1H450z"/>
	</g>
	<polygon class="st5" points="470.2,-21.5 470.5,-28.5 460.6,-38.7 450,-28 456.7,-28 456.7,-21.5 463.7,-21.5 	"/>
	<polygon class="st0" points="462.8,-29.3 467.5,-29.3 460.5,-36.3 453.5,-29.3 458.2,-29.3 458.2,-22.3 462.8,-22.3 	"/>
</g>
<path class="st5" d="M379.6-41l12,9l-12,9"/>
<path class="st0" d="M380.4-26v-4c-0.8,0-1.7,0.1-2.4,0.3c-0.8,0.2-1.5,0.4-2.3,0.7c-0.7,0.3-1.4,0.7-2,1.2c-0.6,0.5-1,1.1-1.3,1.8
	c0.1-1.2,0.2-2.2,0.5-3.2c0.3-0.9,0.8-1.8,1.4-2.6c0.6-0.8,1.4-1.4,2.5-1.8c1-0.5,2.2-0.7,3.6-0.8V-38l8,6L380.4-26z"/>
<g>
	<path class="st0" d="M4.9,4.6h20.5c0.6,0,1,0.2,1.4,0.6c0.4,0.4,0.6,0.9,0.6,1.4v12.3c0,0.6-0.2,1-0.6,1.4
		c-0.4,0.4-0.9,0.6-1.4,0.6H13.2l-6.2,6.1V21h-2c-0.6,0-1-0.2-1.4-0.6C3,20,2.8,19.5,2.8,18.9V6.6c0-0.6,0.2-1,0.6-1.4
		C3.8,4.8,4.3,4.6,4.9,4.6z"/>
	<g>
		<g>
			<path class="st0" d="M22,23.4l-8,0c-0.5,0-1-0.2-1.4-0.7c-0.3-0.4-0.5-0.9-0.5-1.5l0-10c0-0.6,0.2-1.1,0.5-1.5
				C13.1,9.2,13.5,9,14,9l13.8,0c0.5,0,1,0.2,1.4,0.7c0.3,0.4,0.5,0.9,0.5,1.5l0,10c0,0.6-0.2,1.1-0.5,1.5c-0.4,0.4-0.8,0.7-1.4,0.7
				l-0.9,0l0,5.9L22,23.4z"/>
		</g>
		<g>
			<path class="st5" d="M14,9.5C14.1,9.5,14.1,9.5,14,9.5l13.8,0c0.4,0,0.7,0.2,1,0.5c0.3,0.3,0.4,0.7,0.4,1.2l0,10
				c0,0.5-0.1,0.9-0.4,1.2c-0.3,0.3-0.6,0.5-1,0.5c0,0,0,0,0,0l-1.4,0l0,5l-4.2-5l-8.2,0c-0.4,0-0.7-0.2-1-0.5
				c-0.3-0.3-0.4-0.7-0.4-1.2l0-10c0-0.5,0.1-0.9,0.4-1.2C13.4,9.6,13.7,9.5,14,9.5 M14.1,8.5L14.1,8.5L14.1,8.5L14.1,8.5
				c-0.7,0-1.3,0.3-1.7,0.9c-0.4,0.5-0.6,1.1-0.6,1.8l0,10c0,0.7,0.2,1.3,0.6,1.8c0.5,0.6,1.1,0.9,1.7,0.9l7.7,0l3.9,4.7l1.8,2.1
				l0-2.8l0-4l0.4,0c0.7,0,1.3-0.3,1.7-0.9c0.4-0.5,0.6-1.1,0.6-1.8l0-10c0-0.7-0.2-1.3-0.6-1.8c-0.5-0.6-1.1-0.9-1.7-0.9L14.1,8.5
				L14.1,8.5z"/>
		</g>
	</g>
</g>
<path class="st0" d="M57.6,5.2H78c0.6,0,1,0.2,1.4,0.6c0.4,0.4,0.6,0.9,0.6,1.4v12.3c0,0.6-0.2,1-0.6,1.4c-0.4,0.4-0.9,0.6-1.4,0.6
	H65.8l-6.2,6.1v-6.1h-2c-0.6,0-1-0.2-1.4-0.6c-0.4-0.4-0.6-0.9-0.6-1.4V7.3c0-0.6,0.2-1,0.6-1.4C56.5,5.4,57,5.2,57.6,5.2z"/>
<path class="st5" d="M68.9,8.7l-0.3,6.2H67l-0.3-6.2H68.9z M68.8,16.5v1.7h-1.9v-1.7H68.8z"/>
</svg>
