<?xml version="1.0" encoding="UTF-8"?>
<svg width="56px" height="62px" viewBox="0 0 56 62" version="1.1" xmlns="http://www.w3.org/2000/svg" xmlns:xlink="http://www.w3.org/1999/xlink">
    <!-- Generator: Sketch 62 (91390) - https://sketch.com -->
    <title>assertion_no-image</title>
    <desc>Created with Sketch.</desc>
    <g id="Page-1" stroke="none" stroke-width="1" fill="none" fill-rule="evenodd">
        <g id="assertion_no-image">
            <g id="assertion" transform="translate(8.000000, 0.000000)" fill-rule="nonzero">
                <path d="M3.36065574,0 L37.6393443,0 C38.647541,0 39.3196721,0.330357143 39.9918033,0.991071432 C40.6639344,1.65178571 41,2.47767857 41,3.30357143 L41,23.6205357 C41,24.6116071 40.6639344,25.2723214 39.9918033,25.9330357 C39.3196721,26.59375 38.4795082,26.9241071 37.6393443,26.9241071 L17.1393443,26.9241071 L6.72131149,37 L6.72131149,26.9241071 L3.36065574,26.9241071 C2.35245902,26.9241071 1.68032787,26.59375 1.00819672,25.9330357 C0.336065574,25.2723214 0,24.4464286 0,23.6205357 L0,3.46875 C0,2.47767857 0.336065574,1.81696429 1.00819672,1.15625 C1.51229508,0.330357143 2.35245902,0 3.36065574,0 Z" id="Path" fill="#9289B7"></path>
                <path d="M23,5 L22.3181818,16.7692308 L18.6818182,16.7692308 L18,5 L23,5 Z M22.375,19.3846154 L22.375,22 L18.625,22 L18.625,19.3846154 L22.375,19.3846154 Z" id="Shape" fill="#FFFFFF"></path>
            </g>
            <text id="Assertion" fill="#9289B7" font-family="SourceSansPro-Semibold, Source Sans Pro" font-size="14" font-weight="500">
                <tspan x="0" y="61">Assertion</tspan>
            </text>
        </g>
    </g>
</svg>