<?xml version="1.0" encoding="utf-8"?>
<!-- Generator: Adobe Illustrator 19.2.0, SVG Export Plug-In . SVG Version: 6.00 Build 0)  -->
<svg version="1.1" id="Layer_1" xmlns="http://www.w3.org/2000/svg" xmlns:xlink="http://www.w3.org/1999/xlink" x="0px" y="0px"
	 viewBox="0 0 32 32" style="enable-background:new 0 0 32 32;" xml:space="preserve">
<style type="text/css">
	.st0{fill:#231F20;}
	.st1{stroke:#000000;}
	.st2{fill:none;stroke:#333333;stroke-miterlimit:10;}
	.st3{fill:#FFFFFF;stroke:#FFFFFF;stroke-miterlimit:10;}
	.st4{fill:#FFFFFF;stroke:#E6E6E6;stroke-miterlimit:10;}
	.st5{fill:#FFFFFF;}
</style>
<symbol  id="Actors_new_2" viewBox="-5.5 -13 11 26">
	<path id="Layer_x25_2012_2_" d="M-5.5,0.2c-0.1-1,0.3-3.7,1-4.3c3-0.3-1-8.6,4.5-8.9c6.1,0,1.9,8.6,4.5,8.9c0.9,0.1,1,3.3,1,4.3
		c0,3-0.7,5.5-5.5,5.5C-5,5.7-5.3,3.2-5.5,0.2z M-3.1,9.9c0-1.7,1.4-3.1,3.1-3.1s3.1,1.4,3.1,3.1S1.7,13,0,13S-3.1,11.6-3.1,9.9z"/>
</symbol>
<symbol  id="Concept_icon" viewBox="-10.1 -11 20.2 22">
	<path class="st0" d="M10.1,11V-7.3L8.3-9.2V9.2H-5.5l-1.8-1.8H6.4V-11h-16.5V7.8l3.2,3.2H10.1z"/>
</symbol>
<symbol  id="FC_Place" viewBox="-8.5 -12.5 17 25">
	<path d="M-8.5,4c0-4.7,6.2-12,8.5-16.5C2.3-8.1,8.5-0.7,8.5,4S4.7,12.5,0,12.5S-8.5,8.7-8.5,4z M4.7,4.2c0-2.6-2.1-4.7-4.7-4.7
		s-4.7,2.1-4.7,4.7S-2.6,8.9,0,8.9S4.7,6.8,4.7,4.2z"/>
</symbol>
<symbol  id="FC_Thing" viewBox="-8 -8 16 16">
	<g id="Layer_x25_201_1_">
		<path id="Ellipse_1_" class="st1" d="M-7.5,0c0,4.1,3.4,7.5,7.5,7.5S7.5,4.1,7.5,0S4.1-7.5,0-7.5S-7.5-4.1-7.5,0z"/>
	</g>
</symbol>
<symbol  id="FC_Time" viewBox="-12 -12.1 24 24.1">
	<path d="M-10.2,4.6c0,1.4,0.6,2.1,1.8,2.2V5.6c0-0.7,0.2-1.2,1.1-1.2c0.7,0,1.1,0.2,1.1,1.2v1.2h2.4V5.6c0-1,0.4-1.2,1.1-1.2
		s1.1,0.2,1.1,1.2v1.2h2.5V5.6c0-0.8,0.4-1.2,1.1-1.2s1.1,0.4,1.1,1.2v1.2h2.8V5.6C5.9,5,6.2,4.4,7,4.4c0.7,0,1.1,0.3,1.1,1.2v1.2
		C9.3,6.7,9.9,6,9.9,4.6V-5c0-1.5-0.7-2.2-2.1-2.2H-8.1c-1.4,0-2.1,0.7-2.1,2.2L-10.2,4.6z M-12,5.7V-8.6c0-2.1,1.4-3.5,3.3-3.5H8.7
		c1.9,0,3.3,1.4,3.3,3.5V5.7c0,2.1-1.4,3.5-3.3,3.5H8.4v1.6c0,1-0.4,1.2-1.1,1.2c-0.8,0-1.1-0.4-1.1-1.2V9.2H3.4v1.6
		c0,1-0.4,1.2-1.1,1.2c-0.8,0-1.1-0.4-1.1-1.2V9.2h-2.5v1.6c0,1-0.4,1.2-1.1,1.2c-0.8,0-1.1-0.4-1.1-1.2V9.2h-2.4v1.6
		c0,1-0.4,1.2-1.1,1.2s-1.1-0.4-1.1-1.2V9.2h-0.3C-10.6,9.2-12,7.8-12,5.7z"/>
	<line class="st2" x1="-7.4" y1="0.6" x2="7.6" y2="0.6"/>
	<line class="st2" x1="-7.4" y1="-2.4" x2="7.6" y2="-2.4"/>
</symbol>
<use xlink:href="#Actors_new_2"  width="11" height="26" x="-5.5" y="-13" transform="matrix(0.9233 0 0 -0.9233 -351.9539 -25.0001)" style="overflow:visible;"/>
<use xlink:href="#FC_Thing"  width="16" height="16" x="-8" y="-8" transform="matrix(1 0 0 -1 -300.0004 -25)" style="overflow:visible;"/>
<use xlink:href="#FC_Place"  width="17" height="25" x="-8.5" y="-12.5" transform="matrix(0.92 0 0 -0.92 -247.7915 -24.7783)" style="overflow:visible;"/>
<use xlink:href="#FC_Time"  width="24" height="24.1" x="-12" y="-12.1" transform="matrix(0.9544 0 0 -0.9544 -195.9992 -24.8977)" style="overflow:visible;"/>
<g>
	<path class="st0" d="M-134.8-20h0.4c0.3,0,0.5,0.1,0.6,0.3s0.3,0.5,0.3,0.7s-0.1,0.6-0.3,0.8c-0.2,0.3-0.4,0.5-0.6,0.5
		c-0.3,0.1-0.7,0.3-1.3,0.5c-0.6,0.2-1.7,0.5-3.4,0.7c-1.7,0.3-3.4,0.5-5,0.5s-3.3-0.1-4.9-0.4c-1.7-0.3-2.8-0.5-3.6-0.8l-1.2-0.4
		c-0.3-0.1-0.5-0.3-0.6-0.6c-0.2-0.3-0.3-0.5-0.3-0.8s0.1-0.6,0.3-0.7c0.2-0.2,0.4-0.3,0.6-0.3h0.4l2.4-3.5l1.3-6.6
		c0.2-1,0.7-1.9,1.6-2.8c0.8-0.8,1.7-1.4,2.9-1.7l-0.3-0.6c-0.1-0.3-0.1-0.5,0.1-0.6c0.1-0.2,0.3-0.3,0.5-0.3h1.9
		c0.3,0,0.5,0.1,0.6,0.2c0.1,0.2,0.2,0.4,0.1,0.5l-0.4,0.7c1.1,0.3,2.1,0.8,2.9,1.6c0.8,0.8,1.3,1.8,1.6,2.8l1.3,6.6L-134.8-20z"/>
	<path class="st0" d="M-144-16.1c-0.7,0-1.4,0-2.1-0.1c0.2,0.6,0.5,1.2,0.8,1.6c0.4,0.4,0.8,0.6,1.3,0.6s0.9-0.2,1.3-0.6
		c0.4-0.4,0.6-0.9,0.8-1.6C-142.6-16.1-143.3-16.1-144-16.1z"/>
</g>
<use xlink:href="#Concept_icon"  width="20.2" height="22" id="XMLID_1_" x="-10.1" y="-11" transform="matrix(1 0 0 -1 -92 -24.9998)" style="overflow:visible;"/>
<path class="st0" d="M-35.1-29.2l3.5,3.5c0.1,0.1,0.1,0.1,0.1,0.2c0,0.1,0,0.1-0.1,0.2l-1.3,1.3C-33-24-33-24-33.1-24
	c-0.1,0-0.1,0-0.2-0.1l-3.5-3.5c-0.9,0.6-1.9,0.9-3.1,0.9c-1.6,0-2.9-0.6-4-1.7c-1.1-1.1-1.7-2.4-1.7-4c0-1.6,0.6-2.9,1.7-4
	c1.1-1.1,2.4-1.7,4-1.7c1.6,0,2.9,0.6,4,1.7c1.1,1.1,1.7,2.4,1.7,4C-34.2-31.2-34.5-30.2-35.1-29.2z M-42.6-35
	c-0.8,0.8-1.1,1.7-1.1,2.7c0,1.1,0.4,2,1.1,2.7c0.8,0.8,1.7,1.1,2.7,1.1c1.1,0,2-0.4,2.7-1.1c0.8-0.8,1.1-1.7,1.1-2.7
	c0-1.1-0.4-2-1.1-2.7c-0.8-0.8-1.7-1.1-2.7-1.1C-40.9-36.2-41.9-35.8-42.6-35z"/>
<text transform="matrix(1 0 0 1 -47.7844 -14.3975)" style="font-family:'KohinoorBangla-Semibold'; font-size:11px;">text</text>
<g id="Clipboard">
	<g>
		<g>
			<polygon class="st0" points="23,-35 20,-35 20,-31 31,-31 31,-35 28,-35 28,-37 23,-37 			"/>
			<polygon class="st0" points="19,-33 19,-29 32,-29 32,-33 36,-33 36,-12 15,-12 15,-33 			"/>
		</g>
		<path class="st3" d="M20.5-24.5h10.1H20.5z"/>
		<path class="st3" d="M20.5-20.5h10.1H20.5z"/>
		<path class="st3" d="M20.5-16.5h10.1H20.5z"/>
	</g>
	<g>
		<g>
			<polygon class="st0" points="14,6 11,6 11,10 22,10 22,6 19,6 19,4 14,4 			"/>
			<polygon class="st0" points="10,8 10,12 23,12 23,8 27,8 27,29 6,29 6,8 			"/>
		</g>
		<path class="st3" d="M11.5,16.5h10.1H11.5z"/>
		<path class="st3" d="M11.5,20.5h10.1H11.5z"/>
		<path class="st3" d="M11.5,24.5h10.1H11.5z"/>
	</g>
	<g>
		<g>
			<polygon class="st0" points="84,-36 81,-36 81,-32 92,-32 92,-36 89,-36 89,-38 84,-38 			"/>
			<polygon class="st0" points="80,-34 80,-30 93,-30 93,-34 97,-34 97,-13 76,-13 76,-34 			"/>
		</g>
		<path class="st4" d="M82-25.5h10.1H82z"/>
		<path class="st3" d="M82-21.5h10.1H82z"/>
	</g>
	<polygon class="st5" points="102.2,-10.5 102.5,-17.5 92.6,-27.7 82,-17 88.7,-17 88.7,-10.5 95.7,-10.5 	"/>
	<polygon class="st0" points="94.8,-18.3 99.5,-18.3 92.5,-25.3 85.5,-18.3 90.2,-18.3 90.2,-11.3 94.8,-11.3 	"/>
</g>
<path class="st5" d="M11.6-30l12,9l-12,9"/>
<path class="st0" d="M12.4-15v-4c-0.8,0-1.7,0.1-2.4,0.3c-0.8,0.2-1.5,0.4-2.3,0.7c-0.7,0.3-1.4,0.7-2,1.2c-0.6,0.5-1,1.1-1.3,1.8
	c0.1-1.2,0.2-2.2,0.5-3.2c0.3-0.9,0.8-1.8,1.4-2.6s1.4-1.4,2.5-1.8c1-0.5,2.2-0.7,3.6-0.8V-27l8,6L12.4-15z"/>
</svg>
