<?xml version="1.0" encoding="UTF-8"?>
<svg width="50px" height="59px" viewBox="0 0 50 59" version="1.1" xmlns="http://www.w3.org/2000/svg" xmlns:xlink="http://www.w3.org/1999/xlink">
    <title>concept_no-image</title>
    <g id="Page-1" stroke="none" stroke-width="1" fill="none" fill-rule="evenodd">
        <g id="concept_no-image" fill="#857C70">
            <g id="Layer-1" transform="translate(16.000000, 14.000000)" fill-rule="nonzero">
                <path d="M3.709375,1.853125 C3.709375,2.878125 2.878125,3.709375 1.853125,3.709375 C0.83125,3.709375 1.11022302e-15,2.878125 1.11022302e-15,1.853125 C1.11022302e-15,0.83125 0.83125,8.8817842e-16 1.853125,8.8817842e-16 C2.878125,8.8817842e-16 3.709375,0.83125 3.709375,1.853125" id="Path"></path>
                <path d="M10.7125,1.853125 C10.7125,2.878125 9.88125,3.709375 8.85625,3.709375 C7.83125,3.709375 7,2.878125 7,1.853125 C7,0.83125 7.83125,0 8.85625,0 C9.88125,0 10.7125,0.83125 10.7125,1.853125" id="Path"></path>
                <path d="M17.7125,1.853125 C17.7125,2.878125 16.88125,3.709375 15.85625,3.709375 C14.83125,3.709375 14,2.878125 14,1.853125 C14,0.83125 14.83125,0 15.85625,0 C16.88125,0 17.7125,0.83125 17.7125,1.853125" id="Path"></path>
            </g>
            <g id="Concep" transform="translate(0.000000, 39.875000)" font-family="SourceSansPro-Semibold, Source Sans Pro" font-size="14" font-weight="500">
                <g id="Group">
                    <text id="Concept">
                        <tspan x="0" y="14.125">Concept</tspan>
                    </text>
                </g>
            </g>
            <path d="M36.4866492,2.28853871 C28.1966492,-1.72146129 14.6266492,-0.571461293 8.26664915,6.60853871 C2.10664915,13.5685387 5.18664915,22.7585387 13.0966492,26.6785387 C13.0966492,26.6785387 12.2766492,28.1985387 11.7366492,28.9685387 C10.7215115,30.393439 9.33917974,31.5165835 7.73664915,32.2185387 C7.05664915,32.5285387 7.00664915,33.2185387 7.88664915,33.2885387 C12.2366492,33.5285387 17.6966492,33.3785387 21.0566492,30.1385387 L21.0566492,30.1385387 C28.6166492,33.1385387 39.4166492,28.5085387 43.2566492,21.6385387 C47.3766492,14.1885387 43.8666492,5.85853871 36.4866492,2.28853871 Z M39.7466492,23.4885387 C35.4066492,28.4885387 28.1666492,30.0885387 21.7466492,28.9285387 C21.3046186,28.8170444 20.8703575,28.6767447 20.4466492,28.5085387 C20.2794321,28.4751603 20.1079851,28.5414012 20.0066492,28.6785387 C18.3666492,30.6785387 13.7766492,31.7585387 10.7066492,32.0585387 C12.5583829,30.3699125 14.1133461,28.3822638 15.3066492,26.1785387 C15.4014462,25.9878618 15.3257744,25.7563949 15.1366492,25.6585387 L15.1366492,25.6585387 C14.6122239,25.4331547 14.1155973,25.1479299 13.6566492,24.8085387 C9.65664915,22.1485387 6.12664915,18.9485387 7.23664915,13.5485387 C8.09956427,9.93639842 10.515606,6.89072163 13.8366492,5.22853871 C20.0512174,2.12816533 27.2377095,1.60355141 33.8366492,3.76853871 C42.2566492,6.79853871 46.1666492,16.1085387 39.7466492,23.4885387 Z" id="Shape" fill-rule="nonzero"></path>
        </g>
    </g>
</svg>