<?xml version="1.0" encoding="utf-8"?>
<!-- Generator: Adobe Illustrator 19.2.0, SVG Export Plug-In . SVG Version: 6.00 Build 0)  -->
<svg version="1.1" id="Livello_1" xmlns="http://www.w3.org/2000/svg" xmlns:xlink="http://www.w3.org/1999/xlink" x="0px" y="0px"
	 viewBox="0 0 95 87.7" style="enable-background:new 0 0 95 87.7;" xml:space="preserve">
<style type="text/css">
	.st0{fill:#FFFFFF;}
</style>
<g>
	<path class="st0" d="M70.8,43.9c0-9.2-7.5-16.7-16.7-16.7s-16.7,7.5-16.7,16.7c0,9.2,7.5,16.7,16.7,16.7S70.8,53.2,70.8,43.9z
		 M60.9,54.2H47.2c-1.4,0-2.5-1.1-2.5-2.5l0.9-3.6c0-1.4,1.1-2.5,2.5-2.5h3.1c-2-1-3.4-3.1-3.4-5.6c0-3.5,2.8-6.3,6.3-6.3
		c3.5,0,6.3,2.8,6.3,6.3c0,2.4-1.4,4.5-3.4,5.6h3.1c1.4,0,2.5,1.1,2.5,2.5l0.9,3.6C63.5,53,62.3,54.2,60.9,54.2z"/>
	<path class="st0" d="M70,36.4l5.1-2.8c2.2,2.5,5.9,3.3,8.9,1.6c3.5-1.9,4.8-6.3,2.9-9.8c-1.9-3.5-6.3-4.8-9.8-2.9
		c-3,1.6-4.4,5.2-3.5,8.4l-5.2,2.8C69.1,34.6,69.6,35.5,70,36.4z"/>
	<path class="st0" d="M82.4,43c-3.3-1.1-6.8,0.3-8.5,3.2l-2.3-0.7c-0.1,1.1-0.3,2.1-0.5,3.1l1.9,0.6c-0.3,3.3,1.7,6.5,4.9,7.6
		c3.8,1.2,7.9-0.8,9.1-4.6C88.2,48.3,86.2,44.2,82.4,43z"/>
	<path class="st0" d="M71.1,66.1l-5.4-8.9c-0.8,0.7-1.6,1.3-2.5,1.8l5.2,8.7c-3.7,3.1-4.6,8.4-2.1,12.6c2.8,4.7,8.9,6.2,13.5,3.4
		c4.7-2.8,6.2-8.9,3.4-13.5C80.7,66,75.5,64.3,71.1,66.1z"/>
	<path class="st0" d="M52.5,18.3v8c0.5,0,1-0.1,1.5-0.1s1,0,1.5,0.1v-8c3.2-0.7,5.7-3.6,5.7-7.1c0-4-3.2-7.2-7.2-7.2
		s-7.2,3.2-7.2,7.2C46.9,14.7,49.3,17.6,52.5,18.3z"/>
	<path class="st0" d="M42.1,56.8l-5.4,5.8c-2.9-1.7-6.6-1.2-9,1.3c-2.7,2.9-2.6,7.5,0.4,10.2c2.9,2.7,7.5,2.6,10.2-0.4
		c2.4-2.5,2.5-6.3,0.7-9l5.6-6C43.6,58.1,42.8,57.5,42.1,56.8z"/>
	<path class="st0" d="M37.4,38.2l-10.8-3.4c0.7-4.7-2.1-9.3-6.7-10.8c-5.1-1.6-10.7,1.2-12.3,6.3S8.8,41,13.9,42.7
		c4.6,1.5,9.6-0.7,11.7-4.9l11,3.5C36.8,40.2,37.1,39.2,37.4,38.2z"/>
</g>
</svg>
