<?xml version="1.0" encoding="utf-8"?>
<!-- Generator: Adobe Illustrator 19.2.0, SVG Export Plug-In . SVG Version: 6.00 Build 0)  -->
<svg version="1.1" id="Livello_1" xmlns="http://www.w3.org/2000/svg" xmlns:xlink="http://www.w3.org/1999/xlink" x="0px" y="0px"
	 viewBox="0 0 85 50.4" style="enable-background:new 0 0 85 50.4;" xml:space="preserve">
<style type="text/css">
	.st0{fill:#FFFFFF;}
</style>
<path class="st0" d="M82.1,32.4c-1.7-5-6.4-8.4-11.7-8.4c-1.3,0-2.7,0.2-4,0.7c-3.1,1.1-5.6,3.3-7.1,6.2c-0.8,1.6-1.2,3.2-1.3,4.9
	l-37.2,1.9c-0.1-0.4-0.2-0.7-0.3-1c-0.2-0.5-0.4-1-0.7-1.5L35.6,23c1.3,1,3,1.6,4.7,1.6c0.8,0,1.7-0.1,2.5-0.4c2-0.7,3.5-2,4.4-3.9
	c0.9-1.8,1.1-3.9,0.4-5.9c-1.1-3.1-4-5.2-7.3-5.2c-0.8,0-1.7,0.1-2.5,0.4c-1.8,0.6-3.3,1.8-4.2,3.4l-7.2-4.2
	c0.4-1.2,0.5-2.5,0.1-3.7c-0.8-2.3-2.9-3.9-5.4-3.9c-0.6,0-1.2,0.1-1.8,0.3C17.9,2,16.7,3,16,4.4c-0.7,1.4-0.8,2.9-0.3,4.3
	c0.8,2.3,2.9,3.9,5.4,3.9c0.6,0,1.2-0.1,1.8-0.3c1-0.3,1.8-0.9,2.5-1.7l7.4,4.3c-0.4,1.5-0.4,3,0.1,4.5c0.2,0.5,0.4,0.9,0.6,1.3
	L18.1,32.8c-1.7-1.6-4-2.5-6.4-2.5c-1,0-2,0.2-3,0.5c-4.9,1.7-7.5,7-5.9,11.9c1.3,3.8,4.9,6.4,8.9,6.4c1,0,2-0.2,3-0.5
	c2.4-0.8,4.3-2.5,5.4-4.7c0.5-1,0.8-2.1,0.9-3.1l37.4-2c0.1,0.5,0.2,1,0.4,1.5c1.7,5,6.4,8.4,11.7,8.4c1.3,0,2.7-0.2,4-0.7
	C80.8,45.8,84.3,38.8,82.1,32.4z M35.3,14.4c0.7-1.4,1.8-2.4,3.3-2.9c0.6-0.2,1.2-0.3,1.8-0.3c2.5,0,4.6,1.6,5.4,3.9
	c0.5,1.4,0.4,3-0.3,4.4s-1.8,2.4-3.3,2.9c-0.6,0.2-1.2,0.3-1.8,0.3c-2.4,0-4.6-1.6-5.4-3.9C34.5,17.3,34.6,15.7,35.3,14.4z
	 M22.4,10.4c-0.4,0.1-0.8,0.2-1.2,0.2c-1.6,0-3-1-3.5-2.5c-0.3-0.9-0.2-1.9,0.2-2.8s1.2-1.5,2.1-1.9c0.4-0.1,0.8-0.2,1.2-0.2
	c1.6,0,3,1,3.5,2.5c0.3,0.9,0.2,1.9-0.2,2.8C24.1,9.4,23.3,10.1,22.4,10.4z M18.3,42.9c-0.9,1.8-2.4,3.1-4.3,3.7
	c-0.8,0.3-1.6,0.4-2.4,0.4c-3.2,0-6-2-7-5c-1.3-3.9,0.8-8.1,4.6-9.4c0.8-0.3,1.6-0.4,2.4-0.4c3.2,0,6,2,7,5
	C19.4,39.2,19.2,41.2,18.3,42.9z M73.7,46.1c-1.1,0.4-2.2,0.5-3.3,0.5c-4.4,0-8.3-2.8-9.8-7c-0.9-2.6-0.7-5.4,0.5-7.9
	s3.3-4.3,5.9-5.2c1.1-0.4,2.2-0.5,3.3-0.5c4.4,0,8.3,2.8,9.8,7C82,38.4,79.1,44.3,73.7,46.1z"/>
</svg>
