<?xml version="1.0" encoding="UTF-8"?>
<svg width="98px" height="78px" viewBox="0 0 98 78" version="1.1" xmlns="http://www.w3.org/2000/svg" xmlns:xlink="http://www.w3.org/1999/xlink">
    <title>diagram_no-image</title>
    <g id="Page-1" stroke="none" stroke-width="1" fill="none" fill-rule="evenodd">
        <g id="diagram_no-image" fill="#506B9B">
            <g id="diagram" transform="translate(21.000000, 0.000000)" fill-rule="nonzero">
                <path d="M38,24 C38,18.491018 33.508982,14 28,14 C22.491018,14 18,18.491018 18,24 C18,29.508982 22.491018,34 28,34 C33.508982,34 38,29.508982 38,24 Z M32.0718563,30.1077844 L23.8682635,30.1077844 C23.0299401,30.1077844 22.3712575,29.4491018 22.3712575,28.6107784 L22.9101797,26.4550898 C22.9101797,25.6167664 23.5688623,24.9580838 24.4071856,24.9580838 L26.2634731,24.9580838 C25.0658683,24.3592815 24.2275449,23.1017964 24.2275449,21.6047904 C24.2275449,19.508982 25.9041916,17.8323354 28,17.8323354 C30.0958084,17.8323354 31.7724551,19.508982 31.7724551,21.6047904 C31.7724551,23.0419162 30.9341317,24.2994012 29.7365269,24.9580838 L31.5928144,24.9580838 C32.4311377,24.9580838 33.0898203,25.6167664 33.0898203,26.4550898 L33.6287425,28.6107784 C33.5688623,29.4491018 32.9101797,30.1077844 32.0718563,30.1077844 Z" id="Shape"></path>
                <path d="M37.9910052,19 L41.149834,17.2943318 C42.5124661,18.8172498 44.8041654,19.3045836 46.6623001,18.2689994 C48.8301237,17.1115817 49.6353154,14.4312461 48.4584968,12.2991608 C47.2816782,10.1670757 44.5564141,9.37515833 42.3885904,10.532576 C40.5304557,11.5072435 39.6633263,13.7002454 40.2207667,15.6495805 L37,17.3552485 C37.3716269,17.9034991 37.7432538,18.4517495 37.9910052,19 Z" id="Path"></path>
                <path d="M44.9386384,23.2320502 C42.9123104,22.5503149 40.7631747,23.4179779 39.7193087,25.2152798 L38.3070194,24.7814483 C38.2456156,25.4631835 38.1228078,26.0829427 38,26.702702 L39.1666738,27.0745575 C38.9824621,29.1197631 40.2105397,31.1029927 42.1754639,31.784728 C44.5088113,32.528439 47.0263704,31.2889206 47.763217,28.9338353 C48.5614674,26.5167742 47.271986,23.9757612 44.9386384,23.2320502 Z" id="Path"></path>
                <path d="M38.7972729,37.4213853 L35.5181243,32 C35.0323246,32.4264011 34.5465248,32.7918877 34,33.0964599 L37.1576986,38.3960163 C34.9108746,40.284364 34.3643498,43.5128293 35.8824742,46.0712359 C37.5827735,48.9342146 41.2869968,49.8479313 44.0803455,48.1423269 C46.9344192,46.4367225 47.8452939,42.7209416 46.1449946,39.9188773 C44.6268702,37.2995564 41.4691717,36.3249254 38.7972729,37.4213853 Z" id="Path"></path>
                <path d="M27.5625,8.97757848 L27.5625,14 C27.8749999,14 28.1875,13.9372197 28.5,13.9372197 C28.8125,13.9372197 29.1250001,13.9372197 29.4375,14 L29.4375,8.97757848 C31.4375,8.53811659 33,6.71748879 33,4.52017938 C33,2.00896861 31,0 28.5,0 C26,0 24,2.00896861 24,4.52017938 C24,6.71748879 25.5625,8.53811659 27.5625,8.97757848 Z" id="Path"></path>
                <path d="M22.4077797,32 L18.9685836,35.6171604 C17.121608,34.5569583 14.7651218,34.8687824 13.2365903,36.4279032 C11.5169922,38.2364834 11.580681,41.1052658 13.4913455,42.7891163 C15.3383211,44.4729669 18.2680067,44.410602 19.9876046,42.5396569 C21.5161363,40.9805361 21.5798251,38.6106725 20.4334263,36.9268219 L24,33.1849318 C23.4268007,32.8107428 22.9172902,32.4365539 22.4077797,32 Z" id="Path"></path>
                <path d="M18,21.0112821 L11.5735297,18.9252735 C11.9900602,16.0416735 10.3239382,13.2194267 7.58673784,12.2991288 C4.49251135,11.2561244 1.21977182,13.0353671 0.267702133,16.1643799 C-0.684367551,19.2933927 0.981754397,22.7291714 4.01647651,23.7108225 C6.75367686,24.6311204 9.72889462,23.2813503 10.9784861,20.7045162 L17.5239651,22.8518779 C17.6429739,22.2383459 17.7619826,21.6248141 18,21.0112821 Z" id="Path"></path>
            </g>
            <g id="Group" transform="translate(0.000000, 60.000000)" font-family="SourceSansPro-Semibold, Source Sans Pro" font-size="14" font-weight="500">
                <g id="Knowledge-Map">
                    <text>
                        <tspan x="1.218" y="14">Knowledge Map</tspan>
                    </text>
                </g>
            </g>
        </g>
    </g>
</svg>