<?xml version="1.0" encoding="UTF-8"?>
<svg width="59px" height="59px" viewBox="0 0 59 59" version="1.1" xmlns="http://www.w3.org/2000/svg" xmlns:xlink="http://www.w3.org/1999/xlink">
    <title>Group 2</title>
    <g id="Page-1" stroke="none" stroke-width="1" fill="none" fill-rule="evenodd">
        <g id="noun" fill="#FFFFFF" fill-rule="nonzero">
            <g id="Group-2">
                <path d="M47,29.5 C47,22.6137725 41.3862275,17 34.5,17 C27.6137725,17 22,22.6137725 22,29.5 C22,36.3862275 27.6137725,42 34.5,42 C41.3862275,42 47,36.3862275 47,29.5 Z M39.5898204,37.1347305 L29.3353293,37.1347305 C28.2874251,37.1347305 27.4640719,36.3113772 27.4640719,35.2634731 L28.1377246,32.5688623 C28.1377246,31.5209581 28.9610778,30.6976048 30.008982,30.6976048 L32.3293413,30.6976048 C30.8323353,29.9491018 29.7844311,28.3772455 29.7844311,26.505988 C29.7844311,23.8862275 31.8802395,21.7904192 34.5,21.7904192 C37.1197605,21.7904192 39.2155689,23.8862275 39.2155689,26.505988 C39.2155689,28.3023952 38.1676647,29.8742515 36.6706587,30.6976048 L38.991018,30.6976048 C40.0389222,30.6976048 40.8622754,31.5209581 40.8622754,32.5688623 L41.5359281,35.2634731 C41.4610778,36.3113772 40.6377246,37.1347305 39.5898204,37.1347305 Z" id="Shape"></path>
                <path d="M47.0735889,24 L50.4956535,22.1048132 C51.9718382,23.7969443 54.4545125,24.3384262 56.4674917,23.1877771 C58.8159674,21.9017574 59.6882584,18.9236067 58.4133716,16.5546232 C57.1384848,14.1856396 54.1861153,13.3057315 51.8376396,14.5917511 C49.8246604,15.674715 48.8852701,18.1113838 49.4891639,20.2773116 L46,22.1724984 C46.4025958,22.7816656 46.8051917,23.3908328 47.0735889,24 Z" id="Path"></path>
                <path d="M54.6325023,29.2578335 C52.4035415,28.5003499 50.0394921,29.4644199 48.8912395,31.461422 L47.3377213,30.979387 C47.2701771,31.7368705 47.1350885,32.4254919 47,33.1141133 L48.2833411,33.5272862 C48.0807083,35.7997368 49.4315937,38.0033253 51.5930103,38.7608088 C54.1596925,39.5871545 56.9290075,38.2099117 57.7395387,35.5931504 C58.6176142,32.9075269 57.1991846,30.0841792 54.6325023,29.2578335 Z" id="Path"></path>
                <path d="M46.5353149,45.3781003 L42.7516819,39 C42.1911437,39.5016483 41.6306055,39.9316326 41,40.2899529 L44.6434984,46.5247251 C42.0510091,48.7463106 41.4204037,52.5445052 43.1720856,55.5543952 C45.1339693,58.9226055 49.4080732,59.9975662 52.6311679,57.9909728 C55.9243299,55.9843795 56.9753391,51.6128725 55.0134553,48.3163263 C53.2617734,45.2347722 49.618275,44.0881474 46.5353149,45.3781003 Z" id="Path"></path>
                <path d="M32.9583333,10.2600897 L32.9583333,16 C33.3055556,16 33.6527778,15.9282511 34,15.9282511 C34.3472222,15.9282511 34.6944444,15.9282511 35.0416667,16 L35.0416667,10.2600897 C37.2638889,9.75784753 39,7.67713004 39,5.16591928 C39,2.29596413 36.7777778,0 34,0 C31.2222222,0 29,2.29596413 29,5.16591928 C29,7.67713004 30.7361111,9.75784753 32.9583333,10.2600897 Z" id="Path"></path>
                <path d="M24.2750946,39 L20.5492989,42.9185904 C18.5484086,41.7700381 15.9955486,42.1078476 14.3396394,43.7968952 C12.4767416,45.7561904 12.5457378,48.864038 14.6156243,50.6882094 C16.6165146,52.5123808 19.7903405,52.4448189 21.6532384,50.4179617 C23.3091476,48.7289142 23.3781438,46.1615618 22.1362119,44.3373904 L26,40.2836762 C25.3790341,39.8783047 24.8270643,39.4729333 24.2750946,39 Z" id="Path"></path>
                <path d="M22,23.7622222 L14.1454251,21.5023796 C14.6545179,18.3784796 12.6181467,15.3210455 9.27267957,14.3240562 C5.49084721,13.1941349 1.49083222,15.1216477 0.327191496,18.5114115 C-0.836449229,21.9011754 1.19992204,25.6232691 4.90902685,26.6867244 C8.25449394,27.6837138 11.8908712,26.2214627 13.4181497,23.4298924 L21.4181796,25.756201 C21.5636347,25.0915414 21.7090898,24.4268818 22,23.7622222 Z" id="Path"></path>
            </g>
        </g>
    </g>
</svg>