<?xml version="1.0" encoding="UTF-8"?>
<svg width="54px" height="64px" viewBox="0 0 54 64" version="1.1" xmlns="http://www.w3.org/2000/svg" xmlns:xlink="http://www.w3.org/1999/xlink">
    <!-- Generator: Sketch 60 (88103) - https://sketch.com -->
    <title>drag and drop</title>
    <desc>Created with Sketch.</desc>
    <g id="Page-1" stroke="none" stroke-width="1" fill="none" fill-rule="evenodd">
        <g id="drag-and-drop" transform="translate(-69.000000, -2.000000)">
            <path d="M70,3 L74,3 L70,3 Z" id="Path" stroke="#1D0A6E" stroke-linecap="round" stroke-linejoin="round"></path>
            <path d="M78,3 L82,3 L78,3 Z" id="Path" stroke="#1D0A6E" stroke-linecap="round" stroke-linejoin="round"></path>
            <path d="M87,3 L91,3 L87,3 Z" id="Path" stroke="#1D0A6E" stroke-linecap="round" stroke-linejoin="round"></path>
            <path d="M95,3 L99,3 L95,3 Z" id="Path" stroke="#1D0A6E" stroke-linecap="round" stroke-linejoin="round"></path>
            <path d="M107.5,11 L107.5,15 L107.5,11 Z" id="Path" stroke="#1D0A6E" stroke-linecap="round" stroke-linejoin="round"></path>
            <path d="M107.5,19 L107.5,23 L107.5,19 Z" id="Path" stroke="#1D0A6E" stroke-linecap="round" stroke-linejoin="round"></path>
            <path d="M107.5,27 L107.5,31 L107.5,27 Z" id="Path" stroke="#1D0A6E" stroke-linecap="round" stroke-linejoin="round"></path>
            <path d="M107.5,35 L107.5,39 L107.5,35 Z" id="Path" stroke="#1D0A6E" stroke-linecap="round" stroke-linejoin="round"></path>
            <path d="M107.5,43 L107.5,47 L107.5,43 Z" id="Path" stroke="#1D0A6E" stroke-linecap="round" stroke-linejoin="round"></path>
            <path d="M107.5,51 L107.5,55 L107.5,51 Z" id="Path" stroke="#1D0A6E" stroke-linecap="round" stroke-linejoin="round"></path>
            <path d="M108,54.5 L104,54.5 L108,54.5 Z" id="Path" stroke="#1D0A6E" stroke-linecap="round" stroke-linejoin="round"></path>
            <path d="M99,55 L95,55 L99,55 Z" id="Path" stroke="#1D0A6E" stroke-linecap="round" stroke-linejoin="round"></path>
            <path d="M91,55 L87,55 L91,55 Z" id="Path" stroke="#1D0A6E" stroke-linecap="round" stroke-linejoin="round"></path>
            <path d="M82,55 L78,55 L82,55 Z" id="Path" stroke="#1D0A6E" stroke-linecap="round" stroke-linejoin="round"></path>
            <path d="M74,55 L70,55 L74,55 Z" id="Path" stroke="#1D0A6E" stroke-linecap="round" stroke-linejoin="round"></path>
            <path d="M69.5,55 L69.5,51 L69.5,55 Z" id="Path" stroke="#1D0A6E" stroke-linecap="round" stroke-linejoin="round"></path>
            <path d="M69.5,47 L69.5,43 L69.5,47 Z" id="Path" stroke="#1D0A6E" stroke-linecap="round" stroke-linejoin="round"></path>
            <path d="M69.5,39 L69.5,35 L69.5,39 Z" id="Path" stroke="#1D0A6E" stroke-linecap="round" stroke-linejoin="round"></path>
            <path d="M69.5,31 L69.5,27 L69.5,31 Z" id="Path" stroke="#1D0A6E" stroke-linecap="round" stroke-linejoin="round"></path>
            <path d="M69.5,23 L69.5,19 L69.5,23 Z" id="Path" stroke="#1D0A6E" stroke-linecap="round" stroke-linejoin="round"></path>
            <path d="M69.5,15 L69.5,11 L69.5,15 Z" id="Path" stroke="#1D0A6E" stroke-linecap="round" stroke-linejoin="round"></path>
            <path d="M69.5,7 L69.5,3 L69.5,7 Z" id="Path" stroke="#1D0A6E" stroke-linecap="round" stroke-linejoin="round"></path>
            <polygon id="Path" stroke="#1D0A6E" stroke-linecap="round" stroke-linejoin="round" points="108 11 99 11 99 3"></polygon>
            <path d="M122.971899,47.6045758 C122.858392,47.1449304 122.512159,46.7784745 122.059689,46.6390858 L107.897079,42.4042858 L96.7107895,39.0550758 L100.079999,56.1407758 L102.983099,65.0565258 C103.128713,65.4909478 103.484715,65.8218704 103.928599,65.9354158 C104.033088,65.9618082 104.14043,65.9753658 104.248199,65.9753658 C104.592997,65.9737686 104.924129,65.8403664 105.173739,65.6024958 L110.766899,60.2291158 L115.787399,65.2496158 C116.308173,65.7689569 117.150996,65.7689569 117.671769,65.2496158 L121.933189,60.9881558 C122.184535,60.7376834 122.325888,60.3974949 122.326059,60.0426558 C122.327089,59.6895328 122.185412,59.3509713 121.933189,59.1038258 L117.045869,54.2098258 L122.599039,48.8763558 C122.94093,48.5490727 123.082952,48.0646528 122.971899,47.6045758 Z" id="Path" fill="#1D0A6E" fill-rule="nonzero"></path>
            <path d="M96.7107895,39.0550758 C96.2360309,38.9141814 95.7223001,39.0483398 95.3770513,39.4033753 C95.0318025,39.7584108 94.9120529,40.27569 95.0661595,40.7463258 L100.116855,56.1407758 L105.233709,41.6052258 L96.7107895,39.0550758 Z" id="Path" fill="#1D0A6E" fill-rule="nonzero"></path>
            <path d="M101.471941,17.9987709 C101.472302,18.2637745 101.36719,18.5180283 101.179804,18.7054143 C100.992418,18.8928003 100.738164,18.9979125 100.47316,18.9975518 L77.0019403,18.9975518 C76.4515659,18.9958094 76.0063207,18.5491531 76.0063207,17.9987759 C76.0063207,17.4483987 76.4515659,17.0017424 77.0019403,17 L100.47317,17 C100.73817,16.999642 100.99242,17.104754 101.179804,17.2921376 C101.367187,17.4795211 101.472299,17.7337708 101.471941,17.9987709 Z" id="Path" fill="#1D0A6E" fill-rule="nonzero"></path>
            <path d="M101.471941,23.8328509 C101.472294,24.0978521 101.367179,24.3521012 101.179795,24.5394855 C100.992411,24.7268698 100.738162,24.8319845 100.47316,24.8316359 L77.0019403,24.8316359 C76.6443596,24.8327624 76.3134562,24.6426448 76.1343384,24.333158 C75.9552205,24.0236711 75.9552205,23.6420407 76.1343384,23.3325539 C76.3134562,23.0230671 76.6443596,22.8329495 77.0019403,22.8340759 L100.47317,22.8340759 C100.73817,22.833722 100.99242,22.938834 101.179804,23.1262176 C101.367187,23.3136011 101.472299,23.5678508 101.471941,23.8328509 Z" id="Path" fill="#1D0A6E" fill-rule="nonzero"></path>
            <path d="M101.471941,28.6735509 C101.472302,28.9385545 101.36719,29.1928083 101.179804,29.3801943 C100.992418,29.5675803 100.738164,29.6726925 100.47316,29.6723318 L77.0019403,29.6723318 C76.4515659,29.6705894 76.0063207,29.2239331 76.0063207,28.6735559 C76.0063207,28.1231787 76.4515659,27.6765224 77.0019403,27.67478 L100.47317,27.67478 C100.738168,27.67443 100.992413,27.7795445 101.179795,27.9669264 C101.367177,28.1543082 101.472291,28.4085532 101.471941,28.6735509 L101.471941,28.6735509 Z" id="Path" fill="#1D0A6E" fill-rule="nonzero"></path>
        </g>
    </g>
</svg>