<?xml version="1.0" encoding="UTF-8"?>
<svg width="60px" height="58px" viewBox="0 0 60 58" version="1.1" xmlns="http://www.w3.org/2000/svg" xmlns:xlink="http://www.w3.org/1999/xlink">
    <title>Group</title>
    <g id="Page-1" stroke="none" stroke-width="1" fill="none" fill-rule="evenodd">
        <g id="Group" transform="translate(0.000000, 1.000000)">
            <rect id="Rectangle" stroke="#1D0A6E" x="35" y="0" width="24" height="12"></rect>
            <g id="Group-3" transform="translate(0.000000, 13.000000)" fill="#1D0A6E" fill-rule="nonzero">
                <g id="Group-2">
                    <path d="M3.27064132,12.0714286 L2.49126344,12.0714286 C2.27265745,12.0714286 2.0952381,12.2794286 2.0952381,12.5357143 C2.0952381,12.792 2.27265745,13 2.49126344,13 L3.27064132,13 C3.49003936,13 3.66666667,12.792 3.66666667,12.5357143 C3.66666667,12.2794286 3.48924731,12.0714286 3.27064132,12.0714286 Z" id="Path"></path>
                    <path d="M3.27064132,1.76201646e-14 L2.49126344,1.76201646e-14 C2.27265745,1.76201646e-14 2.0952381,0.208 2.0952381,0.464285714 C2.0952381,0.720571429 2.27265745,0.928571429 2.49126344,0.928571429 L3.27064132,0.928571429 C3.49003936,0.928571429 3.66666667,0.720571429 3.66666667,0.464285714 C3.66666667,0.208 3.48924731,1.76201646e-14 3.27064132,1.76201646e-14 Z" id="Path"></path>
                    <path d="M9.95984148,11.8323209 C9.81744667,11.9561947 9.65470973,12.0272542 9.48790438,12.0397376 C9.30007883,12.0541415 9.15700595,12.2807634 9.16717701,12.5448356 C9.17666999,12.8012257 9.32584552,13 9.50553421,13 C9.51163685,13 9.51773948,13 9.52384212,12.9990397 C9.80252912,12.977914 10.0757915,12.8578812 10.3137943,12.6514247 C10.473819,12.5121867 10.5239962,12.2164259 10.426354,11.9907642 C10.3280338,11.7641423 10.1171539,11.6950034 9.95984148,11.8323209 Z" id="Path"></path>
                    <path d="M1.05507958,11.8323209 C0.912684763,11.9561947 0.74994783,12.0272542 0.583142474,12.0397376 C0.39531693,12.0541415 0.252244043,12.2807634 0.262415101,12.5448356 C0.271908089,12.8012257 0.421083611,13 0.600772308,13 C0.606874943,13 0.612977578,13 0.619080213,12.9990397 C0.897767211,12.977914 1.17102964,12.8578812 1.40903241,12.6514247 C1.56905706,12.5121867 1.61923428,12.2164259 1.52159212,11.9907642 C1.42327189,11.7641423 1.21239195,11.6950034 1.05507958,11.8323209 Z" id="Path" transform="translate(0.916667, 12.380952) scale(-1, 1) translate(-0.916667, -12.380952) "></path>
                    <path d="M10.6071429,1.54761905 C10.3902857,1.54761905 10.2142857,1.75729647 10.2142857,2.015649 L10.2142857,2.93673195 C10.2142857,3.19508449 10.3902857,3.4047619 10.6071429,3.4047619 C10.824,3.4047619 11,3.19602055 11,2.93673195 L11,2.015649 C11,1.75729647 10.824,1.54761905 10.6071429,1.54761905 Z" id="Path"></path>
                    <path d="M10.6071429,9.28571429 C10.3902857,9.28571429 10.2142857,9.49539171 10.2142857,9.75374424 L10.2142857,10.6748272 C10.2142857,10.9331797 10.3902857,11.1428571 10.6071429,11.1428571 C10.824,11.1428571 11,10.9341158 11,10.6748272 L11,9.75374424 C11,9.49539171 10.824,9.28571429 10.6071429,9.28571429 Z" id="Path"></path>
                    <path d="M9.4432431,0.856107762 C9.61090418,0.900283184 9.76878504,0.996429692 9.90011955,1.13501925 C9.96648539,1.20431403 10.046823,1.23809524 10.126462,1.23809524 C10.2256615,1.23809524 10.3234638,1.18612415 10.3933226,1.08651291 C10.5176712,0.903747923 10.5002065,0.630899726 10.3535031,0.475852655 C10.1334479,0.244581326 9.86938168,0.0826047772 9.58924796,0.00897907318 C9.40551936,-0.0386610883 9.21480488,0.107724135 9.17428678,0.342460203 C9.13446727,0.576330087 9.25462438,0.805869046 9.4432431,0.856107762 Z" id="Path"></path>
                    <path d="M5.62778418,12.0714286 L4.8484063,12.0714286 C4.62980031,12.0714286 4.45238095,12.2794286 4.45238095,12.5357143 C4.45238095,12.792 4.62980031,13 4.8484063,13 L5.62778418,13 C5.84718222,13 6.02380952,12.792 6.02380952,12.5357143 C6.02380952,12.2794286 5.84639017,12.0714286 5.62778418,12.0714286 Z" id="Path"></path>
                    <path d="M5.62778418,1.76201646e-14 L4.8484063,1.76201646e-14 C4.62980031,1.76201646e-14 4.45238095,0.208 4.45238095,0.464285714 C4.45238095,0.720571429 4.62980031,0.928571429 4.8484063,0.928571429 L5.62778418,0.928571429 C5.84718222,0.928571429 6.02380952,0.720571429 6.02380952,0.464285714 C6.02380952,0.208 5.84639017,1.76201646e-14 5.62778418,1.76201646e-14 Z" id="Path"></path>
                    <path d="M10.6071429,6.80952381 C10.3902857,6.80952381 10.2142857,7.0190956 10.2142857,7.27731798 L10.2142857,8.1988725 C10.2142857,8.45709488 10.3902857,8.66666667 10.6071429,8.66666667 C10.824,8.66666667 11,8.45709488 11,8.19793691 L11,7.27731798 C11,7.0190956 10.824,6.80952381 10.6071429,6.80952381 Z" id="Path"></path>
                    <path d="M7.98492704,12.0714286 L7.20554916,12.0714286 C6.98694316,12.0714286 6.80952381,12.2794286 6.80952381,12.5357143 C6.80952381,12.792 6.98694316,13 7.20554916,13 L7.98492704,13 C8.20353303,13 8.38095238,12.792 8.38095238,12.5357143 C8.38095238,12.2794286 8.20353303,12.0714286 7.98492704,12.0714286 Z" id="Path"></path>
                    <path d="M10.6071429,4.02380952 C10.3902857,4.02380952 10.2142857,4.23348694 10.2142857,4.49183948 L10.2142857,5.41292243 C10.2142857,5.67127496 10.3902857,5.88095238 10.6071429,5.88095238 C10.824,5.88095238 11,5.67127496 11,5.41292243 L11,4.49183948 C11,4.23348694 10.824,4.02380952 10.6071429,4.02380952 Z" id="Path"></path>
                    <path d="M0.392857143,1.54761905 C0.176,1.54761905 -2.67452727e-14,1.75729647 -2.67452727e-14,2.015649 L-2.67452727e-14,2.93673195 C-2.67452727e-14,3.19508449 0.176,3.4047619 0.392857143,3.4047619 C0.609714286,3.4047619 0.785714286,3.19602055 0.785714286,2.93673195 L0.785714286,2.015649 C0.785714286,1.75729647 0.609714286,1.54761905 0.392857143,1.54761905 Z" id="Path" transform="translate(0.392857, 2.476190) scale(-1, 1) translate(-0.392857, -2.476190) "></path>
                    <path d="M0.392857143,9.28571429 C0.176,9.28571429 -2.67452727e-14,9.49539171 -2.67452727e-14,9.75374424 L-2.67452727e-14,10.6748272 C-2.67452727e-14,10.9331797 0.176,11.1428571 0.392857143,11.1428571 C0.609714286,11.1428571 0.785714286,10.9341158 0.785714286,10.6748272 L0.785714286,9.75374424 C0.785714286,9.49539171 0.609714286,9.28571429 0.392857143,9.28571429 Z" id="Path" transform="translate(0.392857, 10.214286) scale(-1, 1) translate(-0.392857, -10.214286) "></path>
                    <path d="M0.800385958,0.856107762 C0.96804704,0.900283184 1.12592789,0.996429692 1.25726241,1.13501925 C1.32362825,1.20431403 1.40396585,1.23809524 1.48360487,1.23809524 C1.58280434,1.23809524 1.68060664,1.18612415 1.75046542,1.08651291 C1.87481406,0.903747923 1.85734936,0.630899726 1.71064592,0.475852655 C1.49059075,0.244581326 1.22652454,0.0826047772 0.946390817,0.00897907318 C0.762662214,-0.0386610883 0.571947733,0.107724135 0.531429638,0.342460203 C0.491610131,0.576330087 0.61176724,0.805869046 0.800385958,0.856107762 Z" id="Path" transform="translate(1.178571, 0.619048) scale(-1, 1) translate(-1.178571, -0.619048) "></path>
                    <path d="M0.392857143,6.80952381 C0.176,6.80952381 -2.67452727e-14,7.0190956 -2.67452727e-14,7.27731798 L-2.67452727e-14,8.1988725 C-2.67452727e-14,8.45709488 0.176,8.66666667 0.392857143,8.66666667 C0.609714286,8.66666667 0.785714286,8.45709488 0.785714286,8.19793691 L0.785714286,7.27731798 C0.785714286,7.0190956 0.609714286,6.80952381 0.392857143,6.80952381 Z" id="Path" transform="translate(0.392857, 7.738095) scale(-1, 1) translate(-0.392857, -7.738095) "></path>
                    <path d="M0.392857143,4.02380952 C0.176,4.02380952 -2.67452727e-14,4.23348694 -2.67452727e-14,4.49183948 L-2.67452727e-14,5.41292243 C-2.67452727e-14,5.67127496 0.176,5.88095238 0.392857143,5.88095238 C0.609714286,5.88095238 0.785714286,5.67127496 0.785714286,5.41292243 L0.785714286,4.49183948 C0.785714286,4.23348694 0.609714286,4.02380952 0.392857143,4.02380952 Z" id="Path" transform="translate(0.392857, 4.952381) scale(-1, 1) translate(-0.392857, -4.952381) "></path>
                    <path d="M7.98492704,1.76201646e-14 L7.20554916,1.76201646e-14 C6.98694316,1.76201646e-14 6.80952381,0.208 6.80952381,0.464285714 C6.80952381,0.720571429 6.98694316,0.928571429 7.20554916,0.928571429 L7.98492704,0.928571429 C8.20353303,0.928571429 8.38095238,0.720571429 8.38095238,0.464285714 C8.38095238,0.208 8.20353303,1.76201646e-14 7.98492704,1.76201646e-14 Z" id="Path"></path>
                </g>
            </g>
            <path d="M35.0265344,49 L26.5803303,49 C22.3289542,49 18.8692491,45.5721093 18.8692491,41.3598275 L18.8692491,38.3156432 L16.1360993,35.6076265 C14.6213002,34.106757 14.6213002,31.6635996 16.1360993,30.1627302 C16.71186,29.5905662 17.4384152,29.2204423 18.2283726,29.0897104 C17.2139371,27.5939344 17.3732994,25.5429725 18.7064597,24.2203738 C19.9128155,23.0251112 21.7206356,22.7840214 23.1703188,23.488615 C23.2731332,22.6685699 23.6432651,21.8773876 24.2755738,21.2491956 C25.7441063,19.7924694 28.1088379,19.750024 29.6322048,21.1184638 C29.776145,20.3697268 30.1428497,19.6787157 30.7014747,19.1269254 C32.2162738,17.6243582 34.6821061,17.6243582 36.1969052,19.1269254 L44.7202202,27.5718628 C46.83477,29.6669679 48,32.4530841 48,35.4174711 C48,38.381858 46.83477,41.1679743 44.7202202,43.2630793 L41.6906221,46.2648182 C39.9102191,48.0288492 37.543774,49 35.0265344,49 Z M20.7957587,40.6015787 L20.7957587,41.96821 C20.7957587,45.2943113 23.4338027,48 26.6767484,48 L34.958862,48 C36.9785619,48 38.8772814,47.1934635 40.3055218,45.7286002 L43.2762617,42.6816846 C45.0321571,40.8807644 46,38.4835588 46,35.93642 C46,33.3892813 45.0321571,30.9920756 43.2762617,29.1911554 L34.9185353,20.6191202 C34.1136798,19.7936266 32.712324,19.7936266 31.9057883,20.6191202 C31.0757286,21.4704642 31.0757286,22.8577759 31.9057883,23.70912 L32.3107364,24.1244518 C32.4754041,24.293342 32.5560577,24.5139331 32.5560577,24.7345243 C32.5560577,24.9551155 32.4737239,25.1757067 32.3107364,25.3445968 C31.9830813,25.6806536 31.4504317,25.6806536 31.1227765,25.3445968 L28.6174749,22.7750542 C27.7874153,21.9237102 26.4347876,21.9237102 25.604728,22.7750542 C25.2031404,23.1869393 24.9813431,23.7366939 24.9813431,24.3191925 C24.9813431,24.9016911 25.2031404,25.4514456 25.604728,25.8633307 L28.1100295,28.4328733 C28.2746973,28.6017634 28.3553508,28.8223546 28.3553508,29.0429457 C28.3553508,29.2635369 28.2746973,29.4841281 28.1100295,29.6530182 C27.7823744,29.9890751 27.2497248,29.9890751 26.9220696,29.6530182 L23.156556,25.7892259 C22.3264963,24.9378818 20.9738687,24.9378818 20.143809,25.7892259 C19.3137493,26.6405699 19.3137493,28.0278816 20.143809,28.8792257 L23.9093227,32.7412947 C24.0739904,32.9101848 24.154644,33.130776 24.154644,33.3513672 C24.154644,33.5719583 24.0723101,33.7925495 23.9093227,33.9614396 C23.5816675,34.2974965 23.0490179,34.2974965 22.7213628,33.9614396 L20.6361319,31.8227392 C19.8312764,30.9972457 18.4299206,30.9972457 17.6233849,31.8227392 C17.2217973,32.2346243 17,32.7843789 17,33.3668775 C17,33.949376 17.2217973,34.4991306 17.6233849,34.9110157 L23.9093227,41.3581375 C24.0739904,41.5270277 24.154644,41.7476188 24.154644,41.96821 C24.154644,42.1888012 24.0723101,42.4093924 23.9093227,42.5782825 C23.5816675,42.9143393 23.0490179,42.9143393 22.7213628,42.5782825 L20.7957587,40.6015787 Z" id="Shape" fill="#1D0A6E" fill-rule="nonzero" transform="translate(31.500000, 33.500000) rotate(47.000000) translate(-31.500000, -33.500000) "></path>
            <path d="M9.84113896,9.81007845 C9.84113896,9.81007845 9.84113896,9.81007845 9.90067143,9.75054597 C9.96020391,9.6910135 10.0197364,9.63148102 10.1388013,9.57194855 C10.3173988,9.4528836 10.6150611,9.21475369 11.0317885,9.03615626 C11.8057107,8.61942893 12.8772952,8.02410418 14.2465422,7.48831189 C14.9609319,7.25018199 15.6753216,6.95251961 16.5087762,6.77392219 C17.3422309,6.53579228 18.1756856,6.35719485 19.0686727,6.2381299 C19.9616598,6.11906495 20.9141795,6 21.8666991,6 C22.8192187,6 23.7717383,6 24.7242579,6.11906495 C25.6767775,6.2381299 26.6292971,6.41672733 27.5222843,6.59532476 C27.9985441,6.71438971 28.4152714,6.83345466 28.8319987,6.95251961 C29.2487261,7.07158456 29.6654534,7.25018199 30.0821807,7.42877942 C30.9156354,7.78597427 31.6895576,8.08363665 32.4039473,8.50036398 C32.7611421,8.67896141 33.118337,8.85755884 33.4159994,9.03615626 C33.7136617,9.21475369 34.0708566,9.39335112 34.368519,9.57194855 C34.9638437,9.9291434 35.499636,10.2863383 35.9163633,10.6435331 C36.3926232,11.000728 36.749818,11.2388579 37.0474804,11.5365202 C37.6428051,12.0723125 38,12.3104424 38,12.3104424 C38,12.3104424 37.6428051,12.0723125 36.9284154,11.6555852 C36.5712206,11.4174553 36.1544933,11.1793254 35.6782334,10.9411955 C35.2019736,10.6435331 34.6066489,10.4054032 34.0113241,10.1077408 C33.7136617,9.9291434 33.3564669,9.81007845 33.0588045,9.6910135 C32.7016097,9.57194855 32.4039473,9.39335112 31.9872199,9.27428617 C31.2728302,8.97662379 30.4989081,8.73849389 29.6654534,8.55989646 C29.2487261,8.44083151 28.8319987,8.38129903 28.4152714,8.26223408 C27.9985441,8.2027016 27.5818167,8.08363665 27.1055569,8.08363665 C26.2125698,7.9645717 25.3791151,7.90503922 24.486128,7.9645717 C23.5931409,7.9645717 22.7596862,8.02410418 21.8666991,8.14316913 C21.0332444,8.26223408 20.1997897,8.44083151 19.4258676,8.67896141 C18.6519454,8.91709131 17.9375557,9.15522122 17.223166,9.4528836 C16.5683087,9.75054597 15.9134515,10.0482084 15.3776592,10.3458707 C14.2465422,10.9411955 13.353555,11.5365202 12.8177627,12.0127801 C12.5201004,12.25091 12.3415029,12.4295074 12.1629055,12.5485723 C12.103373,12.6081048 12.0438406,12.6676373 12.0438406,12.6676373 C11.9843081,12.7271698 11.9843081,12.7271698 11.9843081,12.7271698 C11.2699184,13.382027 10.1388013,13.382027 9.4839441,12.6676373 C8.82908687,11.9532476 8.82908687,10.8221305 9.54347658,10.1672733 C9.722074,9.9291434 9.78160648,9.86961093 9.84113896,9.81007845 Z" id="Path" fill="#1D0A6E" fill-rule="nonzero" transform="translate(23.500000, 9.605557) scale(-1, 1) rotate(24.000000) translate(-23.500000, -9.605557) "></path>
        </g>
    </g>
</svg>