<?xml version="1.0" encoding="UTF-8"?>
<svg width="32px" height="33px" viewBox="0 0 32 33" version="1.1" xmlns="http://www.w3.org/2000/svg" xmlns:xlink="http://www.w3.org/1999/xlink">
    <title>Shape</title>
    <g id="Page-1" stroke="none" stroke-width="1" fill="none" fill-rule="evenodd">
        <g id="Group" transform="translate(-14.000000, -17.000000)" fill="#1D0A6E" fill-rule="nonzero">
            <path d="M35.0265344,49 L26.5803303,49 C22.3289542,49 18.8692491,45.5721093 18.8692491,41.3598275 L18.8692491,38.3156432 L16.1360993,35.6076265 C14.6213002,34.106757 14.6213002,31.6635996 16.1360993,30.1627302 C16.71186,29.5905662 17.4384152,29.2204423 18.2283726,29.0897104 C17.2139371,27.5939344 17.3732994,25.5429725 18.7064597,24.2203738 C19.9128155,23.0251112 21.7206356,22.7840214 23.1703188,23.488615 C23.2731332,22.6685699 23.6432651,21.8773876 24.2755738,21.2491956 C25.7441063,19.7924694 28.1088379,19.750024 29.6322048,21.1184638 C29.776145,20.3697268 30.1428497,19.6787157 30.7014747,19.1269254 C32.2162738,17.6243582 34.6821061,17.6243582 36.1969052,19.1269254 L44.7202202,27.5718628 C46.83477,29.6669679 48,32.4530841 48,35.4174711 C48,38.381858 46.83477,41.1679743 44.7202202,43.2630793 L41.6906221,46.2648182 C39.9102191,48.0288492 37.543774,49 35.0265344,49 Z M20.7957587,40.6015787 L20.7957587,41.96821 C20.7957587,45.2943113 23.4338027,48 26.6767484,48 L34.958862,48 C36.9785619,48 38.8772814,47.1934635 40.3055218,45.7286002 L43.2762617,42.6816846 C45.0321571,40.8807644 46,38.4835588 46,35.93642 C46,33.3892813 45.0321571,30.9920756 43.2762617,29.1911554 L34.9185353,20.6191202 C34.1136798,19.7936266 32.712324,19.7936266 31.9057883,20.6191202 C31.0757286,21.4704642 31.0757286,22.8577759 31.9057883,23.70912 L32.3107364,24.1244518 C32.4754041,24.293342 32.5560577,24.5139331 32.5560577,24.7345243 C32.5560577,24.9551155 32.4737239,25.1757067 32.3107364,25.3445968 C31.9830813,25.6806536 31.4504317,25.6806536 31.1227765,25.3445968 L28.6174749,22.7750542 C27.7874153,21.9237102 26.4347876,21.9237102 25.604728,22.7750542 C25.2031404,23.1869393 24.9813431,23.7366939 24.9813431,24.3191925 C24.9813431,24.9016911 25.2031404,25.4514456 25.604728,25.8633307 L28.1100295,28.4328733 C28.2746973,28.6017634 28.3553508,28.8223546 28.3553508,29.0429457 C28.3553508,29.2635369 28.2746973,29.4841281 28.1100295,29.6530182 C27.7823744,29.9890751 27.2497248,29.9890751 26.9220696,29.6530182 L23.156556,25.7892259 C22.3264963,24.9378818 20.9738687,24.9378818 20.143809,25.7892259 C19.3137493,26.6405699 19.3137493,28.0278816 20.143809,28.8792257 L23.9093227,32.7412947 C24.0739904,32.9101848 24.154644,33.130776 24.154644,33.3513672 C24.154644,33.5719583 24.0723101,33.7925495 23.9093227,33.9614396 C23.5816675,34.2974965 23.0490179,34.2974965 22.7213628,33.9614396 L20.6361319,31.8227392 C19.8312764,30.9972457 18.4299206,30.9972457 17.6233849,31.8227392 C17.2217973,32.2346243 17,32.7843789 17,33.3668775 C17,33.949376 17.2217973,34.4991306 17.6233849,34.9110157 L23.9093227,41.3581375 C24.0739904,41.5270277 24.154644,41.7476188 24.154644,41.96821 C24.154644,42.1888012 24.0723101,42.4093924 23.9093227,42.5782825 C23.5816675,42.9143393 23.0490179,42.9143393 22.7213628,42.5782825 L20.7957587,40.6015787 Z" id="Shape" transform="translate(31.500000, 33.500000) rotate(47.000000) translate(-31.500000, -33.500000) "></path>
        </g>
    </g>
</svg>