<?xml version="1.0" encoding="UTF-8"?>
<svg width="38px" height="62px" viewBox="0 0 38 62" version="1.1" xmlns="http://www.w3.org/2000/svg" xmlns:xlink="http://www.w3.org/1999/xlink">
    <title>entity_no-image</title>
    <g id="Page-1" stroke="none" stroke-width="1" fill="none" fill-rule="evenodd">
        <g id="entity_no-image" fill="#9289B7">
            <g id="Thing" transform="translate(0.000000, 44.000000)" font-family="SourceSansPro-Semibold, Source Sans Pro" font-size="14" font-weight="500">
                <g id="Group">
                    <text id="Entity">
                        <tspan x="0.461" y="14">Entity</tspan>
                    </text>
                </g>
            </g>
            <path d="M37,19.0048653 C37,19.0048653 36.9818443,19.4171876 36.948326,20.1897689 C36.9348256,20.3826818 36.9418086,20.5997669 36.9087559,20.8349812 C36.8743066,21.0701955 36.837064,21.3272578 36.7965628,21.6052383 C36.7514063,21.8822891 36.7225434,22.183977 36.6555068,22.4986807 C36.5800908,22.8119899 36.5000194,23.1448228 36.4152927,23.4962497 C36.047523,24.8894063 35.4623502,26.5758835 34.3883695,28.307916 C33.325096,30.0362297 31.8326027,31.8486814 29.7889204,33.3887307 C27.7447725,34.9078617 25.1582806,36.1545905 22.1844668,36.7161297 C21.8153005,36.7988731 21.4354269,36.8170022 21.0550879,36.8699952 L20.4801567,36.9369336 L20.1905963,36.969938 L19.8568103,36.9764459 C19.1161501,36.9806296 18.4257672,37.0452438 17.5603445,36.9406525 C17.1492804,36.8988159 16.7140086,36.883011 16.3099275,36.8118889 C15.9067774,36.7361183 15.5017651,36.6598828 15.0944253,36.5836474 C14.6805679,36.5222871 14.2876595,36.3819023 13.8817163,36.2689436 L13.2741979,36.0871871 C13.0688986,36.0314051 12.8691857,35.9593533 12.6745936,35.8738208 C11.0675796,35.2913633 9.54761997,34.4086124 8.11192148,33.3617694 C7.7669628,33.0828591 7.42293517,32.7983707 7.08076968,32.508304 C6.7269659,32.2298587 6.43740544,31.8835451 6.11199907,31.570236 L5.63622609,31.085397 C5.48027311,30.92084 5.34526904,30.7381538 5.19862668,30.5642997 C4.913256,30.2100838 4.61950576,29.8586569 4.35415293,29.4858469 C3.291345,27.9894935 2.46642356,26.3090593 1.8733367,24.5375145 C1.29235365,22.755743 1.05679482,20.8768178 1,19.0048653 L1.01862125,18.5781326 L1.03631144,18.269472 L1.07169182,17.6516858 L1.08938201,17.3430251 C1.09357179,17.2435472 1.10008923,17.138491 1.12243473,17.007868 L1.23183458,16.2696856 L1.34775187,15.5328977 L1.40827094,15.1656659 L1.49532529,14.8244658 C1.61077705,14.3703069 1.74159134,13.9207966 1.86681926,13.4712863 C2.46269931,11.7002063 3.28110331,10.0160534 4.34577336,8.51970001 C4.6097296,8.14596031 4.90766963,7.79685767 5.18791946,7.43892287 C5.33456182,7.26506883 5.47003142,7.08191778 5.6259844,6.91736074 L6.10222291,6.43205694 C6.42809481,6.11828293 6.71765527,5.7719694 7.07192458,5.49352402 C7.41641774,5.20764103 7.75997983,4.9222229 8.10214532,4.63773446 C9.54017147,3.5918211 11.0592001,2.70535142 12.6680762,2.12335874 C14.2713659,1.54740912 15.9049152,1.15414569 17.5193777,1.06071076 C18.3200916,0.95937338 19.1194088,1.01422573 19.8977771,1.01980393 L20.24646,1.02956579 L20.5169337,1.06257017 L21.0555534,1.12857892 C21.4205299,1.18110701 21.7538503,1.19598223 22.1379136,1.27872559 C22.5173216,1.36100411 22.894402,1.44281778 23.2686891,1.52370175 C23.4530395,1.56786253 23.6425108,1.59900751 23.8184816,1.6543247 L24.3408077,1.82585449 C24.6853008,1.94020769 25.0270008,2.05316633 25.3659076,2.16566013 C25.6959693,2.30232614 26.0171859,2.45154311 26.3370059,2.59192793 C26.9878186,2.84573624 27.573457,3.21017894 28.1586298,3.53139055 C28.4565698,3.68293178 28.7228537,3.88328229 28.9923963,4.06829274 C29.2614734,4.25283835 29.5277573,4.4350597 29.791248,4.6158865 C31.8349304,6.15733037 33.3269581,7.97117656 34.3893005,9.70041999 C35.4632812,11.4329174 36.0470575,13.1198594 36.4152927,14.513016 C36.4995539,14.8644429 36.5796252,15.1972758 36.6550413,15.5105849 C36.7220778,15.8252886 36.7509408,16.1265117 36.7960973,16.4035625 C36.8365985,16.6810782 36.873841,16.9381405 36.9082903,17.1733548 C36.9413431,17.4090339 36.9343601,17.6265839 36.9478605,17.8190319 C36.9818443,18.592543 37,19.0048653 37,19.0048653 Z M37,18.9922779 C37,18.9922779 36.9757654,18.572191 36.9306224,17.7846466 C36.9139908,17.5883532 36.9182675,17.3669304 36.8812028,17.1274904 C36.8427125,16.8880503 36.8013711,16.627274 36.7562281,16.3451615 C36.7063333,16.0639972 36.6730701,15.7577036 36.6003662,15.4390824 C36.5134066,15.123306 36.42122,14.7880899 36.3238063,14.4334342 C35.8956612,13.0356732 35.2394254,11.3477394 34.0333961,9.70058152 C32.8587294,8.04820809 31.2055474,6.40010191 29.0795526,5.15501365 C28.0032499,4.55996956 26.8480659,4.01091692 25.5873899,3.6567353 C25.2723397,3.56949378 24.9582399,3.4741919 24.638913,3.3921659 C24.3134087,3.33432098 23.9855284,3.27647605 23.6552722,3.21768285 L23.161551,3.12901891 C22.9966604,3.10151887 22.8336707,3.10151887 22.6702057,3.08634643 C22.3456517,3.06169121 22.0187218,3.03656186 21.689416,3.01143251 C21.3653372,2.98298419 20.9714057,3.01664804 20.6116877,3.0161739 L20.0576175,3.02755323 L19.7791569,3.03324289 C19.7135808,3.03229461 19.8290517,3.03466531 19.8052923,3.03656186 L19.7729794,3.04082911 L19.7083538,3.04936361 L19.5791024,3.0664326 C18.8900786,3.16552759 18.1934518,3.20914835 17.5129814,3.40212281 C16.1339834,3.67001119 14.8120081,4.23660695 13.5423035,4.87147869 C13.2334308,5.0478583 12.9231325,5.22518618 12.6114086,5.40298819 C12.3030111,5.58268677 12.0231248,5.81406646 11.7242311,6.01035989 L11.2818303,6.31570522 L10.8693664,6.66467132 C10.5989839,6.90268895 10.3119699,7.11984448 10.0534672,7.371138 C8.99854795,8.35876895 8.1118456,9.51282258 7.32778404,10.7256694 L6.79984925,11.674421 C6.60787296,11.982137 6.50380661,12.3353704 6.3427176,12.6582588 L6.11652771,13.1513631 C6.04619977,13.3177858 5.99868089,13.4936912 5.93785672,13.663907 C5.82761291,14.0086059 5.69218409,14.3452444 5.59762151,14.6942105 C5.51588904,15.0474438 5.43985882,15.4011513 5.34862257,15.7515398 L5.28209613,16.0142127 L5.24883292,16.2621872 L5.17660421,16.757188 L5.09724768,17.2512406 C5.07966569,17.3247321 5.07443862,17.4276202 5.07111229,17.5366721 L5.05733182,17.8519743 L5.02977087,18.4825788 L5.01599039,18.7978811 L5.00886256,18.9552951 L5.00411067,19.0340021 L5.00173473,19.0733557 C5.00220991,19.0330539 4.99698284,19.2193904 5.0026851,18.9927521 C5.0240686,20.4483579 5.2198464,21.891162 5.59144406,23.2927161 C5.68600664,23.6421563 5.82191064,23.9787948 5.93215445,24.3234937 C5.99297862,24.4937095 6.04097269,24.6696149 6.11130064,24.8360376 L6.33654014,25.329616 C6.49240208,25.6553493 6.60074513,26.0071602 6.79177104,26.3153504 L7.32018102,27.2645761 C8.0990155,28.4831126 8.99332088,29.6319507 10.0444386,30.6247972 C10.3034165,30.8760907 10.5904305,31.0932462 10.8612882,31.3312639 L11.2742272,31.68023 L11.7171032,31.9855753 C12.0155218,32.1832912 12.295408,32.415145 12.604756,32.5948436 C12.9164798,32.7726456 13.2272533,32.9499735 13.5366013,33.1263531 C13.8392965,33.3231206 14.1809573,33.4274311 14.499809,33.5872159 C14.8253134,33.7294575 15.1417891,33.9029923 15.4820243,33.9997166 C15.818458,34.1149323 16.1534661,34.2291997 16.4870487,34.342993 C16.8211064,34.4539415 17.1432845,34.5042002 17.4725903,34.5909676 C18.0870095,34.7810972 18.8948305,34.8346749 19.6223446,34.9323474 L19.7610997,34.9494164 L19.8304773,34.9579509 L19.8651661,34.9622182 C19.8898759,34.9645889 19.7739298,34.9603216 19.8385555,34.9622182 L20.0975334,34.9679078 L20.6145388,34.9807096 C20.9581004,34.9807096 21.3049882,35.0176924 21.6437978,34.9892441 C24.3732825,34.8749766 26.9587849,34.0755788 29.0838293,32.8352319 C31.2098241,31.5891953 32.8625309,29.9391926 34.0357721,28.2858709 C35.2413261,26.6382389 35.8966115,24.9493568 36.3247567,23.55207 C36.4221704,23.1974142 36.514357,22.8621981 36.6008414,22.5464217 C36.6735453,22.2273264 36.7068085,21.9215069 36.7562281,21.6403427 C36.8013711,21.3582301 36.8431877,21.0969797 36.8812028,20.8580138 C36.9182675,20.6185737 36.9139908,20.3966768 36.9306224,20.2003834 C36.9757654,19.4123648 37,18.9922779 37,18.9922779 Z" id="Shape" fill-rule="nonzero"></path>
        </g>
    </g>
</svg>