<?xml version="1.0" encoding="UTF-8"?>
<svg width="19px" height="15px" viewBox="0 0 19 15" version="1.1" xmlns="http://www.w3.org/2000/svg" xmlns:xlink="http://www.w3.org/1999/xlink">
    <title>expand_media_grey</title>
    <g id="Page-1" stroke="none" stroke-width="1" fill="none" fill-rule="evenodd">
        <g id="expand_media_grey" transform="translate(1.000000, 1.000000)" fill-rule="nonzero">
            <rect id="Rectangle" stroke="#1D0A6E" fill-opacity="0" fill="#000000" x="0" y="0" width="17" height="13" rx="0.8"></rect>
            <polygon id="Path" fill="#1D0A6E" transform="translate(13.136364, 3.058824) scale(-1, 1) translate(-13.136364, -3.058824) " points="12.2777785 4.58823529 11.5909098 4.58823529 11.5909098 1.52941176 14.6818189 1.52941176 14.6818189 2.20915033 12.2777785 2.20915033"></polygon>
            <polygon id="Path" fill="#1D0A6E" transform="translate(4.636364, 9.941176) scale(-1, 1) translate(-4.636364, -9.941176) " points="6.18181891 11.4705882 3.09090982 11.4705882 3.09090982 10.7908497 5.49495022 10.7908497 5.49495022 8.41176471 6.18181891 8.41176471"></polygon>
            <polygon id="Rectangle" fill="#1D0A6E" transform="translate(5.011100, 9.558824) scale(-1, 1) rotate(45.000000) translate(-5.011100, -9.558824) " points="3.10598169 9.24099593 6.92313449 9.20186991 6.91621794 9.87665109 3.09906515 9.91577711"></polygon>
            <polygon id="Rectangle" fill="#1D0A6E" transform="translate(12.603706, 3.500153) scale(-1, 1) rotate(45.000000) translate(-12.603706, -3.500153) " points="10.6985883 3.18232539 14.515741 3.14319937 14.5088245 3.81798055 10.6916717 3.85710657"></polygon>
        </g>
    </g>
</svg>