<?xml version="1.0" encoding="UTF-8"?>
<svg width="20px" height="16px" viewBox="0 0 20 16" version="1.1" xmlns="http://www.w3.org/2000/svg" xmlns:xlink="http://www.w3.org/1999/xlink">
    <title>expand_media_grey</title>
    <g id="Page-1" stroke="none" stroke-width="1" fill="none" fill-rule="evenodd">
        <g id="expand_media_grey" transform="translate(1.000000, 1.000000)" fill-rule="nonzero">
            <rect id="Rectangle" stroke="#595099" fill-opacity="0" fill="#FFFFFF" x="0" y="0" width="18" height="14" rx="0.8"></rect>
            <g id="Group" transform="translate(3.000000, 7.000000)" fill="#595099">
                <polygon id="Path" transform="translate(2.000000, 3.000000) scale(-1, 1) translate(-2.000000, -3.000000) " points="4 5 0 5 0 4.11111118 3.11111111 4.11111118 3.11111111 1 4 1"></polygon>
                <polygon id="Rectangle" transform="translate(2.689498, 2.643365) scale(-1, 1) rotate(45.000000) translate(-2.689498, -2.643365) " points="0.198541095 2.00771003 5.18949767 1.92945799 5.18045422 3.27902035 0.189497666 3.35727239"></polygon>
            </g>
            <g id="Group" transform="translate(12.000000, 4.000000) scale(-1, -1) translate(-12.000000, -4.000000) translate(9.000000, 1.000000)" fill="#595099">
                <polygon id="Path" transform="translate(2.000000, 3.000000) scale(-1, 1) translate(-2.000000, -3.000000) " points="4 5 0 5 0 4.11111118 3.11111111 4.11111118 3.11111111 1 4 1"></polygon>
                <polygon id="Rectangle" transform="translate(2.689498, 2.643365) scale(-1, 1) rotate(45.000000) translate(-2.689498, -2.643365) " points="0.198541095 2.00771003 5.18949767 1.92945799 5.18045422 3.27902035 0.189497666 3.35727239"></polygon>
            </g>
        </g>
    </g>
</svg>