<?xml version="1.0" encoding="UTF-8"?>
<svg width="19px" height="15px" viewBox="0 0 19 15" version="1.1" xmlns="http://www.w3.org/2000/svg" xmlns:xlink="http://www.w3.org/1999/xlink">
    <title>expand2</title>
    <g id="Page-1" stroke="none" stroke-width="1" fill="none" fill-rule="evenodd">
        <g id="Group" transform="translate(-7.000000, -8.000000)">
            <g id="expand2" transform="translate(8.000000, 9.000000)">
                <rect id="Rectangle" stroke="#5F5F5F" fill-opacity="0" fill="#FFFFFF" x="0" y="0" width="17" height="13" rx="0.8"></rect>
                <polygon id="Path" fill="#5F5F5F" fill-rule="nonzero" transform="translate(13.136364, 3.058824) scale(-1, 1) translate(-13.136364, -3.058824) " points="12.2777778 4.58823529 11.5909091 4.58823529 11.5909091 1.52941176 14.6818182 1.52941176 14.6818182 2.20915033 12.2777778 2.20915033"></polygon>
                <polygon id="Path" fill="#5F5F5F" fill-rule="nonzero" transform="translate(4.636364, 9.941176) scale(-1, 1) translate(-4.636364, -9.941176) " points="6.18181818 11.4705882 3.09090909 11.4705882 3.09090909 10.7908497 5.49494949 10.7908497 5.49494949 8.41176471 6.18181818 8.41176471"></polygon>
                <polygon id="Rectangle" fill="#5F5F5F" fill-rule="nonzero" transform="translate(5.011100, 9.558824) scale(-1, 1) rotate(45.000000) translate(-5.011100, -9.558824) " points="3.10598165 9.24099595 6.92313445 9.20186993 6.9162179 9.87665111 3.09906511 9.91577713"></polygon>
                <polygon id="Rectangle" fill="#5F5F5F" fill-rule="nonzero" transform="translate(12.603707, 3.500153) scale(-1, 1) rotate(45.000000) translate(-12.603707, -3.500153) " points="10.6985894 3.18232493 14.5157421 3.14319891 14.5088256 3.81798009 10.6916728 3.85710611"></polygon>
            </g>
        </g>
    </g>
</svg>