<?xml version="1.0" encoding="UTF-8"?>
<svg width="18px" height="15px" viewBox="0 0 18 15" version="1.1" xmlns="http://www.w3.org/2000/svg" xmlns:xlink="http://www.w3.org/1999/xlink">
    <title>image</title>
    <g id="Page-1" stroke="none" stroke-width="1" fill="none" fill-rule="evenodd">
        <g id="Group" transform="translate(-38.000000, -8.000000)">
            <g id="image" transform="translate(39.000000, 9.000000)">
                <rect id="Rectangle" stroke="#5F5F5F" fill-opacity="0" fill="#FFFFFF" x="3.17079696e-14" y="0" width="16.5" height="13" rx="0.8"></rect>
                <path d="M12.4316364,4.888 C12.0854545,4.5350303 11.6156364,4.33333333 11.1458182,4.33333333 C10.676,4.33333333 10.2061818,4.5350303 9.86,4.888 L2.24685167,12.7439925 L16.3138182,13 L16.3138182,8.84630303 L12.4316364,4.888 Z M5.19272727,9.09054545 L3.04145455,6.89709091 C2.52218182,6.36763636 1.65672727,6.36763636 1.11272727,6.89709091 L-3.55271368e-14,8.03163636 L-3.55271368e-14,12.7967273 L1.55781818,12.7967273 L5.19272727,9.09054545 Z M3.25781818,4.91006061 C4.12327273,4.91006061 4.81563636,4.20412121 4.81563636,3.32169697 C4.81563636,2.43927273 4.12327273,1.73333333 3.25781818,1.73333333 C2.39236364,1.73333333 1.7,2.43927273 1.7,3.32169697 C1.7,4.20412121 2.39236364,4.91006061 3.25781818,4.91006061 Z" id="Shape" fill="#5F5F5F" fill-rule="nonzero"></path>
            </g>
        </g>
    </g>
</svg>