<?xml version="1.0" encoding="UTF-8"?>
<svg width="93px" height="81px" viewBox="0 0 93 81" version="1.1" xmlns="http://www.w3.org/2000/svg" xmlns:xlink="http://www.w3.org/1999/xlink">
    <!-- Generator: Sketch 61.2 (89653) - https://sketch.com -->
    <title>images</title>
    <desc>Created with Sketch.</desc>
    <g id="Page-1" stroke="none" stroke-width="1" fill="none" fill-rule="evenodd">
        <g id="images" transform="translate(1.000000, 1.000000)">
            <path d="M65.45,14 C66.8666667,14 68,15.141791 68,16.5690299 L68,16.5690299 L68.0008554,27.04026 C67.5039607,27.0135347 67.003561,27 66.5,27 C65.9967765,27 65.49671,27.0135165 65.0001437,27.0402063 L65,18.5767635 C65,17.1452282 63.8648649,16 62.4459459,16 L62.4459459,16 L4.55405405,16 C3.13513514,16 2,17.1452282 2,18.5767635 L2,18.5767635 L2,43.999 L5.28571429,40.5135135 C7.31932773,38.554849 10.5192783,38.4972412 12.5344203,40.3406902 L12.7142857,40.5135135 L20.5,49 L7,62 L11.011,61.999 L10,63 L40.338749,62.9998435 C40.5592051,63.6788467 40.8053607,64.3462664 41.076068,65.0009548 L2.55,65 C1.13333333,65 0,63.858209 0,62.4309701 L0,62.4309701 L0,16.5690299 C0,15.141791 1.13333333,14 2.55,14 L2.55,14 Z M2,59.4232365 L2,62 L4.55405405,62 C3.13513514,62 2,60.8547718 2,59.4232365 Z M46.1962775,30 C47.9966159,30 49.7969543,30.75 51.1235195,32.0625 L50.9001389,31.8497516 C43.7112637,36.8103582 39,45.1049918 39,54.5 C39,57.0998207 39.3607696,59.6153792 40.0349768,61.9993435 L11.011,61.999 L41.2690355,32.0625 C42.5219026,30.8229167 44.1973637,30.0850694 45.8963023,30.0069123 Z M15,21 C18.3333333,21 21,23.6666667 21,27 C21,30.3333333 18.3333333,33 15,33 C11.6666667,33 9,30.3333333 9,27 C9,23.6666667 11.6666667,21 15,21 Z M20.3747195,0.0502839138 L82.8571268,10.0650155 C84.2836658,10.2539727 85.2346918,11.5766731 84.949384,12.8993735 L81.8880134,31.7050192 C81.1296522,31.1920754 80.3443262,30.7159803 79.5346055,30.2793039 L82.0012034,15.0723813 C82.1914086,13.6552023 81.2403826,12.3325019 79.9089463,12.1435447 L22.4669767,2.9791205 C21.0404377,2.7901633 19.7090013,3.7349493 19.5187961,5.05764969 L18.5677702,11.1042801 L16,11.1042801 L17.426539,2.12881311 C17.6167442,0.711634111 18.9481806,-0.233151885 20.3747195,0.0502839138 Z" id="Combined-Shape" stroke="#473C74" fill="#473C74" fill-rule="nonzero"></path>
            <circle id="Oval" stroke="#473C74" stroke-width="3" fill-opacity="0" fill="#FFFFFF" cx="66.5" cy="54.5" r="24"></circle>
            <path d="M77.440678,53.3495652 C76.6949153,54.1008696 75.5762712,54.1008696 74.8305085,53.3495652 L68.8644068,47.3391304 L68.8644068,66.1217391 C68.8644068,67.0608696 68.1186441,68 67,68 C65.8813559,68 65.1355932,67.0608696 65.1355932,66.1217391 L65.1355932,47.3391304 L59.1694915,53.3495652 C58.7966102,53.7252174 58.2372881,53.9130435 57.8644068,53.9130435 C57.3050847,53.9130435 56.9322034,53.7252174 56.559322,53.3495652 C55.8135593,52.5982609 55.8135593,51.4713043 56.559322,50.72 L65.6949153,41.5165217 C65.8813559,41.3286957 66.0677966,41.1408696 66.2542373,41.1408696 C66.6271186,40.9530435 67.1864407,40.9530435 67.7457627,41.1408696 C67.9322034,41.1408696 68.1186441,41.3286957 68.3050847,41.5165217 L77.440678,50.72 C78.1864407,51.4713043 78.1864407,52.5982609 77.440678,53.3495652 Z" id="Path" fill="#473C74" fill-rule="nonzero"></path>
        </g>
    </g>
</svg>