<?xml version="1.0" encoding="UTF-8"?>
<svg width="88px" height="72px" viewBox="0 0 88 72" version="1.1" xmlns="http://www.w3.org/2000/svg" xmlns:xlink="http://www.w3.org/1999/xlink">
    <!-- Generator: Sketch 61.2 (89653) - https://sketch.com -->
    <title>image_annotation</title>
    <desc>Created with Sketch.</desc>
    <g id="Page-1" stroke="none" stroke-width="1" fill="none" fill-rule="evenodd">
        <g id="image_annotation">
            <g id="images" fill="#1D0A6E" fill-opacity="0.7" fill-rule="nonzero">
                <path d="M72.6,3.5 C72.6,2 71.4,0.8 69.9,0.8 L3.3,0.8 C1.8,0.8 0.6,2 0.6,3.5 L0.6,51.7 C0.6,53.2 1.8,54.4 3.3,54.4 L69.9,54.4 C71.4,54.4 72.6,53.2 72.6,51.7 L72.6,3.5 Z M3.3,6.2 C3.3,4.7 4.5,3.5 6,3.5 L67.2,3.5 C68.7,3.5 69.9,4.7 69.9,6.2 L69.9,49 C69.9,50.5 68.7,51.7 67.2,51.7 L6,51.7 C4.5,51.7 3.3,50.5 3.3,49 L3.3,6.2 Z M71.2,35.7 L55.5,20 C54.1,18.6 52.2,17.8 50.3,17.8 C48.4,17.8 46.5,18.6 45.1,20 L12.1,53 L71.2,53 L71.2,35.7 L71.2,35.7 Z M23,38.3 L14.3,29.6 C12.2,27.5 8.7,27.5 6.5,29.6 L2,34.1 L2,53 L8.3,53 L23,38.3 Z M17.4,21.4 C20.9,21.4 23.7,18.6 23.7,15.1 C23.7,11.6 20.9,8.8 17.4,8.8 C13.9,8.8 11.1,11.6 11.1,15.1 C11.1,18.6 13.9,21.4 17.4,21.4 Z" id="Shape"></path>
            </g>
            <polygon id="Path" stroke="#1D0A6E" stroke-width="2" stroke-linecap="round" stroke-linejoin="round" points="87 61.625 81 61.625 81 56 77 56 77 61.625 71 61.625 71 65.375 77 65.375 77 71 81 71 81 65.375 87 65.375"></polygon>
            <g id="Path" stroke-linecap="round" stroke-linejoin="round" transform="translate(32.000000, 14.000000)" stroke="#1D0A6E" stroke-width="3">
                <line x1="47" y1="38" x2="47" y2="8" stroke-dasharray="4.0976,5.122"></line>
                <polyline points="47 3 47 1 45 1"></polyline>
                <line x1="41" y1="1" x2="4" y2="1" stroke-dasharray="4.16,5.2"></line>
                <polyline points="3 1 1 1 1 3"></polyline>
                <line x1="1" y1="8" x2="1" y2="48" stroke-dasharray="4.16,5.2"></line>
                <polyline points="1 48 1 50 3 50"></polyline>
                <line x1="8" y1="50" x2="38" y2="50" stroke-dasharray="4.0976,5.122"></line>
            </g>
        </g>
    </g>
</svg>