<?xml version="1.0" encoding="UTF-8"?>
<svg width="91px" height="78px" viewBox="0 0 91 78" version="1.1" xmlns="http://www.w3.org/2000/svg" xmlns:xlink="http://www.w3.org/1999/xlink">
    <!-- Generator: Sketch 61.2 (89653) - https://sketch.com -->
    <title>images</title>
    <desc>Created with Sketch.</desc>
    <g id="Page-1" stroke="none" stroke-width="1" fill="none" fill-rule="evenodd">
        <g id="images">
            <path d="M69.9,14.8 C71.4,14.8 72.6,16 72.6,17.5 L72.6,17.5 L72.6009545,43.0098429 C72.4014407,43.003298 72.2011055,43 72,43 C71.2897721,43 70.5891516,43.0411338 69.9003907,43.121149 L69.9,20.2 C69.9,18.7 68.7,17.5 67.2,17.5 L67.2,17.5 L6,17.5 C4.5,17.5 3.3,18.7 3.3,20.2 L3.3,20.2 L3.3,63 C3.3,63.3461538 3.36390533,63.6763314 3.48065544,63.979472 L3.499,64.0237775 L3.5,65.5 L4.975,65.4997775 L5.02052799,65.5193446 C5.2731452,65.6166363 5.54453801,65.6772303 5.82830564,65.6947258 L6,65.7 L54.619894,65.7003806 C54.8713725,66.6325154 55.1958401,67.5346963 55.5867882,68.4004145 L3.3,68.4 C1.8,68.4 0.6,67.2 0.6,65.7 L0.6,65.7 L0.6,17.5 C0.6,16 1.8,14.8 3.3,14.8 L3.3,14.8 Z M6.5,43.6 C8.7,41.5 12.2,41.5 14.3,43.6 L14.3,43.6 L23,52.5 L10,65.5 L4.975,65.4997775 L4.87126195,65.456617 C4.28361971,65.1885014 3.81149863,64.7163803 3.54338302,64.1287381 L3.499,64.0237775 L3.5,47 Z M50.3,31.8 C52.2,31.8 54.1,32.6 55.5,34 L55.5,34 L65.6519779,44.1513173 C58.8432138,46.7179093 54,53.2933581 54,61 C54,62.5539777 54.1969214,64.0619619 54.5671713,65.5003599 L14.5,65.5 L45.1,34 C46.5,32.6 48.4,31.8 50.3,31.8 Z M22.5,0.8 L88.2,11.4 C89.7,11.6 90.7,13 90.4,14.4 L84.8943999,48.4407483 C84.163799,47.6907743 83.3683229,47.0043074 82.5170364,46.3904127 L87.3,16.7 C87.5,15.2 86.5,13.8 85.1,13.6 L24.7,3.9 C23.2,3.7 21.8,4.7 21.6,6.1 L20.6,12.5 L17.9,12.5 L19.4,3 C19.6,1.5 21,0.5 22.5,0.8 Z M17.4,22.8 C20.9,22.8 23.7,25.6 23.7,29.1 C23.7,32.6 20.9,35.4 17.4,35.4 C13.9,35.4 11.1,32.6 11.1,29.1 C11.1,25.6 13.9,22.8 17.4,22.8 Z" id="Combined-Shape" stroke="#473C74" fill="#473C74" fill-rule="nonzero"></path>
            <circle id="Oval" stroke="#473C74" stroke-width="3" fill-opacity="0" fill="#FFFFFF" cx="72" cy="61" r="15.5"></circle>
            <path d="M79.6186441,60.2330435 C79.1101695,60.733913 78.3474576,60.733913 77.8389831,60.2330435 L73.7711864,56.226087 L73.7711864,68.7478261 C73.7711864,69.373913 73.2627119,70 72.5,70 C71.7372881,70 71.2288136,69.373913 71.2288136,68.7478261 L71.2288136,56.226087 L67.1610169,60.2330435 C66.9067797,60.4834783 66.5254237,60.6086957 66.2711864,60.6086957 C65.8898305,60.6086957 65.6355932,60.4834783 65.3813559,60.2330435 C64.8728814,59.7321739 64.8728814,58.9808696 65.3813559,58.48 L71.6101695,52.3443478 C71.7372881,52.2191304 71.8644068,52.093913 71.9915254,52.093913 C72.2457627,51.9686957 72.6271186,51.9686957 73.0084746,52.093913 C73.1355932,52.093913 73.2627119,52.2191304 73.3898305,52.3443478 L79.6186441,58.48 C80.1271186,58.9808696 80.1271186,59.7321739 79.6186441,60.2330435 Z" id="Path" fill="#473C74" fill-rule="nonzero"></path>
        </g>
    </g>
</svg>