<?xml version="1.0" encoding="UTF-8"?>
<svg width="90px" height="68px" viewBox="0 0 90 68" version="1.1" xmlns="http://www.w3.org/2000/svg" xmlns:xlink="http://www.w3.org/1999/xlink">
    <!-- Generator: Sketch 61.2 (89653) - https://sketch.com -->
    <title>images</title>
    <desc>Created with Sketch.</desc>
    <g id="Page-1" stroke="none" stroke-width="1" fill="none" fill-rule="evenodd">
        <g id="images" fill="#1D0A6E" fill-rule="nonzero">
            <path d="M89.4,14.4 L81.7,62 C81.5,63.5 80.1,64.5 78.6,64.2 L73.9,63.4 L73.9,60.7 L76.4,61.1 C77.9,61.3 79.3,60.3 79.5,58.9 L86.3,16.7 C86.5,15.2 85.5,13.8 84.1,13.6 L23.7,3.9 C22.2,3.7 20.8,4.7 20.6,6.1 L19.6,12.5 L16.9,12.5 L18.4,3 C18.6,1.5 20,0.5 21.5,0.8 L87.2,11.4 C88.7,11.6 89.7,13 89.4,14.4 Z M72.6,16.5 C72.6,15 71.4,13.8 69.9,13.8 L3.3,13.8 C1.8,13.8 0.6,15 0.6,16.5 L0.6,64.7 C0.6,66.2 1.8,67.4 3.3,67.4 L69.9,67.4 C71.4,67.4 72.6,66.2 72.6,64.7 L72.6,16.5 Z M3.3,19.2 C3.3,17.7 4.5,16.5 6,16.5 L67.2,16.5 C68.7,16.5 69.9,17.7 69.9,19.2 L69.9,62 C69.9,63.5 68.7,64.7 67.2,64.7 L6,64.7 C4.5,64.7 3.3,63.5 3.3,62 L3.3,19.2 Z M71.2,48.7 L55.5,33 C54.1,31.6 52.2,30.8 50.3,30.8 C48.4,30.8 46.5,31.6 45.1,33 L12.1,66 L71.2,66 L71.2,48.7 L71.2,48.7 Z M23,51.3 L14.3,42.6 C12.2,40.5 8.7,40.5 6.5,42.6 L2,47.1 L2,66 L8.3,66 L23,51.3 Z M17.4,34.4 C20.9,34.4 23.7,31.6 23.7,28.1 C23.7,24.6 20.9,21.8 17.4,21.8 C13.9,21.8 11.1,24.6 11.1,28.1 C11.1,31.6 13.9,34.4 17.4,34.4 Z" id="Shape"></path>
        </g>
    </g>
</svg>