<?xml version="1.0" encoding="UTF-8"?>
<svg width="51px" height="60px" viewBox="0 0 51 60" version="1.1" xmlns="http://www.w3.org/2000/svg" xmlns:xlink="http://www.w3.org/1999/xlink">
    <title>entity_no-image</title>
    <g id="Page-1" stroke="none" stroke-width="1" fill="none" fill-rule="evenodd">
        <g id="entity_no-image" fill="#857C70">
            <path d="M39.1242976,14.1904457 C38.9772937,14.1904457 38.8285399,14.1517043 38.6920363,14.0696094 L33.4418995,10.9149504 C33.0227636,10.6631312 32.8757598,10.0995357 33.114641,9.65677652 C33.3543973,9.21401737 33.8899112,9.05905167 34.3081721,9.31179335 L39.5583089,12.4664523 C39.9774448,12.7182716 40.1244486,13.2818671 39.8855674,13.7246262 C39.7245632,14.0234886 39.4288055,14.1904457 39.1242976,14.1904457 Z M47.49,22.634 L44,20.619 L44,10.869 C44,10.51 43.808,10.178 43.495,10 L35,5.157 L35,1 C35,0.448 34.553,0 34,0 C33.447,0 33,0.448 33,1 L33,5.157 L25,9.718 L17,5.157 L17,1 C17,0.448 16.552,0 16,0 C15.448,0 15,0.448 15,1 L15,5.157 L6.505,10 C6.193,10.178 6,10.51 6,10.869 L6,20.617 L2.509,22.633 C2.03,22.909 1.867,23.521 2.143,23.999 C2.329,24.32 2.664,24.499 3.01,24.499 C3.179,24.499 3.352,24.456 3.509,24.365 L7.059,22.315 L15,26.843 L15,31 C15,31.553 15.448,32 16,32 C16.552,32 17,31.553 17,31 L17,26.843 L25,22.282 L33,26.843 L33,31 C33,31.553 33.447,32 34,32 C34.553,32 35,31.553 35,31 L35,26.843 L42.94,22.317 L46.49,24.367 C46.647,24.458 46.819,24.501 46.989,24.501 C47.335,24.501 47.671,24.322 47.856,24.001 C48.133,23.521 47.969,22.91 47.49,22.634 Z M15.856,6.971 C15.905,6.979 15.949,7 16,7 C16.051,7 16.095,6.979 16.144,6.971 L24,11.45 L24,20.55 L16.143,25.029 C16.094,25.021 16.051,25 16,25 C15.949,25 15.906,25.021 15.857,25.029 L8.275,20.707 C8.254,20.637 8.243,20.565 8.205,20.499 C8.151,20.405 8.076,20.335 7.999,20.267 L7.999,11.45 L15.856,6.971 Z M34.144,7 L42,11.479 L42,20.295 C41.924,20.363 41.848,20.435 41.794,20.528 C41.756,20.593 41.746,20.666 41.725,20.735 L34.143,25.057 C34.095,25.05 34.051,25.029 34,25.029 C33.949,25.029 33.905,25.05 33.857,25.058 L26,20.579 L26,11.479 L33.856,7 C33.905,7.008 33.949,7.029 34,7.029 C34.051,7.029 34.095,7.008 34.144,7 Z M21,12 C21.552,12 22,12.448 22,13 L22,18 C22,18.553 21.552,19 21,19 C20.448,19 20,18.553 20,18 L20,13 C20,12.448 20.448,12 21,12 Z" id="Shape" fill-rule="nonzero"></path>
            <g id="Group" transform="translate(0.000000, 42.000000)" font-family="SourceSansPro-Semibold, Source Sans Pro" font-size="14" font-weight="500">
                <text id="Material">
                    <tspan x="0.461" y="14">Material</tspan>
                </text>
            </g>
        </g>
    </g>
</svg>