<?xml version="1.0" encoding="UTF-8"?>
<svg width="74px" height="59px" viewBox="0 0 74 59" version="1.1" xmlns="http://www.w3.org/2000/svg" xmlns:xlink="http://www.w3.org/1999/xlink">
    <!-- Generator: Sketch 61.2 (89653) - https://sketch.com -->
    <title>Group</title>
    <desc>Created with Sketch.</desc>
    <g id="Page-1" stroke="none" stroke-width="1" fill="none" fill-rule="evenodd">
        <g id="Group" transform="translate(0.000000, -10.000000)">
            <path d="M2,21.6887967 C2,20.1950207 3.13513514,19 4.55405405,19 L62.4459459,19 C63.8648649,19 65,20.1950207 65,21.6887967 L65,64.3112033 C65,65.8049793 63.8648649,67 62.4459459,67 L4.55405405,67 C3.13513514,67 2,65.8049793 2,64.3112033 L2,21.6887967 Z" id="Path" stroke="#1D0A6E" stroke-width="2.5" fill-opacity="0" fill="#FFFFFF"></path>
            <polygon id="Path" fill="#1D0A6E" fill-rule="nonzero" points="24 34 43 43.5 24 53"></polygon>
            <path d="M76.5071205,18.4943527 L69.3964784,62.7166359 C69.2117864,64.1101953 68.0448286,65.3115425 66.6596386,65.0328306 L61.2273527,64.172441 L62.1934903,61.5088845 L64.5021403,61.8805003 C65.8873303,62.0663082 67.1801743,61.1372687 67.3648664,59.8366133 L73.6443945,20.6311437 C73.8290865,19.2375844 72.9056264,17.936929 71.6127824,17.7511211 L15.8357975,8.73943729 C14.4506075,8.55362938 13.1577635,9.48266894 12.9730715,10.7833243 L12.3306187,14.916889 L9.86139786,14.5258029 L10.9414594,7.90330169 C11.1261514,6.50974234 12.4189954,5.58070278 13.8041855,5.85941465 L74.4755085,15.707234 C75.8606985,15.8930419 76.7841585,17.1936973 76.5071205,18.4943527 Z" id="Path" fill="#1D0A6E" fill-rule="nonzero" transform="translate(43.208834, 35.441655) rotate(-9.000000) translate(-43.208834, -35.441655) "></path>
        </g>
    </g>
</svg>