<?xml version="1.0" encoding="UTF-8"?>
<svg width="85px" height="66px" viewBox="0 0 85 66" version="1.1" xmlns="http://www.w3.org/2000/svg" xmlns:xlink="http://www.w3.org/1999/xlink">
    <!-- Generator: Sketch 61.2 (89653) - https://sketch.com -->
    <title>Group</title>
    <desc>Created with Sketch.</desc>
    <g id="Page-1" stroke="none" stroke-width="1" fill="none" fill-rule="evenodd">
        <g id="Group">
            <path d="M2,18.6887967 C2,17.1950207 3.13513514,16 4.55405405,16 L62.4459459,16 C63.8648649,16 65,17.1950207 65,18.6887967 L65,61.3112033 C65,62.8049793 63.8648649,64 62.4459459,64 L4.55405405,64 C3.13513514,64 2,62.8049793 2,61.3112033 L2,18.6887967 Z" id="Path" stroke="#473C74" stroke-width="2.5" fill-opacity="0" fill="#FFFFFF"></path>
            <polygon id="Path" fill="#473C74" fill-rule="nonzero" points="24 31 43 40.5 24 50"></polygon>
            <path d="M84.4,14.4 L76.7,62 C76.5,63.5 75.1,64.5 73.6,64.2 L68.9,63.4 L68.9,60.7 L71.4,61.1 C72.9,61.3 74.3,60.3 74.5,58.9 L81.3,16.7 C81.5,15.2 80.5,13.8 79.1,13.6 L18.7,3.9 C17.2,3.7 15.8,4.7 15.6,6.1 L14.6,12.5 L11.9,12.5 L13.4,3 C13.6,1.5 15,0.5 16.5,0.8 L82.2,11.4 C83.7,11.6 84.7,13 84.4,14.4 Z" id="Path" fill="#473C74" fill-rule="nonzero"></path>
        </g>
    </g>
</svg>