<?xml version="1.0" encoding="UTF-8"?>
<svg width="57px" height="70px" viewBox="0 0 57 70" version="1.1" xmlns="http://www.w3.org/2000/svg" xmlns:xlink="http://www.w3.org/1999/xlink">
    <title>pages_no-image</title>
    <g id="Page-1" stroke="none" stroke-width="1" fill="none" fill-rule="evenodd">
        <g id="pages_no-image" fill="#506B9B">
            <g id="Pages" transform="translate(12.000000, 0.000000)" fill-rule="nonzero">
                <path d="M32.4953629,8.48353924 C32.9083669,8.9000259 33.2613911,9.46513438 33.5578629,10.1788646 C33.852621,10.894323 34,11.5492958 34,12.143783 L34,37.8588093 C34,38.4532965 33.7926411,38.9596474 33.3796371,39.3761341 C32.9666331,39.7926208 32.4645161,40 31.875,40 L2.125,40 C1.53548387,40 1.03336694,39.7926208 0.620362904,39.3761341 C0.207358869,38.9596474 0,38.4532965 0,37.8588093 L0,2.14291887 C0,1.5484317 0.207358869,1.0420807 0.620362904,0.625594057 C1.03336694,0.20910741 1.53548387,0 2.125,0 L21.9577621,0 C22.5489919,0 23.1984879,0.150349952 23.90625,0.447593533 C24.6140121,0.744837124 25.1761089,1.10256631 25.5891129,1.51905297 L32.4953629,8.48353924 L32.4953629,8.48353924 Z M23,3 L23,11 L31,11 C30.8583196,10.5882232 30.7018121,10.2966852 30.5321252,10.1270332 L23.8714992,3.46777847 C23.7018122,3.29812642 23.4102142,3.14165123 23,3 L23,3 Z M31,37 L31,14.3333334 L21.8986875,14.3333334 C21.3160951,14.3333334 20.8198754,14.125964 20.411722,13.7129391 C20.0035686,13.2999144 19.7986452,12.7977721 19.7986452,12.2082262 L19.7986452,3 L3,3 L3,37 L31,37 L31,37 Z M9,17.7513612 C9,17.5317605 9.06683465,17.3520871 9.20050404,17.2105264 C9.33245965,17.0707804 9.50211691,17 9.70947583,17 L25.2922379,17 C25.4978831,17 25.6675403,17.0707804 25.8012097,17.2105264 C25.9331653,17.3520871 26,17.5317605 26,17.7513612 L26,19.2504538 C26,19.4700544 25.9331653,19.6497278 25.8012097,19.7894737 C25.6675403,19.9310345 25.4978831,20 25.2922379,20 L9.70947583,20 C9.50211691,20 9.33245965,19.9310345 9.20050404,19.7894737 C9.06683465,19.6497278 9,19.4700544 9,19.2504538 L9,17.7513612 L9,17.7513612 Z M25.2922379,23 C25.4978831,23 25.6675403,23.0707804 25.8012097,23.2105264 C25.9331653,23.3520871 26,23.5317605 26,23.7495463 L26,25.2504537 C26,25.4682395 25.9331653,25.6479129 25.8012097,25.7894736 C25.6675403,25.9292196 25.4978831,26 25.2922379,26 L9.70947583,26 C9.50211691,26 9.33245965,25.9292196 9.20050404,25.7894736 C9.06683465,25.6479129 9,25.4682395 9,25.2504537 L9,23.7495463 C9,23.5317605 9.06683465,23.3520871 9.20050404,23.2105264 C9.33245965,23.0707804 9.50211691,23 9.70947583,23 L25.2922379,23 Z M25.2922379,29 C25.4978831,29 25.6675403,29.0707376 25.8012097,29.2122128 C25.9331653,29.3518743 26,29.531439 26,29.7509069 L26,31.2490931 C26,31.4685611 25.9331653,31.6481258 25.8012097,31.7877872 C25.6675403,31.9292625 25.4978831,32 25.2922379,32 L9.70947583,32 C9.50211691,32 9.33245965,31.9292625 9.20050404,31.7877872 C9.06683465,31.6481258 9,31.4685611 9,31.2490931 L9,29.7509069 C9,29.531439 9.06683465,29.3518743 9.20050404,29.2122128 C9.33245965,29.0707376 9.50211691,29 9.70947583,29 L25.2922379,29 Z" id="Shape"></path>
            </g>
            <g id="Narrative" transform="translate(0.000000, 52.000000)" font-family="SourceSansPro-Semibold, Source Sans Pro" font-size="14" font-weight="500">
                <g id="Group">
                    <text id="Narrative">
                        <tspan x="0" y="14">Narrative</tspan>
                    </text>
                </g>
            </g>
        </g>
    </g>
</svg>