<?xml version="1.0" encoding="UTF-8"?>
<svg width="33px" height="59px" viewBox="0 0 33 59" version="1.1" xmlns="http://www.w3.org/2000/svg" xmlns:xlink="http://www.w3.org/1999/xlink">
    <title>place_no-image</title>
    <g id="Page-1" stroke="none" stroke-width="1" fill="none" fill-rule="evenodd">
        <g id="place_no-image" fill="#45626F">
            <g id="Layer-1" transform="translate(5.500000, 0.750000)" fill-rule="nonzero">
                <path d="M15,9.75 C15,12.2393617 12.9893617,14.25 10.5,14.25 C8.0106383,14.25 6,12.2393617 6,9.75 C6,7.2606383 8.0106383,5.25 10.5,5.25 C12.9893617,5.25 15,7.2606383 15,9.75 M0.40625,10.453125 C0.40625,16.034375 7.76875,24.703125 10.5,30.046875 C13.23125,24.821875 20.59375,16.034375 20.59375,10.453125 C20.59375,4.871875 16.08125,0.359375 10.5,0.359375 C4.91875,0.359375 0.40625,4.871875 0.40625,10.453125" id="Shape"></path>
            </g>
            <g id="Place" transform="translate(0.000000, 39.750000)" font-family="SourceSansPro-Semibold, Source Sans Pro" font-size="14" font-weight="500">
                <g id="Group">
                    <text id="Place">
                        <tspan x="0" y="14.25">Place</tspan>
                    </text>
                </g>
            </g>
        </g>
    </g>
</svg>