<?xml version="1.0" encoding="UTF-8"?>
<svg width="94px" height="94px" viewBox="0 0 94 94" version="1.1" xmlns="http://www.w3.org/2000/svg" xmlns:xlink="http://www.w3.org/1999/xlink">
    <!-- Generator: Sketch 61.2 (89653) - https://sketch.com -->
    <title>restart</title>
    <desc>Created with Sketch.</desc>
    <g id="Page-1" stroke="none" stroke-width="1" fill="none" fill-rule="evenodd">
        <g id="restart" transform="translate(1.000000, 1.000000)" fill="#1D0A6E" fill-rule="nonzero" stroke="#1D0A6E" stroke-width="3">
            <path d="M88.526,73.526 L81.545,73.526 C87.652,65.673 90.974,56.082 90.974,45.974 C90.974,21.161 70.787,0.974 45.974,0.974 C21.161,0.974 0.974,21.161 0.974,45.974 C0.974,70.787 21.161,90.974 45.974,90.974 C47.355,90.974 48.474,89.855 48.474,88.474 C48.474,87.093 47.355,85.974 45.974,85.974 C23.918,85.974 5.974,68.03 5.974,45.974 C5.974,23.918 23.918,5.974 45.974,5.974 C68.03,5.974 85.974,23.918 85.974,45.974 C85.974,55.15 82.897,63.85 77.245,70.911 L75.207,63.305 C74.85,61.971 73.475,61.184 72.144,61.537 C70.811,61.894 70.019,63.266 70.376,64.599 L73.611,76.673 C73.9,77.748 74.914,78.526 76.028,78.526 L88.526,78.526 C89.907,78.526 91.026,77.407 91.026,76.026 C91.026,74.645 89.907,73.526 88.526,73.526 Z" id="Path"></path>
            <path d="M48.5,38.5 L48.5,21 C48.5,19.619 47.381,18.5 46,18.5 C44.619,18.5 43.5,19.619 43.5,21 L43.5,38.5 C43.5,39.881 44.619,41 46,41 C47.381,41 48.5,39.881 48.5,38.5 Z" id="Path"></path>
            <path d="M57.431,29.6 C56.3,28.811 54.742,29.087 53.951,30.219 C53.161,31.351 53.437,32.91 54.57,33.7 C58.596,36.511 61,41.109 61,46 C61,54.271 54.271,61 46,61 C37.729,61 31,54.271 31,46 C31,41.109 33.404,36.511 37.431,33.7 C38.564,32.91 38.84,31.351 38.05,30.219 C37.259,29.087 35.701,28.811 34.57,29.6 C29.203,33.346 26,39.477 26,46 C26,57.028 34.972,66 46,66 C57.028,66 66,57.028 66,46 C66,39.477 62.797,33.346 57.431,29.6 Z" id="Path"></path>
        </g>
    </g>
</svg>