<?xml version="1.0"?>
<svg xmlns="http://www.w3.org/2000/svg" xmlns:xlink="http://www.w3.org/1999/xlink" version="1.1" id="Capa_1" x="0px" y="0px" viewBox="0 0 469.333 469.333" style="enable-background:new 0 0 469.333 469.333;" xml:space="preserve" width="512px" height="512px" class=""><g><g>
	<g>
		<g>
			<path d="M426.667,0h-384C19.146,0,0,19.135,0,42.667v384c0,23.531,19.146,42.667,42.667,42.667h384     c23.521,0,42.667-19.135,42.667-42.667v-384C469.333,19.135,450.188,0,426.667,0z M298.667,448h-256     c-11.771,0-21.333-9.573-21.333-21.333v-320h277.333V448z M448,426.667c0,11.76-9.563,21.333-21.333,21.333H320V106.667h128     V426.667z M448,85.333H21.333V42.667c0-11.76,9.563-21.333,21.333-21.333h384c11.771,0,21.333,9.573,21.333,21.333V85.333z" data-original="#000000" class="active-path" data-old_color="#000000" fill="#6b6565"/>
			<circle cx="53.333" cy="53.333" r="10.667" data-original="#000000" class="active-path" data-old_color="#000000" fill="#6b6565"/>
			<circle cx="96" cy="53.333" r="10.667" data-original="#000000" class="active-path" data-old_color="#000000" fill="#6b6565"/>
			<circle cx="138.667" cy="53.333" r="10.667" data-original="#000000" class="active-path" data-old_color="#000000" fill="#6b6565"/>
			<path d="M352,192h64c5.896,0,10.667-4.771,10.667-10.667c0-5.896-4.771-10.667-10.667-10.667h-64     c-5.896,0-10.667,4.771-10.667,10.667C341.333,187.229,346.104,192,352,192z" data-original="#000000" class="active-path" data-old_color="#000000" fill="#6b6565"/>
			<path d="M352,256h64c5.896,0,10.667-4.771,10.667-10.667c0-5.896-4.771-10.667-10.667-10.667h-64     c-5.896,0-10.667,4.771-10.667,10.667C341.333,251.229,346.104,256,352,256z" data-original="#000000" class="active-path" data-old_color="#000000" fill="#6b6565"/>
			<path d="M352,320h64c5.896,0,10.667-4.771,10.667-10.667c0-5.896-4.771-10.667-10.667-10.667h-64     c-5.896,0-10.667,4.771-10.667,10.667C341.333,315.229,346.104,320,352,320z" data-original="#000000" class="active-path" data-old_color="#000000" fill="#6b6565"/>
			<path d="M352,384h42.667c5.896,0,10.667-4.771,10.667-10.667s-4.771-10.667-10.667-10.667H352     c-5.896,0-10.667,4.771-10.667,10.667S346.104,384,352,384z" data-original="#000000" class="active-path" data-old_color="#000000" fill="#6b6565"/>
		</g>
	</g>
</g></g> </svg>
