<?xml version="1.0" encoding="UTF-8"?>
<svg width="34px" height="60px" viewBox="0 0 34 60" version="1.1" xmlns="http://www.w3.org/2000/svg" xmlns:xlink="http://www.w3.org/1999/xlink">
    <!-- Generator: Sketch 62 (91390) - https://sketch.com -->
    <title>Group 2</title>
    <desc>Created with Sketch.</desc>
    <g id="Page-1" stroke="none" stroke-width="1" fill="none" fill-rule="evenodd">
        <g id="Group-2" fill="#9289B7">
            <g id="thing_no-image" transform="translate(0.000000, 42.000000)" font-family="SourceSansPro-Semibold, Source Sans Pro" font-size="14" font-weight="500">
                <g id="Thing">
                    <g id="Group">
                        <text id="Thing">
                            <tspan x="0" y="14">Thing</tspan>
                        </text>
                    </g>
                </g>
            </g>
            <path d="M31.0837747,4.74022851 L18.4900313,0.173652338 C17.8502734,-0.0578841127 17.1497185,-0.0578841127 16.5099606,0.173652338 L3.91621714,4.74022851 C2.76769296,5.15950282 2.00256156,6.25161723 2.0000032,7.47534217 L2.0000032,23.7953661 C1.99827012,24.9671106 2.70057418,26.0249707 3.78046142,26.4772137 L16.3742049,31.7746197 C17.094713,32.0751268 17.9052837,32.0751268 18.6257918,31.7746197 L31.2200197,26.4772137 C32.299667,26.0247583 33.0017354,24.9669711 33.0000032,23.7953661 L33.0000032,7.47534702 C32.9974446,6.25161658 32.2323063,5.1594986 31.0837747,4.74022851 Z M17.1707807,2.05685295 C17.3855176,1.98104902 17.6206154,1.98104902 17.8353524,2.05685295 L30.0000032,6.3643036 L17.438688,11 L5.0000032,6.36647005 L17.1707807,2.05685295 Z M4.6127999,24.888707 C4.2410355,24.736265 3.99924662,24.3791105 4.0000032,23.983527 L4.0000032,8 L17.0000032,12.8640531 L17.0000032,30 L4.6127999,24.888707 Z M30.3876965,24.8894017 L18.0000032,30 L18.0000032,12.8186353 L31.0000032,8 L31.0000032,23.98435 C31.0007568,24.3797341 30.7592144,24.7367623 30.3877015,24.8894017 L30.3876965,24.8894017 Z" id="Shape" fill-rule="nonzero"></path>
        </g>
    </g>
</svg>