<?xml version="1.0" encoding="UTF-8"?>
<svg width="30px" height="60px" viewBox="0 0 30 60" version="1.1" xmlns="http://www.w3.org/2000/svg" xmlns:xlink="http://www.w3.org/1999/xlink">
    <title>concept_no-image</title>
    <g id="Page-1" stroke="none" stroke-width="1" fill="none" fill-rule="evenodd">
        <g id="concept_no-image" transform="translate(0.000000, 1.000000)" fill="#857C70">
            <path d="M16.3139982,-1.77635684e-15 C16.2267833,0.0121764359 16.1520277,0.0487057438 16.1017456,0.110022796 L1.45854557,14.4373392 C0.847151476,15.0474656 0.847151476,16.0241897 1.45854557,16.6221397 L4.12794381,19.2457267 L2.88068206,21.3570338 C2.44371772,22.1015358 2.70580733,23.0408609 3.45425337,23.4679059 L16.3891988,30.7902926 C17.1376448,31.2173376 18.122817,30.973374 18.547322,30.2293068 L28.9499211,12.5943486 C28.999956,12.5095484 29.0126624,12.4117021 28.9872989,12.3260322 L28.9872989,1.54988635 C28.9872989,1.17154709 28.8377877,0.829737135 28.6130759,0.561420671 C28.5881574,0.524891364 28.5632388,0.488362056 28.525861,0.463574311 C28.2517571,0.183081412 27.8521706,-1.77635684e-15 27.4036369,-1.77635684e-15 L16.3393617,-1.77635684e-15 C16.3264574,-1.77635684e-15 16.3139982,-1.77635684e-15 16.3139982,-1.77635684e-15 L16.3139982,-1.77635684e-15 Z M16.5013322,0.683619903 L27.403192,0.683619903 C27.6528223,0.683619903 27.8770891,0.781466264 28.0395046,0.939759931 C28.2019201,1.0980536 28.2891349,1.30592275 28.2891349,1.54988635 L28.2891349,12.2407971 L13.7576233,26.4828784 C13.4083188,26.8246884 12.8592211,26.8246884 12.5103615,26.4828784 L1.95736128,16.1459541 C1.60850177,15.8041441 1.60850177,15.2670763 1.95736128,14.9257012 L16.5013322,0.683619903 L16.5013322,0.683619903 Z M24.1103853,3.03889051 C23.6489474,3.03889051 23.1995238,3.20979549 22.8506643,3.55160544 C22.1645146,4.22261403 22.1645146,5.33327894 22.8506643,6.01689884 C23.5488283,6.68790744 24.6839566,6.68790744 25.3701064,6.01689884 C26.0682704,5.33327894 26.0682704,4.22304891 25.3701064,3.55160544 C25.0332611,3.20979549 24.558919,3.03889051 24.1103853,3.03889051 L24.1103853,3.03889051 Z M24.1103853,3.73425198 C24.3844892,3.73425198 24.6719424,3.8199219 24.8837499,4.02735619 C25.307365,4.44222475 25.307365,5.11366822 24.8837499,5.52853679 C24.4596898,5.94340536 23.7735401,5.94340536 23.34948,5.52853679 C22.9254199,5.11366822 22.9254199,4.44222475 23.34948,4.02735619 C23.5612876,3.8199219 23.8353915,3.73425198 24.1103853,3.73425198 L24.1103853,3.73425198 Z M27.0165097,14.4860449 L17.9483872,29.8879318 C17.6987569,30.3028003 17.1621184,30.4245647 16.7380583,30.1927775 L3.81557215,22.8825672 C3.39151206,22.6381688 3.24200084,22.1258887 3.4911862,21.7110202 L4.65123308,19.7462652 L12.0226702,26.9708056 C12.6336193,27.5687556 13.6316957,27.5687556 14.2555491,26.9708056 L27.0165097,14.4860449 L27.0165097,14.4860449 Z" id="Shape" stroke="#857C70" stroke-width="0.5" fill-rule="nonzero"></path>
            <g id="Concep" transform="translate(0.000000, 40.000000)" font-family="SourceSansPro-Semibold, Source Sans Pro" font-size="14" font-weight="500">
                <g id="Group">
                    <text id="Type">
                        <tspan x="0" y="14.125">Type</tspan>
                    </text>
                </g>
            </g>
        </g>
    </g>
</svg>