<?xml version="1.0" encoding="UTF-8" standalone="no"?><!DOCTYPE svg PUBLIC "-//W3C//DTD SVG 1.1//EN" "http://www.w3.org/Graphics/SVG/1.1/DTD/svg11.dtd"><svg width="100%" height="100%" viewBox="0 0 32 32" version="1.1" xmlns="http://www.w3.org/2000/svg" xmlns:xlink="http://www.w3.org/1999/xlink" xml:space="preserve" style="fill-rule:evenodd;clip-rule:evenodd;stroke-linejoin:round;stroke-miterlimit:10;"><g id="Layer-1"><path d="M26.958,14.216c0,2.252 -1.16,4.293 -3.039,5.776c-0.631,0.498 1.106,6.431 1.106,6.431c0,0 -5.495,-4.29 -6.769,-4.118c-0.584,0.079 -1.185,0.12 -1.798,0.12c-5.799,0 -10.5,-3.675 -10.5,-8.209c0,-4.534 4.701,-8.209 10.5,-8.209c5.799,0 10.5,3.675 10.5,8.209Z" style="fill:none;stroke-width:2.5px;stroke:#000;"/><path d="M13.618,14.509c0,0.833 -0.676,1.509 -1.509,1.509c-0.833,0 -1.509,-0.676 -1.509,-1.509c0,-0.833 0.676,-1.509 1.509,-1.509c0.833,0 1.509,0.676 1.509,1.509" style="fill:#000;fill-rule:nonzero;"/><path d="M18.044,14.661c0,0.833 -0.676,1.509 -1.509,1.509c-0.833,0 -1.509,-0.676 -1.509,-1.509c0,-0.833 0.676,-1.509 1.509,-1.509c0.833,0 1.509,0.676 1.509,1.509" style="fill:#000;fill-rule:nonzero;"/><path d="M22.47,14.661c0,0.833 -0.676,1.509 -1.509,1.509c-0.833,0 -1.509,-0.676 -1.509,-1.509c0,-0.833 0.676,-1.509 1.509,-1.509c0.833,0 1.509,0.676 1.509,1.509" style="fill:#000;fill-rule:nonzero;"/></g></svg>