<?xml version="1.0" encoding="UTF-8" standalone="no"?>
<!DOCTYPE svg PUBLIC "-//W3C//DTD SVG 1.1//EN" "http://www.w3.org/Graphics/SVG/1.1/DTD/svg11.dtd">
<svg width="100%" height="100%" viewBox="0 0 178 178" version="1.1" xmlns="http://www.w3.org/2000/svg" xmlns:xlink="http://www.w3.org/1999/xlink" xml:space="preserve" style="fill-rule:evenodd;clip-rule:evenodd;stroke-linejoin:round;stroke-miterlimit:10;">
    <g transform="matrix(1,0,0,1,-3500,-0)">
        <g id="Page-19" transform="matrix(5.55556,0,0,5.55556,3500,0)">
            <g id="Layer-1">
                <path d="M26.958,14.216C26.958,16.468 25.798,18.509 23.919,19.992C23.288,20.49 25.025,26.423 25.025,26.423C25.025,26.423 19.53,22.133 18.256,22.305C17.672,22.384 17.071,22.425 16.458,22.425C10.659,22.425 5.958,18.75 5.958,14.216C5.958,9.682 10.659,6.007 16.458,6.007C22.257,6.007 26.958,9.682 26.958,14.216Z" style="fill:none;stroke-width:2.5px;stroke:white;"/>
                <path d="M13.618,14.509C13.618,15.342 12.942,16.018 12.109,16.018C11.276,16.018 10.6,15.342 10.6,14.509C10.6,13.676 11.276,13 12.109,13C12.942,13 13.618,13.676 13.618,14.509" style="fill:white;fill-rule:nonzero;"/>
                <path d="M18.044,14.661C18.044,15.494 17.368,16.17 16.535,16.17C15.702,16.17 15.026,15.494 15.026,14.661C15.026,13.828 15.702,13.152 16.535,13.152C17.368,13.152 18.044,13.828 18.044,14.661" style="fill:white;fill-rule:nonzero;"/>
                <path d="M22.47,14.661C22.47,15.494 21.795,16.17 20.961,16.17C20.129,16.17 19.452,15.494 19.452,14.661C19.452,13.828 20.129,13.152 20.961,13.152C21.795,13.152 22.47,13.828 22.47,14.661" style="fill:white;fill-rule:nonzero;"/>
            </g>
        </g>
    </g>
</svg>
