<?xml version="1.0" encoding="UTF-8" standalone="no"?>
<!DOCTYPE svg PUBLIC "-//W3C//DTD SVG 1.1//EN" "http://www.w3.org/Graphics/SVG/1.1/DTD/svg11.dtd">
<svg width="100%" height="100%" viewBox="0 0 178 178" version="1.1" xmlns="http://www.w3.org/2000/svg" xmlns:xlink="http://www.w3.org/1999/xlink" xml:space="preserve" style="fill-rule:evenodd;clip-rule:evenodd;stroke-linejoin:round;stroke-miterlimit:1.41421;">
    <g transform="matrix(1,0,0,1,-1000,-0)">
        <g id="Page-7" transform="matrix(5.55556,0,0,5.55556,1000,0)">
            <g id="Layer-1">
                <text x="6.216px" y="26.603px" style="font-family:'KohinoorBangla-Semibold', 'Kohinoor Bangla';font-weight:600;font-size:11px;fill:white;">text</text>
                <path d="M11.391,5.973C10.635,6.729 10.256,7.638 10.256,8.698C10.256,9.759 10.635,10.667 11.391,11.423C12.147,12.18 13.06,12.558 14.128,12.558C15.196,12.558 16.107,12.182 16.859,11.429C17.611,10.677 17.987,9.766 17.987,8.698C17.987,7.63 17.611,6.72 16.859,5.967C16.107,5.215 15.196,4.838 14.128,4.838C13.06,4.838 12.147,5.217 11.391,5.973M18.877,11.751L22.386,15.259C22.44,15.322 22.467,15.392 22.467,15.47C22.467,15.548 22.44,15.618 22.386,15.681L21.111,16.955C21.048,17.01 20.978,17.037 20.9,17.037C20.822,17.037 20.752,17.01 20.689,16.955L17.181,13.447C16.253,14.055 15.235,14.359 14.128,14.359C12.568,14.359 11.235,13.805 10.128,12.698C9.021,11.591 8.467,10.258 8.467,8.698C8.467,7.139 9.021,5.805 10.128,4.698C11.235,3.591 12.568,3.037 14.128,3.037C15.687,3.037 17.021,3.591 18.128,4.698C19.235,5.805 19.789,7.139 19.789,8.698C19.789,9.805 19.485,10.823 18.877,11.751" style="fill:white;fill-rule:nonzero;"/>
            </g>
        </g>
    </g>
</svg>
