<?xml version="1.0" encoding="UTF-8" standalone="no"?>
<!DOCTYPE svg PUBLIC "-//W3C//DTD SVG 1.1//EN" "http://www.w3.org/Graphics/SVG/1.1/DTD/svg11.dtd">
<svg width="100%" height="100%" viewBox="0 0 178 178" version="1.1" xmlns="http://www.w3.org/2000/svg" xmlns:xlink="http://www.w3.org/1999/xlink" xml:space="preserve" style="fill-rule:evenodd;clip-rule:evenodd;stroke-linejoin:round;stroke-miterlimit:1.41421;">
    <g transform="matrix(1,0,0,1,-250.984,-3.05266)">
        <g id="Page-3" transform="matrix(5.55556,0,0,5.55556,250.984,3.05266)">
            <g id="Layer-1">
                <path d="M20.532,12.358C20.532,14.75 18.6,16.682 16.208,16.682C13.816,16.682 11.884,14.75 11.884,12.358C11.884,9.966 13.816,8.034 16.208,8.034C18.6,8.034 20.532,9.966 20.532,12.358M8.388,12.542C8.388,16.866 14.092,23.582 16.208,27.722C18.324,23.674 24.028,16.866 24.028,12.542C24.028,8.218 20.532,4.722 16.208,4.722C11.884,4.722 8.388,8.218 8.388,12.542" style="fill:white;fill-rule:nonzero;"/>
            </g>
        </g>
    </g>
</svg>
