<?xml version="1.0" encoding="UTF-8" standalone="no"?><!DOCTYPE svg PUBLIC "-//W3C//DTD SVG 1.1//EN" "http://www.w3.org/Graphics/SVG/1.1/DTD/svg11.dtd"><svg width="100%" height="100%" viewBox="0 0 188 40" version="1.1" xmlns="http://www.w3.org/2000/svg" xmlns:xlink="http://www.w3.org/1999/xlink" xml:space="preserve" style="fill-rule:evenodd;clip-rule:evenodd;stroke-miterlimit:10;"><g id="Layer-1"><g transform="matrix(1,0,0,1,-0.96,0)"><g transform="matrix(0.992061,0,0,1,0.343283,0)"><path d="M54.779,25.401c0,-1.008 -0.252,-3.582 -2.25,-4.104c1.584,-0.54 2.358,-1.872 2.358,-3.258c0,-2.07 -1.476,-3.654 -4.896,-3.654l-4.194,0c-0.45,0 -0.81,0.378 -0.81,0.828l0,11.016c0,0.45 0.36,0.81 0.81,0.81c0.45,0 0.828,-0.36 0.828,-0.81l0,-4.176l3.726,0c2.718,0 2.79,2.448 2.79,3.636l0,0.54c0,0.486 0.324,0.81 0.828,0.81c0.45,0 0.81,-0.36 0.81,-0.81l0,-0.828Zm-4.896,-4.896l-3.258,0l0,-4.572l3.168,0c2.664,0 3.456,0.9 3.456,2.232c0,1.53 -1.35,2.34 -3.366,2.34Z" style="fill:#1a1a1a;fill-rule:nonzero;"/><path d="M64.699,24.969c-0.126,0 -0.216,0.018 -0.324,0.072c-0.666,0.342 -1.35,0.558 -2.43,0.558c-1.944,0 -2.97,-1.044 -3.15,-2.664l6.102,0c0.504,0 0.828,-0.36 0.828,-0.81c0,-2.394 -1.512,-4.536 -4.284,-4.536c-2.988,0 -4.302,2.34 -4.302,4.77c0,3.024 1.728,4.77 4.662,4.77c1.566,0 2.358,-0.342 3.15,-0.792c0.252,-0.144 0.468,-0.378 0.468,-0.666c0,-0.414 -0.342,-0.702 -0.72,-0.702Zm-3.258,-5.994c1.152,0 2.556,0.756 2.664,2.628l-5.31,0c0.108,-1.872 1.494,-2.628 2.646,-2.628Z" style="fill:#1a1a1a;fill-rule:nonzero;"/><path d="M69.219,20.343c0,-0.72 0.738,-1.26 2.07,-1.26c0.792,0 1.476,0.144 2.052,0.324c0.072,0.018 0.144,0.036 0.234,0.036c0.414,0 0.72,-0.342 0.72,-0.72c0,-0.27 -0.18,-0.576 -0.522,-0.684c-0.738,-0.27 -1.62,-0.45 -2.61,-0.45c-2.34,0 -3.51,1.224 -3.51,2.844c0,3.276 5.4,2.358 5.4,3.906c0,0.81 -0.612,1.278 -1.998,1.278c-1.062,0 -1.8,-0.252 -2.448,-0.54c-0.126,-0.054 -0.216,-0.072 -0.324,-0.072c-0.414,0 -0.702,0.36 -0.702,0.72c0,0.252 0.126,0.468 0.306,0.594c0.918,0.504 1.962,0.81 3.276,0.81c2.304,0 3.474,-1.206 3.474,-2.664c0,-3.528 -5.418,-2.25 -5.418,-4.122Z" style="fill:#1a1a1a;fill-rule:nonzero;"/><path d="M83.999,24.969c-0.126,0 -0.216,0.018 -0.324,0.072c-0.666,0.342 -1.35,0.558 -2.43,0.558c-1.944,0 -2.97,-1.044 -3.15,-2.664l6.102,0c0.504,0 0.828,-0.36 0.828,-0.81c0,-2.394 -1.512,-4.536 -4.284,-4.536c-2.988,0 -4.302,2.34 -4.302,4.77c0,3.024 1.728,4.77 4.662,4.77c1.566,0 2.358,-0.342 3.15,-0.792c0.252,-0.144 0.468,-0.378 0.468,-0.666c0,-0.414 -0.342,-0.702 -0.72,-0.702Zm-3.258,-5.994c1.152,0 2.556,0.756 2.664,2.628l-5.31,0c0.108,-1.872 1.494,-2.628 2.646,-2.628Z" style="fill:#1a1a1a;fill-rule:nonzero;"/></g><g transform="matrix(0.992061,0,0,1,0.680181,0)"><path d="M90.555,17.589c-1.278,0 -2.268,0.288 -3.114,0.648c-0.306,0.126 -0.468,0.378 -0.468,0.684c0,0.396 0.306,0.684 0.666,0.684c0.072,0 0.162,-0.018 0.234,-0.036c0.666,-0.216 1.386,-0.432 2.394,-0.432c1.62,0 2.412,0.63 2.412,2.232l0,0.144l-2.178,0c-2.808,0 -4.14,1.224 -4.14,2.916c0,1.692 1.368,2.7 2.934,2.7c1.692,0 2.736,-0.702 3.384,-1.368l0,0.468c0,0.45 0.36,0.81 0.81,0.81c0.45,0 0.828,-0.36 0.828,-0.81l0,-5.094c0,-1.764 -1.134,-3.546 -3.762,-3.546Zm-0.648,8.1c-1.458,0 -1.908,-0.666 -1.908,-1.44c0,-1.026 1.026,-1.422 2.718,-1.422l1.962,0l0,1.512c-0.612,0.702 -1.656,1.35 -2.772,1.35Z" style="fill:#1a1a1a;fill-rule:nonzero;"/></g><g transform="matrix(0.992061,0,0,1,0.759648,0)"><path d="M101.663,17.589l-0.09,0c-1.242,0 -2.178,0.828 -2.826,1.692l0,-0.774c0,-0.45 -0.378,-0.828 -0.828,-0.828c-0.45,0 -0.81,0.378 -0.81,0.828l0,7.722c0,0.45 0.36,0.81 0.81,0.81c0.45,0 0.828,-0.36 0.828,-0.81l0,-5.472c0.63,-0.936 1.602,-1.584 2.79,-1.584l0.09,0c0.468,0 0.828,-0.306 0.828,-0.774c0,-0.45 -0.342,-0.81 -0.792,-0.81Z" style="fill:#1a1a1a;fill-rule:nonzero;"/><path d="M111.097,24.915c-0.144,0 -0.234,0.018 -0.396,0.108c-0.63,0.324 -1.134,0.576 -2.07,0.576c-2.088,0 -3.312,-1.314 -3.312,-3.24c0,-1.926 1.224,-3.24 3.312,-3.24c0.936,0 1.44,0.252 2.07,0.576c0.162,0.09 0.252,0.108 0.396,0.108c0.378,0 0.684,-0.378 0.684,-0.72c0,-0.27 -0.144,-0.486 -0.36,-0.63c-0.612,-0.396 -1.512,-0.864 -2.934,-0.864c-2.556,0 -4.806,1.764 -4.806,4.77c0,3.006 2.25,4.77 4.806,4.77c1.422,0 2.322,-0.468 2.934,-0.864c0.216,-0.144 0.36,-0.36 0.36,-0.63c0,-0.342 -0.306,-0.72 -0.684,-0.72Z" style="fill:#1a1a1a;fill-rule:nonzero;"/></g><g transform="matrix(0.992061,0,0,1,0.893648,0)"><path d="M118.974,17.589c-1.602,0 -2.592,0.828 -3.348,1.656l0,-4.698c0,-0.468 -0.378,-0.828 -0.828,-0.828c-0.45,0 -0.81,0.36 -0.81,0.828l0,11.682c0,0.45 0.36,0.81 0.81,0.81c0.45,0 0.828,-0.36 0.828,-0.81l0,-5.4c0.72,-0.9 1.656,-1.728 2.952,-1.728c1.404,0 1.98,0.828 1.98,2.196l0,4.932c0,0.45 0.36,0.81 0.81,0.81c0.45,0 0.828,-0.36 0.828,-0.81l0,-5.112c0,-1.926 -1.17,-3.528 -3.222,-3.528Z" style="fill:#1a1a1a;fill-rule:nonzero;"/><path d="M126.21,17.769c0,-1.35 1.386,-2.052 3.204,-2.052c1.098,0 2.07,0.198 2.898,0.486c0.09,0.036 0.198,0.072 0.288,0.072c0.45,0 0.72,-0.396 0.72,-0.756c0,-0.432 -0.252,-0.63 -0.504,-0.72c-0.972,-0.36 -2.178,-0.594 -3.582,-0.594c-3.042,0 -4.662,1.692 -4.662,3.69c0,4.428 7.65,2.952 7.65,5.616c0,1.566 -1.368,2.07 -3.15,2.07c-1.548,0 -2.736,-0.378 -3.546,-0.738c-0.126,-0.054 -0.234,-0.072 -0.342,-0.072c-0.45,0 -0.738,0.36 -0.738,0.756c0,0.324 0.234,0.63 0.504,0.738c1.044,0.45 2.484,0.864 4.284,0.864c2.79,0 4.608,-1.476 4.608,-3.51c0,-4.752 -7.632,-2.736 -7.632,-5.85Z" style="fill:#1a1a1a;fill-rule:nonzero;"/></g><g transform="matrix(0.992061,0,0,1,1.06731,0)"><path d="M140.579,27.129c2.178,0 4.356,-1.71 4.356,-4.77c0,-3.06 -2.178,-4.77 -4.356,-4.77c-1.26,0 -2.25,0.504 -3.078,1.368l0,-0.468c0,-0.45 -0.36,-0.81 -0.828,-0.81c-0.45,0 -0.81,0.36 -0.81,0.81l0,11.862c0,0.468 0.36,0.828 0.81,0.828c0.468,0 0.828,-0.36 0.828,-0.828l0,-4.59c0.828,0.864 1.818,1.368 3.078,1.368Zm-0.234,-8.01c1.71,0 2.952,1.116 2.952,3.24c0,2.124 -1.242,3.24 -2.952,3.24c-1.17,0 -2.142,-0.576 -2.844,-1.35l0,-3.78c0.702,-0.774 1.674,-1.35 2.844,-1.35Z" style="fill:#1a1a1a;fill-rule:nonzero;"/><path d="M150.877,17.589c-1.278,0 -2.268,0.288 -3.114,0.648c-0.306,0.126 -0.468,0.378 -0.468,0.684c0,0.396 0.306,0.684 0.666,0.684c0.072,0 0.162,-0.018 0.234,-0.036c0.666,-0.216 1.386,-0.432 2.394,-0.432c1.62,0 2.412,0.63 2.412,2.232l0,0.144l-2.178,0c-2.808,0 -4.14,1.224 -4.14,2.916c0,1.692 1.368,2.7 2.934,2.7c1.692,0 2.736,-0.702 3.384,-1.368l0,0.468c0,0.45 0.36,0.81 0.81,0.81c0.45,0 0.828,-0.36 0.828,-0.81l0,-5.094c0,-1.764 -1.134,-3.546 -3.762,-3.546Zm-0.648,8.1c-1.458,0 -1.908,-0.666 -1.908,-1.44c0,-1.026 1.026,-1.422 2.718,-1.422l1.962,0l0,1.512c-0.612,0.702 -1.656,1.35 -2.772,1.35Z" style="fill:#1a1a1a;fill-rule:nonzero;"/></g><g transform="matrix(0.992061,0,0,1,1.2386,0)"><path d="M164.26,24.915c-0.144,0 -0.234,0.018 -0.396,0.108c-0.63,0.324 -1.134,0.576 -2.07,0.576c-2.088,0 -3.312,-1.314 -3.312,-3.24c0,-1.926 1.224,-3.24 3.312,-3.24c0.936,0 1.44,0.252 2.07,0.576c0.162,0.09 0.252,0.108 0.396,0.108c0.378,0 0.684,-0.378 0.684,-0.72c0,-0.27 -0.144,-0.486 -0.36,-0.63c-0.612,-0.396 -1.512,-0.864 -2.934,-0.864c-2.556,0 -4.806,1.764 -4.806,4.77c0,3.006 2.25,4.77 4.806,4.77c1.422,0 2.322,-0.468 2.934,-0.864c0.216,-0.144 0.36,-0.36 0.36,-0.63c0,-0.342 -0.306,-0.72 -0.684,-0.72Z" style="fill:#1a1a1a;fill-rule:nonzero;"/></g><g transform="matrix(0.992061,0,0,1,1.31458,0)"><path d="M174.03,24.969c-0.126,0 -0.216,0.018 -0.324,0.072c-0.666,0.342 -1.35,0.558 -2.43,0.558c-1.944,0 -2.97,-1.044 -3.15,-2.664l6.102,0c0.504,0 0.828,-0.36 0.828,-0.81c0,-2.394 -1.512,-4.536 -4.284,-4.536c-2.988,0 -4.302,2.34 -4.302,4.77c0,3.024 1.728,4.77 4.662,4.77c1.566,0 2.358,-0.342 3.15,-0.792c0.252,-0.144 0.468,-0.378 0.468,-0.666c0,-0.414 -0.342,-0.702 -0.72,-0.702Zm-3.258,-5.994c1.152,0 2.556,0.756 2.664,2.628l-5.31,0c0.108,-1.872 1.494,-2.628 2.646,-2.628Z" style="fill:#1a1a1a;fill-rule:nonzero;"/></g></g><path d="M33.24,20.034c0,4.418 -3.582,8 -8,8c-4.418,0 -8,-3.582 -8,-8c0,-4.418 3.582,-8 8,-8c4.418,0 8,3.582 8,8Z" style="fill:none;stroke:#1a1a1a;stroke-width:1.2px;"/><path d="M36.173,20c0,7.179 -5.82,13 -13,13c-7.18,0 -13,-5.821 -13,-13c0,-7.18 5.82,-13 13,-13c7.18,0 13,5.82 13,13Z" style="fill:none;stroke:#1a1a1a;stroke-width:1.2px;"/></g></svg>