<svg xmlns="http://www.w3.org/2000/svg" xmlns:xlink="http://www.w3.org/1999/xlink" version="1.1" x="0px" y="0px" viewBox="0 0 100 100" style="enable-background:new 0 0 100 100;" xml:space="preserve"><path d="M78.7,15.5c0-0.5,0-1.1,0-1.6c0-0.8-0.3-1.1-1.1-1.1c-0.9,0-1.8,0-2.7,0c-0.1-1.1-0.2-2.2-0.3-3.3c0.1-0.1,0.1-0.2,0.2-0.3  c0.1-0.1,0.1-0.1,0.1-0.2c0.4-0.6,0.9-1.4,0.7-2.4c-0.1-0.7-0.6-1.2-1.3-1.7c-0.5-0.3-1.1-0.5-1.6-0.5l0,0l0,0  c-0.6,0-1.1,0.2-1.6,0.5c-0.7,0.4-1.2,1-1.3,1.7c-0.2,1,0.3,1.9,0.7,2.4c0,0.1,0.1,0.1,0.1,0.2c0.1,0.1,0.1,0.2,0.2,0.3  c-0.1,1.1-0.2,2.2-0.3,3.3c-0.8,0-1.7,0-2.5,0c-1,0-1.2,0.2-1.2,1.2c0,0.5,0,0.9,0,1.4H30.5c0-0.5,0-1.1,0-1.6  c0-0.8-0.3-1.1-1.1-1.1c-0.9,0-1.8,0-2.7,0c-0.1-1.1-0.2-2.2-0.3-3.3c0.1-0.1,0.1-0.2,0.2-0.3c0.1-0.1,0.1-0.1,0.1-0.2  c0.4-0.6,0.9-1.4,0.7-2.4c-0.1-0.7-0.6-1.2-1.3-1.7c-0.5-0.3-1.1-0.5-1.6-0.5l0,0l0,0c-0.6,0-1.1,0.2-1.6,0.5  c-0.7,0.4-1.2,1-1.3,1.7c-0.2,1,0.3,1.9,0.7,2.4c0,0.1,0.1,0.1,0.1,0.2c0.1,0.1,0.1,0.2,0.2,0.3c-0.1,1.1-0.2,2.2-0.3,3.3  c-0.8,0-1.7,0-2.5,0c-1,0-1.2,0.2-1.2,1.2c0,0.5,0,0.9,0,1.4H10v80.1H90V15.5H78.7z M71.5,8.3c-0.7-1-0.7-1.7,0.2-2.2  c0.3-0.2,0.6-0.3,1-0.3c0.3,0,0.7,0.1,1,0.3c0.9,0.5,1,1.2,0.2,2.2c-0.2,0.3-0.6,0.8-0.6,1.1c0.1,1.1,0.2,2.3,0.3,3.4  c-0.3,0-0.6,0-0.9,0c-0.3,0-0.6,0-1,0c0.1-1.1,0.2-2.2,0.3-3.4C72.1,9.1,71.7,8.7,71.5,8.3z M23.3,8.3c-0.7-1-0.7-1.7,0.2-2.2  c0.3-0.2,0.6-0.3,1-0.3c0.3,0,0.7,0.1,1,0.3c0.9,0.5,1,1.2,0.2,2.2c-0.2,0.3-0.6,0.8-0.6,1.1c0.1,1.1,0.2,2.3,0.3,3.4  c-0.3,0-0.6,0-0.9,0c-0.3,0-0.6,0-1,0c0.1-1.1,0.2-2.2,0.3-3.4C23.9,9.1,23.5,8.7,23.3,8.3z M88.7,94.2H11.3V16.8h7.2  c0,0.6,0,1.2,0,1.8c0,0.2,0,0.5-0.1,0.7c-0.3,0.7-0.1,1,0.6,1.1c0.2,0,1.1,0,2.3,0v0h1c1.2,0,2.6,0,3.9,0c0,0,0,0,0,0h1.5v0  c1.3,0,2.2,0,2.4,0c0.6,0,0.8-0.4,0.7-0.9c-0.1-0.4-0.2-0.8-0.2-1.2c0-0.5,0-1,0-1.5h36.2c0,0.6,0,1.2,0,1.8c0,0.2,0,0.5-0.1,0.7  c-0.3,0.7-0.1,1,0.6,1.1c0.2,0,1.1,0,2.3,0v0h1c1.2,0,2.6,0,3.9,0c0,0,0,0,0,0h1.5v0c1.3,0,2.2,0,2.4,0c0.6,0,0.8-0.4,0.7-0.9  c-0.1-0.4-0.2-0.8-0.2-1.2c0-0.5,0-1,0-1.5h10V94.2z"></path><polygon points="51.4,69.2 39.4,50.6 22.3,78 77.7,78 59.3,60.6 "></polygon><circle cx="50" cy="42.6" r="6"></circle></svg>