<svg xmlns="http://www.w3.org/2000/svg" xmlns:xlink="http://www.w3.org/1999/xlink" version="1.1" x="0px" y="0px" viewBox="0 0 100 100" enable-background="new 0 0 100 100" xml:space="preserve"><g display="none"><rect x="-653" y="-557" display="inline" fill="#000000" width="1596" height="1700"></rect></g><g><path d="M82,25h-8v-2c0-2.209-1.791-4-4-4h-4c-2.209,0-4,1.791-4,4v2H39v-2c0-2.209-1.791-4-4-4h-4c-2.209,0-4,1.791-4,4v2h-9   c-1.104,0-2,0.896-2,2v50c0,1.104,0.896,2,2,2h64c1.104,0,2-0.896,2-2V27C84,25.896,83.104,25,82,25z M66,23h4v8h-4V23z M31,23h4v8   h-4V23z M80,75H20V29h9v2c0,1.104,0.896,2,2,2h4c1.104,0,2-0.896,2-2v-2h27v2c0,1.104,0.896,2,2,2h4c1.104,0,2-0.896,2-2v-2h8V75z    M76,71H24V41h52V71z M26,69h48V43H26V69z M45,51h-6v-6h6V51z M53,45h-6v6h6V45z M61,45h-6v6h6V45z M69,45h-6v6h6V45z M37,53h-6v6   h6V53z M45,53h-6v6h6V53z M53,53h-6v6h6V53z M61,53h-6v6h6V53z M37,61h-6v6h6V61z M45,61h-6v6h6V61z M53,61h-6v6h6V61z M61,61h-6v6   h6V61z M69,53h-6v6h6V53z"></path></g></svg>