<svg xmlns="http://www.w3.org/2000/svg" xmlns:xlink="http://www.w3.org/1999/xlink" xmlns:sketch="http://www.bohemiancoding.com/sketch/ns" viewBox="0 0 54 54" version="1.1" x="0px" y="0px"><title>arrows-108</title><desc>Created with Sketch.</desc><g stroke="none" stroke-width="1" fill="none" fill-rule="evenodd" sketch:type="MSPage"><g sketch:type="MSLayerGroup" fill="#000000"><path d="M27,54 C12.112,54 0,41.888 0,27 C0,12.112 12.112,0 27,0 C41.888,0 54,12.112 54,27 C54,41.888 41.888,54 27,54 L27,54 Z M27,2 C13.215,2 2,13.215 2,27 C2,40.785 13.215,52 27,52 C40.785,52 52,40.785 52,27 C52,13.215 40.785,2 27,2 L27,2 Z" sketch:type="MSShapeGroup"></path><path d="M35,45 C32.794,45 31,43.206 31,41 L31,37 L23,37 L23,41 C23,43.206 21.206,45 19,45 C16.794,45 15,43.206 15,41 L15,37 L12,37 C9.794,37 8,35.206 8,33 C8,30.794 9.794,29 12,29 L15,29 L15,25 L12,25 C9.794,25 8,23.206 8,21 C8,18.794 9.794,17 12,17 L15,17 L15,13 C15,10.794 16.794,9 19,9 C21.206,9 23,10.794 23,13 L23,17 L31,17 L31,13 C31,10.794 32.794,9 35,9 C37.206,9 39,10.794 39,13 L39,17 L42,17 C44.206,17 46,18.794 46,21 C46,23.206 44.206,25 42,25 L39,25 L39,29 L42,29 C44.206,29 46,30.794 46,33 C46,35.206 44.206,37 42,37 L39,37 L39,41 C39,43.206 37.206,45 35,45 L35,45 Z M22,35 L32,35 C32.553,35 33,35.448 33,36 L33,41 C33,42.103 33.897,43 35,43 C36.103,43 37,42.103 37,41 L37,36 C37,35.448 37.447,35 38,35 L42,35 C43.103,35 44,34.103 44,33 C44,31.897 43.103,31 42,31 L38,31 C37.447,31 37,30.552 37,30 L37,24 C37,23.448 37.447,23 38,23 L42,23 C43.103,23 44,22.103 44,21 C44,19.897 43.103,19 42,19 L38,19 C37.447,19 37,18.552 37,18 L37,13 C37,11.897 36.103,11 35,11 C33.897,11 33,11.897 33,13 L33,18 C33,18.552 32.553,19 32,19 L22,19 C21.447,19 21,18.552 21,18 L21,13 C21,11.897 20.102,11 19,11 C17.897,11 17,11.897 17,13 L17,18 C17,18.552 16.553,19 16,19 L12,19 C10.897,19 10,19.897 10,21 C10,22.103 10.897,23 12,23 L16,23 C16.553,23 17,23.448 17,24 L17,30 C17,30.552 16.553,31 16,31 L12,31 C10.897,31 10,31.897 10,33 C10,34.103 10.897,35 12,35 L16,35 C16.553,35 17,35.448 17,36 L17,41 C17,42.103 17.897,43 19,43 C20.102,43 21,42.103 21,41 L21,36 C21,35.448 21.447,35 22,35 L22,35 Z M32,31 L22,31 C21.447,31 21,30.552 21,30 L21,24 C21,23.448 21.447,23 22,23 L32,23 C32.553,23 33,23.448 33,24 L33,30 C33,30.552 32.553,31 32,31 L32,31 Z M23,29 L31,29 L31,25 L23,25 L23,29 Z" sketch:type="MSShapeGroup"></path></g></g></svg>