<svg xmlns="http://www.w3.org/2000/svg" xmlns:xlink="http://www.w3.org/1999/xlink" version="1.1" x="0px" y="0px" viewBox="0 0 100 100" enable-background="new 0 0 100 100" xml:space="preserve"><path fill="#000000" d="M50,25c-13.807,0-25,11.193-25,25c0,13.807,11.193,25,25,25c13.807,0,25-11.193,25-25  C75,36.193,63.807,25,50,25z M50,36.498c3.139,0,5.683,2.544,5.683,5.683c0,3.138-2.544,5.683-5.683,5.683s-5.683-2.544-5.683-5.683  C44.317,39.042,46.861,36.498,50,36.498z M56.013,61.417v-8.498h-0.418v10.583H44.387V52.919H43.97v8.498h-4.237l1.13-8.619  c0-2.496,2.022-4.518,4.519-4.518h9.314c2.495,0,4.518,2.022,4.518,4.518l1.055,8.619H56.013z"></path></svg>