<svg xmlns="http://www.w3.org/2000/svg" xmlns:xlink="http://www.w3.org/1999/xlink" version="1.1" x="0px" y="0px" viewBox="0 0 48 48" style="enable-background:new 0 0 48 48;" xml:space="preserve"><path d="M42.3339844,24c0,10.109375-8.2246094,18.3339844-18.3339844,18.3339844  C13.8911133,42.3339844,5.6665039,34.109375,5.6665039,24C5.6669922,13.890625,13.8916016,5.6660156,24,5.6660156  c4.1347656,0,8.0507812,1.3730469,11.2568359,3.8803711V6.6572266c0-0.5522461,0.4472656-1,1-1s1,0.4477539,1,1v5.0859375  c0,0.1298828-0.0263672,0.2597656-0.0771484,0.3818359c-0.1015625,0.2446289-0.2958984,0.4394531-0.5410156,0.5410156  c-0.1220703,0.0507812-0.2519531,0.0771484-0.3818359,0.0771484h-5.0859375c-0.5527344,0-1-0.4477539-1-1s0.4472656-1,1-1h2.3466797  C30.7597656,8.7543945,27.4667969,7.6660156,24,7.6660156C14.9941406,7.6660156,7.6669922,14.9936523,7.6665039,24  c0,9.0068359,7.3271484,16.3339844,16.3334961,16.3339844c9.0068359,0,16.3339844-7.3271484,16.3339844-16.3339844  c0-0.5522461,0.4472656-1,1-1S42.3339844,23.4477539,42.3339844,24z M25,23V11c0-0.5522461-0.4472656-1-0.9995117-1  s-1,0.4477539-1,1v13c0,0.5522461,0.4477539,1,1,1h12.9907227c0.5527344,0,1-0.4477539,1-1s-0.4472656-1-1-1H25z   M23.2900391,35.2900391C23.1098633,35.4794922,23,35.7294922,23,36c0,0.2597656,0.1098633,0.5195312,0.2900391,0.7099609  C23.4799805,36.8896484,23.7397461,37,24,37c0.2700195,0,0.5200195-0.1103516,0.7099609-0.2900391  C24.8896484,36.5195312,25,36.2597656,25,36s-0.1103516-0.5205078-0.2900391-0.7099609  C24.3398438,34.9199219,23.6699219,34.9199219,23.2900391,35.2900391z M11.2900391,23.2900391  C11.1098633,23.4799805,11,23.7397461,11,24c0,0.2597656,0.1098633,0.5200195,0.2900391,0.7099609  C11.4799805,24.8896484,11.7397461,25,12,25c0.2597656,0,0.5200195-0.1103516,0.7099609-0.2900391  C12.8896484,24.5200195,13,24.2597656,13,24c0-0.2602539-0.1103516-0.5200195-0.2900391-0.7099609  C12.3295898,22.9199219,11.6699219,22.9199219,11.2900391,23.2900391z"></path></svg>