<?xml version="1.0" standalone="no"?><!-- Generator: Adobe Fireworks CS6, Export SVG Extension by Aaron Beall (http://fireworks.abeall.com) . Version: 0.6.1  --><!DOCTYPE svg PUBLIC "-//W3C//DTD SVG 1.1//EN" "http://www.w3.org/Graphics/SVG/1.1/DTD/svg11.dtd"><svg id="icons-32-32.fw-search" viewBox="0 0 32 32" style="background-color:#ffffff00" version="1.1"	xmlns="http://www.w3.org/2000/svg" xmlns:xlink="http://www.w3.org/1999/xlink" xml:space="preserve"	x="0px" y="0px" width="32px" height="32px">	<g id="Layer%201">		<path d="M 11.1425 17.534 C 9.347 15.687 9.2476 12.7224 10.9445 10.8862 C 12.6686 9.0206 15.5846 9.0272 17.4326 10.9281 C 19.2805 12.8291 19.3169 15.8597 17.54 17.671 C 15.791 19.4537 12.9379 19.381 11.1425 17.534 ZM 9.2783 19.4918 C 11.722 22.0057 15.3953 22.4894 18.185 20.835 L 22.0795 24.8411 C 22.5161 24.4188 23.2302 24.4445 23.673 24.9 L 24.6 24.0099 C 24.1555 23.5526 24.1543 22.8344 24.599 22.4044 L 20.665 18.355 C 22.4107 15.4353 22.0119 11.4603 19.4426 8.8172 C 16.4304 5.7186 11.6876 5.7428 8.915 8.7985 C 6.2129 11.7768 6.403 16.534 9.2783 19.4918 Z" fill="#000000"/>	</g></svg>