<?xml version="1.0" encoding="UTF-8" standalone="no"?>
<!DOCTYPE svg PUBLIC "-//W3C//DTD SVG 1.1//EN" "http://www.w3.org/Graphics/SVG/1.1/DTD/svg11.dtd">
<svg width="100%" height="100%" viewBox="0 0 178 178" version="1.1" xmlns="http://www.w3.org/2000/svg" xmlns:xlink="http://www.w3.org/1999/xlink" xml:space="preserve" style="fill-rule:evenodd;clip-rule:evenodd;stroke-linejoin:round;stroke-miterlimit:1.41421;">
    <g transform="matrix(1,0,0,1,-2900,-0)">
        <g id="Page-16" transform="matrix(5.55556,0,0,5.55556,2900,0)">
            <g id="Layer-9">
                <path d="M17.549,27.452C19.158,27.238 21.058,26.354 22.313,25.397C22.331,25.383 22.345,25.364 22.379,25.327C21.786,24.691 21.194,24.057 20.59,23.409C18.691,24.757 16.598,25.229 14.326,24.77C12.555,24.412 11.092,23.505 9.916,22.138C8.044,19.965 7.434,17.012 8.482,14.342C10.17,10.041 14.763,8.091 18.818,9.685C21.974,10.926 23.765,14.009 23.765,16.767L20.125,16.767L24.851,22.041L29.574,16.774L26.468,16.774C26.373,16.11 26.312,15.469 26.185,14.841C25.808,12.983 24.965,11.355 23.688,9.953C22.153,8.269 20.277,7.177 18.044,6.713C16.986,6.493 15.923,6.448 14.852,6.551C13.118,6.718 11.443,7.35 10.01,8.338C7.652,9.964 6.179,12.218 5.613,15.096C5.43,16.028 5.391,16.958 5.468,17.899C5.646,20.079 6.505,22.166 7.916,23.839C9.515,25.734 11.549,26.925 14.01,27.393C14.378,27.463 15.332,27.559 15.591,27.559C16.246,27.56 16.838,27.546 17.549,27.452" style="fill:white;fill-rule:nonzero;"/>
                <path d="M17.094,11.898L15.376,11.898C15.376,11.898 15.386,15.786 15.388,16.409C15.389,16.571 15.345,16.685 15.229,16.801C14.283,17.738 13.344,18.682 12.403,19.624C12.345,19.682 12.29,19.742 12.247,19.787C12.649,20.189 13.045,20.583 13.451,20.987C13.467,20.973 13.512,20.937 13.552,20.897C14.69,19.759 15.828,18.623 16.96,17.48C17.034,17.405 17.094,17.278 17.094,17.174" style="fill:white;fill-rule:nonzero;"/>
            </g>
        </g>
    </g>
</svg>
