<?xml version="1.0" encoding="UTF-8" standalone="no"?>
<!DOCTYPE svg PUBLIC "-//W3C//DTD SVG 1.1//EN" "http://www.w3.org/Graphics/SVG/1.1/DTD/svg11.dtd">
<svg width="100%" height="100%" viewBox="0 0 178 178" version="1.1" xmlns="http://www.w3.org/2000/svg" xmlns:xlink="http://www.w3.org/1999/xlink" xml:space="preserve" style="fill-rule:evenodd;clip-rule:evenodd;stroke-linejoin:round;stroke-miterlimit:1.41421;">
    <g transform="matrix(1,0,0,1,-2500,-0)">
        <g id="Page-14" transform="matrix(5.55556,0,0,5.55556,2500,0)">
            <g id="Layer-7">
                <rect x="9" y="15" width="3" height="3" style="fill:white;fill-rule:nonzero;"/>
                <rect x="14" y="15" width="3" height="3" style="fill:white;fill-rule:nonzero;"/>
                <rect x="19" y="15" width="3" height="3" style="fill:white;fill-rule:nonzero;"/>
                <rect x="9" y="20" width="3" height="3" style="fill:white;fill-rule:nonzero;"/>
                <rect x="14" y="20" width="3" height="3" style="fill:white;fill-rule:nonzero;"/>
            </g>
            <g id="Layer-5">
                <g transform="matrix(0.18,0,0,0.18,-450,0)">
                    <path d="M2551.2,30.158L2551.2,41.679C2551.2,44.735 2553.7,47.235 2556.76,47.235L2563.24,47.235C2566.29,47.235 2568.79,44.735 2568.79,41.679L2568.79,30.158L2613.52,30.158L2613.52,41.679C2613.52,44.735 2616.02,47.235 2619.08,47.235L2625.56,47.235C2628.61,47.235 2631.11,44.735 2631.11,41.679L2631.11,30.158L2643.03,30.158C2649.15,30.158 2654.15,35.158 2654.15,41.269L2654.15,147.636C2654.15,153.747 2649.15,158.747 2643.03,158.747L2536.67,158.747C2530.56,158.747 2525.56,153.747 2525.56,147.636L2525.56,41.269C2525.56,35.158 2530.56,30.158 2536.67,30.158L2551.2,30.158ZM2633.67,144.446C2636.79,144.446 2638.89,144.567 2638.89,140.74L2638.89,66.668L2538.89,66.668L2538.89,140.74C2538.89,144.567 2540.84,144.446 2543.97,144.446L2633.67,144.446Z" style="fill:white;"/>
                </g>
                <g transform="matrix(0.673988,0,0,0.834559,3.54469,0.866628)">
                    <path d="M12.383,7.502C12.383,8.052 11.933,8.502 11.383,8.502L10.217,8.502C9.667,8.502 9.217,8.052 9.217,7.502L9.217,3.5C9.217,2.95 9.667,2.5 10.217,2.5L11.383,2.5C11.933,2.5 12.383,2.95 12.383,3.5L12.383,7.502Z" style="fill:white;fill-rule:nonzero;"/>
                </g>
                <g transform="matrix(0.673988,0,0,0.834559,14.7382,0.913352)">
                    <path d="M12.383,7.502C12.383,8.052 11.933,8.502 11.383,8.502L10.217,8.502C9.667,8.502 9.217,8.052 9.217,7.502L9.217,3.5C9.217,2.95 9.667,2.5 10.217,2.5L11.383,2.5C11.933,2.5 12.383,2.95 12.383,3.5L12.383,7.502Z" style="fill:white;fill-rule:nonzero;"/>
                </g>
            </g>
        </g>
    </g>
</svg>
