<?xml version="1.0" standalone="no"?><!-- Generator: Adobe Fireworks CS6, Export SVG Extension by Aaron Beall (http://fireworks.abeall.com) . Version: 0.6.1  --><!DOCTYPE svg PUBLIC "-//W3C//DTD SVG 1.1//EN" "http://www.w3.org/Graphics/SVG/1.1/DTD/svg11.dtd"><svg id="icons-32-32.fw-collections" viewBox="0 0 32 32" style="background-color:#ffffff00" version="1.1"	xmlns="http://www.w3.org/2000/svg" xmlns:xlink="http://www.w3.org/1999/xlink" xml:space="preserve"	x="0px" y="0px" width="32px" height="32px">	<g id="Layer%201">		<path d="M 8.1053 5.7778 L 23.8947 5.7778 L 23.8947 12 L 8.1053 12 L 8.1053 5.7778 ZM 8.1053 12.8889 L 23.8947 12.8889 L 23.8947 19.1111 L 8.1053 19.1111 L 8.1053 12.8889 ZM 8.1053 20 L 23.8947 20 L 23.8947 26.2222 L 8.1053 26.2222 L 8.1053 20 ZM 6 4 L 6 28 L 26 28 L 26 4 L 6 4 Z" fill="#000000"/>		<path id="Ellipse" d="M 15 9 C 15 8.4477 15.4477 8 16 8 C 16.5523 8 17 8.4477 17 9 C 17 9.5523 16.5523 10 16 10 C 15.4477 10 15 9.5523 15 9 Z" stroke="#000000" stroke-width="1" fill="none"/>		<path id="Ellipse2" d="M 15 16 C 15 15.4477 15.4477 15 16 15 C 16.5523 15 17 15.4477 17 16 C 17 16.5523 16.5523 17 16 17 C 15.4477 17 15 16.5523 15 16 Z" stroke="#000000" stroke-width="1" fill="none"/>		<path id="Ellipse3" d="M 15 23 C 15 22.4477 15.4477 22 16 22 C 16.5523 22 17 22.4477 17 23 C 17 23.5523 16.5523 24 16 24 C 15.4477 24 15 23.5523 15 23 Z" stroke="#000000" stroke-width="1" fill="none"/>	</g></svg>