<?xml version="1.0" encoding="UTF-8"?>
<svg width="32px" height="58px" viewBox="0 0 32 58" version="1.1" xmlns="http://www.w3.org/2000/svg" xmlns:xlink="http://www.w3.org/1999/xlink">
    <title>Combined-Shape</title>
    <g id="Page-1" stroke="none" stroke-width="1" fill="none" fill-rule="evenodd">
        <g id="actor_no-image" fill="#000000" fill-rule="nonzero">
            <path d="M11.858,50.114 C12.74,50.114 13.37,50.45 13.874,50.884 L13.874,50.884 L13.09,51.934 C12.726,51.612 12.376,51.43 11.942,51.43 C10.836,51.43 10.066,52.34 10.066,53.726 C10.066,55.098 10.822,56.008 11.9,56.008 C12.432,56.008 12.922,55.742 13.314,55.42 L13.314,55.42 L13.972,56.484 C13.328,57.044 12.516,57.324 11.732,57.324 C9.856,57.324 8.414,56.008 8.414,53.726 C8.414,51.43 10.024,50.114 11.858,50.114 Z M17.052,48.406 L17.052,50.282 L18.802,50.282 L18.802,51.556 L17.052,51.556 L17.052,54.832 C17.052,55.644 17.36,56.036 18.018,56.036 C18.256,56.036 18.536,55.966 18.732,55.882 L18.732,55.882 L19.012,57.072 C18.634,57.198 18.158,57.324 17.612,57.324 C16.016,57.324 15.428,56.316 15.428,54.832 L15.428,54.832 L15.428,51.556 L14.448,51.556 L14.448,50.352 L15.512,50.282 L15.708,48.406 L17.052,48.406 Z M22.834,50.114 C24.556,50.114 26.11,51.43 26.11,53.726 C26.11,56.008 24.556,57.324 22.834,57.324 C21.126,57.324 19.572,56.008 19.572,53.726 C19.572,51.43 21.126,50.114 22.834,50.114 Z M4.886,48 L7.868,57.156 L6.16,57.156 L5.446,54.678 L2.366,54.678 L1.652,57.156 L0,57.156 L2.982,48 L4.886,48 Z M31.15,50.114 C31.5,50.114 31.724,50.156 31.934,50.254 L31.934,50.254 L31.654,51.654 C31.416,51.584 31.234,51.542 30.94,51.542 C30.394,51.542 29.736,51.92 29.316,52.956 L29.316,52.956 L29.316,57.156 L27.706,57.156 L27.706,50.282 L29.036,50.282 L29.148,51.5 L29.204,51.5 C29.694,50.604 30.422,50.114 31.15,50.114 Z M22.834,51.43 C21.826,51.43 21.224,52.34 21.224,53.726 C21.224,55.098 21.826,56.008 22.834,56.008 C23.842,56.008 24.458,55.098 24.458,53.726 C24.458,52.34 23.842,51.43 22.834,51.43 Z M3.934,49.26 L3.878,49.26 C3.626,50.282 3.36,51.318 3.066,52.284 L3.066,52.284 L2.744,53.404 L5.082,53.404 L4.76,52.284 C4.466,51.318 4.2,50.268 3.934,49.26 L3.934,49.26 Z M16.4780635,17 C30.0786687,17 30.9561271,27.9192201 30.9561271,28.0529248 L30.9561271,28.0529248 L31,31.3509749 C31,32.2423398 30.2541604,33 29.376702,33 L29.376702,33 L3.623298,33 C2.7458396,33 2,32.2423398 2,31.3509749 L2,31.3509749 L2.00098225,28.1204736 C2.03409699,27.5636207 2.98311153,17 16.4780635,17 Z M16,0 C19.8414634,0 23,3.5801105 23,8 C23,12.4198895 19.8414634,16 16,16 C12.1585366,16 9,12.4198895 9,8 C9,3.5801105 12.1585366,0 16,0 Z" id="Combined-Shape"></path>
        </g>
    </g>
</svg>