<?xml version="1.0" encoding="UTF-8"?>
<svg width="66px" height="70px" viewBox="0 0 66 70" version="1.1" xmlns="http://www.w3.org/2000/svg" xmlns:xlink="http://www.w3.org/1999/xlink">
    <title>Combined Shape</title>
    <g id="Page-1" stroke="none" stroke-width="1" fill="none" fill-rule="evenodd">
        <path d="M27.328,61.958 C29.05,61.958 30.604,63.274 30.604,65.57 C30.604,67.852 29.05,69.168 27.328,69.168 C25.62,69.168 24.066,67.852 24.066,65.57 C24.066,63.274 25.62,61.958 27.328,61.958 Z M33.754,60.25 L33.754,62.126 L35.504,62.126 L35.504,63.4 L33.754,63.4 L33.754,66.676 C33.754,67.488 34.062,67.88 34.72,67.88 C34.958,67.88 35.238,67.81 35.434,67.726 L35.434,67.726 L35.714,68.916 C35.336,69.042 34.86,69.168 34.314,69.168 C32.718,69.168 32.13,68.16 32.13,66.676 L32.13,66.676 L32.13,63.4 L31.15,63.4 L31.15,62.196 L32.214,62.126 L32.41,60.25 L33.754,60.25 Z M39.382,61.958 C41.09,61.958 41.944,63.008 41.944,64.926 L41.944,64.926 L41.944,69 L40.614,69 L40.502,68.244 L40.446,68.244 C39.83,68.762 39.13,69.168 38.318,69.168 C37.114,69.168 36.288,68.356 36.288,67.152 C36.288,65.682 37.506,64.912 40.334,64.604 C40.306,63.876 40.012,63.26 39.074,63.26 C38.402,63.26 37.758,63.568 37.142,63.932 L37.142,63.932 L36.554,62.854 C37.31,62.378 38.29,61.958 39.382,61.958 Z M45.514,60.25 L45.514,62.126 L47.264,62.126 L47.264,63.4 L45.514,63.4 L45.514,66.676 C45.514,67.488 45.822,67.88 46.48,67.88 C46.718,67.88 46.998,67.81 47.194,67.726 L47.194,67.726 L47.474,68.916 C47.096,69.042 46.62,69.168 46.074,69.168 C44.478,69.168 43.89,68.16 43.89,66.676 L43.89,66.676 L43.89,63.4 L42.91,63.4 L42.91,62.196 L43.974,62.126 L44.17,60.25 L45.514,60.25 Z M55.188,61.958 C56.91,61.958 58.464,63.274 58.464,65.57 C58.464,67.852 56.91,69.168 55.188,69.168 C53.48,69.168 51.926,67.852 51.926,65.57 C51.926,63.274 53.48,61.958 55.188,61.958 Z M4.858,59.844 L7.84,69 L6.132,69 L5.418,66.522 L2.338,66.522 L1.624,69 L-0.028,69 L2.954,59.844 L4.858,59.844 Z M12.586,61.958 C14.056,61.958 14.7,62.952 14.7,64.688 L14.7,64.688 L14.7,69 L13.09,69 L13.09,64.898 C13.09,63.764 12.768,63.344 12.012,63.344 C11.41,63.344 11.018,63.638 10.444,64.198 L10.444,64.198 L10.444,69 L8.834,69 L8.834,62.126 L10.164,62.126 L10.276,63.05 L10.332,63.05 C10.948,62.448 11.648,61.958 12.586,61.958 Z M20.426,61.958 C21.896,61.958 22.54,62.952 22.54,64.688 L22.54,64.688 L22.54,69 L20.93,69 L20.93,64.898 C20.93,63.764 20.608,63.344 19.852,63.344 C19.25,63.344 18.858,63.638 18.284,64.198 L18.284,64.198 L18.284,69 L16.674,69 L16.674,62.126 L18.004,62.126 L18.116,63.05 L18.172,63.05 C18.788,62.448 19.488,61.958 20.426,61.958 Z M50.316,62.126 L50.316,69 L48.706,69 L48.706,62.126 L50.316,62.126 Z M63.812,61.958 C65.282,61.958 65.926,62.952 65.926,64.688 L65.926,64.688 L65.926,69 L64.316,69 L64.316,64.898 C64.316,63.764 63.994,63.344 63.238,63.344 C62.636,63.344 62.244,63.638 61.67,64.198 L61.67,64.198 L61.67,69 L60.06,69 L60.06,62.126 L61.39,62.126 L61.502,63.05 L61.558,63.05 C62.174,62.448 62.874,61.958 63.812,61.958 Z M40.334,65.612 C38.458,65.85 37.842,66.34 37.842,67.026 C37.842,67.642 38.262,67.908 38.836,67.908 C39.396,67.908 39.816,67.628 40.334,67.152 L40.334,67.152 Z M27.328,63.274 C26.32,63.274 25.718,64.184 25.718,65.57 C25.718,66.942 26.32,67.852 27.328,67.852 C28.336,67.852 28.952,66.942 28.952,65.57 C28.952,64.184 28.336,63.274 27.328,63.274 Z M55.188,63.274 C54.18,63.274 53.578,64.184 53.578,65.57 C53.578,66.942 54.18,67.852 55.188,67.852 C56.196,67.852 56.812,66.942 56.812,65.57 C56.812,64.184 56.196,63.274 55.188,63.274 Z M3.906,61.104 L3.85,61.104 C3.598,62.126 3.332,63.162 3.038,64.128 L3.038,64.128 L2.716,65.248 L5.054,65.248 L4.732,64.128 C4.438,63.162 4.172,62.112 3.906,61.104 L3.906,61.104 Z M49.518,59.088 C50.092,59.088 50.512,59.466 50.512,60.012 C50.512,60.544 50.092,60.922 49.518,60.922 C48.944,60.922 48.524,60.544 48.524,60.012 C48.524,59.466 48.944,59.088 49.518,59.088 Z M36.7131148,7.93032787 L49.0696721,20.2868852 L24.3565574,45 L12,45 L12,32.6434426 L36.7131148,7.93032787 Z M18.5060241,31.5146652 L15.8018467,34.2188426 L15.8018467,37.3963065 L19.6036935,37.3963065 L19.6036935,41.1981533 L22.7833794,41.1981533 L25.4853348,38.4961979 L18.5060241,31.5146652 Z M37.6641319,12.9787182 C37.4663737,12.9787182 37.2975015,13.0498222 37.1597373,13.1875864 L21.0591053,29.2859964 C20.9213411,29.4259826 20.852459,29.5948548 20.852459,29.7926131 C20.852459,30.2281256 21.0702153,30.4458819 21.5057278,30.4458819 C21.7034861,30.4458819 21.8723583,30.3769998 22.0101225,30.2370136 L38.1085325,14.1386036 C38.2485187,13.9986174 38.3174008,13.8319672 38.3174008,13.634209 C38.3174008,13.1986964 38.0996445,12.9787182 37.6641319,12.9787182 Z M46.2188426,5.55111512e-17 C47.2676279,5.55111512e-17 48.169761,0.375518467 48.9207979,1.1287774 L55.9023306,8.07920205 C56.6355915,8.85023701 57,9.7523701 57,10.7811574 C57,11.8321647 56.6355915,12.7231878 55.9023306,13.4542267 L50.9717065,18.3848509 L38.6151491,6.0282935 L43.5457733,1.1287774 C44.2590361,0.375518467 45.1500593,5.55111512e-17 46.2188426,5.55111512e-17 Z" id="Combined-Shape" fill="#000000" fill-rule="nonzero"></path>
    </g>
</svg>