<?xml version="1.0" encoding="UTF-8"?>
<svg width="56px" height="62px" viewBox="0 0 56 62" version="1.1" xmlns="http://www.w3.org/2000/svg" xmlns:xlink="http://www.w3.org/1999/xlink">
    <title>Combined Shape</title>
    <g id="Page-1" stroke="none" stroke-width="1" fill="none" fill-rule="evenodd">
        <g id="assertion_no-image" fill="#000000" fill-rule="nonzero">
            <path d="M11.284,53.87 C12.236,53.87 13.006,54.262 13.566,54.696 L13.566,54.696 L12.824,55.676 C12.348,55.326 11.858,55.088 11.312,55.088 C10.626,55.088 10.304,55.41 10.304,55.844 C10.304,56.39 10.99,56.6 11.732,56.866 C12.67,57.216 13.706,57.664 13.706,58.952 C13.706,60.128 12.768,61.08 11.032,61.08 C10.094,61.08 9.1,60.674 8.428,60.128 L8.428,60.128 L9.184,59.092 C9.8,59.568 10.388,59.862 11.088,59.862 C11.83,59.862 12.18,59.512 12.18,59.036 C12.18,58.5385333 11.6226756,58.2829244 11.0001547,58.0413363 L11.0001547,58.0413363 L10.71,57.93 C9.8,57.594 8.778,57.076 8.778,55.928 C8.778,54.724 9.744,53.87 11.284,53.87 Z M17.318,53.87 C18.27,53.87 19.04,54.262 19.6,54.696 L19.6,54.696 L18.858,55.676 C18.382,55.326 17.892,55.088 17.346,55.088 C16.66,55.088 16.338,55.41 16.338,55.844 C16.338,56.39 17.024,56.6 17.766,56.866 C18.704,57.216 19.74,57.664 19.74,58.952 C19.74,60.128 18.802,61.08 17.066,61.08 C16.128,61.08 15.134,60.674 14.462,60.128 L14.462,60.128 L15.218,59.092 C15.834,59.568 16.422,59.862 17.122,59.862 C17.864,59.862 18.214,59.512 18.214,59.036 C18.214,58.462 17.472,58.21 16.744,57.93 C15.834,57.594 14.812,57.076 14.812,55.928 C14.812,54.724 15.778,53.87 17.318,53.87 Z M23.898,53.87 C25.76,53.87 26.74,55.214 26.74,57.132 C26.74,57.44 26.712,57.748 26.67,57.916 L26.67,57.916 L22.302,57.916 C22.442,59.134 23.226,59.834 24.332,59.834 C24.92,59.834 25.424,59.652 25.928,59.33 L25.928,59.33 L26.474,60.338 C25.816,60.772 24.99,61.08 24.122,61.08 C22.218,61.08 20.734,59.75 20.734,57.482 C20.734,55.242 22.288,53.87 23.898,53.87 Z M35.364,52.162 L35.364,54.038 L37.114,54.038 L37.114,55.312 L35.364,55.312 L35.364,58.588 C35.364,59.4 35.672,59.792 36.33,59.792 C36.568,59.792 36.848,59.722 37.044,59.638 L37.044,59.638 L37.324,60.828 C36.946,60.954 36.47,61.08 35.924,61.08 C34.328,61.08 33.74,60.072 33.74,58.588 L33.74,58.588 L33.74,55.312 L32.76,55.312 L32.76,54.108 L33.824,54.038 L34.02,52.162 L35.364,52.162 Z M45.038,53.87 C46.76,53.87 48.314,55.186 48.314,57.482 C48.314,59.764 46.76,61.08 45.038,61.08 C43.33,61.08 41.776,59.764 41.776,57.482 C41.776,55.186 43.33,53.87 45.038,53.87 Z M4.886,51.756 L7.868,60.912 L6.16,60.912 L5.446,58.434 L2.366,58.434 L1.652,60.912 L0,60.912 L2.982,51.756 L4.886,51.756 Z M31.724,53.87 C32.074,53.87 32.298,53.912 32.508,54.01 L32.508,54.01 L32.228,55.41 C31.99,55.34 31.808,55.298 31.514,55.298 C30.968,55.298 30.31,55.676 29.89,56.712 L29.89,56.712 L29.89,60.912 L28.28,60.912 L28.28,54.038 L29.61,54.038 L29.722,55.256 L29.778,55.256 C30.268,54.36 30.996,53.87 31.724,53.87 Z M40.166,54.038 L40.166,60.912 L38.556,60.912 L38.556,54.038 L40.166,54.038 Z M53.662,53.87 C55.132,53.87 55.776,54.864 55.776,56.6 L55.776,56.6 L55.776,60.912 L54.166,60.912 L54.166,56.81 C54.166,55.676 53.844,55.256 53.088,55.256 C52.486,55.256 52.094,55.55 51.52,56.11 L51.52,56.11 L51.52,60.912 L49.91,60.912 L49.91,54.038 L51.24,54.038 L51.352,54.962 L51.408,54.962 C52.024,54.36 52.724,53.87 53.662,53.87 Z M45.038,55.186 C44.03,55.186 43.428,56.096 43.428,57.482 C43.428,58.854 44.03,59.764 45.038,59.764 C46.046,59.764 46.662,58.854 46.662,57.482 C46.662,56.096 46.046,55.186 45.038,55.186 Z M3.934,53.016 L3.878,53.016 C3.626,54.038 3.36,55.074 3.066,56.04 L3.066,56.04 L2.744,57.16 L5.082,57.16 L4.76,56.04 C4.466,55.074 4.2,54.024 3.934,53.016 L3.934,53.016 Z M23.94,55.116 C23.128,55.116 22.428,55.718 22.288,56.824 L22.288,56.824 L25.34,56.824 C25.34,55.76 24.878,55.116 23.94,55.116 Z M39.368,51 C39.942,51 40.362,51.378 40.362,51.924 C40.362,52.456 39.942,52.834 39.368,52.834 C38.794,52.834 38.374,52.456 38.374,51.924 C38.374,51.378 38.794,51 39.368,51 Z M44.6393443,0 C45.647541,0 46.3196721,0.330357143 46.9918033,0.991071432 C47.6639344,1.65178571 48,2.47767857 48,3.30357143 L48,23.6205357 C48,24.6116071 47.6639344,25.2723214 46.9918033,25.9330357 C46.3196721,26.59375 45.4795082,26.9241071 44.6393443,26.9241071 L24.1393443,26.9241071 L13.7213115,37 L13.7213115,26.9241071 L10.3606557,26.9241071 C9.35245902,26.9241071 8.68032787,26.59375 8.00819672,25.9330357 C7.33606557,25.2723214 7,24.4464286 7,23.6205357 L7,3.46875 C7,2.47767857 7.33606557,1.81696429 8.00819672,1.15625 C8.51229508,0.330357143 9.35245902,0 10.3606557,0 L44.6393443,0 Z M29.375,19.3846154 L25.625,19.3846154 L25.625,22 L29.375,22 L29.375,19.3846154 Z M30,5 L25,5 L25.6818182,16.7692308 L29.3181818,16.7692308 L30,5 Z" id="Combined-Shape"></path>
        </g>
    </g>
</svg>