<?xml version="1.0" encoding="UTF-8"?>
<svg width="59px" height="70px" viewBox="0 0 59 70" version="1.1" xmlns="http://www.w3.org/2000/svg" xmlns:xlink="http://www.w3.org/1999/xlink">
    <title>Combined Shape</title>
    <g id="Page-1" stroke="none" stroke-width="1" fill="none" fill-rule="evenodd">
        <path d="M38.656,61.958 C40.518,61.958 41.498,63.302 41.498,65.22 C41.498,65.528 41.47,65.836 41.428,66.004 L41.428,66.004 L37.06,66.004 C37.2,67.222 37.984,67.922 39.09,67.922 C39.678,67.922 40.182,67.74 40.686,67.418 L40.686,67.418 L41.232,68.426 C40.574,68.86 39.748,69.168 38.88,69.168 C36.976,69.168 35.492,67.838 35.492,65.57 C35.492,63.33 37.046,61.958 38.656,61.958 Z M30.088,59.116 L30.088,67.32 C30.088,67.712 30.27,67.852 30.438,67.852 C30.508,67.852 30.564,67.852 30.69,67.824 L30.69,67.824 L30.9,69.028 C30.704,69.112 30.424,69.168 30.046,69.168 C28.898,69.168 28.478,68.426 28.478,67.236 L28.478,67.236 L28.478,59.116 L30.088,59.116 Z M24.096,61.958 C25.958,61.958 26.938,63.302 26.938,65.22 C26.938,65.528 26.91,65.836 26.868,66.004 L26.868,66.004 L22.5,66.004 C22.64,67.222 23.424,67.922 24.53,67.922 C25.118,67.922 25.622,67.74 26.126,67.418 L26.126,67.418 L26.672,68.426 C26.014,68.86 25.188,69.168 24.32,69.168 C22.416,69.168 20.932,67.838 20.932,65.57 C20.932,63.33 22.486,61.958 24.096,61.958 Z M45.544,58.948 C46.034,58.948 46.496,59.06 46.804,59.186 L46.804,59.186 L46.496,60.39 C46.244,60.278 45.978,60.222 45.74,60.222 C45.18,60.222 44.872,60.586 44.872,61.384 L44.872,61.384 L44.872,62.126 L46.216,62.126 L46.216,63.4 L44.872,63.4 L44.872,69 L43.262,69 L43.262,63.4 L42.338,63.4 L42.338,62.196 L43.262,62.126 L43.262,61.412 C43.262,59.984 43.92,58.948 45.544,58.948 Z M33.882,62.126 L33.882,69 L32.272,69 L32.272,62.126 L33.882,62.126 Z M16.088,59.844 C17.978,59.844 19.364,60.418 19.364,62.098 C19.364,62.966 18.888,63.806 18.09,64.086 L18.09,64.086 L18.09,64.142 C19.098,64.366 19.84,65.08 19.84,66.312 C19.84,68.146 18.342,69 16.326,69 L16.326,69 L13.162,69 L13.162,59.844 Z M16.158,64.842 L14.786,64.842 L14.786,67.74 L16.158,67.74 C17.502,67.74 18.258,67.25 18.258,66.228 C18.258,65.262 17.53,64.842 16.158,64.842 L16.158,64.842 Z M38.698,63.204 C37.886,63.204 37.186,63.806 37.046,64.912 L37.046,64.912 L40.098,64.912 C40.098,63.848 39.636,63.204 38.698,63.204 Z M24.138,63.204 C23.326,63.204 22.626,63.806 22.486,64.912 L22.486,64.912 L25.538,64.912 C25.538,63.848 25.076,63.204 24.138,63.204 Z M15.976,61.104 L14.786,61.104 L14.786,63.624 L15.948,63.624 C17.222,63.624 17.768,63.12 17.768,62.336 C17.768,61.44 17.166,61.104 15.976,61.104 L15.976,61.104 Z M33.084,59.088 C33.658,59.088 34.078,59.466 34.078,60.012 C34.078,60.544 33.658,60.922 33.084,60.922 C32.51,60.922 32.09,60.544 32.09,60.012 C32.09,59.466 32.51,59.088 33.084,59.088 Z M29.8888889,28.1597938 C43.5260771,28.1597938 44.536073,39.2949979 44.5552652,39.657205 L44.5555556,39.6649484 L44.6,43.0979381 C44.6,43.9769398 43.9218836,44.7310307 43.0947076,44.8079737 L42.9555555,44.814433 L16.8666667,44.814433 C16.0245614,44.814433 15.3021237,44.1066054 15.2284104,43.2431871 L15.2222222,43.0979381 L15.2224528,39.7500732 C15.2379394,39.3882357 16.0742985,28.1597938 29.8888889,28.1597938 Z M48.6748798,32.034314 C48.8767369,32.2386618 48.9920227,32.5238792 48.9920227,32.8090966 C48.9920227,33.094314 48.8771655,33.3790966 48.6748798,33.5838792 C48.4743084,33.788227 48.1927369,33.9051836 47.9115941,33.9051836 C47.6227369,33.9051836 47.3493084,33.7886618 47.1478798,33.5838792 C46.9464512,33.3790966 46.8311655,33.094314 46.8311655,32.8090966 C46.8311655,32.5238792 46.9464512,32.2386618 47.1478798,32.034314 C47.5443084,31.6247488 48.2720227,31.6247488 48.6748798,32.034314 Z M50.2545941,24.4377922 C51.2218798,25.018227 51.7443084,26.0677923 51.6513084,27.2451836 C51.5338798,28.7286618 50.5288798,29.4234444 49.8637369,29.8830096 C49.4467369,30.1721401 49.1857369,30.3612705 49.0944512,30.5995314 C48.9281655,31.0321401 48.5197369,31.2969227 48.0873084,31.2969227 C47.9574512,31.2969227 47.8233084,31.2730096 47.6943084,31.2212705 C47.1384512,31.0012705 46.8641655,30.3651836 47.0814512,29.8012705 C47.4208798,28.9195314 48.1005941,28.4495314 48.6465941,28.0717053 C49.2620227,27.6456183 49.4647369,27.4738792 49.4968798,27.0695314 C49.5243084,26.7238792 49.4115941,26.4799662 49.1527369,26.3251835 C48.8561655,26.1460531 48.4918798,26.1612705 48.3148798,26.2808357 C48.1828798,26.3690966 48.1353084,26.5634444 48.1721655,26.8586618 C48.2488798,27.4590966 47.8310227,28.0086618 47.2391655,28.0860531 C46.6503084,28.1625749 46.1047369,27.7390966 46.0293084,27.1386618 C45.8840227,25.9925749 46.2834512,25.0125749 47.1260227,24.4495314 C48.0170227,23.854314 49.2735941,23.8499662 50.2545941,24.4377922 Z M8.36363636,9.89772727 C12.5151113,9.89772727 15.8636364,13.4322815 15.8636364,17.7727273 C15.8636364,19.6736322 15.221384,21.4199659 14.1507071,22.7825213 L15,23.68 C15.2166667,23.6975926 15.4333333,23.7738272 15.6037037,23.9087037 L15.7,23.9966667 L18.7,27.1 C19.1,27.5222222 19.1,28.2188889 18.7,28.6411111 C18.5,28.8522222 18.24,28.9577778 17.96,28.9577778 C17.7266667,28.9577778 17.5211111,28.8698148 17.3433333,28.7305401 L17.24,28.6411111 L14.24,25.5377778 C14.0685714,25.3568254 13.9559184,25.1138322 13.9398251,24.8486816 L13.94,24.7144445 L13.1272752,23.8560922 C11.8331386,24.9749898 10.1748009,25.6477273 8.36363636,25.6477273 C4.21216142,25.6477273 0.86363636,22.113173 0.86363636,17.7727273 C0.86363636,13.4322815 4.21216142,9.89772727 8.36363636,9.89772727 Z M29.5333333,9.92783505 C33.5333333,9.92783505 36.8222222,13.685567 36.8222222,18.3247422 C36.8222222,22.9639176 33.5333333,26.7216494 29.5333333,26.7216494 C25.5333333,26.7216494 22.2444444,22.9639176 22.2444444,18.3247422 C22.2444444,13.685567 25.5333333,9.92783505 29.5333333,9.92783505 Z M49.2666667,0.324742268 C54.4222222,0.324742268 58.6,4.68556701 58.6,9.97422682 C58.6,15.2628866 54.5650416,19.5658182 49.532445,19.7126231 L49.2666667,19.7164949 L46.9111111,19.7164949 L39.9777778,25.0979381 L39.9777778,19.7164949 C39.2666667,19.7164949 38.6,19.6237113 37.9777778,19.4381443 C37.9777778,19.1907216 37.9975309,18.943299 38.0106997,18.6958763 L38.0222223,18.3247423 L38.0222223,18.0463918 C38.5936508,18.2054492 39.2303855,18.3304229 39.8764496,18.3628836 L40.2,18.371134 L41.2666666,18.371134 L41.2666666,22.3608248 L46.4666667,18.371134 L49.2666667,18.371134 C53.6666667,18.371134 57.2666667,14.6134021 57.2666667,10.0206186 C57.2666667,5.51288661 53.7987655,1.80956472 49.5102703,1.67395051 L49.2666667,1.67010309 L40.2444445,1.67010309 C36.2,1.67010309 32.8222222,4.87113402 32.3333334,9 C31.8888889,8.86082476 31.4888889,8.72164944 31.0444445,8.62886598 C31.6982906,4.03340603 35.4302433,0.46431213 39.9761184,0.328738792 L40.2444445,0.324742268 L49.2666667,0.324742268 Z M13.9559271,23.0206256 C13.7598559,23.2509142 13.5510588,23.46904 13.3306808,23.6737754 L14.08,24.4822222 L14.74,23.8488889 L13.9559271,23.0206256 Z M14.0800003,16.3333334 L12.1200002,16.3333334 C12.1200002,16.4600001 12.1200002,16.6711112 12.0400002,16.8400001 C11.8800002,17.2833335 11.4800002,17.5577779 11.0400002,17.5577779 C10.9400002,17.5577779 10.8600001,17.5366668 10.7600002,17.5155557 C10.6320002,17.4986668 10.5168002,17.4277335 10.4246402,17.3568001 L10.3600002,17.3044446 L9.92,18.0222224 C10.0200002,18.0855557 10.1400002,18.148889 10.2600002,18.2544446 C10.2600002,18.2544446 10.2800001,18.2755557 10.2800001,18.2755557 C10.3200002,18.3177779 10.3600002,18.3600002 10.4000002,18.4233335 C10.5400002,18.6133335 10.6000002,18.8455557 10.6000002,19.0777779 C10.6000002,19.7111113 10.1200002,20.2600002 9.52000014,20.2600002 C8.92,20.2600002 8.44000014,19.7533336 8.44000014,19.1200002 C8.44000014,18.9300002 8.48000014,18.7611112 8.56000014,18.5922224 C8.60800014,18.4402224 8.72000015,18.3152446 8.82432015,18.2280979 L8.90000015,18.1700002 L8.26000014,17.6000001 C8.18000013,17.7477779 8.06000013,17.9377779 7.88000012,18.0222224 C7.70000012,18.1277779 7.50000012,18.1911113 7.30000011,18.1911113 C7.14000011,18.1911113 6.98000011,18.148889 6.8400001,18.0855557 C6.6960001,18.034889 6.5904001,17.943689 6.5129601,17.8551913 L6.4600001,17.7900002 L6.04000008,18.3811113 C6.12000008,18.4444446 6.24000009,18.5711113 6.36000009,18.7611112 C6.4600001,18.9511113 6.5000001,19.1411113 6.5000001,19.3311113 C6.5000001,19.9644446 6.02000009,20.4711113 5.42,20.4711113 C4.89733339,20.4711113 4.44435561,20.0665286 4.35376005,19.531989 L4.32720005,19.2998668 C4.32400005,19.1444891 4.37200004,18.9891113 4.42,18.8877779 C4.12000005,18.7611112 3.64000004,18.5500002 3.22000002,18.3600002 C2.92,18.2122224 2.62000001,18.0855557 2.42,18.0011113 C2.52000001,21.3366669 5.14000007,24.0388892 8.34000014,24.0388892 C11.6000002,24.0388892 14.2600003,21.2311113 14.2405483,17.7900002 C14.2405483,17.2833335 14.1800003,16.7977779 14.0800003,16.3333334 Z M8.34000014,11.5411111 C5.10000006,11.5411111 2.46,14.2855556 2.42,17.7055557 C2.60000001,17.7900001 2.96000002,17.9377779 3.32000003,18.1066668 L3.71801753,18.2722321 C4.04775514,18.4104083 4.36000005,18.5439684 4.56000006,18.6344446 C4.76000006,18.338889 5.08000007,18.1700002 5.42,18.1700002 C5.51333339,18.1700002 5.59777784,18.1793829 5.67925933,18.1981483 L5.80000008,18.2333335 L6.32000009,17.5366668 C6.26000009,17.388889 6.22000009,17.2200001 6.22000009,17.0511112 C6.22000009,16.4177779 6.7000001,15.9111112 7.30000011,15.9111112 C7.90000013,15.9111112 8.38000014,16.4177779 8.38000014,17.0511112 C8.38000014,17.1074075 8.37111125,17.1730866 8.35925939,17.235638 L8.34000014,17.3255557 L9.14000016,18.0222224 C9.27500017,17.9747224 9.39875015,17.9509724 9.52812514,17.9509724 L9.66000013,17.958889 L10.1800002,17.1144446 C10.0400002,16.9033335 9.96000015,16.6711112 9.96000015,16.4177779 C9.96000015,15.7844445 10.4400002,15.2777779 11.0400002,15.2777779 C11.4800002,15.2777779 11.8695835,15.5438658 12.0392942,15.9459543 L12.0800002,16.058889 L14.0200003,16.058889 C13.3200003,13.4622223 11.0400002,11.5411111 8.34000014,11.5411111 Z M44.9111111,8.16494846 C45.8444445,8.16494846 46.6,8.95360823 46.6,9.92783505 C46.6,10.9020619 45.8444445,11.6907217 44.9111111,11.6907217 C43.9777778,11.6907217 43.2222222,10.9020619 43.2222222,9.92783505 C43.2222222,8.95360823 43.9777778,8.16494846 44.9111111,8.16494846 Z M39.0444444,8.16494846 C39.9777778,8.16494846 40.7333333,8.95360823 40.7333333,9.92783505 C40.7333333,10.9020619 39.9777778,11.6907217 39.0444444,11.6907217 C38.1111111,11.6907217 37.3555555,10.9020619 37.3555555,9.92783505 C37.3555555,8.95360823 38.1111111,8.16494846 39.0444444,8.16494846 Z M50.6444444,8.16494846 C51.5777778,8.16494846 52.3333333,8.95360823 52.3333333,9.92783505 C52.3333333,10.9020619 51.5777778,11.6907217 50.6444444,11.6907217 C49.7111111,11.6907217 48.9555556,10.9020619 48.9555556,9.92783505 C48.9555556,8.95360823 49.7111111,8.16494846 50.6444444,8.16494846 Z" id="Combined-Shape" fill="#000000" fill-rule="nonzero"></path>
    </g>
</svg>