<?xml version="1.0" encoding="UTF-8"?>
<svg width="31px" height="53px" viewBox="0 0 31 53" version="1.1" xmlns="http://www.w3.org/2000/svg" xmlns:xlink="http://www.w3.org/1999/xlink">
    <title>Combined Shape</title>
    <g id="Page-1" stroke="none" stroke-width="1" fill="none" fill-rule="evenodd">
        <g id="class_no-image" fill="#000000" fill-rule="nonzero">
            <path d="M4.186,42.56 C5.334,42.56 6.258,43.106 6.832,43.722 L6.832,43.722 L5.964,44.772 C5.488,44.296 4.942,43.974 4.228,43.974 C2.73,43.974 1.666,45.234 1.666,47.292 C1.666,49.378 2.646,50.638 4.186,50.638 C4.998,50.638 5.628,50.26 6.146,49.7 L6.146,49.7 L7.014,50.722 C6.272,51.576 5.306,52.052 4.13,52.052 C1.82,52.052 0,50.372 0,47.334 C0,44.338 1.876,42.56 4.186,42.56 Z M10.01,42 L10.01,50.204 C10.01,50.596 10.192,50.736 10.36,50.736 C10.43,50.736 10.486,50.736 10.612,50.708 L10.612,50.708 L10.822,51.912 C10.626,51.996 10.346,52.052 9.968,52.052 C8.82,52.052 8.4,51.31 8.4,50.12 L8.4,50.12 L8.4,42 L10.01,42 Z M14.924,44.842 C16.632,44.842 17.486,45.892 17.486,47.81 L17.486,47.81 L17.486,51.884 L16.156,51.884 L16.044,51.128 L15.988,51.128 C15.372,51.646 14.672,52.052 13.86,52.052 C12.656,52.052 11.83,51.24 11.83,50.036 C11.83,48.566 13.048,47.796 15.876,47.488 C15.848,46.76 15.554,46.144 14.616,46.144 C13.944,46.144 13.3,46.452 12.684,46.816 L12.684,46.816 L12.096,45.738 C12.852,45.262 13.832,44.842 14.924,44.842 Z M21.588,44.842 C22.54,44.842 23.31,45.234 23.87,45.668 L23.87,45.668 L23.128,46.648 C22.652,46.298 22.162,46.06 21.616,46.06 C20.93,46.06 20.608,46.382 20.608,46.816 C20.608,47.362 21.294,47.572 22.036,47.838 C22.974,48.188 24.01,48.636 24.01,49.924 C24.01,51.1 23.072,52.052 21.336,52.052 C20.398,52.052 19.404,51.646 18.732,51.1 L18.732,51.1 L19.488,50.064 C20.104,50.54 20.692,50.834 21.392,50.834 C22.134,50.834 22.484,50.484 22.484,50.008 C22.484,49.5105333 21.9266756,49.2549244 21.3041547,49.0133363 L21.3041547,49.0133363 L21.014,48.902 C20.104,48.566 19.082,48.048 19.082,46.9 C19.082,45.696 20.048,44.842 21.588,44.842 Z M27.622,44.842 C28.574,44.842 29.344,45.234 29.904,45.668 L29.904,45.668 L29.162,46.648 C28.686,46.298 28.196,46.06 27.65,46.06 C26.964,46.06 26.642,46.382 26.642,46.816 C26.642,47.362 27.328,47.572 28.07,47.838 C29.008,48.188 30.044,48.636 30.044,49.924 C30.044,51.1 29.106,52.052 27.37,52.052 C26.432,52.052 25.438,51.646 24.766,51.1 L24.766,51.1 L25.522,50.064 C26.138,50.54 26.726,50.834 27.426,50.834 C28.168,50.834 28.518,50.484 28.518,50.008 C28.518,49.5105333 27.9606756,49.2549244 27.3381547,49.0133363 L27.3381547,49.0133363 L27.048,48.902 C26.138,48.566 25.116,48.048 25.116,46.9 C25.116,45.696 26.082,44.842 27.622,44.842 Z M15.876,48.496 C14,48.734 13.384,49.224 13.384,49.91 C13.384,50.526 13.804,50.792 14.378,50.792 C14.938,50.792 15.358,50.512 15.876,50.036 L15.876,50.036 Z M27.4036369,0.6 C27.944707,0.6 28.4518095,0.815480636 28.7469329,1.13021681 C28.8357438,1.18911336 28.8771894,1.23877979 28.9197369,1.30459578 C29.1795133,1.61478097 29.3426581,1.98546082 29.3793854,2.37962763 L29.3872989,2.54988635 L29.387,13.293 L29.395136,13.3310735 C29.4045087,13.4109809 29.4003495,13.4920248 29.3833405,13.570883 L29.3482749,13.6871159 L29.2944461,13.7975788 L18.8947552,31.4275243 C18.3887235,32.3144906 17.254938,32.6427045 16.3354273,32.212625 L16.1921448,32.138387 L3.25602125,24.8153308 C2.35944079,24.3037639 2.0210384,23.2066305 2.46041685,22.2957455 L2.53628796,22.1535818 L3.624,20.312 L1.17886446,17.9081091 C0.488716986,17.2331374 0.416069884,16.1752881 0.960879485,15.4087705 L1.06343193,15.2766641 L1.1788035,15.1514295 L15.7924437,0.856384575 C15.8858437,0.742486921 16.0103993,0.665645232 16.1507266,0.626307064 L16.258689,0.603842342 L16.3139982,0.6 L27.4036369,0.6 Z M25.144,17.877 L14.5323331,28.25958 C14.2042976,28.5739948 13.7937641,28.7560245 13.3711711,28.8054376 L13.335,28.808 L16.9299064,30.841787 C17.1481196,30.9610603 17.4068748,30.9170456 17.5540362,30.7523305 L17.6036936,30.6849876 L25.144,17.877 Z M4.736,21.388 L3.83408697,22.9169791 C3.71836099,23.1096512 3.76463749,23.3411744 3.94054361,23.4848855 L4.01252156,23.5344136 L10.899,27.43 L4.736,21.388 Z M27.403192,2.0836199 L16.665,2.083 L2.2371206,16.211594 C2.0721228,16.373052 2.05149807,16.6069855 2.1753421,16.7868135 L2.23726342,16.8602011 L12.7903027,27.1971636 C12.9594987,27.3629406 13.2106412,27.3836627 13.4004607,27.2593578 L13.4776398,27.1972051 L27.8891349,13.073 L27.8891349,2.54988635 C27.8891349,2.44838694 27.8648385,2.36401071 27.8165689,2.29296155 L27.7603201,2.22621415 C27.6858479,2.15363188 27.590254,2.10592092 27.4843675,2.08973983 L27.403192,2.0836199 Z M24.1103853,3.63889051 C24.683589,3.63889051 25.2537507,3.86366543 25.6473782,4.26329943 C26.5087501,5.09170441 26.5087501,6.46179957 25.6497762,7.3028793 C24.8085815,8.12551141 23.4268965,8.12551141 22.5683444,7.30026345 C21.7248462,6.45987514 21.7248462,5.09310155 22.5707231,4.26589068 C22.987455,3.85757988 23.5342087,3.63889051 24.1103853,3.63889051 Z M24.1103853,5.13425198 C23.9152846,5.13425198 23.7503945,5.19459551 23.629207,5.31328065 C23.3655109,5.57126114 23.3655109,5.98463184 23.629207,6.24261234 C23.8977966,6.50538018 24.3354333,6.50538018 24.6038729,6.24275919 C24.867324,5.98474759 24.867324,5.57114538 24.6038728,5.31313375 C24.4854832,5.19718853 24.3092193,5.13425198 24.1103853,5.13425198 Z" id="Combined-Shape"></path>
        </g>
    </g>
</svg>