<?xml version="1.0" encoding="UTF-8"?>
<svg width="50px" height="57px" viewBox="0 0 50 57" version="1.1" xmlns="http://www.w3.org/2000/svg" xmlns:xlink="http://www.w3.org/1999/xlink">
    <title>Combined Shape</title>
    <g id="Page-1" stroke="none" stroke-width="1" fill="none" fill-rule="evenodd">
        <g id="concept_no-image" fill="#000000" fill-rule="nonzero">
            <path d="M41.412,46.958 C43.12,46.958 44.114,48.33 44.114,50.458 C44.114,52.81 42.7,54.168 41.174,54.168 C40.572,54.168 39.97,53.888 39.41,53.412 L39.41,53.412 L39.452,54.56 L39.452,56.716 L37.842,56.716 L37.842,47.126 L39.172,47.126 L39.284,47.854 L39.34,47.854 C39.914,47.364 40.656,46.958 41.412,46.958 Z M4.872,44.676 C6.02,44.676 6.944,45.222 7.518,45.838 L7.518,45.838 L6.65,46.888 C6.174,46.412 5.628,46.09 4.914,46.09 C3.416,46.09 2.352,47.35 2.352,49.408 C2.352,51.494 3.332,52.754 4.872,52.754 C5.684,52.754 6.314,52.376 6.832,51.816 L6.832,51.816 L7.7,52.838 C6.958,53.692 5.992,54.168 4.816,54.168 C2.506,54.168 0.686,52.488 0.686,49.45 C0.686,46.454 2.562,44.676 4.872,44.676 Z M11.9,46.958 C13.622,46.958 15.176,48.274 15.176,50.57 C15.176,52.852 13.622,54.168 11.9,54.168 C10.192,54.168 8.638,52.852 8.638,50.57 C8.638,48.274 10.192,46.958 11.9,46.958 Z M27.608,46.958 C28.49,46.958 29.12,47.294 29.624,47.728 L29.624,47.728 L28.84,48.778 C28.476,48.456 28.126,48.274 27.692,48.274 C26.586,48.274 25.816,49.184 25.816,50.57 C25.816,51.942 26.572,52.852 27.65,52.852 C28.182,52.852 28.672,52.586 29.064,52.264 L29.064,52.264 L29.722,53.328 C29.078,53.888 28.266,54.168 27.482,54.168 C25.606,54.168 24.164,52.852 24.164,50.57 C24.164,48.274 25.774,46.958 27.608,46.958 Z M33.46,46.958 C35.322,46.958 36.302,48.302 36.302,50.22 C36.302,50.528 36.274,50.836 36.232,51.004 L36.232,51.004 L31.864,51.004 C32.004,52.222 32.788,52.922 33.894,52.922 C34.482,52.922 34.986,52.74 35.49,52.418 L35.49,52.418 L36.036,53.426 C35.378,53.86 34.552,54.168 33.684,54.168 C31.78,54.168 30.296,52.838 30.296,50.57 C30.296,48.33 31.85,46.958 33.46,46.958 Z M47.292,45.25 L47.292,47.126 L49.042,47.126 L49.042,48.4 L47.292,48.4 L47.292,51.676 C47.292,52.488 47.6,52.88 48.258,52.88 C48.496,52.88 48.776,52.81 48.972,52.726 L48.972,52.726 L49.252,53.916 C48.874,54.042 48.398,54.168 47.852,54.168 C46.256,54.168 45.668,53.16 45.668,51.676 L45.668,51.676 L45.668,48.4 L44.688,48.4 L44.688,47.196 L45.752,47.126 L45.948,45.25 L47.292,45.25 Z M20.524,46.958 C21.994,46.958 22.638,47.952 22.638,49.688 L22.638,49.688 L22.638,54 L21.028,54 L21.028,49.898 C21.028,48.764 20.706,48.344 19.95,48.344 C19.348,48.344 18.956,48.638 18.382,49.198 L18.382,49.198 L18.382,54 L16.772,54 L16.772,47.126 L18.102,47.126 L18.214,48.05 L18.27,48.05 C18.886,47.448 19.586,46.958 20.524,46.958 Z M11.9,48.274 C10.892,48.274 10.29,49.184 10.29,50.57 C10.29,51.942 10.892,52.852 11.9,52.852 C12.908,52.852 13.524,51.942 13.524,50.57 C13.524,49.184 12.908,48.274 11.9,48.274 Z M40.964,48.288 C40.46,48.288 39.984,48.54 39.452,49.058 L39.452,49.058 L39.452,52.264 C39.956,52.684 40.432,52.838 40.838,52.838 C41.748,52.838 42.448,52.026 42.448,50.472 C42.448,49.1 42,48.288 40.964,48.288 Z M33.502,48.204 C32.69,48.204 31.99,48.806 31.85,49.912 L31.85,49.912 L34.902,49.912 C34.902,48.848 34.44,48.204 33.502,48.204 Z M8.26664915,6.60853871 C14.6266492,-0.571461293 28.1966492,-1.72146129 36.4866492,2.28853871 C43.8666492,5.85853871 47.3766492,14.1885387 43.2566492,21.6385387 C39.4166492,28.5085387 28.6166492,33.1385387 21.0566492,30.1385387 L21.0566492,30.1385387 L20.7940998,30.3817203 C17.417379,33.3859746 12.1251107,33.5223849 7.88664915,33.2885387 C7.00664915,33.2185387 7.05664915,32.5285387 7.73664915,32.2185387 C9.33917974,31.5165835 10.7215115,30.393439 11.7366492,28.9685387 C12.2766492,28.1985387 13.0966492,26.6785387 13.0966492,26.6785387 C5.18664915,22.7585387 2.10664915,13.5685387 8.26664915,6.60853871 Z M33.8366492,3.76853871 C27.2377095,1.60355141 20.0512174,2.12816533 13.8366492,5.22853871 C10.515606,6.89072163 8.09956427,9.93639842 7.23664915,13.5485387 C6.12664915,18.9485387 9.65664915,22.1485387 13.6566492,24.8085387 C14.1155973,25.1479299 14.6122239,25.4331547 15.1366492,25.6585387 L15.1366492,25.6585387 L15.2021417,25.7011572 C15.3420288,25.8136243 15.3895966,26.0116964 15.3066492,26.1785387 C14.1133461,28.3822638 12.5583829,30.3699125 10.7066492,32.0585387 C13.7766492,31.7585387 18.3666492,30.6785387 20.0066492,28.6785387 C20.1079851,28.5414012 20.2794321,28.4751603 20.4466492,28.5085387 C20.8703575,28.6767447 21.3046186,28.8170444 21.7466492,28.9285387 C28.1666492,30.0885387 35.4066492,28.4885387 39.7466492,23.4885387 C46.1666492,16.1085387 42.2566492,6.79853871 33.8366492,3.76853871 Z M17.853125,14 C18.878125,14 19.709375,14.83125 19.709375,15.853125 C19.709375,16.878125 18.878125,17.709375 17.853125,17.709375 C16.83125,17.709375 16,16.878125 16,15.853125 C16,14.83125 16.83125,14 17.853125,14 Z M24.85625,14 C25.88125,14 26.7125,14.83125 26.7125,15.853125 C26.7125,16.878125 25.88125,17.709375 24.85625,17.709375 C23.83125,17.709375 23,16.878125 23,15.853125 C23,14.83125 23.83125,14 24.85625,14 Z M31.85625,14 C32.88125,14 33.7125,14.83125 33.7125,15.853125 C33.7125,16.878125 32.88125,17.709375 31.85625,17.709375 C30.83125,17.709375 30,16.878125 30,15.853125 C30,14.83125 30.83125,14 31.85625,14 Z" id="Combined-Shape"></path>
        </g>
    </g>
</svg>