<?xml version="1.0" encoding="UTF-8"?>
<svg width="35px" height="55px" viewBox="0 0 35 55" version="1.1" xmlns="http://www.w3.org/2000/svg" xmlns:xlink="http://www.w3.org/1999/xlink">
    <title>Combined Shape</title>
    <g id="Page-1" stroke="none" stroke-width="1" fill="none" fill-rule="evenodd">
        <g id="date_no-image" fill="#000000" fill-rule="nonzero">
            <path d="M28.488,46.87 C30.35,46.87 31.33,48.214 31.33,50.132 C31.33,50.44 31.302,50.748 31.26,50.916 L31.26,50.916 L26.892,50.916 C27.032,52.134 27.816,52.834 28.922,52.834 C29.51,52.834 30.014,52.652 30.518,52.33 L30.518,52.33 L31.064,53.338 C30.406,53.772 29.58,54.08 28.712,54.08 C26.808,54.08 25.324,52.75 25.324,50.482 C25.324,48.242 26.878,46.87 28.488,46.87 Z M8.916,44.756 L8.916,46.128 L6.27,46.128 L6.27,53.912 L4.646,53.912 L4.646,46.128 L2,46.128 L2,44.756 L8.916,44.756 Z M11.912,47.038 L11.912,53.912 L10.302,53.912 L10.302,47.038 L11.912,47.038 Z M21.684,46.87 C23.14,46.87 23.812,47.864 23.812,49.6 L23.812,49.6 L23.812,53.912 L22.188,53.912 L22.188,49.81 C22.188,48.676 21.852,48.256 21.138,48.256 C20.704,48.256 20.228,48.536 19.696,49.11 L19.696,49.11 L19.696,53.912 L18.086,53.912 L18.086,49.81 C18.086,48.676 17.75,48.256 17.022,48.256 C16.602,48.256 16.112,48.536 15.58,49.11 L15.58,49.11 L15.58,53.912 L13.97,53.912 L13.97,47.038 L15.3,47.038 L15.412,47.976 L15.468,47.976 C16.042,47.36 16.714,46.87 17.568,46.87 C18.576,46.87 19.15,47.332 19.472,48.102 C20.13,47.402 20.816,46.87 21.684,46.87 Z M28.53,48.116 C27.718,48.116 27.018,48.718 26.878,49.824 L26.878,49.824 L29.93,49.824 C29.93,48.76 29.468,48.116 28.53,48.116 Z M11.114,44 C11.688,44 12.108,44.378 12.108,44.924 C12.108,45.456 11.688,45.834 11.114,45.834 C10.54,45.834 10.12,45.456 10.12,44.924 C10.12,44.378 10.54,44 11.114,44 Z M13.95,0.55 C15.459375,0.40625 16.959375,0.46875 18.45,0.778125 C21.6,1.434375 24.24375,2.971875 26.409375,5.346875 C28.209375,7.325 29.396875,9.61875 29.928125,12.2375 C30.109375,13.125 30.19375,14.028125 30.328125,14.9625 L30.328125,14.9625 L34.70625,14.9625 L28.046875,22.390625 L21.384375,14.953125 L26.515625,14.953125 C26.515625,11.065625 23.990625,6.71875 19.54375,4.96875 C13.825,2.721875 7.35,5.471875 4.96875,11.534375 C3.49375,15.3 4.353125,19.4625 6.990625,22.525 C8.65,24.453125 10.7125,25.73125 13.209375,26.2375 C16.4125,26.884375 19.3625,26.21875 22.040625,24.31875 C22.89375,25.23125 23.728125,26.125 24.5625,27.021875 C24.515625,27.075 24.49375,27.1 24.46875,27.121875 C22.7,28.46875 20.021875,29.715625 17.753125,30.01875 C16.75,30.15 15.915625,30.171875 14.99375,30.1699078 C14.628125,30.1699078 13.28125,30.034375 12.7625,29.934375 C9.29375,29.275 6.425,27.596875 4.171875,24.925 C2.18125,22.565625 0.971875,19.621875 0.721875,16.55 C0.6125,15.221875 0.665625,13.9125 0.925,12.596875 C1.721875,8.540625 3.8,5.3625 7.125,3.06875 C9.14375,1.678125 11.50625,0.7875 13.95,0.55 Z M17.1125,8.090625 L17.1125,15.528125 C17.1125,15.675 17.028125,15.853125 16.921875,15.959375 C15.325,17.571875 13.721875,19.171875 12.11875,20.778125 C12.0625,20.834375 11.996875,20.884375 11.975,20.903125 C11.403125,20.334375 10.84375,19.778125 10.278125,19.2125 C10.3375,19.146875 10.415625,19.0625 10.496875,18.98125 C11.825,17.653125 13.146875,16.321875 14.48125,15.003125 C14.646875,14.8375 14.70625,14.678125 14.70625,14.45 C14.7034821,13.6722321 14.6933597,9.28335969 14.6910821,8.29034745 L14.690625,8.090625 L17.1125,8.090625 Z" id="Combined-Shape"></path>
        </g>
    </g>
</svg>