<?xml version="1.0" encoding="UTF-8"?>
<svg width="94px" height="77px" viewBox="0 0 94 77" version="1.1" xmlns="http://www.w3.org/2000/svg" xmlns:xlink="http://www.w3.org/1999/xlink">
    <title>Combined Shape</title>
    <g id="Page-1" stroke="none" stroke-width="1" fill="none" fill-rule="evenodd">
        <g id="diagram_no-image" fill="#000000" fill-rule="nonzero">
            <path d="M55.398,66.842 C55.776,66.842 56.126,66.912 56.406,67.01 L56.406,67.01 L58.87,67.01 L58.87,68.2 L57.61,68.2 C57.834,68.466 58.002,68.886 58.002,69.362 C58.002,70.888 56.854,71.7 55.398,71.7 C55.104,71.7 54.768,71.644 54.46,71.518 C54.25,71.7 54.124,71.868 54.124,72.176 C54.124,72.568 54.404,72.806 55.244,72.806 L55.244,72.806 L56.462,72.806 C58.114,72.806 58.982,73.31 58.982,74.5 C58.982,75.858 57.554,76.922 55.314,76.922 C53.676,76.922 52.458,76.334 52.458,75.13 C52.458,74.556 52.808,74.052 53.438,73.66 L53.438,73.66 L53.438,73.604 C53.088,73.38 52.822,73.016 52.822,72.456 C52.822,71.924 53.186,71.462 53.578,71.182 L53.578,71.182 L53.578,71.126 C53.116,70.776 52.682,70.118 52.682,69.306 C52.682,67.724 53.956,66.842 55.398,66.842 Z M91.098,66.842 C92.806,66.842 93.8,68.214 93.8,70.342 C93.8,72.694 92.386,74.052 90.86,74.052 C90.258,74.052 89.656,73.772 89.096,73.296 L89.096,73.296 L89.138,74.444 L89.138,76.6 L87.528,76.6 L87.528,67.01 L88.858,67.01 L88.97,67.738 L89.026,67.738 C89.6,67.248 90.342,66.842 91.098,66.842 Z M54.334,73.982 C53.97,74.262 53.802,74.57 53.802,74.892 C53.802,75.508 54.474,75.872 55.566,75.872 C56.672,75.872 57.428,75.354 57.428,74.766 C57.428,74.234 56.994,74.08 56.21,74.08 L56.21,74.08 L55.272,74.08 C54.894,74.08 54.6,74.052 54.334,73.982 Z M40.642,66.842 C42.504,66.842 43.484,68.186 43.484,70.104 C43.484,70.412 43.456,70.72 43.414,70.888 L43.414,70.888 L39.046,70.888 C39.186,72.106 39.97,72.806 41.076,72.806 C41.664,72.806 42.168,72.624 42.672,72.302 L42.672,72.302 L43.218,73.31 C42.56,73.744 41.734,74.052 40.866,74.052 C38.962,74.052 37.478,72.722 37.478,70.454 C37.478,68.214 39.032,66.842 40.642,66.842 Z M18.872,66.842 C20.594,66.842 22.148,68.158 22.148,70.454 C22.148,72.736 20.594,74.052 18.872,74.052 C17.164,74.052 15.61,72.736 15.61,70.454 C15.61,68.158 17.164,66.842 18.872,66.842 Z M83.034,66.842 C84.742,66.842 85.596,67.892 85.596,69.81 L85.596,69.81 L85.596,73.884 L84.266,73.884 L84.154,73.128 L84.098,73.128 C83.482,73.646 82.782,74.052 81.97,74.052 C80.766,74.052 79.94,73.24 79.94,72.036 C79.94,70.566 81.158,69.796 83.986,69.488 C83.958,68.76 83.664,68.144 82.726,68.144 C82.054,68.144 81.41,68.452 80.794,68.816 L80.794,68.816 L80.206,67.738 C80.962,67.262 81.942,66.842 83.034,66.842 Z M35.742,64 L35.742,72.204 C35.742,72.596 35.924,72.736 36.092,72.736 C36.162,72.736 36.218,72.736 36.344,72.708 L36.344,72.708 L36.554,73.912 C36.358,73.996 36.078,74.052 35.7,74.052 C34.552,74.052 34.132,73.31 34.132,72.12 L34.132,72.12 L34.132,64 L35.742,64 Z M50.876,64 L50.876,73.884 L49.546,73.884 L49.434,73.142 L49.378,73.142 C48.874,73.646 48.174,74.052 47.432,74.052 C45.71,74.052 44.604,72.722 44.604,70.454 C44.604,68.214 46.018,66.842 47.516,66.842 C48.3,66.842 48.79,67.136 49.322,67.598 L49.322,67.598 L49.266,66.492 L49.266,64 L50.876,64 Z M62.692,66.842 C64.554,66.842 65.534,68.186 65.534,70.104 C65.534,70.412 65.506,70.72 65.464,70.888 L65.464,70.888 L61.096,70.888 C61.236,72.106 62.02,72.806 63.126,72.806 C63.714,72.806 64.218,72.624 64.722,72.302 L64.722,72.302 L65.268,73.31 C64.61,73.744 63.784,74.052 62.916,74.052 C61.012,74.052 59.528,72.722 59.528,70.454 C59.528,68.214 61.082,66.842 62.692,66.842 Z M71.848,64.728 L73.472,69.208 C73.668,69.782 73.864,70.398 74.06,71 L74.06,71 L74.116,71 C74.312,70.398 74.494,69.782 74.69,69.208 L74.69,69.208 L76.272,64.728 L78.12,64.728 L78.12,73.884 L76.622,73.884 L76.622,69.698 C76.622,68.844 76.748,67.626 76.832,66.786 L76.832,66.786 L76.776,66.786 L76.034,68.914 L74.536,73.03 L73.57,73.03 L72.058,68.914 L71.33,66.786 L71.274,66.786 C71.344,67.626 71.484,68.844 71.484,69.698 L71.484,69.698 L71.484,73.884 L70.014,73.884 L70.014,64.728 L71.848,64.728 Z M24.598,67.01 L25.424,70.58 C25.564,71.238 25.662,71.882 25.788,72.554 L25.788,72.554 L25.844,72.554 C25.97,71.882 26.11,71.224 26.278,70.58 L26.278,70.58 L27.174,67.01 L28.644,67.01 L29.554,70.58 C29.722,71.238 29.862,71.882 30.016,72.554 L30.016,72.554 L30.072,72.554 C30.198,71.882 30.31,71.238 30.436,70.58 L30.436,70.58 L31.262,67.01 L32.774,67.01 L31.024,73.884 L29.106,73.884 L28.308,70.678 C28.154,70.034 28.042,69.404 27.888,68.676 L27.888,68.676 L27.832,68.676 C27.706,69.404 27.58,70.048 27.426,70.692 L27.426,70.692 L26.642,73.884 L24.794,73.884 L22.974,67.01 L24.598,67.01 Z M11.97,66.842 C13.44,66.842 14.084,67.836 14.084,69.572 L14.084,69.572 L14.084,73.884 L12.474,73.884 L12.474,69.782 C12.474,68.648 12.152,68.228 11.396,68.228 C10.794,68.228 10.402,68.522 9.828,69.082 L9.828,69.082 L9.828,73.884 L8.218,73.884 L8.218,67.01 L9.548,67.01 L9.66,67.934 L9.716,67.934 C10.332,67.332 11.032,66.842 11.97,66.842 Z M1.624,64.728 L1.624,68.886 L1.666,68.886 L4.928,64.728 L6.734,64.728 L3.92,68.298 L7.21,73.884 L5.418,73.884 L2.94,69.572 L1.624,71.21 L1.624,73.884 L0,73.884 L0,64.728 L1.624,64.728 Z M83.986,70.496 C82.11,70.734 81.494,71.224 81.494,71.91 C81.494,72.526 81.914,72.792 82.488,72.792 C83.048,72.792 83.468,72.512 83.986,72.036 L83.986,72.036 Z M18.872,68.158 C17.864,68.158 17.262,69.068 17.262,70.454 C17.262,71.826 17.864,72.736 18.872,72.736 C19.88,72.736 20.496,71.826 20.496,70.454 C20.496,69.068 19.88,68.158 18.872,68.158 Z M90.65,68.172 C90.146,68.172 89.67,68.424 89.138,68.942 L89.138,68.942 L89.138,72.148 C89.642,72.568 90.118,72.722 90.524,72.722 C91.434,72.722 92.134,71.91 92.134,70.356 C92.134,68.984 91.686,68.172 90.65,68.172 Z M47.866,68.172 C46.984,68.172 46.27,68.998 46.27,70.44 C46.27,71.924 46.83,72.722 47.824,72.722 C48.356,72.722 48.804,72.484 49.266,71.952 L49.266,71.952 L49.266,68.746 C48.79,68.326 48.328,68.172 47.866,68.172 Z M55.398,67.948 C54.726,67.948 54.194,68.438 54.194,69.306 C54.194,70.188 54.726,70.692 55.398,70.692 C56.056,70.692 56.588,70.188 56.588,69.306 C56.588,68.452 56.07,67.948 55.398,67.948 Z M40.684,68.088 C39.872,68.088 39.172,68.69 39.032,69.796 L39.032,69.796 L42.084,69.796 C42.084,68.732 41.622,68.088 40.684,68.088 Z M62.734,68.088 C61.922,68.088 61.222,68.69 61.082,69.796 L61.082,69.796 L64.134,69.796 C64.134,68.732 63.672,68.088 62.734,68.088 Z M53.5181243,32 L56.7972729,37.4213853 C59.4691717,36.3249254 62.6268702,37.2995564 64.1449946,39.9188773 C65.8452939,42.7209416 64.9344192,46.4367225 62.0803455,48.1423269 C59.2869968,49.8479313 55.5827735,48.9342146 53.8824742,46.0712359 C52.3643498,43.5128293 52.9108746,40.284364 55.1576986,38.3960163 L55.1576986,38.3960163 L52,33.0964599 C52.5465248,32.7918877 53.0323246,32.4264011 53.5181243,32 L53.5181243,32 Z M46,14 C51.508982,14 56,18.491018 56,24 C56,29.508982 51.508982,34 46,34 C44.5409082,34 43.1532257,33.6849588 41.9014802,33.119404 L42,33.1849318 L38.4334263,36.9268219 C39.5798251,38.6106725 39.5161363,40.9805361 37.9876046,42.5396569 C36.2680067,44.410602 33.3383211,44.4729669 31.4913455,42.7891163 C29.580681,41.1052658 29.5169922,38.2364834 31.2365903,36.4279032 C32.7651218,34.8687824 35.121608,34.5569583 36.9685836,35.6171604 L36.9685836,35.6171604 L40.2449758,32.1709189 C37.6798225,30.3577002 36,27.36923 36,24 C36,18.491018 40.491018,14 46,14 Z M57.7193087,25.2152798 C58.7631747,23.4179779 60.9123104,22.5503149 62.9386384,23.2320502 C65.271986,23.9757612 66.5614674,26.5167742 65.763217,28.9338353 C65.0263704,31.2889206 62.5088113,32.528439 60.1754639,31.784728 C58.2105397,31.1029927 56.9824621,29.1197631 57.1666738,27.0745575 L57.1666738,27.0745575 L56,26.702702 C56.1228078,26.0829427 56.2456156,25.4631835 56.3070194,24.7814483 L56.3070194,24.7814483 Z M46,17.8323354 C43.9041916,17.8323354 42.2275449,19.508982 42.2275449,21.6047904 C42.2275449,23.1017964 43.0658683,24.3592815 44.2634731,24.9580838 L44.2634731,24.9580838 L42.4071856,24.9580838 C41.5688623,24.9580838 40.9101797,25.6167664 40.9101797,26.4550898 L40.9101797,26.4550898 L40.3712575,28.6107784 C40.3712575,29.4491018 41.0299401,30.1077844 41.8682635,30.1077844 L41.8682635,30.1077844 L50.0718563,30.1077844 C50.9101797,30.1077844 51.5688623,29.4491018 51.6287425,28.6107784 L51.6287425,28.6107784 L51.0898203,26.4550898 C51.0898203,25.6167664 50.4311377,24.9580838 49.5928144,24.9580838 L49.5928144,24.9580838 L47.7365269,24.9580838 C48.9341317,24.2994012 49.7724551,23.0419162 49.7724551,21.6047904 C49.7724551,19.508982 48.0958084,17.8323354 46,17.8323354 Z M18.2677021,16.1643799 C19.2197718,13.0353671 22.4925113,11.2561244 25.5867378,12.2991288 C28.3239382,13.2194267 29.9900602,16.0416735 29.5735297,18.9252735 L29.5735297,18.9252735 L36,21.0112821 C35.7619826,21.6248141 35.6429739,22.2383459 35.5239651,22.8518779 L35.5239651,22.8518779 L28.9784861,20.7045162 C27.7288946,23.2813503 24.7536769,24.6311204 22.0164765,23.7108225 C18.9817544,22.7291714 17.3156324,19.2933927 18.2677021,16.1643799 Z M60.3885904,10.532576 C62.5564141,9.37515833 65.2816782,10.1670757 66.4584968,12.2991608 C67.6353154,14.4312461 66.8301237,17.1115817 64.6623001,18.2689994 C62.8041654,19.3045836 60.5124661,18.8172498 59.149834,17.2943318 L59.149834,17.2943318 L55.9910052,19 C55.7432538,18.4517495 55.3716269,17.9034991 55,17.3552485 L55,17.3552485 L58.2207667,15.6495805 C57.6633263,13.7002454 58.5304557,11.5072435 60.3885904,10.532576 Z M46.5,0 C49,0 51,2.00896861 51,4.52017938 C51,6.71748879 49.4375,8.53811659 47.4375,8.97757848 L47.4375,8.97757848 L47.4375,14 C47.1250001,13.9372197 46.8125,13.9372197 46.5,13.9372197 C46.1875,13.9372197 45.8749999,14 45.5625,14 L45.5625,14 L45.5625,8.97757848 C43.5625,8.53811659 42,6.71748879 42,4.52017938 C42,2.00896861 44,0 46.5,0 Z" id="Combined-Shape"></path>
        </g>
    </g>
</svg>