<?xml version="1.0" encoding="UTF-8"?>
<svg width="33px" height="55px" viewBox="0 0 33 55" version="1.1" xmlns="http://www.w3.org/2000/svg" xmlns:xlink="http://www.w3.org/1999/xlink">
    <title>Combined Shape</title>
    <g id="Page-1" stroke="none" stroke-width="1" fill="none" fill-rule="evenodd">
        <g id="event_no-image" fill="#000000" fill-rule="nonzero">
            <path d="M16.814,47.114 C18.676,47.114 19.656,48.458 19.656,50.376 C19.656,50.684 19.628,50.992 19.586,51.16 L19.586,51.16 L15.218,51.16 C15.358,52.378 16.142,53.078 17.248,53.078 C17.836,53.078 18.34,52.896 18.844,52.574 L18.844,52.574 L19.39,53.582 C18.732,54.016 17.906,54.324 17.038,54.324 C15.134,54.324 13.65,52.994 13.65,50.726 C13.65,48.486 15.204,47.114 16.814,47.114 Z M30.898,45.406 L30.898,47.282 L32.648,47.282 L32.648,48.556 L30.898,48.556 L30.898,51.832 C30.898,52.644 31.206,53.036 31.864,53.036 C32.102,53.036 32.382,52.966 32.578,52.882 L32.578,52.882 L32.858,54.072 C32.48,54.198 32.004,54.324 31.458,54.324 C29.862,54.324 29.274,53.316 29.274,51.832 L29.274,51.832 L29.274,48.556 L28.294,48.556 L28.294,47.352 L29.358,47.282 L29.554,45.406 L30.898,45.406 Z M5.516,45 L5.516,46.372 L1.624,46.372 L1.624,48.71 L4.914,48.71 L4.914,50.082 L1.624,50.082 L1.624,52.784 L5.656,52.784 L5.656,54.156 L0,54.156 L0,45 L5.516,45 Z M8.036,47.282 L9.128,50.852 C9.31,51.524 9.52,52.224 9.702,52.924 L9.702,52.924 L9.758,52.924 C9.954,52.224 10.15,51.524 10.346,50.852 L10.346,50.852 L11.438,47.282 L12.992,47.282 L10.654,54.156 L8.792,54.156 L6.398,47.282 L8.036,47.282 Z M24.948,47.114 C26.418,47.114 27.062,48.108 27.062,49.844 L27.062,49.844 L27.062,54.156 L25.452,54.156 L25.452,50.054 C25.452,48.92 25.13,48.5 24.374,48.5 C23.772,48.5 23.38,48.794 22.806,49.354 L22.806,49.354 L22.806,54.156 L21.196,54.156 L21.196,47.282 L22.526,47.282 L22.638,48.206 L22.694,48.206 C23.31,47.604 24.01,47.114 24.948,47.114 Z M16.856,48.36 C16.044,48.36 15.344,48.962 15.204,50.068 L15.204,50.068 L18.256,50.068 C18.256,49.004 17.794,48.36 16.856,48.36 Z M7.559375,3.415625 L7.559375,5.81875 C7.559375,6.45625 8.08125,6.978125 8.71875,6.978125 L10.071875,6.978125 C10.709375,6.978125 11.23125,6.45625 11.23125,5.81875 L11.23125,3.415625 L20.565625,3.415625 L20.565625,5.81875 C20.565625,6.45625 21.0875,6.978125 21.725,6.978125 L23.075,6.978125 C23.7125,6.978125 24.234375,6.45625 24.234375,5.81875 L24.234375,3.415625 L26.725,3.415625 C28,3.415625 29.04375,4.459375 29.04375,5.734375 L29.04375,27.93125 C29.04375,29.153125 28.0851671,30.1626194 26.8831118,30.2446226 L26.725,30.25 L4.525,30.25 C3.25,30.25 2.20625,29.20625 2.20625,27.93125 L2.20625,5.734375 C2.20625,4.459375 3.25,3.415625 4.525,3.415625 L7.559375,3.415625 Z M25.859375,11.034375 L4.990625,11.034375 L4.990625,26.490625 C4.990625,27.2435662 5.35048659,27.26616 5.9373378,27.2662128 L24.76875,27.2661313 C25.41875,27.2661313 25.859375,27.290625 25.859375,26.490625 L25.859375,11.034375 Z M10.7875,20.309375 L10.7875,23.7875 L7.309375,23.7875 L7.309375,20.309375 L10.7875,20.309375 Z M16.584375,20.309375 L16.584375,23.7875 L13.10625,23.7875 L13.10625,20.309375 L16.584375,20.309375 Z M10.7875,14.5125 L10.7875,17.990625 L7.309375,17.990625 L7.309375,14.5125 L10.7875,14.5125 Z M16.584375,14.5125 L16.584375,17.990625 L13.10625,17.990625 L13.10625,14.5125 L16.584375,14.5125 Z M22.38125,14.5125 L22.38125,17.990625 L18.903125,17.990625 L18.903125,14.5125 L22.38125,14.5125 Z M22.875,0.528125 C23.278125,0.528125 23.609375,0.965625 23.609375,1.496875 L23.609375,5.371875 C23.609375,5.86225962 23.3271265,6.27276257 22.9666349,6.33301519 L22.875,6.340625 L22.021875,6.340625 C21.61875,6.340625 21.290625,5.903125 21.290625,5.371875 L21.290625,1.496875 C21.290625,0.965625 21.61875,0.528125 22.021875,0.528125 L22.875,0.528125 Z M9.884375,0.5375 C10.2875,0.5375 10.615625,0.975 10.615625,1.50625 L10.615625,5.36875 C10.615625,5.85913462 10.3360392,6.26697485 9.97595727,6.32681782 L9.884375,6.334375 L9.028125,6.334375 C8.625,6.334375 8.296875,5.9 8.296875,5.36875 L8.296875,1.50625 C8.296875,0.975 8.625,0.5375 9.028125,0.5375 L9.884375,0.5375 Z" id="Combined-Shape"></path>
        </g>
    </g>
</svg>