<?xml version="1.0" encoding="UTF-8"?>
<svg width="72px" height="110px" viewBox="0 0 72 110" version="1.1" xmlns="http://www.w3.org/2000/svg" xmlns:xlink="http://www.w3.org/1999/xlink">
    <title>Combined Shape</title>
    <g id="Page-1" stroke="none" stroke-width="1" fill="none" fill-rule="evenodd">
        <g id="individual_inf_no-image" fill="#000000" fill-rule="nonzero">
            <path d="M59.837,101.87 C61.699,101.87 62.679,103.214 62.679,105.132 C62.679,105.44 62.651,105.748 62.609,105.916 L62.609,105.916 L58.241,105.916 C58.381,107.134 59.165,107.834 60.271,107.834 C60.859,107.834 61.363,107.652 61.867,107.33 L61.867,107.33 L62.413,108.338 C61.755,108.772 60.929,109.08 60.061,109.08 C58.157,109.08 56.673,107.75 56.673,105.482 C56.673,103.242 58.227,101.87 59.837,101.87 Z M53.985,101.87 C54.867,101.87 55.497,102.206 56.001,102.64 L56.001,102.64 L55.217,103.69 C54.853,103.368 54.503,103.186 54.069,103.186 C52.963,103.186 52.193,104.096 52.193,105.482 C52.193,106.854 52.949,107.764 54.027,107.764 C54.559,107.764 55.049,107.498 55.441,107.176 L55.441,107.176 L56.099,108.24 C55.455,108.8 54.643,109.08 53.859,109.08 C51.983,109.08 50.541,107.764 50.541,105.482 C50.541,103.186 52.151,101.87 53.985,101.87 Z M38.767,101.87 C40.629,101.87 41.609,103.214 41.609,105.132 C41.609,105.44 41.581,105.748 41.539,105.916 L41.539,105.916 L37.171,105.916 C37.311,107.134 38.095,107.834 39.201,107.834 C39.789,107.834 40.293,107.652 40.797,107.33 L40.797,107.33 L41.343,108.338 C40.685,108.772 39.859,109.08 38.991,109.08 C37.087,109.08 35.603,107.75 35.603,105.482 C35.603,103.242 37.157,101.87 38.767,101.87 Z M29.807,102.038 L29.807,106.14 C29.807,107.274 30.129,107.694 30.871,107.694 C31.473,107.694 31.879,107.414 32.397,106.742 L32.397,106.742 L32.397,102.038 L34.007,102.038 L34.007,108.912 L32.691,108.912 L32.565,107.904 L32.523,107.904 C31.921,108.618 31.249,109.08 30.311,109.08 C28.841,109.08 28.197,108.086 28.197,106.35 L28.197,106.35 L28.197,102.038 L29.807,102.038 Z M26.083,99.028 L26.083,107.232 C26.083,107.624 26.265,107.764 26.433,107.764 C26.503,107.764 26.559,107.764 26.685,107.736 L26.685,107.736 L26.895,108.94 C26.699,109.024 26.419,109.08 26.041,109.08 C24.893,109.08 24.473,108.338 24.473,107.148 L24.473,107.148 L24.473,99.028 L26.083,99.028 Z M46.901,101.87 C48.371,101.87 49.015,102.864 49.015,104.6 L49.015,104.6 L49.015,108.912 L47.405,108.912 L47.405,104.81 C47.405,103.676 47.083,103.256 46.327,103.256 C45.725,103.256 45.333,103.55 44.759,104.11 L44.759,104.11 L44.759,108.912 L43.149,108.912 L43.149,102.038 L44.479,102.038 L44.591,102.962 L44.647,102.962 C45.263,102.36 45.963,101.87 46.901,101.87 Z M22.597,98.86 C23.087,98.86 23.549,98.972 23.857,99.098 L23.857,99.098 L23.549,100.302 C23.297,100.19 23.031,100.134 22.793,100.134 C22.233,100.134 21.925,100.498 21.925,101.296 L21.925,101.296 L21.925,102.038 L23.269,102.038 L23.269,103.312 L21.925,103.312 L21.925,108.912 L20.315,108.912 L20.315,103.312 L19.391,103.312 L19.391,102.108 L20.315,102.038 L20.315,101.324 C20.315,99.896 20.973,98.86 22.597,98.86 Z M15.947,101.87 C17.417,101.87 18.061,102.864 18.061,104.6 L18.061,104.6 L18.061,108.912 L16.451,108.912 L16.451,104.81 C16.451,103.676 16.129,103.256 15.373,103.256 C14.771,103.256 14.379,103.55 13.805,104.11 L13.805,104.11 L13.805,108.912 L12.195,108.912 L12.195,102.038 L13.525,102.038 L13.637,102.962 L13.693,102.962 C14.309,102.36 15.009,101.87 15.947,101.87 Z M10.011,99.756 L10.011,108.912 L8.387,108.912 L8.387,99.756 L10.011,99.756 Z M59.879,103.116 C59.067,103.116 58.367,103.718 58.227,104.824 L58.227,104.824 L61.279,104.824 C61.279,103.76 60.817,103.116 59.879,103.116 Z M38.809,103.116 C37.997,103.116 37.297,103.718 37.157,104.824 L37.157,104.824 L40.209,104.824 C40.209,103.76 39.747,103.116 38.809,103.116 Z M23.5,83.028 L23.5,92.912 L22.17,92.912 L22.058,92.17 L22.002,92.17 C21.498,92.674 20.798,93.08 20.056,93.08 C18.334,93.08 17.228,91.75 17.228,89.482 C17.228,87.242 18.642,85.87 20.14,85.87 C20.924,85.87 21.414,86.164 21.946,86.626 L21.946,86.626 L21.89,85.52 L21.89,83.028 L23.5,83.028 Z M45.662,83.028 L45.662,92.912 L44.332,92.912 L44.22,92.17 L44.164,92.17 C43.66,92.674 42.96,93.08 42.218,93.08 C40.496,93.08 39.39,91.75 39.39,89.482 C39.39,87.242 40.804,85.87 42.302,85.87 C43.086,85.87 43.576,86.164 44.108,86.626 L44.108,86.626 L44.052,85.52 L44.052,83.028 L45.662,83.028 Z M64.324,83.028 L64.324,91.232 C64.324,91.624 64.506,91.764 64.674,91.764 C64.744,91.764 64.8,91.764 64.926,91.736 L64.926,91.736 L65.136,92.94 C64.94,93.024 64.66,93.08 64.282,93.08 C63.134,93.08 62.714,92.338 62.714,91.148 L62.714,91.148 L62.714,83.028 L64.324,83.028 Z M49.246,86.038 L49.246,90.14 C49.246,91.274 49.568,91.694 50.31,91.694 C50.912,91.694 51.318,91.414 51.836,90.742 L51.836,90.742 L51.836,86.038 L53.446,86.038 L53.446,92.912 L52.13,92.912 L52.004,91.904 L51.962,91.904 C51.36,92.618 50.688,93.08 49.75,93.08 C48.28,93.08 47.636,92.086 47.636,90.35 L47.636,90.35 L47.636,86.038 L49.246,86.038 Z M58.22,85.87 C59.928,85.87 60.782,86.92 60.782,88.838 L60.782,88.838 L60.782,92.912 L59.452,92.912 L59.34,92.156 L59.284,92.156 C58.668,92.674 57.968,93.08 57.156,93.08 C55.952,93.08 55.126,92.268 55.126,91.064 C55.126,89.594 56.344,88.824 59.172,88.516 C59.144,87.788 58.85,87.172 57.912,87.172 C57.24,87.172 56.596,87.48 55.98,87.844 L55.98,87.844 L55.392,86.766 C56.148,86.29 57.128,85.87 58.22,85.87 Z M7.624,83.756 L7.624,92.912 L6,92.912 L6,83.756 L7.624,83.756 Z M37.752,86.038 L37.752,92.912 L36.142,92.912 L36.142,86.038 L37.752,86.038 Z M13.56,85.87 C15.03,85.87 15.674,86.864 15.674,88.6 L15.674,88.6 L15.674,92.912 L14.064,92.912 L14.064,88.81 C14.064,87.676 13.742,87.256 12.986,87.256 C12.384,87.256 11.992,87.55 11.418,88.11 L11.418,88.11 L11.418,92.912 L9.808,92.912 L9.808,86.038 L11.138,86.038 L11.25,86.962 L11.306,86.962 C11.922,86.36 12.622,85.87 13.56,85.87 Z M27.154,86.038 L27.154,92.912 L25.544,92.912 L25.544,86.038 L27.154,86.038 Z M29.996,86.038 L31.088,89.608 C31.27,90.28 31.48,90.98 31.662,91.68 L31.662,91.68 L31.718,91.68 C31.914,90.98 32.11,90.28 32.306,89.608 L32.306,89.608 L33.398,86.038 L34.952,86.038 L32.614,92.912 L30.752,92.912 L28.358,86.038 L29.996,86.038 Z M59.172,89.524 C57.296,89.762 56.68,90.252 56.68,90.938 C56.68,91.554 57.1,91.82 57.674,91.82 C58.234,91.82 58.654,91.54 59.172,91.064 L59.172,91.064 Z M20.49,87.2 C19.608,87.2 18.894,88.026 18.894,89.468 C18.894,90.952 19.454,91.75 20.448,91.75 C20.98,91.75 21.428,91.512 21.89,90.98 L21.89,90.98 L21.89,87.774 C21.414,87.354 20.952,87.2 20.49,87.2 Z M42.652,87.2 C41.77,87.2 41.056,88.026 41.056,89.468 C41.056,90.952 41.616,91.75 42.61,91.75 C43.142,91.75 43.59,91.512 44.052,90.98 L44.052,90.98 L44.052,87.774 C43.576,87.354 43.114,87.2 42.652,87.2 Z M26.356,83 C26.93,83 27.35,83.378 27.35,83.924 C27.35,84.456 26.93,84.834 26.356,84.834 C25.782,84.834 25.362,84.456 25.362,83.924 C25.362,83.378 25.782,83 26.356,83 Z M36.954,83 C37.528,83 37.948,83.378 37.948,83.924 C37.948,84.456 37.528,84.834 36.954,84.834 C36.38,84.834 35.96,84.456 35.96,83.924 C35.96,83.378 36.38,83 36.954,83 Z M35.4780635,51 C48.9384563,51 49.9366829,61.695242 49.9558343,62.0453745 L49.9561271,62.0529248 L50,65.3509749 C50,66.1954259 49.3306038,66.9198759 48.5140647,66.9937946 L48.376702,67 L22.623298,67 C21.7920216,67 21.078874,66.3199947 21.0061086,65.4905146 L21,65.3509749 L21,62.1420613 C21,62.0083565 21.7019667,51 35.4780635,51 Z M33,4 L32.5,6.5 C21.713022,6.49146997 12.2131232,12.0573719 6.65906682,21.4457073 C1.10501044,30.8340427 0.811848407,42.4930116 5.88684285,52.1568302 C8.09472419,56.3398426 11.2054297,59.958834 14.9834155,62.7448053 L15.4591221,63.0886936 L14.1443033,65 C9.85563512,61.9578069 6.33386574,57.9318986 3.86481093,53.2490053 C-1.57522196,42.8631486 -1.25374217,30.3419926 4.7118532,20.2579792 C10.6774486,10.1739658 21.4137105,4.00353952 33,4 Z M69.5600645,25.3936059 C69.8331322,26.1048282 70.0839925,26.8230865 70.3126456,27.5483807 L70.5338963,28.2760203 L70.6319517,28.6153793 L70.7183639,28.9240304 L70.7936786,29.2123844 L70.8811821,29.541857 L70.8948222,29.8021254 L70.968863,30.1140347 L70.968863,30.1140347 L71.0381734,30.4314116 L71.049631,30.6500369 L71.1293106,31.0216768 L71.1413139,31.250713 L71.2109872,31.6228773 L71.2218993,31.831092 C71.2654794,31.9819182 71.2971194,32.1318236 71.3168193,32.2808081 L71.3374139,32.5035944 L71.3505084,32.753452 L71.3685133,33.0970061 L71.3837902,33.3885067 L71.4007039,33.7112394 C71.4077968,33.8465789 71.4165264,34.0131506 71.4219824,34.117258 C71.4274385,34.2213653 71.4301665,34.273419 71.4388961,34.4399907 C71.4476258,34.6065624 71.4601747,34.8460093 71.4639939,34.9188844 C71.4678131,34.9917595 71.4683587,35.0021703 71.4759972,35.1479205 C71.4836356,35.2936708 71.4950933,35.5122962 71.4989125,35.5851713 C71.5027317,35.6580465 71.5060054,35.7205108 71.5098246,35.7933859 C71.5229191,36.0432435 71.534013,36.2549284 71.5431064,36.4284407 C71.5521998,36.6019529 71.5612932,36.7754651 71.5703866,36.9489774 C71.6578416,39.5714584 71.458695,42.1945529 70.9767759,44.7678249 C70.4892006,47.4233947 69.7018853,50.0085563 68.6311556,52.469705 C66.5956454,57.139372 63.5919971,61.2765524 59.8375841,64.5871723 L59.3834648,64.9804603 L57.9211246,63.1153835 C61.58815,59.9691678 64.509869,55.9877661 66.4619907,51.4768174 C68.5009366,46.8022916 69.4168274,41.6782018 69.1310405,36.5444123 C69.1206741,36.3466085 69.1032148,36.013465 69.0999411,35.9510006 C69.0966675,35.8885362 69.0933939,35.8260718 69.0901203,35.7636074 L69.0796174,35.5632008 L69.0796174,35.5632008 L69.0688417,35.3575888 L69.0579297,35.1493741 C69.0502912,35.0036239 69.0393792,34.7954093 69.0344687,34.7017127 C69.0295583,34.608016 69.0268303,34.5559624 69.0197374,34.4206228 L69.0090982,34.2176136 L69.0090982,34.2176136 L68.9984589,34.0146043 L68.9837276,33.7335145 L68.9684507,33.442014 L68.9526282,33.1401027 L68.9384425,32.8694237 C68.9052118,32.7458933 68.8809564,32.6234391 68.8656764,32.5020611 L68.8494877,32.3208013 L68.8363933,32.0709436 L68.8194796,31.7482109 L68.8063851,31.4983533 L68.790017,31.1860314 L68.7752857,30.9049416 L68.6712287,30.4510646 L68.5937315,30.1210675 L68.5295143,29.8530106 L68.4431021,29.5443594 L68.3799761,29.2971239 L68.2686407,28.895825 L68.2604567,28.739664 C68.0514492,28.0488628 67.8780533,27.5179177 67.6465932,26.8902558 L67.5,26.5 L69.5600645,25.3936059 Z M58.8707296,28.9579272 C60.4492694,31.8281709 61.3883359,34.9984752 61.6252207,38.2571346 L61.6259004,38.2701037 C61.6264549,38.2806839 61.6276354,38.3032094 61.6300501,38.3492842 L61.641218,38.5623804 L61.641218,38.5623804 L61.6527481,38.7823877 L61.6060346,38.7848359 C61.9438555,45.1042049 59.6422319,51.2810757 55.2496293,55.8825349 L54.939783,56.2009928 L53.4759319,54.7253432 C57.6502412,50.5169495 59.8471432,44.7775557 59.5324409,38.9027486 L59.5220578,38.7046268 L59.5220578,38.7046268 L59.5116746,38.506505 L59.5073282,38.4235702 C59.3468905,36.2576564 58.8466522,34.1299013 58.0244687,32.1162515 C57.7930391,31.568299 57.5382329,31.0303645 57.2607542,30.5038807 L56.9757441,29.981267 L58.8707296,28.9579272 Z M31,14.999993 L31,17.1431851 C23.880405,17.1455998 17.2521261,20.8413593 13.4129163,26.9492952 C9.57370643,33.0572311 9.0521438,40.7364094 12.0290328,47.3247735 C13.1757718,49.8630692 14.8028526,52.143911 16.8152878,54.0374805 L17.1971121,54.3879547 L15.8067616,55.999993 C8.62223442,49.5629035 6.10317989,39.2653236 9.48232123,30.1464788 C12.8614626,21.027634 21.4320559,14.9947212 31,14.999993 Z M49.1477388,31.4702322 C53.1797136,37.459058 52.2877552,45.2298993 47.0220438,50.3707762 L46.7595506,50.6214665 L45.1754095,49.2005218 C49.8729214,44.8308383 50.783826,38.1093973 47.429767,32.8727731 L47.2460025,32.593682 L49.1477388,31.4702322 Z M33,25 L33,26.9371467 C27.9565805,26.9549554 23.450292,30.1457116 21.6826045,34.9506261 C19.9525273,39.6533083 21.1991503,44.9415945 24.8088147,48.3347923 L25.0475715,48.5533755 L23.8134331,50 C19.4067823,46.0993479 17.8421072,39.8266227 19.8873937,34.260652 C21.9326802,28.6946813 27.1585495,25.0039614 33,25 Z M35,34 C38.8414634,34 42,37.5801105 42,42 C42,46.4198895 38.8414634,50 35,50 C31.1585366,50 28,46.4198895 28,42 C28,37.5801105 31.1585366,34 35,34 Z M58.9403341,0 C66.1050119,0 72,5.82201241 72,12.9875661 C72,20.0492713 66.3627254,25.7191041 59.2548574,25.8819639 L58.9403341,25.8855629 L50.052506,25.8855629 L39.5,31 L42,25 C36.7398568,23.298181 34,18.6304397 34,12.8979967 C34,5.83629159 39.6372746,0.166458778 46.7451426,0.00359903798 L47.0596659,0 L58.9403341,0 Z M46,11 C44.8888889,11 44,12.1111111 44,13.5 C44,14.8888889 44.8888889,16 46,16 C47.1111111,16 48,14.8888889 48,13.5 C48,12.1111111 47.1111111,11 46,11 Z M54,11 C52.8888889,11 52,12.1111111 52,13.5 C52,14.8888889 52.8888889,16 54,16 C55.1111111,16 56,14.8888889 56,13.5 C56,12.1111111 55.1111111,11 54,11 Z M62,11 C60.8888889,11 60,12.1111111 60,13.5 C60,14.8888889 60.8888889,16 62,16 C63,16 63.8888889,14.8888889 64,13.5 C64,12.1111111 63.1111111,11 62,11 Z" id="Combined-Shape"></path>
        </g>
    </g>
</svg>