<?xml version="1.0" encoding="UTF-8"?>
<svg width="55px" height="78px" viewBox="0 0 55 78" version="1.1" xmlns="http://www.w3.org/2000/svg" xmlns:xlink="http://www.w3.org/1999/xlink">
    <title>Combined Shape</title>
    <g id="Page-1" stroke="none" stroke-width="1" fill="none" fill-rule="evenodd">
        <g id="influence_no-image" fill="#000000" fill-rule="nonzero">
            <path d="M51.45,70.01 C53.312,70.01 54.292,71.354 54.292,73.272 C54.292,73.58 54.264,73.888 54.222,74.056 L54.222,74.056 L49.854,74.056 C49.994,75.274 50.778,75.974 51.884,75.974 C52.472,75.974 52.976,75.792 53.48,75.47 L53.48,75.47 L54.026,76.478 C53.368,76.912 52.542,77.22 51.674,77.22 C49.77,77.22 48.286,75.89 48.286,73.622 C48.286,71.382 49.84,70.01 51.45,70.01 Z M45.598,70.01 C46.48,70.01 47.11,70.346 47.614,70.78 L47.614,70.78 L46.83,71.83 C46.466,71.508 46.116,71.326 45.682,71.326 C44.576,71.326 43.806,72.236 43.806,73.622 C43.806,74.994 44.562,75.904 45.64,75.904 C46.172,75.904 46.662,75.638 47.054,75.316 L47.054,75.316 L47.712,76.38 C47.068,76.94 46.256,77.22 45.472,77.22 C43.596,77.22 42.154,75.904 42.154,73.622 C42.154,71.326 43.764,70.01 45.598,70.01 Z M30.38,70.01 C32.242,70.01 33.222,71.354 33.222,73.272 C33.222,73.58 33.194,73.888 33.152,74.056 L33.152,74.056 L28.784,74.056 C28.924,75.274 29.708,75.974 30.814,75.974 C31.402,75.974 31.906,75.792 32.41,75.47 L32.41,75.47 L32.956,76.478 C32.298,76.912 31.472,77.22 30.604,77.22 C28.7,77.22 27.216,75.89 27.216,73.622 C27.216,71.382 28.77,70.01 30.38,70.01 Z M21.42,70.178 L21.42,74.28 C21.42,75.414 21.742,75.834 22.484,75.834 C23.086,75.834 23.492,75.554 24.01,74.882 L24.01,74.882 L24.01,70.178 L25.62,70.178 L25.62,77.052 L24.304,77.052 L24.178,76.044 L24.136,76.044 C23.534,76.758 22.862,77.22 21.924,77.22 C20.454,77.22 19.81,76.226 19.81,74.49 L19.81,74.49 L19.81,70.178 L21.42,70.178 Z M17.696,67.168 L17.696,75.372 C17.696,75.764 17.878,75.904 18.046,75.904 C18.116,75.904 18.172,75.904 18.298,75.876 L18.298,75.876 L18.508,77.08 C18.312,77.164 18.032,77.22 17.654,77.22 C16.506,77.22 16.086,76.478 16.086,75.288 L16.086,75.288 L16.086,67.168 L17.696,67.168 Z M38.514,70.01 C39.984,70.01 40.628,71.004 40.628,72.74 L40.628,72.74 L40.628,77.052 L39.018,77.052 L39.018,72.95 C39.018,71.816 38.696,71.396 37.94,71.396 C37.338,71.396 36.946,71.69 36.372,72.25 L36.372,72.25 L36.372,77.052 L34.762,77.052 L34.762,70.178 L36.092,70.178 L36.204,71.102 L36.26,71.102 C36.876,70.5 37.576,70.01 38.514,70.01 Z M14.21,67 C14.7,67 15.162,67.112 15.47,67.238 L15.47,67.238 L15.162,68.442 C14.91,68.33 14.644,68.274 14.406,68.274 C13.846,68.274 13.538,68.638 13.538,69.436 L13.538,69.436 L13.538,70.178 L14.882,70.178 L14.882,71.452 L13.538,71.452 L13.538,77.052 L11.928,77.052 L11.928,71.452 L11.004,71.452 L11.004,70.248 L11.928,70.178 L11.928,69.464 C11.928,68.036 12.586,67 14.21,67 Z M7.56,70.01 C9.03,70.01 9.674,71.004 9.674,72.74 L9.674,72.74 L9.674,77.052 L8.064,77.052 L8.064,72.95 C8.064,71.816 7.742,71.396 6.986,71.396 C6.384,71.396 5.992,71.69 5.418,72.25 L5.418,72.25 L5.418,77.052 L3.808,77.052 L3.808,70.178 L5.138,70.178 L5.25,71.102 L5.306,71.102 C5.922,70.5 6.622,70.01 7.56,70.01 Z M1.624,67.896 L1.624,77.052 L0,77.052 L0,67.896 L1.624,67.896 Z M51.492,71.256 C50.68,71.256 49.98,71.858 49.84,72.964 L49.84,72.964 L52.892,72.964 C52.892,71.9 52.43,71.256 51.492,71.256 Z M30.422,71.256 C29.61,71.256 28.91,71.858 28.77,72.964 L28.77,72.964 L31.822,72.964 C31.822,71.9 31.36,71.256 30.422,71.256 Z M45.9257746,45.76 C47.8698169,45.76 49.4457746,47.3359577 49.4457746,49.28 C49.4457746,51.2240423 47.8698169,52.8 45.9257746,52.8 C43.9817323,52.8 42.4057746,51.2240423 42.4057746,49.28 C42.4057746,47.3359577 43.9817323,45.76 45.9257746,45.76 Z M26.0078546,11.37136 C30.7079346,11.37136 35.1272946,13.20264 38.4510546,16.52728 C46.0366546,24.11552 46.0366546,36.4628 38.4510546,44.05104 C34.3555346,48.1492 28.9144946,50.36416 23.2772146,50.36416 C22.2285479,50.36416 21.1737702,50.2847156 20.1189924,50.128373 L19.4861746,50.02536 L18.7865746,52.56944 L15.2463346,48.06208 L20.5263346,46.24048 L19.9543346,48.3208 C26.2674546,49.38648 32.6448146,47.37128 37.2058546,42.8076 C44.1050546,35.90576 44.1050546,24.67432 37.2058546,17.77248 C34.2138546,14.78048 30.2380146,13.13224 26.0078546,13.13224 C21.7768146,13.13224 17.8000946,14.7796 14.8089746,17.77248 C9.28609456,23.298 9.28609456,32.28896 14.8089746,37.81448 C17.2008146,40.20632 20.3793746,41.52368 23.7612146,41.52368 C27.0222746,41.52368 30.0943153,40.2987368 32.4542022,38.066626 L32.7134546,37.81448 L33.9577746,39.0588 C31.2341746,41.78328 27.6129746,43.28368 23.7612146,43.28368 C19.9094546,43.28368 16.2882546,41.78328 13.5646546,39.0588 C7.35537456,32.846 7.35537456,22.7392 13.5646546,16.52728 C16.8884146,13.20264 21.3068946,11.37136 26.0078546,11.37136 Z M9.84577456,41.36 C11.7898169,41.36 13.3657746,42.9359577 13.3657746,44.88 C13.3657746,46.8240423 11.7898169,48.4 9.84577456,48.4 C7.90173224,48.4 6.32577456,46.8240423 6.32577456,44.88 C6.32577456,42.9359577 7.90173224,41.36 9.84577456,41.36 Z M32.9343346,3.39504 C37.6044946,4.53552 41.8786546,6.94496 45.2965746,10.36376 C53.2330656,18.3037227 55.8791332,30.058269 52.2148285,40.604487 L52.0584946,41.0432 L54.2056946,41.90208 L49.4827346,44.82016 L48.3017746,39.54016 L50.4243346,40.38936 C54.0543346,30.3864 51.6000146,19.16112 44.0513746,11.60808 C40.9795227,8.53622815 37.167539,6.33670376 32.9988932,5.22795893 L32.5163346,5.10488 L32.9343346,3.39504 Z M16.0057746,2.4772 L21.2857746,4.21872 L18.1353746,8.8 L17.2800146,6.26032 C14.2818546,7.49408 11.5864146,9.28576 9.26409456,11.60808 C1.61801065,19.257641 0.611143551,31.0871951 6.80415074,39.8828363 L7.03681456,40.2072 L5.61473456,41.2456 C-1.34958544,31.71344 -0.33846544,18.72552 8.01977456,10.36376 C10.3959212,7.98761333 13.1378492,6.13031086 16.1780972,4.8163165 L16.7176946,4.59008 L16.0057746,2.4772 Z M26.1257746,21.12 C29.7708539,21.12 32.7257746,24.0749207 32.7257746,27.72 C32.7257746,31.3650793 29.7708539,34.32 26.1257746,34.32 C22.4806953,34.32 19.5257746,31.3650793 19.5257746,27.72 C19.5257746,24.0749207 22.4806953,21.12 26.1257746,21.12 Z M27.4457746,0 C29.3898169,0 30.9657746,1.57595768 30.9657746,3.52 C30.9657746,5.46404232 29.3898169,7.04 27.4457746,7.04 C25.5017323,7.04 23.9257746,5.46404232 23.9257746,3.52 C23.9257746,1.57595768 25.5017323,0 27.4457746,0 Z" id="Combined-Shape"></path>
        </g>
    </g>
</svg>