<?xml version="1.0" encoding="UTF-8"?>
<svg width="48px" height="57px" viewBox="0 0 48 57" version="1.1" xmlns="http://www.w3.org/2000/svg" xmlns:xlink="http://www.w3.org/1999/xlink">
    <title>Combined Shape</title>
    <g id="Page-1" stroke="none" stroke-width="1" fill="none" fill-rule="evenodd">
        <g id="material_no-image" fill="#000000" fill-rule="nonzero">
            <path d="M46.942,46.028 L46.942,54.232 C46.942,54.624 47.124,54.764 47.292,54.764 C47.362,54.764 47.418,54.764 47.544,54.736 L47.544,54.736 L47.754,55.94 C47.558,56.024 47.278,56.08 46.9,56.08 C45.752,56.08 45.332,55.338 45.332,54.148 L45.332,54.148 L45.332,46.028 L46.942,46.028 Z M13.02,48.87 C14.728,48.87 15.582,49.92 15.582,51.838 L15.582,51.838 L15.582,55.912 L14.252,55.912 L14.14,55.156 L14.084,55.156 C13.468,55.674 12.768,56.08 11.956,56.08 C10.752,56.08 9.926,55.268 9.926,54.064 C9.926,52.594 11.144,51.824 13.972,51.516 C13.944,50.788 13.65,50.172 12.712,50.172 C12.04,50.172 11.396,50.48 10.78,50.844 L10.78,50.844 L10.192,49.766 C10.948,49.29 11.928,48.87 13.02,48.87 Z M19.152,47.162 L19.152,49.038 L20.902,49.038 L20.902,50.312 L19.152,50.312 L19.152,53.588 C19.152,54.4 19.46,54.792 20.118,54.792 C20.356,54.792 20.636,54.722 20.832,54.638 L20.832,54.638 L21.112,55.828 C20.734,55.954 20.258,56.08 19.712,56.08 C18.116,56.08 17.528,55.072 17.528,53.588 L17.528,53.588 L17.528,50.312 L16.548,50.312 L16.548,49.108 L17.612,49.038 L17.808,47.162 L19.152,47.162 Z M24.836,48.87 C26.698,48.87 27.678,50.214 27.678,52.132 C27.678,52.44 27.65,52.748 27.608,52.916 L27.608,52.916 L23.24,52.916 C23.38,54.134 24.164,54.834 25.27,54.834 C25.858,54.834 26.362,54.652 26.866,54.33 L26.866,54.33 L27.412,55.338 C26.754,55.772 25.928,56.08 25.06,56.08 C23.156,56.08 21.672,54.75 21.672,52.482 C21.672,50.242 23.226,48.87 24.836,48.87 Z M40.838,48.87 C42.546,48.87 43.4,49.92 43.4,51.838 L43.4,51.838 L43.4,55.912 L42.07,55.912 L41.958,55.156 L41.902,55.156 C41.286,55.674 40.586,56.08 39.774,56.08 C38.57,56.08 37.744,55.268 37.744,54.064 C37.744,52.594 38.962,51.824 41.79,51.516 C41.762,50.788 41.468,50.172 40.53,50.172 C39.858,50.172 39.214,50.48 38.598,50.844 L38.598,50.844 L38.01,49.766 C38.766,49.29 39.746,48.87 40.838,48.87 Z M36.05,49.038 L36.05,55.912 L34.44,55.912 L34.44,49.038 L36.05,49.038 Z M32.662,48.87 C33.012,48.87 33.236,48.912 33.446,49.01 L33.446,49.01 L33.166,50.41 C32.928,50.34 32.746,50.298 32.452,50.298 C31.906,50.298 31.248,50.676 30.828,51.712 L30.828,51.712 L30.828,55.912 L29.218,55.912 L29.218,49.038 L30.548,49.038 L30.66,50.256 L30.716,50.256 C31.206,49.36 31.934,48.87 32.662,48.87 Z M1.834,46.756 L3.458,51.236 C3.654,51.81 3.85,52.426 4.046,53.028 L4.046,53.028 L4.102,53.028 C4.298,52.426 4.48,51.81 4.676,51.236 L4.676,51.236 L6.258,46.756 L8.106,46.756 L8.106,55.912 L6.608,55.912 L6.608,51.726 C6.608,50.872 6.734,49.654 6.818,48.814 L6.818,48.814 L6.762,48.814 L6.02,50.942 L4.522,55.058 L3.556,55.058 L2.044,50.942 L1.316,48.814 L1.26,48.814 C1.33,49.654 1.47,50.872 1.47,51.726 L1.47,51.726 L1.47,55.912 L0,55.912 L0,46.756 L1.834,46.756 Z M41.79,52.524 C39.914,52.762 39.298,53.252 39.298,53.938 C39.298,54.554 39.718,54.82 40.292,54.82 C40.852,54.82 41.272,54.54 41.79,54.064 L41.79,54.064 Z M13.972,52.524 C12.096,52.762 11.48,53.252 11.48,53.938 C11.48,54.554 11.9,54.82 12.474,54.82 C13.034,54.82 13.454,54.54 13.972,54.064 L13.972,54.064 Z M24.878,50.116 C24.066,50.116 23.366,50.718 23.226,51.824 L23.226,51.824 L26.278,51.824 C26.278,50.76 25.816,50.116 24.878,50.116 Z M35.252,46 C35.826,46 36.246,46.378 36.246,46.924 C36.246,47.456 35.826,47.834 35.252,47.834 C34.678,47.834 34.258,47.456 34.258,46.924 C34.258,46.378 34.678,46 35.252,46 Z M33,0 C33.553,0 34,0.448 34,1 L34,1 L34,5.157 L42.495,10 C42.808,10.178 43,10.51 43,10.869 L43,10.869 L43,20.619 L46.49,22.634 C46.969,22.91 47.133,23.521 46.856,24.001 C46.671,24.322 46.335,24.501 45.989,24.501 C45.819,24.501 45.647,24.458 45.49,24.367 L45.49,24.367 L41.94,22.317 L34,26.843 L34,31 C34,31.553 33.553,32 33,32 C32.447,32 32,31.553 32,31 L32,31 L32,26.843 L24,22.282 L16,26.843 L16,31 C16,31.553 15.552,32 15,32 C14.448,32 14,31.553 14,31 L14,31 L14,26.843 L6.059,22.315 L2.509,24.365 C2.352,24.456 2.179,24.499 2.01,24.499 C1.664,24.499 1.329,24.32 1.143,23.999 C0.867,23.521 1.03,22.909 1.509,22.633 L1.509,22.633 L5,20.617 L5,10.869 C5,10.51 5.193,10.178 5.505,10 L5.505,10 L14,5.157 L14,1 C14,0.448 14.448,0 15,0 C15.552,0 16,0.448 16,1 L16,1 L16,5.157 L24,9.718 L32,5.157 L32,1 C32,0.448 32.447,0 33,0 Z M33.144,7 C33.095,7.008 33.051,7.029 33,7.029 C32.949,7.029 32.905,7.008 32.856,7 L32.856,7 L25,11.479 L25,20.579 L32.857,25.058 C32.905,25.05 32.949,25.029 33,25.029 C33.051,25.029 33.095,25.05 33.143,25.057 L33.143,25.057 L40.725,20.735 C40.746,20.666 40.756,20.593 40.794,20.528 C40.848,20.435 40.924,20.363 41,20.295 L41,20.295 L41,11.479 Z M15.144,6.971 C15.095,6.979 15.051,7 15,7 C14.949,7 14.905,6.979 14.856,6.971 L14.856,6.971 L6.999,11.45 L6.999,20.267 C7.076,20.335 7.151,20.405 7.205,20.499 C7.243,20.565 7.254,20.637 7.275,20.707 L7.275,20.707 L14.857,25.029 C14.906,25.021 14.949,25 15,25 C15.051,25 15.094,25.021 15.143,25.029 L15.143,25.029 L23,20.55 L23,11.45 Z M20,12 C20.552,12 21,12.448 21,13 L21,18 C21,18.553 20.552,19 20,19 C19.448,19 19,18.553 19,18 L19,13 C19,12.448 19.448,12 20,12 Z M33.3081721,9.31179335 L38.5583089,12.4664523 C38.9774448,12.7182716 39.1244486,13.2818671 38.8855674,13.7246262 C38.7245632,14.0234886 38.4288055,14.1904457 38.1242976,14.1904457 C37.9772937,14.1904457 37.8285399,14.1517043 37.6920363,14.0696094 L32.4418995,10.9149504 C32.0227636,10.6631312 31.8757598,10.0995357 32.114641,9.65677652 C32.3543973,9.21401737 32.8899112,9.05905167 33.3081721,9.31179335 Z" id="Combined-Shape"></path>
        </g>
    </g>
</svg>