<?xml version="1.0" encoding="UTF-8"?>
<svg width="55px" height="67px" viewBox="0 0 55 67" version="1.1" xmlns="http://www.w3.org/2000/svg" xmlns:xlink="http://www.w3.org/1999/xlink">
    <title>Combined Shape</title>
    <g id="Page-1" stroke="none" stroke-width="1" fill="none" fill-rule="evenodd">
        <g id="narrative_no-image" transform="translate(-1.000000, 0.000000)" fill="#000000" fill-rule="nonzero">
            <path d="M12.936,58.958 C14.644,58.958 15.498,60.008 15.498,61.926 L15.498,61.926 L15.498,66 L14.168,66 L14.056,65.244 L14,65.244 C13.384,65.762 12.684,66.168 11.872,66.168 C10.668,66.168 9.842,65.356 9.842,64.152 C9.842,62.682 11.06,61.912 13.888,61.604 C13.86,60.876 13.566,60.26 12.628,60.26 C11.956,60.26 11.312,60.568 10.696,60.932 L10.696,60.932 L10.108,59.854 C10.864,59.378 11.844,58.958 12.936,58.958 Z M30.24,58.958 C31.948,58.958 32.802,60.008 32.802,61.926 L32.802,61.926 L32.802,66 L31.472,66 L31.36,65.244 L31.304,65.244 C30.688,65.762 29.988,66.168 29.176,66.168 C27.972,66.168 27.146,65.356 27.146,64.152 C27.146,62.682 28.364,61.912 31.192,61.604 C31.164,60.876 30.87,60.26 29.932,60.26 C29.26,60.26 28.616,60.568 28,60.932 L28,60.932 L27.412,59.854 C28.168,59.378 29.148,58.958 30.24,58.958 Z M36.372,57.25 L36.372,59.126 L38.122,59.126 L38.122,60.4 L36.372,60.4 L36.372,63.676 C36.372,64.488 36.68,64.88 37.338,64.88 C37.576,64.88 37.856,64.81 38.052,64.726 L38.052,64.726 L38.332,65.916 C37.954,66.042 37.478,66.168 36.932,66.168 C35.336,66.168 34.748,65.16 34.748,63.676 L34.748,63.676 L34.748,60.4 L33.768,60.4 L33.768,59.196 L34.832,59.126 L35.028,57.25 L36.372,57.25 Z M52.794,58.958 C54.656,58.958 55.636,60.302 55.636,62.22 C55.636,62.528 55.608,62.836 55.566,63.004 L55.566,63.004 L51.198,63.004 C51.338,64.222 52.122,64.922 53.228,64.922 C53.816,64.922 54.32,64.74 54.824,64.418 L54.824,64.418 L55.37,65.426 C54.712,65.86 53.886,66.168 53.018,66.168 C51.114,66.168 49.63,64.838 49.63,62.57 C49.63,60.33 51.184,58.958 52.794,58.958 Z M44.016,59.126 L45.108,62.696 C45.29,63.368 45.5,64.068 45.682,64.768 L45.682,64.768 L45.738,64.768 C45.934,64.068 46.13,63.368 46.326,62.696 L46.326,62.696 L47.418,59.126 L48.972,59.126 L46.634,66 L44.772,66 L42.378,59.126 L44.016,59.126 Z M41.174,59.126 L41.174,66 L39.564,66 L39.564,59.126 L41.174,59.126 Z M2.828,56.844 L5.684,61.996 L6.622,63.942 L6.678,63.942 C6.608,63.004 6.468,61.842 6.468,60.82 L6.468,60.82 L6.468,56.844 L8.022,56.844 L8.022,66 L6.356,66 L3.5,60.848 L2.562,58.902 L2.506,58.902 C2.576,59.868 2.716,60.974 2.716,61.996 L2.716,61.996 L2.716,66 L1.162,66 L1.162,56.844 L2.828,56.844 Z M20.874,58.958 C21.224,58.958 21.448,59 21.658,59.098 L21.658,59.098 L21.378,60.498 C21.14,60.428 20.958,60.386 20.664,60.386 C20.118,60.386 19.46,60.764 19.04,61.8 L19.04,61.8 L19.04,66 L17.43,66 L17.43,59.126 L18.76,59.126 L18.872,60.344 L18.928,60.344 C19.418,59.448 20.146,58.958 20.874,58.958 Z M26.096,58.958 C26.446,58.958 26.67,59 26.88,59.098 L26.88,59.098 L26.6,60.498 C26.362,60.428 26.18,60.386 25.886,60.386 C25.34,60.386 24.682,60.764 24.262,61.8 L24.262,61.8 L24.262,66 L22.652,66 L22.652,59.126 L23.982,59.126 L24.094,60.344 L24.15,60.344 C24.64,59.448 25.368,58.958 26.096,58.958 Z M31.192,62.612 C29.316,62.85 28.7,63.34 28.7,64.026 C28.7,64.642 29.12,64.908 29.694,64.908 C30.254,64.908 30.674,64.628 31.192,64.152 L31.192,64.152 Z M13.888,62.612 C12.012,62.85 11.396,63.34 11.396,64.026 C11.396,64.642 11.816,64.908 12.39,64.908 C12.95,64.908 13.37,64.628 13.888,64.152 L13.888,64.152 Z M52.836,60.204 C52.024,60.204 51.324,60.806 51.184,61.912 L51.184,61.912 L54.236,61.912 C54.236,60.848 53.774,60.204 52.836,60.204 Z M40.376,56.088 C40.95,56.088 41.37,56.466 41.37,57.012 C41.37,57.544 40.95,57.922 40.376,57.922 C39.802,57.922 39.382,57.544 39.382,57.012 C39.382,56.466 39.802,56.088 40.376,56.088 Z M33.9577621,0 C34.5489919,0 35.1984879,0.150349952 35.90625,0.447593533 C36.6140121,0.744837124 37.1761089,1.10256631 37.5891129,1.51905297 L44.4953629,8.48353924 C44.9083669,8.9000259 45.2613911,9.46513438 45.5578629,10.1788646 C45.852621,10.894323 46,11.5492958 46,12.143783 L46,37.8588093 C46,38.4532965 45.7926411,38.9596474 45.3796371,39.3761341 C44.9666331,39.7926208 44.4645161,40 43.875,40 L14.125,40 C13.5354839,40 13.0333669,39.7926208 12.6203629,39.3761341 C12.2073589,38.9596474 12,38.4532965 12,37.8588093 L12,2.14291887 C12,1.5484317 12.2073589,1.0420807 12.6203629,0.625594057 C13.0333669,0.20910741 13.5354839,0 14.125,0 L33.9577621,0 Z M31.7986452,3 L15,3 L15,37 L43,37 L43,14.3333334 L33.8986875,14.3333334 C33.3160951,14.3333334 32.8198754,14.125964 32.411722,13.7129391 C32.0035686,13.2999144 31.7986452,12.7977721 31.7986452,12.2082262 L31.7986452,3 Z M37.2922379,29 C37.4978831,29 37.6675403,29.0707376 37.8012097,29.2122128 C37.9331653,29.3518743 38,29.531439 38,29.7509069 L38,31.2490931 C38,31.4685611 37.9331653,31.6481258 37.8012097,31.7877872 C37.6675403,31.9292625 37.4978831,32 37.2922379,32 L21.7094758,32 C21.5021169,32 21.3324597,31.9292625 21.200504,31.7877872 C21.0668347,31.6481258 21,31.4685611 21,31.2490931 L21,29.7509069 C21,29.531439 21.0668347,29.3518743 21.200504,29.2122128 C21.3324597,29.0707376 21.5021169,29 21.7094758,29 L37.2922379,29 Z M37.2922379,23 C37.4978831,23 37.6675403,23.0707804 37.8012097,23.2105264 C37.9331653,23.3520871 38,23.5317605 38,23.7495463 L38,25.2504537 C38,25.4682395 37.9331653,25.6479129 37.8012097,25.7894736 C37.6675403,25.9292196 37.4978831,26 37.2922379,26 L21.7094758,26 C21.5021169,26 21.3324597,25.9292196 21.200504,25.7894736 C21.0668347,25.6479129 21,25.4682395 21,25.2504537 L21,23.7495463 C21,23.5317605 21.0668347,23.3520871 21.200504,23.2105264 C21.3324597,23.0707804 21.5021169,23 21.7094758,23 L37.2922379,23 Z M37.2922379,17 C37.4978831,17 37.6675403,17.0707804 37.8012097,17.2105264 C37.9331653,17.3520871 38,17.5317605 38,17.7513612 L38,19.2504538 C38,19.4700544 37.9331653,19.6497278 37.8012097,19.7894737 C37.6675403,19.9310345 37.4978831,20 37.2922379,20 L21.7094758,20 C21.5021169,20 21.3324597,19.9310345 21.200504,19.7894737 C21.0668347,19.6497278 21,19.4700544 21,19.2504538 L21,17.7513612 C21,17.5317605 21.0668347,17.3520871 21.200504,17.2105264 C21.3324597,17.0707804 21.5021169,17 21.7094758,17 L37.2922379,17 Z M35,3 L35,11 L43,11 C42.8583196,10.5882232 42.7018121,10.2966852 42.5321252,10.1270332 L35.8714992,3.46777847 C35.7018122,3.29812642 35.4102142,3.14165123 35,3 Z" id="Combined-Shape"></path>
        </g>
    </g>
</svg>