<?xml version="1.0" encoding="UTF-8"?>
<svg width="55px" height="29px" viewBox="0 0 55 29" version="1.1" xmlns="http://www.w3.org/2000/svg" xmlns:xlink="http://www.w3.org/1999/xlink">
    <title>Combined Shape</title>
    <g id="Page-1" stroke="none" stroke-width="1" fill="none" fill-rule="evenodd">
        <g id="no-image" fill="#000000" fill-rule="nonzero">
            <path d="M4.094,20.87 C5.802,20.87 6.656,21.92 6.656,23.838 L6.656,23.838 L6.656,27.912 L5.326,27.912 L5.214,27.156 L5.158,27.156 C4.542,27.674 3.842,28.08 3.03,28.08 C1.826,28.08 1,27.268 1,26.064 C1,24.594 2.218,23.824 5.046,23.516 C5.018,22.788 4.724,22.172 3.786,22.172 C3.114,22.172 2.47,22.48 1.854,22.844 L1.854,22.844 L1.266,21.766 C2.022,21.29 3.002,20.87 4.094,20.87 Z M17.968,20.87 C19.676,20.87 20.53,21.92 20.53,23.838 L20.53,23.838 L20.53,27.912 L19.2,27.912 L19.088,27.156 L19.032,27.156 C18.416,27.674 17.716,28.08 16.904,28.08 C15.7,28.08 14.874,27.268 14.874,26.064 C14.874,24.594 16.092,23.824 18.92,23.516 C18.892,22.788 18.598,22.172 17.66,22.172 C16.988,22.172 16.344,22.48 15.728,22.844 L15.728,22.844 L15.14,21.766 C15.896,21.29 16.876,20.87 17.968,20.87 Z M27.74,18.028 L27.74,26.232 C27.74,26.624 27.922,26.764 28.09,26.764 C28.16,26.764 28.216,26.764 28.342,26.736 L28.342,26.736 L28.552,27.94 C28.356,28.024 28.076,28.08 27.698,28.08 C26.55,28.08 26.13,27.338 26.13,26.148 L26.13,26.148 L26.13,18.028 L27.74,18.028 Z M32.654,20.87 C34.362,20.87 35.216,21.92 35.216,23.838 L35.216,23.838 L35.216,27.912 L33.886,27.912 L33.774,27.156 L33.718,27.156 C33.102,27.674 32.402,28.08 31.59,28.08 C30.386,28.08 29.56,27.268 29.56,26.064 C29.56,24.594 30.778,23.824 33.606,23.516 C33.578,22.788 33.284,22.172 32.346,22.172 C31.674,22.172 31.03,22.48 30.414,22.844 L30.414,22.844 L29.826,21.766 C30.582,21.29 31.562,20.87 32.654,20.87 Z M38.758,18.028 L38.758,20.576 L38.716,21.724 C39.29,21.22 40.004,20.87 40.704,20.87 C42.426,20.87 43.42,22.242 43.42,24.356 C43.42,26.722 42.006,28.08 40.48,28.08 C39.85,28.08 39.178,27.758 38.604,27.184 L38.604,27.184 L38.562,27.184 L38.422,27.912 L37.148,27.912 L37.148,18.028 L38.758,18.028 Z M46.64,18.028 L46.64,26.232 C46.64,26.624 46.822,26.764 46.99,26.764 C47.06,26.764 47.116,26.764 47.242,26.736 L47.242,26.736 L47.452,27.94 C47.256,28.024 46.976,28.08 46.598,28.08 C45.45,28.08 45.03,27.338 45.03,26.148 L45.03,26.148 L45.03,18.028 L46.64,18.028 Z M51.54,20.87 C53.402,20.87 54.382,22.214 54.382,24.132 C54.382,24.44 54.354,24.748 54.312,24.916 L54.312,24.916 L49.944,24.916 C50.084,26.134 50.868,26.834 51.974,26.834 C52.562,26.834 53.066,26.652 53.57,26.33 L53.57,26.33 L54.116,27.338 C53.458,27.772 52.632,28.08 51.764,28.08 C49.86,28.08 48.376,26.75 48.376,24.482 C48.376,22.242 49.93,20.87 51.54,20.87 Z M9.372,21.038 L10.464,24.608 C10.646,25.28 10.856,25.98 11.038,26.68 L11.038,26.68 L11.094,26.68 C11.29,25.98 11.486,25.28 11.682,24.608 L11.682,24.608 L12.774,21.038 L14.328,21.038 L11.99,27.912 L10.128,27.912 L7.734,21.038 L9.372,21.038 Z M24.072,21.038 L24.072,27.912 L22.462,27.912 L22.462,21.038 L24.072,21.038 Z M33.606,24.524 C31.73,24.762 31.114,25.252 31.114,25.938 C31.114,26.554 31.534,26.82 32.108,26.82 C32.668,26.82 33.088,26.54 33.606,26.064 L33.606,26.064 Z M18.92,24.524 C17.044,24.762 16.428,25.252 16.428,25.938 C16.428,26.554 16.848,26.82 17.422,26.82 C17.982,26.82 18.402,26.54 18.92,26.064 L18.92,26.064 Z M5.046,24.524 C3.17,24.762 2.554,25.252 2.554,25.938 C2.554,26.554 2.974,26.82 3.548,26.82 C4.108,26.82 4.528,26.54 5.046,26.064 L5.046,26.064 Z M40.27,22.2 C39.766,22.2 39.29,22.452 38.758,22.97 L38.758,22.97 L38.758,26.176 C39.248,26.596 39.738,26.75 40.144,26.75 C41.054,26.75 41.754,25.938 41.754,24.384 C41.754,23.012 41.306,22.2 40.27,22.2 Z M51.582,22.116 C50.77,22.116 50.07,22.718 49.93,23.824 L49.93,23.824 L52.982,23.824 C52.982,22.76 52.52,22.116 51.582,22.116 Z M23.274,18 C23.848,18 24.268,18.378 24.268,18.924 C24.268,19.456 23.848,19.834 23.274,19.834 C22.7,19.834 22.28,19.456 22.28,18.924 C22.28,18.378 22.7,18 23.274,18 Z M44.739,2.958 C45.117,2.958 45.467,3.028 45.747,3.126 L45.747,3.126 L48.211,3.126 L48.211,4.316 L46.951,4.316 C47.175,4.582 47.343,5.002 47.343,5.478 C47.343,7.004 46.195,7.816 44.739,7.816 C44.445,7.816 44.109,7.76 43.801,7.634 C43.591,7.816 43.465,7.984 43.465,8.292 C43.465,8.684 43.745,8.922 44.585,8.922 L44.585,8.922 L45.803,8.922 C47.455,8.922 48.323,9.426 48.323,10.616 C48.323,11.974 46.895,13.038 44.655,13.038 C43.017,13.038 41.799,12.45 41.799,11.246 C41.799,10.672 42.149,10.168 42.779,9.776 L42.779,9.776 L42.779,9.72 C42.429,9.496 42.163,9.132 42.163,8.572 C42.163,8.04 42.527,7.578 42.919,7.298 L42.919,7.298 L42.919,7.242 C42.457,6.892 42.023,6.234 42.023,5.422 C42.023,3.84 43.297,2.958 44.739,2.958 Z M43.675,10.098 C43.311,10.378 43.143,10.686 43.143,11.008 C43.143,11.624 43.815,11.988 44.907,11.988 C46.013,11.988 46.769,11.47 46.769,10.882 C46.769,10.35 46.335,10.196 45.551,10.196 L45.551,10.196 L44.613,10.196 C44.235,10.196 43.941,10.168 43.675,10.098 Z M11.895,2.958 C13.617,2.958 15.171,4.274 15.171,6.57 C15.171,8.852 13.617,10.168 11.895,10.168 C10.187,10.168 8.633,8.852 8.633,6.57 C8.633,4.274 10.187,2.958 11.895,2.958 Z M37.767,2.958 C39.475,2.958 40.329,4.008 40.329,5.926 L40.329,5.926 L40.329,10 L38.999,10 L38.887,9.244 L38.831,9.244 C38.215,9.762 37.515,10.168 36.703,10.168 C35.499,10.168 34.673,9.356 34.673,8.152 C34.673,6.682 35.891,5.912 38.719,5.604 C38.691,4.876 38.397,4.26 37.459,4.26 C36.787,4.26 36.143,4.568 35.527,4.932 L35.527,4.932 L34.939,3.854 C35.695,3.378 36.675,2.958 37.767,2.958 Z M52.033,2.958 C53.895,2.958 54.875,4.302 54.875,6.22 C54.875,6.528 54.847,6.836 54.805,7.004 L54.805,7.004 L50.437,7.004 C50.577,8.222 51.361,8.922 52.467,8.922 C53.055,8.922 53.559,8.74 54.063,8.418 L54.063,8.418 L54.609,9.426 C53.951,9.86 53.125,10.168 52.257,10.168 C50.353,10.168 48.869,8.838 48.869,6.57 C48.869,4.33 50.423,2.958 52.033,2.958 Z M1.703,0.844 L4.559,5.996 L5.497,7.942 L5.553,7.942 C5.483,7.004 5.343,5.842 5.343,4.82 L5.343,4.82 L5.343,0.844 L6.897,0.844 L6.897,10 L5.231,10 L2.375,4.848 L1.437,2.902 L1.381,2.902 C1.451,3.868 1.591,4.974 1.591,5.996 L1.591,5.996 L1.591,10 L0.037,10 L0.037,0.844 L1.703,0.844 Z M21.177,3.126 L21.177,10 L19.567,10 L19.567,3.126 L21.177,3.126 Z M30.949,2.958 C32.405,2.958 33.077,3.952 33.077,5.688 L33.077,5.688 L33.077,10 L31.453,10 L31.453,5.898 C31.453,4.764 31.117,4.344 30.403,4.344 C29.969,4.344 29.493,4.624 28.961,5.198 L28.961,5.198 L28.961,10 L27.351,10 L27.351,5.898 C27.351,4.764 27.015,4.344 26.287,4.344 C25.867,4.344 25.377,4.624 24.845,5.198 L24.845,5.198 L24.845,10 L23.235,10 L23.235,3.126 L24.565,3.126 L24.677,4.064 L24.733,4.064 C25.307,3.448 25.979,2.958 26.833,2.958 C27.841,2.958 28.415,3.42 28.737,4.19 C29.395,3.49 30.081,2.958 30.949,2.958 Z M38.719,6.612 C36.843,6.85 36.227,7.34 36.227,8.026 C36.227,8.642 36.647,8.908 37.221,8.908 C37.781,8.908 38.201,8.628 38.719,8.152 L38.719,8.152 Z M11.895,4.274 C10.887,4.274 10.285,5.184 10.285,6.57 C10.285,7.942 10.887,8.852 11.895,8.852 C12.903,8.852 13.519,7.942 13.519,6.57 C13.519,5.184 12.903,4.274 11.895,4.274 Z M44.739,4.064 C44.067,4.064 43.535,4.554 43.535,5.422 C43.535,6.304 44.067,6.808 44.739,6.808 C45.397,6.808 45.929,6.304 45.929,5.422 C45.929,4.568 45.411,4.064 44.739,4.064 Z M52.075,4.204 C51.263,4.204 50.563,4.806 50.423,5.912 L50.423,5.912 L53.475,5.912 C53.475,4.848 53.013,4.204 52.075,4.204 Z M20.379,0.088 C20.953,0.088 21.373,0.466 21.373,1.012 C21.373,1.544 20.953,1.922 20.379,1.922 C19.805,1.922 19.385,1.544 19.385,1.012 C19.385,0.466 19.805,0.088 20.379,0.088 Z" id="Combined-Shape"></path>
        </g>
    </g>
</svg>