<?xml version="1.0" encoding="UTF-8"?>
<svg width="31px" height="53px" viewBox="0 0 31 53" version="1.1" xmlns="http://www.w3.org/2000/svg" xmlns:xlink="http://www.w3.org/1999/xlink">
    <title>Combined Shape</title>
    <g id="Page-1" stroke="none" stroke-width="1" fill="none" fill-rule="evenodd">
        <g id="place_no-image" fill="#000000" fill-rule="nonzero">
            <path d="M9.618,42 L9.618,50.204 C9.618,50.596 9.8,50.736 9.968,50.736 C10.038,50.736 10.094,50.736 10.22,50.708 L10.22,50.708 L10.43,51.912 C10.234,51.996 9.954,52.052 9.576,52.052 C8.428,52.052 8.008,51.31 8.008,50.12 L8.008,50.12 L8.008,42 L9.618,42 Z M14.532,44.842 C16.24,44.842 17.094,45.892 17.094,47.81 L17.094,47.81 L17.094,51.884 L15.764,51.884 L15.652,51.128 L15.596,51.128 C14.98,51.646 14.28,52.052 13.468,52.052 C12.264,52.052 11.438,51.24 11.438,50.036 C11.438,48.566 12.656,47.796 15.484,47.488 C15.456,46.76 15.162,46.144 14.224,46.144 C13.552,46.144 12.908,46.452 12.292,46.816 L12.292,46.816 L11.704,45.738 C12.46,45.262 13.44,44.842 14.532,44.842 Z M22.022,44.842 C22.904,44.842 23.534,45.178 24.038,45.612 L24.038,45.612 L23.254,46.662 C22.89,46.34 22.54,46.158 22.106,46.158 C21,46.158 20.23,47.068 20.23,48.454 C20.23,49.826 20.986,50.736 22.064,50.736 C22.596,50.736 23.086,50.47 23.478,50.148 L23.478,50.148 L24.136,51.212 C23.492,51.772 22.68,52.052 21.896,52.052 C20.02,52.052 18.578,50.736 18.578,48.454 C18.578,46.158 20.188,44.842 22.022,44.842 Z M27.874,44.842 C29.736,44.842 30.716,46.186 30.716,48.104 C30.716,48.412 30.688,48.72 30.646,48.888 L30.646,48.888 L26.278,48.888 C26.418,50.106 27.202,50.806 28.308,50.806 C28.896,50.806 29.4,50.624 29.904,50.302 L29.904,50.302 L30.45,51.31 C29.792,51.744 28.966,52.052 28.098,52.052 C26.194,52.052 24.71,50.722 24.71,48.454 C24.71,46.214 26.264,44.842 27.874,44.842 Z M2.884,42.728 C4.914,42.728 6.426,43.428 6.426,45.556 C6.426,47.586 4.914,48.524 2.94,48.524 L2.94,48.524 L1.624,48.524 L1.624,51.884 L0,51.884 L0,42.728 Z M15.484,48.496 C13.608,48.734 12.992,49.224 12.992,49.91 C12.992,50.526 13.412,50.792 13.986,50.792 C14.546,50.792 14.966,50.512 15.484,50.036 L15.484,50.036 Z M27.916,46.088 C27.104,46.088 26.404,46.69 26.264,47.796 L26.264,47.796 L29.316,47.796 C29.316,46.732 28.854,46.088 27.916,46.088 Z M2.758,44.03 L1.624,44.03 L1.624,47.222 L2.814,47.222 C4.172,47.222 4.83,46.676 4.83,45.556 C4.83,44.408 4.116,44.03 2.758,44.03 L2.758,44.03 Z M15,0.109375 C20.58125,0.109375 25.09375,4.621875 25.09375,10.203125 C25.09375,15.784375 17.73125,24.571875 15,29.796875 C12.26875,24.453125 4.90625,15.784375 4.90625,10.203125 C4.90625,4.621875 9.41875,0.109375 15,0.109375 Z M15,5 C12.5106383,5 10.5,7.0106383 10.5,9.5 C10.5,11.9893617 12.5106383,14 15,14 C17.4893617,14 19.5,11.9893617 19.5,9.5 C19.5,7.0106383 17.4893617,5 15,5 Z" id="Combined-Shape"></path>
        </g>
    </g>
</svg>