<?xml version="1.0" encoding="UTF-8"?>
<svg width="28px" height="44px" viewBox="0 0 28 44" version="1.1" xmlns="http://www.w3.org/2000/svg" xmlns:xlink="http://www.w3.org/1999/xlink">
    <title>Combined Shape</title>
    <g id="Page-1" stroke="none" stroke-width="1" fill="none" fill-rule="evenodd">
        <g id="set_no-image" fill="#000000" fill-rule="nonzero">
            <path d="M8.486,34 C9.55,34 10.586,34.448 11.3,35.162 L11.3,35.162 L10.474,36.198 C9.886,35.708 9.27,35.414 8.486,35.414 C7.618,35.414 7.044,35.82 7.044,36.492 C7.044,37.206 7.744,37.472 8.5,37.78 L8.5,37.78 L9.746,38.298 C10.824,38.76 11.594,39.446 11.594,40.776 C11.594,42.26 10.362,43.492 8.304,43.492 C7.072,43.492 5.868,43.002 5,42.148 L5,42.148 L5.952,41.042 C6.61,41.658 7.492,42.078 8.332,42.078 C9.368,42.078 9.928,41.616 9.928,40.902 C9.928,40.146 9.34,39.908 8.514,39.558 L8.514,39.558 L7.254,39.012 C6.358,38.634 5.406,37.92 5.406,36.576 C5.406,35.12 6.694,34 8.486,34 Z M15.836,36.282 C17.698,36.282 18.678,37.626 18.678,39.544 C18.678,39.852 18.65,40.16 18.608,40.328 L18.608,40.328 L14.24,40.328 C14.38,41.546 15.164,42.246 16.27,42.246 C16.858,42.246 17.362,42.064 17.866,41.742 L17.866,41.742 L18.412,42.75 C17.754,43.184 16.928,43.492 16.06,43.492 C14.156,43.492 12.672,42.162 12.672,39.894 C12.672,37.654 14.226,36.282 15.836,36.282 Z M21.94,34.574 L21.94,36.45 L23.69,36.45 L23.69,37.724 L21.94,37.724 L21.94,41 C21.94,41.812 22.248,42.204 22.906,42.204 C23.144,42.204 23.424,42.134 23.62,42.05 L23.62,42.05 L23.9,43.24 C23.522,43.366 23.046,43.492 22.5,43.492 C20.904,43.492 20.316,42.484 20.316,41 L20.316,41 L20.316,37.724 L19.336,37.724 L19.336,36.52 L20.4,36.45 L20.596,34.574 L21.94,34.574 Z M15.878,37.528 C15.066,37.528 14.366,38.13 14.226,39.236 L14.226,39.236 L17.278,39.236 C17.278,38.172 16.816,37.528 15.878,37.528 Z M25.2214822,4.82191781 C26.7553326,4.82191781 28,6.06386302 28,7.62616438 L28,7.62616438 L25.1884327,19.1770685 C25.1884327,20.737863 23.9437653,22 22.4099149,22 L22.4099149,22 L2.66225445,22 C1.77434449,22 0.992665036,21.5946575 0.484824214,20.9355616 L0.484824214,20.9355616 L4.87893095,4.82191781 Z M9.44330157,0 C10.3742939,0 11.130301,0.68531507 11.130301,1.59575342 L11.130301,1.59575342 L11.1748588,1.80821918 L23.6005817,1.80821918 C24.4775736,1.80821918 25.1884327,2.48057534 25.1884327,3.19090411 L25.1884327,3.19090411 L25.1840064,3.91780822 L3.54131186,3.91780822 L3.54131186,4.03232877 L0,17.7808219 L0,17.7808219 L0.000295084731,1.64126027 C0.000295084731,0.730821915 0.638563361,0 1.57014586,0 L1.57014586,0 Z" id="Combined-Shape"></path>
        </g>
    </g>
</svg>