<?xml version="1.0" encoding="UTF-8"?>
<svg width="34px" height="57px" viewBox="0 0 34 57" version="1.1" xmlns="http://www.w3.org/2000/svg" xmlns:xlink="http://www.w3.org/1999/xlink">
    <title>Combined Shape</title>
    <g id="Page-1" stroke="none" stroke-width="1" fill="none" fill-rule="evenodd">
        <g id="thing_no-image" fill="#000000" fill-rule="nonzero">
            <path d="M30.1,46.87 C30.478,46.87 30.828,46.94 31.108,47.038 L31.108,47.038 L33.572,47.038 L33.572,48.228 L32.312,48.228 C32.536,48.494 32.704,48.914 32.704,49.39 C32.704,50.916 31.556,51.728 30.1,51.728 C29.806,51.728 29.47,51.672 29.162,51.546 C28.952,51.728 28.826,51.896 28.826,52.204 C28.826,52.596 29.106,52.834 29.946,52.834 L29.946,52.834 L31.164,52.834 C32.816,52.834 33.684,53.338 33.684,54.528 C33.684,55.886 32.256,56.95 30.016,56.95 C28.378,56.95 27.16,56.362 27.16,55.158 C27.16,54.584 27.51,54.08 28.14,53.688 L28.14,53.688 L28.14,53.632 C27.79,53.408 27.524,53.044 27.524,52.484 C27.524,51.952 27.888,51.49 28.28,51.21 L28.28,51.21 L28.28,51.154 C27.818,50.804 27.384,50.146 27.384,49.334 C27.384,47.752 28.658,46.87 30.1,46.87 Z M29.036,54.01 C28.672,54.29 28.504,54.598 28.504,54.92 C28.504,55.536 29.176,55.9 30.268,55.9 C31.374,55.9 32.13,55.382 32.13,54.794 C32.13,54.262 31.696,54.108 30.912,54.108 L30.912,54.108 L29.974,54.108 C29.596,54.108 29.302,54.08 29.036,54.01 Z M6.916,44.756 L6.916,46.128 L4.27,46.128 L4.27,53.912 L2.646,53.912 L2.646,46.128 L0,46.128 L0,44.756 L6.916,44.756 Z M9.912,44.028 L9.912,46.576 L9.856,47.906 C10.43,47.36 11.116,46.87 12.054,46.87 C13.524,46.87 14.168,47.864 14.168,49.6 L14.168,49.6 L14.168,53.912 L12.558,53.912 L12.558,49.81 C12.558,48.676 12.236,48.256 11.48,48.256 C10.878,48.256 10.486,48.55 9.912,49.11 L9.912,49.11 L9.912,53.912 L8.302,53.912 L8.302,44.028 L9.912,44.028 Z M17.724,47.038 L17.724,53.912 L16.114,53.912 L16.114,47.038 L17.724,47.038 Z M23.534,46.87 C25.004,46.87 25.648,47.864 25.648,49.6 L25.648,49.6 L25.648,53.912 L24.038,53.912 L24.038,49.81 C24.038,48.676 23.716,48.256 22.96,48.256 C22.358,48.256 21.966,48.55 21.392,49.11 L21.392,49.11 L21.392,53.912 L19.782,53.912 L19.782,47.038 L21.112,47.038 L21.224,47.962 L21.28,47.962 C21.896,47.36 22.596,46.87 23.534,46.87 Z M30.1,47.976 C29.428,47.976 28.896,48.466 28.896,49.334 C28.896,50.216 29.428,50.72 30.1,50.72 C30.758,50.72 31.29,50.216 31.29,49.334 C31.29,48.48 30.772,47.976 30.1,47.976 Z M16.926,44 C17.5,44 17.92,44.378 17.92,44.924 C17.92,45.456 17.5,45.834 16.926,45.834 C16.352,45.834 15.932,45.456 15.932,44.924 C15.932,44.378 16.352,44 16.926,44 Z M15.5099606,0.173652338 C16.1497185,-0.0578841127 16.8502734,-0.0578841127 17.4900313,0.173652338 L17.4900313,0.173652338 L30.0837747,4.74022851 C31.2323063,5.1594986 31.9974446,6.25161658 32,7.47534702 L32,7.47534702 L32,23.7953661 C32.0017354,24.9669711 31.299667,26.0247583 30.2200197,26.4772137 L30.2200197,26.4772137 L17.6257918,31.7746197 C16.9052837,32.0751268 16.094713,32.0751268 15.3742049,31.7746197 L15.3742049,31.7746197 L2.78046142,26.4772137 C1.70057418,26.0249707 0.99827012,24.9671106 1,23.7953661 L1,23.7953661 L1,7.47534217 C1.00256156,6.25161723 1.76769296,5.15950282 2.91621714,4.74022851 L2.91621714,4.74022851 Z M3.00000143,8 L3.00000143,23.983527 C2.99924662,24.3791105 3.2410355,24.736265 3.6127999,24.888707 L3.6127999,24.888707 L16.0000014,30 L16.0000014,12.8640531 L3.00000143,8 Z M30.0000032,8 L17.0000032,12.8186353 L17.0000032,30 L29.3877015,24.8894017 C29.7592144,24.7367623 30.0007568,24.3797341 30.0000032,23.98435 L30.0000032,23.98435 L30.0000032,8 Z M16.8353524,2.05685295 C16.6206154,1.98104902 16.3855176,1.98104902 16.1707807,2.05685295 L16.1707807,2.05685295 L4.0000032,6.36647005 L16.438688,11 L29.0000032,6.3643036 Z" id="Combined-Shape"></path>
        </g>
    </g>
</svg>