<?xml version="1.0" encoding="UTF-8"?>
<svg width="30px" height="58px" viewBox="0 0 30 58" version="1.1" xmlns="http://www.w3.org/2000/svg" xmlns:xlink="http://www.w3.org/1999/xlink">
    <title>Combined Shape</title>
    <g id="Page-1" stroke="none" stroke-width="1" fill="none" fill-rule="evenodd">
        <path d="M9.058,48.251 L10.248,51.625 C10.444,52.227 10.64,52.913 10.85,53.557 L10.85,53.557 L10.906,53.557 C11.074,52.927 11.256,52.241 11.424,51.625 L11.424,51.625 L12.46,48.251 L14.014,48.251 L11.522,55.433 C10.948,56.987 10.234,57.953 8.736,57.953 C8.358,57.953 8.092,57.897 7.84,57.813 L7.84,57.813 L8.134,56.553 C8.26,56.595 8.456,56.651 8.624,56.651 C9.352,56.651 9.772,56.161 9.996,55.475 L9.996,55.475 L10.122,55.041 L7.42,48.251 L9.058,48.251 Z M18.774,48.083 C20.482,48.083 21.476,49.455 21.476,51.583 C21.476,53.935 20.062,55.293 18.536,55.293 C17.934,55.293 17.332,55.013 16.772,54.537 L16.772,54.537 L16.814,55.685 L16.814,57.841 L15.204,57.841 L15.204,48.251 L16.534,48.251 L16.646,48.979 L16.702,48.979 C17.276,48.489 18.018,48.083 18.774,48.083 Z M25.816,48.083 C27.678,48.083 28.658,49.427 28.658,51.345 C28.658,51.653 28.63,51.961 28.588,52.129 L28.588,52.129 L24.22,52.129 C24.36,53.347 25.144,54.047 26.25,54.047 C26.838,54.047 27.342,53.865 27.846,53.543 L27.846,53.543 L28.392,54.551 C27.734,54.985 26.908,55.293 26.04,55.293 C24.136,55.293 22.652,53.963 22.652,51.695 C22.652,49.455 24.206,48.083 25.816,48.083 Z M7.28,45.969 L7.28,47.341 L4.634,47.341 L4.634,55.125 L3.01,55.125 L3.01,47.341 L0.364,47.341 L0.364,45.969 L7.28,45.969 Z M18.326,49.413 C17.822,49.413 17.346,49.665 16.814,50.183 L16.814,50.183 L16.814,53.389 C17.318,53.809 17.794,53.963 18.2,53.963 C19.11,53.963 19.81,53.151 19.81,51.597 C19.81,50.225 19.362,49.413 18.326,49.413 Z M25.858,49.329 C25.046,49.329 24.346,49.931 24.206,51.037 L24.206,51.037 L27.258,51.037 C27.258,49.973 26.796,49.329 25.858,49.329 Z M27.4036369,0.6 C27.944707,0.6 28.4518095,0.815480636 28.7469329,1.13021681 C28.8357438,1.18911336 28.8771894,1.23877979 28.9197369,1.30459578 C29.1795133,1.61478097 29.3426581,1.98546082 29.3793854,2.37962763 L29.3872989,2.54988635 L29.387,13.293 L29.395136,13.3310735 C29.4045087,13.4109809 29.4003495,13.4920248 29.3833405,13.570883 L29.3482749,13.6871159 L29.2944461,13.7975788 L18.8947552,31.4275243 C18.3887235,32.3144906 17.254938,32.6427045 16.3354273,32.212625 L16.1921448,32.138387 L3.25602125,24.8153308 C2.35944079,24.3037639 2.0210384,23.2066305 2.46041685,22.2957455 L2.53628796,22.1535818 L3.624,20.312 L1.17886446,17.9081091 C0.488716986,17.2331374 0.416069884,16.1752881 0.960879485,15.4087705 L1.06343193,15.2766641 L1.1788035,15.1514295 L15.7924437,0.856384575 C15.8858437,0.742486921 16.0103993,0.665645232 16.1507266,0.626307064 L16.258689,0.603842342 L16.3139982,0.6 L27.4036369,0.6 Z M25.144,17.877 L14.5323331,28.25958 C14.2042976,28.5739948 13.7937641,28.7560245 13.3711711,28.8054376 L13.335,28.808 L16.9299064,30.841787 C17.1481196,30.9610603 17.4068748,30.9170456 17.5540362,30.7523305 L17.6036936,30.6849876 L25.144,17.877 Z M4.736,21.388 L3.83408697,22.9169791 C3.71836099,23.1096512 3.76463749,23.3411744 3.94054361,23.4848855 L4.01252156,23.5344136 L10.899,27.43 L4.736,21.388 Z M27.403192,2.0836199 L16.665,2.083 L2.2371206,16.211594 C2.0721228,16.373052 2.05149807,16.6069855 2.1753421,16.7868135 L2.23726342,16.8602011 L12.7903027,27.1971636 C12.9594987,27.3629406 13.2106412,27.3836627 13.4004607,27.2593578 L13.4776398,27.1972051 L27.8891349,13.073 L27.8891349,2.54988635 C27.8891349,2.44838694 27.8648385,2.36401071 27.8165689,2.29296155 L27.7603201,2.22621415 C27.6858479,2.15363188 27.590254,2.10592092 27.4843675,2.08973983 L27.403192,2.0836199 Z M24.1103853,3.63889051 C24.683589,3.63889051 25.2537507,3.86366543 25.6473782,4.26329943 C26.5087501,5.09170441 26.5087501,6.46179957 25.6497762,7.3028793 C24.8085815,8.12551141 23.4268965,8.12551141 22.5683444,7.30026345 C21.7248462,6.45987514 21.7248462,5.09310155 22.5707231,4.26589068 C22.987455,3.85757988 23.5342087,3.63889051 24.1103853,3.63889051 Z M24.1103853,5.13425198 C23.9152846,5.13425198 23.7503945,5.19459551 23.629207,5.31328065 C23.3655109,5.57126114 23.3655109,5.98463184 23.629207,6.24261234 C23.8977966,6.50538018 24.3354333,6.50538018 24.6038729,6.24275919 C24.867324,5.98474759 24.867324,5.57114538 24.6038728,5.31313375 C24.4854832,5.19718853 24.3092193,5.13425198 24.1103853,5.13425198 Z" id="Combined-Shape" fill="#000000" fill-rule="nonzero"></path>
    </g>
</svg>