<?xml version="1.0" encoding="UTF-8" standalone="no"?><!DOCTYPE svg PUBLIC "-//W3C//DTD SVG 1.1//EN" "http://www.w3.org/Graphics/SVG/1.1/DTD/svg11.dtd"><svg width="100%" height="100%" viewBox="0 0 32 32" version="1.1" xmlns="http://www.w3.org/2000/svg" xmlns:xlink="http://www.w3.org/1999/xlink" xml:space="preserve" style="fill-rule:evenodd;clip-rule:evenodd;stroke-linejoin:round;stroke-miterlimit:10;"><rect id="Page-19a" x="0" y="0" width="32" height="32" style="fill:none;"/><g id="Layer-1"><path d="M20.132,10.476c0,0.886 -0.456,1.69 -1.196,2.273c-0.248,0.196 0.435,2.531 0.435,2.531c0,0 -2.162,-1.688 -2.663,-1.621c-0.23,0.032 -0.467,0.048 -0.708,0.048c-2.282,0 -4.132,-1.446 -4.132,-3.231c0,-1.784 1.85,-3.23 4.132,-3.23c2.282,0 4.132,1.446 4.132,3.23" style="fill:none;"/><path d="M20.132,10.476c0,0.886 -0.456,1.69 -1.196,2.273c-0.248,0.196 0.435,2.531 0.435,2.531c0,0 -2.162,-1.688 -2.663,-1.621c-0.23,0.032 -0.467,0.048 -0.708,0.048c-2.282,0 -4.132,-1.446 -4.132,-3.231c0,-1.784 1.85,-3.23 4.132,-3.23c2.282,0 4.132,1.446 4.132,3.23Z" style="fill:none;stroke:#b3b3b3;stroke-width:1px;"/><path d="M14.882,10.591c0,0.328 -0.266,0.594 -0.594,0.594c-0.327,0 -0.593,-0.266 -0.593,-0.594c0,-0.327 0.266,-0.593 0.593,-0.593c0.328,0 0.594,0.266 0.594,0.593" style="fill:#b3b3b3;fill-rule:nonzero;"/><path d="M16.624,10.651c0,0.328 -0.266,0.594 -0.594,0.594c-0.328,0 -0.594,-0.266 -0.594,-0.594c0,-0.327 0.266,-0.593 0.594,-0.593c0.328,0 0.594,0.266 0.594,0.593" style="fill:#b3b3b3;fill-rule:nonzero;"/><path d="M18.366,10.651c0,0.328 -0.266,0.594 -0.594,0.594c-0.328,0 -0.594,-0.266 -0.594,-0.594c0,-0.327 0.266,-0.593 0.594,-0.593c0.328,0 0.594,0.266 0.594,0.593" style="fill:#b3b3b3;fill-rule:nonzero;"/></g><text x="8.541px" y="25.977px" style="font-family:'Source Sans Pro','Lato-Regular', 'Lato', sans-serif;font-size:4px;fill:#b3b3b3;">Concep<tspan x="21.875px " y="25.977px ">t</tspan></text></svg>