<?xml version="1.0" encoding="UTF-8"?>
<svg width="32px" height="32px" viewBox="0 0 32 32" version="1.1" xmlns="http://www.w3.org/2000/svg" xmlns:xlink="http://www.w3.org/1999/xlink">
    <!-- Generator: Sketch 53.1 (72631) - https://sketchapp.com -->
    <title>Icons/Actions/Add</title>
    <desc>Created with Sketch.</desc>
    <defs>
        <rect id="path-1" x="0" y="0" width="32" height="32"></rect>
        <path d="M11,9 L11,1 C11,0.447 10.552,0 10,0 C9.447,0 9,0.447 9,1 L9,9 L1,9 C0.447,9 0,9.447 0,10 C0,10.553 0.447,11 1,11 L9,11 L9,19 C9,19.553 9.447,20 10,20 C10.552,20 11,19.553 11,19 L11,11 L19,11 C19.552,11 20,10.553 20,10 C20,9.447 19.552,9 19,9 L11,9 Z" id="path-3"></path>
        <rect id="path-5" x="0" y="0" width="32" height="32"></rect>
    </defs>
    <g id="Icons/Actions/Add" stroke="none" stroke-width="1" fill="none" fill-rule="evenodd">
        <mask id="mask-2" fill="white">
            <use xlink:href="#path-1"></use>
        </mask>
        <g id="Background"></g>
        <g id="Plus" mask="url(#mask-2)">
            <g transform="translate(6.000000, 6.000000)">
                <mask id="mask-4" fill="white">
                    <use xlink:href="#path-3"></use>
                </mask>
                <use id="Mask" stroke="none" fill="#000000" fill-rule="nonzero" xlink:href="#path-3"></use>
                <g id="color/neutral/dark" stroke="none" fill="none" mask="url(#mask-4)">
                    <g transform="translate(-6.000000, -6.000000)">
                        <rect fill="#696969" x="0" y="0" width="32" height="32"></rect>
                        <mask id="mask-6" fill="white">
                            <use xlink:href="#path-5"></use>
                        </mask>
                        <use id="Background" stroke="none" fill="#FFFFFF" fill-rule="evenodd" xlink:href="#path-5"></use>
                    </g>
                </g>
            </g>
        </g>
    </g>
</svg>