<?xml version="1.0" encoding="UTF-8"?>
<svg width="32px" height="32px" viewBox="0 0 32 32" version="1.1" xmlns="http://www.w3.org/2000/svg" xmlns:xlink="http://www.w3.org/1999/xlink">
    <!-- Generator: Sketch 53.1 (72631) - https://sketchapp.com -->
    <title>Icons/Actions/Close</title>
    <desc>Created with Sketch.</desc>
    <defs>
        <path d="M11.7043333,9.818 L19.247,2.27666667 C19.7683333,1.75533333 19.7683333,0.91 19.247,0.39 C18.727,-0.13 17.883,-0.13 17.3616667,0.39 L9.819,7.93266667 L2.27633333,0.39 C1.75633333,-0.13 0.911,-0.13 0.391,0.39 C-0.130333333,0.91 -0.130333333,1.75533333 0.391,2.27666667 L7.93366667,9.818 L0.391,17.3606667 C-0.130333333,17.882 -0.130333333,18.726 0.391,19.246 C0.911,19.7673333 1.75633333,19.7673333 2.27633333,19.246 L9.819,11.7033333 L17.3616667,19.246 C17.883,19.7673333 18.727,19.7673333 19.247,19.246 C19.7683333,18.726 19.7683333,17.882 19.247,17.3606667 L11.7043333,9.818 Z" id="path-1"></path>
        <rect id="path-3" x="0" y="0" width="43" height="43"></rect>
    </defs>
    <g id="Icons/Actions/Close" stroke="none" stroke-width="1" fill="none" fill-rule="evenodd">
        <g id="Plus" transform="translate(6.000000, 6.000000)">
            <mask id="mask-2" fill="white">
                <use xlink:href="#path-1"></use>
            </mask>
            <use id="Mask" fill="#696969" fill-rule="nonzero" xlink:href="#path-1"></use>
            <g id="color/neutral/dark" mask="url(#mask-2)">
                <g transform="translate(-12.000000, -12.000000)">
                    <rect fill="#696969" x="0" y="0" width="43" height="43"></rect>
                    <mask id="mask-4" fill="white">
                        <use xlink:href="#path-3"></use>
                    </mask>
                    <use id="Background" stroke="none" fill="#696969" fill-rule="evenodd" xlink:href="#path-3"></use>
                </g>
            </g>
        </g>
    </g>
</svg>