<?xml version="1.0" encoding="UTF-8"?>
<svg width="32px" height="32px" viewBox="0 0 32 32" version="1.1" xmlns="http://www.w3.org/2000/svg" xmlns:xlink="http://www.w3.org/1999/xlink">
    <!-- Generator: Sketch 53.1 (72631) - https://sketchapp.com -->
    <title>Icons/Actions/Folder</title>
    <desc>Created with Sketch.</desc>
    <defs>
        <path d="M8,9.38709677 L8,22.0322581 C8,22.2460457 8.17330914,22.4193548 8.38709677,22.4193548 L23.6129032,22.4193548 C23.8266909,22.4193548 24,22.2460457 24,22.0322581 L24,10.6774194 C24,10.4636317 23.8266909,10.2903226 23.6129032,10.2903226 L14.3581807,10.2903226 C14.1166978,10.2903226 13.8828574,10.2056607 13.6973452,10.0510671 L12.5437295,9.0897208 C12.4741625,9.03174821 12.3864723,9 12.2959162,9 L8.38709677,9 C8.17330914,9 8,9.17330914 8,9.38709677 Z M7.11111111,7 L12.264389,7 C12.5243184,7 12.7760216,7.09112914 12.975705,7.25753192 L14.1788142,8.26012294 C14.2786559,8.34332433 14.4045075,8.38888889 14.5344722,8.38888889 L24.8888889,8.38888889 C25.5025386,8.38888889 26,8.88635028 26,9.5 L26,23.1111111 C26,23.7247608 25.5025386,24.2222222 24.8888889,24.2222222 L7.11111111,24.2222222 C6.49746139,24.2222222 6,23.7247608 6,23.1111111 L6,8.11111111 C6,7.49746139 6.49746139,7 7.11111111,7 Z" id="path-1"></path>
        <rect id="path-3" x="0" y="0" width="32" height="32"></rect>
    </defs>
    <g id="Icons/Actions/Folder" stroke="none" stroke-width="1" fill="none" fill-rule="evenodd">
        <mask id="mask-2" fill="white">
            <use xlink:href="#path-1"></use>
        </mask>
        <use id="Shape" fill="#000000" fill-rule="nonzero" xlink:href="#path-1"></use>
        <g id="color/neutral/dark" mask="url(#mask-2)">
            <rect fill="#696969" x="0" y="0" width="32" height="32"></rect>
            <mask id="mask-4" fill="white">
                <use xlink:href="#path-3"></use>
            </mask>
            <use id="Background" fill="#696969" fill-rule="evenodd" xlink:href="#path-3"></use>
        </g>
    </g>
</svg>