<?xml version="1.0" encoding="UTF-8"?>
<svg width="32px" height="32px" viewBox="0 0 32 32" version="1.1" xmlns="http://www.w3.org/2000/svg" xmlns:xlink="http://www.w3.org/1999/xlink">
    <!-- Generator: Sketch 53.1 (72631) - https://sketchapp.com -->
    <title>Icons/Actions/Save</title>
    <desc>Created with Sketch.</desc>
    <defs>
        <path d="M2,0 L15.8382395,-4.4408921e-16 C16.3686725,-7.04090418e-17 16.8773803,0.210713681 17.2524531,0.585786438 L19.4142136,2.7475469 C19.7892863,3.12261965 20,3.63132748 20,4.16176046 L20,18 C20,19.1045695 19.1045695,20 18,20 L2,20 C0.8954305,20 1.3527075e-16,19.1045695 0,18 L0,2 C-1.3527075e-16,0.8954305 0.8954305,2.02906125e-16 2,0 Z M4.76190476,1.9047619 L1.9047619,1.9047619 L1.9047619,17.0952381 C1.9047619,17.6475228 2.35247715,18.0952381 2.9047619,18.0952381 L17.0952381,18.0952381 C17.6475228,18.0952381 18.0952381,17.6475228 18.0952381,17.0952381 L18.0952381,4.53652509 C18.0952381,4.2713086 17.9898813,4.01695468 17.8023449,3.8294183 L15.8776885,1.9047619 L15.2380952,1.9047619 L15.2380952,7.14285714 L4.76190476,7.14285714 L4.76190476,1.9047619 Z M6.66666667,5.23809524 L13.3333333,5.23809524 L13.3333333,1.9047619 L6.66666667,1.9047619 L6.66666667,5.23809524 Z" id="path-1"></path>
        <rect id="path-3" x="0" y="0" width="32" height="32"></rect>
    </defs>
    <g id="Icons/Actions/Save" stroke="none" stroke-width="1" fill="none" fill-rule="evenodd">
        <g id="color/primary/100" transform="translate(6.000000, 6.000000)">
            <mask id="mask-2" fill="white">
                <use xlink:href="#path-1"></use>
            </mask>
            <use id="Mask" fill="#000000" fill-rule="nonzero" xlink:href="#path-1"></use>
            <g id="color/neutral/dark" mask="url(#mask-2)">
                <g transform="translate(-6.000000, -6.000000)">
                    <rect fill="#696969" x="0" y="0" width="32" height="32"></rect>
                    <mask id="mask-4" fill="white">
                        <use xlink:href="#path-3"></use>
                    </mask>
                    <use id="Background" stroke="none" fill="#696969" fill-rule="evenodd" xlink:href="#path-3"></use>
                </g>
            </g>
        </g>
    </g>
</svg>