<?xml version="1.0" encoding="UTF-8"?>
<svg width="32px" height="32px" viewBox="0 0 32 32" version="1.1" xmlns="http://www.w3.org/2000/svg" xmlns:xlink="http://www.w3.org/1999/xlink">
    <!-- Generator: Sketch 53.1 (72631) - https://sketchapp.com -->
    <title>Icons/Actions/Search</title>
    <desc>Created with Sketch.</desc>
    <defs>
        <path d="M13.4622771,18.5925926 C14.3950664,18.5925926 15.2546829,18.3593988 16.0411523,17.8930041 C16.8276217,17.4266095 17.4494719,16.8001868 17.9067215,16.0137174 C18.3639712,15.227248 18.5925926,14.3676316 18.5925926,13.4348422 C18.5925926,12.5020529 18.3639712,11.6424365 17.9067215,10.8559671 C17.4494719,10.0694977 16.8276217,9.44764746 16.0411523,8.99039781 C15.2546829,8.53314815 14.3950664,8.30452675 13.4622771,8.30452675 C12.5294878,8.30452675 11.6698713,8.53314815 10.8834019,8.99039781 C10.0969325,9.44764746 9.47050988,10.0694977 9.00411523,10.8559671 C8.53772058,11.6424365 8.30452675,12.5020529 8.30452675,13.4348422 C8.30452675,14.3676316 8.53772058,15.227248 9.00411523,16.0137174 C9.47050988,16.8001868 10.0969325,17.4266095 10.8834019,17.8930041 C11.6698713,18.3593988 12.5294878,18.5925926 13.4622771,18.5925926 Z M20.3209877,18.5925926 L26,24.2716049 L24.2716049,26 L18.5925926,20.2935528 L18.5925926,19.388203 L18.2633745,19.0864198 C17.623225,19.6534093 16.8870641,20.08779 16.0548697,20.3895748 C15.2226753,20.6913595 14.3584864,20.8422497 13.4622771,20.8422497 C12.1088181,20.8422497 10.8605453,20.5130348 9.71742112,19.8545953 C8.57429698,19.1961558 7.67352867,18.3091048 7.01508916,17.1934156 C6.33835967,16.0411465 6,14.7883012 6,13.4348422 C6,12.0813833 6.33378724,10.8331104 7.00137174,9.68998628 C7.66895624,8.54686214 8.57429698,7.64609383 9.71742112,6.98765432 C10.8605453,6.32921481 12.1088181,6 13.4622771,6 C14.8157361,6 16.0685813,6.33835967 17.2208505,7.01508916 C18.3365396,7.67352867 19.2190182,8.56972455 19.8683128,9.7037037 C20.5176073,10.8376829 20.8422497,12.0813833 20.8422497,13.4348422 C20.8422497,14.3493416 20.6913595,15.2226753 20.3895748,16.0548697 C20.08779,16.8870641 19.6534093,17.623225 19.0864198,18.2633745 L19.388203,18.5925926 L20.3209877,18.5925926 Z" id="path-1"></path>
        <rect id="path-3" x="0" y="0" width="33" height="32"></rect>
    </defs>
    <g id="Icons/Actions/Search" stroke="none" stroke-width="1" fill="none" fill-rule="evenodd">
        <mask id="mask-2" fill="white">
            <use xlink:href="#path-1"></use>
        </mask>
        <use id="search---material" fill="#696969" xlink:href="#path-1"></use>
        <g id="color/neutral/dark" mask="url(#mask-2)">
            <rect fill="#696969" x="0" y="0" width="33" height="32"></rect>
            <mask id="mask-4" fill="white">
                <use xlink:href="#path-3"></use>
            </mask>
            <use id="Background" fill="#696969" fill-rule="evenodd" xlink:href="#path-3"></use>
        </g>
    </g>
</svg>