<?xml version="1.0" encoding="UTF-8"?>
<svg width="32px" height="32px" viewBox="0 0 32 32" version="1.1" xmlns="http://www.w3.org/2000/svg" xmlns:xlink="http://www.w3.org/1999/xlink">
    <!-- Generator: Sketch 53.1 (72631) - https://sketchapp.com -->
    <title>Icons/Actions/VerticalMore</title>
    <desc>Created with Sketch.</desc>
    <defs>
        <path d="M2.22222222,4.44444444 C0.994922778,4.44444444 0,3.44952167 0,2.22222222 C0,0.994922778 0.994922778,0 2.22222222,0 C3.44952167,0 4.44444444,0.994922778 4.44444444,2.22222222 C4.44444444,3.44952167 3.44952167,4.44444444 2.22222222,4.44444444 Z M2.22222222,12.2222222 C0.994922778,12.2222222 0,11.2272994 0,10 C0,8.77270056 0.994922778,7.77777778 2.22222222,7.77777778 C3.44952167,7.77777778 4.44444444,8.77270056 4.44444444,10 C4.44444444,11.2272994 3.44952167,12.2222222 2.22222222,12.2222222 Z M2.22222222,20 C0.994922778,20 0,19.0050772 0,17.7777778 C0,16.5504783 0.994922778,15.5555556 2.22222222,15.5555556 C3.44952167,15.5555556 4.44444444,16.5504783 4.44444444,17.7777778 C4.44444444,19.0050772 3.44952167,20 2.22222222,20 Z" id="path-1"></path>
        <rect id="path-3" x="0" y="0" width="36" height="36"></rect>
    </defs>
    <g id="Icons/Actions/VerticalMore" stroke="none" stroke-width="1" fill="none" fill-rule="evenodd">
        <g id="color/primary/100" transform="translate(14.000000, 6.000000)">
            <mask id="mask-2" fill="white">
                <use xlink:href="#path-1"></use>
            </mask>
            <use id="Mask" fill="#FFFFFF" fill-rule="nonzero" xlink:href="#path-1"></use>
            <g id="color/neutral/dark" mask="url(#mask-2)">
                <g transform="translate(-15.555556, -7.777778)">
                    <rect fill="#696969" x="0" y="0" width="36" height="36"></rect>
                    <mask id="mask-4" fill="white">
                        <use xlink:href="#path-3"></use>
                    </mask>
                    <use id="Background" stroke="none" fill="#696969" fill-rule="evenodd" xlink:href="#path-3"></use>
                </g>
            </g>
        </g>
    </g>
</svg>