<?xml version="1.0" encoding="UTF-8"?>
<svg width="58px" height="62px" viewBox="0 0 58 62" version="1.1" xmlns="http://www.w3.org/2000/svg" xmlns:xlink="http://www.w3.org/1999/xlink">
    <!-- Generator: Sketch 60 (88103) - https://sketch.com -->
    <title>drag and drop</title>
    <desc>Created with Sketch.</desc>
    <g id="Page-1" stroke="none" stroke-width="1" fill="none" fill-rule="evenodd">
        <g id="drag-and-drop" transform="translate(1.000000, 1.000000)">
            <path d="M1,0.5 L5,0.5 L1,0.5 Z" id="Path" stroke="#1D0A6E" stroke-width="2" stroke-linecap="round" stroke-linejoin="round"></path>
            <path d="M9,0.5 L13,0.5 L9,0.5 Z" id="Path" stroke="#1D0A6E" stroke-width="2" stroke-linecap="round" stroke-linejoin="round"></path>
            <path d="M18,0.5 L22,0.5 L18,0.5 Z" id="Path" stroke="#1D0A6E" stroke-width="2" stroke-linecap="round" stroke-linejoin="round"></path>
            <path d="M26,0.5 L30,0.5 L26,0.5 Z" id="Path" stroke="#1D0A6E" stroke-width="2" stroke-linecap="round" stroke-linejoin="round"></path>
            <path d="M38.5,8 L38.5,12 L38.5,8 Z" id="Path" stroke="#1D0A6E" stroke-width="2" stroke-linecap="round" stroke-linejoin="round"></path>
            <path d="M38.5,16 L38.5,20 L38.5,16 Z" id="Path" stroke="#1D0A6E" stroke-width="2" stroke-linecap="round" stroke-linejoin="round"></path>
            <path d="M38.5,24 L38.5,28 L38.5,24 Z" id="Path" stroke="#1D0A6E" stroke-width="2" stroke-linecap="round" stroke-linejoin="round"></path>
            <path d="M38.5,32 L38.5,36 L38.5,32 Z" id="Path" stroke="#1D0A6E" stroke-width="2" stroke-linecap="round" stroke-linejoin="round"></path>
            <path d="M38.5,40 L38.5,44 L38.5,40 Z" id="Path" stroke="#1D0A6E" stroke-width="2" stroke-linecap="round" stroke-linejoin="round"></path>
            <path d="M38.5,48 L38.5,52 L38.5,48 Z" id="Path" stroke="#1D0A6E" stroke-width="2" stroke-linecap="round" stroke-linejoin="round"></path>
            <path d="M39,51.5 L35,51.5 L39,51.5 Z" id="Path" stroke="#1D0A6E" stroke-width="2" stroke-linecap="round" stroke-linejoin="round"></path>
            <path d="M30,52 L26,52 L30,52 Z" id="Path" stroke="#1D0A6E" stroke-width="2" stroke-linecap="round" stroke-linejoin="round"></path>
            <path d="M22,52 L18,52 L22,52 Z" id="Path" stroke="#1D0A6E" stroke-width="2" stroke-linecap="round" stroke-linejoin="round"></path>
            <path d="M13,52 L9,52 L13,52 Z" id="Path" stroke="#1D0A6E" stroke-width="2" stroke-linecap="round" stroke-linejoin="round"></path>
            <path d="M5,52 L1,52 L5,52 Z" id="Path" stroke="#1D0A6E" stroke-width="2" stroke-linecap="round" stroke-linejoin="round"></path>
            <path d="M0.5,52 L0.5,48 L0.5,52 Z" id="Path" stroke="#1D0A6E" stroke-width="2" stroke-linecap="round" stroke-linejoin="round"></path>
            <path d="M0.5,44 L0.5,40 L0.5,44 Z" id="Path" stroke="#1D0A6E" stroke-width="2" stroke-linecap="round" stroke-linejoin="round"></path>
            <path d="M0.5,36 L0.5,32 L0.5,36 Z" id="Path" stroke="#1D0A6E" stroke-width="2" stroke-linecap="round" stroke-linejoin="round"></path>
            <path d="M0.5,28 L0.5,24 L0.5,28 Z" id="Path" stroke="#1D0A6E" stroke-width="2" stroke-linecap="round" stroke-linejoin="round"></path>
            <path d="M0.5,20 L0.5,16 L0.5,20 Z" id="Path" stroke="#1D0A6E" stroke-width="2" stroke-linecap="round" stroke-linejoin="round"></path>
            <path d="M0.5,12 L0.5,8 L0.5,12 Z" id="Path" stroke="#1D0A6E" stroke-width="2" stroke-linecap="round" stroke-linejoin="round"></path>
            <path d="M0.5,5 L0.5,1 L0.5,5 Z" id="Path" stroke="#1D0A6E" stroke-width="2" stroke-linecap="round" stroke-linejoin="round"></path>
            <polygon id="Path" stroke="#1D0A6E" stroke-width="1.5" stroke-linecap="round" stroke-linejoin="round" points="39 8 30 8 30 0"></polygon>
            <g id="arrow" transform="translate(17.000000, 22.000000)" fill="#1D0A6E" fill-rule="nonzero">
                <path d="M39.9463472,12.3858435 C39.7823332,11.7199453 39.2820389,11.1890529 38.6282369,10.9871175 L18.1637815,4.85207217 L2,0 L6.8683857,24.7524191 L11.0632594,37.6688568 C11.273665,38.2982132 11.7880762,38.7776279 12.4294725,38.9421236 C12.5804542,38.9803588 12.7355594,39 12.8912828,39 C13.3895026,38.9976861 13.8679762,38.8044233 14.2286544,38.4598153 L22.3105668,30.6752847 L29.5650064,37.9485904 C30.3175055,38.7009709 31.5353533,38.7009709 32.2878524,37.9485904 L38.4454491,31.7749222 C38.8086336,31.4120574 39.0128844,30.9192191 39.0131319,30.4051561 C39.0146191,29.8935792 38.809901,29.4030979 38.4454491,29.045053 L31.3834497,21.9550105 L39.407578,14.2282984 C39.9015975,13.7541563 40.1068142,13.0523668 39.9463472,12.3858435 Z" id="Path"></path>
                <path d="M2.50757968,0.0771155502 C1.81170512,-0.12016058 1.05870715,0.0676839757 0.552660775,0.564793992 C0.0466143946,1.06190401 -0.128908021,1.78618292 0.0969728368,2.44515305 L7.5,24 L15,3.64775906 L2.50757968,0.0771155502 Z" id="Path"></path>
            </g>
            <path d="M32.4719413,12.9987709 C32.4723019,13.2637745 32.3671897,13.5180283 32.1798037,13.7054143 C31.9924177,13.8928003 31.738164,13.9979125 31.4731603,13.9975518 L8.00194034,13.9975518 C7.45156593,13.9958094 7.00632069,13.5491531 7.00632069,12.9987759 C7.00632069,12.4483987 7.45156593,12.0017424 8.00194034,12 L31.4731703,12 C31.7381705,11.999642 31.9924201,12.104754 32.1798037,12.2921376 C32.3671873,12.4795211 32.4722993,12.7337708 32.4719413,12.9987709 Z" id="Path" fill="#1D0A6E" fill-rule="nonzero"></path>
            <path d="M32.4719413,18.8328509 C32.4722939,19.0978521 32.3671792,19.3521012 32.1797949,19.5394855 C31.9924106,19.7268698 31.7381615,19.8319845 31.4731603,19.8316359 L8.00194034,19.8316359 C7.64435958,19.8327624 7.31345616,19.6426448 7.13433835,19.333158 C6.95522055,19.0236711 6.95522055,18.6420407 7.13433835,18.3325539 C7.31345616,18.0230671 7.64435958,17.8329495 8.00194034,17.8340759 L31.4731703,17.8340759 C31.7381705,17.833722 31.9924201,17.938834 32.1798037,18.1262176 C32.3671873,18.3136011 32.4722993,18.5678508 32.4719413,18.8328509 Z" id="Path" fill="#1D0A6E" fill-rule="nonzero"></path>
        </g>
    </g>
</svg>