<?xml version="1.0" encoding="UTF-8" standalone="no"?>
<!-- Created with Inkscape (http://www.inkscape.org/) -->

<svg
   xmlns:dc="http://purl.org/dc/elements/1.1/"
   xmlns:cc="http://creativecommons.org/ns#"
   xmlns:rdf="http://www.w3.org/1999/02/22-rdf-syntax-ns#"
   xmlns:svg="http://www.w3.org/2000/svg"
   xmlns="http://www.w3.org/2000/svg"
   xmlns:sodipodi="http://sodipodi.sourceforge.net/DTD/sodipodi-0.dtd"
   xmlns:inkscape="http://www.inkscape.org/namespaces/inkscape"
   width="26.790518mm"
   height="28.964314mm"
   viewBox="0 0 94.927032 102.62946"
   id="svg2"
   version="1.1"
   inkscape:version="0.91 r13725"
   sodipodi:docname="rdf-icon.svg">
  <defs
     id="defs4" />
  <sodipodi:namedview
     id="base"
     pagecolor="#ffffff"
     bordercolor="#666666"
     borderopacity="1.0"
     inkscape:pageopacity="0"
     inkscape:pageshadow="2"
     inkscape:zoom="0.98994949"
     inkscape:cx="21.037364"
     inkscape:cy="60.380602"
     inkscape:document-units="px"
     inkscape:current-layer="layer1"
     showgrid="false"
     inkscape:window-width="2560"
     inkscape:window-height="1355"
     inkscape:window-x="0"
     inkscape:window-y="0"
     inkscape:window-maximized="1"
     fit-margin-top="0"
     fit-margin-left="0"
     fit-margin-right="0"
     fit-margin-bottom="0" />
  <metadata
     id="metadata7">
    <rdf:RDF>
      <cc:Work
         rdf:about="">
        <dc:format>image/svg+xml</dc:format>
        <dc:type
           rdf:resource="http://purl.org/dc/dcmitype/StillImage" />
        <dc:title></dc:title>
      </cc:Work>
    </rdf:RDF>
  </metadata>
  <g
     inkscape:label="Layer 1"
     inkscape:groupmode="layer"
     id="layer1"
     transform="translate(-173.36743,-267.87979)">
    <ellipse
       style="opacity:1;fill:none;fill-opacity:1;fill-rule:nonzero;stroke:none;stroke-width:3;stroke-miterlimit:4;stroke-dasharray:none;stroke-opacity:1"
       id="path4147"
       cx="143.99348"
       cy="252.78053"
       rx="19.74472"
       ry="16.621592" />
    <circle
       style="opacity:1;fill:#000000;fill-opacity:1;fill-rule:nonzero;stroke:none;stroke-width:3;stroke-miterlimit:4;stroke-dasharray:none;stroke-opacity:1"
       id="path4149"
       cx="193.36743"
       cy="321.71988"
       r="20" />
    <circle
       r="20"
       cy="287.87979"
       cx="246.27415"
       id="circle4173"
       style="opacity:0.99500002;fill:#000000;fill-opacity:1;fill-rule:nonzero;stroke:none;stroke-width:3;stroke-miterlimit:4;stroke-dasharray:none;stroke-opacity:1" />
    <circle
       style="opacity:1;fill:#000000;fill-opacity:1;fill-rule:nonzero;stroke:none;stroke-width:3;stroke-miterlimit:4;stroke-dasharray:none;stroke-opacity:1"
       id="circle4175"
       cx="248.29446"
       cy="350.50925"
       r="20" />
    <path
       style="fill:#ffffff;fill-opacity:1;fill-rule:evenodd;stroke:none;stroke-width:1px;stroke-linecap:butt;stroke-linejoin:miter;stroke-opacity:1"
       d="m 201.6517,308.76366 c -3.33994,-1.60999 -7.81355,-1.99634 -11.75273,-2.09443 -6.32925,0.56435 -11.35983,6.27327 -11.73823,12.51141 -0.25737,2.72812 0.11321,5.92715 1.42777,8.3428 1.92012,2.34746 3.39423,4.19578 1.92012,2.34746 -0.49859,-3.00585 -1.01412,-11.70495 2.83009,-12.39072 2.66091,0.5133 6.45634,-1.0742 5.19232,-4.51051 -1.16808,-3.1412 3.7786,-4.37822 6.09452,-4.03275 0,0 3.71507,0.0446 6.02614,-0.17326 z"
       id="path4187"
       inkscape:connector-curvature="0"
       sodipodi:nodetypes="ccccccccc" />
    <path
       sodipodi:nodetypes="ccccccccc"
       inkscape:connector-curvature="0"
       id="path4241"
       d="m 254.17963,274.67101 c -3.33994,-1.60999 -7.81355,-1.99634 -11.75273,-2.09443 -6.32925,0.56435 -11.35983,6.27327 -11.73823,12.51141 -0.25737,2.72812 0.11321,5.92715 1.42777,8.3428 1.92012,2.34746 3.39423,4.19578 1.92012,2.34746 -0.49859,-3.00585 -1.01412,-11.70495 2.83009,-12.39072 2.66091,0.5133 6.45634,-1.0742 5.19232,-4.51051 -1.16808,-3.1412 3.7786,-4.37822 6.09452,-4.03275 0,0 3.71507,0.0446 6.02614,-0.17326 z"
       style="fill:#ffffff;fill-opacity:1;fill-rule:evenodd;stroke:none;stroke-width:1px;stroke-linecap:butt;stroke-linejoin:miter;stroke-opacity:1" />
    <path
       style="fill:#ffffff;fill-opacity:1;fill-rule:evenodd;stroke:none;stroke-width:1px;stroke-linecap:butt;stroke-linejoin:miter;stroke-opacity:1"
       d="m 257.46263,336.79539 c -3.33994,-1.60999 -7.81355,-1.99634 -11.75273,-2.09443 -6.32925,0.56435 -11.35983,6.27327 -11.73823,12.51141 -0.25737,2.72812 0.11321,5.92715 1.42777,8.3428 1.92012,2.34746 3.39423,4.19578 1.92012,2.34746 -0.49859,-3.00585 -1.01412,-11.70495 2.83009,-12.39072 2.66091,0.5133 6.45634,-1.0742 5.19232,-4.51051 -1.16808,-3.1412 3.7786,-4.37822 6.09452,-4.03275 0,0 3.71507,0.0446 6.02614,-0.17326 z"
       id="path4243"
       inkscape:connector-curvature="0"
       sodipodi:nodetypes="ccccccccc" />
    <path
       style="fill:none;fill-rule:evenodd;stroke:#000000;stroke-width:9.63590908;stroke-linecap:butt;stroke-linejoin:miter;stroke-miterlimit:4;stroke-dasharray:none;stroke-opacity:1"
       d="m 206.70939,310.88945 25.23996,-14.10057"
       id="path4245"
       inkscape:connector-curvature="0" />
    <path
       inkscape:connector-curvature="0"
       id="path4247"
       d="m 234.0034,343.29874 -25.56,-13.51179"
       style="fill:none;fill-rule:evenodd;stroke:#000000;stroke-width:9.63590908;stroke-linecap:butt;stroke-linejoin:miter;stroke-miterlimit:4;stroke-dasharray:none;stroke-opacity:1" />
    <path
       style="fill:none;fill-rule:evenodd;stroke:#000000;stroke-width:9.63590908;stroke-linecap:butt;stroke-linejoin:miter;stroke-miterlimit:4;stroke-dasharray:none;stroke-opacity:1"
       d="m 249.06906,333.19343 -0.38548,-28.90905"
       id="path4249"
       inkscape:connector-curvature="0" />
  </g>
</svg>
