<?xml version="1.0" encoding="UTF-8" standalone="no"?><!DOCTYPE svg PUBLIC "-//W3C//DTD SVG 1.1//EN" "http://www.w3.org/Graphics/SVG/1.1/DTD/svg11.dtd"><svg width="100%" height="100%" viewBox="0 0 40 32" version="1.1" xmlns="http://www.w3.org/2000/svg" xmlns:xlink="http://www.w3.org/1999/xlink" xml:space="preserve" style="fill-rule:evenodd;clip-rule:evenodd;stroke-linejoin:round;stroke-miterlimit:1.41421;"><circle cx="10.77" cy="21.804" r="8.316" style="fill:#fff;"/><path d="M5.131,25.423l-4.114,4.115c-0.064,0.073 -0.096,0.155 -0.096,0.247c0,0.091 0.032,0.173 0.096,0.247l1.495,1.494c0.073,0.064 0.155,0.096 0.246,0.096c0.092,0 0.175,-0.032 0.247,-0.096l4.115,-4.114c1.088,0.713 2.281,1.07 3.579,1.07c1.829,0 3.393,-0.649 4.69,-1.948c1.299,-1.298 1.948,-2.861 1.948,-4.69c0,-1.829 -0.649,-3.392 -1.948,-4.69c-1.297,-1.299 -2.861,-1.948 -4.69,-1.948c-1.828,0 -3.391,0.649 -4.69,1.948c-1.298,1.298 -1.948,2.861 -1.948,4.69c0,1.298 0.357,2.491 1.07,3.579" style="fill:#231f20;fill-rule:nonzero;"/><circle cx="10.694" cy="21.929" r="5" style="fill:#fff;"/></svg>