<?xml version="1.0" encoding="UTF-8" standalone="no"?><!DOCTYPE svg PUBLIC "-//W3C//DTD SVG 1.1//EN" "http://www.w3.org/Graphics/SVG/1.1/DTD/svg11.dtd"><svg width="100%" height="100%" viewBox="0 0 40 32" version="1.1" xmlns="http://www.w3.org/2000/svg" xmlns:xlink="http://www.w3.org/1999/xlink" xml:space="preserve" style="fill-rule:evenodd;clip-rule:evenodd;stroke-linejoin:round;stroke-miterlimit:1.41421;"><path d="M25.139,8.423c0,0.239 0.054,0.522 0.16,0.847c0.106,0.326 0.216,0.617 0.328,0.877c0.113,0.258 0.176,0.415 0.19,0.468c-0.119,-0.027 -0.326,-0.06 -0.617,-0.1c-0.293,-0.04 -0.532,-0.073 -0.717,-0.1c-0.187,-0.026 -0.399,-0.08 -0.638,-0.159c-0.239,-0.079 -0.438,-0.172 -0.598,-0.279c0.04,-0.159 0.146,-0.358 0.319,-0.598c0.173,-0.239 0.279,-0.405 0.319,-0.498c0.132,0.134 0.255,0.2 0.368,0.2c0.113,0 0.207,-0.04 0.279,-0.119c0.073,-0.081 0.17,-0.176 0.289,-0.29c0.119,-0.112 0.226,-0.196 0.318,-0.249M25.418,6.292c-0.199,0.159 -0.441,0.299 -0.727,0.418c-0.285,0.121 -0.514,0.2 -0.687,0.239c-0.172,0.04 -0.465,0.094 -0.876,0.16c-0.411,0.067 -0.671,0.107 -0.776,0.119c-0.2,0.041 -0.502,0.037 -0.907,-0.009c-0.405,-0.047 -0.707,-0.03 -0.907,0.05c-0.278,0.092 -0.624,0.268 -1.035,0.528c-0.411,0.258 -0.637,0.487 -0.678,0.686c-0.039,0.147 0.004,0.296 0.131,0.449c0.125,0.152 0.182,0.275 0.168,0.368c-0.04,0.451 -0.222,1.052 -0.547,1.802c-0.326,0.751 -0.522,1.279 -0.588,1.584c-0.106,0.438 -0.07,1.053 0.11,1.842c0.179,0.791 0.229,1.372 0.149,1.743c0,0.12 0.113,0.412 0.338,0.877c0.226,0.465 0.332,0.863 0.319,1.194c0.16,0 0.312,0.038 0.459,0.11c0.146,0.074 0.298,0.173 0.457,0.299c0.16,0.127 0.293,0.216 0.399,0.269c0.318,0.159 1.035,0.438 2.151,0.837c0.293,0.106 0.644,0.315 1.056,0.627c0.411,0.312 0.807,0.568 1.185,0.767c0.378,0.199 0.76,0.272 1.146,0.219c0.105,0.239 0.006,0.604 -0.3,1.096c-0.305,0.49 -0.438,0.869 -0.398,1.135c0.558,0.943 1.136,1.473 1.733,1.593c0,0.08 -0.02,0.183 -0.06,0.309c-0.039,0.126 -0.062,0.223 -0.07,0.289c-0.006,0.066 0.023,0.179 0.09,0.338c1.355,0.027 2.822,-0.717 4.402,-2.231c0.398,-0.384 0.71,-0.697 0.937,-0.935c0.225,-0.24 0.454,-0.565 0.686,-0.977c0.232,-0.411 0.369,-0.823 0.408,-1.234c-0.186,-0.12 -0.431,-0.183 -0.736,-0.189c-0.306,-0.007 -0.545,-0.057 -0.717,-0.15c-0.187,-0.093 -0.512,-0.192 -0.977,-0.299c-0.464,-0.106 -0.81,-0.233 -1.035,-0.379c-0.119,0 -0.382,0.004 -0.786,0.01c-0.406,0.008 -0.715,0.017 -0.927,0.03c-0.213,0.014 -0.472,0.057 -0.777,0.13c-0.306,0.073 -0.564,0.183 -0.777,0.328c-0.664,0.466 -1.102,0.545 -1.315,0.24c-0.053,-0.027 -0.076,-0.196 -0.069,-0.509c0.006,-0.312 0.01,-0.48 0.01,-0.507c-0.08,-0.172 -0.256,-0.285 -0.528,-0.338c-0.272,-0.054 -0.435,-0.101 -0.488,-0.14c0.026,-0.293 0.013,-0.565 -0.04,-0.817c-0.053,-0.252 -0.163,-0.438 -0.329,-0.558c-0.166,-0.119 -0.421,0.013 -0.766,0.398c-0.306,0.332 -0.585,0.307 -0.837,-0.079c-0.252,-0.372 -0.305,-0.757 -0.159,-1.155c0.079,-0.213 0.225,-0.358 0.438,-0.438c0.08,0.013 0.252,0.023 0.518,0.029c0.265,0.007 0.488,0.033 0.667,0.081c0.18,0.046 0.309,0.136 0.388,0.268c0.16,0.253 0.372,0.502 0.638,0.747c0.266,0.246 0.491,0.428 0.678,0.547l0.279,0.16c0,-0.039 0.062,-0.302 0.189,-0.786c0.125,-0.486 0.162,-0.867 0.109,-1.146c-0.054,-0.306 0.043,-0.6 0.288,-0.887c0.246,-0.284 0.395,-0.494 0.449,-0.627c0.066,-0.185 0.132,-0.418 0.199,-0.697c0.067,-0.279 0.123,-0.484 0.17,-0.618c0.046,-0.132 0.148,-0.281 0.308,-0.447c0.159,-0.166 0.385,-0.309 0.677,-0.429c-0.08,-0.238 -0.013,-0.484 0.199,-0.736c0.106,0 0.263,0.009 0.468,0.03c0.207,0.019 0.369,0.029 0.488,0.029c0.12,0 0.256,-0.029 0.409,-0.089c0.152,-0.061 0.288,-0.163 0.408,-0.31c-0.133,-0.305 -0.335,-0.587 -0.608,-0.845c-0.272,-0.26 -0.524,-0.459 -0.757,-0.599c-0.231,-0.139 -0.557,-0.314 -0.975,-0.527c-0.418,-0.212 -0.708,-0.366 -0.866,-0.458c0.146,-0.545 0.152,-0.837 0.019,-0.877c0.412,0.173 0.8,0.27 1.165,0.289c0.365,0.02 0.628,-0.003 0.788,-0.069l0.219,-0.08c0.079,-0.478 -0.034,-0.833 -0.34,-1.066c-0.305,-0.232 -0.73,-0.422 -1.274,-0.568c-0.545,-0.145 -0.917,-0.299 -1.116,-0.458c-0.252,0.041 -0.498,0.041 -0.737,0M24.94,4.42c1.607,0 3.145,0.315 4.612,0.947c1.467,0.63 2.731,1.476 3.794,2.539c1.062,1.062 1.908,2.327 2.54,3.795c0.63,1.467 0.945,3.01 0.945,4.63c0,2.151 -0.53,4.14 -1.593,5.966c-1.062,1.826 -2.506,3.269 -4.332,4.331c-1.825,1.063 -3.815,1.594 -5.966,1.594c-2.151,0 -4.143,-0.531 -5.975,-1.594c-1.833,-1.062 -3.28,-2.505 -4.342,-4.331c-1.062,-1.826 -1.593,-3.815 -1.593,-5.966c0,-1.62 0.315,-3.163 0.946,-4.63c0.63,-1.468 1.477,-2.733 2.54,-3.795c1.061,-1.063 2.327,-1.909 3.794,-2.539c1.467,-0.632 3.01,-0.947 4.63,-0.947" style="fill:#231f20;fill-rule:nonzero;"/><circle cx="10.77" cy="21.804" r="8.316" style="fill:#fff;"/><path d="M5.131,25.423l-4.114,4.115c-0.064,0.073 -0.096,0.155 -0.096,0.247c0,0.091 0.032,0.173 0.096,0.247l1.495,1.494c0.073,0.064 0.155,0.096 0.246,0.096c0.092,0 0.175,-0.032 0.247,-0.096l4.115,-4.114c1.088,0.713 2.281,1.07 3.579,1.07c1.829,0 3.393,-0.649 4.69,-1.948c1.299,-1.298 1.948,-2.861 1.948,-4.69c0,-1.829 -0.649,-3.392 -1.948,-4.69c-1.297,-1.299 -2.861,-1.948 -4.69,-1.948c-1.828,0 -3.391,0.649 -4.69,1.948c-1.298,1.298 -1.948,2.861 -1.948,4.69c0,1.298 0.357,2.491 1.07,3.579" style="fill:#231f20;fill-rule:nonzero;"/><circle cx="10.694" cy="21.929" r="5" style="fill:#fff;"/></svg>