<?xml version="1.0" encoding="utf-8"?>
<!-- Generator: Adobe Illustrator 19.1.0, SVG Export Plug-In . SVG Version: 6.00 Build 0)  -->
<svg version="1.1" id="Layer_1" xmlns="http://www.w3.org/2000/svg" xmlns:xlink="http://www.w3.org/1999/xlink" x="0px" y="0px"
	 viewBox="0 0 32 32" style="enable-background:new 0 0 32 32;" xml:space="preserve">
<style type="text/css">
	.st0{fill:none;stroke:#333333;stroke-miterlimit:10;}
	.st1{fill:none;stroke:#231F20;stroke-width:2;stroke-miterlimit:10;}
</style>
<g>
	<g>
		<path d="M8.9,13.5v3.9H5.3v-3.1c0-1.7,0.2-2.9,0.6-3.6c0.5-1,1.4-1.7,2.5-2.3l0.8,1.3C8.5,10.1,8,10.5,7.6,11
			c-0.3,0.6-0.5,1.4-0.5,2.5H8.9z M14.6,13.5v3.9H11v-3.1c0-1.7,0.2-2.9,0.6-3.6c0.5-1,1.4-1.7,2.5-2.3l0.8,1.3
			c-0.7,0.3-1.2,0.7-1.5,1.3c-0.3,0.6-0.5,1.4-0.5,2.5H14.6z"/>
	</g>
</g>
<g>
	<g>
		<path d="M18.3,15.9V12h3.6v3.1c0,1.7-0.2,2.9-0.6,3.6c-0.5,1-1.3,1.7-2.5,2.3L18,19.7c0.7-0.3,1.2-0.7,1.5-1.3
			c0.3-0.6,0.5-1.4,0.5-2.5H18.3z M24.1,15.9V12h3.6v3.1c0,1.7-0.2,2.9-0.6,3.6c-0.5,1-1.4,1.7-2.5,2.3l-0.8-1.3
			c0.7-0.3,1.2-0.7,1.5-1.3c0.3-0.6,0.5-1.4,0.5-2.5H24.1z"/>
	</g>
</g>
<path class="st0" d="M26,22.3"/>
<polyline class="st1" points="7,7 7,3 26,3 26,9 "/>
<polyline class="st1" points="26,22 26,29 7,29 7,20 "/>
</svg>
