<?xml version="1.0" encoding="UTF-8" standalone="no"?><!DOCTYPE svg PUBLIC "-//W3C//DTD SVG 1.1//EN" "http://www.w3.org/Graphics/SVG/1.1/DTD/svg11.dtd"><svg width="100%" height="100%" viewBox="0 0 71 24" version="1.1" xmlns="http://www.w3.org/2000/svg" xmlns:xlink="http://www.w3.org/1999/xlink" xml:space="preserve" style="fill-rule:evenodd;clip-rule:evenodd;stroke-linejoin:round;stroke-miterlimit:1.41421;"><g><path d="M0,6.035l0.007,-0.111l0.03,-1.684l6.343,0l0,0.111l0.043,1.684l-0.116,0l-0.408,0l-0.015,-0.094l-0.003,-0.027c-0.098,-0.582 -0.238,-0.85 -0.39,-0.967c-0.148,-0.122 -0.351,-0.142 -0.658,-0.142c0,0 -0.018,0 -0.037,0c-0.056,0 -0.119,0 -0.183,0l-0.804,0l0,4.291c-0.003,0.509 0.016,0.811 0.088,0.936c0.057,0.128 0.155,0.169 0.557,0.176l0.458,0l0,0.565l-3.416,0l0,-0.118l0,-0.447l0.471,0c0.39,-0.007 0.498,-0.048 0.556,-0.163c0.073,-0.121 0.086,-0.457 0.086,-1.019c0,-0.031 0,-0.055 0,-0.083l0,-4.138l-1.105,0c-0.373,0.003 -0.524,0.072 -0.64,0.225c-0.122,0.156 -0.207,0.423 -0.308,0.87l-0.018,0.142l-0.538,-0.007Z" style="fill:#fff;fill-rule:nonzero;"/><path d="M9.675,10.773l-0.116,0l0,-0.118l0,-0.447l0.149,0c0.006,0 0.021,-0.007 0.046,-0.007c0.3,0.007 0.383,-0.024 0.395,-0.062c0.04,-0.049 0.062,-0.284 0.057,-0.718c0,-0.034 -0.003,-0.083 0.005,-0.124l0,-1.12c0.002,-0.329 -0.033,-0.783 -0.287,-0.911c-0.093,-0.053 -0.213,-0.077 -0.332,-0.077c-0.091,0 -0.18,0.014 -0.256,0.049c-0.16,0.055 -0.304,0.163 -0.439,0.287c-0.068,0.063 -0.137,0.139 -0.203,0.208c-0.025,0.032 -0.068,0.07 -0.106,0.115c-0.041,0.027 -0.058,0.027 -0.051,0.034l0,1.539c-0.005,0.42 0.014,0.656 0.057,0.715c0.019,0.045 0.075,0.072 0.39,0.072l0.144,0l0,0.565l-2.208,0l0,-0.118l0,-0.447l0.151,0c0.012,0 0.031,-0.007 0.056,-0.007c0.295,0.007 0.383,-0.024 0.394,-0.062c0.04,-0.045 0.065,-0.281 0.057,-0.718c0,-0.034 -0.004,-0.083 0.004,-0.124l0,-3.671c0,-0.028 -0.004,-0.063 -0.004,-0.097c0,-0.274 -0.017,-0.458 -0.054,-0.516c-0.037,-0.066 -0.108,-0.112 -0.416,-0.115l-0.149,0l0,-0.114l0,-0.444l0.149,0c0.365,0 0.89,-0.087 1.15,-0.184l0.058,-0.017l0.221,0l0,2.978c0.372,-0.358 0.769,-0.566 1.222,-0.566c0.442,0 0.802,0.118 1.051,0.375c0.246,0.253 0.359,0.624 0.359,1.078l0,1.296c-0.005,0.038 -0.005,0.083 -0.005,0.121c-0.002,0.434 0.018,0.669 0.062,0.718c0.012,0.038 0.087,0.069 0.387,0.069c0.004,0 0.029,-0.007 0.048,0l0.147,0l0,0.565l-0.116,0l-2.017,0Z" style="fill:#fff;fill-rule:nonzero;"/><path d="M15.078,7.775c0,0 0,-0.004 0,-0.007l0,-0.01c-0.008,-0.458 -0.316,-0.617 -0.677,-0.652l0,0.011c-0.53,0 -0.727,0.384 -0.807,0.658l1.484,0Zm-1.943,2.621c-0.396,-0.357 -0.677,-0.902 -0.677,-1.626l0,-0.003c0,-0.008 0,-0.011 0.003,-0.018c0.003,-0.61 0.206,-1.154 0.554,-1.549c0.352,-0.403 0.856,-0.645 1.432,-0.645c1.064,0 1.692,0.839 1.722,1.615l0.003,0.156l-2.644,0c-0.003,0.091 -0.008,0.191 -0.008,0.291c0,0.236 0.008,0.687 0.148,1.054c0.156,0.368 0.391,0.642 0.937,0.648c0.196,0 0.768,-0.038 1.042,-0.693l0.552,0l-0.024,0.139l-0.012,0.038c-0.039,0.187 -0.45,1.112 -1.681,1.119c-0.45,0 -0.95,-0.17 -1.347,-0.526Z" style="fill:#fff;fill-rule:nonzero;"/><path d="M21.881,5.141c1.63,-0.021 2.462,-0.278 2.481,-1.893c-0.023,-1.442 -0.653,-1.84 -2.057,-1.861c-0.211,0 -0.435,0.01 -0.669,0.028l0,3.726c0.084,0 0.165,0 0.245,0Zm0.804,4.956c2.063,-0.01 2.121,-1.355 2.139,-2.152c-0.021,-1.407 -0.488,-2.163 -2.735,-2.187c-0.144,0 -0.296,0.003 -0.453,0.013l0,1.956c0.04,2.252 -0.053,2.346 1.049,2.37Zm-4.143,0.621l-0.112,0l0,-0.114l0,-0.489l0.478,0c1.17,-0.035 1.063,-0.17 1.106,-2.07l0,-4.634c-0.054,-2.007 -0.028,-1.886 -1.214,-1.927c-0.084,0 -0.167,0 -0.254,0l-0.116,0l0,-0.114l0,-0.499l0.109,-0.008c1.034,-0.041 2.659,-0.1 3.495,-0.1c0.044,0 0.116,0 0.203,0c0.905,0 3.821,0.073 3.851,2.412c-0.011,1.439 -1.164,1.997 -2.027,2.222c1.35,0.236 2.547,0.954 2.547,2.562c0,2.215 -1.965,2.755 -3.657,2.759l-4.409,0Z" style="fill:#fff;fill-rule:nonzero;"/><path d="M27.641,10.718l0,-0.111l0,-0.496l0.115,0c0.992,-0.052 0.83,0.156 0.887,-1.497l0,-1.647c-0.054,-1.625 0.101,-1.438 -0.843,-1.487c-0.012,0 -0.023,0 -0.044,0l-0.115,0l0,-0.11l0,-0.493l0.101,-0.017c0.637,-0.08 1.389,-0.312 1.625,-0.385l0.207,-0.062l0.035,0.108c0.059,0.19 0.158,0.516 0.195,1.074c0.494,-0.818 1.248,-1.151 1.761,-1.151c0.735,0.004 1.128,0.586 1.128,0.998c0,0.323 -0.246,0.61 -0.589,0.61c-0.431,0 -0.565,-0.374 -0.615,-0.506c-0.076,-0.166 -0.159,-0.315 -0.3,-0.305c-0.315,0 -1.298,0.634 -1.298,2.066l0,1.307c0.045,1.525 -0.076,1.463 0.743,1.497l0.319,0l0,0.607l-3.312,0Z" style="fill:#fff;fill-rule:nonzero;"/><path d="M34.796,0.721c0.474,0.004 0.844,0.406 0.844,0.867c0,0.468 -0.37,0.87 -0.844,0.873c-0.473,-0.003 -0.856,-0.402 -0.856,-0.873c0,-0.461 0.367,-0.867 0.856,-0.867Zm-1.583,9.997l0,-0.111l0,-0.492l0.364,0c0.655,-0.045 0.695,0.076 0.742,-0.936l0,-2.257c-0.06,-1.636 0.093,-1.435 -0.918,-1.486l-0.113,0l0,-0.108l0,-0.506l0.11,-0.004c0.414,-0.01 1.275,-0.197 1.908,-0.378l0.259,0l0,4.174c0,0.232 -0.006,0.437 -0.006,0.606c0.042,0.787 -0.009,0.857 0.692,0.895l0.331,0l0,0.603l-3.369,0Z" style="fill:#fff;fill-rule:nonzero;"/><path d="M38.437,10.181c-0.202,-0.382 -0.23,-0.715 -0.23,-1.772l0,-2.97l-0.846,0l0,-0.115l0,-0.502l0.109,-0.004c0.58,-0.031 1.247,-0.461 1.464,-1.864l0.015,-0.094l0.502,0l0,1.958l1.713,0l0,0.621l-0.114,0l-1.599,0l0,3.109c0.008,0.929 0.004,1.601 0.762,1.601c0.376,0.004 0.587,-0.329 0.708,-0.53l0.066,-0.1l0.099,0.065l0.376,0.267l-0.045,0.09c-0.483,1.009 -1.506,1.009 -1.615,1.009c-0.579,-0.003 -1.121,-0.305 -1.365,-0.769Z" style="fill:#fff;fill-rule:nonzero;"/><path d="M43.607,0.721c0.477,0 0.843,0.403 0.843,0.87c0,0.465 -0.366,0.867 -0.843,0.867c-0.474,0 -0.855,-0.395 -0.855,-0.867c0,-0.467 0.367,-0.87 0.855,-0.87Zm-1.58,9.997l0,-0.114l0,-0.493l0.361,0c0.627,-0.034 0.703,-0.031 0.745,-1.047l0,-2.138c-0.059,-1.626 0.02,-1.439 -0.993,-1.49l-0.113,0l0,-0.108l0,-0.503l0.108,-0.003c0.417,-0.014 1.347,-0.201 1.982,-0.382l0.26,0l0,4.119c0,0.235 -0.007,0.44 -0.007,0.613c0.036,0.797 0,0.908 0.692,0.939l0.329,0l0,0.607l-3.364,0Z" style="fill:#fff;fill-rule:nonzero;"/><path d="M47.24,10.392c-0.093,0.139 -0.166,0.326 -0.187,0.416l-0.017,0.086l-0.091,0l-0.391,0l0,-0.114l0,-1.903l0,-0.118l0.511,0l0.021,0.091c0.141,0.672 0.62,1.497 1.573,1.493c0.855,0 0.95,-0.623 0.962,-0.859c0.006,-0.669 -0.562,-0.953 -1.347,-1.338c-0.691,-0.343 -1.703,-0.832 -1.707,-1.972c0,-0.725 0.351,-1.73 1.671,-1.73c0.506,-0.004 0.919,0.194 1.255,0.541c0.087,-0.146 0.195,-0.364 0.286,-0.444l0.376,0l0,2.035l-0.112,0l-0.387,0l-0.019,-0.094c-0.111,-0.537 -0.531,-1.431 -1.369,-1.421c-0.578,0.007 -0.827,0.34 -0.83,0.7c-0.014,0.569 0.621,0.887 1.298,1.189c0.764,0.347 1.811,0.832 1.811,2.17c0,1.144 -0.794,1.827 -1.873,1.83c-0.006,0 -0.009,0 -0.013,0c-0.707,0 -1.105,-0.27 -1.421,-0.558Z" style="fill:#fff;fill-rule:nonzero;"/><path d="M40.589,23.417c-0.099,0.147 -0.184,0.351 -0.198,0.438l-0.024,0.086l-0.087,0l-0.389,0l0,-0.11l0,-1.907l0,-0.118l0.508,0l0.022,0.097c0.143,0.673 0.62,1.498 1.575,1.494c0.855,-0.003 0.953,-0.627 0.962,-0.859c0.001,-0.669 -0.563,-0.954 -1.347,-1.338c-0.693,-0.347 -1.671,-0.836 -1.706,-1.973c-0.007,-0.02 -0.007,-0.041 -0.007,-0.065c0,-0.763 0.434,-1.667 1.676,-1.667c0.507,-0.004 0.921,0.193 1.252,0.54c0.09,-0.146 0.197,-0.361 0.286,-0.44l0.379,0l0,2.034l-0.116,0l-0.385,0l-0.016,-0.096c-0.115,-0.531 -0.538,-1.432 -1.369,-1.418c-0.58,0.003 -0.826,0.336 -0.836,0.703c-0.01,0.561 0.621,0.877 1.299,1.185c0.767,0.34 1.817,0.832 1.814,2.167c0,1.061 -0.787,1.83 -1.872,1.83c-0.009,0 -0.018,0 -0.025,0c-0.703,0 -1.088,-0.288 -1.396,-0.583Z" style="fill:#fff;fill-rule:nonzero;"/><path d="M55.428,10.721l0,-0.114l0,-0.496l0.114,0c0.98,-0.041 0.839,0.083 0.889,-1.556l0,-1.747c-0.019,-1.289 -0.338,-1.622 -1.052,-1.636c-0.033,0 -0.066,0 -0.094,0.007c-0.596,0.017 -1.234,0.641 -1.665,1.165l0,2.211c0.046,1.598 -0.075,1.522 0.806,1.556l0.112,0l0,0.61l-3.18,0l0,-0.114l0,-0.496l0.113,0c0.998,-0.041 0.852,0.097 0.903,-1.556l0,-5.674c-0.035,-1.047 0.065,-1.203 -0.847,-1.234l-0.11,0l0,-0.118l0,-0.503l0.11,0c0.581,0.004 1.394,-0.131 1.881,-0.305l0.212,0l0,4.732c0.638,-0.683 1.274,-1.013 1.994,-1.013c1.342,0.004 2.067,0.76 2.067,2.122l0,1.993c0.05,1.639 -0.094,1.515 0.873,1.556l0.109,0l0,0.61l-3.235,0Z" style="fill:#fff;fill-rule:nonzero;"/><path d="M28.437,13.917l3.159,0l0,0.607l-0.115,0l-0.363,0c-1.244,0.041 -1.13,-0.035 -1.18,1.962l0,4.609c0.04,1.9 -0.064,2.031 1.106,2.067l0.552,0l0,0.606l-4.841,0l0,-0.114l0,-0.492l0.449,0c1.17,-0.036 1.066,-0.167 1.109,-2.067l0,-5.414l-3.697,8.087l-0.437,-0.069l-3.591,-8.157l0,5.831c0.021,1.303 0.372,1.67 1.407,1.789l0.106,0.009l0,0.597l-3.661,0l0,-0.114l0,-0.483l0.106,-0.009c0.862,-0.108 1.382,-0.278 1.409,-1.879l0,-4.853c0,-0.045 -0.005,-0.09 -0.005,-0.132c-0.053,-1.857 0.087,-1.726 -1.133,-1.774l-0.377,0l0,-0.114l0,-0.493l3.143,0.07l3.389,7.636l3.465,-7.706Z" style="fill:#fff;fill-rule:nonzero;"/><path d="M36.871,23.941c-0.173,-0.318 -0.231,-0.7 -0.25,-1.016c-0.437,0.57 -1.18,1.075 -2.121,1.075c-1.779,0 -1.92,-1.449 -1.92,-2.062l0,-2.049c-0.05,-1.625 0.087,-1.511 -0.844,-1.556l-0.116,0l0,-0.111l0,-0.499l2.206,0l0,4.139c0.013,0.571 -0.018,1.348 1.006,1.351c0.355,-0.003 1.775,-0.318 1.778,-1.962l0,-1.362c-0.053,-1.649 0.096,-1.511 -0.904,-1.556l-0.112,0l0,-0.111l0,-0.499l2.262,0l0,3.861c0.042,1.598 -0.072,1.536 0.771,1.574l0.117,0l0,0.61l-0.117,0c-0.485,0 -1.151,0.049 -1.553,0.232l-0.203,-0.059Z" style="fill:#fff;fill-rule:nonzero;"/><path d="M49.301,19.415c0.007,-0.052 0.012,-0.105 0.012,-0.181c-0.007,-0.894 -0.61,-1.186 -1.149,-1.195c-1.083,-0.004 -1.322,0.911 -1.405,1.376l2.542,0Zm-4.029,1.375c0.002,-1.85 1.233,-3.295 2.949,-3.299c1.577,0 2.496,1.241 2.541,2.384l0.004,0.119l-4.067,0c-0.013,0.159 -0.02,0.304 -0.02,0.505c0.002,0.756 0.045,2.895 1.788,2.898c0.312,-0.003 1.229,-0.021 1.846,-1.164l0.506,0l-0.042,0.139c-0.053,0.242 -0.671,1.625 -2.497,1.628c-1.397,0.009 -3.006,-1.022 -3.008,-3.21Z" style="fill:#fff;fill-rule:nonzero;"/><path d="M56.755,23.941c-0.179,-0.322 -0.235,-0.738 -0.253,-1.074c-0.436,0.579 -1.172,1.133 -2.118,1.133c-1.773,0 -1.92,-1.452 -1.92,-2.059l0,-2.045c-0.049,-1.625 0.09,-1.518 -0.844,-1.556l-0.115,0l0,-0.114l0,-0.507l2.207,0.073l0,4.077c0.016,0.561 -0.018,1.341 1.005,1.344c0.357,-0.003 1.774,-0.318 1.776,-1.962l0,-1.355c-0.054,-1.653 0.096,-1.515 -0.901,-1.556l-0.116,0l0,-0.114l0,-0.503l2.261,0l0,3.868c0.047,1.598 -0.072,1.535 0.777,1.574l0.113,0l0,0.603l-0.113,0c-0.486,0 -1.153,0.049 -1.56,0.232l-0.199,-0.059Z" style="fill:#fff;fill-rule:nonzero;"/><path d="M63.529,18.281c-0.904,-0.007 -1.492,0.762 -1.758,1.136l0,2.188c0.048,1.608 -0.085,1.518 0.843,1.557l0.114,0l0,0.609l-3.165,0l0,-0.114l0,-0.495l0.116,0c0.93,-0.039 0.795,0.069 0.847,-1.557l0,-1.611c-0.052,-1.626 0.083,-1.519 -0.847,-1.561l-0.116,0l0,-0.114l0,-0.482l0.102,-0.013c0.482,-0.052 1.106,-0.199 1.609,-0.333l0.299,0.076c0.093,0.274 0.147,0.659 0.177,0.967c0.593,-0.627 1.316,-1.043 2.159,-1.043c1.175,-0.007 1.662,0.637 1.82,1.14c0.666,-0.72 1.384,-1.14 2.25,-1.14c1.327,0.007 1.93,0.78 1.93,2.004l0,2.11c0.052,1.598 -0.08,1.518 0.846,1.557l0.11,0l0,0.609l-3.202,0l0,-0.114l0,-0.495l0.112,0c0.98,-0.042 0.837,0.079 0.89,-1.557l0,-1.698c-0.015,-0.797 0.01,-1.633 -1.064,-1.636c-0.904,0 -1.495,0.769 -1.765,1.14l0,2.194c0.053,1.608 -0.083,1.518 0.85,1.557l0.114,0l0,0.609l-3.166,0l0,-0.114l0,-0.495l0.112,0c0.929,-0.039 0.801,0.041 0.846,-1.557l0,-1.611c0,-0.094 0.004,-0.208 0.004,-0.32c-0.018,-0.658 -0.063,-1.386 -1.067,-1.393Z" style="fill:#fff;fill-rule:nonzero;"/></g></svg>