<?xml version="1.0" encoding="UTF-8"?>
<svg width="269px" height="123px" viewBox="0 0 269 123" version="1.1" xmlns="http://www.w3.org/2000/svg" xmlns:xlink="http://www.w3.org/1999/xlink">
    <!-- Generator: Sketch 57.1 (83088) - https://sketch.com -->
    <title>mellon_small</title>
    <desc>Created with Sketch.</desc>
    <g id="Page-1" stroke="none" stroke-width="1" fill="none" fill-rule="evenodd">
        <g id="mellon_small" fill-rule="nonzero">
            <g id="Group" transform="translate(1.000000, 43.000000)" fill="#FFFFFF">
                <polygon id="Path" points="44.8 48.8 37.9 48.8 37.9 11.4 37.8 11.4 23 30 21.9 30 7 11.4 6.9 11.4 6.9 48.8 0 48.8 0 0.8 6.5 0.8 22.4 20.5 38.4 0.8 44.8 0.8"></polygon>
                <polygon id="Path" points="82.4 7 62 7 62 21.5 81.6 21.5 81.6 27.7 62 27.7 62 42.6 83 42.6 83 48.8 55.1 48.8 55.1 0.8 82.4 0.8"></polygon>
                <polygon id="Path" points="98.9 42.6 120.6 42.6 120.6 48.8 92 48.8 92 0.8 98.9 0.8"></polygon>
                <polygon id="Path" points="137 42.6 158.7 42.6 158.7 48.8 130.1 48.8 130.1 0.8 137 0.8"></polygon>
                <path d="M188.3,0.1 C204.1,0.1 214.1,11.4 214.1,24.7 C214.1,37.7 204.4,49.3 188.1,49.3 C172.4,49.3 162.5,37.7 162.5,24.7 C162.5,11.5 172.7,0.1 188.3,0.1 Z M188.3,43.1 C199.1,43.1 207,35.3 207,24.8 C207,14.2 199,6.5 188.3,6.5 C177.6,6.5 169.6,14.2 169.6,24.8 C169.6,35.3 177.6,43.1 188.3,43.1 Z" id="Shape"></path>
                <polygon id="Path" points="267 48.8 261.1 48.8 229 11.8 229 48.8 222.5 48.8 222.5 0.8 228 0.8 260.6 38 260.6 0.8 267.1 0.8 267.1 48.8"></polygon>
            </g>
            <g id="Group" fill="#FFFFFF">
                <polygon id="Path" points="9.1 2 5.8 2 5.8 10.3 4.4 10.3 4.4 2 1.1 2 1.1 0.8 9.1 0.8"></polygon>
                <polygon id="Path" points="18.6 10.3 17.2 10.3 17.2 6.2 11.8 6.2 11.8 10.4 10.4 10.4 10.4 0.8 11.8 0.8 11.8 5 17.2 5 17.2 0.8 18.6 0.8"></polygon>
                <polygon id="Path" points="26.3 2 22.3 2 22.3 4.9 26.2 4.9 26.2 6.1 22.3 6.1 22.3 9.1 26.5 9.1 26.5 10.3 21 10.3 21 0.8 26.4 0.8 26.4 2"></polygon>
                <path d="M10.2,28.3 L8.8,28.3 L7.5,25.5 L3.5,25.5 L2.3,28.3 L0.9,28.3 L5,18.7 L6,18.7 L10.2,28.3 Z M4,24.3 L7,24.3 L5.5,20.8 L4,24.3 Z" id="Shape"></path>
                <polygon id="Path" points="20.2 28.3 19 28.3 12.7 21 12.7 28.4 11.4 28.4 11.4 18.8 12.5 18.8 19 26.2 19 18.8 20.3 18.8 20.3 28.3"></polygon>
                <path d="M22.5,18.8 L26.2,18.8 C29.7,18.8 31.3,21.3 31.3,23.6 C31.3,26.1 29.4,28.4 26.2,28.4 L22.5,28.4 L22.5,18.8 L22.5,18.8 Z M23.9,27.1 L26,27.1 C29.1,27.1 29.8,24.7 29.8,23.6 C29.8,21.7 28.6,20.1 25.9,20.1 L23.8,20.1 L23.8,27.1 L23.9,27.1 Z" id="Shape"></path>
                <path d="M35.5,18.8 C37.4,18.8 38.6,19.8 38.6,21.5 C38.6,22.6 38,23.4 37,23.8 C37.9,24.4 38.4,25.3 39.1,26.4 C39.5,27.1 39.7,27.4 40.4,28.3 L38.8,28.3 L37.5,26.3 C36.2,24.3 35.7,24.1 35,24.1 L34.4,24.1 L34.4,28.2 L33,28.2 L33,18.6 L35.5,18.6 L35.5,18.8 Z M34.5,22.9 L35.4,22.9 C36.9,22.9 37.3,22.1 37.3,21.3 C37.3,20.4 36.8,19.9 35.4,19.9 L34.5,19.9 L34.5,22.9 Z" id="Shape"></path>
                <polygon id="Path" points="47.1 20 43.1 20 43.1 22.9 47 22.9 47 24.1 43.1 24.1 43.1 27.1 47.3 27.1 47.3 28.3 41.8 28.3 41.8 18.7 47.2 18.7 47.2 20"></polygon>
                <polygon id="Path" points="58.5 28.4 58.2 28.4 55.1 20.6 51.9 28.4 51.6 28.4 47.7 18.8 49.1 18.8 51.7 25.4 54.3 18.8 55.6 18.8 58.3 25.4 60.9 18.8 62.3 18.8"></polygon>
                <polygon id="Path" points="79.5 28.4 79.2 28.4 76.1 20.6 73 28.4 72.7 28.4 68.8 18.8 70.2 18.8 72.8 25.4 75.4 18.8 76.7 18.8 79.4 25.4 82 18.8 83.4 18.8"></polygon>
                <path d="M84.1,27.6 C84.1,28.1 83.7,28.4 83.3,28.4 C82.9,28.4 82.5,28 82.5,27.6 C82.5,27.1 82.9,26.8 83.3,26.8 C83.7,26.8 84.1,27.2 84.1,27.6 Z" id="Path"></path>
            </g>
            <polygon id="Path" fill="#EF4B4B" points="39.3 43.7 45.8 43.7 45.8 45.9 24.1 73 22.8 73 19.3 68.6"></polygon>
            <g id="Group" transform="translate(136.000000, 108.000000)" fill="#FFFFFF">
                <polygon id="Path" points="8.2 2.3 2.9 2.3 2.9 6.1 8.2 6.1 8.2 7.9 2.9 7.9 2.9 14.2 0.9 14.2 0.9 0.6 8.2 0.6"></polygon>
                <path d="M17.7,0.4 C22.2,0.4 25,3.6 25,7.4 C25,11.1 22.2,14.4 17.6,14.4 C13.1,14.4 10.3,11.1 10.3,7.4 C10.4,3.6 13.3,0.4 17.7,0.4 Z M17.7,12.6 C20.8,12.6 23,10.4 23,7.4 C23,4.4 20.7,2.2 17.7,2.2 C14.7,2.2 12.4,4.4 12.4,7.4 C12.4,10.4 14.6,12.6 17.7,12.6 Z" id="Shape"></path>
                <path d="M39.3,8.8 C39.3,12.1 37.3,14.3 33.2,14.3 C30.3,14.3 27.5,12.7 27.5,9 L27.5,0.5 L29.5,0.5 L29.5,8.6 C29.5,10.1 29.7,10.8 30.3,11.4 C31.1,12.2 32.1,12.6 33.2,12.6 C34.7,12.6 35.8,12.1 36.4,11.5 C37.1,10.8 37.3,9.8 37.3,8.5 L37.3,0.6 L39.3,0.6 L39.3,8.8 L39.3,8.8 Z" id="Path"></path>
                <polygon id="Path" points="55 14.2 53.3 14.2 44.2 3.7 44.2 14.2 42.4 14.2 42.4 0.6 44 0.6 53.2 11.2 53.2 0.6 55 0.6"></polygon>
                <path d="M58.5,0.6 L63.8,0.6 C68.8,0.6 71.1,4.2 71.1,7.4 C71.1,10.9 68.4,14.2 63.9,14.2 L58.6,14.2 L58.6,0.6 L58.5,0.6 Z M60.5,12.4 L63.6,12.4 C68,12.4 69.1,9 69.1,7.3 C69.1,4.6 67.4,2.2 63.5,2.2 L60.5,2.2 L60.5,12.4 Z" id="Shape"></path>
                <path d="M84.8,14.2 L82.8,14.2 L81,10.2 L75.2,10.2 L73.5,14.2 L71.5,14.2 L77.4,0.5 L78.8,0.5 L84.8,14.2 Z M75.9,8.4 L80.1,8.4 L77.9,3.5 L75.9,8.4 Z" id="Shape"></path>
                <polygon id="Path" points="95 2.3 90.3 2.3 90.3 14.2 88.3 14.2 88.3 2.3 83.6 2.3 83.6 0.5 95 0.5"></polygon>
                <polygon id="Path" points="99.3 14.2 97.3 14.2 97.3 0.6 99.3 0.6"></polygon>
                <path d="M109.5,0.4 C114,0.4 116.8,3.6 116.8,7.4 C116.8,11.1 114,14.4 109.4,14.4 C104.9,14.4 102.1,11.1 102.1,7.4 C102.2,3.6 105.1,0.4 109.5,0.4 Z M109.5,12.6 C112.6,12.6 114.8,10.4 114.8,7.4 C114.8,4.4 112.5,2.2 109.5,2.2 C106.5,2.2 104.2,4.4 104.2,7.4 C104.2,10.4 106.5,12.6 109.5,12.6 Z" id="Shape"></path>
                <polygon id="Path" points="132.3 14.2 130.6 14.2 121.5 3.7 121.5 14.2 119.7 14.2 119.7 0.6 121.3 0.6 130.5 11.2 130.5 0.6 132.3 0.6"></polygon>
            </g>
        </g>
    </g>
</svg>