<?xml version="1.0" encoding="UTF-8"?>
<svg width="67px" height="67px" viewBox="0 0 67 67" version="1.1" xmlns="http://www.w3.org/2000/svg" xmlns:xlink="http://www.w3.org/1999/xlink">
    <!-- Generator: Sketch 53.1 (72631) - https://sketchapp.com -->
    <title>Icons/ObjectPlaceholder/Book</title>
    <desc>Created with Sketch.</desc>
    <g id="Icons/ObjectPlaceholder/Book" stroke="none" stroke-width="1" fill="none" fill-rule="evenodd" stroke-linecap="round" stroke-linejoin="round">
        <g id="Group" transform="translate(2.000000, 9.000000)" fill-rule="nonzero" stroke="#d82880" stroke-width="2">
            <polyline id="Path-20" points="-1.42108547e-14 36.75 22.2951217 49 63.7924528 25.375"></polyline>
            <path d="M22.2951217,48.5625 C23.6363853,31.9375 29.7322627,20.7083333 40.5827538,14.875 C51.433245,9.04166667 59.1698113,12.5416667 63.7924528,25.375" id="Path-21"></path>
            <path d="M1.0658141e-14,36.421875 C1.34126362,19.796875 7.43714101,8.56770833 18.2876322,2.734375 C24.2397387,-0.465537443 29.2548213,-0.85691787 33.3328798,1.56023372" id="Path-21"></path>
            <path d="M34.9471698,2.5375 C37.1845736,3.8636566 39.9060574,7.75503702 43.1116212,14.2116413" id="Path-21" stroke-dasharray="2,4"></path>
            <path d="M0,36.75 L41.6037736,13.125" id="Path-22" stroke-dasharray="2,4"></path>
            <path d="M31.8962264,0.875 C31.8962264,0.583333333 38.9842767,4.4625 53.1603774,12.5125" id="Path-23"></path>
            <path d="M42.9456237,14 L63.7924528,25.375" id="Path-24" stroke-dasharray="2,4"></path>
        </g>
    </g>
</svg>