<?xml version="1.0" encoding="UTF-8"?>
<svg width="67px" height="67px" viewBox="0 0 67 67" version="1.1" xmlns="http://www.w3.org/2000/svg" xmlns:xlink="http://www.w3.org/1999/xlink">
    <!-- Generator: Sketch 53.1 (72631) - https://sketchapp.com -->
    <title>Icons/ObjectPlaceholder/Woodblock</title>
    <desc>Created with Sketch.</desc>
    <g id="Icons/ObjectPlaceholder/Woodblock" stroke="none" stroke-width="1" fill="none" fill-rule="evenodd">
        <g id="Group" transform="translate(9.000000, 8.000000)" fill-rule="nonzero">
            <g id="noun_bridge_881154" transform="translate(-0.000000, 0.000000)" fill="#d82880">
                <path d="M0.212734338,17.4592219 C-0.0793615866,17.7585846 0.014006319,18.6391662 0.0148629053,19.1214728 L0.0645449102,37.9393091 C0.0662580827,38.8601558 0.632461621,39.8632836 1.41024197,40.3272083 L17.3376075,49.8262854 C17.6237073,49.9969746 18.4340379,50.2543216 18.7321299,50.2499449 C19.1724153,50.1965498 19.7540374,49.982094 20.0469899,49.7991501 L47.75413,33.1118662 C48.5062128,32.6278089 49.0535714,31.6185539 49.0535714,30.710837 L49.0535714,12.087324 C49.0535714,11.5428689 49.0407226,11.1673525 48.8976727,10.6859212 C48.7631887,10.2377525 48.1464465,9.96114829 47.7001651,9.69942474 L31.7239742,0.328145781 C30.9718914,-0.111269691 29.7769536,-0.109519031 29.0257274,0.334273088 L1.36055997,16.7291969 L0.212734338,17.4592219 Z M30.0108016,2.07180239 C30.1358632,1.99739937 30.6198345,1.99739937 30.7448961,2.07092706 L46.1000619,11.0798196 L19.0542064,27.109731 C18.9274316,27.1850093 18.4426038,27.1850093 18.3183988,27.1123569 L2.96237633,18.1025891 L30.0108016,2.07180239 Z M2.39959914,38.5914296 C2.23085164,38.4907667 2.02955386,38.1353829 2.02955386,37.9340571 L1.98244161,19.8444951 L17.3393206,28.8542629 C17.5072115,28.9522998 17.7042264,29.3024317 17.7042264,29.4993808 L17.7042264,47.7184916 L2.39959914,38.5914296 Z M20.0504412,29.0237069 L47.2176724,12.5625 L47.2176724,30.0630021 C47.2176724,30.7624327 46.8522901,31.4110481 46.2541017,31.7735033 L20.0504412,47.6508621 L20.0504412,29.0237069 Z" id="Shape"></path>
            </g>
            <path d="M30.3232759,3.46551724 L30.3232759,21.6594828" id="Path-11" stroke="#d82880" stroke-width="2.5" stroke-linecap="round" stroke-linejoin="round" stroke-dasharray="2,4"></path>
            <path d="M45.2036817,29.8900862 L30.3232759,21.6594828" id="Path-11" stroke="#d82880" stroke-width="2.5" stroke-linecap="round" stroke-linejoin="round" stroke-dasharray="2,4"></path>
            <path d="M1.73275862,38.1206897 L7.76019429,34.5590231 L18.3864096,28.2798959" id="Path-12" stroke="#d82880" stroke-width="2.5" stroke-linecap="round" stroke-linejoin="round" stroke-dasharray="2,4"></path>
        </g>
    </g>
</svg>