<?xml version="1.0" encoding="UTF-8" standalone="no"?><!DOCTYPE svg PUBLIC "-//W3C//DTD SVG 1.1//EN" "http://www.w3.org/Graphics/SVG/1.1/DTD/svg11.dtd"><svg width="100%" height="100%" viewBox="0 0 32 32" version="1.1" xmlns="http://www.w3.org/2000/svg" xmlns:xlink="http://www.w3.org/1999/xlink" xml:space="preserve" style="fill-rule:evenodd;clip-rule:evenodd;stroke-linejoin:round;stroke-miterlimit:1.41421;"><rect id="Annotations-2" x="0" y="0" width="32" height="32" style="fill:none;"/><g id="Layer-7"><path d="M10.848,24.897l1.216,-1.216l-3.141,-3.142l-1.217,1.217l0,1.43l1.711,0l0,1.711l1.431,0Zm6.991,-12.405c0,-0.196 -0.098,-0.295 -0.294,-0.295c-0.089,0 -0.165,0.032 -0.227,0.094l-7.246,7.245c-0.062,0.063 -0.093,0.139 -0.093,0.228c0,0.196 0.098,0.294 0.294,0.294c0.089,0 0.165,-0.031 0.227,-0.094l7.245,-7.245c0.063,-0.063 0.094,-0.138 0.094,-0.227Zm-0.722,-2.567l5.561,5.561l-11.122,11.122l-5.561,0l0,-5.561l11.122,-11.122Zm9.13,1.283c0,0.473 -0.164,0.874 -0.494,1.203l-2.219,2.219l-5.561,-5.561l2.219,-2.205c0.321,-0.339 0.722,-0.508 1.203,-0.508c0.472,0 0.878,0.169 1.216,0.508l3.142,3.128c0.33,0.347 0.494,0.753 0.494,1.216Z" style="fill-rule:nonzero;"/></g></svg>