<?xml version="1.0" encoding="UTF-8" standalone="no"?><!DOCTYPE svg PUBLIC "-//W3C//DTD SVG 1.1//EN" "http://www.w3.org/Graphics/SVG/1.1/DTD/svg11.dtd"><svg width="100%" height="100%" viewBox="0 0 32 32" version="1.1" xmlns="http://www.w3.org/2000/svg" xmlns:xlink="http://www.w3.org/1999/xlink" xml:space="preserve" style="fill-rule:evenodd;clip-rule:evenodd;stroke-linejoin:round;stroke-miterlimit:1.41421;"><rect id="Pages" x="0" y="0" width="32" height="32" style="fill:none;"/><path d="M25.006,9.617c0.241,0.241 0.447,0.568 0.62,0.981c0.172,0.414 0.258,0.793 0.258,1.137l0,14.88c0,0.344 -0.121,0.637 -0.362,0.878c-0.241,0.241 -0.534,0.361 -0.878,0.361l-17.36,0c-0.344,0 -0.637,-0.12 -0.878,-0.361c-0.241,-0.241 -0.362,-0.534 -0.362,-0.878l0,-20.667c0,-0.344 0.121,-0.637 0.362,-0.878c0.241,-0.241 0.534,-0.362 0.878,-0.362l11.573,0c0.345,0 0.724,0.087 1.137,0.259c0.413,0.172 0.741,0.379 0.982,0.62l4.03,4.03Zm-5.735,-3.152l0,4.857l4.856,0c-0.086,-0.25 -0.181,-0.427 -0.284,-0.53l-4.043,-4.043c-0.103,-0.103 -0.28,-0.198 -0.529,-0.284Zm4.96,19.736l0,-13.226l-5.374,0c-0.344,0 -0.637,-0.121 -0.878,-0.362c-0.241,-0.241 -0.362,-0.534 -0.362,-0.878l0,-5.373l-9.919,0l0,19.839l16.533,0Zm-13.227,-11.159c0,-0.121 0.039,-0.22 0.117,-0.298c0.077,-0.077 0.176,-0.116 0.297,-0.116l9.093,0c0.12,0 0.219,0.039 0.297,0.116c0.077,0.078 0.116,0.177 0.116,0.298l0,0.826c0,0.121 -0.039,0.22 -0.116,0.297c-0.078,0.078 -0.177,0.116 -0.297,0.116l-9.093,0c-0.121,0 -0.22,-0.038 -0.297,-0.116c-0.078,-0.077 -0.117,-0.176 -0.117,-0.297l0,-0.826Zm9.507,2.893c0.12,0 0.219,0.039 0.297,0.116c0.077,0.078 0.116,0.177 0.116,0.297l0,0.827c0,0.12 -0.039,0.219 -0.116,0.297c-0.078,0.077 -0.177,0.116 -0.297,0.116l-9.093,0c-0.121,0 -0.22,-0.039 -0.297,-0.116c-0.078,-0.078 -0.117,-0.177 -0.117,-0.297l0,-0.827c0,-0.12 0.039,-0.219 0.117,-0.297c0.077,-0.077 0.176,-0.116 0.297,-0.116l9.093,0Zm0,3.306c0.12,0 0.219,0.039 0.297,0.117c0.077,0.077 0.116,0.176 0.116,0.297l0,0.826c0,0.121 -0.039,0.22 -0.116,0.297c-0.078,0.078 -0.177,0.117 -0.297,0.117l-9.093,0c-0.121,0 -0.22,-0.039 -0.297,-0.117c-0.078,-0.077 -0.117,-0.176 -0.117,-0.297l0,-0.826c0,-0.121 0.039,-0.22 0.117,-0.297c0.077,-0.078 0.176,-0.117 0.297,-0.117l9.093,0Z" style="fill-rule:nonzero;"/></svg>